<svg xmlns="http://www.w3.org/2000/svg" fill="none" viewBox="0 0 605 742">
  <mask id="a" width="605" height="742" x="0" y="0" maskUnits="userSpaceOnUse">
    <rect width="605" height="742" fill="url(#paint0_linear)" rx="32"/>
  </mask>
  <g mask="url(#a)">
    <path fill="url(#paint1_linear)" d="M710.32 586.02c-91.106 0-164.875 73.654-164.875 164.619 0 90.964 71.729 149.005 164.875 162.582 11.218 1.697 22.437 2.036 33.995 2.036 73.089 0 138.359-25.456 188.332-71.278 19.377-17.989 40.794-40.391 56.092-62.114 25.491-35.978 116.941-187.359-41.474-363.518-55.072-61.095-60.511-130.676-34.675-178.535-16.998 51.932-11.558 111.33 44.873 172.086 161.477 174.122 72.747 341.117 47.257 378.113-18.701 26.815-38.078 50.574-62.215 72.636-52.352 48.198-121.362 79.764-198.19 79.764-88.727 0-167.935-40.731-219.947-104.541-21.077-25.796-86.687-76.709-86.347-165.977v-14.595l73.429-254.564 280.798-162.582c14.958 47.179 23.456 94.019 26.176 145.271-23.457 75.012-67.31 142.217-108.104 200.597zM669.526 480.8c31.955-30.547 49.293-104.201 49.293-104.201-148.558 10.182-223.687 128.979-242.044 187.359 18.697-41.749 160.796-52.61 192.751-83.158z"/>
    <path fill="url(#paint2_linear)" d="M83.793 585.002C42.999 526.961-.175 460.096-23.291 385.084c2.72-51.252 11.218-98.092 26.176-145.272l280.798 162.922 73.429 254.564v14.595c.34 89.607-65.271 140.52-86.347 165.977-52.013 63.81-131.221 104.541-219.947 104.541-76.829 0-145.838-31.566-198.191-79.764-24.136-22.062-43.513-45.821-62.21-72.636-25.836-36.996-114.223-203.991 47.253-377.434 56.431-60.756 62.21-120.494 44.873-172.086 25.836 47.858 20.397 117.439-34.675 178.535-158.416 175.819-66.97 327.54-41.474 363.518 15.298 21.723 36.715 44.125 56.092 62.114 49.633 45.821 115.243 71.278 188.332 71.278 11.558 0 22.776-.34 33.995-2.037 93.146-13.916 164.875-71.956 164.875-162.581 0-90.965-73.769-164.619-164.875-164.619l-1.02-1.697zm234.225-20.705c-18.358-58.38-93.486-177.177-242.044-187.359 0 0 17.337 73.654 49.292 104.202 31.956 30.547 174.054 41.069 192.752 83.157z"/>
    <path fill="url(#paint3_linear)" d="M2.871 240.168c-14.957 47.179-23.456 94.019-26.176 145.271 23.457-6.449 48.273-9.843 73.77-9.843 156.036 0 282.837 125.925 283.857 281.718h22.437l-73.43-254.564L2.871 240.168z"/>
    <path fill="url(#paint4_linear)" d="M2.871 240.168c-14.957 47.179-23.456 94.019-26.176 145.271 23.457-6.449 48.273-9.843 73.77-9.843 156.036 0 282.837 125.925 283.857 281.718h22.437l-73.43-254.564L2.871 240.168z"/>
    <path fill="url(#paint5_linear)" d="M791.907 240.152c14.958 47.18 23.457 94.02 26.176 145.272-23.456-6.449-48.272-9.843-73.768-9.843-156.037 0-282.838 125.924-283.858 281.718H438.02l73.429-254.565 280.458-162.582z"/>
    <path fill="url(#paint6_linear)" d="M791.907 240.152c14.958 47.18 23.457 94.02 26.176 145.272-23.456-6.449-48.272-9.843-73.768-9.843-156.037 0-282.838 125.924-283.858 281.718H438.02l73.429-254.565 280.458-162.582z"/>
    <path fill="url(#paint7_radial)" d="M-93.66 31.07c0-90.286 41.813-169.71 107.083-221.641 26.516-21.044 56.772-37.676 89.747-48.198-23.796 45.822-37.055 97.753-37.055 152.739 0 56.683 12.579 109.632 37.395 156.133 46.573 86.212 107.764 163.6 179.833 228.768 35.355 31.906 73.769 61.096 114.223 86.892 40.454-25.796 78.868-54.647 114.223-86.892 72.409-65.168 133.26-142.556 179.833-228.768 24.816-46.5 37.395-99.45 37.395-156.133 0-54.986-13.598-106.917-37.395-152.739 32.975 10.522 63.231 27.154 89.747 48.198 65.27 51.591 107.424 131.355 107.424 221.64 0 11.88 1.36 51.592-19.037 102.166-15.638 38.354-38.075 72.975-67.31 101.147-26.856 27.493-61.531 54.986-107.424 79.763-212.129 116.082-234.565 294.956-234.565 342.814 0 112.348 63.57 180.91 63.57 180.91l-57.111-51.931h-139.04l-57.111 51.931s63.57-68.223 63.57-180.91c0-47.858-22.436-226.732-234.565-342.814-45.553-25.117-80.567-52.27-107.423-79.763-29.236-28.172-51.673-62.793-67.31-101.147C-95.36 82.661-93.661 42.949-93.661 31.069z"/>
    <path fill="url(#paint8_linear)" d="M643.689 323.649c31.276-26.135 42.834-34.281 56.092-44.803 7.139-5.77 14.958-12.219 26.176-22.402 44.873-40.051 57.111-50.913 82.268-89.607 3.059-4.751 5.779-9.164 8.498-13.576 5.1-9.843 10.199-20.026 14.278-30.548 16.658-41.07 19.037-75.012 19.037-93.001V19.53c0-91.304-41.813-171.407-107.084-224.017v.679c-13.937-10.522-29.575-20.026-49.292-34.282 32.295 10.522 61.871 26.814 88.047 47.519 64.93 51.592 107.084 131.355 107.084 221.64 0 11.88 1.36 51.593-19.037 102.166-15.638 38.354-38.075 72.975-67.31 101.147-26.856 27.493-61.531 54.986-107.424 79.763-110.484 60.417-169.295 137.805-200.57 205.01 17.337-52.61 86.347-142.896 149.237-195.506z"/>
    <path fill="url(#paint9_linear)" d="M151.104 323.649c-31.276-26.135-42.834-34.281-56.092-44.803-7.139-5.77-14.958-12.219-26.176-22.402-44.873-40.051-57.111-50.913-82.268-89.607-3.06-4.751-5.779-9.164-8.498-13.576-5.1-9.843-10.199-20.026-14.278-30.548-16.658-41.07-19.038-75.012-19.038-93.001V19.53c0-91.304 41.814-171.407 107.084-224.017v.679c13.938-10.522 29.576-20.026 49.293-34.282-32.295 10.522-61.87 26.814-88.047 47.519C-51.846-138.979-93.66-59.216-93.66 31.069c0 11.88-1.36 51.593 19.037 102.166 15.638 38.354 38.075 72.975 67.31 101.147 26.856 27.493 61.531 54.986 107.424 79.763 110.484 60.417 169.295 137.805 200.57 205.01-17.677-52.61-86.687-142.896-149.577-195.506z"/>
  </g>
  <defs>
    <linearGradient id="paint0_linear" x1="8" x2="575.541" y1="14.287" y2="795.318" gradientUnits="userSpaceOnUse">
      <stop offset=".516" stop-color="#B12E2A"/>
      <stop offset="1" stop-color="#F47C45"/>
    </linearGradient>
    <linearGradient id="paint1_linear" x1="594.408" x2="1020.34" y1="938.049" y2="52.032" gradientUnits="userSpaceOnUse">
      <stop stop-color="#FF9E4B"/>
      <stop offset=".074" stop-color="#F78747"/>
      <stop offset=".227" stop-color="#E34E3D"/>
      <stop offset=".358" stop-color="#D11833"/>
      <stop offset=".468" stop-color="#980F1F"/>
      <stop offset=".632" stop-color="#3D0000"/>
    </linearGradient>
    <linearGradient id="paint2_linear" x1="200.405" x2="-225.53" y1="938.049" y2="52.032" gradientUnits="userSpaceOnUse">
      <stop stop-color="#FF9E4B"/>
      <stop offset=".074" stop-color="#F78747"/>
      <stop offset=".227" stop-color="#E34E3D"/>
      <stop offset=".358" stop-color="#D11833"/>
      <stop offset=".468" stop-color="#980F1F"/>
      <stop offset=".632" stop-color="#3D0000"/>
    </linearGradient>
    <linearGradient id="paint3_linear" x1="242.801" x2="-89.705" y1="475.494" y2="354.688" gradientUnits="userSpaceOnUse">
      <stop stop-color="#D11833"/>
      <stop offset=".148" stop-color="#CD1732"/>
      <stop offset=".289" stop-color="#C2162E"/>
      <stop offset=".426" stop-color="#AF1227"/>
      <stop offset=".561" stop-color="#940E1E"/>
      <stop offset=".695" stop-color="#710812"/>
      <stop offset=".826" stop-color="#480204"/>
      <stop offset=".855" stop-color="#3D0000"/>
    </linearGradient>
    <linearGradient id="paint4_linear" x1="149.459" x2="220.002" y1="495.498" y2="386.589" gradientUnits="userSpaceOnUse">
      <stop stop-color="#D11833" stop-opacity="0"/>
      <stop offset=".133" stop-color="#C7162F" stop-opacity=".133"/>
      <stop offset=".357" stop-color="#AD1226" stop-opacity=".357"/>
      <stop offset=".644" stop-color="#820B16" stop-opacity=".644"/>
      <stop offset=".982" stop-color="#470101" stop-opacity=".982"/>
      <stop offset="1" stop-color="#400"/>
    </linearGradient>
    <linearGradient id="paint5_linear" x1="551.998" x2="884.504" y1="475.478" y2="354.672" gradientUnits="userSpaceOnUse">
      <stop stop-color="#D11833"/>
      <stop offset=".148" stop-color="#CD1732"/>
      <stop offset=".289" stop-color="#C2162E"/>
      <stop offset=".426" stop-color="#AF1227"/>
      <stop offset=".561" stop-color="#940E1E"/>
      <stop offset=".695" stop-color="#710812"/>
      <stop offset=".826" stop-color="#480204"/>
      <stop offset=".855" stop-color="#3D0000"/>
    </linearGradient>
    <linearGradient id="paint6_linear" x1="645.34" x2="574.798" y1="495.483" y2="386.573" gradientUnits="userSpaceOnUse">
      <stop stop-color="#D11833" stop-opacity="0"/>
      <stop offset=".133" stop-color="#C7162F" stop-opacity=".133"/>
      <stop offset=".357" stop-color="#AD1226" stop-opacity=".357"/>
      <stop offset=".644" stop-color="#820B16" stop-opacity=".644"/>
      <stop offset=".982" stop-color="#470101" stop-opacity=".982"/>
      <stop offset="1" stop-color="#400"/>
    </linearGradient>
    <linearGradient id="paint8_linear" x1="347.81" x2="939.673" y1="621.835" y2="-294.262" gradientUnits="userSpaceOnUse">
      <stop offset=".185" stop-color="#EC6841"/>
      <stop offset=".196" stop-color="#E7633F"/>
      <stop offset=".296" stop-color="#BF3E30"/>
      <stop offset=".387" stop-color="#A32324"/>
      <stop offset=".465" stop-color="#91131D"/>
      <stop offset=".523" stop-color="#8B0D1B"/>
      <stop offset=".578" stop-color="#981420"/>
      <stop offset=".678" stop-color="#B9272C"/>
      <stop offset=".771" stop-color="#DD3C39"/>
      <stop offset=".833" stop-color="#E95D3F"/>
    </linearGradient>
    <linearGradient id="paint9_linear" x1="447.02" x2="-144.843" y1="621.835" y2="-294.262" gradientUnits="userSpaceOnUse">
      <stop offset=".185" stop-color="#EC6841"/>
      <stop offset=".196" stop-color="#E7633F"/>
      <stop offset=".296" stop-color="#BF3E30"/>
      <stop offset=".387" stop-color="#A32324"/>
      <stop offset=".465" stop-color="#91131D"/>
      <stop offset=".523" stop-color="#8B0D1B"/>
      <stop offset=".578" stop-color="#981420"/>
      <stop offset=".678" stop-color="#B9272C"/>
      <stop offset=".771" stop-color="#DD3C39"/>
      <stop offset=".833" stop-color="#E95D3F"/>
    </linearGradient>
    <radialGradient id="paint7_radial" cx="0" cy="0" r="1" gradientTransform="matrix(-768.182 0 0 -1370.68 397.407 780.678)" gradientUnits="userSpaceOnUse">
      <stop stop-color="#FF9E4B"/>
      <stop offset=".415" stop-color="#DE3F3A"/>
      <stop offset=".608" stop-color="#D11833"/>
      <stop offset=".67" stop-color="#D21C34"/>
      <stop offset=".733" stop-color="#D72836"/>
      <stop offset=".797" stop-color="#DE3D3A"/>
      <stop offset=".862" stop-color="#E85A3F"/>
      <stop offset=".926" stop-color="#F47E45"/>
      <stop offset=".973" stop-color="#FF9E4B"/>
    </radialGradient>
  </defs>
</svg>
