<svg width="42" height="42" viewBox="0 0 42 42" fill="none" xmlns="http://www.w3.org/2000/svg">
<g clip-path="url(#clip0_4594)">
<g filter="url(#filter0_di_4594)">
<path d="M8.00092 14.0177C8.00092 11.6696 9.10743 9.60404 10.8347 8.25347C11.5364 7.70618 12.337 7.27364 13.2096 7C12.5799 8.19168 12.2291 9.54224 12.2291 10.9723C12.2291 12.4464 12.5619 13.8235 13.2186 15.0328C14.4511 17.2749 16.0704 19.2875 17.9775 20.9823C18.9131 21.8121 19.9297 22.5712 21.0002 23.2421C22.0707 22.5712 23.0873 21.8209 24.0229 20.9823C25.939 19.2875 27.5493 17.2749 28.7818 15.0328C29.4385 13.8235 29.7714 12.4464 29.7714 10.9723C29.7714 9.54224 29.4115 8.19168 28.7818 7C29.6544 7.27364 30.4551 7.70618 31.1568 8.25347C32.884 9.59521 33.9995 11.6696 33.9995 14.0177C33.9995 14.3266 34.0355 15.3594 33.4957 16.6747C33.0819 17.6721 32.4882 18.5725 31.7145 19.3052C31.0038 20.0202 30.0862 20.7352 28.8718 21.3796C23.2582 24.3985 22.6645 29.0504 22.6645 30.2951C22.6645 33.2169 24.3467 35 24.3467 35H22.9063H21.6326H20.9321H19.2126H17.6447C17.6447 35 19.3269 33.2257 19.3269 30.2951C19.3269 29.0504 18.7332 24.3985 13.1197 21.3796C11.9142 20.7264 10.9876 20.0202 10.2769 19.3052C9.50326 18.5725 8.90952 17.6721 8.4957 16.6747C7.95594 15.3594 8.00092 14.3266 8.00092 14.0177Z" fill="url(#paint0_linear_4594)"/>
<path d="M8.00092 14.0177C8.00092 11.6696 9.10743 9.60404 10.8347 8.25347C11.5364 7.70618 12.337 7.27364 13.2096 7C12.5799 8.19168 12.2291 9.54224 12.2291 10.9723C12.2291 12.4464 12.5619 13.8235 13.2186 15.0328C14.4511 17.2749 16.0704 19.2875 17.9775 20.9823C18.9131 21.8121 19.9297 22.5712 21.0002 23.2421C22.0707 22.5712 23.0873 21.8209 24.0229 20.9823C25.939 19.2875 27.5493 17.2749 28.7818 15.0328C29.4385 13.8235 29.7714 12.4464 29.7714 10.9723C29.7714 9.54224 29.4115 8.19168 28.7818 7C29.6544 7.27364 30.4551 7.70618 31.1568 8.25347C32.884 9.59521 33.9995 11.6696 33.9995 14.0177C33.9995 14.3266 34.0355 15.3594 33.4957 16.6747C33.0819 17.6721 32.4882 18.5725 31.7145 19.3052C31.0038 20.0202 30.0862 20.7352 28.8718 21.3796C23.2582 24.3985 22.6645 29.0504 22.6645 30.2951C22.6645 33.2169 24.3467 35 24.3467 35H22.9063H21.6326H20.9321H19.2126H17.6447C17.6447 35 19.3269 33.2257 19.3269 30.2951C19.3269 29.0504 18.7332 24.3985 13.1197 21.3796C11.9142 20.7264 10.9876 20.0202 10.2769 19.3052C9.50326 18.5725 8.90952 17.6721 8.4957 16.6747C7.95594 15.3594 8.00092 14.3266 8.00092 14.0177Z" stroke="url(#paint1_linear_4594)"/>
</g>
</g>
<defs>
<filter id="filter0_di_4594" x="-52.5" y="-53.8406" width="147" height="149.341" filterUnits="userSpaceOnUse" color-interpolation-filters="sRGB">
<feFlood flood-opacity="0" result="BackgroundImageFix"/>
<feColorMatrix in="SourceAlpha" type="matrix" values="0 0 0 0 0 0 0 0 0 0 0 0 0 0 0 0 0 0 127 0" result="hardAlpha"/>
<feOffset/>
<feGaussianBlur stdDeviation="30"/>
<feComposite in2="hardAlpha" operator="out"/>
<feColorMatrix type="matrix" values="0 0 0 0 0.835294 0 0 0 0 0.188235 0 0 0 0 0.219608 0 0 0 0.5 0"/>
<feBlend mode="normal" in2="BackgroundImageFix" result="effect1_dropShadow_4594"/>
<feBlend mode="normal" in="SourceGraphic" in2="effect1_dropShadow_4594" result="shape"/>
<feColorMatrix in="SourceAlpha" type="matrix" values="0 0 0 0 0 0 0 0 0 0 0 0 0 0 0 0 0 0 127 0" result="hardAlpha"/>
<feOffset dy="2"/>
<feGaussianBlur stdDeviation="2"/>
<feComposite in2="hardAlpha" operator="arithmetic" k2="-1" k3="1"/>
<feColorMatrix type="matrix" values="0 0 0 0 0 0 0 0 0 0 0 0 0 0 0 0 0 0 0.25 0"/>
<feBlend mode="normal" in2="shape" result="effect2_innerShadow_4594"/>
</filter>
<linearGradient id="paint0_linear_4594" x1="21" y1="7" x2="21" y2="35" gradientUnits="userSpaceOnUse">
<stop stop-color="#DF3F3A"/>
<stop offset="1" stop-color="#F47C45"/>
</linearGradient>
<linearGradient id="paint1_linear_4594" x1="18.4522" y1="8.73186" x2="31.5968" y2="26.9212" gradientUnits="userSpaceOnUse">
<stop stop-color="#AF142E"/>
<stop offset="1" stop-color="#F27744"/>
</linearGradient>
<clipPath id="clip0_4594">
<rect width="42" height="42" fill="white"/>
</clipPath>
</defs>
</svg>
