<svg xmlns="http://www.w3.org/2000/svg" fill="none" viewBox="0 0 686 502">
  <path fill="url(#paint0_linear)" d="M351.941 398.766l-55.392-32.625 15.428-8.769c1.289.416 2.745.624 4.242.624 2.453 0 4.824-.582 6.612-1.621 2.038-1.164 3.202-2.909 3.202-4.738 0-1.87-1.123-3.533-3.202-4.696-1.788-1.039-4.076-1.58-6.529-1.58-2.454 0-4.824.582-6.612 1.621-2.038 1.164-3.202 2.909-3.202 4.738 0 1.455.707 2.785 1.996 3.907L290.02 366.1l55.35 32.541-83.421 45.965 42.459 25.892-49.82 27.678-44.247-25.559c1.123-1.039 1.788-2.327 1.788-3.699 0-1.87-1.122-3.532-3.202-4.696-1.788-1.039-4.075-1.579-6.529-1.579-2.453 0-4.824.582-6.612 1.621-2.038 1.163-3.202 2.909-3.202 4.738 0 1.87 1.123 3.532 3.202 4.737 1.788 1.039 4.076 1.58 6.529 1.58 1.788 0 3.493-.291 4.99-.873l-.083.125 47.325 27.387 56.39-31.377-42.417-25.85 83.421-45.965zm-40.588-48.958c1.289-.748 3.119-1.163 4.99-1.163 1.872 0 3.66.415 4.908 1.163.998.582 1.538 1.247 1.538 1.87 0 .624-.582 1.33-1.58 1.912-2.537 1.496-7.319 1.496-9.897 0-.999-.582-1.539-1.247-1.539-1.87s.582-1.33 1.58-1.912zM197.366 470.913c-.998-.582-1.538-1.247-1.538-1.87s.582-1.33 1.58-1.912c1.289-.748 3.077-1.163 4.99-1.163 1.872 0 3.66.415 4.907 1.163.998.582 1.539 1.247 1.539 1.871 0 .623-.582 1.329-1.58 1.911-2.579 1.455-7.361 1.496-9.898 0z"/>
  <path fill="url(#paint1_linear)" d="M394.899 355.544c1.248-1.081 1.913-2.411 1.913-3.824 0-1.829-1.164-3.574-3.202-4.738-1.788-1.039-4.159-1.621-6.612-1.621-2.454 0-4.782.582-6.529 1.58-2.038 1.205-3.202 2.867-3.202 4.696 0 1.829 1.164 3.574 3.202 4.738 1.788 1.039 4.158 1.621 6.612 1.621 1.539 0 3.036-.25 4.367-.665l45.702 26.058-84.253 47.835 58.47 35.367 55.434-32.874c1.414.499 2.994.748 4.658.748 2.453 0 4.782-.581 6.529-1.579 2.037-1.205 3.202-2.867 3.202-4.738 0-1.828-1.165-3.574-3.202-4.737-1.788-1.039-4.159-1.621-6.612-1.621-2.454 0-4.783.582-6.529 1.579-2.038 1.205-3.203 2.868-3.203 4.738 0 1.371.666 2.66 1.83 3.74l-52.024 30.962-52.024-31.502 84.378-47.918-48.905-27.845zm-12.767-1.954c-.998-.582-1.58-1.288-1.58-1.912 0-.623.582-1.329 1.539-1.87 1.247-.748 3.035-1.163 4.907-1.163 1.871 0 3.701.415 4.99 1.163.998.582 1.58 1.289 1.58 1.912s-.582 1.33-1.538 1.87c-2.537 1.496-7.319 1.496-9.898 0zm84.336 72.688c1.248-.748 3.036-1.164 4.908-1.164 1.871 0 3.701.416 4.99 1.164.998.582 1.58 1.289 1.58 1.912s-.582 1.33-1.539 1.87c-2.536 1.455-7.319 1.455-9.897-.041-.998-.582-1.58-1.289-1.58-1.912 0-.582.582-1.289 1.538-1.829z"/>
  <path fill="url(#paint2_linear)" d="M481.19 463.89c0-1.372-.666-2.702-1.83-3.782l79.678-49.623-130.122-74.433c.873-.956 1.372-2.078 1.372-3.283 0-1.829-1.164-3.574-3.202-4.738-1.788-1.039-4.158-1.621-6.612-1.621-2.453 0-4.782.582-6.529 1.579-2.037 1.206-3.202 2.868-3.202 4.697 0 1.828 1.165 3.574 3.202 4.737 1.788 1.039 4.159 1.621 6.612 1.621 1.913 0 3.743-.374 5.323-.997l126.712 72.563-76.517 47.669a14.282 14.282 0 00-4.7-.789c-2.453 0-4.782.581-6.529 1.579-2.037 1.205-3.202 2.867-3.202 4.738 0 1.828 1.165 3.574 3.202 4.737 1.789 1.039 4.159 1.621 6.612 1.621 2.454 0 4.783-.582 6.529-1.579 2.08-1.164 3.203-2.826 3.203-4.696zm-65.623-129.209c-.998-.582-1.58-1.289-1.58-1.912 0-.624.582-1.33 1.539-1.87 1.247-.749 3.035-1.164 4.907-1.164 1.871 0 3.701.415 4.99 1.164.998.581 1.58 1.288 1.58 1.911 0 .624-.582 1.33-1.538 1.871-2.537 1.496-7.32 1.496-9.898 0zm60.799 131.079c-2.537 1.455-7.32 1.455-9.898 0-.998-.582-1.58-1.288-1.58-1.912 0-.623.582-1.33 1.539-1.87 1.247-.748 3.035-1.164 4.907-1.164 1.538 0 3.035.291 4.2.832l.374.581.416-.249c.998.582 1.58 1.288 1.58 1.912 0 .623-.54 1.33-1.538 1.87z"/>
  <path fill="url(#paint3_linear)" d="M615.72 452.295c-1.788-1.039-4.159-1.621-6.612-1.621-2.454 0-4.783.582-6.529 1.579-2.038 1.205-3.202 2.868-3.202 4.738 0 1.122.457 2.244 1.289 3.2l-31.98 18.369-40.005-23.398 67.577-41.809-150.499-86.818c.79-.915 1.247-1.995 1.247-3.159 0-1.828-1.164-3.574-3.202-4.738-1.788-1.039-4.158-1.62-6.612-1.62-2.454 0-4.782.581-6.529 1.579-2.038 1.205-3.202 2.868-3.202 4.696 0 1.829 1.164 3.574 3.202 4.738 1.788 1.039 4.159 1.621 6.612 1.621 1.996 0 3.909-.416 5.531-1.081l147.131 84.865-67.536 41.809 46.285 27.097 34.974-20.115c1.622.707 3.535 1.122 5.573 1.122 2.453 0 4.782-.581 6.529-1.579 2.037-1.205 3.202-2.867 3.202-4.738 0-1.828-1.165-3.574-3.244-4.737zm-183.435-127.09c-.998-.582-1.58-1.288-1.58-1.912 0-.623.582-1.33 1.538-1.87 1.248-.748 3.036-1.164 4.907-1.164 1.872 0 3.702.416 4.991 1.164.998.582 1.58 1.288 1.58 1.912 0 .623-.582 1.33-1.539 1.87-2.536 1.496-7.319 1.496-9.897 0zM614.14 458.944c-1.248.748-3.036 1.164-4.907 1.164-1.872 0-3.702-.416-4.991-1.164-.998-.582-1.58-1.288-1.58-1.912 0-.623.582-1.33 1.539-1.87 1.247-.748 3.035-1.163 4.907-1.163 1.871 0 3.701.415 4.99 1.163.998.582 1.58 1.289 1.58 1.912s-.54 1.288-1.538 1.87z"/>
  <path fill="#000316" d="M682.756 221.513c-1.788-1.039-4.158-1.62-6.612-1.62-2.453 0-4.782.581-6.529 1.579l-58.844-32.666 17.508-10.099c1.747.956 3.992 1.454 6.321 1.454 2.454 0 4.782-.581 6.529-1.579 2.038-1.205 3.202-2.867 3.202-4.738 0-1.828-1.164-3.574-3.202-4.737-1.788-1.039-4.159-1.621-6.612-1.621-2.454 0-4.783.582-6.529 1.579-2.038 1.205-3.202 2.868-3.202 4.738 0 .914.291 1.828.873 2.66l-21.5 12.384 62.961 34.952a4.45 4.45 0 00-.665 2.369c0 1.829 1.164 3.574 3.202 4.738 1.788 1.039 4.158 1.621 6.612 1.621 2.454 0 4.782-.582 6.529-1.58 2.038-1.163 3.202-2.867 3.202-4.737 0-1.787-1.164-3.491-3.244-4.697zm-53.146-49.539c1.247-.748 3.035-1.164 4.907-1.164 1.871 0 3.701.416 4.99 1.164.998.582 1.58 1.288 1.58 1.912 0 .623-.582 1.33-1.538 1.87-2.537 1.455-7.319 1.455-9.898 0-.998-.582-1.58-1.288-1.58-1.912 0-.623.541-1.33 1.539-1.87zm51.566 56.189c-1.247.748-3.036 1.164-4.907 1.164s-3.701-.416-4.99-1.164c-.998-.582-1.581-1.288-1.581-1.912 0-.249.125-.499.292-.789l.582.332.831-1.496c1.248-.665 2.953-1.081 4.741-1.081 1.872 0 3.701.416 4.991 1.164.998.582 1.58 1.288 1.58 1.912 0 .623-.541 1.288-1.539 1.87z"/>
  <path fill="url(#paint4_linear)" d="M255.961 318.597c2.038-1.164 3.202-2.909 3.202-4.738 0-1.87-1.123-3.532-3.202-4.696-1.788-1.039-4.076-1.579-6.529-1.579-2.454 0-4.824.581-6.612 1.62-2.038 1.164-3.202 2.91-3.202 4.738 0 1.039.374 2.037 1.081 2.909l-60.092 33.872-34.641-18.12-37.344 19.74-90.49-56.687c.914-.997 1.413-2.12 1.413-3.366 0-1.829-1.164-3.574-3.202-4.738-1.788-1.039-4.158-1.621-6.612-1.621-2.453 0-4.782.582-6.529 1.579C1.164 288.715 0 290.378 0 292.248c0 1.829 1.164 3.574 3.202 4.738 1.788 1.039 4.159 1.621 6.612 1.621 2.33 0 4.533-.541 6.28-1.455l-.5.79 93.028 58.225 37.469-19.824 34.558 18.037 62.878-35.409-.042-.042c1.663.79 3.701 1.247 5.864 1.247 2.453 0 4.782-.54 6.612-1.579zm-241.24-24.396c-2.536 1.455-7.319 1.455-9.897 0-.998-.581-1.58-1.288-1.58-1.911 0-.624.582-1.33 1.538-1.871 1.248-.748 3.036-1.163 4.908-1.163 1.87 0 3.7.415 4.99 1.163.998.582 1.58 1.289 1.58 1.912.042.624-.54 1.289-1.539 1.87zm228.14 19.7c0-.624.582-1.33 1.581-1.912 1.289-.748 3.118-1.164 4.99-1.164 1.871 0 3.659.416 4.907 1.164.998.582 1.539 1.247 1.539 1.87 0 .624-.583 1.33-1.581 1.912-2.536 1.496-7.319 1.496-9.897 0-.957-.54-1.539-1.247-1.539-1.87z"/>
  <path fill="url(#paint5_linear)" d="M306.114 346.982c2.037-1.163 3.202-2.909 3.202-4.738 0-1.87-1.123-3.532-3.202-4.696-1.789-1.039-4.076-1.579-6.529-1.579-2.454 0-4.824.582-6.612 1.621-2.038 1.163-3.203 2.909-3.203 4.738 0 1.496.749 2.867 2.08 3.948l-36.346 20.572 51.899 29.881-21.375 12.51-20.752-12.344c.957-.997 1.456-2.119 1.456-3.366 0-1.828-1.165-3.574-3.202-4.738-1.788-1.039-4.159-1.62-6.612-1.62-2.454 0-4.783.581-6.529 1.579-2.038 1.205-3.202 2.867-3.202 4.738 0 1.828 1.164 3.574 3.202 4.737 1.788 1.039 4.158 1.621 6.612 1.621 1.871 0 3.659-.332 5.198-.956l23.787 14.131 27.904-16.333-51.816-29.84 32.728-18.536-.332-.623c1.497.582 3.202.873 4.99.873 2.495 0 4.865-.541 6.654-1.58zm-54.062 48.417c-.998-.581-1.58-1.288-1.58-1.911 0-.624.582-1.33 1.538-1.871 1.248-.748 3.036-1.163 4.908-1.163 1.871 0 3.701.415 4.99 1.163.998.582 1.58 1.289 1.58 1.912 0 .624-.582 1.33-1.539 1.87-2.578 1.497-7.36 1.455-9.897 0zm41.004-53.113c0-.623.582-1.33 1.58-1.912 1.289-.748 3.119-1.163 4.99-1.163 1.872 0 3.66.415 4.907 1.163.998.582 1.539 1.247 1.539 1.87 0 .624-.582 1.33-1.58 1.912-2.537 1.496-7.319 1.496-9.898 0-.998-.582-1.538-1.247-1.538-1.87z"/>
  <path fill="url(#paint6_linear)" d="M504.062 279.157c-2.453 0-4.782.582-6.529 1.579-2.038 1.205-3.202 2.868-3.202 4.696 0 1.829 1.164 3.574 3.202 4.738 1.788 1.039 4.159 1.621 6.612 1.621 2.454 0 4.783-.582 6.529-1.579 2.038-1.206 3.202-2.868 3.202-4.738 0-1.081-.415-2.161-1.206-3.076l32.146-20.239-30.815-17.788 27.78-16.79c1.58.665 3.493 1.039 5.447 1.039 2.454 0 4.783-.582 6.529-1.579 2.038-1.205 3.202-2.868 3.202-4.738 0-1.829-1.164-3.574-3.202-4.738-1.788-1.039-4.158-1.621-6.612-1.621-2.453 0-4.782.582-6.529 1.58-2.038 1.205-3.202 2.867-3.202 4.737 0 1.206.499 2.328 1.372 3.284l-31.189 18.868 30.898 17.829-28.652 18.037c-1.664-.707-3.66-1.122-5.781-1.122zm38.176-58.766c1.248-.748 3.036-1.163 4.907-1.163s3.701.415 4.99 1.163c.998.582 1.581 1.289 1.581 1.912s-.582 1.33-1.539 1.87c-2.537 1.455-7.319 1.455-9.897 0-.998-.582-1.581-1.288-1.581-1.912-.041-.623.541-1.288 1.539-1.87zm-33.186 66.995c-2.536 1.454-7.319 1.454-9.897 0-.998-.582-1.58-1.289-1.58-1.912 0-.624.582-1.33 1.538-1.87 1.248-.748 3.036-1.164 4.908-1.164 1.871 0 3.701.416 4.99 1.164.998.582 1.58 1.288 1.58 1.911.042.624-.54 1.33-1.539 1.871z"/>
  <path fill="url(#paint7_linear)" d="M460.48 309.121c-1.788-1.039-4.159-1.621-6.612-1.621-2.454 0-4.783.582-6.529 1.58-2.038 1.205-3.202 2.867-3.202 4.696 0 1.829 1.164 3.574 3.202 4.738 1.788 1.039 4.158 1.621 6.612 1.621 2.37 0 4.616-.541 6.363-1.497l110.535 63.421.831.498 38.634-24.187a14.166 14.166 0 005.905 1.288c2.453 0 4.782-.582 6.529-1.579 2.038-1.206 3.202-2.868 3.202-4.738 0-1.829-1.164-3.574-3.202-4.738-1.788-1.039-4.159-1.621-6.612-1.621-2.454 0-4.783.582-6.529 1.58-2.038 1.205-3.202 2.867-3.202 4.737 0 1.081.415 2.078 1.122 2.993l-35.888 22.483-108.747-62.422c.499-.79.748-1.621.748-2.494.084-1.787-1.081-3.532-3.16-4.738zm150.79 42.308c1.248-.748 3.036-1.164 4.907-1.164 1.872 0 3.701.416 4.991 1.164.998.582 1.58 1.289 1.58 1.912s-.582 1.33-1.539 1.87c-2.537 1.455-7.319 1.455-9.897-.041-.998-.582-1.581-1.289-1.581-1.912 0-.582.583-1.247 1.539-1.829zm-162.268-35.658c-.998-.582-1.58-1.288-1.58-1.912 0-.623.582-1.33 1.539-1.87 1.247-.748 3.035-1.164 4.907-1.164 1.871 0 3.701.416 4.99 1.164.998.582 1.58 1.288 1.58 1.912 0 .623-.582 1.33-1.538 1.87-2.537 1.496-7.319 1.454-9.898 0z"/>
  <path fill="#000316" d="M436.984 423.452c2.454 0 4.783-.582 6.529-1.579 2.038-1.205 3.202-2.868 3.202-4.738 0-1.829-1.164-3.574-3.202-4.738-1.788-1.039-4.158-1.621-6.612-1.621-2.453 0-4.782.582-6.529 1.58-2.038 1.205-3.202 2.867-3.202 4.737 0 .873.291 1.746.79 2.536l-14.43 8.644.291.457c-1.788-.997-4.075-1.537-6.487-1.537-2.454 0-4.783.581-6.529 1.579-2.038 1.205-3.202 2.867-3.202 4.738 0 1.828 1.164 3.574 3.202 4.737 1.788 1.039 4.158 1.621 6.612 1.621 2.453 0 4.782-.582 6.529-1.579 2.037-1.205 3.202-2.868 3.202-4.738 0-1.039-.416-2.078-1.123-2.992l14.472-8.686c1.788 1.039 4.075 1.579 6.487 1.579zm-5.032-8.229c1.248-.748 3.036-1.163 4.908-1.163 1.871 0 3.701.415 4.99 1.163.998.582 1.58 1.289 1.58 1.912s-.582 1.33-1.539 1.87c-2.536 1.455-7.319 1.455-9.897 0-.998-.582-1.58-1.288-1.58-1.912 0-.623.54-1.329 1.538-1.87zm-19.586 20.24c-2.537 1.455-7.32 1.454-9.898-.042-.998-.582-1.58-1.288-1.58-1.911 0-.624.582-1.33 1.539-1.871 1.247-.748 3.035-1.163 4.907-1.163 1.871 0 3.701.415 4.99 1.163.998.582 1.58 1.289 1.58 1.912 0 .665-.582 1.33-1.538 1.912z"/>
  <path fill="url(#paint8_linear)" d="M379.014 483.589c-1.788-1.039-4.159-1.621-6.612-1.621-2.038 0-3.951.416-5.573 1.122l-61.505-35.575 91.904-52.074-37.635-22.401c.749-.914 1.123-1.912 1.123-3.034 0-1.828-1.164-3.574-3.202-4.738-1.788-1.039-4.159-1.62-6.612-1.62-2.454 0-4.783.581-6.529 1.579-2.038 1.205-3.202 2.868-3.202 4.738 0 1.828 1.164 3.574 3.202 4.738 1.788 1.039 4.158 1.62 6.612 1.62 2.079 0 4.075-.415 5.697-1.205l33.976 20.24-91.988 52.116 65.165 37.694c-.79.915-1.206 1.995-1.206 3.117 0 1.829 1.164 3.574 3.202 4.738 1.788 1.039 4.159 1.621 6.612 1.621 2.454 0 4.783-.582 6.529-1.579 2.038-1.206 3.202-2.868 3.202-4.738.042-1.829-1.123-3.574-3.16-4.738zm-32.978-111.671c-.998-.582-1.58-1.288-1.58-1.912 0-.623.582-1.33 1.539-1.87 1.247-.748 3.035-1.164 4.907-1.164 1.871 0 3.701.416 4.99 1.164.998.582 1.58 1.288 1.58 1.912 0 .623-.582 1.33-1.538 1.87-2.537 1.455-7.32 1.455-9.898 0zm31.397 118.279c-2.536 1.455-7.319 1.455-9.897 0-.998-.582-1.58-1.288-1.58-1.912 0-.623.582-1.33 1.538-1.87 1.248-.748 3.036-1.164 4.908-1.164 1.871 0 3.701.416 4.99 1.164.998.582 1.58 1.288 1.58 1.912 0 .623-.582 1.33-1.539 1.87z"/>
  <path fill="url(#paint9_linear)" d="M236.748 419.587c0 1.829 1.164 3.574 3.202 4.738 1.788 1.039 4.159 1.621 6.612 1.621 2.454 0 4.783-.582 6.529-1.58 2.038-1.205 3.202-2.867 3.202-4.737 0-1.829-1.164-3.575-3.202-4.738-1.788-1.039-4.158-1.621-6.612-1.621-2.329 0-4.574.54-6.321 1.455l-45.952-26.266 83.338-49.539-.707-1.206c1.705.832 3.784 1.33 5.988 1.33 2.454 0 4.824-.582 6.612-1.621 2.038-1.163 3.202-2.909 3.202-4.737 0-1.871-1.122-3.533-3.202-4.697-1.788-1.039-4.075-1.579-6.529-1.579-2.453 0-4.824.582-6.612 1.621-2.038 1.164-3.202 2.909-3.202 4.738 0 1.454.707 2.784 1.996 3.865l-87.413 51.949 49.82 28.469c-.499.79-.749 1.621-.749 2.535zm41.17-88.688c1.289-.749 3.119-1.164 4.99-1.164 1.872 0 3.66.415 4.907 1.164.999.581 1.539 1.246 1.539 1.87 0 .623-.582 1.33-1.58 1.911-2.537 1.497-7.319 1.497-9.898 0-.998-.581-1.538-1.246-1.538-1.87 0-.623.54-1.33 1.58-1.911zm-31.48 85.654c1.871 0 3.701.416 4.99 1.164.998.582 1.58 1.288 1.58 1.912 0 .623-.582 1.33-1.539 1.87-2.536 1.454-7.319 1.454-9.897 0-.998-.582-1.58-1.289-1.58-1.912s.582-1.33 1.538-1.87c1.29-.748 3.078-1.164 4.908-1.164z"/>
  <path fill="url(#paint10_linear)" d="M490.048 385.425c-1.789-1.039-4.159-1.621-6.613-1.621-2.245 0-4.408.499-6.113 1.372l-65.04-39.731c.832-.956 1.248-2.037 1.248-3.159 0-1.829-1.165-3.574-3.202-4.738-1.789-1.039-4.159-1.621-6.613-1.621-2.453 0-4.782.582-6.529 1.58-2.037 1.205-3.202 2.867-3.202 4.696 0 1.828 1.165 3.574 3.202 4.738 1.789 1.039 4.159 1.621 6.613 1.621 1.996 0 3.909-.375 5.489-1.081l65.29 39.897c-.583.831-.915 1.746-.915 2.743 0 1.829 1.164 3.574 3.202 4.738 1.788 1.039 4.158 1.621 6.612 1.621 2.454 0 4.782-.582 6.529-1.579 2.038-1.206 3.202-2.868 3.202-4.738.042-1.829-1.123-3.574-3.16-4.738zm-91.198-41.269c-.998-.582-1.58-1.288-1.58-1.912 0-.623.582-1.329 1.538-1.87 1.248-.748 3.036-1.163 4.907-1.163 1.872 0 3.702.415 4.991 1.163.998.582 1.58 1.289 1.58 1.912s-.582 1.33-1.539 1.87c-2.536 1.455-7.319 1.455-9.897 0zm89.617 47.919c-2.536 1.454-7.319 1.454-9.897-.042-.998-.582-1.58-1.288-1.58-1.912 0-.623.582-1.33 1.538-1.87 1.248-.748 3.036-1.164 4.907-1.164 1.872 0 3.702.416 4.991 1.164.998.582 1.58 1.288 1.58 1.912 0 .665-.582 1.33-1.539 1.912z"/>
  <path fill="url(#paint11_linear)" d="M122.928 288.549c-1.788-1.039-4.158-1.621-6.612-1.621-2.454 0-4.782.582-6.529 1.58-2.038 1.205-3.202 2.867-3.202 4.738 0 1.828 1.164 3.574 3.202 4.737 1.788 1.039 4.159 1.621 6.612 1.621 2.038 0 3.951-.415 5.531-1.122l64.5 35.741 41.752-23.98-.125-.249a14.33 14.33 0 004.491.707c2.454 0 4.824-.582 6.613-1.621 2.037-1.164 3.202-2.909 3.202-4.738 0-1.87-1.123-3.533-3.202-4.696-1.789-1.039-4.076-1.58-6.529-1.58-2.454 0-4.824.582-6.612 1.621-2.038 1.164-3.203 2.909-3.203 4.738 0 1.496.749 2.868 2.08 3.948l-38.509 22.11-61.505-34.079c.79-.914 1.206-1.995 1.206-3.117.041-1.829-1.123-3.574-3.161-4.738zm104.797 13.964c1.289-.748 3.118-1.163 4.99-1.163 1.871 0 3.659.415 4.907 1.163.998.582 1.539 1.247 1.539 1.871 0 .623-.583 1.329-1.581 1.911-2.536 1.496-7.319 1.496-9.897 0-.998-.582-1.539-1.247-1.539-1.87s.582-1.33 1.581-1.912zm-116.274-7.356c-.999-.582-1.581-1.288-1.581-1.911 0-.624.582-1.33 1.539-1.871 1.247-.748 3.036-1.163 4.907-1.163s3.701.415 4.99 1.163c.998.582 1.581 1.289 1.581 1.912 0 .457-.333.998-.915 1.455l-.042-.042-.041.083c-.167.125-.333.25-.541.374-2.578 1.496-7.361 1.496-9.897 0z"/>
  <path fill="#000316" d="M325.284 90.725c0 1.829 1.165 3.574 3.203 4.738 1.788 1.039 4.158 1.62 6.612 1.62 2.453 0 4.782-.581 6.529-1.579 2.037-1.205 3.202-2.867 3.202-4.738 0-1.828-1.165-3.574-3.202-4.737-1.788-1.04-4.159-1.621-6.612-1.621-2.412 0-4.7.54-6.488 1.537L273.676 55.69l47.076-28.385 104.879 57.893-42.085 26.182c-.125-.083-.291-.166-.416-.249-1.788-1.039-4.158-1.621-6.612-1.621-2.453 0-4.782.582-6.529 1.579-2.037 1.205-3.202 2.868-3.202 4.738 0 1.829 1.165 3.574 3.202 4.738 1.788 1.039 4.159 1.621 6.612 1.621 2.454 0 4.783-.582 6.529-1.58 2.038-1.205 3.202-2.867 3.202-4.737 0-.707-.166-1.414-.499-2.078l46.244-28.76-110.535-61.01-.832-.457-53.563 32.292 58.844 32.458c-.457.749-.707 1.538-.707 2.41zm56.225 27.014c-1.248.748-3.036 1.163-4.908 1.163-1.871 0-3.701-.415-4.99-1.163-.998-.582-1.58-1.289-1.58-1.912s.582-1.33 1.538-1.87c1.248-.748 3.036-1.164 4.908-1.164 1.871 0 3.701.416 4.99 1.164.998.582 1.58 1.288 1.58 1.912.042.623-.54 1.329-1.538 1.87zm-41.503-28.884c.998.581 1.58 1.288 1.58 1.911 0 .624-.582 1.33-1.539 1.87-2.536 1.455-7.319 1.455-9.897-.04-.998-.583-1.58-1.29-1.58-1.913 0-.249.125-.54.332-.83l.25.124.457-.831c.167-.125.333-.25.541-.374 1.248-.749 3.036-1.164 4.907-1.164 1.83.083 3.66.499 4.949 1.247z"/>
  <path fill="url(#paint12_linear)" d="M487.885 81.332l-65.289 40.521 56.806 31.211-56.682 32.957 1.664 2.826 61.672-35.866-56.973-31.294 62.046-38.484-.041-.042c1.455.499 3.077.79 4.782.79 2.454 0 4.782-.582 6.529-1.58 2.038-1.205 3.202-2.867 3.202-4.737 0-1.83-1.164-3.575-3.202-4.738-1.788-1.04-4.159-1.621-6.612-1.621-2.454 0-4.783.582-6.529 1.58-2.038 1.204-3.202 2.867-3.202 4.737-.042 1.33.623 2.66 1.829 3.74zm2.953-5.693c1.248-.748 3.036-1.164 4.907-1.164 1.872 0 3.701.416 4.99 1.164.999.582 1.581 1.288 1.581 1.912 0 .623-.582 1.33-1.539 1.87-2.537 1.454-7.319 1.454-9.897 0-.998-.582-1.581-1.289-1.581-1.912 0-.582.541-1.288 1.539-1.87z"/>
  <path fill="#000316" d="M71.736 406.371l65.581-38.318c1.705.831 3.742 1.288 5.946 1.288 2.454 0 4.783-.581 6.529-1.579 2.038-1.205 3.202-2.868 3.202-4.738 0-1.828-1.164-3.574-3.202-4.738-1.788-1.039-4.158-1.62-6.612-1.62-2.453 0-4.782.581-6.529 1.579-2.037 1.205-3.202 2.868-3.202 4.738 0 1.039.374 2.036 1.081 2.95l-62.836 36.656L36.68 382.35c.25-.541.374-1.123.374-1.746 0-1.829-1.164-3.574-3.202-4.738-1.788-1.039-4.159-1.621-6.612-1.621-2.454 0-4.783.582-6.53 1.58-2.037 1.205-3.201 2.867-3.201 4.737 0 1.829 1.164 3.575 3.202 4.738 1.788 1.039 4.159 1.621 6.612 1.621 2.454 0 4.782-.582 6.529-1.579.25-.125.458-.291.665-.416l37.22 21.445zm64.957-43.388c0-.624.582-1.33 1.538-1.87 1.248-.749 3.036-1.164 4.908-1.164 1.871 0 3.701.415 4.99 1.164.998.581 1.58 1.288 1.58 1.911 0 .624-.582 1.33-1.538 1.87-2.537 1.455-7.32 1.455-9.898 0-.166-.083-.291-.207-.416-.29l-.332-.541-.167.125c-.416-.374-.665-.831-.665-1.205zm-114.32 19.491c-.998-.582-1.58-1.288-1.58-1.912 0-.623.582-1.329 1.539-1.87 1.247-.748 3.035-1.163 4.907-1.163 1.871 0 3.701.415 4.99 1.163.998.582 1.58 1.289 1.58 1.912s-.582 1.33-1.538 1.87c-2.579 1.496-7.36 1.496-9.898 0z"/>
  <path fill="url(#paint13_linear)" d="M260.535 329.028l-.374-.623c1.663.79 3.701 1.247 5.864 1.247 2.453 0 4.824-.582 6.612-1.621 2.037-1.164 3.202-2.909 3.202-4.738 0-1.87-1.123-3.532-3.202-4.696-1.788-1.039-4.076-1.579-6.529-1.579-2.454 0-4.824.581-6.612 1.62-2.038 1.164-3.202 2.91-3.202 4.738 0 1.289.54 2.452 1.538 3.45L78.639 429.354c-.125-.084-.208-.167-.333-.208-1.788-1.039-4.159-1.621-6.612-1.621-2.454 0-4.782.582-6.529 1.579-2.038 1.205-3.202 2.868-3.202 4.738 0 1.829 1.164 3.574 3.202 4.738 1.788 1.039 4.159 1.621 6.612 1.621 2.454 0 4.782-.582 6.53-1.58 2.037-1.205 3.201-2.867 3.201-4.737 0-.707-.208-1.455-.54-2.12l179.567-102.736zm.666-7.605c1.289-.748 3.119-1.164 4.99-1.164s3.66.416 4.907 1.164c.998.582 1.539 1.247 1.539 1.87 0 .624-.582 1.33-1.581 1.912-2.536 1.496-7.319 1.496-9.897 0-.998-.582-1.539-1.247-1.539-1.87-.041-.624.541-1.33 1.581-1.912zM76.726 435.754c-2.537 1.454-7.32 1.454-9.898 0-.998-.582-1.58-1.289-1.58-1.912s.582-1.33 1.539-1.87c1.247-.748 3.036-1.164 4.907-1.164s3.701.416 4.99 1.164c.998.582 1.58 1.288 1.58 1.912 0 .623-.582 1.288-1.538 1.87z"/>
  <path fill="url(#paint14_linear)" d="M526.851 320.342l41.586-24.769c1.497.54 3.202.831 4.949.831 2.453 0 4.782-.582 6.529-1.579 2.038-1.205 3.202-2.868 3.202-4.738 0-1.829-1.164-3.574-3.202-4.738-1.788-1.039-4.159-1.621-6.612-1.621-2.454 0-4.783.582-6.529 1.58-2.038 1.205-3.202 2.867-3.202 4.737 0 1.33.623 2.577 1.705 3.616l-38.384 22.858-30.774-18.619c.707-.873 1.082-1.87 1.082-2.951 0-1.828-1.165-3.574-3.202-4.737-1.789-1.039-4.159-1.621-6.613-1.621-2.453 0-4.782.582-6.529 1.579-2.037 1.205-3.202 2.868-3.202 4.696 0 1.829 1.165 3.574 3.202 4.738 1.789 1.039 4.159 1.621 6.613 1.621 2.453 0 4.782-.582 6.529-1.579.083-.042.124-.083.207-.125l-.457.748 33.102 20.073zm41.503-32.167c1.248-.748 3.036-1.163 4.907-1.163 1.872 0 3.701.415 4.99 1.163.999.582 1.581 1.289 1.581 1.912s-.583 1.33-1.539 1.87c-2.537 1.455-7.319 1.455-9.897 0-.998-.582-1.581-1.288-1.581-1.912 0-.623.583-1.288 1.539-1.87zm-76.019 8.686c-2.537 1.455-7.319 1.455-9.897 0-.998-.582-1.581-1.288-1.581-1.912 0-.623.583-1.329 1.539-1.87 1.248-.748 3.036-1.163 4.907-1.163 1.872 0 3.701.415 4.991 1.163.998.582 1.58 1.289 1.58 1.912s-.541 1.288-1.539 1.87z"/>
  <path fill="#000316" d="M492.335 116.492c.79-.914 1.247-1.995 1.247-3.117 0-1.829-1.164-3.574-3.202-4.738-1.788-1.039-4.158-1.621-6.612-1.621-2.453 0-4.782.582-6.529 1.58-2.038 1.163-3.202 2.867-3.202 4.696 0 1.828 1.164 3.574 3.202 4.738 1.788 1.039 4.159 1.62 6.612 1.62 2.038 0 3.951-.415 5.573-1.122l29.276 17.331 53.48-32.334c.083.042.124.083.208.125 1.788 1.039 4.158 1.621 6.612 1.621 2.453 0 4.782-.582 6.529-1.579 2.037-1.206 3.202-2.868 3.202-4.738 0-1.829-1.165-3.574-3.202-4.738-1.788-1.039-4.159-1.62-6.612-1.62-2.454 0-4.783.581-6.529 1.578-2.038 1.164-3.203 2.868-3.203 4.697 0 .79.208 1.537.624 2.244L518.7 131.994l-26.365-15.502zm-13.474-1.247c-.998-.582-1.58-1.288-1.58-1.912 0-.623.582-1.329 1.538-1.87 1.248-.748 3.036-1.163 4.908-1.163 1.871 0 3.701.415 4.99 1.163.998.582 1.58 1.289 1.58 1.912 0 .457-.291.956-.873 1.413l-.25-.166-.332.54c-.042.042-.084.042-.125.083-2.537 1.496-7.319 1.455-9.856 0zm95.065-18.203c1.248-.748 3.036-1.164 4.907-1.164 1.872 0 3.702.416 4.991 1.164.998.582 1.58 1.288 1.58 1.912 0 .623-.582 1.33-1.539 1.87-2.536 1.455-7.319 1.455-9.897 0-.998-.582-1.58-1.288-1.58-1.912 0-.623.54-1.33 1.538-1.87z"/>
  <path fill="url(#paint15_linear)" d="M500.569 173.928l58.886-35.783c1.455.54 3.118.831 4.865.831 2.454 0 4.782-.582 6.529-1.579 2.038-1.206 3.202-2.868 3.202-4.738 0-1.829-1.164-3.574-3.202-4.738-1.788-1.039-4.159-1.621-6.612-1.621-2.454 0-4.783.582-6.529 1.579-2.038 1.206-3.202 2.868-3.202 4.738 0 1.33.624 2.618 1.746 3.657l-62.17 37.82 20.252 11.096-56.682 32.957 1.664 2.826 61.672-35.866-20.419-11.179zm58.719-43.181c1.248-.748 3.036-1.164 4.907-1.164 1.872 0 3.701.416 4.991 1.164.998.582 1.58 1.288 1.58 1.912 0 .623-.582 1.33-1.539 1.87-2.537 1.454-7.319 1.454-9.897 0-.998-.582-1.581-1.288-1.581-1.912 0-.623.541-1.33 1.539-1.87z"/>
  <path fill="url(#paint16_linear)" d="M363.46 207.632l61.672-35.866-95.232-51.825 54.811-34.162-42.085-22.359a4.471 4.471 0 00.582-2.203c0-1.828-1.164-3.574-3.202-4.737-1.788-1.04-4.159-1.621-6.612-1.621-2.454 0-4.783.582-6.529 1.58-2.038 1.204-3.202 2.867-3.202 4.737 0 1.829 1.164 3.574 3.202 4.738 1.788 1.039 4.158 1.62 6.612 1.62 2.453 0 4.782-.581 6.529-1.579.083-.041.125-.083.208-.124l37.968 20.198-54.769 34.079 95.024 51.741-56.64 32.999 1.663 2.784zM328.487 63.088c-.998-.582-1.581-1.289-1.581-1.912s.582-1.33 1.539-1.87c1.248-.748 3.036-1.164 4.907-1.164s3.701.416 4.99 1.164c.998.582 1.581 1.288 1.581 1.912 0 .623-.583 1.33-1.539 1.87-2.537 1.496-7.319 1.454-9.897 0z"/>
  <path fill="url(#paint17_linear)" d="M34.017 207.882c1.789 1.039 4.076 1.579 6.53 1.579 1.996 0 3.867-.374 5.489-1.081l84.461 49.498-20.045 11.762 75.354 44.593 24.66-14.005c1.581.664 3.452 1.039 5.406 1.039 2.454 0 4.824-.582 6.613-1.621 2.037-1.164 3.202-2.91 3.202-4.738 0-1.87-1.123-3.533-3.202-4.696-1.789-1.039-4.076-1.58-6.529-1.58-2.454 0-4.824.582-6.613 1.621-2.037 1.164-3.202 2.909-3.202 4.738 0 1.164.458 2.286 1.331 3.242l-21.625 12.26-68.949-40.812 20.044-11.761-87.912-51.534c.873-.956 1.33-2.078 1.33-3.284 0-1.87-1.122-3.532-3.201-4.696-1.788-1.039-4.076-1.579-6.53-1.579-2.453 0-4.823.582-6.611 1.621-2.038 1.163-3.203 2.909-3.203 4.738.042 1.828 1.165 3.532 3.202 4.696zm176.99 85.156c1.289-.748 3.119-1.164 4.99-1.164 1.872 0 3.66.416 4.907 1.164.998.581 1.539 1.246 1.539 1.87 0 .623-.582 1.33-1.58 1.912-2.537 1.496-7.319 1.496-9.898 0-.998-.582-1.538-1.247-1.538-1.871 0-.623.582-1.33 1.58-1.911zM35.723 201.232c1.289-.748 3.077-1.163 4.99-1.163 1.871 0 3.66.415 4.907 1.163.998.582 1.539 1.247 1.539 1.87 0 .499-.375 1.039-1.04 1.538v.042c-.166.124-.333.249-.54.374-2.537 1.496-7.361 1.496-9.898 0-.998-.582-1.539-1.247-1.539-1.87-.041-.665.54-1.372 1.58-1.954z"/>
  <path fill="url(#paint18_linear)" d="M101.137 217.898c1.788 1.039 4.075 1.579 6.529 1.579 2.37 0 4.658-.54 6.404-1.496l70.987 43.388-29.276 17.455 28.777 16.707 8.484-5.112c1.705.873 3.867 1.372 6.113 1.372 2.453 0 4.824-.582 6.612-1.621 2.038-1.164 3.202-2.909 3.202-4.738 0-1.87-1.123-3.532-3.202-4.696-1.788-1.039-4.075-1.579-6.529-1.579-2.453 0-4.824.582-6.612 1.621-2.038 1.163-3.202 2.909-3.202 4.737 0 .956.333 1.912.915 2.743l-5.822 3.491-22.29-12.966 29.151-17.372-74.688-45.674c.541-.79.832-1.704.832-2.577 0-1.87-1.123-3.533-3.202-4.738-1.788-1.039-4.076-1.579-6.529-1.579-2.454 0-4.824.582-6.612 1.621-2.038 1.163-3.202 2.909-3.202 4.737 0 1.871 1.122 3.533 3.16 4.697zm93.152 65.706c1.29-.748 3.119-1.164 4.991-1.164 1.871 0 3.659.416 4.907 1.164.998.582 1.538 1.246 1.538 1.87 0 .623-.582 1.33-1.58 1.912-2.537 1.496-7.319 1.496-9.897 0-.998-.582-1.539-1.247-1.539-1.871 0-.665.582-1.329 1.58-1.911zm-91.488-72.356c1.289-.748 3.118-1.164 4.99-1.164 1.871 0 3.659.416 4.907 1.164.998.582 1.539 1.247 1.539 1.87 0 .624-.583 1.33-1.581 1.912-2.578 1.496-7.319 1.496-9.897.042-.998-.582-1.539-1.247-1.539-1.871 0-.665.582-1.371 1.581-1.953z"/>
  <path fill="url(#paint19_linear)" d="M213.376 59.68c1.789 1.039 4.076 1.579 6.529 1.579 1.498 0 2.911-.25 4.201-.623l55.35 31.294-50.069 27.804 116.648 68.573 1.664-2.826-111.741-65.664 50.194-27.845L227.64 58.89c1.331-1.122 2.121-2.493 2.121-3.99 0-1.87-1.123-3.532-3.202-4.696-1.788-1.039-4.075-1.58-6.529-1.58-2.453 0-4.824.583-6.612 1.622-2.038 1.163-3.202 2.909-3.202 4.737-.042 1.83 1.081 3.533 3.16 4.697zm1.664-6.65c1.289-.748 3.119-1.163 4.99-1.163 1.872 0 3.66.415 4.907 1.163.998.582 1.539 1.247 1.539 1.87 0 .624-.582 1.33-1.58 1.912-2.537 1.496-7.319 1.496-9.898 0-.998-.582-1.538-1.247-1.538-1.87s.582-1.33 1.58-1.912z"/>
  <path fill="url(#paint20_linear)" d="M86.54 152.898c1.788 1.039 4.075 1.58 6.529 1.58 1.83 0 3.618-.333 5.157-.915l49.695 29.175-18.298 10.473 109.495 64.044 1.664-2.826-104.672-61.218 18.298-10.431-53.105-31.17c.998-.998 1.58-2.244 1.58-3.491 0-1.87-1.123-3.533-3.202-4.738-1.788-1.039-4.075-1.579-6.529-1.579-2.453 0-4.824.582-6.612 1.621-2.038 1.163-3.202 2.909-3.202 4.737 0 1.871 1.164 3.533 3.202 4.738zm1.663-6.649c1.29-.748 3.078-1.164 4.99-1.164 1.872 0 3.66.416 4.908 1.164.998.582 1.538 1.246 1.538 1.87 0 .623-.582 1.33-1.58 1.912-2.537 1.496-7.319 1.496-9.897 0-.998-.582-1.539-1.247-1.539-1.871 0-.623.582-1.329 1.58-1.911z"/>
  <path fill="#000316" d="M155.822 86.86c1.788 1.039 4.076 1.58 6.529 1.58 2.454 0 4.783-.583 6.571-1.58l28.86 16.915.832-1.413.79 1.413 21.708-12.177c1.414.457 2.953.748 4.574.748 2.454 0 4.824-.582 6.613-1.621 2.037-1.164 3.202-2.91 3.202-4.738 0-1.87-1.123-3.532-3.202-4.738-1.789-1.039-4.076-1.579-6.529-1.579-2.454 0-4.824.582-6.613 1.62-2.037 1.164-3.202 2.91-3.202 4.739 0 1.371.624 2.66 1.789 3.699l-19.13 10.722-27.197-15.959c.457-.748.748-1.58.748-2.452 0-1.87-1.122-3.533-3.202-4.738-1.788-1.039-4.075-1.58-6.529-1.58-2.453 0-4.824.583-6.612 1.622-2.037 1.163-3.202 2.909-3.202 4.737.042 1.912 1.165 3.575 3.202 4.78zm65.04-2.743c1.29-.748 3.078-1.164 4.991-1.164 1.871 0 3.659.416 4.907 1.164.998.582 1.539 1.247 1.539 1.87 0 .624-.583 1.33-1.581 1.912-2.536 1.496-7.319 1.496-9.897 0-.998-.582-1.539-1.247-1.539-1.87 0-.624.582-1.33 1.58-1.912zm-63.335-3.907c1.289-.748 3.078-1.163 4.991-1.163 1.871 0 3.659.415 4.907 1.163.998.582 1.538 1.247 1.538 1.87 0 .624-.582 1.33-1.58 1.912-2.537 1.455-7.319 1.496-9.897.042-.998-.582-1.539-1.247-1.539-1.87-.042-.665.541-1.372 1.58-1.954z"/>
  <path fill="url(#paint21_linear)" d="M560.369 352.717l-81.675-44.593c1.123-1.039 1.747-2.286 1.747-3.657 0-1.829-1.165-3.575-3.202-4.738-1.788-1.039-4.159-1.621-6.612-1.621-2.454 0-4.783.582-6.529 1.579-2.038 1.205-3.202 2.868-3.202 4.697 0 1.828 1.164 3.574 3.202 4.737 1.788 1.039 4.158 1.621 6.612 1.621 2.453 0 4.782-.582 6.529-1.579 0 0 .041 0 .041-.042l-.831 1.496 83.92 45.841 57.43-33.165 49.154 27.43-60.216 36.946c-1.788-.997-4.075-1.538-6.487-1.538-2.454 0-4.783.582-6.529 1.58-2.038 1.205-3.202 2.867-3.202 4.738 0 1.828 1.164 3.574 3.202 4.737 1.788 1.039 4.158 1.621 6.612 1.621 2.453 0 4.782-.582 6.529-1.579 2.038-1.164 3.202-2.868 3.202-4.696 0-.873-.291-1.746-.79-2.535l64.167-39.316-55.642-31.045-57.43 33.081zm-84.752-46.38c-2.537 1.454-7.319 1.454-9.898 0-.998-.582-1.58-1.289-1.58-1.912s.582-1.33 1.539-1.87c1.247-.748 3.036-1.164 4.907-1.164s3.701.416 4.99 1.164c.998.582 1.581 1.288 1.581 1.912 0 .581-.541 1.288-1.539 1.87zm131.203 86.112c0 .623-.582 1.329-1.538 1.87-1.248.748-3.036 1.163-4.908 1.163-1.871 0-3.701-.415-4.99-1.163-.998-.582-1.58-1.289-1.58-1.912s.582-1.33 1.538-1.87c1.248-.748 3.036-1.164 4.908-1.164 1.871 0 3.701.416 4.99 1.164.042.041.083.083.166.124l.749 1.206.374-.208c.166.249.291.54.291.79z"/>
  <path fill="#000316" d="M195.62 429.146c-1.789-1.039-4.076-1.579-6.529-1.579-2.454 0-4.824.581-6.613 1.62-2.037 1.164-3.202 2.91-3.202 4.738 0 1.87 1.123 3.533 3.202 4.738 1.789 1.039 4.076 1.579 6.529 1.579 2.412 0 4.7-.54 6.446-1.537l40.131 24.644c-.707.915-1.123 1.912-1.123 2.993 0 1.87 1.123 3.532 3.202 4.738 1.788 1.039 4.075 1.579 6.529 1.579 2.453 0 4.824-.582 6.612-1.621 2.038-1.164 3.202-2.909 3.202-4.738 0-1.87-1.123-3.532-3.202-4.696-1.788-1.039-4.075-1.579-6.529-1.579-2.412 0-4.699.54-6.446 1.537l.291-.457-40.088-24.603c.499-.79.79-1.663.79-2.535-.042-1.954-1.165-3.616-3.202-4.821zm-6.654 7.813c-1.871 0-3.66-.416-4.907-1.164-.998-.582-1.539-1.246-1.539-1.87 0-.623.582-1.33 1.58-1.912 1.289-.748 3.119-1.163 4.991-1.163 1.871 0 3.659.415 4.907 1.163.998.582 1.538 1.247 1.538 1.871 0 .623-.582 1.329-1.58 1.911-1.289.748-3.119 1.164-4.99 1.164zm50.319 27.429c1.289-.748 3.119-1.163 4.99-1.163s3.66.415 4.907 1.163c.998.582 1.539 1.247 1.539 1.871 0 .623-.582 1.33-1.58 1.911-2.537 1.496-7.32 1.496-9.898 0-.998-.581-1.539-1.246-1.539-1.87 0-.623.583-1.33 1.581-1.912zM69.989 286.554c-1.788-1.039-4.076-1.579-6.53-1.579-2.453 0-4.823.582-6.611 1.621-2.038 1.164-3.203 2.909-3.203 4.738 0 1.87 1.123 3.532 3.203 4.738 1.788 1.039 4.075 1.579 6.529 1.579 2.412 0 4.699-.54 6.445-1.538l40.131 24.645c-.707.914-1.123 1.912-1.123 2.992 0 1.871 1.123 3.533 3.202 4.738 1.788 1.039 4.075 1.579 6.529 1.579 2.454 0 4.824-.581 6.612-1.62 2.038-1.164 3.202-2.91 3.202-4.738 0-1.87-1.123-3.533-3.202-4.696-1.788-1.039-4.075-1.58-6.529-1.58-2.412 0-4.699.541-6.446 1.538l.291-.457-40.088-24.687c.499-.789.79-1.662.79-2.535 0-1.87-1.123-3.574-3.202-4.738zm-6.612 7.814c-1.872 0-3.66-.416-4.908-1.164-.998-.582-1.538-1.247-1.538-1.87 0-.624.582-1.33 1.58-1.912 1.29-.748 3.119-1.164 4.99-1.164 1.872 0 3.66.416 4.908 1.164.997.582 1.538 1.247 1.538 1.87 0 .624-.582 1.33-1.58 1.912-1.33.706-3.119 1.164-4.99 1.164zm50.318 27.388c1.29-.749 3.119-1.164 4.991-1.164 1.871 0 3.659.415 4.907 1.164.998.581 1.539 1.246 1.539 1.87 0 .623-.583 1.33-1.581 1.911-2.536 1.497-7.319 1.497-9.897 0-.998-.581-1.539-1.246-1.539-1.87 0-.623.582-1.33 1.58-1.911zM154.491 161.293c1.788 1.039 4.076 1.58 6.529 1.58 2.412 0 4.699-.541 6.446-1.538l14.472 8.686c-.707.914-1.123 1.912-1.123 2.992 0 1.87 1.123 3.533 3.202 4.696 1.788 1.039 4.076 1.58 6.529 1.58 2.454 0 4.824-.582 6.612-1.621 2.038-1.164 3.202-2.909 3.202-4.738 0-1.87-1.122-3.533-3.202-4.738-1.788-1.039-4.075-1.579-6.529-1.579-2.412 0-4.699.54-6.446 1.538l.292-.457-14.431-8.645c.499-.79.79-1.662.79-2.535 0-1.87-1.122-3.533-3.202-4.738-1.788-1.039-4.075-1.579-6.529-1.579-2.453 0-4.824.582-6.612 1.621-2.038 1.163-3.202 2.909-3.202 4.738 0 1.87 1.164 3.532 3.202 4.737zm31.19 9.767c1.289-.748 3.077-1.164 4.99-1.164 1.871 0 3.659.416 4.907 1.164.998.582 1.539 1.247 1.539 1.87s-.583 1.33-1.581 1.912c-1.289.748-3.077 1.163-4.99 1.163-1.871 0-3.659-.415-4.907-1.163-.998-.582-1.539-1.247-1.539-1.87 0-.624.583-1.33 1.581-1.912zm-29.526-16.416c1.289-.748 3.077-1.164 4.99-1.164 1.871 0 3.659.416 4.907 1.164.998.582 1.539 1.247 1.539 1.87s-.582 1.33-1.581 1.912c-2.536 1.496-7.319 1.496-9.897 0-.998-.582-1.539-1.247-1.539-1.87 0-.624.583-1.33 1.581-1.912zM661.422 274.419c2.454 0 4.783-.582 6.529-1.579 2.038-1.206 3.203-2.868 3.203-4.738 0-1.829-1.165-3.574-3.203-4.738-1.788-1.039-4.158-1.621-6.612-1.621-2.453 0-4.782.582-6.529 1.579-2.037 1.206-3.202 2.868-3.202 4.738 0 .873.291 1.746.79 2.535l-73.274 42.017.291.457c-1.788-.997-4.075-1.537-6.446-1.537-2.453 0-4.782.582-6.529 1.579-2.037 1.205-3.202 2.868-3.202 4.738 0 1.828 1.165 3.574 3.202 4.738 1.789 1.039 4.159 1.62 6.613 1.62 2.453 0 4.782-.581 6.528-1.579 2.038-1.205 3.203-2.867 3.203-4.738 0-1.039-.416-2.078-1.123-2.992l73.316-42.017c1.746.998 4.033 1.538 6.445 1.538zm-5.031-8.229c1.247-.748 3.035-1.164 4.907-1.164 1.871 0 3.701.416 4.99 1.164.998.582 1.58 1.288 1.58 1.912 0 .623-.582 1.33-1.538 1.87-2.537 1.455-7.32 1.455-9.898-.042-.998-.581-1.58-1.288-1.58-1.911 0-.582.582-1.247 1.539-1.829zm-78.431 53.612c-2.537 1.455-7.319 1.455-9.898 0-.998-.582-1.58-1.288-1.58-1.912 0-.623.582-1.329 1.539-1.87 1.247-.748 3.035-1.163 4.907-1.163 1.871 0 3.701.415 4.99 1.163.998.582 1.58 1.289 1.58 1.912s-.582 1.288-1.538 1.87zM624.037 239.01c2.453 0 4.782-.582 6.529-1.579 2.038-1.205 3.202-2.868 3.202-4.738 0-1.829-1.164-3.574-3.202-4.738-1.788-1.039-4.159-1.621-6.612-1.621-2.454 0-4.783.582-6.529 1.58-2.038 1.205-3.202 2.867-3.202 4.737 0 .873.291 1.746.79 2.536l-36.18 21.112.291.457c-1.788-.997-4.075-1.538-6.446-1.538-2.453 0-4.782.582-6.529 1.58-2.037 1.205-3.202 2.867-3.202 4.737 0 1.829 1.165 3.575 3.202 4.738 1.789 1.039 4.159 1.621 6.613 1.621 2.453 0 4.782-.582 6.529-1.579 2.037-1.205 3.202-2.868 3.202-4.738 0-1.039-.416-2.078-1.123-2.992l36.263-21.154c1.705.997 3.992 1.579 6.404 1.579zm-5.032-8.27c1.248-.748 3.036-1.164 4.907-1.164s3.701.416 4.99 1.164c.998.582 1.581 1.288 1.581 1.911 0 .624-.583 1.33-1.539 1.871-2.537 1.454-7.319 1.454-9.897-.042-.999-.582-1.581-1.288-1.581-1.912 0-.582.541-1.246 1.539-1.828zm-41.378 32.749c-2.537 1.454-7.319 1.454-9.897 0-.998-.582-1.581-1.289-1.581-1.912s.583-1.33 1.539-1.87c1.248-.748 3.036-1.164 4.907-1.164 1.872 0 3.701.416 4.991 1.164.998.582 1.58 1.288 1.58 1.912 0 .581-.582 1.288-1.539 1.87z"/>
  <path fill="url(#paint22_linear)" d="M299.793 237.057l1.663-2.826-88.702-51.742 32.603-20.157-74.272-43.346c.748-.915 1.122-1.954 1.122-2.993 0-1.87-1.122-3.532-3.202-4.696-1.788-1.039-4.075-1.579-6.529-1.579-2.453 0-4.824.582-6.612 1.621-2.037 1.163-3.202 2.909-3.202 4.737 0 1.871 1.123 3.533 3.202 4.738 1.788 1.039 4.076 1.579 6.529 1.579 2.121 0 4.159-.457 5.822-1.246l70.821 41.31-32.603 20.156 93.36 54.444zM157.486 117.905c-.998-.582-1.539-1.247-1.539-1.87 0-.624.583-1.33 1.581-1.912 1.289-.748 3.119-1.164 4.99-1.164s3.66.416 4.907 1.164c.998.582 1.539 1.247 1.539 1.87 0 .624-.582 1.33-1.581 1.912-2.578 1.455-7.36 1.455-9.897 0z"/>
  <path fill="#000316" d="M176.074 403.42c-1.788-1.039-4.158-1.621-6.612-1.621-2.453 0-4.782.582-6.529 1.58-2.037 1.205-3.202 2.867-3.202 4.738 0 .914.291 1.828.832 2.618l-52.523 29.632 35.972 19.616c-.458.748-.707 1.579-.707 2.411 0 1.828 1.164 3.574 3.202 4.737 1.788 1.039 4.159 1.621 6.612 1.621 2.454 0 4.782-.582 6.529-1.579 2.038-1.205 3.202-2.868 3.202-4.738 0-1.828-1.164-3.574-3.202-4.738-1.788-1.039-4.159-1.62-6.612-1.62-2.412 0-4.699.54-6.446 1.537l-31.771-17.33 48.447-27.305c1.747.956 3.992 1.455 6.321 1.455 2.454 0 4.782-.582 6.529-1.58 2.038-1.205 3.202-2.867 3.202-4.737-.041-1.788-1.206-3.491-3.244-4.697zm-18.089 57.145c.998.582 1.58 1.288 1.58 1.912 0 .623-.582 1.33-1.539 1.87-1.247.748-3.036 1.164-4.907 1.164s-3.701-.416-4.99-1.164c-.998-.582-1.58-1.288-1.58-1.912 0-.291.124-.582.332-.873l.083-.166c.25-.291.624-.623 1.123-.873 1.248-.748 3.036-1.163 4.907-1.163 1.872 0 3.701.457 4.991 1.205zm16.468-50.495c-2.537 1.454-7.319 1.454-9.898 0-.998-.582-1.58-1.288-1.58-1.912 0-.623.582-1.33 1.539-1.87 1.247-.748 3.035-1.164 4.907-1.164 1.871 0 3.701.416 4.99 1.164.998.582 1.58 1.288 1.58 1.912.042.623-.54 1.288-1.538 1.87z"/>
  <path fill="url(#paint23_linear)" d="M468.922 235.602l1.663 2.785 154.991-92.512-.375-.624c1.747.915 3.91 1.413 6.197 1.413 2.453 0 4.782-.582 6.529-1.579 2.037-1.205 3.202-2.868 3.202-4.738 0-1.828-1.165-3.574-3.202-4.738-1.788-1.039-4.159-1.62-6.612-1.62-2.454 0-4.783.581-6.529 1.579-2.038 1.205-3.203 2.867-3.203 4.738 0 1.205.499 2.369 1.414 3.324l-154.075 91.972zm157.444-97.25c1.247-.748 3.036-1.163 4.907-1.163s3.701.415 4.99 1.163c.998.582 1.581 1.289 1.581 1.912 0 .624-.583 1.33-1.539 1.87-2.537 1.455-7.319 1.455-9.898 0-.998-.582-1.58-1.288-1.58-1.911 0-.582.541-1.289 1.539-1.871z"/>
  <g fill="#DB8545" opacity=".2">
    <path d="M334.183 200.484l-127.585 73.81c-6.529 3.782-11.311 10.515-11.602 17.123-.333 7.647 3.95 15.044 12.558 20.032l116.94 67.451c6.612 3.824 14.971 5.902 23.329 5.86 5.116 0 9.856-.831 14.056-2.369a36.106 36.106 0 005.116-2.369l127.335-73.644c6.529-3.782 11.27-10.473 11.561-17.122.333-7.647-3.95-15.045-12.559-20.032l-116.357-67.077c-2.453-1.413-5.78-2.91-8.65-3.824a49.9 49.9 0 00-14.763-2.369c-7.36-.083-14.097 1.496-19.379 4.53z" opacity=".091"/>
    <path d="M335.265 201.024l-124.466 71.982c-5.905 3.408-11.353 10.307-11.852 16.25-.624 7.356 2.953 14.67 11.519 19.616l115.235 66.496c6.446 3.74 14.596 5.735 22.747 5.652 4.99-.042 9.607-.915 13.64-2.411 1.539-.582 3.618-1.579 4.991-2.369l123.884-71.649c5.905-3.408 11.27-10.223 11.769-16.208.623-7.356-2.953-14.671-11.52-19.575l-114.028-65.789c-2.204-1.288-5.864-2.992-8.442-3.823-4.533-1.496-9.44-2.411-14.43-2.494-7.236-.124-13.89 1.33-19.047 4.322z" opacity=".182"/>
    <path d="M336.346 201.565l-121.348 70.153c-5.239 3.033-11.394 10.099-12.101 15.335-.957 7.107 1.955 14.255 10.438 19.159l113.571 65.54c6.279 3.616 14.222 5.569 22.124 5.444 4.824-.041 9.356-.956 13.266-2.41 1.372-.499 3.617-1.621 4.823-2.328l120.475-69.695c5.239-3.034 11.269-10.016 11.976-15.294.957-7.107-1.954-14.255-10.438-19.159L377.35 203.892c-1.955-1.122-5.947-3.075-8.234-3.823-4.409-1.497-9.232-2.494-14.098-2.619-7.07-.207-13.64 1.206-18.672 4.115z" opacity=".273"/>
    <path d="M337.428 202.105l-118.229 68.324c-4.574 2.66-12.392 9.808-12.392 14.463-2.537 6.566.956 13.839 9.398 18.743l111.949 64.584c6.113 3.533 13.848 5.361 21.5 5.237 4.699-.083 9.066-.998 12.85-2.452 1.165-.457 3.618-1.704 4.658-2.286l117.064-67.701c4.574-2.66 12.226-9.725 12.226-14.379 2.537-6.567-.956-13.84-9.398-18.744l-109.496-63.171c-1.746-.997-6.03-3.117-8.026-3.823-4.283-1.496-8.982-2.577-13.765-2.743-6.945-.25-13.432 1.08-18.339 3.948z" opacity=".364"/>
    <path d="M338.509 202.604l-115.11 66.578c-3.909 2.245-12.642 9.601-12.642 13.549-3.16 6.192-.083 13.465 8.317 18.286l110.286 63.628c5.947 3.408 13.516 5.195 20.876 5.029 4.575-.083 8.816-1.039 12.434-2.494.998-.415 3.618-1.745 4.492-2.244l113.695-65.706c3.909-2.244 12.434-9.475 12.434-13.465 3.161-6.193.084-13.466-8.317-18.287l-107.291-61.882c-1.497-.873-6.155-3.2-7.818-3.823-4.2-1.497-8.775-2.66-13.433-2.868-6.736-.291-13.141.956-17.923 3.699z" opacity=".455"/>
    <path d="M339.549 203.144L227.6 267.894c-3.286 1.87-12.892 9.351-12.892 12.676-3.784 5.818-1.081 13.05 7.278 17.87l108.58 62.673c5.781 3.324 13.141 5.028 20.253 4.821a34.206 34.206 0 0012.059-2.536c.832-.332 3.618-1.787 4.367-2.244l110.244-63.753c3.285-1.87 12.642-9.226 12.642-12.551 3.784-5.818 1.081-13.049-7.277-17.87l-104.963-60.511c-1.248-.707-6.238-3.283-7.61-3.824-4.076-1.496-8.525-2.743-13.1-2.992-6.612-.374-12.933.79-17.632 3.491z" opacity=".545"/>
    <path d="M340.63 203.684l-108.789 62.922c-2.62 1.496-13.183 9.143-13.183 11.803-4.449 5.486-2.079 12.675 6.197 17.413l106.917 61.675c5.572 3.242 12.767 4.821 19.628 4.613 4.325-.125 8.276-1.164 11.644-2.535.666-.291 3.618-1.87 4.201-2.203l106.834-61.758c2.62-1.496 12.891-8.976 12.891-11.636 4.45-5.486 2.08-12.676-6.196-17.414L378.057 207.3c-.998-.582-6.321-3.408-7.444-3.823-3.951-1.497-8.275-2.827-12.767-3.117-6.404-.416-12.642.706-17.216 3.324z" opacity=".636"/>
    <path d="M341.711 204.225l-105.669 61.134c-1.955 1.122-13.433 8.894-13.433 10.889-5.073 5.111-3.077 12.26 5.157 16.997l105.254 60.719c5.406 3.117 12.392 4.655 19.046 4.406 4.159-.167 7.984-1.206 11.228-2.577.499-.208 3.618-1.912 4.034-2.161l103.382-59.805c1.955-1.122 13.1-8.727 13.1-10.722 5.073-5.112 3.077-12.26-5.157-16.998l-100.429-57.934c-.749-.416-6.405-3.491-7.236-3.824-3.826-1.537-8.068-2.909-12.435-3.241-6.279-.499-12.392.54-16.842 3.117z" opacity=".727"/>
    <path d="M342.792 204.765l-102.55 59.306c-1.29.748-13.682 8.686-13.682 10.015-5.697 4.738-4.076 11.845 4.075 16.583l103.591 59.763c5.239 3.034 12.059 4.488 18.422 4.197 4.034-.166 7.735-1.247 10.854-2.618.333-.125 3.576-1.953 3.909-2.12l100.014-57.809c1.289-.748 13.308-8.478 13.308-9.767 5.697-4.738 4.075-11.844-4.076-16.582l-98.267-56.687c-.499-.291-6.446-3.575-7.028-3.824-3.743-1.538-7.818-2.992-12.102-3.366-6.113-.541-12.143.415-16.468 2.909z" opacity=".818"/>
    <path d="M343.873 205.305l-99.431 57.477c-.666.374-13.973 8.437-13.973 9.102-6.321 4.405-5.115 11.47 3.036 16.125l101.926 58.807c5.074 2.909 11.686 4.281 17.799 3.99 3.909-.208 7.444-1.289 10.438-2.619.167-.083 3.577-2.036 3.743-2.119l96.604-55.856c.665-.374 13.557-8.229 13.557-8.853 6.321-4.405 5.115-11.47-3.036-16.125l-95.938-55.316c-.25-.124-6.529-3.699-6.821-3.823-3.618-1.538-7.61-3.076-11.81-3.491-5.947-.624-11.893.249-16.094 2.701z" opacity=".909"/>
    <path d="M363.834 344.406l110.494-63.919c6.986-4.032 6.113-11.055-1.955-15.71l-100.222-57.81c-8.067-4.654-20.252-5.153-27.197-1.122l-110.535 63.878c-6.987 4.031-6.113 11.055 1.954 15.709l100.264 57.851c8.026 4.655 20.211 5.154 27.197 1.123z" opacity=".2"/>
  </g>
  <path fill="url(#paint24_linear)" d="M502.523 249.94h-2.994c-1.539-1.953-3.618-3.74-6.321-5.319l-116.939-67.452c-13.848-7.979-38.01-6.982-53.979 2.244l-108.123 62.34c-4.242 2.452-7.444 5.236-9.648 8.146h-3.535v9.309h.084c.457 4.613 3.451 9.018 9.232 12.343l116.897 67.452c13.849 7.979 38.01 6.982 53.979-2.245l108.123-62.381c7.569-4.363 11.935-9.808 12.933-15.169h.291v-9.268z"/>
  <path fill="url(#paint25_linear)" d="M327.198 331.938L210.3 264.486c-13.848-7.979-12.102-21.943 3.867-31.128l108.123-62.381c15.969-9.226 40.131-10.224 53.979-2.244l116.898 67.451c13.848 7.979 12.101 21.944-3.868 31.128l-108.123 62.381c-15.969 9.227-40.13 10.224-53.978 2.245z"/>
  <path fill="url(#paint26_linear)" d="M498.739 233.815h-2.953c-1.497-1.912-3.535-3.657-6.196-5.195l-114.153-65.872c-13.516-7.813-37.095-6.816-52.731 2.203l-105.545 60.926c-4.158 2.411-7.277 5.112-9.44 7.98h-3.451v16.291h.083c.416 4.53 3.368 8.811 9.024 12.052l114.153 65.873c13.515 7.813 37.095 6.815 52.731-2.203l105.586-60.927c7.403-4.28 11.644-9.6 12.642-14.837h.25v-16.291z"/>
  <path fill="url(#paint27_linear)" d="M502.273 223.01h-2.994c-1.539-1.954-3.618-3.741-6.321-5.32l-116.939-67.452c-13.848-7.979-38.01-6.982-53.979 2.245l-108.123 62.381c-4.242 2.452-7.444 5.236-9.648 8.146h-3.535v19.574h.084c.457 4.613 3.451 9.019 9.232 12.343l116.897 67.452c13.848 7.979 38.01 6.982 53.979-2.244l108.123-62.382c7.569-4.363 11.935-9.808 12.933-15.169h.291V223.01z"/>
  <path fill="url(#paint28_linear)" d="M326.948 305.007L210.05 237.555c-13.848-7.979-12.102-21.943 3.867-31.128l108.123-62.381c15.969-9.226 40.131-10.224 53.979-2.244l116.898 67.451c13.848 7.98 12.101 21.944-3.868 31.129l-108.123 62.381c-15.969 9.226-40.13 10.223-53.978 2.244z"/>
  <path fill="url(#paint29_linear)" d="M332.479 286.637l-90.533-52.282c-10.729-6.192-9.357-16.998 2.994-24.104l83.754-48.334c12.393-7.149 31.106-7.897 41.794-1.746l90.532 52.241c10.73 6.192 9.357 16.998-2.994 24.104l-83.712 48.376c-12.393 7.148-31.106 7.896-41.835 1.745z"/>
  <path fill="#FF9E4B" d="M350.61 163.662l4.699-2.701-4.658-2.66-4.699 2.701 4.658 2.66z" opacity=".2"/>
  <path fill="#FF9E4B" d="M341.794 168.774l4.7-2.743-4.658-2.66-4.699 2.702 4.657 2.701z" opacity=".5"/>
  <path fill="#FF9E4B" d="M333.019 173.844l4.658-2.701-4.658-2.701-4.658 2.701 4.658 2.701zM324.204 178.915l4.699-2.702-4.658-2.701-4.699 2.701 4.658 2.702z"/>
  <path fill="#FF9E4B" d="M315.387 183.985l4.699-2.701-4.657-2.66-4.7 2.701 4.658 2.66z" opacity=".5"/>
  <path fill="#FF9E4B" d="M306.571 189.097l4.699-2.702-4.658-2.701-4.699 2.701 4.658 2.702zM297.796 194.167l4.658-2.701-4.658-2.702-4.657 2.702 4.657 2.701z"/>
  <path fill="#FF9E4B" d="M288.98 199.237l4.699-2.701-4.658-2.701-4.699 2.743 4.658 2.659z" opacity=".5"/>
  <path fill="#FF9E4B" d="M280.163 204.308l4.7-2.702-4.658-2.66-4.699 2.702 4.657 2.66zM271.348 209.419l4.699-2.701-4.657-2.701-4.7 2.701 4.658 2.701z"/>
  <path fill="#FF9E4B" d="M262.573 214.49l4.658-2.702-4.658-2.701-4.699 2.701 4.699 2.702zM253.757 219.56l4.658-2.701-4.658-2.702-4.657 2.743 4.657 2.66z" opacity=".5"/>
  <path fill="#FF9E4B" d="M244.941 224.672l4.699-2.743-4.658-2.66-4.699 2.702 4.658 2.701z"/>
  <path fill="#FF9E4B" d="M358.927 168.483l4.699-2.701-4.657-2.702-4.699 2.702 4.657 2.701zM350.153 173.553l4.657-2.701-4.657-2.701-4.658 2.701 4.658 2.701zM341.336 178.624l4.7-2.702-4.658-2.66-4.699 2.702 4.657 2.66zM332.52 183.736l4.699-2.702-4.657-2.701-4.7 2.701 4.658 2.702z" opacity=".5"/>
  <path fill="#FF9E4B" d="M323.704 188.806l4.7-2.702-4.658-2.701-4.699 2.701 4.657 2.702z"/>
  <path fill="#FF9E4B" d="M314.929 193.876l4.658-2.701-4.658-2.702-4.658 2.743 4.658 2.66z" opacity=".5"/>
  <path fill="#FF9E4B" d="M306.114 198.946l4.657-2.701-4.657-2.66-4.658 2.702 4.658 2.659z" opacity=".2"/>
  <path fill="#FF9E4B" d="M297.297 204.058l4.699-2.701-4.657-2.701-4.699 2.701 4.657 2.701z"/>
  <path fill="#FF9E4B" d="M270.89 219.311l4.658-2.743-4.658-2.66-4.658 2.701 4.658 2.702zM262.074 224.381l4.699-2.701-4.658-2.702-4.699 2.702 4.658 2.701zM253.257 229.451l4.699-2.701-4.657-2.702-4.699 2.702 4.657 2.701z" opacity=".5"/>
  <path fill="#FF9E4B" d="M367.287 173.263l4.657-2.702-4.657-2.66-4.658 2.702 4.658 2.66z"/>
  <path fill="#FF9E4B" d="M358.47 178.374l4.699-2.701-4.699-2.701-4.658 2.701 4.658 2.701z" opacity=".5"/>
  <path fill="#FFCFC2" d="M349.654 183.445l4.699-2.702-4.658-2.701-4.699 2.701 4.658 2.702z" opacity=".2"/>
  <path fill="#FFCFC2" d="M340.837 188.515l4.699-2.701-4.657-2.702-4.699 2.743 4.657 2.66zM332.021 193.627l4.699-2.743-4.658-2.66-4.699 2.701 4.658 2.702z"/>
  <path fill="#FF9E4B" d="M323.246 198.697l4.658-2.701-4.658-2.702-4.657 2.702 4.657 2.701z" opacity=".5"/>
  <path fill="#FF9E4B" d="M314.43 203.767l4.699-2.701-4.657-2.701-4.7 2.701 4.658 2.701zM305.615 208.838l4.699-2.702-4.658-2.66-4.699 2.702 4.658 2.66z" opacity=".2"/>
  <path fill="#FFCFC2" d="M296.798 213.949l4.699-2.742-4.657-2.66-4.699 2.701 4.657 2.701zM288.024 219.02l4.657-2.702-4.657-2.701-4.658 2.701 4.658 2.702z"/>
  <path fill="#FFCFC2" d="M279.207 224.09l4.7-2.701-4.658-2.702-4.699 2.702 4.657 2.701z" opacity=".2"/>
  <path fill="#FF9E4B" d="M270.391 229.16l4.699-2.701-4.657-2.66-4.7 2.702 4.658 2.659z" opacity=".5"/>
  <path fill="#FF9E4B" d="M261.575 234.272l4.699-2.701-4.658-2.702-4.699 2.702 4.658 2.701z"/>
  <path fill="#FF9E4B" d="M375.603 178.083l4.658-2.701-4.658-2.701-4.658 2.701 4.658 2.701z" opacity=".5"/>
  <path fill="#FFCFC2" d="M357.971 188.266l4.699-2.743-4.657-2.66-4.7 2.701 4.658 2.702zM349.155 193.336l4.699-2.701-4.658-2.702-4.699 2.702 4.658 2.701z"/>
  <path fill="#FFCFC2" d="M340.38 198.406l4.658-2.701-4.658-2.702-4.657 2.702 4.657 2.701z" opacity=".5"/>
  <path fill="#FF9E4B" d="M331.564 203.476l4.699-2.701-4.658-2.66-4.699 2.702 4.658 2.659z" opacity=".2"/>
  <path fill="#FFCFC2" d="M305.157 218.729l4.658-2.702-4.658-2.701-4.699 2.701 4.699 2.702z" opacity=".5"/>
  <path fill="#FFCFC2" d="M296.34 223.799l4.658-2.701-4.658-2.66-4.657 2.701 4.657 2.66zM287.525 228.911l4.699-2.701-4.658-2.702-4.699 2.702 4.658 2.701z"/>
  <path fill="#FF9E4B" d="M269.892 239.052l4.699-2.702-4.657-2.701-4.7 2.743 4.658 2.66zM383.92 182.904l4.7-2.743-4.658-2.659-4.699 2.701 4.657 2.701z"/>
  <path fill="#FFCFC2" d="M366.288 193.045l4.7-2.701-4.658-2.702-4.699 2.702 4.657 2.701zM357.513 198.115l4.658-2.701-4.658-2.66-4.658 2.701 4.658 2.66zM348.698 203.227l4.699-2.701-4.699-2.702-4.658 2.702 4.658 2.701z"/>
  <path fill="#FF9E4B" d="M339.881 208.297l4.699-2.701-4.657-2.701-4.699 2.701 4.657 2.701z" opacity=".2"/>
  <path fill="#FFCFC2" d="M313.474 223.55l4.658-2.702-4.658-2.701-4.658 2.701 4.658 2.702z" opacity=".7"/>
  <path fill="#FFCFC2" d="M304.658 228.62l4.699-2.701-4.658-2.702-4.699 2.702 4.658 2.701z"/>
  <path fill="#FFCFC2" d="M295.841 233.69l4.699-2.701-4.657-2.701-4.699 2.743 4.657 2.659z" opacity=".7"/>
  <path fill="#FF9E4B" d="M287.026 238.802l4.699-2.743-4.658-2.66-4.699 2.702 4.658 2.701z" opacity=".2"/>
  <path fill="#FF9E4B" d="M278.25 243.872l4.658-2.701-4.658-2.701-4.657 2.701 4.657 2.701zM392.238 187.684l4.699-2.702-4.658-2.701-4.699 2.701 4.658 2.702z" opacity=".5"/>
  <path fill="#FF9E4B" d="M383.421 192.754l4.699-2.701-4.657-2.66-4.699 2.701 4.657 2.66z" opacity=".2"/>
  <path fill="#FFCFC2" d="M365.83 202.936l4.658-2.701-4.658-2.702-4.657 2.702 4.657 2.701zM357.014 208.006l4.699-2.701-4.657-2.701-4.7 2.743 4.658 2.659zM321.791 228.329l4.7-2.701-4.658-2.702-4.699 2.743 4.657 2.66zM312.975 233.441l4.699-2.743-4.657-2.66-4.7 2.702 4.658 2.701z"/>
  <path fill="#FF9E4B" d="M295.384 243.582l4.657-2.702-4.657-2.701-4.699 2.701 4.699 2.702z" opacity=".2"/>
  <path fill="#FF9E4B" d="M286.568 248.652l4.657-2.702-4.657-2.659-4.658 2.701 4.658 2.66z" opacity=".5"/>
  <path fill="#FF9E4B" d="M400.555 192.505l4.699-2.702-4.657-2.701-4.7 2.701 4.658 2.702z"/>
  <path fill="#FF9E4B" d="M391.739 197.575l4.699-2.701-4.658-2.702-4.699 2.702 4.658 2.701z" opacity=".2"/>
  <path fill="#FFCFC2" d="M374.148 207.716l4.699-2.702-4.658-2.66-4.699 2.702 4.658 2.66zM365.331 212.827l4.7-2.701-4.658-2.701-4.699 2.701 4.657 2.701zM356.515 217.898l4.699-2.702-4.657-2.701-4.7 2.701 4.658 2.702zM338.924 228.08l4.699-2.743-4.699-2.66-4.657 2.701 4.657 2.702zM330.109 233.15l4.699-2.701-4.658-2.702-4.699 2.702 4.658 2.701zM321.292 238.22l4.7-2.701-4.658-2.701-4.699 2.701 4.657 2.701z"/>
  <path fill="#FF9E4B" d="M303.702 248.403l4.657-2.702-4.657-2.701-4.658 2.701 4.658 2.702z"/>
  <path fill="#FF9E4B" d="M294.885 253.473l4.699-2.702-4.657-2.701-4.699 2.701 4.657 2.702z" opacity=".5"/>
  <path fill="#FF9E4B" d="M408.872 197.284l4.699-2.701-4.658-2.702-4.699 2.743 4.658 2.66z"/>
  <path fill="#FF9E4B" d="M400.097 202.396l4.658-2.743-4.658-2.66-4.658 2.702 4.658 2.701z" opacity=".2"/>
  <path fill="#FFCFC2" d="M373.649 217.607l4.699-2.702-4.658-2.659-4.699 2.701 4.658 2.66zM364.832 222.719l4.7-2.743-4.658-2.66-4.699 2.701 4.657 2.702zM356.058 227.789l4.658-2.702-4.658-2.701-4.658 2.701 4.658 2.702zM347.242 232.859l4.699-2.701-4.658-2.702-4.699 2.702 4.658 2.701zM338.425 237.929l4.699-2.701-4.657-2.66-4.699 2.702 4.657 2.659z"/>
  <path fill="#FF9E4B" d="M312.019 253.182l4.699-2.701-4.657-2.702-4.7 2.743 4.658 2.66z" opacity=".5"/>
  <path fill="#FF9E4B" d="M303.203 258.252l4.699-2.701-4.658-2.66-4.699 2.701 4.658 2.66z"/>
  <path fill="#FF9E4B" d="M417.23 202.105l4.658-2.701-4.658-2.702-4.699 2.702 4.699 2.701z" opacity=".5"/>
  <path fill="#FFCFC2" d="M373.192 227.498l4.657-2.701-4.657-2.702-4.658 2.702 4.658 2.701z" opacity=".5"/>
  <path fill="#FFCFC2" d="M364.375 232.568l4.7-2.701-4.658-2.66-4.699 2.701 4.657 2.66zM355.559 237.68l4.699-2.701-4.657-2.702-4.7 2.702 4.658 2.701z"/>
  <path fill="#FF9E4B" d="M320.335 258.003l4.7-2.702-4.658-2.701-4.699 2.701 4.657 2.702z" opacity=".2"/>
  <path fill="#FF9E4B" d="M311.52 263.073l4.699-2.701-4.657-2.702-4.7 2.702 4.658 2.701z"/>
  <path fill="#FF9E4B" d="M425.548 206.884l4.658-2.701-4.658-2.66-4.657 2.702 4.657 2.659z" opacity=".5"/>
  <path fill="#FFCFC2" d="M381.508 232.319l4.699-2.701-4.657-2.702-4.699 2.702 4.657 2.701z" opacity=".2"/>
  <path fill="#FFCFC2" d="M372.693 237.389l4.699-2.701-4.658-2.702-4.699 2.702 4.658 2.701z"/>
  <path fill="#FFCFC2" d="M363.876 242.459l4.7-2.701-4.658-2.701-4.699 2.743 4.657 2.659z" opacity=".5"/>
  <path fill="#FF9E4B" d="M328.653 262.782l4.699-2.701-4.658-2.66-4.699 2.701 4.658 2.66z" opacity=".5"/>
  <path fill="#FF9E4B" d="M319.836 267.894l4.7-2.743-4.658-2.66-4.699 2.702 4.657 2.701zM433.865 211.705l4.699-2.701-4.658-2.702-4.699 2.702 4.658 2.701z"/>
  <path fill="#FF9E4B" d="M425.049 216.776l4.699-2.702-4.657-2.701-4.699 2.743 4.657 2.66zM407.458 226.958l4.658-2.702-4.658-2.701-4.699 2.701 4.699 2.702z" opacity=".2"/>
  <path fill="#FFCFC2" d="M389.826 237.098l4.699-2.701-4.658-2.702-4.699 2.743 4.658 2.66z" opacity=".7"/>
  <path fill="#FFCFC2" d="M381.009 242.21l4.699-2.743-4.657-2.66-4.699 2.702 4.657 2.701z"/>
  <path fill="#FFCFC2" d="M372.193 247.28l4.699-2.701-4.658-2.701-4.699 2.701 4.658 2.701z" opacity=".7"/>
  <path fill="#FF9E4B" d="M354.602 257.421l4.699-2.701-4.657-2.66-4.7 2.701 4.658 2.66z" opacity=".5"/>
  <path fill="#FF9E4B" d="M336.97 267.603l4.699-2.701-4.657-2.702-4.7 2.702 4.658 2.701z" opacity=".2"/>
  <path fill="#FF9E4B" d="M328.195 272.673l4.658-2.701-4.658-2.701-4.699 2.701 4.699 2.701zM442.182 216.485l4.699-2.702-4.657-2.66-4.7 2.702 4.658 2.66z"/>
  <path fill="#FF9E4B" d="M433.366 221.597l4.699-2.702-4.658-2.701-4.699 2.701 4.658 2.702z" opacity=".5"/>
  <path fill="#FF9E4B" d="M424.55 226.667l4.699-2.702-4.657-2.701-4.699 2.701 4.657 2.702z" opacity=".2"/>
  <path fill="#FFCFC2" d="M398.143 241.919l4.699-2.701-4.657-2.702-4.7 2.702 4.658 2.701zM389.327 246.989l4.699-2.701-4.658-2.701-4.699 2.701 4.658 2.701zM380.552 252.06l4.658-2.702-4.658-2.659-4.657 2.701 4.657 2.66z"/>
  <path fill="#FF9E4B" d="M354.104 267.312l4.699-2.701-4.658-2.702-4.699 2.702 4.658 2.701z" opacity=".2"/>
  <path fill="#FF9E4B" d="M345.288 272.383l4.699-2.702-4.658-2.66-4.699 2.702 4.658 2.66zM336.513 277.494l4.658-2.701-4.658-2.701-4.658 2.701 4.658 2.701z" opacity=".5"/>
  <path fill="#FF9E4B" d="M450.499 221.306l4.7-2.702-4.658-2.701-4.699 2.701 4.657 2.702z" opacity=".2"/>
  <path fill="#FF9E4B" d="M441.683 226.376l4.699-2.702-4.657-2.659-4.7 2.701 4.658 2.66zM432.909 231.488l4.657-2.743-4.657-2.66-4.658 2.701 4.658 2.702z"/>
  <path fill="#FF9E4B" d="M424.092 236.558l4.699-2.701-4.657-2.702-4.699 2.702 4.657 2.701zM415.276 241.628l4.699-2.701-4.658-2.701-4.699 2.701 4.658 2.701zM406.46 246.699l4.7-2.702-4.658-2.66-4.699 2.702 4.657 2.66zM397.644 251.81l4.699-2.701-4.657-2.701-4.7 2.701 4.658 2.701z" opacity=".5"/>
  <path fill="#FF9E4B" d="M388.869 256.881l4.658-2.702-4.658-2.701-4.657 2.701 4.657 2.702z" opacity=".2"/>
  <path fill="#FF9E4B" d="M380.053 261.951l4.699-2.701-4.657-2.702-4.699 2.743 4.657 2.66z"/>
  <path fill="#FF9E4B" d="M371.237 267.021l4.699-2.701-4.658-2.66-4.699 2.701 4.658 2.66z" opacity=".5"/>
  <path fill="#FF9E4B" d="M362.42 272.133l4.699-2.701-4.657-2.702-4.699 2.702 4.657 2.701z"/>
  <path fill="#FF9E4B" d="M353.646 277.203l4.658-2.701-4.658-2.701-4.658 2.701 4.658 2.701zM344.829 282.274l4.7-2.702-4.658-2.701-4.699 2.743 4.657 2.66z" opacity=".5"/>
  <path fill="#FF9E4B" d="M458.817 226.126l4.699-2.701-4.658-2.701-4.699 2.701 4.658 2.701z" opacity=".2"/>
  <path fill="#FF9E4B" d="M450.042 231.197l4.658-2.702-4.658-2.701-4.699 2.701 4.699 2.702z"/>
  <path fill="#FF9E4B" d="M441.226 236.267l4.658-2.701-4.658-2.702-4.658 2.702 4.658 2.701zM432.41 241.337l4.699-2.701-4.658-2.66-4.699 2.701 4.658 2.66z" opacity=".5"/>
  <path fill="#FF9E4B" d="M423.593 246.449l4.699-2.701-4.657-2.702-4.699 2.702 4.657 2.701zM414.777 251.52l4.699-2.702-4.658-2.701-4.699 2.701 4.658 2.702zM406.002 256.59l4.658-2.702-4.658-2.701-4.657 2.743 4.657 2.66z"/>
  <path fill="#FF9E4B" d="M397.186 261.66l4.699-2.701-4.657-2.66-4.7 2.701 4.658 2.66zM388.371 266.772l4.699-2.701-4.658-2.702-4.699 2.702 4.658 2.701zM379.554 271.842l4.699-2.701-4.657-2.702-4.7 2.702 4.658 2.701z" opacity=".5"/>
  <path fill="#FF9E4B" d="M370.78 276.912l4.657-2.701-4.657-2.66-4.658 2.702 4.658 2.659z"/>
  <path fill="#FF9E4B" d="M361.963 282.024l4.7-2.743-4.7-2.659-4.657 2.701 4.657 2.701z" opacity=".5"/>
  <path fill="#FF9E4B" d="M353.147 287.095l4.699-2.702-4.658-2.701-4.699 2.701 4.658 2.702z" opacity=".2"/>
  <path fill="url(#paint30_linear)" d="M482.312 263.863l8.733-5.112 14.055 8.478a2.708 2.708 0 011.248 2.992l-1.705 15.294-5.281-10.722a13.216 13.216 0 00-3.743-3.2l-13.307-7.73z"/>
  <path fill="url(#paint31_radial)" d="M500.028 273.92a13.216 13.216 0 00-3.743-3.2l-12.892-7.481-1.122.665 13.307 7.73a13.82 13.82 0 013.743 3.2l5.281 10.723.083-.291-4.657-11.346z"/>
  <path fill="url(#paint32_linear)" d="M465.553 273.546l8.733-5.112 14.056 8.478a2.708 2.708 0 011.247 2.993l-1.705 15.294-5.281-10.723a13.202 13.202 0 00-3.743-3.2l-13.307-7.73z"/>
  <path fill="url(#paint33_radial)" d="M483.269 283.562a13.202 13.202 0 00-3.743-3.2l-12.891-7.481-1.123.665 13.307 7.73a13.802 13.802 0 013.743 3.2l5.281 10.723.084-.291-4.658-11.346z"/>
  <path fill="url(#paint34_linear)" d="M448.794 283.23l8.733-5.112 14.056 8.478a2.708 2.708 0 011.248 2.992l-1.705 15.294-5.282-10.722a13.186 13.186 0 00-3.743-3.2l-13.307-7.73z"/>
  <path fill="url(#paint35_radial)" d="M466.51 293.245a13.218 13.218 0 00-3.743-3.2l-12.891-7.48-1.123.665 13.307 7.73a13.785 13.785 0 013.743 3.2l5.282 10.722.083-.291-4.658-11.346z"/>
  <path fill="url(#paint36_linear)" d="M432.076 292.871l8.733-5.111 14.056 8.478a2.708 2.708 0 011.248 2.992l-1.705 15.294-5.282-10.722a13.182 13.182 0 00-3.742-3.2l-13.308-7.731z"/>
  <path fill="url(#paint37_radial)" d="M449.792 302.929a13.198 13.198 0 00-3.742-3.2l-12.892-7.481-1.123.665 13.308 7.73a13.783 13.783 0 013.742 3.2l5.282 10.723.083-.291-4.658-11.346z"/>
  <path fill="url(#paint38_linear)" d="M415.317 302.555l8.733-5.112 14.056 8.478a2.709 2.709 0 011.248 2.992l-1.705 15.294-5.281-10.722a13.216 13.216 0 00-3.743-3.2l-13.308-7.73z"/>
  <path fill="url(#paint39_radial)" d="M433.034 312.612a13.216 13.216 0 00-3.743-3.2l-12.892-7.481-1.123.665 13.308 7.731a13.785 13.785 0 013.743 3.2l5.281 10.722.083-.291-4.657-11.346z"/>
  <path fill="url(#paint40_linear)" d="M398.559 312.238l8.733-5.112 14.056 8.479a2.709 2.709 0 011.247 2.992l-1.705 15.294-5.281-10.723a13.218 13.218 0 00-3.743-3.2l-13.307-7.73z"/>
  <path fill="url(#paint41_radial)" d="M416.275 322.296a13.186 13.186 0 00-3.743-3.2l-12.892-7.481-1.122.665 13.307 7.73a13.802 13.802 0 013.743 3.2l5.281 10.722.083-.291-4.657-11.345z"/>
  <path fill="url(#paint42_linear)" d="M381.716 321.922l8.733-5.112 14.056 8.478a2.706 2.706 0 011.247 2.992l-1.705 15.294-5.281-10.722a13.202 13.202 0 00-3.743-3.2l-13.307-7.73z"/>
  <path fill="url(#paint43_radial)" d="M399.432 331.938a13.206 13.206 0 00-3.743-3.201l-12.891-7.48-1.123.665 13.307 7.73a13.802 13.802 0 013.743 3.2l5.281 10.722.084-.291-4.658-11.345z"/>
  <path fill="url(#paint44_linear)" d="M364.957 331.564l8.733-5.112 14.056 8.478a2.708 2.708 0 011.248 2.992l-1.705 15.294-5.282-10.722a13.173 13.173 0 00-3.743-3.2l-13.307-7.73z"/>
  <path fill="url(#paint45_radial)" d="M382.673 341.621a13.189 13.189 0 00-3.743-3.2l-12.891-7.481-1.123.665 13.307 7.73a13.787 13.787 0 013.743 3.2l5.282 10.723.083-.291-4.658-11.346z"/>
  <path fill="url(#paint46_linear)" d="M221.236 263.863l-8.733-5.112-14.014 8.478a2.708 2.708 0 00-1.248 2.992l1.705 15.294 5.282-10.722a13.198 13.198 0 013.742-3.2l13.266-7.73z"/>
  <path fill="url(#paint47_radial)" d="M203.52 273.92a13.216 13.216 0 013.743-3.2l12.85-7.481 1.123.665-13.307 7.73a13.82 13.82 0 00-3.743 3.2l-5.282 10.681-.083-.291 4.699-11.304z"/>
  <path fill="url(#paint48_linear)" d="M237.954 273.546l-8.691-5.112-14.056 8.478a2.71 2.71 0 00-1.248 2.993l1.705 15.294 5.281-10.723a13.216 13.216 0 013.743-3.2l13.266-7.73z"/>
  <path fill="url(#paint49_radial)" d="M220.28 283.562a13.202 13.202 0 013.743-3.2l12.85-7.481 1.123.665-13.308 7.73a13.783 13.783 0 00-3.742 3.2l-5.282 10.723-.083-.291 4.699-11.346z"/>
  <path fill="url(#paint50_linear)" d="M254.713 283.188l-8.692-5.112-14.056 8.478a2.71 2.71 0 00-1.247 2.993l1.705 15.294 5.281-10.723a13.202 13.202 0 013.743-3.2l13.266-7.73z"/>
  <path fill="url(#paint51_radial)" d="M236.997 293.245a13.218 13.218 0 013.743-3.2l12.85-7.48 1.123.665-13.308 7.73a13.785 13.785 0 00-3.743 3.2l-5.281 10.722-.083-.291 4.699-11.346z"/>
  <path fill="url(#paint52_linear)" d="M271.473 292.871l-8.692-5.111-14.056 8.478a2.707 2.707 0 00-1.247 2.992l1.705 15.294 5.281-10.722a13.186 13.186 0 013.743-3.2l13.266-7.731z"/>
  <path fill="url(#paint53_radial)" d="M253.757 302.929a13.189 13.189 0 013.743-3.2l12.85-7.481 1.122.665-13.307 7.73a13.802 13.802 0 00-3.743 3.2l-5.281 10.723-.083-.291 4.699-11.346z"/>
  <path fill="url(#paint54_linear)" d="M288.231 302.555l-8.691-5.112-14.056 8.478a2.709 2.709 0 00-1.248 2.992l1.705 15.294 5.282-10.722a13.189 13.189 0 013.743-3.2l13.265-7.73z"/>
  <path fill="url(#paint55_radial)" d="M270.516 312.571a13.182 13.182 0 013.742-3.2l12.85-7.481 1.123.665-13.307 7.73a13.802 13.802 0 00-3.743 3.2l-5.281 10.722-.084-.29 4.7-11.346z"/>
  <path fill="url(#paint56_linear)" d="M304.949 312.197l-8.691-5.112-14.056 8.478a2.708 2.708 0 00-1.248 2.992l1.705 15.294 5.282-10.722a13.198 13.198 0 013.742-3.2l13.266-7.73z"/>
  <path fill="url(#paint57_radial)" d="M287.233 322.254a13.216 13.216 0 013.743-3.2l12.85-7.481 1.123.665-13.308 7.73a13.802 13.802 0 00-3.742 3.201l-5.282 10.722-.083-.291 4.699-11.346z"/>
  <path fill="url(#paint58_linear)" d="M321.583 321.88l-8.691-5.112-14.056 8.478a2.71 2.71 0 00-1.248 2.993l1.705 15.294 5.281-10.723a13.216 13.216 0 013.743-3.2l13.266-7.73z"/>
  <path fill="url(#paint59_radial)" d="M303.867 331.938a13.206 13.206 0 013.743-3.201l12.85-7.48 1.123.665-13.308 7.73a13.783 13.783 0 00-3.742 3.2l-5.282 10.722-.083-.291 4.699-11.345z"/>
  <path fill="url(#paint60_linear)" d="M338.343 331.564l-8.692-5.112-14.056 8.478a2.709 2.709 0 00-1.247 2.992l1.705 15.294 5.281-10.722a13.186 13.186 0 013.743-3.2l13.266-7.73z"/>
  <path fill="url(#paint61_radial)" d="M320.627 341.579a13.218 13.218 0 013.743-3.2l12.85-7.48 1.122.665-13.307 7.73a13.785 13.785 0 00-3.743 3.2l-5.281 10.722-.083-.291 4.699-11.346z"/>
  <path fill="url(#paint62_linear)" d="M463.516 64.376L352.898 0 240.782 63.005v159.464l111.7 65 111.034-63.836V64.376z" opacity=".35"/>
  <defs>
    <linearGradient id="paint0_linear" x1="244.463" x2="318.469" y1="485.595" y2="346.249" gradientUnits="userSpaceOnUse">
      <stop stop-color="#000316"/>
      <stop offset=".54" stop-color="#DE3E3A"/>
      <stop offset=".725" stop-color="#EA6240"/>
      <stop offset="1" stop-color="#FF9E4B"/>
    </linearGradient>
    <linearGradient id="paint1_linear" x1="427.619" x2="381.715" y1="454.075" y2="346.07" gradientUnits="userSpaceOnUse">
      <stop stop-color="#000316"/>
      <stop offset=".54" stop-color="#DE3E3A"/>
      <stop offset=".725" stop-color="#EA6240"/>
      <stop offset="1" stop-color="#FF9E4B"/>
    </linearGradient>
    <linearGradient id="paint2_linear" x1="523.789" x2="398.983" y1="449.297" y2="347.249" gradientUnits="userSpaceOnUse">
      <stop stop-color="#000316"/>
      <stop offset=".54" stop-color="#DE3E3A"/>
      <stop offset=".725" stop-color="#EA6240"/>
      <stop offset="1" stop-color="#FF9E4B"/>
    </linearGradient>
    <linearGradient id="paint3_linear" x1="607.948" x2="426.944" y1="469.368" y2="338.597" gradientUnits="userSpaceOnUse">
      <stop stop-color="#000316"/>
      <stop offset=".54" stop-color="#DE3E3A"/>
      <stop offset=".725" stop-color="#EA6240"/>
      <stop offset="1" stop-color="#FF9E4B"/>
    </linearGradient>
    <linearGradient id="paint4_linear" x1="0" x2="259.16" y1="321.058" y2="321.058" gradientUnits="userSpaceOnUse">
      <stop stop-color="#000316"/>
      <stop offset=".54" stop-color="#DE3E3A"/>
      <stop offset=".725" stop-color="#EA6240"/>
      <stop offset="1" stop-color="#FF9E4B"/>
    </linearGradient>
    <linearGradient id="paint5_linear" x1="254.198" x2="315.174" y1="411.814" y2="351.671" gradientUnits="userSpaceOnUse">
      <stop stop-color="#000316"/>
      <stop offset=".54" stop-color="#DE3E3A"/>
      <stop offset=".725" stop-color="#EA6240"/>
      <stop offset="1" stop-color="#FF9E4B"/>
    </linearGradient>
    <linearGradient id="paint6_linear" x1="553.346" x2="495.858" y1="223.529" y2="286.719" gradientUnits="userSpaceOnUse">
      <stop stop-color="#000316"/>
      <stop offset=".54" stop-color="#DE3E3A"/>
      <stop offset=".725" stop-color="#EA6240"/>
      <stop offset="1" stop-color="#FF9E4B"/>
    </linearGradient>
    <linearGradient id="paint7_linear" x1="616.639" x2="443.416" y1="370.463" y2="325.331" gradientUnits="userSpaceOnUse">
      <stop stop-color="#000316"/>
      <stop offset=".54" stop-color="#DE3E3A"/>
      <stop offset=".725" stop-color="#EA6240"/>
      <stop offset="1" stop-color="#FF9E4B"/>
    </linearGradient>
    <linearGradient id="paint8_linear" x1="363.26" x2="328.654" y1="497.827" y2="324.688" gradientUnits="userSpaceOnUse">
      <stop stop-color="#000316"/>
      <stop offset=".54" stop-color="#DE3E3A"/>
      <stop offset=".725" stop-color="#EA6240"/>
      <stop offset="1" stop-color="#FF9E4B"/>
    </linearGradient>
    <linearGradient id="paint9_linear" x1="187.694" x2="292.604" y1="376.207" y2="376.207" gradientUnits="userSpaceOnUse">
      <stop stop-color="#000316"/>
      <stop offset=".54" stop-color="#DE3E3A"/>
      <stop offset=".725" stop-color="#EA6240"/>
      <stop offset="1" stop-color="#FF9E4B"/>
    </linearGradient>
    <linearGradient id="paint10_linear" x1="489.689" x2="406.187" y1="399.566" y2="338.989" gradientUnits="userSpaceOnUse">
      <stop stop-color="#000316"/>
      <stop offset=".54" stop-color="#DE3E3A"/>
      <stop offset=".725" stop-color="#EA6240"/>
      <stop offset="1" stop-color="#FF9E4B"/>
    </linearGradient>
    <linearGradient id="paint11_linear" x1="106.591" x2="242.439" y1="310.591" y2="310.591" gradientUnits="userSpaceOnUse">
      <stop stop-color="#000316"/>
      <stop offset=".54" stop-color="#DE3E3A"/>
      <stop offset=".725" stop-color="#EA6240"/>
      <stop offset="1" stop-color="#FF9E4B"/>
    </linearGradient>
    <linearGradient id="paint12_linear" x1="483.618" x2="440.082" y1="70.567" y2="169.891" gradientUnits="userSpaceOnUse">
      <stop stop-color="#000316"/>
      <stop offset=".54" stop-color="#DE3E3A"/>
      <stop offset=".725" stop-color="#EA6240"/>
      <stop offset="1" stop-color="#FF9E4B"/>
    </linearGradient>
    <linearGradient id="paint13_linear" x1="61.976" x2="275.882" y1="378.583" y2="378.583" gradientUnits="userSpaceOnUse">
      <stop stop-color="#000316"/>
      <stop offset=".54" stop-color="#DE3E3A"/>
      <stop offset=".725" stop-color="#EA6240"/>
      <stop offset="1" stop-color="#FF9E4B"/>
    </linearGradient>
    <linearGradient id="paint14_linear" x1="579.792" x2="489.144" y1="296.745" y2="306.339" gradientUnits="userSpaceOnUse">
      <stop stop-color="#000316"/>
      <stop offset=".54" stop-color="#DE3E3A"/>
      <stop offset=".725" stop-color="#EA6240"/>
      <stop offset="1" stop-color="#FF9E4B"/>
    </linearGradient>
    <linearGradient id="paint15_linear" x1="573.659" x2="463.882" y1="131.289" y2="211.494" gradientUnits="userSpaceOnUse">
      <stop stop-color="#000316"/>
      <stop offset=".54" stop-color="#DE3E3A"/>
      <stop offset=".725" stop-color="#EA6240"/>
      <stop offset="1" stop-color="#FF9E4B"/>
    </linearGradient>
    <linearGradient id="paint16_linear" x1="345.539" x2="383.847" y1="57.529" y2="175.575" gradientUnits="userSpaceOnUse">
      <stop stop-color="#000316"/>
      <stop offset=".54" stop-color="#DE3E3A"/>
      <stop offset=".725" stop-color="#EA6240"/>
      <stop offset="1" stop-color="#FF9E4B"/>
    </linearGradient>
    <linearGradient id="paint17_linear" x1="30.848" x2="225.717" y1="255.534" y2="255.534" gradientUnits="userSpaceOnUse">
      <stop stop-color="#000316"/>
      <stop offset=".54" stop-color="#DE3E3A"/>
      <stop offset=".725" stop-color="#EA6240"/>
      <stop offset="1" stop-color="#FF9E4B"/>
    </linearGradient>
    <linearGradient id="paint18_linear" x1="97.963" x2="208.995" y1="251.184" y2="251.184" gradientUnits="userSpaceOnUse">
      <stop stop-color="#000316"/>
      <stop offset=".54" stop-color="#DE3E3A"/>
      <stop offset=".725" stop-color="#EA6240"/>
      <stop offset="1" stop-color="#FF9E4B"/>
    </linearGradient>
    <linearGradient id="paint19_linear" x1="210.181" x2="347.68" y1="118.459" y2="118.459" gradientUnits="userSpaceOnUse">
      <stop stop-color="#000316"/>
      <stop offset=".54" stop-color="#DE3E3A"/>
      <stop offset=".725" stop-color="#EA6240"/>
      <stop offset="1" stop-color="#FF9E4B"/>
    </linearGradient>
    <linearGradient id="paint20_linear" x1="83.358" x2="240.751" y1="199.539" y2="199.539" gradientUnits="userSpaceOnUse">
      <stop stop-color="#000316"/>
      <stop offset=".54" stop-color="#DE3E3A"/>
      <stop offset=".725" stop-color="#EA6240"/>
      <stop offset="1" stop-color="#FF9E4B"/>
    </linearGradient>
    <linearGradient id="paint21_linear" x1="630.925" x2="473.417" y1="370.87" y2="292.394" gradientUnits="userSpaceOnUse">
      <stop stop-color="#000316"/>
      <stop offset=".54" stop-color="#DE3E3A"/>
      <stop offset=".725" stop-color="#EA6240"/>
      <stop offset="1" stop-color="#FF9E4B"/>
    </linearGradient>
    <linearGradient id="paint22_linear" x1="152.66" x2="301.45" y1="173.354" y2="173.354" gradientUnits="userSpaceOnUse">
      <stop stop-color="#000316"/>
      <stop offset=".54" stop-color="#DE3E3A"/>
      <stop offset=".725" stop-color="#EA6240"/>
      <stop offset="1" stop-color="#FF9E4B"/>
    </linearGradient>
    <linearGradient id="paint23_linear" x1="635.646" x2="480.546" y1="137.721" y2="230.141" gradientUnits="userSpaceOnUse">
      <stop stop-color="#000316"/>
      <stop offset=".54" stop-color="#DE3E3A"/>
      <stop offset=".725" stop-color="#EA6240"/>
      <stop offset="1" stop-color="#FF9E4B"/>
    </linearGradient>
    <linearGradient id="paint24_linear" x1="200.941" x2="502.51" y1="258.096" y2="258.096" gradientUnits="userSpaceOnUse">
      <stop stop-color="#530B21"/>
      <stop offset=".146" stop-color="#D11833"/>
      <stop offset=".343" stop-color="#F27744"/>
      <stop offset=".384" stop-color="#F48149"/>
      <stop offset=".454" stop-color="#FB9C57"/>
      <stop offset=".495" stop-color="#FFAF61"/>
      <stop offset=".531" stop-color="#FA9B57"/>
      <stop offset=".586" stop-color="#F27744"/>
      <stop offset=".685" stop-color="#E7583F"/>
      <stop offset=".866" stop-color="#D11833"/>
      <stop offset=".887" stop-color="#C61731"/>
      <stop offset=".923" stop-color="#A9142D"/>
      <stop offset=".971" stop-color="#7A0F27"/>
      <stop offset="1" stop-color="#5A0C22"/>
    </linearGradient>
    <linearGradient id="paint25_linear" x1="463.686" x2="339.736" y1="-38.502" y2="281.664" gradientUnits="userSpaceOnUse">
      <stop stop-color="#D11833"/>
      <stop offset="1" stop-color="#F27744"/>
    </linearGradient>
    <linearGradient id="paint26_linear" x1="207.831" x2="495.539" y1="245.402" y2="245.402" gradientUnits="userSpaceOnUse">
      <stop offset=".035" stop-color="#6D0B1E"/>
      <stop offset=".212" stop-color="#D11833"/>
      <stop offset=".35" stop-color="#D02229"/>
      <stop offset=".505" stop-color="#CE3319"/>
      <stop offset=".662" stop-color="#D0202B"/>
      <stop offset=".778" stop-color="#D11833"/>
      <stop offset=".808" stop-color="#BA152E"/>
      <stop offset=".862" stop-color="#991127"/>
      <stop offset=".913" stop-color="#810E22"/>
      <stop offset=".961" stop-color="#720C1F"/>
      <stop offset="1" stop-color="#6D0B1E"/>
    </linearGradient>
    <linearGradient id="paint27_linear" x1="200.699" x2="502.268" y1="236.3" y2="236.3" gradientUnits="userSpaceOnUse">
      <stop stop-color="#530B21"/>
      <stop offset=".146" stop-color="#D11833"/>
      <stop offset=".343" stop-color="#F27744"/>
      <stop offset=".384" stop-color="#F48149"/>
      <stop offset=".454" stop-color="#FB9C57"/>
      <stop offset=".495" stop-color="#FFAF61"/>
      <stop offset=".531" stop-color="#FA9B57"/>
      <stop offset=".586" stop-color="#F27744"/>
      <stop offset=".685" stop-color="#E7583F"/>
      <stop offset=".866" stop-color="#D11833"/>
      <stop offset=".887" stop-color="#C61731"/>
      <stop offset=".923" stop-color="#A9142D"/>
      <stop offset=".971" stop-color="#7A0F27"/>
      <stop offset="1" stop-color="#5A0C22"/>
    </linearGradient>
    <linearGradient id="paint28_linear" x1="381.034" x2="323.11" y1="147.176" y2="296.794" gradientUnits="userSpaceOnUse">
      <stop stop-color="#AF142E"/>
      <stop offset="1" stop-color="#F27744"/>
    </linearGradient>
    <linearGradient id="paint29_linear" x1="395.955" x2="299.952" y1="108.683" y2="356.661" gradientUnits="userSpaceOnUse">
      <stop stop-color="#D11833"/>
      <stop offset="1" stop-color="#F27744"/>
    </linearGradient>
    <linearGradient id="paint30_linear" x1="490.686" x2="507.52" y1="260.399" y2="287.601" gradientUnits="userSpaceOnUse">
      <stop offset=".005" stop-color="#C61910"/>
      <stop offset=".359" stop-color="#C4482C"/>
      <stop offset=".374" stop-color="#C95236"/>
      <stop offset=".401" stop-color="#D56D51"/>
      <stop offset=".434" stop-color="#EA997D"/>
      <stop offset=".465" stop-color="#FFC6A9"/>
      <stop offset=".466" stop-color="#FEC5A7"/>
      <stop offset=".506" stop-color="#E9A77F"/>
      <stop offset=".542" stop-color="#DA9262"/>
      <stop offset=".573" stop-color="#D18550"/>
      <stop offset=".596" stop-color="#CE804A"/>
      <stop offset=".597" stop-color="#CE804A"/>
      <stop offset=".747" stop-color="#D47B32"/>
      <stop offset=".885" stop-color="#D77823"/>
      <stop offset="1" stop-color="#D8771E"/>
    </linearGradient>
    <linearGradient id="paint32_linear" x1="473.934" x2="490.767" y1="270.073" y2="297.275" gradientUnits="userSpaceOnUse">
      <stop offset=".005" stop-color="#C61910"/>
      <stop offset=".359" stop-color="#C4482C"/>
      <stop offset=".374" stop-color="#C95236"/>
      <stop offset=".401" stop-color="#D56D51"/>
      <stop offset=".434" stop-color="#EA997D"/>
      <stop offset=".465" stop-color="#FFC6A9"/>
      <stop offset=".466" stop-color="#FEC5A7"/>
      <stop offset=".506" stop-color="#E9A77F"/>
      <stop offset=".542" stop-color="#DA9262"/>
      <stop offset=".573" stop-color="#D18550"/>
      <stop offset=".596" stop-color="#CE804A"/>
      <stop offset=".597" stop-color="#CE804A"/>
      <stop offset=".747" stop-color="#D47B32"/>
      <stop offset=".885" stop-color="#D77823"/>
      <stop offset="1" stop-color="#D8771E"/>
    </linearGradient>
    <linearGradient id="paint34_linear" x1="457.182" x2="474.015" y1="279.748" y2="306.949" gradientUnits="userSpaceOnUse">
      <stop offset=".005" stop-color="#C61910"/>
      <stop offset=".359" stop-color="#C4482C"/>
      <stop offset=".374" stop-color="#C95236"/>
      <stop offset=".401" stop-color="#D56D51"/>
      <stop offset=".434" stop-color="#EA997D"/>
      <stop offset=".465" stop-color="#FFC6A9"/>
      <stop offset=".466" stop-color="#FEC5A7"/>
      <stop offset=".506" stop-color="#E9A77F"/>
      <stop offset=".542" stop-color="#DA9262"/>
      <stop offset=".573" stop-color="#D18550"/>
      <stop offset=".596" stop-color="#CE804A"/>
      <stop offset=".597" stop-color="#CE804A"/>
      <stop offset=".747" stop-color="#D47B32"/>
      <stop offset=".885" stop-color="#D77823"/>
      <stop offset="1" stop-color="#D8771E"/>
    </linearGradient>
    <linearGradient id="paint36_linear" x1="440.429" x2="457.262" y1="289.422" y2="316.623" gradientUnits="userSpaceOnUse">
      <stop offset=".005" stop-color="#C61910"/>
      <stop offset=".359" stop-color="#C4482C"/>
      <stop offset=".374" stop-color="#C95236"/>
      <stop offset=".401" stop-color="#D56D51"/>
      <stop offset=".434" stop-color="#EA997D"/>
      <stop offset=".465" stop-color="#FFC6A9"/>
      <stop offset=".466" stop-color="#FEC5A7"/>
      <stop offset=".506" stop-color="#E9A77F"/>
      <stop offset=".542" stop-color="#DA9262"/>
      <stop offset=".573" stop-color="#D18550"/>
      <stop offset=".596" stop-color="#CE804A"/>
      <stop offset=".597" stop-color="#CE804A"/>
      <stop offset=".747" stop-color="#D47B32"/>
      <stop offset=".885" stop-color="#D77823"/>
      <stop offset="1" stop-color="#D8771E"/>
    </linearGradient>
    <linearGradient id="paint38_linear" x1="423.676" x2="440.51" y1="299.096" y2="326.297" gradientUnits="userSpaceOnUse">
      <stop offset=".005" stop-color="#C61910"/>
      <stop offset=".359" stop-color="#C4482C"/>
      <stop offset=".374" stop-color="#C95236"/>
      <stop offset=".401" stop-color="#D56D51"/>
      <stop offset=".434" stop-color="#EA997D"/>
      <stop offset=".465" stop-color="#FFC6A9"/>
      <stop offset=".466" stop-color="#FEC5A7"/>
      <stop offset=".506" stop-color="#E9A77F"/>
      <stop offset=".542" stop-color="#DA9262"/>
      <stop offset=".573" stop-color="#D18550"/>
      <stop offset=".596" stop-color="#CE804A"/>
      <stop offset=".597" stop-color="#CE804A"/>
      <stop offset=".747" stop-color="#D47B32"/>
      <stop offset=".885" stop-color="#D77823"/>
      <stop offset="1" stop-color="#D8771E"/>
    </linearGradient>
    <linearGradient id="paint40_linear" x1="406.924" x2="423.757" y1="308.77" y2="335.971" gradientUnits="userSpaceOnUse">
      <stop offset=".005" stop-color="#C61910"/>
      <stop offset=".359" stop-color="#C4482C"/>
      <stop offset=".374" stop-color="#C95236"/>
      <stop offset=".401" stop-color="#D56D51"/>
      <stop offset=".434" stop-color="#EA997D"/>
      <stop offset=".465" stop-color="#FFC6A9"/>
      <stop offset=".466" stop-color="#FEC5A7"/>
      <stop offset=".506" stop-color="#E9A77F"/>
      <stop offset=".542" stop-color="#DA9262"/>
      <stop offset=".573" stop-color="#D18550"/>
      <stop offset=".596" stop-color="#CE804A"/>
      <stop offset=".597" stop-color="#CE804A"/>
      <stop offset=".747" stop-color="#D47B32"/>
      <stop offset=".885" stop-color="#D77823"/>
      <stop offset="1" stop-color="#D8771E"/>
    </linearGradient>
    <linearGradient id="paint42_linear" x1="390.092" x2="406.925" y1="318.444" y2="345.645" gradientUnits="userSpaceOnUse">
      <stop offset=".005" stop-color="#C61910"/>
      <stop offset=".359" stop-color="#C4482C"/>
      <stop offset=".374" stop-color="#C95236"/>
      <stop offset=".401" stop-color="#D56D51"/>
      <stop offset=".434" stop-color="#EA997D"/>
      <stop offset=".465" stop-color="#FFC6A9"/>
      <stop offset=".466" stop-color="#FEC5A7"/>
      <stop offset=".506" stop-color="#E9A77F"/>
      <stop offset=".542" stop-color="#DA9262"/>
      <stop offset=".573" stop-color="#D18550"/>
      <stop offset=".596" stop-color="#CE804A"/>
      <stop offset=".597" stop-color="#CE804A"/>
      <stop offset=".747" stop-color="#D47B32"/>
      <stop offset=".885" stop-color="#D77823"/>
      <stop offset="1" stop-color="#D8771E"/>
    </linearGradient>
    <linearGradient id="paint44_linear" x1="373.339" x2="390.173" y1="328.118" y2="355.32" gradientUnits="userSpaceOnUse">
      <stop offset=".005" stop-color="#C61910"/>
      <stop offset=".359" stop-color="#C4482C"/>
      <stop offset=".374" stop-color="#C95236"/>
      <stop offset=".401" stop-color="#D56D51"/>
      <stop offset=".434" stop-color="#EA997D"/>
      <stop offset=".465" stop-color="#FFC6A9"/>
      <stop offset=".466" stop-color="#FEC5A7"/>
      <stop offset=".506" stop-color="#E9A77F"/>
      <stop offset=".542" stop-color="#DA9262"/>
      <stop offset=".573" stop-color="#D18550"/>
      <stop offset=".596" stop-color="#CE804A"/>
      <stop offset=".597" stop-color="#CE804A"/>
      <stop offset=".747" stop-color="#D47B32"/>
      <stop offset=".885" stop-color="#D77823"/>
      <stop offset="1" stop-color="#D8771E"/>
    </linearGradient>
    <linearGradient id="paint46_linear" x1="212.857" x2="196.03" y1="260.399" y2="287.591" gradientUnits="userSpaceOnUse">
      <stop offset=".005" stop-color="#C61910"/>
      <stop offset=".359" stop-color="#C4482C"/>
      <stop offset=".374" stop-color="#C95236"/>
      <stop offset=".401" stop-color="#D56D51"/>
      <stop offset=".434" stop-color="#EA997D"/>
      <stop offset=".465" stop-color="#FFC6A9"/>
      <stop offset=".466" stop-color="#FEC5A7"/>
      <stop offset=".506" stop-color="#E9A77F"/>
      <stop offset=".542" stop-color="#DA9262"/>
      <stop offset=".573" stop-color="#D18550"/>
      <stop offset=".596" stop-color="#CE804A"/>
      <stop offset=".597" stop-color="#CE804A"/>
      <stop offset=".747" stop-color="#D47B32"/>
      <stop offset=".885" stop-color="#D77823"/>
      <stop offset="1" stop-color="#D8771E"/>
    </linearGradient>
    <linearGradient id="paint48_linear" x1="229.605" x2="212.777" y1="270.07" y2="297.262" gradientUnits="userSpaceOnUse">
      <stop offset=".005" stop-color="#C61910"/>
      <stop offset=".359" stop-color="#C4482C"/>
      <stop offset=".374" stop-color="#C95236"/>
      <stop offset=".401" stop-color="#D56D51"/>
      <stop offset=".434" stop-color="#EA997D"/>
      <stop offset=".465" stop-color="#FFC6A9"/>
      <stop offset=".466" stop-color="#FEC5A7"/>
      <stop offset=".506" stop-color="#E9A77F"/>
      <stop offset=".542" stop-color="#DA9262"/>
      <stop offset=".573" stop-color="#D18550"/>
      <stop offset=".596" stop-color="#CE804A"/>
      <stop offset=".597" stop-color="#CE804A"/>
      <stop offset=".747" stop-color="#D47B32"/>
      <stop offset=".885" stop-color="#D77823"/>
      <stop offset="1" stop-color="#D8771E"/>
    </linearGradient>
    <linearGradient id="paint50_linear" x1="246.352" x2="229.524" y1="279.741" y2="306.933" gradientUnits="userSpaceOnUse">
      <stop offset=".005" stop-color="#C61910"/>
      <stop offset=".359" stop-color="#C4482C"/>
      <stop offset=".374" stop-color="#C95236"/>
      <stop offset=".401" stop-color="#D56D51"/>
      <stop offset=".434" stop-color="#EA997D"/>
      <stop offset=".465" stop-color="#FFC6A9"/>
      <stop offset=".466" stop-color="#FEC5A7"/>
      <stop offset=".506" stop-color="#E9A77F"/>
      <stop offset=".542" stop-color="#DA9262"/>
      <stop offset=".573" stop-color="#D18550"/>
      <stop offset=".596" stop-color="#CE804A"/>
      <stop offset=".597" stop-color="#CE804A"/>
      <stop offset=".747" stop-color="#D47B32"/>
      <stop offset=".885" stop-color="#D77823"/>
      <stop offset="1" stop-color="#D8771E"/>
    </linearGradient>
    <linearGradient id="paint52_linear" x1="263.1" x2="246.272" y1="289.412" y2="316.604" gradientUnits="userSpaceOnUse">
      <stop offset=".005" stop-color="#C61910"/>
      <stop offset=".359" stop-color="#C4482C"/>
      <stop offset=".374" stop-color="#C95236"/>
      <stop offset=".401" stop-color="#D56D51"/>
      <stop offset=".434" stop-color="#EA997D"/>
      <stop offset=".465" stop-color="#FFC6A9"/>
      <stop offset=".466" stop-color="#FEC5A7"/>
      <stop offset=".506" stop-color="#E9A77F"/>
      <stop offset=".542" stop-color="#DA9262"/>
      <stop offset=".573" stop-color="#D18550"/>
      <stop offset=".596" stop-color="#CE804A"/>
      <stop offset=".597" stop-color="#CE804A"/>
      <stop offset=".747" stop-color="#D47B32"/>
      <stop offset=".885" stop-color="#D77823"/>
      <stop offset="1" stop-color="#D8771E"/>
    </linearGradient>
    <linearGradient id="paint54_linear" x1="279.846" x2="263.019" y1="299.082" y2="326.275" gradientUnits="userSpaceOnUse">
      <stop offset=".005" stop-color="#C61910"/>
      <stop offset=".359" stop-color="#C4482C"/>
      <stop offset=".374" stop-color="#C95236"/>
      <stop offset=".401" stop-color="#D56D51"/>
      <stop offset=".434" stop-color="#EA997D"/>
      <stop offset=".465" stop-color="#FFC6A9"/>
      <stop offset=".466" stop-color="#FEC5A7"/>
      <stop offset=".506" stop-color="#E9A77F"/>
      <stop offset=".542" stop-color="#DA9262"/>
      <stop offset=".573" stop-color="#D18550"/>
      <stop offset=".596" stop-color="#CE804A"/>
      <stop offset=".597" stop-color="#CE804A"/>
      <stop offset=".747" stop-color="#D47B32"/>
      <stop offset=".885" stop-color="#D77823"/>
      <stop offset="1" stop-color="#D8771E"/>
    </linearGradient>
    <linearGradient id="paint56_linear" x1="296.594" x2="279.766" y1="308.753" y2="335.946" gradientUnits="userSpaceOnUse">
      <stop offset=".005" stop-color="#C61910"/>
      <stop offset=".359" stop-color="#C4482C"/>
      <stop offset=".374" stop-color="#C95236"/>
      <stop offset=".401" stop-color="#D56D51"/>
      <stop offset=".434" stop-color="#EA997D"/>
      <stop offset=".465" stop-color="#FFC6A9"/>
      <stop offset=".466" stop-color="#FEC5A7"/>
      <stop offset=".506" stop-color="#E9A77F"/>
      <stop offset=".542" stop-color="#DA9262"/>
      <stop offset=".573" stop-color="#D18550"/>
      <stop offset=".596" stop-color="#CE804A"/>
      <stop offset=".597" stop-color="#CE804A"/>
      <stop offset=".747" stop-color="#D47B32"/>
      <stop offset=".885" stop-color="#D77823"/>
      <stop offset="1" stop-color="#D8771E"/>
    </linearGradient>
    <linearGradient id="paint58_linear" x1="313.222" x2="296.394" y1="318.424" y2="345.617" gradientUnits="userSpaceOnUse">
      <stop offset=".005" stop-color="#C61910"/>
      <stop offset=".359" stop-color="#C4482C"/>
      <stop offset=".374" stop-color="#C95236"/>
      <stop offset=".401" stop-color="#D56D51"/>
      <stop offset=".434" stop-color="#EA997D"/>
      <stop offset=".465" stop-color="#FFC6A9"/>
      <stop offset=".466" stop-color="#FEC5A7"/>
      <stop offset=".506" stop-color="#E9A77F"/>
      <stop offset=".542" stop-color="#DA9262"/>
      <stop offset=".573" stop-color="#D18550"/>
      <stop offset=".596" stop-color="#CE804A"/>
      <stop offset=".597" stop-color="#CE804A"/>
      <stop offset=".747" stop-color="#D47B32"/>
      <stop offset=".885" stop-color="#D77823"/>
      <stop offset="1" stop-color="#D8771E"/>
    </linearGradient>
    <linearGradient id="paint60_linear" x1="329.97" x2="313.142" y1="328.095" y2="355.288" gradientUnits="userSpaceOnUse">
      <stop offset=".005" stop-color="#C61910"/>
      <stop offset=".359" stop-color="#C4482C"/>
      <stop offset=".374" stop-color="#C95236"/>
      <stop offset=".401" stop-color="#D56D51"/>
      <stop offset=".434" stop-color="#EA997D"/>
      <stop offset=".465" stop-color="#FFC6A9"/>
      <stop offset=".466" stop-color="#FEC5A7"/>
      <stop offset=".506" stop-color="#E9A77F"/>
      <stop offset=".542" stop-color="#DA9262"/>
      <stop offset=".573" stop-color="#D18550"/>
      <stop offset=".596" stop-color="#CE804A"/>
      <stop offset=".597" stop-color="#CE804A"/>
      <stop offset=".747" stop-color="#D47B32"/>
      <stop offset=".885" stop-color="#D77823"/>
      <stop offset="1" stop-color="#D8771E"/>
    </linearGradient>
    <linearGradient id="paint62_linear" x1="352.151" x2="352.151" y1="307.225" y2="25.309" gradientUnits="userSpaceOnUse">
      <stop stop-color="#fff"/>
      <stop offset="1" stop-color="#fff" stop-opacity="0"/>
    </linearGradient>
    <radialGradient id="paint31_radial" cx="0" cy="0" r="1" gradientTransform="matrix(11.1796 0 0 11.1725 493.513 274.372)" gradientUnits="userSpaceOnUse">
      <stop stop-color="#FFC6A9"/>
      <stop offset="1"/>
    </radialGradient>
    <radialGradient id="paint33_radial" cx="0" cy="0" r="1" gradientTransform="matrix(11.1797 0 0 11.1727 476.761 284.046)" gradientUnits="userSpaceOnUse">
      <stop stop-color="#FFC6A9"/>
      <stop offset="1"/>
    </radialGradient>
    <radialGradient id="paint35_radial" cx="0" cy="0" r="1" gradientTransform="matrix(11.1796 0 0 11.1726 460.008 293.72)" gradientUnits="userSpaceOnUse">
      <stop stop-color="#FFC6A9"/>
      <stop offset="1"/>
    </radialGradient>
    <radialGradient id="paint37_radial" cx="0" cy="0" r="1" gradientTransform="matrix(11.1797 0 0 11.1726 443.255 303.394)" gradientUnits="userSpaceOnUse">
      <stop stop-color="#FFC6A9"/>
      <stop offset="1"/>
    </radialGradient>
    <radialGradient id="paint39_radial" cx="0" cy="0" r="1" gradientTransform="matrix(11.1796 0 0 11.1726 426.503 313.068)" gradientUnits="userSpaceOnUse">
      <stop stop-color="#FFC6A9"/>
      <stop offset="1"/>
    </radialGradient>
    <radialGradient id="paint41_radial" cx="0" cy="0" r="1" gradientTransform="matrix(11.1796 0 0 11.1726 409.751 322.742)" gradientUnits="userSpaceOnUse">
      <stop stop-color="#FFC6A9"/>
      <stop offset="1"/>
    </radialGradient>
    <radialGradient id="paint43_radial" cx="0" cy="0" r="1" gradientTransform="matrix(11.1796 0 0 11.1727 392.918 332.416)" gradientUnits="userSpaceOnUse">
      <stop stop-color="#FFC6A9"/>
      <stop offset="1"/>
    </radialGradient>
    <radialGradient id="paint45_radial" cx="0" cy="0" r="1" gradientTransform="matrix(11.1796 0 0 11.1726 376.166 342.091)" gradientUnits="userSpaceOnUse">
      <stop stop-color="#FFC6A9"/>
      <stop offset="1"/>
    </radialGradient>
    <radialGradient id="paint47_radial" cx="0" cy="0" r="1" gradientTransform="matrix(-11.1759 0 0 -11.1689 210.032 274.367)" gradientUnits="userSpaceOnUse">
      <stop stop-color="#FFC6A9"/>
      <stop offset="1"/>
    </radialGradient>
    <radialGradient id="paint49_radial" cx="0" cy="0" r="1" gradientTransform="matrix(-11.1759 0 0 -11.169 226.78 284.037)" gradientUnits="userSpaceOnUse">
      <stop stop-color="#FFC6A9"/>
      <stop offset="1"/>
    </radialGradient>
    <radialGradient id="paint51_radial" cx="0" cy="0" r="1" gradientTransform="matrix(-11.176 0 0 -11.169 243.526 293.708)" gradientUnits="userSpaceOnUse">
      <stop stop-color="#FFC6A9"/>
      <stop offset="1"/>
    </radialGradient>
    <radialGradient id="paint53_radial" cx="0" cy="0" r="1" gradientTransform="matrix(-11.1759 0 0 -11.1689 260.274 303.379)" gradientUnits="userSpaceOnUse">
      <stop stop-color="#FFC6A9"/>
      <stop offset="1"/>
    </radialGradient>
    <radialGradient id="paint55_radial" cx="0" cy="0" r="1" gradientTransform="matrix(-11.1759 0 0 -11.1689 277.021 313.05)" gradientUnits="userSpaceOnUse">
      <stop stop-color="#FFC6A9"/>
      <stop offset="1"/>
    </radialGradient>
    <radialGradient id="paint57_radial" cx="0" cy="0" r="1" gradientTransform="matrix(-11.1759 0 0 -11.1689 293.768 322.721)" gradientUnits="userSpaceOnUse">
      <stop stop-color="#FFC6A9"/>
      <stop offset="1"/>
    </radialGradient>
    <radialGradient id="paint59_radial" cx="0" cy="0" r="1" gradientTransform="matrix(-11.176 0 0 -11.169 310.396 332.392)" gradientUnits="userSpaceOnUse">
      <stop stop-color="#FFC6A9"/>
      <stop offset="1"/>
    </radialGradient>
    <radialGradient id="paint61_radial" cx="0" cy="0" r="1" gradientTransform="matrix(-11.176 0 0 -11.169 327.144 342.063)" gradientUnits="userSpaceOnUse">
      <stop stop-color="#FFC6A9"/>
      <stop offset="1"/>
    </radialGradient>
  </defs>
</svg>
