<svg xmlns="http://www.w3.org/2000/svg" fill="none" viewBox="0 0 686 502">
  <path fill="url(#paint0_linear)" d="M351.941 398.766l-55.392-32.625 15.428-8.769c1.289.416 2.745.623 4.242.623 2.453 0 4.824-.581 6.612-1.62 2.038-1.164 3.202-2.91 3.202-4.738 0-1.87-1.123-3.533-3.202-4.696-1.788-1.039-4.076-1.58-6.529-1.58-2.454 0-4.824.582-6.612 1.621-2.038 1.164-3.202 2.909-3.202 4.738 0 1.455.707 2.784 1.996 3.907L290.02 366.1l55.35 32.541-83.421 45.965 42.459 25.892-49.819 27.678-44.248-25.559c1.123-1.039 1.788-2.327 1.788-3.699 0-1.87-1.122-3.532-3.202-4.696-1.788-1.039-4.075-1.579-6.529-1.579-2.453 0-4.824.582-6.612 1.621-2.038 1.163-3.202 2.909-3.202 4.737 0 1.871 1.123 3.533 3.202 4.738 1.788 1.039 4.076 1.58 6.529 1.58 1.788 0 3.493-.291 4.99-.873l-.083.124 47.325 27.388 56.39-31.377-42.417-25.85 83.421-45.965zm-40.588-48.958c1.289-.748 3.119-1.163 4.99-1.163 1.872 0 3.66.415 4.908 1.163.998.582 1.538 1.247 1.538 1.87 0 .624-.582 1.33-1.58 1.912-2.537 1.496-7.319 1.496-9.897 0-.998-.582-1.539-1.247-1.539-1.87s.582-1.33 1.58-1.912zM197.366 470.913c-.998-.582-1.538-1.247-1.538-1.87s.582-1.33 1.58-1.912c1.289-.748 3.077-1.163 4.99-1.163 1.872 0 3.66.415 4.907 1.163.998.582 1.539 1.247 1.539 1.87 0 .624-.582 1.33-1.58 1.912-2.578 1.455-7.361 1.496-9.898 0z"/>
  <path fill="url(#paint1_linear)" d="M394.899 355.543c1.248-1.08 1.913-2.41 1.913-3.823 0-1.829-1.164-3.574-3.202-4.738-1.788-1.039-4.159-1.621-6.612-1.621-2.454 0-4.783.582-6.529 1.58-2.038 1.205-3.202 2.867-3.202 4.696 0 1.828 1.164 3.574 3.202 4.738 1.788 1.039 4.158 1.62 6.612 1.62 1.539 0 3.036-.249 4.367-.664l45.702 26.057-84.253 47.836 58.47 35.367 55.434-32.874c1.414.499 2.994.748 4.658.748 2.453 0 4.782-.582 6.529-1.579 2.037-1.205 3.202-2.868 3.202-4.738 0-1.828-1.165-3.574-3.202-4.738-1.788-1.039-4.159-1.62-6.612-1.62-2.454 0-4.783.581-6.529 1.579-2.038 1.205-3.203 2.867-3.203 4.738 0 1.371.666 2.659 1.83 3.74l-52.024 30.962-52.024-31.502 84.378-47.919-48.905-27.845zm-12.767-1.953c-.998-.582-1.58-1.288-1.58-1.912 0-.623.582-1.33 1.539-1.87 1.247-.748 3.035-1.163 4.907-1.163 1.871 0 3.701.415 4.99 1.163.998.582 1.58 1.289 1.58 1.912s-.582 1.33-1.538 1.87c-2.537 1.496-7.319 1.496-9.898 0zm84.336 72.688c1.248-.748 3.036-1.164 4.908-1.164 1.871 0 3.701.416 4.99 1.164.998.582 1.58 1.288 1.58 1.912 0 .623-.582 1.33-1.539 1.87-2.536 1.455-7.319 1.455-9.897-.042-.998-.581-1.58-1.288-1.58-1.911 0-.582.582-1.289 1.538-1.829z"/>
  <path fill="url(#paint2_linear)" d="M481.19 463.89c0-1.372-.666-2.702-1.83-3.782l79.678-49.622-130.122-74.434c.874-.956 1.373-2.078 1.373-3.283 0-1.829-1.165-3.574-3.202-4.738-1.789-1.039-4.159-1.621-6.613-1.621-2.453 0-4.782.582-6.529 1.579-2.037 1.206-3.202 2.868-3.202 4.697 0 1.828 1.165 3.574 3.202 4.737 1.789 1.039 4.159 1.621 6.613 1.621a14.63 14.63 0 005.323-.997l126.712 72.563-76.518 47.669a14.308 14.308 0 00-4.7-.789c-2.453 0-4.782.581-6.528 1.579-2.038 1.205-3.203 2.867-3.203 4.738 0 1.828 1.165 3.574 3.203 4.737 1.788 1.039 4.158 1.621 6.612 1.621 2.453 0 4.782-.582 6.529-1.579 2.079-1.164 3.202-2.826 3.202-4.696zm-65.623-129.209c-.998-.582-1.58-1.289-1.58-1.912 0-.624.582-1.33 1.539-1.87 1.247-.748 3.035-1.164 4.907-1.164 1.871 0 3.701.416 4.99 1.164.998.581 1.58 1.288 1.58 1.911 0 .624-.582 1.33-1.538 1.871-2.537 1.496-7.319 1.496-9.898 0zm60.799 131.079c-2.537 1.455-7.319 1.455-9.898 0-.998-.582-1.58-1.288-1.58-1.912 0-.623.582-1.33 1.539-1.87 1.247-.748 3.036-1.164 4.907-1.164 1.539 0 3.036.291 4.2.832l.374.581.416-.249c.998.582 1.58 1.288 1.58 1.912 0 .623-.54 1.33-1.538 1.87z"/>
  <path fill="url(#paint3_linear)" d="M615.72 452.295c-1.788-1.039-4.159-1.621-6.612-1.621-2.454 0-4.783.582-6.529 1.579-2.038 1.205-3.202 2.868-3.202 4.738 0 1.122.457 2.244 1.289 3.2l-31.98 18.369-40.005-23.398 67.577-41.809-150.499-86.818c.79-.915 1.247-1.995 1.247-3.159 0-1.828-1.164-3.574-3.202-4.738-1.788-1.039-4.158-1.62-6.612-1.62-2.454 0-4.782.581-6.529 1.579-2.038 1.205-3.202 2.867-3.202 4.696 0 1.829 1.164 3.574 3.202 4.738 1.788 1.039 4.159 1.621 6.612 1.621 1.996 0 3.909-.416 5.531-1.081l147.131 84.865-67.536 41.809 46.285 27.097 34.974-20.115c1.622.707 3.535 1.122 5.573 1.122 2.453 0 4.782-.581 6.528-1.579 2.038-1.205 3.203-2.868 3.203-4.738 0-1.828-1.165-3.574-3.244-4.737zm-183.435-127.09c-.998-.582-1.58-1.288-1.58-1.912 0-.623.582-1.33 1.538-1.87 1.248-.748 3.036-1.164 4.907-1.164 1.872 0 3.701.416 4.991 1.164.998.582 1.58 1.288 1.58 1.912 0 .623-.582 1.33-1.539 1.87-2.536 1.496-7.319 1.496-9.897 0zM614.14 458.944c-1.248.748-3.036 1.164-4.907 1.164-1.872 0-3.702-.416-4.991-1.164-.998-.582-1.58-1.288-1.58-1.912 0-.623.582-1.33 1.539-1.87 1.247-.748 3.035-1.164 4.907-1.164 1.871 0 3.701.416 4.99 1.164.998.582 1.58 1.289 1.58 1.912s-.54 1.288-1.538 1.87z"/>
  <path fill="#BFC1CE" d="M682.756 221.513c-1.788-1.038-4.158-1.62-6.612-1.62-2.453 0-4.782.582-6.529 1.579l-58.844-32.666 17.508-10.099c1.747.956 3.992 1.455 6.321 1.455 2.453 0 4.782-.582 6.529-1.58 2.038-1.205 3.202-2.867 3.202-4.738 0-1.828-1.164-3.574-3.202-4.737-1.788-1.039-4.159-1.621-6.612-1.621-2.454 0-4.783.582-6.529 1.579-2.038 1.205-3.202 2.868-3.202 4.738 0 .914.291 1.829.873 2.66l-21.5 12.385 62.961 34.951a4.45 4.45 0 00-.665 2.369c0 1.829 1.164 3.574 3.202 4.738 1.788 1.039 4.158 1.621 6.612 1.621 2.453 0 4.782-.582 6.529-1.579 2.038-1.164 3.202-2.868 3.202-4.738 0-1.787-1.164-3.491-3.244-4.697zm-53.146-49.539c1.247-.748 3.035-1.163 4.907-1.163 1.871 0 3.701.415 4.99 1.163.998.582 1.58 1.289 1.58 1.912s-.582 1.33-1.538 1.87c-2.537 1.455-7.319 1.455-9.898 0-.998-.582-1.58-1.288-1.58-1.912 0-.623.541-1.329 1.539-1.87zm51.566 56.189c-1.248.748-3.036 1.164-4.907 1.164s-3.701-.416-4.99-1.164c-.998-.582-1.581-1.288-1.581-1.912 0-.249.125-.498.291-.789l.583.332.831-1.496c1.248-.665 2.953-1.081 4.741-1.081 1.872 0 3.701.416 4.99 1.164.999.582 1.581 1.288 1.581 1.912 0 .623-.541 1.288-1.539 1.87z"/>
  <path fill="url(#paint4_linear)" d="M255.961 318.597c2.038-1.164 3.202-2.909 3.202-4.738 0-1.87-1.123-3.532-3.202-4.696-1.788-1.039-4.076-1.579-6.529-1.579-2.454 0-4.824.582-6.612 1.621-2.038 1.163-3.202 2.909-3.202 4.737 0 1.039.374 2.037 1.081 2.91l-60.092 33.871-34.641-18.12-37.344 19.741-90.49-56.688c.914-.997 1.413-2.119 1.413-3.366 0-1.829-1.164-3.574-3.202-4.738-1.788-1.039-4.158-1.621-6.612-1.621-2.453 0-4.782.582-6.529 1.579C1.164 288.716 0 290.378 0 292.248c0 1.829 1.164 3.574 3.202 4.738 1.788 1.039 4.159 1.621 6.612 1.621 2.33 0 4.533-.54 6.28-1.455l-.5.79 93.028 58.225 37.469-19.824 34.558 18.037 62.878-35.409-.042-.041c1.663.789 3.701 1.246 5.864 1.246 2.453 0 4.782-.54 6.612-1.579zm-241.24-24.395c-2.536 1.454-7.319 1.454-9.897 0-.998-.582-1.58-1.289-1.58-1.912 0-.624.582-1.33 1.538-1.87 1.248-.748 3.036-1.164 4.908-1.164 1.87 0 3.7.416 4.99 1.164.998.581 1.58 1.288 1.58 1.911.042.624-.54 1.289-1.539 1.871zm228.14 19.699c0-.624.582-1.33 1.581-1.912 1.289-.748 3.118-1.164 4.99-1.164 1.871 0 3.659.416 4.907 1.164.998.582 1.539 1.247 1.539 1.87 0 .624-.583 1.33-1.581 1.912-2.536 1.496-7.319 1.496-9.897 0-.957-.54-1.539-1.247-1.539-1.87z"/>
  <path fill="url(#paint5_linear)" d="M306.113 346.982c2.038-1.164 3.202-2.909 3.202-4.738 0-1.87-1.122-3.532-3.202-4.696-1.788-1.039-4.075-1.579-6.529-1.579-2.453 0-4.824.582-6.612 1.621-2.037 1.163-3.202 2.909-3.202 4.737 0 1.497.749 2.868 2.079 3.949l-36.346 20.572 51.9 29.881-21.376 12.51-20.751-12.344c.957-.997 1.456-2.119 1.456-3.366 0-1.829-1.165-3.574-3.203-4.738-1.788-1.039-4.158-1.621-6.612-1.621-2.453 0-4.782.582-6.529 1.58-2.037 1.205-3.202 2.867-3.202 4.737 0 1.829 1.165 3.575 3.202 4.738 1.788 1.039 4.159 1.621 6.612 1.621 1.872 0 3.66-.332 5.199-.956l23.787 14.13 27.904-16.332-51.816-29.84 32.728-18.536-.333-.623c1.497.581 3.202.872 4.991.872 2.495 0 4.865-.54 6.653-1.579zm-54.061 48.417c-.998-.582-1.581-1.288-1.581-1.912 0-.623.583-1.33 1.539-1.87 1.248-.748 3.036-1.163 4.907-1.163 1.872 0 3.701.415 4.991 1.163.998.582 1.58 1.289 1.58 1.912s-.582 1.33-1.539 1.87c-2.578 1.496-7.361 1.455-9.897 0zm41.003-53.113c0-.624.583-1.33 1.581-1.912 1.289-.748 3.119-1.164 4.99-1.164s3.659.416 4.907 1.164c.998.582 1.539 1.247 1.539 1.87 0 .624-.582 1.33-1.581 1.912-2.536 1.496-7.319 1.496-9.897 0-.998-.582-1.539-1.247-1.539-1.87z"/>
  <path fill="url(#paint6_linear)" d="M504.062 279.157c-2.454 0-4.782.582-6.529 1.579-2.038 1.205-3.202 2.868-3.202 4.696 0 1.829 1.164 3.574 3.202 4.738 1.788 1.039 4.159 1.621 6.612 1.621 2.454 0 4.783-.582 6.529-1.579 2.038-1.206 3.202-2.868 3.202-4.738 0-1.081-.416-2.161-1.206-3.076l32.146-20.239-30.815-17.788 27.779-16.79c1.581.665 3.494 1.039 5.448 1.039 2.454 0 4.782-.582 6.529-1.579 2.038-1.205 3.202-2.868 3.202-4.738 0-1.829-1.164-3.574-3.202-4.738-1.788-1.039-4.159-1.621-6.612-1.621-2.454 0-4.782.582-6.529 1.58-2.038 1.205-3.202 2.867-3.202 4.737 0 1.206.499 2.328 1.372 3.284l-31.189 18.868 30.898 17.829-28.653 18.037c-1.663-.707-3.659-1.122-5.78-1.122zm38.176-58.766c1.247-.748 3.036-1.163 4.907-1.163s3.701.415 4.99 1.163c.998.582 1.581 1.289 1.581 1.912s-.583 1.33-1.539 1.87c-2.537 1.455-7.319 1.455-9.898 0-.998-.582-1.58-1.288-1.58-1.912-.041-.623.541-1.288 1.539-1.87zm-33.186 66.995c-2.536 1.454-7.319 1.454-9.897 0-.998-.582-1.58-1.289-1.58-1.912 0-.624.582-1.33 1.538-1.87 1.248-.748 3.036-1.164 4.907-1.164 1.872 0 3.702.416 4.991 1.164.998.581 1.58 1.288 1.58 1.911.042.624-.541 1.33-1.539 1.871z"/>
  <path fill="url(#paint7_linear)" d="M460.48 309.121c-1.788-1.039-4.159-1.621-6.612-1.621-2.454 0-4.783.582-6.529 1.58-2.038 1.205-3.202 2.867-3.202 4.696 0 1.829 1.164 3.574 3.202 4.738 1.788 1.039 4.158 1.621 6.612 1.621 2.37 0 4.616-.541 6.363-1.497l110.535 63.421.831.498 38.634-24.187a14.17 14.17 0 005.905 1.288c2.454 0 4.782-.582 6.529-1.579 2.038-1.206 3.202-2.868 3.202-4.738 0-1.829-1.164-3.574-3.202-4.738-1.788-1.039-4.159-1.621-6.612-1.621-2.454 0-4.783.582-6.529 1.58-2.038 1.205-3.202 2.867-3.202 4.737 0 1.081.416 2.078 1.123 2.993l-35.889 22.483-108.747-62.422c.499-.79.749-1.621.749-2.494.083-1.787-1.082-3.532-3.161-4.738zm150.79 42.308c1.248-.748 3.036-1.164 4.907-1.164 1.872 0 3.701.416 4.991 1.164.998.582 1.58 1.289 1.58 1.912s-.582 1.33-1.539 1.87c-2.536 1.455-7.319 1.455-9.897-.041-.998-.582-1.58-1.289-1.58-1.912 0-.582.582-1.247 1.538-1.829zm-162.268-35.658c-.998-.582-1.58-1.288-1.58-1.912 0-.623.582-1.33 1.539-1.87 1.247-.748 3.036-1.164 4.907-1.164s3.701.416 4.99 1.164c.998.582 1.58 1.288 1.58 1.912 0 .623-.582 1.33-1.538 1.87-2.537 1.496-7.319 1.454-9.898 0z"/>
  <path fill="#BFC1CE" d="M436.984 423.452c2.454 0 4.782-.582 6.529-1.579 2.038-1.205 3.202-2.868 3.202-4.738 0-1.829-1.164-3.574-3.202-4.738-1.788-1.039-4.159-1.621-6.612-1.621-2.454 0-4.783.582-6.529 1.58-2.038 1.205-3.202 2.867-3.202 4.737 0 .873.291 1.746.79 2.536l-14.43 8.644.291.457c-1.789-.997-4.076-1.538-6.488-1.538-2.453 0-4.782.582-6.529 1.58-2.037 1.205-3.202 2.867-3.202 4.738 0 1.828 1.165 3.574 3.202 4.737 1.789 1.039 4.159 1.621 6.612 1.621 2.454 0 4.783-.582 6.529-1.579 2.038-1.205 3.203-2.868 3.203-4.738 0-1.039-.416-2.078-1.123-2.992l14.472-8.686c1.788 1.039 4.075 1.579 6.487 1.579zm-5.032-8.229c1.248-.748 3.036-1.163 4.907-1.163 1.872 0 3.701.415 4.991 1.163.998.582 1.58 1.289 1.58 1.912s-.582 1.33-1.539 1.87c-2.537 1.455-7.319 1.455-9.897 0-.998-.582-1.581-1.288-1.581-1.912 0-.623.541-1.329 1.539-1.87zm-19.587 20.24c-2.537 1.454-7.319 1.454-9.897-.042-.998-.582-1.581-1.288-1.581-1.911 0-.624.583-1.33 1.539-1.871 1.248-.748 3.036-1.163 4.907-1.163 1.872 0 3.701.415 4.991 1.163.998.582 1.58 1.289 1.58 1.912 0 .665-.582 1.33-1.539 1.912z"/>
  <path fill="url(#paint8_linear)" d="M379.013 483.589c-1.788-1.039-4.158-1.621-6.612-1.621-2.037 0-3.95.416-5.572 1.122l-61.506-35.575 91.905-52.074-37.635-22.401c.748-.914 1.123-1.912 1.123-3.034 0-1.829-1.165-3.574-3.202-4.738-1.789-1.039-4.159-1.621-6.613-1.621-2.453 0-4.782.582-6.529 1.58-2.037 1.205-3.202 2.867-3.202 4.738 0 1.828 1.165 3.574 3.202 4.737 1.789 1.039 4.159 1.621 6.613 1.621 2.079 0 4.075-.415 5.697-1.205l33.975 20.24-91.987 52.115 65.165 37.695c-.791.914-1.206 1.995-1.206 3.117 0 1.829 1.164 3.574 3.202 4.738 1.788 1.039 4.158 1.621 6.612 1.621 2.453 0 4.782-.582 6.529-1.58 2.037-1.205 3.202-2.867 3.202-4.737.041-1.829-1.123-3.574-3.161-4.738zm-32.977-111.671c-.998-.582-1.58-1.289-1.58-1.912s.582-1.33 1.538-1.87c1.248-.748 3.036-1.164 4.907-1.164 1.872 0 3.701.416 4.991 1.164.998.582 1.58 1.288 1.58 1.912 0 .623-.582 1.33-1.539 1.87-2.536 1.454-7.319 1.454-9.897 0zm31.397 118.279c-2.537 1.454-7.319 1.454-9.897 0-.998-.582-1.581-1.288-1.581-1.912 0-.623.583-1.33 1.539-1.87 1.248-.748 3.036-1.164 4.907-1.164 1.872 0 3.701.416 4.991 1.164.998.582 1.58 1.288 1.58 1.912 0 .623-.582 1.33-1.539 1.87z"/>
  <path fill="url(#paint9_linear)" d="M236.748 419.587c0 1.829 1.165 3.574 3.202 4.738 1.788 1.039 4.159 1.621 6.612 1.621 2.454 0 4.783-.582 6.529-1.58 2.038-1.205 3.203-2.867 3.203-4.737 0-1.829-1.165-3.574-3.203-4.738-1.788-1.039-4.158-1.621-6.612-1.621-2.329 0-4.574.54-6.321 1.455l-45.952-26.266 83.338-49.539-.707-1.206c1.705.832 3.784 1.33 5.988 1.33 2.454 0 4.824-.582 6.612-1.621 2.038-1.163 3.203-2.909 3.203-4.737 0-1.871-1.123-3.533-3.203-4.697-1.788-1.039-4.075-1.579-6.529-1.579-2.453 0-4.823.582-6.612 1.621-2.037 1.164-3.202 2.909-3.202 4.738 0 1.454.707 2.784 1.996 3.865l-87.413 51.95 49.82 28.468c-.499.79-.749 1.621-.749 2.535zm41.17-88.688c1.289-.748 3.119-1.164 4.99-1.164 1.872 0 3.66.416 4.908 1.164.998.581 1.538 1.246 1.538 1.87 0 .623-.582 1.33-1.58 1.912-2.537 1.496-7.319 1.496-9.897 0-.998-.582-1.539-1.247-1.539-1.871 0-.623.54-1.33 1.58-1.911zm-31.48 85.654c1.871 0 3.701.416 4.99 1.164.998.582 1.58 1.288 1.58 1.912 0 .623-.582 1.33-1.538 1.87-2.537 1.454-7.32 1.454-9.898 0-.998-.582-1.58-1.289-1.58-1.912s.582-1.33 1.539-1.87c1.289-.748 3.077-1.164 4.907-1.164z"/>
  <path fill="url(#paint10_linear)" d="M490.047 385.425c-1.788-1.039-4.158-1.621-6.612-1.621-2.245 0-4.408.499-6.113 1.372l-65.04-39.732c.832-.955 1.248-2.036 1.248-3.158 0-1.829-1.165-3.574-3.203-4.738-1.788-1.039-4.158-1.621-6.612-1.621-2.453 0-4.782.582-6.529 1.58-2.037 1.205-3.202 2.867-3.202 4.696 0 1.828 1.165 3.574 3.202 4.738 1.789 1.039 4.159 1.62 6.612 1.62 1.997 0 3.91-.374 5.49-1.08l65.29 39.897c-.583.831-.915 1.746-.915 2.743 0 1.829 1.164 3.574 3.202 4.738 1.788 1.039 4.158 1.621 6.612 1.621 2.453 0 4.782-.582 6.529-1.579 2.038-1.206 3.202-2.868 3.202-4.738.042-1.829-1.123-3.574-3.161-4.738zm-91.197-41.269c-.998-.582-1.581-1.288-1.581-1.912 0-.623.583-1.33 1.539-1.87 1.248-.748 3.036-1.164 4.907-1.164 1.872 0 3.701.416 4.991 1.164.998.582 1.58 1.288 1.58 1.912 0 .623-.582 1.33-1.539 1.87-2.537 1.455-7.319 1.455-9.897 0zm89.617 47.918c-2.537 1.455-7.319 1.455-9.897-.041-.998-.582-1.58-1.288-1.58-1.912 0-.623.582-1.33 1.538-1.87 1.248-.748 3.036-1.164 4.907-1.164 1.872 0 3.701.416 4.991 1.164.998.582 1.58 1.288 1.58 1.912 0 .665-.582 1.33-1.539 1.911z"/>
  <path fill="url(#paint11_linear)" d="M122.928 288.55c-1.788-1.039-4.159-1.621-6.612-1.621-2.454 0-4.783.582-6.529 1.579-2.038 1.205-3.203 2.868-3.203 4.738 0 1.828 1.165 3.574 3.203 4.738 1.788 1.039 4.158 1.62 6.612 1.62 2.037 0 3.95-.415 5.531-1.122l64.499 35.742 41.752-23.98-.124-.25c1.372.458 2.911.707 4.491.707 2.454 0 4.824-.582 6.612-1.621 2.038-1.164 3.202-2.909 3.202-4.738 0-1.87-1.123-3.532-3.202-4.696-1.788-1.039-4.075-1.579-6.529-1.579-2.453 0-4.824.582-6.612 1.621-2.038 1.163-3.202 2.909-3.202 4.737 0 1.496.748 2.868 2.079 3.949l-38.508 22.109-61.506-34.079c.79-.914 1.206-1.995 1.206-3.117.042-1.828-1.123-3.574-3.16-4.737zm104.796 13.964c1.289-.748 3.119-1.164 4.99-1.164 1.872 0 3.66.416 4.907 1.164.999.581 1.539 1.246 1.539 1.87 0 .623-.582 1.33-1.58 1.912-2.537 1.496-7.319 1.496-9.898 0-.998-.582-1.538-1.247-1.538-1.871 0-.623.582-1.33 1.58-1.911zm-116.274-7.356c-.998-.582-1.58-1.289-1.58-1.912 0-.624.582-1.33 1.538-1.87 1.248-.748 3.036-1.164 4.908-1.164 1.871 0 3.701.416 4.99 1.164.998.581 1.58 1.288 1.58 1.911 0 .457-.333.998-.915 1.455l-.041-.042-.042.083c-.166.125-.333.25-.541.375-2.578 1.496-7.36 1.496-9.897 0z"/>
  <path fill="#BFC1CE" d="M325.284 90.725c0 1.829 1.165 3.574 3.203 4.738 1.788 1.039 4.158 1.62 6.612 1.62 2.453 0 4.782-.581 6.529-1.579 2.037-1.205 3.202-2.867 3.202-4.738 0-1.828-1.165-3.574-3.202-4.737-1.788-1.04-4.159-1.621-6.612-1.621-2.412 0-4.7.54-6.488 1.538L273.676 55.69l47.076-28.385 104.879 57.893-42.085 26.182c-.125-.083-.291-.166-.416-.249-1.788-1.039-4.158-1.621-6.612-1.621-2.453 0-4.782.582-6.529 1.579-2.037 1.205-3.202 2.868-3.202 4.738 0 1.829 1.165 3.574 3.202 4.738 1.788 1.039 4.159 1.621 6.612 1.621 2.454 0 4.783-.582 6.529-1.58 2.038-1.205 3.202-2.867 3.202-4.737 0-.707-.166-1.413-.499-2.078l46.244-28.76-110.535-61.01-.832-.457-53.563 32.292 58.844 32.458c-.457.749-.707 1.538-.707 2.411zm56.225 27.014c-1.248.748-3.036 1.163-4.908 1.163-1.871 0-3.701-.415-4.99-1.163-.998-.582-1.58-1.289-1.58-1.912s.582-1.33 1.538-1.87c1.248-.748 3.036-1.164 4.908-1.164 1.871 0 3.701.416 4.99 1.164.998.582 1.58 1.288 1.58 1.912.042.623-.54 1.33-1.538 1.87zm-41.503-28.884c.998.582 1.58 1.288 1.58 1.911 0 .624-.582 1.33-1.539 1.87-2.536 1.455-7.319 1.455-9.897-.04-.998-.583-1.58-1.29-1.58-1.913 0-.249.125-.54.332-.83l.25.124.457-.831c.167-.125.333-.25.541-.374 1.248-.748 3.036-1.164 4.907-1.164 1.83.083 3.66.499 4.949 1.247z"/>
  <path fill="url(#paint12_linear)" d="M487.885 81.332l-65.29 40.521 56.807 31.211-56.682 32.957 1.663 2.826 61.672-35.866-56.972-31.294 62.046-38.484-.042-.042c1.456.499 3.078.79 4.783.79 2.453 0 4.782-.582 6.529-1.58 2.037-1.205 3.202-2.867 3.202-4.737 0-1.83-1.165-3.575-3.202-4.738-1.789-1.04-4.159-1.621-6.613-1.621-2.453 0-4.782.582-6.529 1.58-2.037 1.204-3.202 2.867-3.202 4.737-.041 1.33.624 2.66 1.83 3.74zm2.953-5.693c1.247-.748 3.035-1.164 4.907-1.164 1.871 0 3.701.416 4.99 1.164.998.582 1.58 1.288 1.58 1.911 0 .624-.582 1.33-1.538 1.87-2.537 1.455-7.319 1.455-9.898 0-.998-.581-1.58-1.288-1.58-1.911 0-.582.541-1.288 1.539-1.87z"/>
  <path fill="#BFC1CE" d="M71.736 406.371l65.58-38.318c1.705.831 3.743 1.288 5.947 1.288 2.454 0 4.783-.582 6.529-1.579 2.038-1.205 3.202-2.868 3.202-4.738 0-1.828-1.164-3.574-3.202-4.738-1.788-1.039-4.158-1.62-6.612-1.62-2.454 0-4.782.581-6.529 1.579-2.038 1.205-3.202 2.867-3.202 4.738 0 1.039.374 2.036 1.081 2.95l-62.836 36.656-35.015-20.24a4.11 4.11 0 00.374-1.745c0-1.829-1.164-3.574-3.202-4.738-1.788-1.039-4.159-1.621-6.612-1.621-2.454 0-4.783.582-6.53 1.58-2.037 1.205-3.201 2.867-3.201 4.737 0 1.829 1.164 3.575 3.202 4.738 1.788 1.039 4.158 1.621 6.612 1.621 2.454 0 4.782-.582 6.529-1.579.25-.125.457-.291.665-.416l37.22 21.445zm64.957-43.388c0-.624.582-1.33 1.538-1.871 1.248-.748 3.036-1.163 4.907-1.163 1.872 0 3.702.415 4.991 1.163.998.582 1.58 1.289 1.58 1.912 0 .624-.582 1.33-1.539 1.87-2.536 1.455-7.319 1.455-9.897 0-.166-.083-.291-.207-.416-.291l-.333-.54-.166.125c-.416-.374-.665-.831-.665-1.205zm-114.32 19.491c-.998-.582-1.58-1.288-1.58-1.912 0-.623.582-1.33 1.539-1.87 1.247-.748 3.035-1.163 4.907-1.163 1.871 0 3.7.415 4.99 1.163.998.582 1.58 1.289 1.58 1.912s-.582 1.33-1.538 1.87c-2.579 1.496-7.361 1.496-9.898 0z"/>
  <path fill="url(#paint13_linear)" d="M260.535 329.028l-.374-.623c1.663.79 3.701 1.247 5.864 1.247 2.453 0 4.824-.582 6.612-1.621 2.037-1.164 3.202-2.909 3.202-4.738 0-1.87-1.123-3.532-3.202-4.696-1.788-1.039-4.076-1.579-6.529-1.579-2.454 0-4.824.581-6.612 1.62-2.038 1.164-3.202 2.91-3.202 4.738 0 1.289.54 2.452 1.538 3.45L78.639 429.354c-.125-.084-.208-.167-.333-.208-1.788-1.039-4.159-1.621-6.612-1.621-2.454 0-4.782.582-6.529 1.579-2.038 1.205-3.202 2.868-3.202 4.738 0 1.829 1.164 3.574 3.202 4.738 1.788 1.039 4.159 1.621 6.612 1.621 2.454 0 4.782-.582 6.53-1.58 2.037-1.205 3.201-2.867 3.201-4.737 0-.707-.208-1.455-.54-2.12l179.567-102.736zm.666-7.605c1.289-.748 3.119-1.164 4.99-1.164s3.66.416 4.907 1.164c.998.582 1.539 1.247 1.539 1.87 0 .624-.582 1.33-1.581 1.912-2.536 1.496-7.319 1.496-9.897 0-.998-.582-1.539-1.247-1.539-1.87-.041-.624.541-1.33 1.581-1.912zM76.726 435.754c-2.537 1.454-7.32 1.454-9.898 0-.998-.582-1.58-1.289-1.58-1.912s.582-1.33 1.539-1.87c1.247-.748 3.036-1.164 4.907-1.164s3.701.416 4.99 1.164c.998.582 1.58 1.288 1.58 1.912 0 .623-.582 1.288-1.538 1.87z"/>
  <path fill="url(#paint14_linear)" d="M526.851 320.343l41.586-24.77c1.497.54 3.202.831 4.949.831 2.453 0 4.782-.582 6.529-1.579 2.037-1.205 3.202-2.868 3.202-4.738 0-1.828-1.165-3.574-3.202-4.738-1.789-1.039-4.159-1.62-6.613-1.62-2.453 0-4.782.581-6.529 1.579-2.037 1.205-3.202 2.867-3.202 4.738 0 1.33.624 2.576 1.705 3.615l-38.383 22.858-30.774-18.619c.707-.872 1.081-1.87 1.081-2.95 0-1.829-1.164-3.574-3.202-4.738-1.788-1.039-4.158-1.621-6.612-1.621-2.454 0-4.782.582-6.529 1.579-2.038 1.206-3.202 2.868-3.202 4.697 0 1.828 1.164 3.574 3.202 4.737 1.788 1.039 4.159 1.621 6.612 1.621 2.454 0 4.783-.582 6.529-1.579.083-.042.125-.083.208-.125l-.457.748 33.102 20.074zm41.503-32.168c1.247-.748 3.035-1.163 4.907-1.163 1.871 0 3.701.415 4.99 1.163.998.582 1.58 1.289 1.58 1.912 0 .624-.582 1.33-1.538 1.87-2.537 1.455-7.319 1.455-9.898 0-.998-.581-1.58-1.288-1.58-1.911 0-.624.582-1.289 1.539-1.871zm-76.019 8.686c-2.537 1.455-7.319 1.455-9.898 0-.998-.581-1.58-1.288-1.58-1.911 0-.624.582-1.33 1.539-1.871 1.247-.748 3.036-1.163 4.907-1.163s3.701.415 4.99 1.163c.998.582 1.58 1.289 1.58 1.912 0 .624-.54 1.289-1.538 1.87z"/>
  <path fill="#BFC1CE" d="M492.335 116.492c.79-.914 1.247-1.995 1.247-3.117 0-1.829-1.164-3.574-3.202-4.738-1.788-1.039-4.158-1.621-6.612-1.621-2.453 0-4.782.582-6.529 1.58-2.038 1.163-3.202 2.867-3.202 4.696 0 1.829 1.164 3.574 3.202 4.738 1.788 1.039 4.159 1.621 6.612 1.621 2.038 0 3.951-.416 5.573-1.123l29.276 17.331 53.48-32.334c.083.042.124.084.208.125 1.788 1.039 4.158 1.621 6.612 1.621 2.453 0 4.782-.582 6.529-1.579 2.037-1.206 3.202-2.868 3.202-4.738 0-1.829-1.165-3.574-3.202-4.738-1.789-1.039-4.159-1.62-6.613-1.62-2.453 0-4.782.581-6.528 1.578-2.038 1.164-3.203 2.868-3.203 4.697 0 .79.208 1.537.624 2.244L518.7 131.994l-26.365-15.502zm-13.474-1.247c-.998-.582-1.58-1.288-1.58-1.911 0-.624.582-1.33 1.538-1.871 1.248-.748 3.036-1.163 4.907-1.163 1.872 0 3.702.415 4.991 1.163.998.582 1.58 1.289 1.58 1.912 0 .457-.291.956-.873 1.413l-.25-.166-.332.54c-.042.042-.084.042-.125.083-2.537 1.496-7.319 1.455-9.856 0zm95.065-18.203c1.248-.748 3.036-1.164 4.907-1.164 1.872 0 3.701.416 4.991 1.164.998.582 1.58 1.288 1.58 1.912 0 .623-.582 1.33-1.539 1.87-2.537 1.455-7.319 1.455-9.897 0-.998-.582-1.58-1.288-1.58-1.912 0-.623.54-1.33 1.538-1.87z"/>
  <path fill="url(#paint15_linear)" d="M500.569 173.928l58.885-35.783c1.456.54 3.119.831 4.866.831 2.453 0 4.782-.582 6.529-1.579 2.038-1.205 3.202-2.868 3.202-4.738 0-1.829-1.164-3.574-3.202-4.738-1.788-1.039-4.159-1.621-6.612-1.621-2.454 0-4.783.582-6.529 1.58-2.038 1.205-3.202 2.867-3.202 4.737 0 1.33.623 2.619 1.746 3.658l-62.171 37.819 20.253 11.096-56.682 32.957 1.664 2.826 61.671-35.866-20.418-11.179zm58.719-43.181c1.248-.748 3.036-1.163 4.907-1.163s3.701.415 4.99 1.163c.998.582 1.581 1.289 1.581 1.912s-.583 1.33-1.539 1.87c-2.537 1.455-7.319 1.455-9.897 0-.998-.582-1.581-1.288-1.581-1.912 0-.623.541-1.33 1.539-1.87z"/>
  <path fill="url(#paint16_linear)" d="M363.46 207.632l61.672-35.866-95.232-51.825 54.811-34.162-42.085-22.359a4.471 4.471 0 00.582-2.203c0-1.828-1.164-3.574-3.202-4.737-1.788-1.04-4.159-1.621-6.612-1.621-2.454 0-4.783.582-6.529 1.58-2.038 1.204-3.202 2.867-3.202 4.737 0 1.829 1.164 3.574 3.202 4.738 1.788 1.039 4.158 1.62 6.612 1.62 2.453 0 4.782-.581 6.529-1.579.083-.041.125-.083.208-.124l37.968 20.198-54.769 34.079 95.024 51.742-56.64 32.998 1.663 2.784zM328.487 63.088c-.998-.582-1.581-1.289-1.581-1.912s.582-1.33 1.539-1.87c1.248-.748 3.036-1.164 4.907-1.164s3.701.416 4.99 1.164c.998.582 1.581 1.288 1.581 1.912 0 .623-.583 1.33-1.539 1.87-2.537 1.496-7.319 1.454-9.897 0z"/>
  <path fill="url(#paint17_linear)" d="M34.017 207.882c1.788 1.039 4.076 1.579 6.53 1.579 1.995 0 3.867-.374 5.489-1.08l84.46 49.497-20.044 11.762 75.354 44.593 24.66-14.005c1.58.665 3.452 1.039 5.406 1.039 2.454 0 4.824-.582 6.612-1.621 2.038-1.164 3.202-2.909 3.202-4.738 0-1.87-1.122-3.532-3.202-4.696-1.788-1.039-4.075-1.579-6.529-1.579-2.453 0-4.824.581-6.612 1.62-2.038 1.164-3.202 2.91-3.202 4.738 0 1.164.457 2.286 1.331 3.242l-21.625 12.26-68.949-40.812 20.044-11.761-87.912-51.534c.873-.956 1.33-2.078 1.33-3.283 0-1.871-1.122-3.533-3.202-4.697-1.788-1.039-4.075-1.579-6.529-1.579-2.453 0-4.824.582-6.612 1.621-2.038 1.164-3.202 2.909-3.202 4.738.042 1.828 1.165 3.532 3.202 4.696zm176.99 85.156c1.289-.748 3.119-1.164 4.99-1.164s3.659.416 4.907 1.164c.998.582 1.539 1.247 1.539 1.87 0 .624-.583 1.33-1.581 1.912-2.536 1.496-7.319 1.496-9.897 0-.998-.582-1.539-1.247-1.539-1.87 0-.624.582-1.33 1.581-1.912zM35.722 201.232c1.29-.748 3.078-1.163 4.99-1.163 1.872 0 3.66.415 4.908 1.163.998.582 1.538 1.247 1.538 1.871 0 .498-.374 1.039-1.04 1.537v.042a6.081 6.081 0 01-.54.374c-2.537 1.496-7.36 1.496-9.897 0-.998-.582-1.539-1.247-1.539-1.87-.042-.665.54-1.372 1.58-1.954z"/>
  <path fill="url(#paint18_linear)" d="M101.137 217.898c1.788 1.039 4.075 1.579 6.529 1.579 2.37 0 4.657-.54 6.404-1.496l70.987 43.388-29.276 17.455 28.777 16.707 8.483-5.112c1.706.873 3.868 1.372 6.114 1.372 2.453 0 4.824-.582 6.612-1.621 2.037-1.164 3.202-2.909 3.202-4.738 0-1.87-1.123-3.532-3.202-4.696-1.788-1.039-4.076-1.579-6.529-1.579-2.454 0-4.824.582-6.612 1.621-2.038 1.163-3.202 2.909-3.202 4.737 0 .956.332 1.912.914 2.743l-5.822 3.491-22.29-12.966 29.152-17.372-74.688-45.674c.541-.79.832-1.704.832-2.577 0-1.87-1.123-3.533-3.203-4.738-1.788-1.039-4.075-1.579-6.528-1.579-2.454 0-4.824.582-6.613 1.621-2.037 1.163-3.202 2.909-3.202 4.737 0 1.871 1.123 3.533 3.161 4.697zm93.152 65.706c1.289-.748 3.119-1.164 4.99-1.164 1.872 0 3.66.416 4.907 1.164.999.582 1.539 1.246 1.539 1.87 0 .623-.582 1.33-1.58 1.912-2.537 1.496-7.319 1.496-9.898 0-.998-.582-1.538-1.247-1.538-1.871 0-.665.582-1.329 1.58-1.911zM102.8 211.248c1.289-.748 3.119-1.164 4.991-1.164 1.871 0 3.659.416 4.907 1.164.998.582 1.538 1.247 1.538 1.87 0 .624-.582 1.33-1.58 1.912-2.578 1.496-7.319 1.496-9.897.042-.998-.582-1.539-1.247-1.539-1.871 0-.665.582-1.371 1.58-1.953z"/>
  <path fill="url(#paint19_linear)" d="M213.377 59.68c1.788 1.039 4.075 1.58 6.529 1.58 1.497 0 2.911-.25 4.2-.624l55.351 31.294-50.069 27.804 116.648 68.573 1.663-2.826-111.741-65.664 50.194-27.845-58.511-33.082c1.331-1.122 2.121-2.493 2.121-3.99 0-1.87-1.123-3.532-3.202-4.696-1.789-1.039-4.076-1.579-6.529-1.579-2.454 0-4.824.582-6.612 1.62-2.038 1.165-3.203 2.91-3.203 4.739-.041 1.828 1.082 3.532 3.161 4.696zm1.663-6.65c1.29-.748 3.119-1.163 4.991-1.163 1.871 0 3.659.415 4.907 1.163.998.582 1.538 1.247 1.538 1.87 0 .624-.582 1.33-1.58 1.912-2.536 1.496-7.319 1.496-9.897 0-.998-.582-1.539-1.246-1.539-1.87 0-.623.582-1.33 1.58-1.912z"/>
  <path fill="url(#paint20_linear)" d="M86.54 152.898c1.788 1.039 4.075 1.579 6.53 1.579 1.829 0 3.617-.332 5.156-.914l49.695 29.175-18.298 10.473 109.496 64.044 1.663-2.826-104.672-61.218 18.298-10.431-53.105-31.17c.998-.998 1.58-2.244 1.58-3.491 0-1.87-1.122-3.533-3.202-4.738-1.788-1.039-4.075-1.579-6.529-1.579-2.453 0-4.824.582-6.612 1.621-2.038 1.163-3.202 2.909-3.202 4.737 0 1.871 1.164 3.533 3.202 4.738zm1.664-6.649c1.289-.748 3.077-1.164 4.99-1.164 1.871 0 3.66.416 4.907 1.164.998.581 1.539 1.246 1.539 1.87 0 .623-.582 1.33-1.58 1.912-2.537 1.496-7.32 1.496-9.898 0-.998-.582-1.539-1.247-1.539-1.871 0-.623.582-1.33 1.58-1.911z"/>
  <path fill="#BFC1CE" d="M155.822 86.86c1.788 1.039 4.076 1.579 6.529 1.579 2.454 0 4.782-.582 6.571-1.58l28.86 16.916.832-1.414.79 1.414 21.708-12.178c1.414.458 2.952.749 4.574.749 2.454 0 4.824-.582 6.612-1.621 2.038-1.164 3.203-2.91 3.203-4.738 0-1.87-1.123-3.533-3.203-4.738-1.788-1.039-4.075-1.58-6.528-1.58-2.454 0-4.824.583-6.613 1.622-2.037 1.163-3.202 2.909-3.202 4.737 0 1.372.624 2.66 1.788 3.7l-19.129 10.722-27.197-15.96c.457-.747.748-1.578.748-2.451 0-1.87-1.122-3.533-3.202-4.738-1.788-1.039-4.075-1.58-6.529-1.58-2.453 0-4.824.582-6.612 1.621-2.038 1.164-3.202 2.91-3.202 4.738.042 1.912 1.164 3.575 3.202 4.78zm65.04-2.743c1.29-.748 3.078-1.164 4.991-1.164 1.871 0 3.659.416 4.907 1.164.998.582 1.538 1.246 1.538 1.87 0 .623-.582 1.33-1.58 1.912-2.537 1.496-7.319 1.496-9.897 0-.998-.582-1.539-1.247-1.539-1.87 0-.624.582-1.33 1.58-1.912zm-63.335-3.907c1.289-.748 3.077-1.163 4.99-1.163 1.872 0 3.66.415 4.908 1.163.998.582 1.538 1.247 1.538 1.87 0 .624-.582 1.33-1.58 1.912-2.537 1.455-7.319 1.496-9.897.042-.999-.582-1.539-1.247-1.539-1.87-.042-.665.54-1.372 1.58-1.954z"/>
  <path fill="url(#paint21_linear)" d="M560.369 352.717l-81.674-44.593c1.122-1.039 1.746-2.286 1.746-3.657 0-1.829-1.164-3.575-3.202-4.738-1.788-1.039-4.159-1.621-6.612-1.621-2.454 0-4.782.582-6.529 1.579-2.038 1.205-3.202 2.868-3.202 4.696 0 1.829 1.164 3.575 3.202 4.738 1.788 1.039 4.159 1.621 6.612 1.621 2.454 0 4.782-.582 6.529-1.579 0 0 .042 0 .042-.042l-.832 1.496 83.92 45.841 57.43-33.165 49.155 27.43-60.217 36.946c-1.788-.997-4.075-1.538-6.487-1.538-2.454 0-4.782.582-6.529 1.58-2.038 1.205-3.202 2.867-3.202 4.737 0 1.829 1.164 3.575 3.202 4.738 1.788 1.039 4.159 1.621 6.612 1.621 2.454 0 4.783-.582 6.529-1.579 2.038-1.164 3.202-2.868 3.202-4.696 0-.873-.291-1.746-.79-2.536l64.167-39.315-55.642-31.045-57.43 33.081zm-84.752-46.38c-2.537 1.454-7.319 1.454-9.897 0-.998-.582-1.58-1.289-1.58-1.912s.582-1.33 1.538-1.87c1.248-.748 3.036-1.164 4.907-1.164 1.872 0 3.701.416 4.991 1.164.998.582 1.58 1.288 1.58 1.912 0 .581-.541 1.288-1.539 1.87zm131.204 86.111c0 .624-.583 1.33-1.539 1.871-1.248.748-3.036 1.163-4.907 1.163-1.872 0-3.701-.415-4.991-1.163-.998-.582-1.58-1.289-1.58-1.912s.582-1.33 1.539-1.87c1.247-.748 3.036-1.164 4.907-1.164s3.701.416 4.99 1.164c.042.041.084.083.167.124l.748 1.206.374-.208c.167.249.292.54.292.789z"/>
  <path fill="#BFC1CE" d="M195.62 429.146c-1.788-1.039-4.076-1.58-6.529-1.58-2.454 0-4.824.582-6.612 1.621-2.038 1.164-3.202 2.909-3.202 4.738 0 1.87 1.122 3.533 3.202 4.738 1.788 1.039 4.075 1.579 6.529 1.579 2.412 0 4.699-.54 6.445-1.538l40.131 24.645c-.707.915-1.123 1.912-1.123 2.993 0 1.87 1.123 3.532 3.202 4.737 1.788 1.039 4.075 1.58 6.529 1.58 2.454 0 4.824-.582 6.612-1.621 2.038-1.164 3.202-2.909 3.202-4.738 0-1.87-1.123-3.533-3.202-4.696-1.788-1.039-4.075-1.579-6.529-1.579-2.412 0-4.699.54-6.446 1.537l.292-.457-40.089-24.603c.499-.79.79-1.663.79-2.535-.042-1.954-1.165-3.616-3.202-4.821zm-6.654 7.813c-1.871 0-3.66-.416-4.907-1.164-.998-.582-1.539-1.247-1.539-1.87s.582-1.33 1.581-1.912c1.289-.748 3.118-1.163 4.99-1.163 1.871 0 3.659.415 4.907 1.163.998.582 1.539 1.247 1.539 1.87 0 .624-.583 1.33-1.581 1.912-1.289.748-3.119 1.164-4.99 1.164zm50.319 27.429c1.289-.748 3.119-1.163 4.99-1.163 1.872 0 3.66.415 4.907 1.163.998.582 1.539 1.247 1.539 1.87 0 .624-.582 1.33-1.58 1.912-2.537 1.496-7.319 1.496-9.898 0-.998-.582-1.538-1.247-1.538-1.87s.582-1.33 1.58-1.912zM69.989 286.554c-1.788-1.039-4.075-1.579-6.529-1.579-2.454 0-4.824.582-6.612 1.621-2.038 1.164-3.202 2.909-3.202 4.738 0 1.87 1.123 3.532 3.202 4.738 1.788 1.039 4.075 1.579 6.529 1.579 2.412 0 4.699-.54 6.446-1.538l40.13 24.645c-.707.914-1.123 1.912-1.123 2.992 0 1.871 1.123 3.533 3.202 4.738 1.788 1.039 4.076 1.579 6.529 1.579 2.454 0 4.824-.581 6.612-1.62 2.038-1.164 3.203-2.91 3.203-4.738 0-1.87-1.123-3.533-3.203-4.696-1.788-1.039-4.075-1.58-6.529-1.58-2.412 0-4.699.541-6.445 1.538l.291-.457-40.089-24.687c.499-.789.79-1.662.79-2.535 0-1.87-1.123-3.574-3.202-4.738zm-6.612 7.814c-1.872 0-3.66-.416-4.907-1.164-.998-.582-1.539-1.247-1.539-1.87 0-.624.582-1.33 1.58-1.912 1.29-.748 3.12-1.164 4.99-1.164 1.872 0 3.66.416 4.908 1.164.998.582 1.538 1.247 1.538 1.87 0 .624-.582 1.33-1.58 1.912-1.33.706-3.119 1.164-4.99 1.164zm50.319 27.387c1.289-.748 3.119-1.163 4.99-1.163s3.66.415 4.907 1.163c.998.582 1.539 1.247 1.539 1.871 0 .623-.582 1.33-1.58 1.911-2.537 1.497-7.32 1.497-9.898 0-.998-.581-1.539-1.246-1.539-1.87 0-.623.583-1.33 1.581-1.912zM154.491 161.293c1.789 1.039 4.076 1.579 6.529 1.579 2.412 0 4.7-.54 6.446-1.537l14.472 8.686c-.707.914-1.123 1.912-1.123 2.992 0 1.87 1.123 3.533 3.202 4.696 1.789 1.039 4.076 1.58 6.529 1.58 2.454 0 4.824-.582 6.612-1.621 2.038-1.164 3.203-2.909 3.203-4.738 0-1.87-1.123-3.533-3.203-4.738-1.788-1.039-4.075-1.579-6.529-1.579-2.412 0-4.699.54-6.445 1.538l.291-.458-14.431-8.644c.5-.79.791-1.662.791-2.535 0-1.87-1.123-3.533-3.203-4.738-1.788-1.039-4.075-1.579-6.528-1.579-2.454 0-4.824.582-6.613 1.621-2.037 1.163-3.202 2.909-3.202 4.737 0 1.871 1.165 3.533 3.202 4.738zm31.19 9.767c1.289-.748 3.077-1.164 4.99-1.164 1.871 0 3.66.416 4.907 1.164.998.582 1.539 1.247 1.539 1.87s-.582 1.33-1.58 1.912c-1.29.748-3.078 1.163-4.991 1.163-1.871 0-3.659-.415-4.907-1.163-.998-.582-1.538-1.247-1.538-1.87 0-.624.582-1.33 1.58-1.912zm-29.526-16.416c1.289-.748 3.077-1.164 4.99-1.164 1.871 0 3.66.416 4.907 1.164.998.582 1.539 1.246 1.539 1.87 0 .623-.582 1.33-1.58 1.912-2.537 1.496-7.319 1.496-9.898 0-.998-.582-1.538-1.247-1.538-1.871 0-.623.582-1.329 1.58-1.911zM661.423 274.419c2.453 0 4.782-.582 6.529-1.579 2.037-1.206 3.202-2.868 3.202-4.738 0-1.829-1.165-3.574-3.202-4.738-1.788-1.039-4.159-1.621-6.612-1.621-2.454 0-4.783.582-6.529 1.579-2.038 1.206-3.202 2.868-3.202 4.738 0 .873.291 1.746.79 2.535l-73.275 42.017.291.457c-1.788-.997-4.075-1.537-6.445-1.537-2.454 0-4.783.582-6.529 1.579-2.038 1.205-3.202 2.868-3.202 4.738 0 1.828 1.164 3.574 3.202 4.738 1.788 1.039 4.158 1.62 6.612 1.62 2.453 0 4.782-.581 6.529-1.579 2.038-1.205 3.202-2.867 3.202-4.738 0-1.039-.416-2.078-1.123-2.992l73.316-42.017c1.747.998 4.034 1.538 6.446 1.538zm-5.032-8.229c1.247-.748 3.036-1.164 4.907-1.164s3.701.416 4.99 1.164c.998.582 1.581 1.288 1.581 1.912 0 .623-.583 1.33-1.539 1.87-2.537 1.455-7.319 1.455-9.898-.042-.998-.581-1.58-1.288-1.58-1.911 0-.582.582-1.247 1.539-1.829zm-78.431 53.612c-2.537 1.455-7.319 1.455-9.897 0-.999-.582-1.581-1.288-1.581-1.912 0-.623.582-1.33 1.539-1.87 1.248-.748 3.036-1.163 4.907-1.163s3.701.415 4.99 1.163c.998.582 1.581 1.289 1.581 1.912s-.583 1.288-1.539 1.87zM624.037 239.01c2.454 0 4.782-.582 6.529-1.579 2.038-1.205 3.202-2.868 3.202-4.738 0-1.828-1.164-3.574-3.202-4.738-1.788-1.039-4.158-1.621-6.612-1.621-2.454 0-4.782.582-6.529 1.58-2.038 1.205-3.202 2.867-3.202 4.738 0 .872.291 1.745.79 2.535l-36.18 21.112.291.457c-1.788-.997-4.075-1.538-6.445-1.538-2.454 0-4.783.582-6.529 1.58-2.038 1.205-3.202 2.867-3.202 4.738 0 1.828 1.164 3.574 3.202 4.737 1.788 1.039 4.158 1.621 6.612 1.621 2.453 0 4.782-.582 6.529-1.579 2.037-1.205 3.202-2.868 3.202-4.738 0-1.039-.416-2.078-1.123-2.992l36.263-21.154c1.705.997 3.992 1.579 6.404 1.579zm-5.032-8.27c1.248-.748 3.036-1.164 4.907-1.164 1.872 0 3.702.416 4.991 1.164.998.582 1.58 1.288 1.58 1.912 0 .623-.582 1.329-1.539 1.87-2.536 1.454-7.319 1.454-9.897-.042-.998-.582-1.58-1.288-1.58-1.912 0-.581.54-1.246 1.538-1.828zm-41.378 32.749c-2.536 1.454-7.319 1.454-9.897 0-.998-.582-1.58-1.288-1.58-1.912 0-.623.582-1.33 1.538-1.87 1.248-.748 3.036-1.164 4.907-1.164 1.872 0 3.702.416 4.991 1.164.998.582 1.58 1.288 1.58 1.912 0 .582-.582 1.288-1.539 1.87z"/>
  <path fill="url(#paint22_linear)" d="M299.792 237.057l1.664-2.826-88.703-51.742 32.603-20.157-74.272-43.346c.749-.915 1.123-1.954 1.123-2.993 0-1.87-1.123-3.532-3.202-4.696-1.788-1.039-4.076-1.579-6.529-1.579-2.454 0-4.824.582-6.612 1.621-2.038 1.163-3.202 2.909-3.202 4.737 0 1.871 1.122 3.533 3.202 4.738 1.788 1.039 4.075 1.579 6.529 1.579 2.121 0 4.158-.457 5.822-1.246l70.82 41.31-32.603 20.157 93.36 54.443zM157.486 117.905c-.998-.582-1.539-1.247-1.539-1.87 0-.624.582-1.33 1.58-1.912 1.289-.748 3.119-1.164 4.99-1.164 1.872 0 3.66.416 4.908 1.164.998.582 1.538 1.247 1.538 1.87 0 .624-.582 1.33-1.58 1.912-2.578 1.455-7.361 1.455-9.897 0z"/>
  <path fill="#BFC1CE" d="M176.074 403.42c-1.788-1.039-4.158-1.621-6.612-1.621-2.453 0-4.782.582-6.529 1.58-2.037 1.205-3.202 2.867-3.202 4.737 0 .915.291 1.829.832 2.619l-52.523 29.632 35.972 19.616c-.458.748-.707 1.579-.707 2.41 0 1.829 1.164 3.575 3.202 4.738 1.788 1.039 4.159 1.621 6.612 1.621 2.454 0 4.782-.582 6.529-1.579 2.038-1.205 3.202-2.868 3.202-4.738 0-1.829-1.164-3.574-3.202-4.738-1.788-1.039-4.159-1.621-6.612-1.621-2.412 0-4.699.541-6.446 1.538l-31.771-17.33 48.447-27.305c1.747.956 3.992 1.455 6.321 1.455 2.454 0 4.782-.582 6.529-1.58 2.038-1.205 3.202-2.867 3.202-4.738-.041-1.787-1.206-3.491-3.244-4.696zm-18.089 57.145c.998.582 1.58 1.288 1.58 1.912 0 .623-.582 1.33-1.539 1.87-1.247.748-3.036 1.163-4.907 1.163s-3.701-.415-4.99-1.163c-.998-.582-1.58-1.289-1.58-1.912 0-.291.124-.582.332-.873l.083-.166c.25-.291.624-.623 1.123-.873 1.248-.748 3.036-1.163 4.907-1.163 1.872 0 3.701.457 4.991 1.205zm16.468-50.495c-2.537 1.454-7.319 1.454-9.898 0-.998-.582-1.58-1.289-1.58-1.912s.582-1.33 1.539-1.87c1.247-.748 3.035-1.164 4.907-1.164 1.871 0 3.701.416 4.99 1.164.998.582 1.58 1.288 1.58 1.912.042.623-.54 1.288-1.538 1.87z"/>
  <path fill="url(#paint23_linear)" d="M468.922 235.602l1.663 2.785 154.991-92.512-.374-.624c1.746.915 3.909 1.413 6.196 1.413 2.453 0 4.782-.581 6.529-1.579 2.037-1.205 3.202-2.867 3.202-4.738 0-1.828-1.165-3.574-3.202-4.737-1.788-1.039-4.159-1.621-6.612-1.621-2.454 0-4.783.582-6.529 1.579-2.038 1.205-3.202 2.868-3.202 4.738 0 1.205.499 2.369 1.413 3.325l-154.075 91.971zm157.444-97.249c1.247-.749 3.036-1.164 4.907-1.164s3.701.415 4.99 1.164c.998.581 1.581 1.288 1.581 1.911 0 .624-.583 1.33-1.539 1.87-2.537 1.455-7.319 1.455-9.897 0-.999-.581-1.581-1.288-1.581-1.911 0-.582.541-1.289 1.539-1.87z"/>
  <g fill="#DB8545" opacity=".2">
    <path d="M334.184 200.484l-127.586 73.81c-6.529 3.782-11.311 10.515-11.602 17.123-.333 7.647 3.951 15.045 12.559 20.032L324.494 378.9c6.612 3.824 14.971 5.902 23.33 5.86 5.115 0 9.856-.831 14.056-2.369a35.982 35.982 0 005.115-2.369l127.336-73.644c6.529-3.781 11.27-10.473 11.561-17.122.332-7.647-3.951-15.045-12.559-20.032l-116.357-67.077c-2.454-1.413-5.781-2.909-8.65-3.824a49.911 49.911 0 00-14.763-2.369c-7.361-.083-14.098 1.496-19.379 4.53z" opacity=".091"/>
    <path d="M335.265 201.024l-124.466 71.982c-5.906 3.408-11.353 10.307-11.852 16.25-.624 7.356 2.952 14.67 11.519 19.616L325.7 375.368c6.446 3.74 14.597 5.735 22.748 5.652 4.99-.042 9.606-.915 13.64-2.411 1.539-.582 3.618-1.579 4.99-2.369l123.884-71.649c5.906-3.408 11.27-10.223 11.769-16.208.624-7.356-2.952-14.671-11.519-19.575l-114.028-65.789c-2.205-1.288-5.864-2.992-8.442-3.823-4.533-1.496-9.44-2.411-14.431-2.494-7.236-.124-13.889 1.33-19.046 4.322z" opacity=".182"/>
    <path d="M336.346 201.565l-121.347 70.152c-5.24 3.034-11.395 10.099-12.102 15.336-.956 7.107 1.955 14.255 10.438 19.159l113.571 65.54c6.28 3.615 14.223 5.569 22.124 5.444 4.824-.042 9.357-.956 13.266-2.41 1.372-.499 3.618-1.621 4.824-2.328l120.474-69.695c5.24-3.034 11.27-10.016 11.977-15.294.956-7.107-1.955-14.255-10.438-19.159L377.35 203.892c-1.955-1.122-5.947-3.075-8.234-3.824-4.408-1.496-9.232-2.493-14.098-2.618-7.069-.208-13.64 1.205-18.672 4.115z" opacity=".273"/>
    <path d="M337.427 202.105l-118.228 68.324c-4.575 2.66-12.393 9.808-12.393 14.463-2.536 6.567.957 13.84 9.399 18.744l111.949 64.583c6.113 3.533 13.848 5.362 21.5 5.237 4.699-.083 9.065-.997 12.85-2.452 1.164-.457 3.618-1.704 4.657-2.286l117.064-67.701c4.575-2.659 12.227-9.725 12.227-14.379 2.536-6.567-.957-13.84-9.399-18.744l-109.495-63.171c-1.747-.997-6.03-3.117-8.026-3.823-4.284-1.496-8.983-2.577-13.765-2.743-6.945-.249-13.432 1.081-18.34 3.948z" opacity=".364"/>
    <path d="M338.509 202.604l-115.11 66.579c-3.909 2.244-12.642 9.6-12.642 13.548-3.161 6.192-.083 13.465 8.317 18.286l110.286 63.628c5.947 3.408 13.515 5.195 20.876 5.029 4.574-.083 8.816-1.039 12.434-2.494.998-.415 3.618-1.745 4.491-2.244l113.696-65.706c3.909-2.244 12.434-9.475 12.434-13.465 3.161-6.192.083-13.465-8.317-18.286l-107.291-61.883c-1.498-.873-6.155-3.2-7.819-3.823-4.2-1.496-8.774-2.66-13.432-2.868-6.737-.291-13.141.956-17.923 3.699z" opacity=".455"/>
    <path d="M339.548 203.144l-111.949 64.75c-3.285 1.87-12.891 9.351-12.891 12.676-3.785 5.818-1.082 13.05 7.277 17.871l108.581 62.672c5.78 3.325 13.141 5.028 20.252 4.821a34.234 34.234 0 0012.06-2.535c.832-.333 3.618-1.788 4.367-2.245l110.244-63.752c3.285-1.871 12.642-9.227 12.642-12.551 3.784-5.819 1.081-13.05-7.278-17.871l-104.962-60.511c-1.248-.707-6.238-3.283-7.611-3.823-4.075-1.497-8.525-2.743-13.099-2.993-6.612-.374-12.933.79-17.633 3.491z" opacity=".545"/>
    <path d="M340.63 203.685l-108.789 62.921c-2.62 1.496-13.183 9.143-13.183 11.803-4.449 5.486-2.079 12.676 6.197 17.413l106.917 61.675c5.572 3.242 12.767 4.821 19.628 4.613 4.325-.124 8.276-1.163 11.644-2.535.666-.291 3.618-1.87 4.201-2.203l106.834-61.757c2.619-1.497 12.891-8.977 12.891-11.637 4.45-5.486 2.079-12.676-6.196-17.414L378.057 207.3c-.998-.582-6.321-3.408-7.444-3.823-3.951-1.496-8.276-2.826-12.767-3.117-6.404-.416-12.642.706-17.216 3.325z" opacity=".636"/>
    <path d="M341.711 204.225l-105.67 61.134c-1.954 1.122-13.432 8.894-13.432 10.889-5.073 5.111-3.077 12.26 5.157 16.998l105.253 60.718c5.407 3.117 12.393 4.655 19.047 4.406 4.158-.167 7.984-1.206 11.228-2.577.499-.208 3.618-1.912 4.034-2.161l103.382-59.805c1.955-1.122 13.1-8.727 13.1-10.722 5.073-5.112 3.077-12.26-5.157-16.998l-100.43-57.934c-.748-.416-6.404-3.491-7.236-3.824-3.826-1.537-8.067-2.909-12.434-3.241-6.279-.499-12.392.54-16.842 3.117z" opacity=".727"/>
    <path d="M342.792 204.765L240.241 264.07c-1.289.749-13.681 8.686-13.681 10.016-5.698 4.738-4.076 11.845 4.075 16.583l103.59 59.763c5.24 3.033 12.06 4.488 18.423 4.197 4.034-.166 7.735-1.247 10.854-2.618.333-.125 3.576-1.953 3.909-2.12l100.014-57.809c1.289-.748 13.307-8.478 13.307-9.767 5.698-4.738 4.076-11.844-4.075-16.582l-98.267-56.688c-.499-.291-6.446-3.574-7.028-3.823-3.743-1.538-7.819-2.992-12.102-3.366-6.113-.541-12.143.415-16.468 2.909z" opacity=".818"/>
    <path d="M343.873 205.305l-99.431 57.477c-.666.374-13.973 8.437-13.973 9.102-6.321 4.405-5.115 11.47 3.035 16.125l101.927 58.807c5.074 2.909 11.686 4.281 17.799 3.99 3.909-.208 7.444-1.289 10.438-2.619.166-.083 3.577-2.036 3.743-2.119l96.604-55.856c.665-.374 13.557-8.229 13.557-8.853 6.321-4.405 5.115-11.47-3.036-16.125l-95.939-55.316c-.249-.124-6.529-3.699-6.82-3.823-3.618-1.538-7.61-3.076-11.81-3.491-5.947-.624-11.894.249-16.094 2.701z" opacity=".909"/>
    <path d="M363.834 344.406l110.494-63.919c6.986-4.031 6.113-11.055-1.954-15.71l-100.222-57.809c-8.068-4.655-20.253-5.154-27.198-1.122l-110.535 63.877c-6.986 4.031-6.113 11.055 1.955 15.709l100.263 57.852c8.026 4.654 20.211 5.153 27.197 1.122z" opacity=".2"/>
  </g>
  <path fill="url(#paint24_linear)" d="M502.523 249.94h-2.994c-1.539-1.953-3.618-3.74-6.321-5.32l-116.939-67.451c-13.848-7.98-38.01-6.982-53.979 2.244l-108.123 62.34c-4.242 2.452-7.444 5.236-9.648 8.145h-3.535v9.31h.083c.458 4.613 3.452 9.018 9.233 12.343l116.897 67.452c13.848 7.979 38.01 6.982 53.979-2.245l108.123-62.381c7.569-4.364 11.935-9.808 12.933-15.169h.291v-9.268z"/>
  <path fill="url(#paint25_linear)" d="M327.197 331.938L210.3 264.486c-13.848-7.979-12.102-21.943 3.867-31.128l108.123-62.381c15.969-9.227 40.131-10.224 53.979-2.245l116.897 67.452c13.849 7.979 12.102 21.943-3.867 31.128l-108.123 62.381c-15.969 9.227-40.131 10.224-53.979 2.245z"/>
  <path fill="url(#paint26_linear)" d="M498.739 233.815h-2.953c-1.497-1.912-3.534-3.657-6.196-5.195l-114.153-65.872c-13.515-7.813-37.095-6.816-52.731 2.203l-105.545 60.926c-4.158 2.411-7.277 5.112-9.44 7.98h-3.451v16.291h.083c.416 4.53 3.368 8.811 9.024 12.052l114.153 65.873c13.515 7.813 37.095 6.815 52.731-2.203l105.586-60.927c7.403-4.28 11.644-9.6 12.642-14.836h.25v-16.292z"/>
  <path fill="url(#paint27_linear)" d="M502.274 223.009h-2.994c-1.539-1.953-3.618-3.74-6.321-5.319l-116.94-67.452c-13.848-7.979-38.009-6.982-53.978 2.245l-108.123 62.381c-4.242 2.452-7.444 5.236-9.648 8.145h-3.535v19.575h.083c.457 4.613 3.452 9.018 9.232 12.343l116.898 67.452c13.848 7.979 38.009 6.982 53.978-2.245l108.123-62.381c7.569-4.363 11.936-9.808 12.934-15.169h.291v-19.575z"/>
  <path fill="url(#paint28_linear)" d="M326.948 305.007L210.05 237.555c-13.848-7.979-12.101-21.943 3.868-31.128l108.123-62.381c15.969-9.226 40.13-10.224 53.978-2.244l116.898 67.451c13.848 7.98 12.101 21.944-3.868 31.128l-108.123 62.382c-15.969 9.226-40.13 10.223-53.978 2.244z"/>
  <path fill="url(#paint29_linear)" d="M332.479 286.638l-90.533-52.283c-10.729-6.192-9.356-16.997 2.995-24.104l83.753-48.334c12.393-7.148 31.107-7.896 41.794-1.746l90.533 52.241c10.729 6.192 9.356 16.998-2.995 24.105l-83.712 48.375c-12.392 7.148-31.106 7.896-41.835 1.746z"/>
  <path fill="#FF9E4B" d="M350.61 163.662l4.699-2.701-4.657-2.66-4.699 2.701 4.657 2.66z" opacity=".2"/>
  <path fill="#FF9E4B" d="M341.794 168.774l4.699-2.743-4.657-2.66-4.7 2.701 4.658 2.702z" opacity=".5"/>
  <path fill="#FF9E4B" d="M333.019 173.844l4.658-2.701-4.658-2.702-4.657 2.702 4.657 2.701zM324.203 178.914l4.699-2.701-4.657-2.701-4.699 2.701 4.657 2.701z"/>
  <path fill="#FF9E4B" d="M315.387 183.985l4.699-2.702-4.657-2.659-4.7 2.701 4.658 2.66z" opacity=".5"/>
  <path fill="#FF9E4B" d="M306.571 189.097l4.699-2.702-4.658-2.701-4.699 2.701 4.658 2.702zM297.796 194.167l4.658-2.701-4.658-2.702-4.657 2.702 4.657 2.701z"/>
  <path fill="#FF9E4B" d="M288.98 199.237l4.699-2.701-4.657-2.702-4.7 2.743 4.658 2.66z" opacity=".5"/>
  <path fill="#FF9E4B" d="M280.164 204.307l4.699-2.701-4.658-2.66-4.699 2.702 4.658 2.659zM271.348 209.419l4.699-2.701-4.658-2.701-4.699 2.701 4.658 2.701z"/>
  <path fill="#FF9E4B" d="M262.573 214.49l4.658-2.702-4.658-2.701-4.699 2.701 4.699 2.702zM253.757 219.56l4.657-2.701-4.657-2.702-4.658 2.743 4.658 2.66z" opacity=".5"/>
  <path fill="#FF9E4B" d="M244.941 224.672l4.699-2.743-4.658-2.66-4.699 2.701 4.658 2.702z"/>
  <path fill="#FF9E4B" d="M358.927 168.483l4.7-2.702-4.658-2.701-4.699 2.701 4.657 2.702zM350.153 173.553l4.657-2.701-4.657-2.702-4.658 2.702 4.658 2.701zM341.337 178.624l4.699-2.701-4.658-2.66-4.699 2.701 4.658 2.66zM332.52 183.736l4.7-2.702-4.658-2.701-4.699 2.701 4.657 2.702z" opacity=".5"/>
  <path fill="#FF9E4B" d="M323.704 188.806l4.699-2.702-4.657-2.701-4.699 2.701 4.657 2.702z"/>
  <path fill="#FF9E4B" d="M314.93 193.876l4.657-2.701-4.657-2.702-4.658 2.743 4.658 2.66z" opacity=".5"/>
  <path fill="#FF9E4B" d="M306.113 198.946l4.658-2.701-4.658-2.66-4.657 2.701 4.657 2.66z" opacity=".2"/>
  <path fill="#FF9E4B" d="M297.297 204.058l4.699-2.701-4.657-2.702-4.699 2.702 4.657 2.701z"/>
  <path fill="#FF9E4B" d="M270.89 219.31l4.658-2.742-4.658-2.66-4.657 2.701 4.657 2.701zM262.074 224.381l4.699-2.702-4.657-2.701-4.7 2.701 4.658 2.702zM253.258 229.451l4.699-2.701-4.658-2.702-4.699 2.702 4.658 2.701z" opacity=".5"/>
  <path fill="#FF9E4B" d="M367.286 173.263l4.658-2.702-4.658-2.66-4.658 2.702 4.658 2.66z"/>
  <path fill="#FF9E4B" d="M358.47 178.374l4.699-2.701-4.699-2.701-4.658 2.701 4.658 2.701z" opacity=".5"/>
  <path fill="#FFCFC2" d="M349.654 183.445l4.699-2.702-4.658-2.701-4.699 2.701 4.658 2.702z" opacity=".2"/>
  <path fill="#FFCFC2" d="M340.838 188.515l4.699-2.701-4.658-2.702-4.699 2.743 4.658 2.66zM332.021 193.627l4.7-2.743-4.658-2.66-4.699 2.702 4.657 2.701z"/>
  <path fill="#FF9E4B" d="M323.247 198.697l4.657-2.701-4.657-2.702-4.658 2.702 4.658 2.701z" opacity=".5"/>
  <path fill="#FF9E4B" d="M314.431 203.768l4.699-2.702-4.658-2.701-4.699 2.701 4.658 2.702zM305.614 208.838l4.7-2.702-4.658-2.659-4.699 2.701 4.657 2.66z" opacity=".2"/>
  <path fill="#FFCFC2" d="M296.798 213.95l4.699-2.743-4.657-2.66-4.699 2.701 4.657 2.702zM288.024 219.02l4.657-2.701-4.657-2.702-4.658 2.702 4.658 2.701z"/>
  <path fill="#FFCFC2" d="M279.207 224.09l4.699-2.701-4.657-2.701-4.699 2.701 4.657 2.701z" opacity=".2"/>
  <path fill="#FF9E4B" d="M270.391 229.161l4.699-2.702-4.657-2.66-4.699 2.702 4.657 2.66z" opacity=".5"/>
  <path fill="#FF9E4B" d="M261.575 234.272l4.699-2.701-4.658-2.701-4.699 2.701 4.658 2.701z"/>
  <path fill="#FF9E4B" d="M375.603 178.083l4.658-2.701-4.658-2.701-4.657 2.701 4.657 2.701z" opacity=".5"/>
  <path fill="#FFCFC2" d="M357.971 188.266l4.699-2.743-4.658-2.66-4.699 2.701 4.658 2.702zM349.155 193.336l4.699-2.702-4.658-2.701-4.699 2.701 4.658 2.702z"/>
  <path fill="#FFCFC2" d="M340.38 198.406l4.658-2.701-4.658-2.702-4.658 2.702 4.658 2.701z" opacity=".5"/>
  <path fill="#FF9E4B" d="M331.564 203.476l4.699-2.701-4.658-2.66-4.699 2.702 4.658 2.659z" opacity=".2"/>
  <path fill="#FFCFC2" d="M305.157 218.729l4.657-2.701-4.657-2.702-4.699 2.702 4.699 2.701z" opacity=".5"/>
  <path fill="#FFCFC2" d="M296.341 223.799l4.657-2.701-4.657-2.66-4.658 2.701 4.658 2.66zM287.524 228.911l4.7-2.701-4.658-2.702-4.699 2.702 4.657 2.701z"/>
  <path fill="#FF9E4B" d="M269.892 239.052l4.699-2.702-4.657-2.701-4.7 2.743 4.658 2.66zM383.92 182.904l4.7-2.743-4.658-2.66-4.699 2.702 4.657 2.701z"/>
  <path fill="#FFCFC2" d="M366.288 193.045l4.699-2.702-4.657-2.701-4.7 2.701 4.658 2.702zM357.513 198.115l4.658-2.701-4.658-2.66-4.657 2.701 4.657 2.66zM348.697 203.227l4.699-2.701-4.699-2.702-4.657 2.702 4.657 2.701z"/>
  <path fill="#FF9E4B" d="M339.881 208.297l4.699-2.701-4.657-2.701-4.7 2.701 4.658 2.701z" opacity=".2"/>
  <path fill="#FFCFC2" d="M313.474 223.55l4.658-2.702-4.658-2.701-4.658 2.701 4.658 2.702z" opacity=".7"/>
  <path fill="#FFCFC2" d="M304.658 228.62l4.699-2.701-4.658-2.702-4.699 2.702 4.658 2.701z"/>
  <path fill="#FFCFC2" d="M295.842 233.69l4.699-2.701-4.658-2.701-4.699 2.743 4.658 2.659z" opacity=".7"/>
  <path fill="#FF9E4B" d="M287.025 238.802l4.7-2.743-4.658-2.66-4.699 2.702 4.657 2.701z" opacity=".2"/>
  <path fill="#FF9E4B" d="M278.251 243.872l4.657-2.701-4.657-2.701-4.658 2.701 4.658 2.701zM392.238 187.684l4.699-2.702-4.658-2.701-4.699 2.701 4.658 2.702z" opacity=".5"/>
  <path fill="#FF9E4B" d="M383.421 192.754l4.7-2.702-4.658-2.659-4.699 2.701 4.657 2.66z" opacity=".2"/>
  <path fill="#FFCFC2" d="M365.831 202.936l4.657-2.701-4.657-2.702-4.658 2.702 4.658 2.701zM357.014 208.006l4.7-2.701-4.658-2.701-4.699 2.742 4.657 2.66zM321.791 228.329l4.699-2.701-4.657-2.702-4.699 2.743 4.657 2.66zM312.975 233.441l4.699-2.743-4.657-2.66-4.7 2.701 4.658 2.702z"/>
  <path fill="#FF9E4B" d="M295.384 243.581l4.658-2.701-4.658-2.701-4.699 2.701 4.699 2.701z" opacity=".2"/>
  <path fill="#FF9E4B" d="M286.568 248.652l4.658-2.702-4.658-2.659-4.658 2.701 4.658 2.66z" opacity=".5"/>
  <path fill="#FF9E4B" d="M400.555 192.505l4.699-2.702-4.658-2.701-4.699 2.701 4.658 2.702z"/>
  <path fill="#FF9E4B" d="M391.739 197.575l4.699-2.701-4.658-2.702-4.699 2.702 4.658 2.701z" opacity=".2"/>
  <path fill="#FFCFC2" d="M374.148 207.716l4.699-2.702-4.658-2.66-4.699 2.702 4.658 2.66zM365.332 212.827l4.699-2.701-4.658-2.701-4.699 2.701 4.658 2.701zM356.515 217.897l4.7-2.701-4.658-2.701-4.699 2.701 4.657 2.701zM338.925 228.079l4.699-2.742-4.699-2.66-4.658 2.701 4.658 2.701zM330.108 233.15l4.7-2.702-4.658-2.701-4.699 2.701 4.657 2.702zM321.292 238.22l4.699-2.701-4.657-2.702-4.699 2.702 4.657 2.701z"/>
  <path fill="#FF9E4B" d="M303.701 248.402l4.658-2.701-4.658-2.701-4.657 2.701 4.657 2.701z"/>
  <path fill="#FF9E4B" d="M294.885 253.473l4.699-2.702-4.657-2.701-4.699 2.701 4.657 2.702z" opacity=".5"/>
  <path fill="#FF9E4B" d="M408.872 197.284l4.699-2.701-4.657-2.702-4.7 2.743 4.658 2.66z"/>
  <path fill="#FF9E4B" d="M400.097 202.396l4.658-2.743-4.658-2.66-4.657 2.702 4.657 2.701z" opacity=".2"/>
  <path fill="#FFCFC2" d="M373.649 217.607l4.699-2.702-4.658-2.659-4.699 2.701 4.658 2.66zM364.832 222.719l4.7-2.743-4.658-2.66-4.699 2.701 4.657 2.702zM356.058 227.789l4.657-2.701-4.657-2.702-4.658 2.702 4.658 2.701zM347.242 232.859l4.699-2.701-4.658-2.701-4.699 2.701 4.658 2.701zM338.426 237.93l4.699-2.702-4.658-2.66-4.699 2.702 4.658 2.66z"/>
  <path fill="#FF9E4B" d="M312.019 253.182l4.699-2.701-4.658-2.702-4.699 2.743 4.658 2.66z" opacity=".5"/>
  <path fill="#FF9E4B" d="M303.202 258.252l4.7-2.701-4.658-2.66-4.699 2.701 4.657 2.66z"/>
  <path fill="#FF9E4B" d="M417.231 202.105l4.657-2.701-4.657-2.702-4.7 2.702 4.7 2.701z" opacity=".5"/>
  <path fill="#FFCFC2" d="M373.191 227.498l4.658-2.701-4.658-2.702-4.657 2.702 4.657 2.701z" opacity=".5"/>
  <path fill="#FFCFC2" d="M364.375 232.568l4.699-2.701-4.657-2.66-4.7 2.701 4.658 2.66zM355.559 237.68l4.699-2.701-4.657-2.702-4.7 2.702 4.658 2.701z"/>
  <path fill="#FF9E4B" d="M320.336 258.003l4.699-2.702-4.658-2.701-4.699 2.701 4.658 2.702z" opacity=".2"/>
  <path fill="#FF9E4B" d="M311.519 263.073l4.7-2.701-4.658-2.702-4.699 2.702 4.657 2.701z"/>
  <path fill="#FF9E4B" d="M425.548 206.884l4.657-2.701-4.657-2.66-4.658 2.701 4.658 2.66z" opacity=".5"/>
  <path fill="#FFCFC2" d="M381.508 232.319l4.7-2.702-4.658-2.701-4.699 2.701 4.657 2.702z" opacity=".2"/>
  <path fill="#FFCFC2" d="M372.692 237.389l4.699-2.701-4.657-2.702-4.699 2.702 4.657 2.701z"/>
  <path fill="#FFCFC2" d="M363.876 242.459l4.699-2.701-4.657-2.701-4.7 2.743 4.658 2.659z" opacity=".5"/>
  <path fill="#FF9E4B" d="M328.653 262.782l4.699-2.701-4.658-2.66-4.699 2.701 4.658 2.66z" opacity=".5"/>
  <path fill="#FF9E4B" d="M319.837 267.894l4.699-2.743-4.658-2.66-4.699 2.702 4.658 2.701zM433.865 211.705l4.699-2.701-4.657-2.702-4.7 2.702 4.658 2.701z"/>
  <path fill="#FF9E4B" d="M425.049 216.775l4.699-2.701-4.658-2.701-4.699 2.743 4.658 2.659zM407.458 226.957l4.658-2.701-4.658-2.701-4.699 2.701 4.699 2.701z" opacity=".2"/>
  <path fill="#FFCFC2" d="M389.826 237.098l4.699-2.701-4.658-2.702-4.699 2.743 4.658 2.66z" opacity=".7"/>
  <path fill="#FFCFC2" d="M381.009 242.21l4.7-2.743-4.658-2.66-4.699 2.702 4.657 2.701z"/>
  <path fill="#FFCFC2" d="M372.193 247.28l4.699-2.701-4.657-2.702-4.699 2.702 4.657 2.701z" opacity=".7"/>
  <path fill="#FF9E4B" d="M354.602 257.421l4.7-2.702-4.658-2.659-4.699 2.701 4.657 2.66z" opacity=".5"/>
  <path fill="#FF9E4B" d="M336.97 267.603l4.699-2.701-4.657-2.702-4.7 2.702 4.658 2.701z" opacity=".2"/>
  <path fill="#FF9E4B" d="M328.195 272.673l4.658-2.701-4.658-2.701-4.699 2.701 4.699 2.701zM442.182 216.485l4.699-2.702-4.657-2.659-4.699 2.701 4.657 2.66z"/>
  <path fill="#FF9E4B" d="M433.366 221.597l4.699-2.702-4.657-2.701-4.7 2.701 4.658 2.702z" opacity=".5"/>
  <path fill="#FF9E4B" d="M424.55 226.667l4.699-2.701-4.658-2.702-4.699 2.702 4.658 2.701z" opacity=".2"/>
  <path fill="#FFCFC2" d="M398.143 241.919l4.699-2.701-4.658-2.701-4.699 2.701 4.658 2.701zM389.327 246.989l4.699-2.701-4.658-2.702-4.699 2.702 4.658 2.701zM380.552 252.06l4.658-2.701-4.658-2.66-4.658 2.701 4.658 2.66z"/>
  <path fill="#FF9E4B" d="M354.103 267.312l4.7-2.701-4.658-2.701-4.699 2.701 4.657 2.701z" opacity=".2"/>
  <path fill="#FF9E4B" d="M345.287 272.382l4.699-2.701-4.657-2.66-4.699 2.701 4.657 2.66zM336.513 277.494l4.657-2.701-4.657-2.702-4.658 2.702 4.658 2.701z" opacity=".5"/>
  <path fill="#FF9E4B" d="M450.499 221.306l4.7-2.702-4.658-2.701-4.699 2.701 4.657 2.702z" opacity=".2"/>
  <path fill="#FF9E4B" d="M441.683 226.376l4.699-2.702-4.657-2.659-4.699 2.701 4.657 2.66zM432.909 231.488l4.657-2.743-4.657-2.66-4.658 2.701 4.658 2.702z"/>
  <path fill="#FF9E4B" d="M424.092 236.558l4.7-2.701-4.658-2.702-4.699 2.702 4.657 2.701zM415.276 241.628l4.699-2.701-4.657-2.701-4.699 2.701 4.657 2.701zM406.46 246.699l4.699-2.702-4.657-2.66-4.7 2.702 4.658 2.66zM397.644 251.81l4.699-2.701-4.658-2.701-4.699 2.701 4.658 2.701z" opacity=".5"/>
  <path fill="#FF9E4B" d="M388.869 256.881l4.658-2.702-4.658-2.701-4.657 2.701 4.657 2.702z" opacity=".2"/>
  <path fill="#FF9E4B" d="M380.053 261.951l4.699-2.701-4.657-2.702-4.7 2.743 4.658 2.66z"/>
  <path fill="#FF9E4B" d="M371.237 267.021l4.699-2.701-4.658-2.66-4.699 2.702 4.658 2.659z" opacity=".5"/>
  <path fill="#FF9E4B" d="M362.421 272.133l4.699-2.701-4.658-2.702-4.699 2.702 4.658 2.701z"/>
  <path fill="#FF9E4B" d="M353.646 277.204l4.658-2.702-4.658-2.701-4.658 2.701 4.658 2.702zM344.83 282.274l4.699-2.702-4.658-2.701-4.699 2.743 4.658 2.66z" opacity=".5"/>
  <path fill="#FF9E4B" d="M458.817 226.126l4.699-2.701-4.658-2.701-4.699 2.701 4.658 2.701z" opacity=".2"/>
  <path fill="#FF9E4B" d="M450.042 231.197l4.658-2.702-4.658-2.701-4.699 2.701 4.699 2.702z"/>
  <path fill="#FF9E4B" d="M441.226 236.267l4.657-2.701-4.657-2.702-4.658 2.702 4.658 2.701zM432.41 241.337l4.699-2.701-4.658-2.66-4.699 2.701 4.658 2.66z" opacity=".5"/>
  <path fill="#FF9E4B" d="M423.593 246.449l4.7-2.701-4.658-2.702-4.699 2.702 4.657 2.701zM414.777 251.519l4.699-2.701-4.657-2.701-4.699 2.701 4.657 2.701zM406.003 256.59l4.657-2.702-4.657-2.701-4.658 2.743 4.658 2.66z"/>
  <path fill="#FF9E4B" d="M397.186 261.66l4.7-2.701-4.658-2.66-4.699 2.701 4.657 2.66zM388.37 266.772l4.699-2.701-4.657-2.702-4.699 2.702 4.657 2.701zM379.554 271.842l4.699-2.701-4.658-2.702-4.699 2.702 4.658 2.701z" opacity=".5"/>
  <path fill="#FF9E4B" d="M370.779 276.912l4.658-2.701-4.658-2.66-4.657 2.702 4.657 2.659z"/>
  <path fill="#FF9E4B" d="M361.963 282.024l4.699-2.743-4.699-2.659-4.658 2.701 4.658 2.701z" opacity=".5"/>
  <path fill="#FF9E4B" d="M353.147 287.095l4.699-2.702-4.657-2.701-4.7 2.701 4.658 2.702z" opacity=".2"/>
  <path fill="url(#paint30_linear)" d="M482.312 263.863l8.733-5.112 14.056 8.478a2.709 2.709 0 011.248 2.992l-1.705 15.294-5.282-10.722a13.198 13.198 0 00-3.742-3.2l-13.308-7.73z"/>
  <path fill="url(#paint31_radial)" d="M500.028 273.92a13.202 13.202 0 00-3.743-3.2l-12.891-7.481-1.123.665 13.307 7.73a13.802 13.802 0 013.743 3.2l5.282 10.723.083-.291-4.658-11.346z"/>
  <path fill="url(#paint32_linear)" d="M465.553 273.546l8.733-5.111 14.056 8.478a2.708 2.708 0 011.248 2.992l-1.705 15.294-5.282-10.722a13.182 13.182 0 00-3.742-3.2l-13.308-7.731z"/>
  <path fill="url(#paint33_radial)" d="M483.269 283.562a13.202 13.202 0 00-3.743-3.2l-12.891-7.481-1.123.665 13.307 7.73a13.806 13.806 0 013.743 3.201l5.281 10.722.084-.291-4.658-11.346z"/>
  <path fill="url(#paint34_linear)" d="M448.794 283.23l8.733-5.112 14.056 8.478a2.708 2.708 0 011.248 2.992l-1.705 15.294-5.282-10.722a13.173 13.173 0 00-3.743-3.2l-13.307-7.73z"/>
  <path fill="url(#paint35_radial)" d="M466.51 293.245a13.202 13.202 0 00-3.743-3.2l-12.891-7.481-1.123.665 13.307 7.731a13.785 13.785 0 013.743 3.2l5.281 10.722.084-.291-4.658-11.346z"/>
  <path fill="url(#paint36_linear)" d="M432.077 292.872l8.733-5.112 14.056 8.478a2.71 2.71 0 011.247 2.992l-1.705 15.294-5.281-10.722a13.186 13.186 0 00-3.743-3.2l-13.307-7.73z"/>
  <path fill="url(#paint37_radial)" d="M449.792 302.929a13.198 13.198 0 00-3.742-3.2l-12.892-7.481-1.123.665 13.308 7.73a13.783 13.783 0 013.742 3.2l5.282 10.723.083-.291-4.658-11.346z"/>
  <path fill="url(#paint38_linear)" d="M415.317 302.555l8.733-5.112 14.057 8.478a2.71 2.71 0 011.247 2.992l-1.705 15.294-5.281-10.722a13.216 13.216 0 00-3.743-3.2l-13.308-7.73z"/>
  <path fill="url(#paint39_radial)" d="M433.033 312.612a13.198 13.198 0 00-3.742-3.2l-12.892-7.481-1.123.665 13.308 7.73a13.783 13.783 0 013.742 3.2l5.282 10.723.083-.291-4.658-11.346z"/>
  <path fill="url(#paint40_linear)" d="M398.558 312.238l8.733-5.112 14.056 8.479a2.708 2.708 0 011.248 2.992l-1.705 15.294-5.281-10.723a13.232 13.232 0 00-3.743-3.2l-13.308-7.73z"/>
  <path fill="url(#paint41_radial)" d="M416.274 322.296a13.202 13.202 0 00-3.742-3.201l-12.892-7.48-1.123.665 13.308 7.73a13.783 13.783 0 013.742 3.2l5.282 10.722.083-.291-4.658-11.345z"/>
  <path fill="url(#paint42_linear)" d="M381.716 321.922l8.733-5.112 14.056 8.478a2.71 2.71 0 011.248 2.993l-1.705 15.293-5.282-10.722a13.198 13.198 0 00-3.742-3.2l-13.308-7.73z"/>
  <path fill="url(#paint43_radial)" d="M399.432 331.938a13.186 13.186 0 00-3.743-3.2l-12.891-7.481-1.123.665 13.307 7.73a13.802 13.802 0 013.743 3.2l5.281 10.722.084-.29-4.658-11.346z"/>
  <path fill="url(#paint44_linear)" d="M364.957 331.563l8.733-5.111 14.056 8.478a2.708 2.708 0 011.248 2.992l-1.705 15.294-5.282-10.722a13.173 13.173 0 00-3.743-3.2l-13.307-7.731z"/>
  <path fill="url(#paint45_radial)" d="M382.673 341.621a13.186 13.186 0 00-3.743-3.2l-12.891-7.481-1.123.665 13.307 7.73a13.802 13.802 0 013.743 3.2l5.281 10.723.083-.291-4.657-11.346z"/>
  <path fill="url(#paint46_linear)" d="M221.237 263.863l-8.733-5.112-14.015 8.478a2.71 2.71 0 00-1.247 2.992l1.705 15.294 5.281-10.722a13.202 13.202 0 013.743-3.2l13.266-7.73z"/>
  <path fill="url(#paint47_radial)" d="M203.521 273.92a13.202 13.202 0 013.743-3.2l12.85-7.481 1.123.665-13.308 7.73a13.802 13.802 0 00-3.743 3.2l-5.281 10.681-.083-.291 4.699-11.304z"/>
  <path fill="url(#paint48_linear)" d="M237.954 273.546l-8.691-5.111-14.056 8.478a2.708 2.708 0 00-1.248 2.992l1.705 15.294 5.282-10.722a13.182 13.182 0 013.742-3.2l13.266-7.731z"/>
  <path fill="url(#paint49_radial)" d="M220.28 283.562a13.202 13.202 0 013.743-3.2l12.85-7.481 1.123.665-13.308 7.73a13.787 13.787 0 00-3.742 3.201l-5.282 10.722-.083-.291 4.699-11.346z"/>
  <path fill="url(#paint50_linear)" d="M254.713 283.188l-8.691-5.112-14.056 8.478a2.71 2.71 0 00-1.248 2.993l1.705 15.294 5.282-10.723a13.198 13.198 0 013.742-3.2l13.266-7.73z"/>
  <path fill="url(#paint51_radial)" d="M236.998 293.245a13.198 13.198 0 013.742-3.2l12.85-7.481 1.123.665-13.307 7.731a13.785 13.785 0 00-3.743 3.2l-5.281 10.722-.084-.291 4.7-11.346z"/>
  <path fill="url(#paint52_linear)" d="M271.472 292.872l-8.691-5.112-14.056 8.478a2.708 2.708 0 00-1.248 2.992l1.705 15.294 5.282-10.722a13.173 13.173 0 013.743-3.2l13.265-7.73z"/>
  <path fill="url(#paint53_radial)" d="M253.757 302.929a13.189 13.189 0 013.743-3.2l12.85-7.481 1.122.665-13.307 7.73a13.802 13.802 0 00-3.743 3.2l-5.281 10.723-.083-.291 4.699-11.346z"/>
  <path fill="url(#paint54_linear)" d="M288.231 302.555l-8.691-5.112-14.056 8.478a2.708 2.708 0 00-1.248 2.992l1.705 15.294 5.282-10.722a13.189 13.189 0 013.743-3.2l13.265-7.73z"/>
  <path fill="url(#paint55_radial)" d="M270.516 312.57a13.205 13.205 0 013.743-3.2l12.85-7.48 1.122.665-13.307 7.73a13.785 13.785 0 00-3.743 3.2l-5.281 10.722-.083-.291 4.699-11.346z"/>
  <path fill="url(#paint56_linear)" d="M304.949 312.197l-8.691-5.112-14.057 8.478a2.71 2.71 0 00-1.247 2.992l1.705 15.294 5.281-10.722a13.216 13.216 0 013.743-3.2l13.266-7.73z"/>
  <path fill="url(#paint57_radial)" d="M287.233 322.254a13.216 13.216 0 013.743-3.2l12.85-7.481 1.123.665-13.308 7.73a13.798 13.798 0 00-3.742 3.2l-5.282 10.723-.083-.291 4.699-11.346z"/>
  <path fill="url(#paint58_linear)" d="M321.583 321.88l-8.691-5.111-14.056 8.478a2.708 2.708 0 00-1.248 2.992l1.705 15.294 5.282-10.722a13.202 13.202 0 013.742-3.201l13.266-7.73z"/>
  <path fill="url(#paint59_radial)" d="M303.868 331.938a13.182 13.182 0 013.742-3.2l12.85-7.481 1.123.665-13.307 7.73a13.802 13.802 0 00-3.743 3.2l-5.281 10.722-.083-.29 4.699-11.346z"/>
  <path fill="url(#paint60_linear)" d="M338.342 331.563l-8.691-5.111-14.056 8.478a2.708 2.708 0 00-1.248 2.992l1.705 15.294 5.282-10.722a13.182 13.182 0 013.742-3.2l13.266-7.731z"/>
  <path fill="url(#paint61_radial)" d="M320.627 341.579a13.189 13.189 0 013.743-3.2l12.85-7.481 1.122.665-13.307 7.731a13.785 13.785 0 00-3.743 3.2l-5.281 10.722-.083-.291 4.699-11.346z"/>
  <path fill="url(#paint62_linear)" d="M463.516 64.376L352.897 0 240.782 63.005v159.464l111.7 65 111.034-63.836V64.376z" opacity=".35"/>
  <defs>
    <linearGradient id="paint0_linear" x1="244.463" x2="318.469" y1="485.595" y2="346.249" gradientUnits="userSpaceOnUse">
      <stop stop-color="#E98C44"/>
      <stop offset=".54" stop-color="#DE3E3A"/>
      <stop offset=".725" stop-color="#EA6240"/>
      <stop offset="1" stop-color="#FF9E4B"/>
    </linearGradient>
    <linearGradient id="paint1_linear" x1="427.619" x2="381.715" y1="454.075" y2="346.07" gradientUnits="userSpaceOnUse">
      <stop stop-color="#E98C44"/>
      <stop offset=".54" stop-color="#DE3E3A"/>
      <stop offset=".725" stop-color="#EA6240"/>
      <stop offset="1" stop-color="#FF9E4B"/>
    </linearGradient>
    <linearGradient id="paint2_linear" x1="523.789" x2="398.983" y1="449.297" y2="347.249" gradientUnits="userSpaceOnUse">
      <stop stop-color="#E98C44"/>
      <stop offset=".54" stop-color="#DE3E3A"/>
      <stop offset=".725" stop-color="#EA6240"/>
      <stop offset="1" stop-color="#FF9E4B"/>
    </linearGradient>
    <linearGradient id="paint3_linear" x1="607.948" x2="426.944" y1="469.368" y2="338.597" gradientUnits="userSpaceOnUse">
      <stop stop-color="#E98C44"/>
      <stop offset=".54" stop-color="#DE3E3A"/>
      <stop offset=".725" stop-color="#EA6240"/>
      <stop offset="1" stop-color="#FF9E4B"/>
    </linearGradient>
    <linearGradient id="paint4_linear" x1="0" x2="259.16" y1="321.058" y2="321.058" gradientUnits="userSpaceOnUse">
      <stop stop-color="#E98C44"/>
      <stop offset=".54" stop-color="#DE3E3A"/>
      <stop offset=".725" stop-color="#EA6240"/>
      <stop offset="1" stop-color="#FF9E4B"/>
    </linearGradient>
    <linearGradient id="paint5_linear" x1="254.198" x2="315.174" y1="411.814" y2="351.671" gradientUnits="userSpaceOnUse">
      <stop stop-color="#E98C44"/>
      <stop offset=".54" stop-color="#DE3E3A"/>
      <stop offset=".725" stop-color="#EA6240"/>
      <stop offset="1" stop-color="#FF9E4B"/>
    </linearGradient>
    <linearGradient id="paint6_linear" x1="553.346" x2="495.858" y1="223.529" y2="286.719" gradientUnits="userSpaceOnUse">
      <stop stop-color="#E98C44"/>
      <stop offset=".54" stop-color="#DE3E3A"/>
      <stop offset=".725" stop-color="#EA6240"/>
      <stop offset="1" stop-color="#FF9E4B"/>
    </linearGradient>
    <linearGradient id="paint7_linear" x1="616.639" x2="443.416" y1="370.463" y2="325.331" gradientUnits="userSpaceOnUse">
      <stop stop-color="#E98C44"/>
      <stop offset=".54" stop-color="#DE3E3A"/>
      <stop offset=".725" stop-color="#EA6240"/>
      <stop offset="1" stop-color="#FF9E4B"/>
    </linearGradient>
    <linearGradient id="paint8_linear" x1="363.259" x2="328.653" y1="497.827" y2="324.688" gradientUnits="userSpaceOnUse">
      <stop stop-color="#E98C44"/>
      <stop offset=".54" stop-color="#DE3E3A"/>
      <stop offset=".725" stop-color="#EA6240"/>
      <stop offset="1" stop-color="#FF9E4B"/>
    </linearGradient>
    <linearGradient id="paint9_linear" x1="187.694" x2="292.604" y1="376.207" y2="376.207" gradientUnits="userSpaceOnUse">
      <stop stop-color="#E98C44"/>
      <stop offset=".54" stop-color="#DE3E3A"/>
      <stop offset=".725" stop-color="#EA6240"/>
      <stop offset="1" stop-color="#FF9E4B"/>
    </linearGradient>
    <linearGradient id="paint10_linear" x1="489.688" x2="406.187" y1="399.566" y2="338.989" gradientUnits="userSpaceOnUse">
      <stop stop-color="#E98C44"/>
      <stop offset=".54" stop-color="#DE3E3A"/>
      <stop offset=".725" stop-color="#EA6240"/>
      <stop offset="1" stop-color="#FF9E4B"/>
    </linearGradient>
    <linearGradient id="paint11_linear" x1="106.591" x2="242.438" y1="310.591" y2="310.591" gradientUnits="userSpaceOnUse">
      <stop stop-color="#E98C44"/>
      <stop offset=".54" stop-color="#DE3E3A"/>
      <stop offset=".725" stop-color="#EA6240"/>
      <stop offset="1" stop-color="#FF9E4B"/>
    </linearGradient>
    <linearGradient id="paint12_linear" x1="483.617" x2="440.081" y1="70.567" y2="169.891" gradientUnits="userSpaceOnUse">
      <stop stop-color="#E98C44"/>
      <stop offset=".54" stop-color="#DE3E3A"/>
      <stop offset=".725" stop-color="#EA6240"/>
      <stop offset="1" stop-color="#FF9E4B"/>
    </linearGradient>
    <linearGradient id="paint13_linear" x1="61.976" x2="275.882" y1="378.583" y2="378.583" gradientUnits="userSpaceOnUse">
      <stop stop-color="#E98C44"/>
      <stop offset=".54" stop-color="#DE3E3A"/>
      <stop offset=".725" stop-color="#EA6240"/>
      <stop offset="1" stop-color="#FF9E4B"/>
    </linearGradient>
    <linearGradient id="paint14_linear" x1="579.792" x2="489.144" y1="296.745" y2="306.339" gradientUnits="userSpaceOnUse">
      <stop stop-color="#E98C44"/>
      <stop offset=".54" stop-color="#DE3E3A"/>
      <stop offset=".725" stop-color="#EA6240"/>
      <stop offset="1" stop-color="#FF9E4B"/>
    </linearGradient>
    <linearGradient id="paint15_linear" x1="573.659" x2="463.881" y1="131.289" y2="211.494" gradientUnits="userSpaceOnUse">
      <stop stop-color="#E98C44"/>
      <stop offset=".54" stop-color="#DE3E3A"/>
      <stop offset=".725" stop-color="#EA6240"/>
      <stop offset="1" stop-color="#FF9E4B"/>
    </linearGradient>
    <linearGradient id="paint16_linear" x1="345.539" x2="383.847" y1="57.529" y2="175.575" gradientUnits="userSpaceOnUse">
      <stop stop-color="#E98C44"/>
      <stop offset=".54" stop-color="#DE3E3A"/>
      <stop offset=".725" stop-color="#EA6240"/>
      <stop offset="1" stop-color="#FF9E4B"/>
    </linearGradient>
    <linearGradient id="paint17_linear" x1="30.848" x2="225.717" y1="255.535" y2="255.535" gradientUnits="userSpaceOnUse">
      <stop stop-color="#E98C44"/>
      <stop offset=".54" stop-color="#DE3E3A"/>
      <stop offset=".725" stop-color="#EA6240"/>
      <stop offset="1" stop-color="#FF9E4B"/>
    </linearGradient>
    <linearGradient id="paint18_linear" x1="97.963" x2="208.995" y1="251.184" y2="251.184" gradientUnits="userSpaceOnUse">
      <stop stop-color="#E98C44"/>
      <stop offset=".54" stop-color="#DE3E3A"/>
      <stop offset=".725" stop-color="#EA6240"/>
      <stop offset="1" stop-color="#FF9E4B"/>
    </linearGradient>
    <linearGradient id="paint19_linear" x1="210.181" x2="347.68" y1="118.459" y2="118.459" gradientUnits="userSpaceOnUse">
      <stop stop-color="#E98C44"/>
      <stop offset=".54" stop-color="#DE3E3A"/>
      <stop offset=".725" stop-color="#EA6240"/>
      <stop offset="1" stop-color="#FF9E4B"/>
    </linearGradient>
    <linearGradient id="paint20_linear" x1="83.358" x2="240.751" y1="199.539" y2="199.539" gradientUnits="userSpaceOnUse">
      <stop stop-color="#E98C44"/>
      <stop offset=".54" stop-color="#DE3E3A"/>
      <stop offset=".725" stop-color="#EA6240"/>
      <stop offset="1" stop-color="#FF9E4B"/>
    </linearGradient>
    <linearGradient id="paint21_linear" x1="630.925" x2="473.417" y1="370.87" y2="292.394" gradientUnits="userSpaceOnUse">
      <stop stop-color="#E98C44"/>
      <stop offset=".54" stop-color="#DE3E3A"/>
      <stop offset=".725" stop-color="#EA6240"/>
      <stop offset="1" stop-color="#FF9E4B"/>
    </linearGradient>
    <linearGradient id="paint22_linear" x1="152.66" x2="301.45" y1="173.354" y2="173.354" gradientUnits="userSpaceOnUse">
      <stop stop-color="#E98C44"/>
      <stop offset=".54" stop-color="#DE3E3A"/>
      <stop offset=".725" stop-color="#EA6240"/>
      <stop offset="1" stop-color="#FF9E4B"/>
    </linearGradient>
    <linearGradient id="paint23_linear" x1="635.646" x2="480.546" y1="137.721" y2="230.141" gradientUnits="userSpaceOnUse">
      <stop stop-color="#E98C44"/>
      <stop offset=".54" stop-color="#DE3E3A"/>
      <stop offset=".725" stop-color="#EA6240"/>
      <stop offset="1" stop-color="#FF9E4B"/>
    </linearGradient>
    <linearGradient id="paint24_linear" x1="200.941" x2="502.51" y1="258.096" y2="258.096" gradientUnits="userSpaceOnUse">
      <stop stop-color="#530B21"/>
      <stop offset=".146" stop-color="#D11833"/>
      <stop offset=".343" stop-color="#F27744"/>
      <stop offset=".384" stop-color="#F48149"/>
      <stop offset=".454" stop-color="#FB9C57"/>
      <stop offset=".495" stop-color="#FFAF61"/>
      <stop offset=".531" stop-color="#FA9B57"/>
      <stop offset=".586" stop-color="#F27744"/>
      <stop offset=".685" stop-color="#E7583F"/>
      <stop offset=".866" stop-color="#D11833"/>
      <stop offset=".887" stop-color="#C61731"/>
      <stop offset=".923" stop-color="#A9142D"/>
      <stop offset=".971" stop-color="#7A0F27"/>
      <stop offset="1" stop-color="#5A0C22"/>
    </linearGradient>
    <linearGradient id="paint25_linear" x1="463.686" x2="339.736" y1="-38.502" y2="281.664" gradientUnits="userSpaceOnUse">
      <stop stop-color="#D11833"/>
      <stop offset="1" stop-color="#F27744"/>
    </linearGradient>
    <linearGradient id="paint26_linear" x1="207.831" x2="495.539" y1="245.402" y2="245.402" gradientUnits="userSpaceOnUse">
      <stop offset=".035" stop-color="#6D0B1E"/>
      <stop offset=".212" stop-color="#D11833"/>
      <stop offset=".35" stop-color="#D02229"/>
      <stop offset=".505" stop-color="#CE3319"/>
      <stop offset=".662" stop-color="#D0202B"/>
      <stop offset=".778" stop-color="#D11833"/>
      <stop offset=".808" stop-color="#BA152E"/>
      <stop offset=".862" stop-color="#991127"/>
      <stop offset=".913" stop-color="#810E22"/>
      <stop offset=".961" stop-color="#720C1F"/>
      <stop offset="1" stop-color="#6D0B1E"/>
    </linearGradient>
    <linearGradient id="paint27_linear" x1="200.7" x2="502.269" y1="236.3" y2="236.3" gradientUnits="userSpaceOnUse">
      <stop stop-color="#530B21"/>
      <stop offset=".146" stop-color="#D11833"/>
      <stop offset=".343" stop-color="#F27744"/>
      <stop offset=".384" stop-color="#F48149"/>
      <stop offset=".454" stop-color="#FB9C57"/>
      <stop offset=".495" stop-color="#FFAF61"/>
      <stop offset=".531" stop-color="#FA9B57"/>
      <stop offset=".586" stop-color="#F27744"/>
      <stop offset=".685" stop-color="#E7583F"/>
      <stop offset=".866" stop-color="#D11833"/>
      <stop offset=".887" stop-color="#C61731"/>
      <stop offset=".923" stop-color="#A9142D"/>
      <stop offset=".971" stop-color="#7A0F27"/>
      <stop offset="1" stop-color="#5A0C22"/>
    </linearGradient>
    <linearGradient id="paint28_linear" x1="381.034" x2="323.11" y1="147.176" y2="296.794" gradientUnits="userSpaceOnUse">
      <stop stop-color="#AF142E"/>
      <stop offset="1" stop-color="#F27744"/>
    </linearGradient>
    <linearGradient id="paint29_linear" x1="395.955" x2="299.952" y1="108.683" y2="356.661" gradientUnits="userSpaceOnUse">
      <stop stop-color="#D11833"/>
      <stop offset="1" stop-color="#F27744"/>
    </linearGradient>
    <linearGradient id="paint30_linear" x1="490.687" x2="507.52" y1="260.399" y2="287.601" gradientUnits="userSpaceOnUse">
      <stop offset=".005" stop-color="#C61910"/>
      <stop offset=".359" stop-color="#C4482C"/>
      <stop offset=".374" stop-color="#C95236"/>
      <stop offset=".401" stop-color="#D56D51"/>
      <stop offset=".434" stop-color="#EA997D"/>
      <stop offset=".465" stop-color="#FFC6A9"/>
      <stop offset=".466" stop-color="#FEC5A7"/>
      <stop offset=".506" stop-color="#E9A77F"/>
      <stop offset=".542" stop-color="#DA9262"/>
      <stop offset=".573" stop-color="#D18550"/>
      <stop offset=".596" stop-color="#CE804A"/>
      <stop offset=".597" stop-color="#CE804A"/>
      <stop offset=".747" stop-color="#D47B32"/>
      <stop offset=".885" stop-color="#D77823"/>
      <stop offset="1" stop-color="#D8771E"/>
    </linearGradient>
    <linearGradient id="paint32_linear" x1="473.934" x2="490.768" y1="270.074" y2="297.275" gradientUnits="userSpaceOnUse">
      <stop offset=".005" stop-color="#C61910"/>
      <stop offset=".359" stop-color="#C4482C"/>
      <stop offset=".374" stop-color="#C95236"/>
      <stop offset=".401" stop-color="#D56D51"/>
      <stop offset=".434" stop-color="#EA997D"/>
      <stop offset=".465" stop-color="#FFC6A9"/>
      <stop offset=".466" stop-color="#FEC5A7"/>
      <stop offset=".506" stop-color="#E9A77F"/>
      <stop offset=".542" stop-color="#DA9262"/>
      <stop offset=".573" stop-color="#D18550"/>
      <stop offset=".596" stop-color="#CE804A"/>
      <stop offset=".597" stop-color="#CE804A"/>
      <stop offset=".747" stop-color="#D47B32"/>
      <stop offset=".885" stop-color="#D77823"/>
      <stop offset="1" stop-color="#D8771E"/>
    </linearGradient>
    <linearGradient id="paint34_linear" x1="457.182" x2="474.015" y1="279.747" y2="306.949" gradientUnits="userSpaceOnUse">
      <stop offset=".005" stop-color="#C61910"/>
      <stop offset=".359" stop-color="#C4482C"/>
      <stop offset=".374" stop-color="#C95236"/>
      <stop offset=".401" stop-color="#D56D51"/>
      <stop offset=".434" stop-color="#EA997D"/>
      <stop offset=".465" stop-color="#FFC6A9"/>
      <stop offset=".466" stop-color="#FEC5A7"/>
      <stop offset=".506" stop-color="#E9A77F"/>
      <stop offset=".542" stop-color="#DA9262"/>
      <stop offset=".573" stop-color="#D18550"/>
      <stop offset=".596" stop-color="#CE804A"/>
      <stop offset=".597" stop-color="#CE804A"/>
      <stop offset=".747" stop-color="#D47B32"/>
      <stop offset=".885" stop-color="#D77823"/>
      <stop offset="1" stop-color="#D8771E"/>
    </linearGradient>
    <linearGradient id="paint36_linear" x1="440.429" x2="457.262" y1="289.422" y2="316.623" gradientUnits="userSpaceOnUse">
      <stop offset=".005" stop-color="#C61910"/>
      <stop offset=".359" stop-color="#C4482C"/>
      <stop offset=".374" stop-color="#C95236"/>
      <stop offset=".401" stop-color="#D56D51"/>
      <stop offset=".434" stop-color="#EA997D"/>
      <stop offset=".465" stop-color="#FFC6A9"/>
      <stop offset=".466" stop-color="#FEC5A7"/>
      <stop offset=".506" stop-color="#E9A77F"/>
      <stop offset=".542" stop-color="#DA9262"/>
      <stop offset=".573" stop-color="#D18550"/>
      <stop offset=".596" stop-color="#CE804A"/>
      <stop offset=".597" stop-color="#CE804A"/>
      <stop offset=".747" stop-color="#D47B32"/>
      <stop offset=".885" stop-color="#D77823"/>
      <stop offset="1" stop-color="#D8771E"/>
    </linearGradient>
    <linearGradient id="paint38_linear" x1="423.676" x2="440.51" y1="299.096" y2="326.297" gradientUnits="userSpaceOnUse">
      <stop offset=".005" stop-color="#C61910"/>
      <stop offset=".359" stop-color="#C4482C"/>
      <stop offset=".374" stop-color="#C95236"/>
      <stop offset=".401" stop-color="#D56D51"/>
      <stop offset=".434" stop-color="#EA997D"/>
      <stop offset=".465" stop-color="#FFC6A9"/>
      <stop offset=".466" stop-color="#FEC5A7"/>
      <stop offset=".506" stop-color="#E9A77F"/>
      <stop offset=".542" stop-color="#DA9262"/>
      <stop offset=".573" stop-color="#D18550"/>
      <stop offset=".596" stop-color="#CE804A"/>
      <stop offset=".597" stop-color="#CE804A"/>
      <stop offset=".747" stop-color="#D47B32"/>
      <stop offset=".885" stop-color="#D77823"/>
      <stop offset="1" stop-color="#D8771E"/>
    </linearGradient>
    <linearGradient id="paint40_linear" x1="406.924" x2="423.757" y1="308.77" y2="335.971" gradientUnits="userSpaceOnUse">
      <stop offset=".005" stop-color="#C61910"/>
      <stop offset=".359" stop-color="#C4482C"/>
      <stop offset=".374" stop-color="#C95236"/>
      <stop offset=".401" stop-color="#D56D51"/>
      <stop offset=".434" stop-color="#EA997D"/>
      <stop offset=".465" stop-color="#FFC6A9"/>
      <stop offset=".466" stop-color="#FEC5A7"/>
      <stop offset=".506" stop-color="#E9A77F"/>
      <stop offset=".542" stop-color="#DA9262"/>
      <stop offset=".573" stop-color="#D18550"/>
      <stop offset=".596" stop-color="#CE804A"/>
      <stop offset=".597" stop-color="#CE804A"/>
      <stop offset=".747" stop-color="#D47B32"/>
      <stop offset=".885" stop-color="#D77823"/>
      <stop offset="1" stop-color="#D8771E"/>
    </linearGradient>
    <linearGradient id="paint42_linear" x1="390.092" x2="406.925" y1="318.444" y2="345.646" gradientUnits="userSpaceOnUse">
      <stop offset=".005" stop-color="#C61910"/>
      <stop offset=".359" stop-color="#C4482C"/>
      <stop offset=".374" stop-color="#C95236"/>
      <stop offset=".401" stop-color="#D56D51"/>
      <stop offset=".434" stop-color="#EA997D"/>
      <stop offset=".465" stop-color="#FFC6A9"/>
      <stop offset=".466" stop-color="#FEC5A7"/>
      <stop offset=".506" stop-color="#E9A77F"/>
      <stop offset=".542" stop-color="#DA9262"/>
      <stop offset=".573" stop-color="#D18550"/>
      <stop offset=".596" stop-color="#CE804A"/>
      <stop offset=".597" stop-color="#CE804A"/>
      <stop offset=".747" stop-color="#D47B32"/>
      <stop offset=".885" stop-color="#D77823"/>
      <stop offset="1" stop-color="#D8771E"/>
    </linearGradient>
    <linearGradient id="paint44_linear" x1="373.339" x2="390.172" y1="328.118" y2="355.32" gradientUnits="userSpaceOnUse">
      <stop offset=".005" stop-color="#C61910"/>
      <stop offset=".359" stop-color="#C4482C"/>
      <stop offset=".374" stop-color="#C95236"/>
      <stop offset=".401" stop-color="#D56D51"/>
      <stop offset=".434" stop-color="#EA997D"/>
      <stop offset=".465" stop-color="#FFC6A9"/>
      <stop offset=".466" stop-color="#FEC5A7"/>
      <stop offset=".506" stop-color="#E9A77F"/>
      <stop offset=".542" stop-color="#DA9262"/>
      <stop offset=".573" stop-color="#D18550"/>
      <stop offset=".596" stop-color="#CE804A"/>
      <stop offset=".597" stop-color="#CE804A"/>
      <stop offset=".747" stop-color="#D47B32"/>
      <stop offset=".885" stop-color="#D77823"/>
      <stop offset="1" stop-color="#D8771E"/>
    </linearGradient>
    <linearGradient id="paint46_linear" x1="212.858" x2="196.03" y1="260.399" y2="287.591" gradientUnits="userSpaceOnUse">
      <stop offset=".005" stop-color="#C61910"/>
      <stop offset=".359" stop-color="#C4482C"/>
      <stop offset=".374" stop-color="#C95236"/>
      <stop offset=".401" stop-color="#D56D51"/>
      <stop offset=".434" stop-color="#EA997D"/>
      <stop offset=".465" stop-color="#FFC6A9"/>
      <stop offset=".466" stop-color="#FEC5A7"/>
      <stop offset=".506" stop-color="#E9A77F"/>
      <stop offset=".542" stop-color="#DA9262"/>
      <stop offset=".573" stop-color="#D18550"/>
      <stop offset=".596" stop-color="#CE804A"/>
      <stop offset=".597" stop-color="#CE804A"/>
      <stop offset=".747" stop-color="#D47B32"/>
      <stop offset=".885" stop-color="#D77823"/>
      <stop offset="1" stop-color="#D8771E"/>
    </linearGradient>
    <linearGradient id="paint48_linear" x1="229.605" x2="212.777" y1="270.07" y2="297.262" gradientUnits="userSpaceOnUse">
      <stop offset=".005" stop-color="#C61910"/>
      <stop offset=".359" stop-color="#C4482C"/>
      <stop offset=".374" stop-color="#C95236"/>
      <stop offset=".401" stop-color="#D56D51"/>
      <stop offset=".434" stop-color="#EA997D"/>
      <stop offset=".465" stop-color="#FFC6A9"/>
      <stop offset=".466" stop-color="#FEC5A7"/>
      <stop offset=".506" stop-color="#E9A77F"/>
      <stop offset=".542" stop-color="#DA9262"/>
      <stop offset=".573" stop-color="#D18550"/>
      <stop offset=".596" stop-color="#CE804A"/>
      <stop offset=".597" stop-color="#CE804A"/>
      <stop offset=".747" stop-color="#D47B32"/>
      <stop offset=".885" stop-color="#D77823"/>
      <stop offset="1" stop-color="#D8771E"/>
    </linearGradient>
    <linearGradient id="paint50_linear" x1="246.352" x2="229.524" y1="279.741" y2="306.933" gradientUnits="userSpaceOnUse">
      <stop offset=".005" stop-color="#C61910"/>
      <stop offset=".359" stop-color="#C4482C"/>
      <stop offset=".374" stop-color="#C95236"/>
      <stop offset=".401" stop-color="#D56D51"/>
      <stop offset=".434" stop-color="#EA997D"/>
      <stop offset=".465" stop-color="#FFC6A9"/>
      <stop offset=".466" stop-color="#FEC5A7"/>
      <stop offset=".506" stop-color="#E9A77F"/>
      <stop offset=".542" stop-color="#DA9262"/>
      <stop offset=".573" stop-color="#D18550"/>
      <stop offset=".596" stop-color="#CE804A"/>
      <stop offset=".597" stop-color="#CE804A"/>
      <stop offset=".747" stop-color="#D47B32"/>
      <stop offset=".885" stop-color="#D77823"/>
      <stop offset="1" stop-color="#D8771E"/>
    </linearGradient>
    <linearGradient id="paint52_linear" x1="263.099" x2="246.272" y1="289.412" y2="316.604" gradientUnits="userSpaceOnUse">
      <stop offset=".005" stop-color="#C61910"/>
      <stop offset=".359" stop-color="#C4482C"/>
      <stop offset=".374" stop-color="#C95236"/>
      <stop offset=".401" stop-color="#D56D51"/>
      <stop offset=".434" stop-color="#EA997D"/>
      <stop offset=".465" stop-color="#FFC6A9"/>
      <stop offset=".466" stop-color="#FEC5A7"/>
      <stop offset=".506" stop-color="#E9A77F"/>
      <stop offset=".542" stop-color="#DA9262"/>
      <stop offset=".573" stop-color="#D18550"/>
      <stop offset=".596" stop-color="#CE804A"/>
      <stop offset=".597" stop-color="#CE804A"/>
      <stop offset=".747" stop-color="#D47B32"/>
      <stop offset=".885" stop-color="#D77823"/>
      <stop offset="1" stop-color="#D8771E"/>
    </linearGradient>
    <linearGradient id="paint54_linear" x1="279.846" x2="263.019" y1="299.082" y2="326.275" gradientUnits="userSpaceOnUse">
      <stop offset=".005" stop-color="#C61910"/>
      <stop offset=".359" stop-color="#C4482C"/>
      <stop offset=".374" stop-color="#C95236"/>
      <stop offset=".401" stop-color="#D56D51"/>
      <stop offset=".434" stop-color="#EA997D"/>
      <stop offset=".465" stop-color="#FFC6A9"/>
      <stop offset=".466" stop-color="#FEC5A7"/>
      <stop offset=".506" stop-color="#E9A77F"/>
      <stop offset=".542" stop-color="#DA9262"/>
      <stop offset=".573" stop-color="#D18550"/>
      <stop offset=".596" stop-color="#CE804A"/>
      <stop offset=".597" stop-color="#CE804A"/>
      <stop offset=".747" stop-color="#D47B32"/>
      <stop offset=".885" stop-color="#D77823"/>
      <stop offset="1" stop-color="#D8771E"/>
    </linearGradient>
    <linearGradient id="paint56_linear" x1="296.594" x2="279.766" y1="308.754" y2="335.946" gradientUnits="userSpaceOnUse">
      <stop offset=".005" stop-color="#C61910"/>
      <stop offset=".359" stop-color="#C4482C"/>
      <stop offset=".374" stop-color="#C95236"/>
      <stop offset=".401" stop-color="#D56D51"/>
      <stop offset=".434" stop-color="#EA997D"/>
      <stop offset=".465" stop-color="#FFC6A9"/>
      <stop offset=".466" stop-color="#FEC5A7"/>
      <stop offset=".506" stop-color="#E9A77F"/>
      <stop offset=".542" stop-color="#DA9262"/>
      <stop offset=".573" stop-color="#D18550"/>
      <stop offset=".596" stop-color="#CE804A"/>
      <stop offset=".597" stop-color="#CE804A"/>
      <stop offset=".747" stop-color="#D47B32"/>
      <stop offset=".885" stop-color="#D77823"/>
      <stop offset="1" stop-color="#D8771E"/>
    </linearGradient>
    <linearGradient id="paint58_linear" x1="313.222" x2="296.395" y1="318.425" y2="345.617" gradientUnits="userSpaceOnUse">
      <stop offset=".005" stop-color="#C61910"/>
      <stop offset=".359" stop-color="#C4482C"/>
      <stop offset=".374" stop-color="#C95236"/>
      <stop offset=".401" stop-color="#D56D51"/>
      <stop offset=".434" stop-color="#EA997D"/>
      <stop offset=".465" stop-color="#FFC6A9"/>
      <stop offset=".466" stop-color="#FEC5A7"/>
      <stop offset=".506" stop-color="#E9A77F"/>
      <stop offset=".542" stop-color="#DA9262"/>
      <stop offset=".573" stop-color="#D18550"/>
      <stop offset=".596" stop-color="#CE804A"/>
      <stop offset=".597" stop-color="#CE804A"/>
      <stop offset=".747" stop-color="#D47B32"/>
      <stop offset=".885" stop-color="#D77823"/>
      <stop offset="1" stop-color="#D8771E"/>
    </linearGradient>
    <linearGradient id="paint60_linear" x1="329.969" x2="313.142" y1="328.095" y2="355.288" gradientUnits="userSpaceOnUse">
      <stop offset=".005" stop-color="#C61910"/>
      <stop offset=".359" stop-color="#C4482C"/>
      <stop offset=".374" stop-color="#C95236"/>
      <stop offset=".401" stop-color="#D56D51"/>
      <stop offset=".434" stop-color="#EA997D"/>
      <stop offset=".465" stop-color="#FFC6A9"/>
      <stop offset=".466" stop-color="#FEC5A7"/>
      <stop offset=".506" stop-color="#E9A77F"/>
      <stop offset=".542" stop-color="#DA9262"/>
      <stop offset=".573" stop-color="#D18550"/>
      <stop offset=".596" stop-color="#CE804A"/>
      <stop offset=".597" stop-color="#CE804A"/>
      <stop offset=".747" stop-color="#D47B32"/>
      <stop offset=".885" stop-color="#D77823"/>
      <stop offset="1" stop-color="#D8771E"/>
    </linearGradient>
    <linearGradient id="paint62_linear" x1="352.151" x2="352.151" y1="307.225" y2="25.309" gradientUnits="userSpaceOnUse">
      <stop stop-color="#fff"/>
      <stop offset="1" stop-color="#fff" stop-opacity="0"/>
    </linearGradient>
    <radialGradient id="paint31_radial" cx="0" cy="0" r="1" gradientTransform="matrix(11.1796 0 0 11.1725 493.514 274.372)" gradientUnits="userSpaceOnUse">
      <stop stop-color="#FFC6A9"/>
      <stop offset="1"/>
    </radialGradient>
    <radialGradient id="paint33_radial" cx="0" cy="0" r="1" gradientTransform="matrix(11.1797 0 0 11.1727 476.761 284.046)" gradientUnits="userSpaceOnUse">
      <stop stop-color="#FFC6A9"/>
      <stop offset="1"/>
    </radialGradient>
    <radialGradient id="paint35_radial" cx="0" cy="0" r="1" gradientTransform="matrix(11.1796 0 0 11.1726 460.008 293.72)" gradientUnits="userSpaceOnUse">
      <stop stop-color="#FFC6A9"/>
      <stop offset="1"/>
    </radialGradient>
    <radialGradient id="paint37_radial" cx="0" cy="0" r="1" gradientTransform="matrix(11.1797 0 0 11.1726 443.256 303.394)" gradientUnits="userSpaceOnUse">
      <stop stop-color="#FFC6A9"/>
      <stop offset="1"/>
    </radialGradient>
    <radialGradient id="paint39_radial" cx="0" cy="0" r="1" gradientTransform="matrix(11.1796 0 0 11.1726 426.503 313.068)" gradientUnits="userSpaceOnUse">
      <stop stop-color="#FFC6A9"/>
      <stop offset="1"/>
    </radialGradient>
    <radialGradient id="paint41_radial" cx="0" cy="0" r="1" gradientTransform="matrix(11.1796 0 0 11.1726 409.75 322.742)" gradientUnits="userSpaceOnUse">
      <stop stop-color="#FFC6A9"/>
      <stop offset="1"/>
    </radialGradient>
    <radialGradient id="paint43_radial" cx="0" cy="0" r="1" gradientTransform="matrix(11.1796 0 0 11.1727 392.918 332.417)" gradientUnits="userSpaceOnUse">
      <stop stop-color="#FFC6A9"/>
      <stop offset="1"/>
    </radialGradient>
    <radialGradient id="paint45_radial" cx="0" cy="0" r="1" gradientTransform="matrix(11.1796 0 0 11.1726 376.166 342.09)" gradientUnits="userSpaceOnUse">
      <stop stop-color="#FFC6A9"/>
      <stop offset="1"/>
    </radialGradient>
    <radialGradient id="paint47_radial" cx="0" cy="0" r="1" gradientTransform="matrix(-11.1759 0 0 -11.1689 210.032 274.366)" gradientUnits="userSpaceOnUse">
      <stop stop-color="#FFC6A9"/>
      <stop offset="1"/>
    </radialGradient>
    <radialGradient id="paint49_radial" cx="0" cy="0" r="1" gradientTransform="matrix(-11.1759 0 0 -11.169 226.78 284.038)" gradientUnits="userSpaceOnUse">
      <stop stop-color="#FFC6A9"/>
      <stop offset="1"/>
    </radialGradient>
    <radialGradient id="paint51_radial" cx="0" cy="0" r="1" gradientTransform="matrix(-11.176 0 0 -11.169 243.527 293.708)" gradientUnits="userSpaceOnUse">
      <stop stop-color="#FFC6A9"/>
      <stop offset="1"/>
    </radialGradient>
    <radialGradient id="paint53_radial" cx="0" cy="0" r="1" gradientTransform="matrix(-11.1759 0 0 -11.1689 260.274 303.379)" gradientUnits="userSpaceOnUse">
      <stop stop-color="#FFC6A9"/>
      <stop offset="1"/>
    </radialGradient>
    <radialGradient id="paint55_radial" cx="0" cy="0" r="1" gradientTransform="matrix(-11.1759 0 0 -11.1689 277.021 313.05)" gradientUnits="userSpaceOnUse">
      <stop stop-color="#FFC6A9"/>
      <stop offset="1"/>
    </radialGradient>
    <radialGradient id="paint57_radial" cx="0" cy="0" r="1" gradientTransform="matrix(-11.1759 0 0 -11.1689 293.768 322.721)" gradientUnits="userSpaceOnUse">
      <stop stop-color="#FFC6A9"/>
      <stop offset="1"/>
    </radialGradient>
    <radialGradient id="paint59_radial" cx="0" cy="0" r="1" gradientTransform="matrix(-11.176 0 0 -11.169 310.397 332.392)" gradientUnits="userSpaceOnUse">
      <stop stop-color="#FFC6A9"/>
      <stop offset="1"/>
    </radialGradient>
    <radialGradient id="paint61_radial" cx="0" cy="0" r="1" gradientTransform="matrix(-11.176 0 0 -11.169 327.144 342.063)" gradientUnits="userSpaceOnUse">
      <stop stop-color="#FFC6A9"/>
      <stop offset="1"/>
    </radialGradient>
  </defs>
</svg>
