<svg xmlns="http://www.w3.org/2000/svg" width="1366" height="953" fill="none" viewBox="0 0 1366 953">
  <g opacity=".5">
    <path fill="url(#paint0_linear)" d="M700.594 747.367l-110.267-64.902 30.712-17.468c2.566.828 5.464 1.242 8.444 1.242 4.884 0 9.603-1.159 13.163-3.228 4.056-2.318 6.374-5.795 6.374-9.438 0-3.725-2.235-7.036-6.374-9.354-3.56-2.07-8.113-3.146-12.997-3.146-4.885 0-9.603 1.159-13.163 3.229-4.056 2.317-6.374 5.794-6.374 9.437 0 2.897 1.407 5.546 3.973 7.781l-36.755 20.862 110.184 64.819-166.063 91.558 84.522 51.574-99.175 55.134-88.081-50.912c2.235-2.07 3.56-4.636 3.56-7.368 0-3.725-2.235-7.036-6.375-9.354-3.559-2.07-8.112-3.146-12.997-3.146-4.884 0-9.602 1.159-13.162 3.229-4.056 2.318-6.374 5.794-6.374 9.437 0 3.725 2.235 7.037 6.374 9.437 3.56 2.07 8.113 3.146 12.997 3.146 3.56 0 6.954-.579 9.934-1.738l-.166.248L506.716 953l112.254-62.501-84.439-51.491 166.063-91.641zm-80.797-97.519c2.567-1.49 6.209-2.318 9.934-2.318 3.726 0 7.285.828 9.769 2.318 1.987 1.159 3.063 2.483 3.063 3.725s-1.159 2.649-3.146 3.808c-5.05 2.98-14.57 2.98-19.702 0-1.987-1.159-3.063-2.483-3.063-3.725s1.159-2.649 3.145-3.808zm-226.908 241.23c-1.987-1.159-3.063-2.483-3.063-3.725s1.159-2.649 3.146-3.808c2.566-1.49 6.125-2.318 9.933-2.318 3.726 0 7.285.828 9.769 2.318 1.987 1.159 3.063 2.483 3.063 3.725s-1.159 2.649-3.146 3.808c-5.132 2.898-14.653 2.98-19.702 0z"/>
    <path fill="url(#paint1_linear)" d="M786.109 661.355c2.483-2.152 3.808-4.802 3.808-7.616 0-3.643-2.318-7.12-6.374-9.437-3.56-2.07-8.279-3.229-13.163-3.229s-9.52 1.159-12.997 3.146c-4.056 2.4-6.374 5.712-6.374 9.354 0 3.643 2.318 7.12 6.374 9.438 3.56 2.069 8.278 3.228 13.163 3.228 3.063 0 6.043-.497 8.692-1.324l90.978 51.905-167.635 95.283 116.393 70.449 110.35-65.482c2.814.993 5.96 1.49 9.271 1.49 4.885 0 9.521-1.159 12.997-3.146 4.057-2.4 6.375-5.712 6.375-9.437 0-3.642-2.318-7.119-6.375-9.437-3.559-2.07-8.278-3.229-13.162-3.229s-9.52 1.159-12.997 3.146c-4.056 2.401-6.374 5.712-6.374 9.437 0 2.732 1.324 5.298 3.642 7.451l-103.644 61.673-103.562-62.749 167.967-95.449-97.353-55.465zm-25.415-3.974c-1.986-1.159-3.145-2.566-3.145-3.808s1.159-2.649 3.063-3.725c2.483-1.49 6.043-2.318 9.768-2.318 3.725 0 7.368.828 9.934 2.318 1.987 1.159 3.146 2.566 3.146 3.808s-1.159 2.649-3.063 3.725c-5.05 2.98-14.57 2.98-19.703 0zm167.885 144.788c2.483-1.49 6.043-2.318 9.768-2.318 3.725 0 7.368.828 9.934 2.318 1.987 1.159 3.146 2.566 3.146 3.808s-1.159 2.649-3.063 3.725c-5.05 2.898-14.57 2.898-19.703-.082-1.986-1.159-3.145-2.567-3.145-3.808 0-1.159 1.159-2.567 3.063-3.643z"/>
    <path fill="url(#paint2_linear)" d="M957.884 877.088c0-2.732-1.324-5.381-3.642-7.533l158.608-98.844L853.826 622.53c1.738-1.904 2.731-4.14 2.731-6.54 0-3.643-2.317-7.12-6.374-9.438-3.559-2.069-8.278-3.228-13.162-3.228-4.885 0-9.52 1.159-12.997 3.146-4.057 2.4-6.375 5.712-6.375 9.354 0 3.643 2.318 7.119 6.375 9.437 3.559 2.07 8.278 3.229 13.162 3.229 3.808 0 7.451-.745 10.596-1.987L1100.11 770.96l-152.325 94.952c-2.815-.993-6.044-1.573-9.355-1.573-4.884 0-9.52 1.159-12.997 3.146-4.056 2.401-6.374 5.712-6.374 9.437 0 3.643 2.318 7.12 6.374 9.438 3.56 2.069 8.278 3.228 13.163 3.228 4.884 0 9.52-1.159 12.997-3.146 4.056-2.318 6.291-5.629 6.291-9.354zM827.252 619.715c-1.987-1.159-3.146-2.566-3.146-3.808s1.159-2.649 3.063-3.725c2.484-1.49 6.044-2.318 9.769-2.318 3.725 0 7.368.828 9.934 2.318 1.987 1.159 3.146 2.566 3.146 3.808 0 1.241-1.159 2.649-3.063 3.725-5.05 2.98-14.57 2.98-19.703 0zm121.029 261.098c-5.049 2.898-14.57 2.898-19.702 0-1.987-1.159-3.146-2.566-3.146-3.808s1.159-2.649 3.063-3.725c2.484-1.49 6.043-2.318 9.769-2.318 3.063 0 6.043.579 8.361 1.656l.745 1.159.828-.497c1.986 1.159 3.145 2.566 3.145 3.808s-1.076 2.649-3.063 3.725z"/>
    <path fill="url(#paint3_linear)" d="M1225.69 853.991c-3.56-2.069-8.28-3.228-13.16-3.228-4.89 0-9.52 1.159-13 3.146-4.06 2.4-6.38 5.712-6.38 9.437 0 2.235.91 4.47 2.57 6.374l-63.66 36.59-79.64-46.607 134.53-83.279-299.597-172.935c1.573-1.821 2.484-3.973 2.484-6.291 0-3.643-2.318-7.119-6.375-9.437-3.559-2.07-8.278-3.229-13.162-3.229s-9.52 1.159-12.997 3.146c-4.057 2.401-6.375 5.712-6.375 9.354 0 3.643 2.318 7.12 6.375 9.438 3.559 2.069 8.278 3.228 13.162 3.228 3.974 0 7.782-.828 11.01-2.152l292.885 169.043-134.44 83.28 92.14 53.975 69.62-40.067c3.23 1.407 7.04 2.235 11.09 2.235 4.89 0 9.52-1.159 13-3.146 4.06-2.401 6.38-5.712 6.38-9.437 0-3.643-2.32-7.12-6.46-9.438zM860.531 600.84c-1.987-1.159-3.146-2.566-3.146-3.808 0-1.241 1.16-2.649 3.064-3.725 2.483-1.49 6.043-2.318 9.768-2.318 3.725 0 7.368.828 9.934 2.318 1.987 1.159 3.146 2.566 3.146 3.808s-1.159 2.649-3.063 3.725c-5.05 2.981-14.57 2.981-19.703 0zm362.009 266.397c-2.48 1.49-6.04 2.318-9.77 2.318-3.72 0-7.36-.828-9.93-2.318-1.99-1.159-3.15-2.567-3.15-3.808 0-1.242 1.16-2.649 3.07-3.726 2.48-1.49 6.04-2.318 9.77-2.318 3.72 0 7.36.828 9.93 2.318 1.99 1.159 3.15 2.567 3.15 3.808 0 1.242-1.08 2.567-3.07 3.726z"/>
    <path fill="#000" d="M1359.13 394.296c-3.56-2.069-8.27-3.228-13.16-3.228-4.88 0-9.52 1.159-13 3.146l-117.13-65.068 34.85-20.116c3.48 1.904 7.95 2.897 12.58 2.897 4.89 0 9.52-1.159 13-3.146 4.05-2.4 6.37-5.712 6.37-9.437 0-3.642-2.32-7.119-6.37-9.437-3.56-2.07-8.28-3.229-13.16-3.229-4.89 0-9.52 1.159-13 3.146-4.06 2.401-6.38 5.712-6.38 9.437 0 1.821.58 3.643 1.74 5.298l-42.8 24.67 125.34 69.62a8.872 8.872 0 00-1.33 4.719c0 3.642 2.32 7.119 6.38 9.437 3.56 2.07 8.28 3.229 13.16 3.229 4.88 0 9.52-1.159 13-3.146 4.05-2.318 6.37-5.712 6.37-9.437 0-3.56-2.32-6.954-6.46-9.355zm-105.79-98.677c2.48-1.49 6.04-2.318 9.77-2.318 3.72 0 7.36.828 9.93 2.318 1.99 1.159 3.15 2.566 3.15 3.808s-1.16 2.649-3.07 3.725c-5.05 2.897-14.57 2.897-19.7 0-1.99-1.159-3.15-2.566-3.15-3.808s1.08-2.649 3.07-3.725zm102.65 111.923c-2.48 1.49-6.04 2.318-9.77 2.318-3.72 0-7.37-.828-9.93-2.318-1.99-1.159-3.15-2.567-3.15-3.808 0-.497.25-.994.58-1.573l1.16.662 1.65-2.98c2.49-1.325 5.88-2.153 9.44-2.153 3.73 0 7.37.828 9.94 2.318 1.98 1.159 3.14 2.567 3.14 3.808 0 1.242-1.07 2.567-3.06 3.726z"/>
    <path fill="url(#paint4_linear)" d="M509.531 587.678c4.056-2.318 6.374-5.795 6.374-9.437 0-3.726-2.235-7.037-6.374-9.355-3.56-2.07-8.113-3.146-12.997-3.146-4.885 0-9.603 1.159-13.163 3.229-4.056 2.318-6.374 5.795-6.374 9.437 0 2.07.745 4.056 2.152 5.795l-119.622 67.468-68.958-36.093-74.339 39.322L36.094 541.982c1.82-1.987 2.814-4.222 2.814-6.706 0-3.642-2.318-7.119-6.374-9.437-3.56-2.07-8.278-3.229-13.163-3.229-4.884 0-9.52 1.159-12.997 3.146C2.235 528.157 0 531.468 0 535.193c0 3.643 2.318 7.12 6.374 9.438 3.56 2.069 8.279 3.228 13.163 3.228 4.636 0 9.023-1.076 12.5-2.897l-.993 1.573 185.103 115.979 74.588-39.488 68.792 35.928 125.169-70.531-.083-.083c3.311 1.573 7.367 2.484 11.672 2.484 4.967.082 9.603-1.077 13.246-3.146zM29.305 539.084c-5.05 2.898-14.57 2.898-19.702 0-1.987-1.159-3.146-2.566-3.146-3.808s1.16-2.649 3.063-3.725c2.484-1.49 6.043-2.318 9.768-2.318 3.726 0 7.368.828 9.934 2.318 1.987 1.159 3.146 2.566 3.146 3.808.083 1.242-1.076 2.566-3.063 3.725zm454.149 39.239c0-1.241 1.159-2.649 3.146-3.808 2.566-1.49 6.208-2.318 9.934-2.318 3.725 0 7.284.828 9.768 2.318 1.987 1.159 3.063 2.484 3.063 3.726 0 1.241-1.159 2.649-3.146 3.808-5.05 2.98-14.57 2.98-19.702 0-1.904-1.077-3.063-2.484-3.063-3.726z"/>
    <path fill="url(#paint5_linear)" d="M609.367 644.219c4.056-2.318 6.374-5.795 6.374-9.438 0-3.725-2.235-7.036-6.374-9.354-3.56-2.07-8.113-3.146-12.997-3.146s-9.603 1.159-13.163 3.229c-4.056 2.318-6.374 5.795-6.374 9.437 0 2.98 1.49 5.712 4.139 7.864l-72.352 40.978 103.313 59.521-42.551 24.918-41.226-24.587c1.904-1.986 2.898-4.222 2.898-6.705 0-3.642-2.318-7.119-6.374-9.437-3.56-2.07-8.279-3.229-13.163-3.229s-9.52 1.159-12.997 3.146c-4.056 2.401-6.374 5.712-6.374 9.437 0 3.643 2.318 7.12 6.374 9.437 3.56 2.07 8.278 3.229 13.163 3.229 3.725 0 7.284-.662 10.347-1.904l47.352 28.146 55.548-32.534-103.148-59.438 65.151-36.921-.663-1.242c2.98 1.159 6.375 1.739 9.934 1.739 4.884 0 9.603-1.077 13.163-3.146zm-107.618 96.442c-1.987-1.159-3.146-2.566-3.146-3.808s1.159-2.649 3.063-3.725c2.483-1.49 6.043-2.318 9.768-2.318 3.725 0 7.368.828 9.934 2.318 1.987 1.159 3.146 2.566 3.146 3.808s-1.159 2.649-3.063 3.725c-5.133 2.98-14.653 2.898-19.702 0zm81.624-105.797c0-1.241 1.159-2.649 3.146-3.808 2.566-1.49 6.208-2.318 9.934-2.318 3.725 0 7.284.828 9.768 2.318 1.987 1.159 3.063 2.484 3.063 3.725 0 1.242-1.159 2.65-3.146 3.809-5.05 2.98-14.57 2.98-19.702 0-1.987-1.077-3.063-2.484-3.063-3.726z"/>
    <path fill="url(#paint6_linear)" d="M1003.41 509.117c-4.879 0-9.515 1.159-12.992 3.145-4.057 2.401-6.375 5.712-6.375 9.355 0 3.642 2.318 7.119 6.375 9.437 3.559 2.07 8.278 3.229 13.162 3.229 4.88 0 9.52-1.159 13-3.146 4.05-2.401 6.37-5.712 6.37-9.437 0-2.153-.83-4.305-2.4-6.126l63.99-40.316-61.34-35.431 55.3-33.444c3.14 1.324 6.95 2.069 10.84 2.069 4.89 0 9.52-1.159 13-3.146 4.06-2.4 6.38-5.712 6.38-9.437 0-3.642-2.32-7.119-6.38-9.437-3.56-2.07-8.28-3.229-13.16-3.229-4.89 0-9.52 1.159-13 3.146-4.06 2.401-6.37 5.712-6.37 9.437 0 2.401.99 4.636 2.73 6.54l-62.09 37.584 61.51 35.514-57.04 35.928c-3.31-1.325-7.28-2.235-11.51-2.235zm76-117.056c2.48-1.49 6.04-2.318 9.77-2.318 3.72 0 7.37.828 9.93 2.318 1.99 1.159 3.15 2.566 3.15 3.808s-1.16 2.649-3.07 3.725c-5.04 2.898-14.56 2.898-19.7 0-1.98-1.159-3.14-2.566-3.14-3.808-.09-1.241 1.07-2.566 3.06-3.725zm-66.06 133.447c-5.05 2.897-14.571 2.897-19.704 0-1.986-1.159-3.145-2.567-3.145-3.808 0-1.242 1.159-2.649 3.063-3.726 2.483-1.49 6.043-2.318 9.766-2.318 3.73 0 7.37.828 9.94 2.318 1.98 1.159 3.14 2.567 3.14 3.808.08 1.242-1.07 2.649-3.06 3.726z"/>
    <path fill="url(#paint7_linear)" d="M916.658 568.803c-3.56-2.069-8.278-3.228-13.162-3.228-4.885 0-9.521 1.159-12.997 3.145-4.057 2.401-6.375 5.712-6.375 9.355 0 3.642 2.318 7.119 6.375 9.437 3.559 2.07 8.278 3.229 13.162 3.229 4.719 0 9.189-1.076 12.666-2.98l220.033 126.327 1.66.993 76.91-48.18c3.39 1.573 7.45 2.567 11.75 2.567 4.89 0 9.52-1.159 13-3.146 4.05-2.401 6.37-5.712 6.37-9.437 0-3.643-2.32-7.12-6.37-9.438-3.56-2.069-8.28-3.228-13.16-3.228-4.89 0-9.52 1.159-13 3.145-4.06 2.401-6.38 5.713-6.38 9.438 0 2.152.83 4.139 2.24 5.96l-71.44 44.786-216.481-124.34c.994-1.573 1.491-3.229 1.491-4.967.165-3.56-2.153-7.037-6.292-9.438zm300.172 84.274c2.48-1.491 6.04-2.318 9.77-2.318 3.72 0 7.37.827 9.93 2.318 1.99 1.159 3.15 2.566 3.15 3.808 0 1.241-1.16 2.649-3.06 3.725-5.05 2.897-14.57 2.897-19.71-.083-1.98-1.159-3.14-2.566-3.14-3.808 0-1.076 1.16-2.483 3.06-3.642zm-323.02-71.028c-1.987-1.159-3.146-2.567-3.146-3.808 0-1.242 1.159-2.65 3.063-3.726 2.484-1.49 6.043-2.318 9.769-2.318 3.725 0 7.367.828 9.934 2.318 1.986 1.159 3.145 2.567 3.145 3.808 0 1.242-1.159 2.649-3.063 3.726-5.049 2.98-14.57 2.897-19.702 0z"/>
    <path fill="#000" d="M869.886 796.54c4.884 0 9.52-1.159 12.997-3.146 4.056-2.401 6.374-5.712 6.374-9.437 0-3.643-2.318-7.12-6.374-9.437-3.56-2.07-8.278-3.229-13.163-3.229-4.884 0-9.52 1.159-12.997 3.146-4.056 2.4-6.374 5.712-6.374 9.437 0 1.739.58 3.477 1.573 5.05l-28.726 17.219.58.91c-3.56-1.986-8.113-3.063-12.914-3.063-4.885 0-9.521 1.159-12.997 3.146-4.057 2.401-6.375 5.712-6.375 9.437 0 3.643 2.318 7.12 6.375 9.438 3.559 2.069 8.278 3.228 13.162 3.228s9.52-1.159 12.997-3.146c4.056-2.4 6.374-5.712 6.374-9.437 0-2.069-.827-4.139-2.235-5.96l28.809-17.302c3.559 2.07 8.113 3.146 12.914 3.146zm-10.017-16.391c2.484-1.49 6.043-2.318 9.769-2.318 3.725 0 7.367.828 9.934 2.318 1.986 1.159 3.145 2.566 3.145 3.808s-1.159 2.649-3.063 3.725c-5.049 2.897-14.569 2.897-19.702 0-1.987-1.159-3.146-2.566-3.146-3.808s1.076-2.649 3.063-3.725zm-38.991 40.315c-5.05 2.898-14.57 2.898-19.702-.083-1.987-1.159-3.146-2.566-3.146-3.808 0-1.241 1.159-2.649 3.063-3.725 2.484-1.49 6.043-2.318 9.769-2.318 3.725 0 7.367.828 9.934 2.318 1.986 1.159 3.145 2.566 3.145 3.808 0 1.325-1.159 2.649-3.063 3.808z"/>
    <path fill="url(#paint8_linear)" d="M754.486 916.327c-3.559-2.069-8.278-3.228-13.162-3.228-4.057 0-7.865.827-11.093 2.235l-122.437-70.863 182.951-103.727-74.919-44.62c1.491-1.821 2.236-3.808 2.236-6.043 0-3.643-2.318-7.12-6.375-9.438-3.559-2.069-8.278-3.228-13.162-3.228s-9.52 1.159-12.997 3.146c-4.057 2.4-6.374 5.712-6.374 9.437 0 3.642 2.317 7.119 6.374 9.437 3.559 2.07 8.278 3.229 13.162 3.229 4.139 0 8.113-.828 11.342-2.401l67.634 40.315-183.034 103.81 129.721 75.085c-1.573 1.821-2.401 3.973-2.401 6.209 0 3.642 2.318 7.119 6.375 9.437 3.559 2.069 8.278 3.228 13.162 3.228s9.52-1.159 12.997-3.145c4.057-2.401 6.374-5.712 6.374-9.438 0-3.642-2.317-7.119-6.374-9.437zm-65.647-222.438c-1.987-1.159-3.146-2.567-3.146-3.808 0-1.242 1.159-2.649 3.063-3.726 2.484-1.49 6.043-2.318 9.769-2.318 3.725 0 7.367.828 9.934 2.318 1.987 1.159 3.145 2.567 3.145 3.808 0 1.242-1.158 2.649-3.062 3.726-5.05 2.897-14.57 2.897-19.703 0zM751.34 929.49c-5.049 2.897-14.569 2.897-19.702 0-1.987-1.159-3.146-2.567-3.146-3.808 0-1.242 1.159-2.65 3.063-3.726 2.484-1.49 6.043-2.318 9.769-2.318 3.725 0 7.367.828 9.934 2.318 1.986 1.159 3.145 2.567 3.145 3.808 0 1.242-1.159 2.649-3.063 3.726z"/>
    <path fill="url(#paint9_linear)" d="M471.284 788.841c0 3.643 2.318 7.119 6.375 9.437 3.559 2.07 8.278 3.229 13.162 3.229 4.885 0 9.52-1.159 12.997-3.146 4.057-2.401 6.375-5.712 6.375-9.437 0-3.643-2.318-7.12-6.375-9.437-3.559-2.07-8.278-3.229-13.162-3.229-4.636 0-9.106 1.076-12.583 2.897l-91.476-52.319 165.815-98.512-1.407-2.4c3.394 1.655 7.533 2.649 11.92 2.649 4.885 0 9.603-1.159 13.163-3.229 4.056-2.318 6.374-5.795 6.374-9.437 0-3.725-2.235-7.037-6.374-9.355-3.56-2.069-8.113-3.145-12.997-3.145s-9.603 1.159-13.163 3.228c-4.056 2.318-6.374 5.795-6.374 9.438 0 2.897 1.408 5.546 3.974 7.698L373.683 727.168l99.174 56.706c-1.076 1.49-1.573 3.146-1.573 4.967zm81.956-176.659c2.566-1.49 6.209-2.318 9.934-2.318 3.725 0 7.285.828 9.768 2.318 1.987 1.159 3.063 2.483 3.063 3.725s-1.159 2.649-3.146 3.808c-5.049 2.98-14.569 2.98-19.702 0-1.987-1.159-3.063-2.484-3.063-3.725 0-1.242 1.076-2.649 3.146-3.808zm-62.667 170.616c3.725 0 7.368.828 9.934 2.318 1.987 1.159 3.146 2.566 3.146 3.808s-1.159 2.649-3.063 3.725c-5.05 2.897-14.57 2.897-19.703 0-1.986-1.159-3.145-2.566-3.145-3.808s1.159-2.649 3.063-3.725c2.566-1.49 6.125-2.318 9.768-2.318z"/>
    <path fill="url(#paint10_linear)" d="M975.517 720.793c-3.56-2.069-8.279-3.228-13.163-3.228-4.47 0-8.775.993-12.169 2.732l-129.473-79.141c1.656-1.904 2.484-4.057 2.484-6.292 0-3.642-2.318-7.119-6.375-9.437-3.559-2.07-8.278-3.229-13.162-3.229s-9.52 1.159-12.997 3.146c-4.057 2.401-6.374 5.712-6.374 9.355 0 3.642 2.317 7.119 6.374 9.437 3.56 2.07 8.278 3.229 13.162 3.229 3.974 0 7.782-.745 10.928-2.153l129.969 79.472c-1.159 1.656-1.821 3.477-1.821 5.464 0 3.642 2.318 7.119 6.374 9.437 3.56 2.07 8.279 3.229 13.163 3.229s9.52-1.159 12.997-3.146c4.056-2.401 6.374-5.712 6.374-9.437.083-3.643-2.235-7.12-6.291-9.438zM793.973 638.59c-1.987-1.159-3.146-2.567-3.146-3.808 0-1.242 1.159-2.65 3.063-3.726 2.484-1.49 6.044-2.318 9.769-2.318 3.725 0 7.368.828 9.934 2.318 1.987 1.159 3.146 2.567 3.146 3.808 0 1.242-1.159 2.649-3.063 3.726-5.05 2.98-14.57 2.897-19.703 0zm178.398 95.449c-5.05 2.897-14.57 2.897-19.702-.083-1.987-1.159-3.146-2.566-3.146-3.808s1.159-2.649 3.063-3.725c2.483-1.491 6.043-2.318 9.768-2.318 3.725 0 7.368.827 9.934 2.318 1.987 1.158 3.146 2.566 3.146 3.808 0 1.324-1.159 2.649-3.063 3.808z"/>
    <path fill="url(#paint11_linear)" d="M244.707 527.826c-3.56-2.07-8.278-3.229-13.163-3.229-4.884 0-9.52 1.159-12.997 3.146-4.056 2.401-6.374 5.712-6.374 9.437 0 3.643 2.318 7.119 6.374 9.437 3.56 2.07 8.279 3.229 13.163 3.229 4.056 0 7.864-.828 11.01-2.235l128.397 71.193 83.114-47.766-.248-.496c2.732.91 5.795 1.407 8.94 1.407 4.885 0 9.603-1.159 13.163-3.229 4.056-2.317 6.374-5.794 6.374-9.437 0-3.725-2.235-7.036-6.374-9.354-3.56-2.07-8.113-3.146-12.997-3.146s-9.603 1.159-13.163 3.228c-4.056 2.318-6.374 5.795-6.374 9.438 0 2.98 1.49 5.712 4.139 7.864l-76.657 44.041-122.436-67.882c1.573-1.822 2.4-3.974 2.4-6.209.083-3.643-2.235-7.12-6.291-9.437zm208.614 27.815c2.566-1.49 6.208-2.318 9.933-2.318 3.726 0 7.285.828 9.769 2.318 1.987 1.159 3.063 2.483 3.063 3.725s-1.159 2.649-3.146 3.808c-5.05 2.98-14.57 2.98-19.702 0-1.987-1.159-3.063-2.484-3.063-3.725 0-1.242 1.159-2.649 3.146-3.808zm-231.462-14.653c-1.987-1.159-3.146-2.566-3.146-3.808s1.159-2.649 3.063-3.725c2.483-1.49 6.043-2.318 9.768-2.318 3.726 0 7.368.828 9.934 2.318 1.987 1.159 3.146 2.566 3.146 3.808 0 .91-.662 1.987-1.821 2.897l-.083-.082-.083.165c-.331.248-.662.497-1.076.745-5.132 2.98-14.652 2.98-19.702 0z"/>
    <path fill="#000" d="M647.53 133.778c0 3.642 2.318 7.119 6.374 9.437 3.56 2.069 8.279 3.228 13.163 3.228s9.52-1.158 12.997-3.145c4.056-2.401 6.374-5.712 6.374-9.438 0-3.642-2.318-7.119-6.374-9.437-3.56-2.069-8.279-3.228-13.163-3.228-4.801 0-9.354 1.076-12.914 3.063L544.879 64.074l93.71-56.54 208.697 115.233-83.777 52.154c-.248-.166-.579-.331-.828-.497-3.559-2.069-8.278-3.228-13.162-3.228s-9.52 1.159-12.997 3.145c-4.057 2.401-6.374 5.712-6.374 9.438 0 3.642 2.317 7.119 6.374 9.437 3.56 2.07 8.278 3.229 13.162 3.229 4.885 0 9.52-1.159 12.997-3.146 4.057-2.401 6.375-5.712 6.375-9.438a9.221 9.221 0 00-.994-4.139l92.055-57.286L640.079.911 638.424 0 531.882 64.323l117.138 64.653c-.993 1.49-1.49 3.063-1.49 4.802zm111.923 53.891c-2.484 1.491-6.043 2.318-9.769 2.318-3.725 0-7.367-.827-9.934-2.318-1.986-1.158-3.145-2.566-3.145-3.808 0-1.241 1.159-2.649 3.063-3.725 2.483-1.49 6.043-2.318 9.768-2.318 3.725 0 7.368.828 9.934 2.318 1.987 1.159 3.146 2.566 3.146 3.808.083 1.159-1.076 2.567-3.063 3.725zm-82.618-57.617c1.987 1.159 3.146 2.567 3.146 3.808 0 1.242-1.159 2.649-3.063 3.726-5.05 2.897-14.57 2.897-19.702-.083-1.987-1.159-3.146-2.566-3.146-3.808 0-.497.248-1.076.662-1.656l.497.249.91-1.656c.332-.248.663-.497 1.077-.745 2.483-1.49 6.043-2.318 9.768-2.318 3.642.165 7.285.993 9.851 2.483z"/>
    <path fill="url(#paint12_linear)" d="M971.212 115.069l-129.969 80.713 113.082 62.17-112.834 65.647 3.311 5.63 122.768-71.442-113.413-62.336 123.512-76.657-.082-.083a29.438 29.438 0 009.52 1.573c4.884 0 9.52-1.159 12.993-3.146 4.06-2.401 6.38-5.712 6.38-9.437 0-3.643-2.32-7.119-6.38-9.437-3.556-2.07-8.275-3.229-13.159-3.229s-9.52 1.16-12.997 3.146c-4.056 2.401-6.374 5.712-6.374 9.437-.083 2.649 1.242 5.298 3.642 7.451zm5.878-11.342c2.483-1.49 6.043-2.318 9.768-2.318 3.725 0 7.368.828 9.934 2.318 1.987 1.159 3.146 2.567 3.146 3.808 0 1.242-1.159 2.649-3.063 3.726-5.05 2.897-14.57 2.897-19.702 0-1.987-1.159-3.146-2.567-3.146-3.808 0-1.159 1.076-2.567 3.063-3.726z"/>
    <path fill="#000" d="M142.801 762.516L273.35 686.19c3.394 1.655 7.451 2.566 11.838 2.566 4.884 0 9.52-1.159 12.997-3.146 4.056-2.4 6.374-5.712 6.374-9.437 0-3.642-2.318-7.119-6.374-9.437-3.56-2.07-8.278-3.229-13.163-3.229-4.884 0-9.52 1.159-12.997 3.146-4.056 2.401-6.374 5.712-6.374 9.437 0 2.07.745 4.057 2.153 5.878l-125.086 73.015-69.62-40.233a8.195 8.195 0 00.745-3.477c0-3.642-2.318-7.119-6.375-9.437-3.56-2.07-8.278-3.229-13.162-3.229s-9.52 1.159-12.997 3.146c-4.057 2.401-6.375 5.712-6.375 9.437 0 3.643 2.318 7.12 6.375 9.438 3.56 2.069 8.278 3.228 13.162 3.228 4.885 0 9.52-1.159 12.997-3.146.497-.248.91-.579 1.325-.827l74.008 42.633zm129.307-86.426c0-1.241 1.159-2.649 3.063-3.725 2.484-1.49 6.043-2.318 9.769-2.318 3.725 0 7.367.828 9.934 2.318 1.986 1.159 3.145 2.566 3.145 3.808s-1.159 2.649-3.063 3.725c-5.049 2.898-14.569 2.898-19.702 0-.331-.165-.579-.414-.828-.579l-.662-1.076-.331.248c-.828-.745-1.325-1.573-1.325-2.401zm-227.57 38.826c-1.987-1.159-3.146-2.567-3.146-3.808 0-1.242 1.158-2.65 3.063-3.726 2.483-1.49 6.043-2.318 9.768-2.318 3.725 0 7.368.828 9.934 2.318 1.987 1.159 3.146 2.567 3.146 3.808 0 1.242-1.16 2.649-3.063 3.726-5.133 2.98-14.653 2.98-19.703 0z"/>
    <path fill="url(#paint13_linear)" d="M518.637 608.456l-.746-1.241c3.312 1.573 7.368 2.483 11.673 2.483 4.884 0 9.603-1.159 13.162-3.228 4.057-2.318 6.375-5.795 6.375-9.438 0-3.725-2.235-7.036-6.375-9.354-3.559-2.07-8.112-3.146-12.997-3.146-4.884 0-9.602 1.159-13.162 3.229-4.056 2.318-6.374 5.794-6.374 9.437 0 2.566 1.076 4.884 3.063 6.871L156.543 808.295c-.248-.166-.414-.331-.662-.414-3.56-2.069-8.279-3.228-13.163-3.228s-9.52 1.159-12.997 3.145c-4.056 2.401-6.374 5.712-6.374 9.438 0 3.642 2.318 7.119 6.374 9.437 3.56 2.069 8.278 3.228 13.163 3.228 4.884 0 9.52-1.159 12.997-3.145 4.056-2.401 6.374-5.712 6.374-9.438 0-1.407-.414-2.897-1.076-4.222l357.458-204.64zm1.324-15.149c2.566-1.49 6.209-2.318 9.934-2.318 3.725 0 7.285.828 9.768 2.318 1.987 1.159 3.063 2.484 3.063 3.725 0 1.242-1.159 2.649-3.145 3.808-5.05 2.981-14.57 2.981-19.703 0-1.987-1.159-3.063-2.483-3.063-3.725-.083-1.242 1.076-2.649 3.146-3.808zM152.735 821.044c-5.05 2.897-14.57 2.897-19.703 0-1.986-1.159-3.145-2.567-3.145-3.808 0-1.242 1.159-2.649 3.063-3.726 2.483-1.49 6.043-2.318 9.768-2.318 3.725 0 7.368.828 9.934 2.318 1.987 1.159 3.146 2.567 3.146 3.808 0 1.242-1.159 2.649-3.063 3.726z"/>
    <path fill="url(#paint14_linear)" d="M1048.78 591.155l82.78-49.339c2.98 1.076 6.38 1.656 9.85 1.656 4.89 0 9.52-1.159 13-3.146 4.06-2.401 6.38-5.712 6.38-9.437 0-3.643-2.32-7.12-6.38-9.438-3.56-2.069-8.28-3.228-13.16-3.228-4.89 0-9.52 1.159-13 3.145-4.05 2.401-6.37 5.713-6.37 9.438 0 2.649 1.24 5.132 3.39 7.202l-76.41 45.531-61.257-37.087c1.408-1.739 2.153-3.725 2.153-5.878 0-3.642-2.318-7.119-6.375-9.437-3.559-2.07-8.278-3.229-13.162-3.229s-9.52 1.159-12.997 3.146c-4.056 2.401-6.374 5.712-6.374 9.355 0 3.642 2.318 7.119 6.374 9.437 3.56 2.069 8.278 3.228 13.162 3.228 4.885 0 9.521-1.159 12.997-3.145.166-.083.249-.166.414-.249l-.91 1.49 65.895 39.985zm82.62-64.074c2.48-1.491 6.04-2.318 9.77-2.318 3.72 0 7.36.827 9.93 2.318 1.99 1.158 3.15 2.566 3.15 3.808 0 1.241-1.16 2.649-3.07 3.725-5.05 2.897-14.57 2.897-19.7 0-1.99-1.159-3.15-2.566-3.15-3.808s1.16-2.567 3.07-3.725zm-151.33 17.301c-5.05 2.898-14.57 2.898-19.702 0-1.987-1.159-3.146-2.566-3.146-3.808s1.159-2.649 3.063-3.725c2.483-1.49 6.043-2.318 9.768-2.318 3.726 0 7.368.828 9.934 2.318 1.987 1.159 3.146 2.566 3.146 3.808s-1.076 2.566-3.063 3.725z"/>
    <path fill="#000" d="M980.07 185.103c1.573-1.821 2.483-3.973 2.483-6.209 0-3.642-2.318-7.119-6.374-9.437-3.56-2.069-8.278-3.228-13.162-3.228-4.885 0-9.521 1.159-12.997 3.145-4.057 2.318-6.375 5.712-6.375 9.355 0 3.642 2.318 7.119 6.375 9.437 3.559 2.07 8.278 3.229 13.162 3.229 4.056 0 7.865-.828 11.093-2.235l58.275 34.52 106.46-64.405c.17.083.25.165.42.248 3.56 2.07 8.28 3.229 13.16 3.229 4.88 0 9.52-1.159 13-3.146 4.05-2.401 6.37-5.712 6.37-9.437 0-3.643-2.32-7.12-6.37-9.438-3.56-2.069-8.28-3.228-13.17-3.228-4.88 0-9.52 1.159-12.99 3.146-4.06 2.317-6.38 5.712-6.38 9.354 0 1.573.42 3.063 1.24 4.47l-101.74 61.508-52.48-30.878zm-26.822-2.483c-1.987-1.159-3.146-2.567-3.146-3.808 0-1.242 1.159-2.649 3.063-3.726 2.484-1.49 6.043-2.318 9.769-2.318 3.725 0 7.367.828 9.934 2.318 1.986 1.159 3.145 2.567 3.145 3.808 0 .911-.579 1.904-1.738 2.815l-.497-.331-.662 1.076c-.083.083-.166.083-.248.166-5.05 2.98-14.57 2.897-19.62 0zm189.242-36.259c2.48-1.49 6.04-2.318 9.77-2.318 3.72 0 7.37.828 9.93 2.318 1.99 1.159 3.15 2.566 3.15 3.808 0 1.241-1.16 2.649-3.06 3.725-5.05 2.897-14.57 2.897-19.71 0-1.98-1.159-3.14-2.566-3.14-3.808s1.07-2.649 3.06-3.725z"/>
    <path fill="url(#paint15_linear)" d="M996.461 299.51l117.219-71.277c2.9 1.076 6.21 1.656 9.69 1.656 4.88 0 9.52-1.159 12.99-3.146 4.06-2.401 6.38-5.712 6.38-9.437 0-3.643-2.32-7.12-6.38-9.437-3.56-2.07-8.27-3.229-13.16-3.229-4.88 0-9.52 1.159-12.99 3.146-4.06 2.4-6.38 5.712-6.38 9.437 0 2.649 1.24 5.215 3.48 7.285l-123.846 75.333 40.316 22.103-112.834 65.647 3.311 5.629 122.763-71.442-40.559-22.268zm116.889-86.012c2.48-1.49 6.04-2.318 9.77-2.318 3.72 0 7.37.828 9.93 2.318 1.99 1.159 3.15 2.566 3.15 3.808s-1.16 2.649-3.06 3.725c-5.05 2.897-14.57 2.897-19.71 0-1.98-1.159-3.14-2.566-3.14-3.808s1.07-2.566 3.06-3.725z"/>
    <path fill="url(#paint16_linear)" d="M723.525 366.729l122.767-71.441-189.573-103.314 109.108-68.048-83.776-44.62a8.904 8.904 0 001.158-4.387c0-3.643-2.317-7.12-6.374-9.438-3.56-2.07-8.278-3.228-13.162-3.228-4.885 0-9.52 1.159-12.997 3.146-4.057 2.4-6.375 5.712-6.375 9.437 0 3.642 2.318 7.12 6.375 9.437 3.559 2.07 8.278 3.229 13.162 3.229s9.52-1.16 12.997-3.146c.166-.083.248-.165.414-.248l75.581 40.232-109.025 67.965L832.964 295.37l-112.75 65.73 3.311 5.629zM653.904 78.727c-1.987-1.16-3.146-2.567-3.146-3.808 0-1.242 1.159-2.65 3.063-3.725 2.484-1.49 6.044-2.318 9.769-2.318 3.725 0 7.368.827 9.934 2.317 1.987 1.16 3.146 2.567 3.146 3.809 0 1.241-1.159 2.649-3.063 3.725-5.05 2.98-14.57 2.897-19.703 0z"/>
    <path fill="url(#paint17_linear)" d="M67.717 367.143c3.56 2.07 8.112 3.146 12.997 3.146 3.973 0 7.698-.745 10.927-2.152l168.133 98.595-39.902 23.427 150.003 88.827 49.091-27.898c3.145 1.324 6.871 2.069 10.761 2.069 4.885 0 9.603-1.159 13.163-3.228 4.056-2.318 6.374-5.795 6.374-9.438 0-3.725-2.235-7.036-6.374-9.354-3.56-2.07-8.113-3.146-12.997-3.146s-9.603 1.159-13.163 3.229c-4.056 2.318-6.374 5.794-6.374 9.437 0 2.318.911 4.553 2.649 6.457l-43.047 24.421-137.255-81.293 39.902-23.428L97.601 364.163c1.739-1.904 2.649-4.139 2.649-6.54 0-3.725-2.235-7.036-6.374-9.354-3.56-2.07-8.113-3.146-12.997-3.146s-9.603 1.159-13.162 3.229c-4.057 2.318-6.375 5.794-6.375 9.437.083 3.725 2.318 7.036 6.375 9.354zm352.325 169.623c2.566-1.49 6.209-2.318 9.934-2.318 3.725 0 7.285.828 9.768 2.318 1.987 1.159 3.063 2.484 3.063 3.725 0 1.242-1.159 2.649-3.146 3.808-5.049 2.981-14.569 2.981-19.702 0-1.987-1.159-3.063-2.483-3.063-3.725s1.159-2.649 3.146-3.808zM71.111 353.898c2.566-1.49 6.126-2.318 9.934-2.318 3.725 0 7.285.828 9.768 2.318 1.987 1.159 3.063 2.484 3.063 3.725 0 .994-.745 2.07-2.07 3.063v.083c-.33.248-.662.497-1.076.745-5.05 2.98-14.652 2.98-19.702 0-1.987-1.159-3.063-2.483-3.063-3.725-.083-1.325 1.076-2.732 3.146-3.891z"/>
    <path fill="url(#paint18_linear)" d="M201.329 387.094c3.559 2.07 8.112 3.146 12.997 3.146 4.718 0 9.271-1.076 12.748-2.98l141.311 86.425-58.279 34.769 57.286 33.279 16.887-10.182c3.395 1.738 7.699 2.732 12.17 2.732 4.884 0 9.602-1.159 13.162-3.229 4.056-2.318 6.374-5.795 6.374-9.437 0-3.725-2.235-7.037-6.374-9.355-3.56-2.069-8.113-3.145-12.997-3.145s-9.603 1.159-13.162 3.228c-4.057 2.318-6.375 5.795-6.375 9.437 0 1.904.663 3.808 1.822 5.464l-11.59 6.954-44.372-25.828 58.031-34.604-148.678-90.979c1.076-1.572 1.655-3.394 1.655-5.132 0-3.725-2.235-7.037-6.374-9.437-3.56-2.07-8.113-3.146-12.997-3.146s-9.603 1.159-13.163 3.228c-4.056 2.318-6.374 5.795-6.374 9.438 0 3.725 2.235 7.036 6.292 9.354zm185.434 130.88c2.566-1.49 6.209-2.318 9.934-2.318 3.725 0 7.285.828 9.768 2.318 1.987 1.159 3.063 2.484 3.063 3.726 0 1.241-1.159 2.649-3.145 3.808-5.05 2.98-14.57 2.98-19.703 0-1.987-1.159-3.063-2.484-3.063-3.726 0-1.241 1.159-2.649 3.146-3.808zM204.64 373.932c2.566-1.49 6.209-2.318 9.934-2.318 3.725 0 7.285.828 9.768 2.318 1.987 1.159 3.063 2.483 3.063 3.725s-1.159 2.649-3.145 3.808c-5.133 2.98-14.57 2.98-19.703.083-1.987-1.159-3.063-2.484-3.063-3.726 0-1.407 1.159-2.731 3.146-3.89z"/>
    <path fill="url(#paint19_linear)" d="M424.761 71.939c3.559 2.07 8.112 3.145 12.996 3.145 2.981 0 5.795-.496 8.362-1.241l110.184 62.335-99.671 55.382 232.207 136.593 3.311-5.63-222.438-130.797 99.919-55.465-116.476-65.895c2.649-2.236 4.222-4.967 4.222-7.947 0-3.726-2.235-7.037-6.374-9.355-3.56-2.07-8.113-3.146-12.997-3.146s-9.603 1.16-13.163 3.229c-4.056 2.318-6.374 5.795-6.374 9.437-.083 3.725 2.152 7.037 6.292 9.355zm3.311-13.246c2.566-1.49 6.209-2.318 9.934-2.318 3.725 0 7.285.828 9.768 2.318 1.987 1.16 3.063 2.484 3.063 3.726 0 1.241-1.159 2.649-3.146 3.808-5.049 2.98-14.569 2.98-19.702 0-1.987-1.16-3.063-2.484-3.063-3.726 0-1.241 1.159-2.649 3.146-3.808z"/>
    <path fill="url(#paint20_linear)" d="M172.272 257.621c3.559 2.07 8.113 3.146 12.997 3.146 3.642 0 7.202-.662 10.265-1.821l98.926 58.114-36.425 20.861L476.003 465.49l3.312-5.629-208.366-121.94 36.425-20.779-105.714-62.087c1.987-1.987 3.146-4.47 3.146-6.954 0-3.725-2.236-7.036-6.375-9.437-3.559-2.07-8.112-3.146-12.997-3.146-4.884 0-9.603 1.159-13.162 3.229-4.057 2.318-6.375 5.795-6.375 9.437 0 3.725 2.318 7.037 6.375 9.437zm3.311-13.245c2.566-1.49 6.126-2.318 9.934-2.318 3.725 0 7.285.828 9.768 2.318 1.987 1.159 3.063 2.483 3.063 3.725s-1.158 2.649-3.145 3.808c-5.05 2.98-14.57 2.98-19.703 0-1.986-1.159-3.063-2.483-3.063-3.725s1.159-2.649 3.146-3.808z"/>
    <path fill="#000" d="M310.189 126.079c3.559 2.069 8.112 3.146 12.996 3.146 4.885 0 9.521-1.159 13.08-3.146l57.452 33.693 1.655-2.815 1.573 2.815 43.213-24.256c2.815.911 5.878 1.49 9.106 1.49 4.884 0 9.603-1.159 13.163-3.228 4.056-2.318 6.374-5.795 6.374-9.438 0-3.725-2.235-7.036-6.374-9.437-3.56-2.07-8.113-3.146-12.997-3.146s-9.603 1.159-13.163 3.229c-4.056 2.318-6.374 5.795-6.374 9.437 0 2.732 1.242 5.298 3.56 7.368l-38.081 21.358-54.14-31.789c.911-1.49 1.49-3.146 1.49-4.884 0-3.725-2.235-7.037-6.374-9.437-3.56-2.07-8.113-3.146-12.997-3.146s-9.603 1.159-13.162 3.228c-4.057 2.318-6.375 5.795-6.375 9.438.083 3.808 2.318 7.119 6.375 9.52zm129.472-5.464c2.567-1.49 6.126-2.318 9.934-2.318 3.726 0 7.285.828 9.769 2.318 1.987 1.159 3.063 2.484 3.063 3.725 0 1.242-1.159 2.649-3.146 3.808-5.05 2.981-14.57 2.981-19.702 0-1.987-1.159-3.063-2.483-3.063-3.725s1.159-2.649 3.145-3.808zm-126.078-7.782c2.566-1.49 6.126-2.317 9.934-2.317 3.725 0 7.285.827 9.768 2.317 1.987 1.159 3.063 2.484 3.063 3.726 0 1.241-1.159 2.649-3.146 3.808-5.05 2.897-14.57 2.98-19.702.083-1.987-1.159-3.063-2.484-3.063-3.726-.083-1.324 1.076-2.732 3.146-3.891z"/>
    <path fill="url(#paint21_linear)" d="M1115.5 655.643l-162.583-88.826c2.236-2.07 3.477-4.554 3.477-7.285 0-3.643-2.318-7.12-6.374-9.438-3.56-2.069-8.278-3.228-13.162-3.228-4.885 0-9.521 1.159-12.997 3.146-4.057 2.4-6.375 5.712-6.375 9.354 0 3.642 2.318 7.119 6.375 9.437 3.559 2.07 8.278 3.229 13.162 3.229s9.52-1.159 12.997-3.146c0 0 .083 0 .083-.083l-1.656 2.98 167.143 91.31 114.32-66.061 97.85 54.637-119.95 73.595c-3.56-1.987-8.12-3.063-12.92-3.063-4.88 0-9.52 1.159-12.99 3.145-4.06 2.401-6.38 5.712-6.38 9.438 0 3.642 2.32 7.119 6.38 9.437 3.56 2.069 8.27 3.228 13.16 3.228 4.88 0 9.52-1.159 13-3.145 4.05-2.318 6.37-5.712 6.37-9.355 0-1.738-.58-3.477-1.57-5.05l127.73-78.313-110.76-61.839-114.33 65.896zm-168.709-92.386c-5.049 2.897-14.569 2.897-19.702 0-1.987-1.159-3.146-2.566-3.146-3.808s1.159-2.649 3.063-3.725c2.484-1.491 6.044-2.318 9.769-2.318 3.725 0 7.367.827 9.934 2.318 1.987 1.158 3.146 2.566 3.146 3.808 0 1.159-1.077 2.566-3.064 3.725zm261.179 171.609c0 1.242-1.16 2.649-3.06 3.726-2.48 1.49-6.04 2.318-9.77 2.318-3.72 0-7.37-.828-9.93-2.318-1.99-1.159-3.15-2.567-3.15-3.808 0-1.242 1.16-2.649 3.06-3.726 2.49-1.49 6.05-2.318 9.77-2.318 3.73 0 7.37.828 9.94 2.318.08.083.16.166.33.249l1.49 2.4.74-.414c.33.414.58.994.58 1.573z"/>
    <path fill="#000" d="M389.412 807.881c-3.559-2.069-8.113-3.146-12.997-3.146s-9.603 1.159-13.162 3.229c-4.057 2.318-6.375 5.795-6.375 9.437 0 3.725 2.236 7.037 6.375 9.437 3.559 2.07 8.112 3.146 12.997 3.146 4.801 0 9.354-1.076 12.831-3.063l79.886 49.091c-1.407 1.821-2.235 3.808-2.235 5.96 0 3.725 2.235 7.037 6.374 9.437 3.56 2.07 8.113 3.146 12.997 3.146s9.603-1.159 13.162-3.228c4.057-2.318 6.375-5.795 6.375-9.438 0-3.725-2.235-7.036-6.375-9.354-3.559-2.07-8.112-3.146-12.996-3.146-4.802 0-9.355 1.076-12.832 3.063l.58-.911-79.803-49.007c.993-1.573 1.573-3.312 1.573-5.05-.083-3.891-2.318-7.202-6.375-9.603zm-13.245 15.563c-3.725 0-7.285-.827-9.769-2.318-1.986-1.159-3.063-2.483-3.063-3.725s1.159-2.649 3.146-3.808c2.567-1.49 6.209-2.318 9.934-2.318 3.725 0 7.285.828 9.769 2.318 1.986 1.159 3.063 2.484 3.063 3.725 0 1.242-1.159 2.649-3.146 3.808-2.566 1.491-6.209 2.318-9.934 2.318zm100.168 54.637c2.566-1.49 6.208-2.318 9.934-2.318 3.725 0 7.284.828 9.768 2.318 1.987 1.159 3.063 2.484 3.063 3.725 0 1.242-1.159 2.65-3.146 3.809-5.05 2.98-14.57 2.98-19.702 0-1.987-1.159-3.063-2.484-3.063-3.726 0-1.241 1.159-2.649 3.146-3.808zM139.324 523.852c-3.559-2.07-8.113-3.146-12.997-3.146s-9.603 1.159-13.162 3.229c-4.057 2.318-6.375 5.795-6.375 9.437 0 3.725 2.236 7.037 6.375 9.437 3.559 2.07 8.112 3.146 12.997 3.146 4.801 0 9.354-1.076 12.831-3.063l79.886 49.091c-1.407 1.821-2.235 3.808-2.235 5.96 0 3.725 2.235 7.037 6.374 9.437 3.56 2.07 8.113 3.146 12.997 3.146s9.603-1.159 13.162-3.229c4.057-2.318 6.375-5.794 6.375-9.437 0-3.725-2.235-7.036-6.375-9.354-3.559-2.07-8.112-3.146-12.996-3.146-4.802 0-9.355 1.076-12.832 3.063l.58-.911-79.803-49.007c.993-1.573 1.573-3.312 1.573-5.05 0-3.891-2.236-7.285-6.375-9.603zm-13.162 15.563c-3.726 0-7.285-.828-9.769-2.318-1.987-1.159-3.063-2.483-3.063-3.725s1.159-2.649 3.146-3.808c2.566-1.49 6.209-2.318 9.934-2.318 3.725 0 7.285.828 9.768 2.318 1.987 1.159 3.063 2.484 3.063 3.725 0 1.242-1.159 2.649-3.145 3.808-2.649 1.408-6.209 2.318-9.934 2.318zm100.167 54.637c2.567-1.49 6.209-2.318 9.934-2.318 3.726 0 7.285.828 9.769 2.318 1.987 1.159 3.063 2.484 3.063 3.725 0 1.242-1.159 2.649-3.146 3.808-5.05 2.981-14.57 2.981-19.702 0-1.987-1.159-3.063-2.483-3.063-3.725 0-1.324 1.159-2.732 3.145-3.808zM307.54 274.343c3.559 2.07 8.112 3.146 12.997 3.146 4.801 0 9.354-1.076 12.831-3.063l28.809 17.302c-1.408 1.821-2.236 3.808-2.236 5.96 0 3.726 2.236 7.037 6.375 9.355 3.559 2.069 8.112 3.146 12.997 3.146 4.884 0 9.602-1.159 13.162-3.229 4.057-2.318 6.374-5.795 6.374-9.437 0-3.725-2.235-7.037-6.374-9.438-3.56-2.069-8.113-3.145-12.997-3.145-4.801 0-9.354 1.076-12.831 3.063l.579-.911-28.725-17.219c.993-1.573 1.572-3.311 1.572-5.05 0-3.725-2.235-7.036-6.374-9.437-3.56-2.069-8.113-3.146-12.997-3.146s-9.603 1.159-13.162 3.229c-4.057 2.318-6.375 5.795-6.375 9.437 0 3.725 2.318 7.037 6.375 9.437zm62.087 19.455c2.566-1.491 6.126-2.318 9.934-2.318 3.725 0 7.285.827 9.768 2.318 1.987 1.158 3.063 2.483 3.063 3.725 0 1.241-1.159 2.649-3.145 3.808-2.567 1.49-6.126 2.318-9.934 2.318-3.726 0-7.285-.828-9.769-2.318-1.987-1.159-3.063-2.484-3.063-3.725 0-1.242 1.159-2.65 3.146-3.808zm-58.776-32.7c2.566-1.49 6.126-2.318 9.934-2.318 3.725 0 7.285.828 9.768 2.318 1.987 1.159 3.063 2.484 3.063 3.725 0 1.242-1.159 2.649-3.145 3.808-5.05 2.981-14.57 2.981-19.703 0-1.987-1.159-3.063-2.483-3.063-3.725s1.159-2.649 3.146-3.808zM1316.67 499.679c4.88 0 9.52-1.159 12.99-3.146 4.06-2.4 6.38-5.712 6.38-9.437 0-3.642-2.32-7.119-6.38-9.437-3.56-2.07-8.27-3.229-13.16-3.229-4.88 0-9.52 1.159-13 3.146-4.05 2.401-6.37 5.712-6.37 9.437 0 1.739.58 3.477 1.57 5.05l-145.86 83.694.58.911c-3.56-1.987-8.11-3.063-12.83-3.063-4.89 0-9.52 1.159-13 3.145-4.06 2.401-6.37 5.712-6.37 9.438 0 3.642 2.31 7.119 6.37 9.437 3.56 2.07 8.28 3.229 13.16 3.229 4.89 0 9.52-1.159 13-3.146 4.06-2.401 6.37-5.712 6.37-9.438 0-2.069-.82-4.139-2.23-5.96l145.95-83.694c3.47 1.987 8.02 3.063 12.83 3.063zm-10.02-16.391c2.48-1.49 6.04-2.318 9.77-2.318 3.72 0 7.37.828 9.93 2.318 1.99 1.159 3.15 2.566 3.15 3.808s-1.16 2.649-3.07 3.725c-5.04 2.898-14.57 2.898-19.7-.082-1.98-1.159-3.14-2.567-3.14-3.808 0-1.159 1.16-2.484 3.06-3.643zm-156.13 106.79c-5.05 2.898-14.57 2.898-19.7 0-1.99-1.158-3.15-2.566-3.15-3.808 0-1.241 1.16-2.649 3.07-3.725 2.48-1.49 6.04-2.318 9.76-2.318 3.73 0 7.37.828 9.94 2.318 1.98 1.159 3.14 2.566 3.14 3.808s-1.16 2.567-3.06 3.725zM1242.24 429.148c4.89 0 9.52-1.159 13-3.146 4.06-2.4 6.38-5.712 6.38-9.437 0-3.642-2.32-7.119-6.38-9.437-3.56-2.07-8.28-3.229-13.16-3.229-4.88 0-9.52 1.159-13 3.146-4.05 2.401-6.37 5.712-6.37 9.437 0 1.739.58 3.477 1.57 5.05l-72.02 42.054.58.91c-3.56-1.986-8.11-3.062-12.83-3.062-4.89 0-9.52 1.158-13 3.145-4.06 2.401-6.37 5.712-6.37 9.438 0 3.642 2.31 7.119 6.37 9.437 3.56 2.069 8.28 3.228 13.16 3.228 4.89 0 9.52-1.159 13-3.145 4.06-2.401 6.37-5.712 6.37-9.438 0-2.069-.82-4.139-2.23-5.96l72.19-42.137c3.39 2.07 7.94 3.146 12.74 3.146zm-10.01-16.474c2.48-1.49 6.04-2.318 9.77-2.318 3.72 0 7.36.828 9.93 2.318 1.99 1.159 3.15 2.566 3.15 3.808s-1.16 2.649-3.07 3.725c-5.05 2.898-14.57 2.898-19.7-.082-1.99-1.159-3.14-2.567-3.14-3.808 0-1.077 1.07-2.484 3.06-3.643zm-82.37 65.233c-5.05 2.898-14.57 2.898-19.7 0-1.99-1.159-3.15-2.566-3.15-3.808 0-1.241 1.16-2.649 3.06-3.725 2.49-1.49 6.05-2.318 9.77-2.318 3.73 0 7.37.828 9.94 2.318 1.98 1.159 3.14 2.566 3.14 3.808 0 1.159-1.16 2.566-3.06 3.725z"/>
    <path fill="url(#paint22_linear)" d="M596.784 425.257l3.311-5.629-176.576-103.065 64.902-40.15L340.57 190.07c1.49-1.821 2.235-3.891 2.235-5.96 0-3.725-2.235-7.037-6.374-9.355-3.56-2.069-8.113-3.146-12.997-3.146s-9.603 1.159-13.162 3.229c-4.057 2.318-6.375 5.795-6.375 9.437 0 3.726 2.235 7.037 6.375 9.438 3.559 2.069 8.112 3.145 12.996 3.145 4.222 0 8.279-.91 11.59-2.483l140.98 82.286-64.902 40.15 185.848 108.446zM313.5 187.918c-1.987-1.159-3.063-2.484-3.063-3.725 0-1.242 1.159-2.65 3.146-3.808 2.566-1.491 6.209-2.318 9.934-2.318 3.725 0 7.285.827 9.768 2.318 1.987 1.158 3.063 2.483 3.063 3.725 0 1.241-1.159 2.649-3.146 3.808-5.132 2.897-14.652 2.897-19.702 0z"/>
    <path fill="#000" d="M350.504 756.638c-3.56-2.069-8.278-3.228-13.162-3.228-4.885 0-9.52 1.159-12.997 3.145-4.057 2.401-6.375 5.712-6.375 9.438 0 1.821.58 3.642 1.656 5.215l-104.555 59.025 71.607 39.073c-.91 1.49-1.407 3.146-1.407 4.802 0 3.642 2.318 7.119 6.374 9.437 3.56 2.069 8.279 3.228 13.163 3.228s9.52-1.159 12.997-3.145c4.056-2.401 6.374-5.712 6.374-9.438 0-3.642-2.318-7.119-6.374-9.437-3.56-2.07-8.279-3.229-13.163-3.229-4.801 0-9.354 1.077-12.831 3.064l-63.247-34.521 96.443-54.389c3.477 1.904 7.947 2.898 12.583 2.898 4.884 0 9.52-1.159 12.997-3.146 4.056-2.401 6.374-5.712 6.374-9.437-.083-3.56-2.401-6.954-6.457-9.355zm-36.011 113.827c1.987 1.159 3.146 2.566 3.146 3.808s-1.159 2.649-3.063 3.725c-2.483 1.49-6.043 2.318-9.768 2.318-3.725 0-7.368-.828-9.934-2.318-1.987-1.159-3.146-2.566-3.146-3.808 0-.579.248-1.159.662-1.738l.166-.331a7.235 7.235 0 012.235-1.739c2.484-1.49 6.043-2.318 9.768-2.318 3.726.083 7.368.911 9.934 2.401zm32.783-100.581c-5.05 2.897-14.57 2.897-19.703 0-1.987-1.159-3.146-2.567-3.146-3.808 0-1.242 1.159-2.65 3.063-3.726 2.484-1.49 6.044-2.318 9.769-2.318 3.725 0 7.367.828 9.934 2.318 1.987 1.159 3.146 2.567 3.146 3.808.082 1.242-1.077 2.567-3.063 3.726z"/>
    <path fill="url(#paint23_linear)" d="M933.463 422.36l3.312 5.546 308.535-184.275-.75-1.242c3.48 1.821 7.78 2.815 12.34 2.815 4.88 0 9.52-1.159 12.99-3.146 4.06-2.401 6.38-5.712 6.38-9.437 0-3.643-2.32-7.12-6.38-9.438-3.56-2.069-8.27-3.228-13.16-3.228-4.88 0-9.52 1.159-13 3.146-4.05 2.4-6.37 5.712-6.37 9.437 0 2.401.99 4.719 2.82 6.623L933.463 422.36zm313.417-193.63c2.48-1.49 6.04-2.318 9.77-2.318 3.72 0 7.37.828 9.93 2.318 1.99 1.159 3.15 2.566 3.15 3.808s-1.16 2.649-3.06 3.725c-5.05 2.898-14.57 2.898-19.71 0-1.98-1.159-3.14-2.566-3.14-3.808s1.07-2.649 3.06-3.725z"/>
    <g fill="#30406D" opacity=".2">
      <path d="M665.246 352.408L411.267 499.431c-12.997 7.533-22.517 20.944-23.096 34.107-.663 15.232 7.864 29.967 25 39.901l232.786 134.357c13.163 7.616 29.802 11.755 46.442 11.673 10.182 0 19.619-1.656 27.981-4.719 3.394-1.242 7.284-3.063 10.182-4.719L984.044 563.34c12.997-7.534 22.436-20.862 23.016-34.107.66-15.232-7.867-29.968-25.003-39.902L750.43 355.719c-4.884-2.814-11.507-5.794-17.219-7.616a99.236 99.236 0 00-29.388-4.718c-14.653-.166-28.064 2.98-38.577 9.023z" opacity=".091"/>
      <path d="M667.398 353.484l-247.77 143.381c-11.755 6.788-22.599 20.53-23.593 32.368-1.242 14.653 5.878 29.222 22.931 39.074L648.358 700.76c12.832 7.45 29.057 11.424 45.283 11.258 9.934-.083 19.123-1.821 27.153-4.801 3.063-1.159 7.202-3.146 9.934-4.719L977.339 559.78c11.755-6.788 22.434-20.365 23.431-32.286 1.24-14.652-5.881-29.222-22.935-38.99L750.844 357.458c-4.388-2.566-11.673-5.961-16.805-7.616-9.023-2.98-18.792-4.802-28.726-4.967-14.404-.249-27.649 2.732-37.915 8.609z" opacity=".182"/>
      <path d="M669.55 354.56L427.989 494.298c-10.431 6.044-22.682 20.117-24.09 30.547-1.904 14.156 3.891 28.395 20.779 38.163l226.081 130.55c12.5 7.202 28.312 11.093 44.04 10.844 9.603-.083 18.627-1.904 26.408-4.801 2.732-.994 7.202-3.229 9.603-4.636l239.823-138.828c10.431-6.043 22.434-19.95 23.841-30.464 1.904-14.156-3.89-28.394-20.778-38.163L751.175 359.196c-3.891-2.235-11.838-6.126-16.391-7.616-8.775-2.98-18.378-4.967-28.064-5.215-14.073-.414-27.153 2.401-37.17 8.195z" opacity=".273"/>
      <path d="M671.703 355.637L436.35 491.815c-9.106 5.298-24.669 19.537-24.669 28.808-5.05 13.08 1.904 27.567 18.709 37.336l222.769 128.645c12.169 7.036 27.567 10.679 42.799 10.43 9.355-.165 18.047-1.986 25.58-4.884 2.318-.91 7.202-3.394 9.272-4.553l233.035-134.854c9.106-5.298 24.338-19.371 24.338-28.643 5.05-13.079-1.904-27.566-18.709-37.335l-217.968-125.83c-3.477-1.987-12.004-6.209-15.977-7.616-8.527-2.981-17.882-5.133-27.402-5.464-13.742-.58-26.656 2.069-36.424 7.782z" opacity=".364"/>
      <path d="M673.855 356.713L444.712 489.249c-7.782 4.47-25.166 19.122-25.166 26.987-6.292 12.335-.166 26.822 16.556 36.424l219.541 126.742c11.838 6.788 26.905 10.347 41.557 10.016 9.106-.165 17.55-2.069 24.752-4.967 1.987-.827 7.203-3.477 8.941-4.47l226.247-130.88c7.781-4.47 24.752-18.875 24.752-26.822 6.291-12.335.165-26.822-16.557-36.425L751.837 362.59c-2.98-1.738-12.252-6.374-15.563-7.616-8.361-2.98-17.467-5.298-26.739-5.712-13.411-.579-26.159 1.904-35.68 7.451z" opacity=".455"/>
      <path d="M675.925 357.706L453.073 486.682c-6.54 3.726-25.663 18.627-25.663 25.249-7.533 11.59-2.153 25.994 14.487 35.597l216.147 124.837c11.507 6.623 26.159 10.017 40.315 9.603 8.858-.248 16.971-2.152 24.007-5.05 1.656-.662 7.203-3.56 8.693-4.47l219.375-126.907c6.54-3.725 25.166-18.378 25.166-25 7.533-11.59 2.153-25.994-14.487-35.597L752.251 364.329c-2.483-1.408-12.417-6.54-15.149-7.616-8.113-2.98-16.971-5.464-26.077-5.961-13.162-.745-25.745 1.573-35.1 6.954z" opacity=".545"/>
      <path d="M678.077 358.782l-216.56 125.334c-5.216 2.98-26.243 18.212-26.243 23.51-8.858 10.928-4.139 25.249 12.335 34.687l212.836 122.85c11.093 6.457 25.414 9.603 39.073 9.189 8.61-.249 16.474-2.318 23.18-5.05 1.324-.579 7.202-3.725 8.361-4.387l212.67-122.933c5.215-2.981 25.662-17.882 25.662-23.18 8.858-10.927 4.14-25.249-12.334-34.686L752.582 366.067c-1.987-1.159-12.583-6.788-14.818-7.616-7.864-2.98-16.474-5.629-25.414-6.209-12.749-.91-25.166 1.325-34.273 6.54z" opacity=".636"/>
      <path d="M680.23 359.858L469.878 481.633c-3.891 2.235-26.739 17.715-26.739 21.689-10.1 10.182-6.126 24.421 10.265 33.858l209.442 120.946c10.761 6.209 24.669 9.272 37.914 8.775 8.279-.331 15.895-2.4 22.352-5.132.993-.414 7.202-3.808 8.03-4.305l205.881-119.125c3.891-2.235 26.077-17.384 26.077-21.358 10.1-10.182 6.126-24.421-10.265-33.858l-199.921-115.4c-1.49-.828-12.749-6.954-14.405-7.616-7.616-3.063-16.06-5.795-24.752-6.457-12.5-.911-24.669 1.076-33.527 6.208z" opacity=".727"/>
      <path d="M682.382 360.935L478.239 479.066c-2.567 1.49-27.236 17.302-27.236 19.951-11.341 9.437-8.113 23.593 8.113 33.031L665.329 651.09c10.43 6.043 24.007 8.94 36.673 8.361 8.03-.331 15.397-2.484 21.606-5.215.662-.249 7.119-3.891 7.782-4.222l198.928-115.235c2.566-1.49 26.49-16.887 26.49-19.454 11.342-9.437 8.113-23.593-8.112-33.03L753.244 369.461c-.993-.579-12.831-7.119-13.99-7.616-7.45-3.063-15.563-5.96-24.09-6.705-12.169-1.076-24.172.828-32.782 5.795z" opacity=".818"/>
      <path d="M684.534 362.011L486.6 476.5c-1.325.745-27.815 16.805-27.815 18.13-12.583 8.775-10.183 22.848 6.043 32.119l202.901 117.139c10.1 5.794 23.263 8.526 35.432 7.947 7.781-.414 14.818-2.567 20.778-5.216.331-.165 7.12-4.056 7.451-4.221l192.305-111.261c1.325-.745 26.987-16.391 26.987-17.633 12.583-8.775 10.183-22.848-6.043-32.12L753.658 371.2c-.496-.249-12.997-7.368-13.576-7.616-7.202-3.063-15.149-6.126-23.51-6.954-11.838-1.242-23.676.497-32.038 5.381z" opacity=".909"/>
      <path d="M724.271 639.086l219.954-127.32c13.908-8.03 12.17-22.021-3.89-31.292L740.827 365.322c-16.06-9.272-40.315-10.265-54.14-2.235L466.649 490.325c-13.907 8.03-12.169 22.02 3.891 31.292l199.59 115.234c15.977 9.272 40.233 10.265 54.141 2.235z" opacity=".2"/>
    </g>
    <path fill="url(#paint24_linear)" d="M1000.35 450.92h-5.958c-3.063-3.891-7.202-7.45-12.583-10.596L749.023 305.967c-27.567-15.895-75.664-13.908-107.453 4.47L426.334 434.612c-8.444 4.884-14.818 10.43-19.206 16.225h-7.036v18.544h.165c.911 9.189 6.871 17.964 18.378 24.586l232.704 134.357c27.566 15.895 75.663 13.908 107.452-4.47l215.236-124.257c15.067-8.693 23.759-19.537 25.746-30.216h.577V450.92z"/>
    <path fill="url(#paint25_linear)" d="M651.338 614.251L418.635 479.894c-27.567-15.894-24.09-43.709 7.699-62.004L641.57 293.632c31.789-18.378 79.886-20.365 107.453-4.47l232.703 134.357c27.564 15.894 24.094 43.709-7.699 62.004L758.791 609.781c-31.789 18.378-79.886 20.365-107.453 4.47z"/>
    <path fill="url(#paint26_linear)" d="M992.819 418.8h-5.878c-2.98-3.808-7.036-7.285-12.334-10.348l-227.24-131.211c-26.905-15.563-73.843-13.577-104.969 4.387L432.294 402.989c-8.278 4.801-14.487 10.182-18.792 15.894h-6.871v32.451h.166c.828 9.023 6.705 17.55 17.964 24.007l227.24 131.211c26.904 15.564 73.842 13.577 104.969-4.387l210.186-121.36c14.736-8.527 23.18-19.123 25.166-29.554h.497V418.8z"/>
    <path fill="url(#paint27_linear)" d="M999.856 397.276h-5.961c-3.063-3.89-7.202-7.45-12.583-10.596L748.526 252.323c-27.567-15.894-75.664-13.907-107.453 4.47L425.837 381.051c-8.444 4.884-14.818 10.431-19.206 16.225h-7.036v38.991h.165c.911 9.189 6.871 17.964 18.378 24.587l232.704 134.357c27.567 15.894 75.664 13.908 107.452-4.47l215.237-124.258c15.066-8.692 23.758-19.537 25.745-30.216h.58v-38.991z"/>
    <path fill="url(#paint28_linear)" d="M650.842 560.608L418.138 426.251c-27.567-15.895-24.09-43.71 7.699-62.005l215.236-124.258c31.789-18.377 79.886-20.364 107.453-4.47l232.703 134.357c27.571 15.895 24.091 43.71-7.698 62.005L758.294 556.22c-31.789 18.295-79.886 20.282-107.452 4.388z"/>
    <path fill="url(#paint29_linear)" d="M661.852 524.018L481.633 419.876c-21.358-12.334-18.626-33.858 5.96-48.014l166.725-96.277c24.67-14.238 61.922-15.729 83.198-3.477l180.219 104.059c21.358 12.335 18.626 33.858-5.961 48.014l-166.642 96.36c-24.67 14.238-61.922 15.729-83.28 3.477z"/>
    <path fill="#8594BE" d="M697.945 279.062l9.355-5.381-9.272-5.298-9.354 5.381 9.271 5.298z" opacity=".2"/>
    <path fill="#8594BE" d="M680.395 289.244l9.355-5.38-9.272-5.381-9.354 5.381 9.271 5.38z" opacity=".5"/>
    <path fill="#8594BE" d="M662.928 299.344l9.272-5.381-9.272-5.381-9.272 5.381 9.272 5.381zM645.378 309.444l9.355-5.381-9.272-5.381-9.355 5.381 9.272 5.381z"/>
    <path fill="#8594BE" d="M627.828 319.543l9.354-5.381-9.271-5.298-9.355 5.381 9.272 5.298z" opacity=".5"/>
    <path fill="#8594BE" d="M610.278 329.725l9.355-5.38-9.272-5.381-9.355 5.381 9.272 5.38zM592.81 339.825l9.272-5.381-9.272-5.381-9.271 5.381 9.271 5.381z"/>
    <path fill="#8594BE" d="M575.261 349.925l9.354-5.381-9.271-5.381-9.355 5.463 9.272 5.299z" opacity=".5"/>
    <path fill="#8594BE" d="M557.711 360.107l9.354-5.464-9.272-5.298-9.354 5.381 9.272 5.381zM540.161 370.206l9.354-5.381-9.272-5.38-9.354 5.38 9.272 5.381z"/>
    <path fill="#8594BE" d="M522.693 380.306l9.272-5.381-9.272-5.381-9.354 5.381 9.354 5.381zM505.143 390.406l9.272-5.381-9.272-5.298-9.271 5.38 9.271 5.299z" opacity=".5"/>
    <path fill="#8594BE" d="M487.594 400.588l9.354-5.381-9.272-5.381-9.354 5.381 9.272 5.381z"/>
    <path fill="#8594BE" d="M714.502 288.665l9.355-5.381-9.272-5.381-9.355 5.381 9.272 5.381zM697.035 298.765l9.271-5.381-9.271-5.381-9.272 5.463 9.272 5.299zM679.485 308.864l9.355-5.381-9.272-5.298-9.355 5.381 9.272 5.298zM661.935 319.046l9.354-5.381-9.272-5.38-9.354 5.38 9.272 5.381z" opacity=".5"/>
    <path fill="#8594BE" d="M644.385 329.146l9.354-5.381-9.272-5.381-9.354 5.381 9.272 5.381z"/>
    <path fill="#8594BE" d="M626.917 339.246l9.272-5.381-9.272-5.298-9.271 5.38 9.271 5.299z" opacity=".5"/>
    <path fill="#8594BE" d="M609.367 349.428l9.272-5.464-9.272-5.298-9.271 5.381 9.271 5.381z" opacity=".2"/>
    <path fill="#8594BE" d="M591.817 359.527l9.355-5.381-9.272-5.38-9.355 5.38 9.272 5.381z"/>
    <path fill="#8594BE" d="M539.25 389.909l9.272-5.381-9.272-5.381-9.272 5.381 9.272 5.381zM521.7 400.008l9.354-5.381-9.271-5.38-9.355 5.38 9.272 5.381zM504.15 410.108l9.354-5.381-9.272-5.381-9.354 5.381 9.272 5.381z" opacity=".5"/>
    <path fill="#8594BE" d="M731.142 298.185l9.271-5.381-9.271-5.298-9.272 5.381 9.272 5.298z"/>
    <path fill="#8594BE" d="M713.592 308.367l9.354-5.381-9.354-5.38-9.272 5.38 9.272 5.381z" opacity=".5"/>
    <path fill="#88E7D0" d="M696.041 318.467l9.355-5.381-9.272-5.381-9.354 5.381 9.271 5.381z" opacity=".2"/>
    <path fill="#88E7D0" d="M678.491 328.566l9.355-5.38-9.272-5.299-9.354 5.381 9.271 5.298zM660.941 338.749l9.355-5.464-9.272-5.298-9.355 5.381 9.272 5.381z"/>
    <path fill="#8594BE" d="M643.474 348.848l9.272-5.381-9.272-5.38-9.272 5.38 9.272 5.381z" opacity=".5"/>
    <path fill="#8594BE" d="M625.924 358.948l9.355-5.381-9.272-5.381-9.355 5.381 9.272 5.381zM608.374 369.047l9.355-5.38-9.272-5.299-9.355 5.381 9.272 5.298z" opacity=".2"/>
    <path fill="#88E7D0" d="M590.824 379.23l9.354-5.381-9.271-5.381-9.355 5.381 9.272 5.381zM573.356 389.329l9.272-5.381-9.272-5.38-9.271 5.38 9.271 5.381z"/>
    <path fill="#88E7D0" d="M555.807 399.429l9.354-5.381-9.271-5.381-9.355 5.381 9.272 5.381z" opacity=".2"/>
    <path fill="#8594BE" d="M538.257 409.528l9.354-5.38-9.272-5.299-9.354 5.381 9.272 5.298z" opacity=".5"/>
    <path fill="#8594BE" d="M520.707 419.711l9.354-5.381-9.272-5.381-9.354 5.381 9.272 5.381z"/>
    <path fill="#8594BE" d="M747.698 307.788l9.272-5.381-9.272-5.381-9.272 5.381 9.272 5.381z" opacity=".5"/>
    <path fill="#88E7D0" d="M712.598 328.07l9.355-5.381-9.272-5.381-9.355 5.381 9.272 5.381zM695.048 338.169l9.354-5.381-9.272-5.38-9.354 5.38 9.272 5.381z"/>
    <path fill="#88E7D0" d="M677.581 348.269l9.272-5.381-9.272-5.381-9.272 5.381 9.272 5.381z" opacity=".5"/>
    <path fill="#8594BE" d="M660.031 358.368l9.354-5.38-9.271-5.299-9.355 5.381 9.272 5.298z" opacity=".2"/>
    <path fill="#88E7D0" d="M607.463 388.75l9.272-5.381-9.272-5.381-9.354 5.464 9.354 5.298z" opacity=".5"/>
    <path fill="#88E7D0" d="M589.913 398.849l9.272-5.38-9.272-5.299-9.271 5.381 9.271 5.298zM572.363 409.032l9.355-5.381-9.272-5.381-9.355 5.381 9.272 5.381z"/>
    <path fill="#8594BE" d="M537.263 429.231l9.355-5.381-9.272-5.298-9.354 5.381 9.271 5.298zM764.255 317.391l9.354-5.381-9.272-5.381-9.354 5.381 9.272 5.381z"/>
    <path fill="#88E7D0" d="M729.155 337.59l9.354-5.381-9.272-5.381-9.354 5.381 9.272 5.381zM711.687 347.689l9.272-5.381-9.272-5.298-9.271 5.381 9.271 5.298zM694.137 357.872l9.355-5.381-9.355-5.381-9.271 5.381 9.271 5.381z"/>
    <path fill="#8594BE" d="M676.587 367.971l9.355-5.381-9.272-5.381-9.354 5.381 9.271 5.381z" opacity=".2"/>
    <path fill="#88E7D0" d="M624.02 398.353l9.272-5.381-9.272-5.381-9.271 5.381 9.271 5.381z" opacity=".7"/>
    <path fill="#88E7D0" d="M606.47 408.452l9.354-5.381-9.272-5.381-9.354 5.381 9.272 5.381z"/>
    <path fill="#88E7D0" d="M588.92 418.552l9.354-5.381-9.271-5.298-9.355 5.381 9.272 5.298z" opacity=".7"/>
    <path fill="#8594BE" d="M571.37 428.734l9.354-5.464-9.271-5.298-9.355 5.381 9.272 5.381z" opacity=".2"/>
    <path fill="#8594BE" d="M553.903 438.834l9.271-5.381-9.271-5.381-9.272 5.381 9.272 5.381zM780.811 326.911l9.355-5.381-9.272-5.381-9.354 5.381 9.271 5.381z" opacity=".5"/>
    <path fill="#8594BE" d="M763.261 337.01l9.355-5.381-9.272-5.298-9.354 5.381 9.271 5.298z" opacity=".2"/>
    <path fill="#88E7D0" d="M728.244 357.292l9.272-5.381-9.272-5.381-9.272 5.381 9.272 5.381zM710.694 367.392l9.354-5.381-9.271-5.381-9.355 5.464 9.272 5.298zM640.576 407.873l9.355-5.381-9.272-5.298-9.354 5.381 9.271 5.298zM623.027 418.055l9.354-5.381-9.272-5.381-9.354 5.381 9.272 5.381z"/>
    <path fill="#8594BE" d="M588.01 438.254l9.271-5.381-9.271-5.381-9.355 5.381 9.355 5.381z" opacity=".2"/>
    <path fill="#8594BE" d="M570.459 448.354l9.272-5.381-9.272-5.298-9.271 5.381 9.271 5.298z" opacity=".5"/>
    <path fill="#8594BE" d="M797.368 336.514l9.354-5.381-9.271-5.381-9.355 5.381 9.272 5.381z"/>
    <path fill="#8594BE" d="M779.818 346.613l9.354-5.381-9.271-5.381-9.355 5.381 9.272 5.381z" opacity=".2"/>
    <path fill="#88E7D0" d="M744.801 366.895l9.354-5.464-9.271-5.298-9.355 5.381 9.272 5.381zM727.251 376.995l9.354-5.381-9.272-5.381-9.354 5.381 9.272 5.381zM709.7 387.094l9.355-5.381-9.272-5.381-9.354 5.381 9.271 5.381zM674.683 407.376l9.355-5.381-9.355-5.381-9.271 5.381 9.271 5.381zM657.133 417.476l9.355-5.381-9.272-5.381-9.354 5.381 9.271 5.381zM639.583 427.575l9.355-5.381-9.272-5.381-9.354 5.381 9.271 5.381z"/>
    <path fill="#8594BE" d="M604.566 447.857l9.272-5.381-9.272-5.381-9.272 5.381 9.272 5.381z"/>
    <path fill="#8594BE" d="M587.016 457.957l9.354-5.381-9.272-5.381-9.354 5.381 9.272 5.381z" opacity=".5"/>
    <path fill="#8594BE" d="M813.925 346.034l9.354-5.381-9.271-5.298-9.355 5.381 9.272 5.298z"/>
    <path fill="#8594BE" d="M796.457 356.216l9.272-5.464-9.272-5.298-9.271 5.381 9.271 5.381z" opacity=".2"/>
    <path fill="#88E7D0" d="M743.807 386.515l9.355-5.381-9.272-5.298-9.354 5.381 9.271 5.298zM726.257 396.697l9.355-5.381-9.272-5.381-9.354 5.381 9.271 5.381zM708.79 406.797l9.272-5.381-9.272-5.381-9.272 5.381 9.272 5.381zM691.24 416.896l9.354-5.381-9.271-5.381-9.355 5.381 9.272 5.381zM673.69 426.996l9.355-5.381-9.272-5.298-9.355 5.381 9.272 5.298z"/>
    <path fill="#8594BE" d="M621.123 457.377l9.354-5.381-9.272-5.381-9.354 5.464 9.272 5.298z" opacity=".5"/>
    <path fill="#8594BE" d="M603.572 467.559l9.355-5.463-9.272-5.298-9.354 5.381 9.271 5.38z"/>
    <path fill="#8594BE" d="M830.564 355.637l9.272-5.381-9.272-5.381-9.355 5.381 9.355 5.381z" opacity=".5"/>
    <path fill="#88E7D0" d="M742.896 406.217l9.272-5.381-9.272-5.381-9.271 5.464 9.271 5.298z" opacity=".5"/>
    <path fill="#88E7D0" d="M725.347 416.317l9.354-5.381-9.272-5.298-9.354 5.38 9.272 5.299zM707.797 426.499l9.354-5.381-9.272-5.381-9.354 5.381 9.272 5.381z"/>
    <path fill="#8594BE" d="M637.679 466.98l9.355-5.381-9.272-5.381-9.354 5.381 9.271 5.381z" opacity=".2"/>
    <path fill="#8594BE" d="M620.129 477.08l9.355-5.381-9.272-5.381-9.355 5.381 9.272 5.381z"/>
    <path fill="#8594BE" d="M847.121 365.157l9.271-5.381-9.271-5.298-9.272 5.381 9.272 5.298z" opacity=".5"/>
    <path fill="#88E7D0" d="M759.453 415.82l9.355-5.381-9.272-5.381-9.354 5.381 9.271 5.381z" opacity=".2"/>
    <path fill="#88E7D0" d="M741.903 425.92l9.355-5.381-9.272-5.381-9.355 5.381 9.272 5.381z"/>
    <path fill="#88E7D0" d="M724.353 436.019l9.355-5.381-9.272-5.298-9.355 5.381 9.272 5.298z" opacity=".5"/>
    <path fill="#8594BE" d="M654.236 476.5l9.354-5.381-9.271-5.298-9.355 5.381 9.272 5.298z" opacity=".5"/>
    <path fill="#8594BE" d="M636.686 486.682l9.354-5.381-9.271-5.38-9.355 5.38 9.272 5.381zM863.678 374.759l9.354-5.38-9.272-5.381-9.354 5.381 9.272 5.38z"/>
    <path fill="#8594BE" d="M846.127 384.859l9.355-5.381-9.272-5.381-9.355 5.464 9.272 5.298zM811.11 405.141l9.272-5.381-9.272-5.381-9.355 5.381 9.355 5.381z" opacity=".2"/>
    <path fill="#88E7D0" d="M776.01 425.34l9.354-5.381-9.271-5.298-9.355 5.381 9.272 5.298z" opacity=".7"/>
    <path fill="#88E7D0" d="M758.46 435.522l9.354-5.381-9.271-5.381-9.355 5.381 9.272 5.381z"/>
    <path fill="#88E7D0" d="M740.91 445.622l9.354-5.381-9.271-5.381-9.355 5.381 9.272 5.381z" opacity=".7"/>
    <path fill="#8594BE" d="M705.893 465.821l9.354-5.381-9.271-5.298-9.355 5.381 9.272 5.298z" opacity=".5"/>
    <path fill="#8594BE" d="M670.793 486.103l9.354-5.381-9.271-5.381-9.355 5.381 9.272 5.381z" opacity=".2"/>
    <path fill="#8594BE" d="M653.325 496.202l9.272-5.381-9.272-5.38-9.354 5.463 9.354 5.298zM880.234 384.362l9.355-5.463-9.272-5.298-9.355 5.38 9.272 5.381z"/>
    <path fill="#8594BE" d="M862.684 394.462l9.354-5.381-9.271-5.381-9.355 5.381 9.272 5.381z" opacity=".5"/>
    <path fill="#8594BE" d="M845.134 404.561l9.354-5.38-9.272-5.381-9.354 5.381 9.272 5.38z" opacity=".2"/>
    <path fill="#88E7D0" d="M792.566 434.943l9.355-5.381-9.272-5.381-9.354 5.381 9.271 5.381zM775.016 445.042l9.355-5.38-9.272-5.381-9.354 5.381 9.271 5.38zM757.549 455.142l9.272-5.381-9.272-5.298-9.271 5.381 9.271 5.298z"/>
    <path fill="#8594BE" d="M704.899 485.523l9.355-5.38-9.272-5.381-9.355 5.463 9.272 5.298z" opacity=".2"/>
    <path fill="#8594BE" d="M687.349 495.623l9.355-5.381-9.272-5.298-9.354 5.381 9.271 5.298zM669.882 505.805l9.272-5.381-9.272-5.381-9.272 5.381 9.272 5.381z" opacity=".5"/>
    <path fill="#8594BE" d="M896.791 393.882l9.354-5.38-9.271-5.381-9.355 5.381 9.272 5.38z" opacity=".2"/>
    <path fill="#8594BE" d="M879.24 403.982l9.355-5.381-9.272-5.298-9.354 5.381 9.271 5.298zM861.773 414.164l9.272-5.381-9.272-5.381-9.271 5.381 9.271 5.381z"/>
    <path fill="#8594BE" d="M844.223 424.264l9.355-5.381-9.272-5.381-9.354 5.381 9.271 5.381zM826.673 434.363l9.355-5.381-9.272-5.38-9.355 5.38 9.272 5.381zM809.123 444.463l9.355-5.381-9.272-5.298-9.354 5.381 9.271 5.298zM791.573 454.645l9.355-5.381-9.272-5.381-9.354 5.381 9.271 5.381z" opacity=".5"/>
    <path fill="#8594BE" d="M774.106 464.745l9.271-5.381-9.271-5.381-9.272 5.381 9.272 5.381z" opacity=".2"/>
    <path fill="#8594BE" d="M756.556 474.844l9.354-5.381-9.272-5.38-9.354 5.463 9.272 5.298z"/>
    <path fill="#8594BE" d="M739.006 485.027l9.355-5.464-9.272-5.298-9.355 5.381 9.272 5.381z" opacity=".5"/>
    <path fill="#8594BE" d="M721.456 495.126l9.354-5.381-9.271-5.381-9.355 5.381 9.272 5.381z"/>
    <path fill="#8594BE" d="M703.989 505.226l9.271-5.381-9.271-5.381-9.272 5.381 9.272 5.381zM686.438 515.325l9.355-5.381-9.272-5.298-9.354 5.381 9.271 5.298z" opacity=".5"/>
    <path fill="#8594BE" d="M913.347 403.485l9.355-5.381-9.272-5.38-9.354 5.38 9.271 5.381z" opacity=".2"/>
    <path fill="#8594BE" d="M895.88 413.585l9.272-5.381-9.272-5.381-9.355 5.381 9.355 5.381z"/>
    <path fill="#8594BE" d="M878.33 423.684l9.271-5.381-9.271-5.38-9.272 5.463 9.272 5.298zM860.78 433.784l9.354-5.381-9.271-5.298-9.355 5.381 9.272 5.298z" opacity=".5"/>
    <path fill="#8594BE" d="M843.23 443.966l9.354-5.381-9.272-5.381-9.354 5.381 9.272 5.381zM825.68 454.066l9.354-5.381-9.272-5.381-9.354 5.381 9.272 5.381zM808.213 464.165l9.271-5.381-9.271-5.298-9.272 5.381 9.272 5.298z"/>
    <path fill="#8594BE" d="M790.663 474.348l9.354-5.464-9.272-5.298-9.354 5.381 9.272 5.381zM773.113 484.447l9.354-5.381-9.272-5.381-9.354 5.381 9.272 5.381zM755.562 494.547l9.355-5.381-9.272-5.381-9.354 5.381 9.271 5.381z" opacity=".5"/>
    <path fill="#8594BE" d="M738.095 504.646l9.272-5.381-9.272-5.298-9.271 5.381 9.271 5.298z"/>
    <path fill="#8594BE" d="M720.545 514.829l9.355-5.381-9.355-5.381-9.272 5.381 9.272 5.381z" opacity=".5"/>
    <path fill="#8594BE" d="M702.995 524.928l9.355-5.381-9.272-5.381-9.355 5.381 9.272 5.381z" opacity=".2"/>
    <path fill="url(#paint30_linear)" d="M960.12 478.652l17.384-10.182 27.976 16.888c2.07 1.242 3.07 3.642 2.49 5.96l-3.4 30.464-10.509-21.358c-2.07-2.566-4.553-4.718-7.451-6.374l-26.49-15.398z"/>
    <path fill="url(#paint31_radial)" d="M995.385 498.686a26.271 26.271 0 00-7.45-6.374l-25.663-14.901-2.235 1.324 26.49 15.398c2.815 1.656 5.381 3.808 7.451 6.374l10.512 21.358.17-.579-9.275-22.6z"/>
    <path fill="url(#paint32_linear)" d="M926.758 497.941l17.385-10.182 27.981 16.887a5.398 5.398 0 012.483 5.961l-3.394 30.464-10.514-21.358a26.271 26.271 0 00-7.45-6.374l-26.491-15.398z"/>
    <path fill="url(#paint33_radial)" d="M962.024 517.892c-2.07-2.567-4.553-4.719-7.451-6.375l-25.663-14.901-2.235 1.325 26.491 15.397c2.815 1.656 5.381 3.809 7.45 6.375l10.514 21.358.165-.58-9.271-22.599z"/>
    <path fill="url(#paint34_linear)" d="M893.396 517.229l17.385-10.182 27.981 16.888a5.396 5.396 0 012.483 5.96l-3.394 30.464-10.513-21.358c-2.07-2.566-4.553-4.718-7.451-6.374l-26.491-15.398z"/>
    <path fill="url(#paint35_radial)" d="M928.662 537.18c-2.07-2.566-4.553-4.719-7.451-6.374l-25.662-14.901-2.236 1.324 26.491 15.398c2.815 1.656 5.381 3.808 7.451 6.374l10.513 21.358.166-.579-9.272-22.6z"/>
    <path fill="url(#paint36_linear)" d="M860.119 536.435l17.385-10.182 27.98 16.887a5.398 5.398 0 012.484 5.961l-3.394 30.464-10.514-21.358a26.271 26.271 0 00-7.45-6.374l-26.491-15.398z"/>
    <path fill="url(#paint37_radial)" d="M895.383 556.469a26.275 26.275 0 00-7.45-6.375l-25.663-14.901-2.235 1.325 26.491 15.397c2.814 1.656 5.38 3.808 7.45 6.375l10.513 21.358.166-.58-9.272-22.599z"/>
    <path fill="url(#paint38_linear)" d="M826.757 555.723l17.385-10.182 27.981 16.888a5.398 5.398 0 012.483 5.96l-3.394 30.465-10.514-21.359a26.287 26.287 0 00-7.45-6.374l-26.491-15.398z"/>
    <path fill="url(#paint39_radial)" d="M862.022 575.757c-2.07-2.566-4.553-4.719-7.451-6.374l-25.663-14.901-2.235 1.324 26.491 15.398c2.815 1.656 5.381 3.808 7.45 6.374l10.514 21.358.165-.579-9.271-22.6z"/>
    <path fill="url(#paint40_linear)" d="M793.395 575.012l17.384-10.182 27.981 16.887a5.398 5.398 0 012.483 5.961l-3.394 30.464-10.513-21.358c-2.07-2.566-4.553-4.719-7.451-6.374l-26.49-15.398z"/>
    <path fill="url(#paint41_radial)" d="M828.66 595.045a26.287 26.287 0 00-7.45-6.374l-25.663-14.901-2.235 1.325 26.49 15.397c2.815 1.656 5.381 3.808 7.451 6.375l10.513 21.358.166-.58-9.272-22.6z"/>
    <path fill="url(#paint42_linear)" d="M759.869 594.3l17.384-10.182 27.981 16.888a5.397 5.397 0 012.484 5.96l-3.395 30.464-10.513-21.358c-2.07-2.566-4.553-4.718-7.45-6.374L759.869 594.3z"/>
    <path fill="url(#paint43_radial)" d="M795.133 614.251a26.287 26.287 0 00-7.45-6.374l-25.663-14.901-2.235 1.325 26.49 15.397c2.815 1.656 5.381 3.808 7.451 6.374l10.513 21.359.166-.58-9.272-22.6z"/>
    <path fill="url(#paint44_linear)" d="M726.507 613.589l17.384-10.182 27.981 16.887a5.398 5.398 0 012.484 5.961l-3.395 30.464-10.513-21.358c-2.07-2.566-4.553-4.719-7.451-6.374l-26.49-15.398z"/>
    <path fill="url(#paint45_radial)" d="M761.771 633.54a26.288 26.288 0 00-7.45-6.375l-25.663-14.901-2.235 1.325 26.49 15.398c2.815 1.655 5.381 3.808 7.451 6.374l10.513 21.358.166-.58-9.272-22.599z"/>
    <path fill="url(#paint46_linear)" d="M440.407 478.652l-17.385-10.182-27.98 16.888a5.397 5.397 0 00-2.484 5.96l3.394 30.464 10.514-21.358a26.287 26.287 0 017.45-6.374l26.491-15.398z"/>
    <path fill="url(#paint47_radial)" d="M405.141 498.686c2.07-2.566 4.553-4.719 7.451-6.374l25.58-14.901 2.235 1.324-26.491 15.398c-2.814 1.656-5.381 3.808-7.45 6.374l-10.514 21.358-.165-.579 9.354-22.6z"/>
    <path fill="url(#paint48_linear)" d="M473.686 497.941l-17.302-10.182-27.981 16.887a5.398 5.398 0 00-2.483 5.961l3.394 30.464 10.514-21.358a26.271 26.271 0 017.45-6.374l26.408-15.398z"/>
    <path fill="url(#paint49_radial)" d="M438.503 517.892a26.288 26.288 0 017.45-6.375l25.58-14.901 2.236 1.325-26.491 15.397c-2.815 1.656-5.381 3.809-7.451 6.375l-10.513 21.358-.166-.58 9.355-22.599z"/>
    <path fill="url(#paint50_linear)" d="M507.047 517.147l-17.301-10.183-27.981 16.888a5.395 5.395 0 00-2.483 5.96l3.394 30.465 10.513-21.358c2.07-2.567 4.553-4.719 7.451-6.375l26.407-15.397z"/>
    <path fill="url(#paint51_radial)" d="M471.782 537.18a26.271 26.271 0 017.45-6.374l25.58-14.901 2.235 1.324-26.49 15.398c-2.815 1.656-5.381 3.808-7.451 6.374l-10.513 21.358-.166-.579 9.355-22.6z"/>
    <path fill="url(#paint52_linear)" d="M540.409 536.435l-17.302-10.182-27.98 16.887a5.398 5.398 0 00-2.484 5.961l3.394 30.464 10.514-21.358a26.271 26.271 0 017.45-6.374l26.408-15.398z"/>
    <path fill="url(#paint53_radial)" d="M505.143 556.469c2.07-2.567 4.553-4.719 7.451-6.375l25.58-14.901 2.235 1.325-26.491 15.397c-2.814 1.656-5.381 3.808-7.45 6.375l-10.514 21.358-.165-.58 9.354-22.599z"/>
    <path fill="url(#paint54_linear)" d="M573.771 555.723l-17.385-10.182-27.981 16.888a5.396 5.396 0 00-2.483 5.96l3.394 30.465 10.513-21.359a26.305 26.305 0 017.451-6.374l26.491-15.398z"/>
    <path fill="url(#paint55_radial)" d="M538.505 575.674a26.287 26.287 0 017.45-6.374l25.58-14.901 2.235 1.325-26.49 15.397c-2.815 1.656-5.381 3.808-7.451 6.375l-10.513 21.358-.166-.58 9.355-22.6z"/>
    <path fill="url(#paint56_linear)" d="M607.049 575.012l-17.301-10.182-27.981 16.887a5.398 5.398 0 00-2.484 5.961l3.395 30.464 10.513-21.358c2.07-2.566 4.553-4.719 7.451-6.374l26.407-15.398z"/>
    <path fill="url(#paint57_radial)" d="M571.784 594.963a26.29 26.29 0 017.45-6.375l25.58-14.9 2.235 1.324-26.49 15.398c-2.815 1.655-5.381 3.808-7.451 6.374l-10.513 21.358-.166-.579 9.355-22.6z"/>
    <path fill="url(#paint58_linear)" d="M640.163 594.218l-17.302-10.183-27.981 16.888a5.398 5.398 0 00-2.483 5.961l3.394 30.464 10.513-21.358c2.07-2.567 4.553-4.719 7.451-6.375l26.408-15.397z"/>
    <path fill="url(#paint59_radial)" d="M604.897 614.251c2.07-2.566 4.553-4.718 7.45-6.374l25.58-14.901 2.236 1.325-26.491 15.397c-2.815 1.656-5.381 3.808-7.451 6.374l-10.513 21.359-.166-.58 9.355-22.6z"/>
    <path fill="url(#paint60_linear)" d="M673.524 613.506l-17.302-10.182-27.98 16.888a5.396 5.396 0 00-2.484 5.96l3.394 30.464 10.514-21.358a26.287 26.287 0 017.45-6.374l26.408-15.398z"/>
    <path fill="url(#paint61_radial)" d="M638.259 633.457a26.271 26.271 0 017.45-6.374l25.58-14.901 2.235 1.324-26.49 15.398c-2.815 1.656-5.381 3.808-7.451 6.374l-10.513 21.358-.166-.579 9.355-22.6z"/>
  </g>
  <defs>
    <linearGradient id="paint0_linear" x1="486.641" x2="634.107" y1="920.329" y2="642.84" gradientUnits="userSpaceOnUse">
      <stop/>
      <stop offset=".54" stop-color="#5D6782"/>
      <stop offset="1" stop-color="#647091"/>
    </linearGradient>
    <linearGradient id="paint1_linear" x1="851.243" x2="759.767" y1="857.543" y2="642.449" gradientUnits="userSpaceOnUse">
      <stop/>
      <stop offset=".54" stop-color="#5D6782"/>
      <stop offset="1" stop-color="#647091"/>
    </linearGradient>
    <linearGradient id="paint2_linear" x1="1042.68" x2="794.115" y1="848.025" y2="644.908" gradientUnits="userSpaceOnUse">
      <stop/>
      <stop offset=".54" stop-color="#5D6782"/>
      <stop offset="1" stop-color="#647091"/>
    </linearGradient>
    <linearGradient id="paint3_linear" x1="1210.22" x2="849.745" y1="888.005" y2="627.737" gradientUnits="userSpaceOnUse">
      <stop/>
      <stop offset=".54" stop-color="#5D6782"/>
      <stop offset="1" stop-color="#647091"/>
    </linearGradient>
    <linearGradient id="paint4_linear" x1="0" x2="515.899" y1="592.586" y2="592.586" gradientUnits="userSpaceOnUse">
      <stop/>
      <stop offset=".54" stop-color="#5D6782"/>
      <stop offset="1" stop-color="#647091"/>
    </linearGradient>
    <linearGradient id="paint5_linear" x1="506.02" x2="627.479" y1="773.363" y2="653.64" gradientUnits="userSpaceOnUse">
      <stop/>
      <stop offset=".54" stop-color="#5D6782"/>
      <stop offset="1" stop-color="#647091"/>
    </linearGradient>
    <linearGradient id="paint6_linear" x1="1101.52" x2="987.004" y1="398.317" y2="524.113" gradientUnits="userSpaceOnUse">
      <stop/>
      <stop offset=".54" stop-color="#5D6782"/>
      <stop offset="1" stop-color="#647091"/>
    </linearGradient>
    <linearGradient id="paint7_linear" x1="1227.52" x2="882.663" y1="690.995" y2="601.202" gradientUnits="userSpaceOnUse">
      <stop/>
      <stop offset=".54" stop-color="#5D6782"/>
      <stop offset="1" stop-color="#647091"/>
    </linearGradient>
    <linearGradient id="paint8_linear" x1="723.125" x2="654.153" y1="944.694" y2="599.834" gradientUnits="userSpaceOnUse">
      <stop/>
      <stop offset=".54" stop-color="#5D6782"/>
      <stop offset="1" stop-color="#647091"/>
    </linearGradient>
    <linearGradient id="paint9_linear" x1="373.634" x2="582.474" y1="702.437" y2="702.437" gradientUnits="userSpaceOnUse">
      <stop/>
      <stop offset=".54" stop-color="#5D6782"/>
      <stop offset="1" stop-color="#647091"/>
    </linearGradient>
    <linearGradient id="paint10_linear" x1="974.802" x2="808.507" y1="748.966" y2="628.402" gradientUnits="userSpaceOnUse">
      <stop/>
      <stop offset=".54" stop-color="#5D6782"/>
      <stop offset="1" stop-color="#647091"/>
    </linearGradient>
    <linearGradient id="paint11_linear" x1="212.185" x2="482.611" y1="571.735" y2="571.735" gradientUnits="userSpaceOnUse">
      <stop/>
      <stop offset=".54" stop-color="#5D6782"/>
      <stop offset="1" stop-color="#647091"/>
    </linearGradient>
    <linearGradient id="paint12_linear" x1="962.716" x2="875.96" y1="93.631" y2="291.434" gradientUnits="userSpaceOnUse">
      <stop/>
      <stop offset=".54" stop-color="#5D6782"/>
      <stop offset="1" stop-color="#647091"/>
    </linearGradient>
    <linearGradient id="paint13_linear" x1="123.373" x2="549.187" y1="707.169" y2="707.169" gradientUnits="userSpaceOnUse">
      <stop/>
      <stop offset=".54" stop-color="#5D6782"/>
      <stop offset="1" stop-color="#647091"/>
    </linearGradient>
    <linearGradient id="paint14_linear" x1="1154.17" x2="973.715" y1="544.156" y2="563.243" gradientUnits="userSpaceOnUse">
      <stop/>
      <stop offset=".54" stop-color="#5D6782"/>
      <stop offset="1" stop-color="#647091"/>
    </linearGradient>
    <linearGradient id="paint15_linear" x1="1141.96" x2="923.334" y1="214.582" y2="374.213" gradientUnits="userSpaceOnUse">
      <stop/>
      <stop offset=".54" stop-color="#5D6782"/>
      <stop offset="1" stop-color="#647091"/>
    </linearGradient>
    <linearGradient id="paint16_linear" x1="687.849" x2="764.194" y1="67.66" y2="302.768" gradientUnits="userSpaceOnUse">
      <stop/>
      <stop offset=".54" stop-color="#5D6782"/>
      <stop offset="1" stop-color="#647091"/>
    </linearGradient>
    <linearGradient id="paint17_linear" x1="61.407" x2="449.325" y1="462.068" y2="462.068" gradientUnits="userSpaceOnUse">
      <stop/>
      <stop offset=".54" stop-color="#5D6782"/>
      <stop offset="1" stop-color="#647091"/>
    </linearGradient>
    <linearGradient id="paint18_linear" x1="195.011" x2="416.037" y1="453.403" y2="453.403" gradientUnits="userSpaceOnUse">
      <stop/>
      <stop offset=".54" stop-color="#5D6782"/>
      <stop offset="1" stop-color="#647091"/>
    </linearGradient>
    <linearGradient id="paint19_linear" x1="418.399" x2="692.112" y1="189.026" y2="189.026" gradientUnits="userSpaceOnUse">
      <stop/>
      <stop offset=".54" stop-color="#5D6782"/>
      <stop offset="1" stop-color="#647091"/>
    </linearGradient>
    <linearGradient id="paint20_linear" x1="165.937" x2="479.253" y1="350.531" y2="350.531" gradientUnits="userSpaceOnUse">
      <stop/>
      <stop offset=".54" stop-color="#5D6782"/>
      <stop offset="1" stop-color="#647091"/>
    </linearGradient>
    <linearGradient id="paint21_linear" x1="1255.96" x2="942.334" y1="691.807" y2="535.646" gradientUnits="userSpaceOnUse">
      <stop/>
      <stop offset=".54" stop-color="#5D6782"/>
      <stop offset="1" stop-color="#647091"/>
    </linearGradient>
    <linearGradient id="paint22_linear" x1="303.894" x2="600.083" y1="298.372" y2="298.372" gradientUnits="userSpaceOnUse">
      <stop/>
      <stop offset=".54" stop-color="#5D6782"/>
      <stop offset="1" stop-color="#647091"/>
    </linearGradient>
    <linearGradient id="paint23_linear" x1="1265.35" x2="956.502" y1="227.395" y2="411.317" gradientUnits="userSpaceOnUse">
      <stop/>
      <stop offset=".54" stop-color="#5D6782"/>
      <stop offset="1" stop-color="#647091"/>
    </linearGradient>
    <linearGradient id="paint24_linear" x1="400.005" x2="1000.33" y1="467.172" y2="467.172" gradientUnits="userSpaceOnUse">
      <stop stop-color="#0A1942"/>
      <stop offset=".146" stop-color="#404C6C"/>
      <stop offset=".343" stop-color="#2C3C6A"/>
      <stop offset=".374" stop-color="#364571"/>
      <stop offset=".426" stop-color="#515F84"/>
      <stop offset=".494" stop-color="#7D87A3"/>
      <stop offset=".495" stop-color="#7E88A4"/>
      <stop offset=".521" stop-color="#6A7696"/>
      <stop offset=".575" stop-color="#384772"/>
      <stop offset=".586" stop-color="#2C3C6A"/>
      <stop offset=".866" stop-color="#404C6C"/>
      <stop offset=".906" stop-color="#354264"/>
      <stop offset=".975" stop-color="#18264D"/>
      <stop offset="1" stop-color="#0C1B44"/>
    </linearGradient>
    <linearGradient id="paint25_linear" x1="923.041" x2="676.029" y1="-123.625" y2="514.012" gradientUnits="userSpaceOnUse">
      <stop stop-color="#404C6C"/>
      <stop offset="1" stop-color="#2C3C6A"/>
    </linearGradient>
    <linearGradient id="paint26_linear" x1="413.721" x2="986.449" y1="441.885" y2="441.885" gradientUnits="userSpaceOnUse">
      <stop offset=".035" stop-color="#112048"/>
      <stop offset=".212" stop-color="#404C6C"/>
      <stop offset=".278" stop-color="#384362"/>
      <stop offset=".391" stop-color="#212A47"/>
      <stop offset=".505" stop-color="#050C25"/>
      <stop offset=".519" stop-color="#09102A"/>
      <stop offset=".63" stop-color="#27314E"/>
      <stop offset=".72" stop-color="#394564"/>
      <stop offset=".778" stop-color="#404C6C"/>
      <stop offset=".787" stop-color="#3D496A"/>
      <stop offset=".866" stop-color="#253257"/>
      <stop offset=".939" stop-color="#16254C"/>
      <stop offset="1" stop-color="#112048"/>
    </linearGradient>
    <linearGradient id="paint27_linear" x1="399.525" x2="999.846" y1="423.756" y2="423.756" gradientUnits="userSpaceOnUse">
      <stop stop-color="#0A1942"/>
      <stop offset=".146" stop-color="#404C6C"/>
      <stop offset=".343" stop-color="#2C3C6A"/>
      <stop offset=".374" stop-color="#364571"/>
      <stop offset=".426" stop-color="#515F84"/>
      <stop offset=".494" stop-color="#7D87A3"/>
      <stop offset=".495" stop-color="#7E88A4"/>
      <stop offset=".521" stop-color="#6A7696"/>
      <stop offset=".575" stop-color="#384772"/>
      <stop offset=".586" stop-color="#2C3C6A"/>
      <stop offset=".866" stop-color="#404C6C"/>
      <stop offset=".906" stop-color="#354264"/>
      <stop offset=".975" stop-color="#18264D"/>
      <stop offset="1" stop-color="#0C1B44"/>
    </linearGradient>
    <linearGradient id="paint28_linear" x1="758.509" x2="643.077" y1="246.228" y2="544.205" gradientUnits="userSpaceOnUse">
      <stop stop-color="#313E60"/>
      <stop offset="1" stop-color="#2C3C6A"/>
    </linearGradient>
    <linearGradient id="paint29_linear" x1="788.211" x2="596.893" y1="169.554" y2="663.422" gradientUnits="userSpaceOnUse">
      <stop stop-color="#404C6C"/>
      <stop offset="1" stop-color="#2C3C6A"/>
    </linearGradient>
    <linearGradient id="paint30_linear" x1="976.791" x2="1010.33" y1="471.759" y2="525.923" gradientUnits="userSpaceOnUse">
      <stop offset=".005" stop-color="#394566"/>
      <stop offset=".359" stop-color="#171D34"/>
      <stop offset=".372" stop-color="#21273E"/>
      <stop offset=".396" stop-color="#3C4258"/>
      <stop offset=".427" stop-color="#686F83"/>
      <stop offset=".463" stop-color="#A4ABBE"/>
      <stop offset=".465" stop-color="#A8AFC2"/>
      <stop offset=".492" stop-color="#7F89A5"/>
      <stop offset=".524" stop-color="#576489"/>
      <stop offset=".553" stop-color="#3A4974"/>
      <stop offset=".578" stop-color="#283967"/>
      <stop offset=".596" stop-color="#223363"/>
      <stop offset=".776" stop-color="#192B5D"/>
      <stop offset="1" stop-color="#142659"/>
    </linearGradient>
    <linearGradient id="paint32_linear" x1="943.442" x2="976.982" y1="491.029" y2="545.193" gradientUnits="userSpaceOnUse">
      <stop offset=".005" stop-color="#394566"/>
      <stop offset=".359" stop-color="#171D34"/>
      <stop offset=".372" stop-color="#21273E"/>
      <stop offset=".396" stop-color="#3C4258"/>
      <stop offset=".427" stop-color="#686F83"/>
      <stop offset=".463" stop-color="#A4ABBE"/>
      <stop offset=".465" stop-color="#A8AFC2"/>
      <stop offset=".492" stop-color="#7F89A5"/>
      <stop offset=".524" stop-color="#576489"/>
      <stop offset=".553" stop-color="#3A4974"/>
      <stop offset=".578" stop-color="#283967"/>
      <stop offset=".596" stop-color="#223363"/>
      <stop offset=".776" stop-color="#192B5D"/>
      <stop offset="1" stop-color="#142659"/>
    </linearGradient>
    <linearGradient id="paint34_linear" x1="910.093" x2="943.633" y1="510.299" y2="564.462" gradientUnits="userSpaceOnUse">
      <stop offset=".005" stop-color="#394566"/>
      <stop offset=".359" stop-color="#171D34"/>
      <stop offset=".372" stop-color="#21273E"/>
      <stop offset=".396" stop-color="#3C4258"/>
      <stop offset=".427" stop-color="#686F83"/>
      <stop offset=".463" stop-color="#A4ABBE"/>
      <stop offset=".465" stop-color="#A8AFC2"/>
      <stop offset=".492" stop-color="#7F89A5"/>
      <stop offset=".524" stop-color="#576489"/>
      <stop offset=".553" stop-color="#3A4974"/>
      <stop offset=".578" stop-color="#283967"/>
      <stop offset=".596" stop-color="#223363"/>
      <stop offset=".776" stop-color="#192B5D"/>
      <stop offset="1" stop-color="#142659"/>
    </linearGradient>
    <linearGradient id="paint36_linear" x1="876.746" x2="910.286" y1="529.569" y2="583.733" gradientUnits="userSpaceOnUse">
      <stop offset=".005" stop-color="#394566"/>
      <stop offset=".359" stop-color="#171D34"/>
      <stop offset=".372" stop-color="#21273E"/>
      <stop offset=".396" stop-color="#3C4258"/>
      <stop offset=".427" stop-color="#686F83"/>
      <stop offset=".463" stop-color="#A4ABBE"/>
      <stop offset=".465" stop-color="#A8AFC2"/>
      <stop offset=".492" stop-color="#7F89A5"/>
      <stop offset=".524" stop-color="#576489"/>
      <stop offset=".553" stop-color="#3A4974"/>
      <stop offset=".578" stop-color="#283967"/>
      <stop offset=".596" stop-color="#223363"/>
      <stop offset=".776" stop-color="#192B5D"/>
      <stop offset="1" stop-color="#142659"/>
    </linearGradient>
    <linearGradient id="paint38_linear" x1="843.397" x2="876.937" y1="548.839" y2="603.003" gradientUnits="userSpaceOnUse">
      <stop offset=".005" stop-color="#394566"/>
      <stop offset=".359" stop-color="#171D34"/>
      <stop offset=".372" stop-color="#21273E"/>
      <stop offset=".396" stop-color="#3C4258"/>
      <stop offset=".427" stop-color="#686F83"/>
      <stop offset=".463" stop-color="#A4ABBE"/>
      <stop offset=".465" stop-color="#A8AFC2"/>
      <stop offset=".492" stop-color="#7F89A5"/>
      <stop offset=".524" stop-color="#576489"/>
      <stop offset=".553" stop-color="#3A4974"/>
      <stop offset=".578" stop-color="#283967"/>
      <stop offset=".596" stop-color="#223363"/>
      <stop offset=".776" stop-color="#192B5D"/>
      <stop offset="1" stop-color="#142659"/>
    </linearGradient>
    <linearGradient id="paint40_linear" x1="810.047" x2="843.587" y1="568.109" y2="622.273" gradientUnits="userSpaceOnUse">
      <stop offset=".005" stop-color="#394566"/>
      <stop offset=".359" stop-color="#171D34"/>
      <stop offset=".372" stop-color="#21273E"/>
      <stop offset=".396" stop-color="#3C4258"/>
      <stop offset=".427" stop-color="#686F83"/>
      <stop offset=".463" stop-color="#A4ABBE"/>
      <stop offset=".465" stop-color="#A8AFC2"/>
      <stop offset=".492" stop-color="#7F89A5"/>
      <stop offset=".524" stop-color="#576489"/>
      <stop offset=".553" stop-color="#3A4974"/>
      <stop offset=".578" stop-color="#283967"/>
      <stop offset=".596" stop-color="#223363"/>
      <stop offset=".776" stop-color="#192B5D"/>
      <stop offset="1" stop-color="#142659"/>
    </linearGradient>
    <linearGradient id="paint42_linear" x1="776.542" x2="810.082" y1="587.379" y2="641.542" gradientUnits="userSpaceOnUse">
      <stop offset=".005" stop-color="#394566"/>
      <stop offset=".359" stop-color="#171D34"/>
      <stop offset=".372" stop-color="#21273E"/>
      <stop offset=".396" stop-color="#3C4258"/>
      <stop offset=".427" stop-color="#686F83"/>
      <stop offset=".463" stop-color="#A4ABBE"/>
      <stop offset=".465" stop-color="#A8AFC2"/>
      <stop offset=".492" stop-color="#7F89A5"/>
      <stop offset=".524" stop-color="#576489"/>
      <stop offset=".553" stop-color="#3A4974"/>
      <stop offset=".578" stop-color="#283967"/>
      <stop offset=".596" stop-color="#223363"/>
      <stop offset=".776" stop-color="#192B5D"/>
      <stop offset="1" stop-color="#142659"/>
    </linearGradient>
    <linearGradient id="paint44_linear" x1="743.193" x2="776.733" y1="606.649" y2="660.813" gradientUnits="userSpaceOnUse">
      <stop offset=".005" stop-color="#394566"/>
      <stop offset=".359" stop-color="#171D34"/>
      <stop offset=".372" stop-color="#21273E"/>
      <stop offset=".396" stop-color="#3C4258"/>
      <stop offset=".427" stop-color="#686F83"/>
      <stop offset=".463" stop-color="#A4ABBE"/>
      <stop offset=".465" stop-color="#A8AFC2"/>
      <stop offset=".492" stop-color="#7F89A5"/>
      <stop offset=".524" stop-color="#576489"/>
      <stop offset=".553" stop-color="#3A4974"/>
      <stop offset=".578" stop-color="#283967"/>
      <stop offset=".596" stop-color="#223363"/>
      <stop offset=".776" stop-color="#192B5D"/>
      <stop offset="1" stop-color="#142659"/>
    </linearGradient>
    <linearGradient id="paint46_linear" x1="423.728" x2="390.199" y1="471.758" y2="525.904" gradientUnits="userSpaceOnUse">
      <stop offset=".005" stop-color="#394566"/>
      <stop offset=".359" stop-color="#171D34"/>
      <stop offset=".372" stop-color="#21273E"/>
      <stop offset=".396" stop-color="#3C4258"/>
      <stop offset=".427" stop-color="#686F83"/>
      <stop offset=".463" stop-color="#A4ABBE"/>
      <stop offset=".465" stop-color="#A8AFC2"/>
      <stop offset=".492" stop-color="#7F89A5"/>
      <stop offset=".524" stop-color="#576489"/>
      <stop offset=".553" stop-color="#3A4974"/>
      <stop offset=".578" stop-color="#283967"/>
      <stop offset=".596" stop-color="#223363"/>
      <stop offset=".776" stop-color="#192B5D"/>
      <stop offset="1" stop-color="#142659"/>
    </linearGradient>
    <linearGradient id="paint48_linear" x1="457.066" x2="423.537" y1="491.021" y2="545.167" gradientUnits="userSpaceOnUse">
      <stop offset=".005" stop-color="#394566"/>
      <stop offset=".359" stop-color="#171D34"/>
      <stop offset=".372" stop-color="#21273E"/>
      <stop offset=".396" stop-color="#3C4258"/>
      <stop offset=".427" stop-color="#686F83"/>
      <stop offset=".463" stop-color="#A4ABBE"/>
      <stop offset=".465" stop-color="#A8AFC2"/>
      <stop offset=".492" stop-color="#7F89A5"/>
      <stop offset=".524" stop-color="#576489"/>
      <stop offset=".553" stop-color="#3A4974"/>
      <stop offset=".578" stop-color="#283967"/>
      <stop offset=".596" stop-color="#223363"/>
      <stop offset=".776" stop-color="#192B5D"/>
      <stop offset="1" stop-color="#142659"/>
    </linearGradient>
    <linearGradient id="paint50_linear" x1="490.404" x2="456.875" y1="510.285" y2="564.431" gradientUnits="userSpaceOnUse">
      <stop offset=".005" stop-color="#394566"/>
      <stop offset=".359" stop-color="#171D34"/>
      <stop offset=".372" stop-color="#21273E"/>
      <stop offset=".396" stop-color="#3C4258"/>
      <stop offset=".427" stop-color="#686F83"/>
      <stop offset=".463" stop-color="#A4ABBE"/>
      <stop offset=".465" stop-color="#A8AFC2"/>
      <stop offset=".492" stop-color="#7F89A5"/>
      <stop offset=".524" stop-color="#576489"/>
      <stop offset=".553" stop-color="#3A4974"/>
      <stop offset=".578" stop-color="#283967"/>
      <stop offset=".596" stop-color="#223363"/>
      <stop offset=".776" stop-color="#192B5D"/>
      <stop offset="1" stop-color="#142659"/>
    </linearGradient>
    <linearGradient id="paint52_linear" x1="523.741" x2="490.212" y1="529.549" y2="583.695" gradientUnits="userSpaceOnUse">
      <stop offset=".005" stop-color="#394566"/>
      <stop offset=".359" stop-color="#171D34"/>
      <stop offset=".372" stop-color="#21273E"/>
      <stop offset=".396" stop-color="#3C4258"/>
      <stop offset=".427" stop-color="#686F83"/>
      <stop offset=".463" stop-color="#A4ABBE"/>
      <stop offset=".465" stop-color="#A8AFC2"/>
      <stop offset=".492" stop-color="#7F89A5"/>
      <stop offset=".524" stop-color="#576489"/>
      <stop offset=".553" stop-color="#3A4974"/>
      <stop offset=".578" stop-color="#283967"/>
      <stop offset=".596" stop-color="#223363"/>
      <stop offset=".776" stop-color="#192B5D"/>
      <stop offset="1" stop-color="#142659"/>
    </linearGradient>
    <linearGradient id="paint54_linear" x1="557.079" x2="523.55" y1="548.812" y2="602.958" gradientUnits="userSpaceOnUse">
      <stop offset=".005" stop-color="#394566"/>
      <stop offset=".359" stop-color="#171D34"/>
      <stop offset=".372" stop-color="#21273E"/>
      <stop offset=".396" stop-color="#3C4258"/>
      <stop offset=".427" stop-color="#686F83"/>
      <stop offset=".463" stop-color="#A4ABBE"/>
      <stop offset=".465" stop-color="#A8AFC2"/>
      <stop offset=".492" stop-color="#7F89A5"/>
      <stop offset=".524" stop-color="#576489"/>
      <stop offset=".553" stop-color="#3A4974"/>
      <stop offset=".578" stop-color="#283967"/>
      <stop offset=".596" stop-color="#223363"/>
      <stop offset=".776" stop-color="#192B5D"/>
      <stop offset="1" stop-color="#142659"/>
    </linearGradient>
    <linearGradient id="paint56_linear" x1="590.417" x2="556.888" y1="568.076" y2="622.222" gradientUnits="userSpaceOnUse">
      <stop offset=".005" stop-color="#394566"/>
      <stop offset=".359" stop-color="#171D34"/>
      <stop offset=".372" stop-color="#21273E"/>
      <stop offset=".396" stop-color="#3C4258"/>
      <stop offset=".427" stop-color="#686F83"/>
      <stop offset=".463" stop-color="#A4ABBE"/>
      <stop offset=".465" stop-color="#A8AFC2"/>
      <stop offset=".492" stop-color="#7F89A5"/>
      <stop offset=".524" stop-color="#576489"/>
      <stop offset=".553" stop-color="#3A4974"/>
      <stop offset=".578" stop-color="#283967"/>
      <stop offset=".596" stop-color="#223363"/>
      <stop offset=".776" stop-color="#192B5D"/>
      <stop offset="1" stop-color="#142659"/>
    </linearGradient>
    <linearGradient id="paint58_linear" x1="623.519" x2="589.99" y1="587.34" y2="641.486" gradientUnits="userSpaceOnUse">
      <stop offset=".005" stop-color="#394566"/>
      <stop offset=".359" stop-color="#171D34"/>
      <stop offset=".372" stop-color="#21273E"/>
      <stop offset=".396" stop-color="#3C4258"/>
      <stop offset=".427" stop-color="#686F83"/>
      <stop offset=".463" stop-color="#A4ABBE"/>
      <stop offset=".465" stop-color="#A8AFC2"/>
      <stop offset=".492" stop-color="#7F89A5"/>
      <stop offset=".524" stop-color="#576489"/>
      <stop offset=".553" stop-color="#3A4974"/>
      <stop offset=".578" stop-color="#283967"/>
      <stop offset=".596" stop-color="#223363"/>
      <stop offset=".776" stop-color="#192B5D"/>
      <stop offset="1" stop-color="#142659"/>
    </linearGradient>
    <linearGradient id="paint60_linear" x1="656.856" x2="623.327" y1="606.603" y2="660.749" gradientUnits="userSpaceOnUse">
      <stop offset=".005" stop-color="#394566"/>
      <stop offset=".359" stop-color="#171D34"/>
      <stop offset=".372" stop-color="#21273E"/>
      <stop offset=".396" stop-color="#3C4258"/>
      <stop offset=".427" stop-color="#686F83"/>
      <stop offset=".463" stop-color="#A4ABBE"/>
      <stop offset=".465" stop-color="#A8AFC2"/>
      <stop offset=".492" stop-color="#7F89A5"/>
      <stop offset=".524" stop-color="#576489"/>
      <stop offset=".553" stop-color="#3A4974"/>
      <stop offset=".578" stop-color="#283967"/>
      <stop offset=".596" stop-color="#223363"/>
      <stop offset=".776" stop-color="#192B5D"/>
      <stop offset="1" stop-color="#142659"/>
    </linearGradient>
    <radialGradient id="paint31_radial" cx="0" cy="0" r="1" gradientTransform="translate(982.417 499.591) scale(22.2548)" gradientUnits="userSpaceOnUse">
      <stop stop-color="#A8AFC2"/>
      <stop offset="1"/>
    </radialGradient>
    <radialGradient id="paint33_radial" cx="0" cy="0" r="1" gradientTransform="translate(949.068 518.861) scale(22.2549)" gradientUnits="userSpaceOnUse">
      <stop stop-color="#A8AFC2"/>
      <stop offset="1"/>
    </radialGradient>
    <radialGradient id="paint35_radial" cx="0" cy="0" r="1" gradientTransform="translate(915.719 538.131) scale(22.2548)" gradientUnits="userSpaceOnUse">
      <stop stop-color="#A8AFC2"/>
      <stop offset="1"/>
    </radialGradient>
    <radialGradient id="paint37_radial" cx="0" cy="0" r="1" gradientTransform="translate(882.371 557.4) scale(22.2549)" gradientUnits="userSpaceOnUse">
      <stop stop-color="#A8AFC2"/>
      <stop offset="1"/>
    </radialGradient>
    <radialGradient id="paint39_radial" cx="0" cy="0" r="1" gradientTransform="translate(849.022 576.671) scale(22.2548)" gradientUnits="userSpaceOnUse">
      <stop stop-color="#A8AFC2"/>
      <stop offset="1"/>
    </radialGradient>
    <radialGradient id="paint41_radial" cx="0" cy="0" r="1" gradientTransform="translate(815.673 595.94) scale(22.2548)" gradientUnits="userSpaceOnUse">
      <stop stop-color="#A8AFC2"/>
      <stop offset="1"/>
    </radialGradient>
    <radialGradient id="paint43_radial" cx="0" cy="0" r="1" gradientTransform="translate(782.167 615.21) scale(22.2549)" gradientUnits="userSpaceOnUse">
      <stop stop-color="#A8AFC2"/>
      <stop offset="1"/>
    </radialGradient>
    <radialGradient id="paint45_radial" cx="0" cy="0" r="1" gradientTransform="translate(748.818 634.48) scale(22.2549)" gradientUnits="userSpaceOnUse">
      <stop stop-color="#A8AFC2"/>
      <stop offset="1"/>
    </radialGradient>
    <radialGradient id="paint47_radial" cx="0" cy="0" r="1" gradientTransform="rotate(180 209.051 249.79) scale(22.2475)" gradientUnits="userSpaceOnUse">
      <stop stop-color="#A8AFC2"/>
      <stop offset="1"/>
    </radialGradient>
    <radialGradient id="paint49_radial" cx="0" cy="0" r="1" gradientTransform="rotate(180 225.72 259.422) scale(22.2475)" gradientUnits="userSpaceOnUse">
      <stop stop-color="#A8AFC2"/>
      <stop offset="1"/>
    </radialGradient>
    <radialGradient id="paint51_radial" cx="0" cy="0" r="1" gradientTransform="rotate(180 242.39 269.053) scale(22.2476)" gradientUnits="userSpaceOnUse">
      <stop stop-color="#A8AFC2"/>
      <stop offset="1"/>
    </radialGradient>
    <radialGradient id="paint53_radial" cx="0" cy="0" r="1" gradientTransform="rotate(180 259.058 278.685) scale(22.2475)" gradientUnits="userSpaceOnUse">
      <stop stop-color="#A8AFC2"/>
      <stop offset="1"/>
    </radialGradient>
    <radialGradient id="paint55_radial" cx="0" cy="0" r="1" gradientTransform="rotate(180 275.727 288.317) scale(22.2475)" gradientUnits="userSpaceOnUse">
      <stop stop-color="#A8AFC2"/>
      <stop offset="1"/>
    </radialGradient>
    <radialGradient id="paint57_radial" cx="0" cy="0" r="1" gradientTransform="rotate(180 292.397 297.949) scale(22.2475)" gradientUnits="userSpaceOnUse">
      <stop stop-color="#A8AFC2"/>
      <stop offset="1"/>
    </radialGradient>
    <radialGradient id="paint59_radial" cx="0" cy="0" r="1" gradientTransform="rotate(180 308.947 307.581) scale(22.2476)" gradientUnits="userSpaceOnUse">
      <stop stop-color="#A8AFC2"/>
      <stop offset="1"/>
    </radialGradient>
    <radialGradient id="paint61_radial" cx="0" cy="0" r="1" gradientTransform="rotate(180 325.616 317.213) scale(22.2476)" gradientUnits="userSpaceOnUse">
      <stop stop-color="#A8AFC2"/>
      <stop offset="1"/>
    </radialGradient>
  </defs>
</svg>
