<svg width="254" height="298" viewBox="0 0 254 298" fill="none" xmlns="http://www.w3.org/2000/svg">
<g filter="url(#filter0_d)">
<path d="M170.698 167.2C178.769 183.025 174.228 203.177 160.581 212.125C152.478 217.437 143 218.771 133.887 215.876L87.5839 201.216C86.3551 200.831 85.3183 199.917 84.6557 198.617C83.32 195.998 84.0702 192.666 86.3288 191.185C87.7191 190.274 89.2992 189.746 90.9127 189.649L111.159 188.461C112.061 188.406 112.872 187.818 113.287 186.913C113.706 186.005 113.683 184.899 113.222 183.996L79.9616 118.775C78.4955 115.9 79.3165 112.236 81.8002 110.607C84.2839 108.979 87.4943 110 88.9603 112.875L114.238 162.443C114.973 163.883 116.577 164.391 117.819 163.577C119.061 162.763 119.472 160.933 118.738 159.493L106.764 136.014C105.298 133.139 106.119 129.474 108.603 127.846C111.086 126.218 114.297 127.239 115.763 130.114L127.737 153.593C128.471 155.033 130.075 155.542 131.317 154.727C132.559 153.913 132.971 152.083 132.236 150.643L122.923 132.381C121.457 129.506 122.278 125.842 124.762 124.214C127.246 122.585 130.456 123.607 131.922 126.482L141.235 144.744C141.969 146.184 143.573 146.692 144.815 145.877C146.057 145.063 146.469 143.234 145.735 141.793L139.082 128.749C137.616 125.874 138.437 122.21 140.921 120.582C143.405 118.953 146.615 119.974 148.081 122.849L170.698 167.2Z" fill="white"/>
<path d="M138.26 115.364C136.411 116.576 135.02 118.358 134.156 120.408C130.853 117.157 126.02 116.427 122.101 118.996C120.252 120.208 118.861 121.991 117.997 124.04C114.694 120.789 109.861 120.059 105.942 122.628C104.304 123.702 103.026 125.222 102.159 126.982L93.4602 109.925C90.5252 104.17 84.1025 102.136 79.1395 105.39C74.1766 108.643 72.5274 115.97 75.4623 121.725L106.57 182.725L90.5428 183.66C88.1291 183.801 85.7513 184.601 83.6682 185.967C78.9258 189.076 77.3546 196.073 80.1724 201.599C81.532 204.265 83.7019 206.177 86.2869 206.996L132.585 221.659C143.049 224.977 153.942 223.44 163.247 217.339C179.373 206.767 184.735 182.95 175.198 164.249L152.581 119.899C149.646 114.144 143.223 112.11 138.26 115.364ZM170.698 167.2C178.769 183.025 174.228 203.177 160.582 212.125C152.478 217.437 143 218.771 133.887 215.876L87.5842 201.216C86.3554 200.831 85.3185 199.917 84.656 198.617C83.3203 195.998 84.0704 192.666 86.3291 191.185C87.7194 190.273 89.2995 189.746 90.913 189.649L111.159 188.461C112.061 188.406 112.872 187.818 113.287 186.913C113.706 186.005 113.683 184.899 113.223 183.996L79.9619 118.775C78.4957 115.9 79.3168 112.236 81.8005 110.607C84.2841 108.979 87.4946 110 88.9606 112.875L114.239 162.443C114.973 163.883 116.577 164.391 117.819 163.577C119.061 162.763 119.473 160.933 118.738 159.493L106.764 136.014C105.298 133.139 106.119 129.474 108.603 127.846C111.087 126.218 114.297 127.239 115.763 130.114L127.737 153.593C128.471 155.033 130.075 155.541 131.317 154.727C132.559 153.913 132.971 152.083 132.237 150.643L122.924 132.381C121.457 129.506 122.278 125.842 124.762 124.214C127.246 122.585 130.456 123.607 131.922 126.481L141.235 144.743C141.97 146.184 143.574 146.692 144.815 145.877C146.057 145.063 146.469 143.234 145.735 141.793L139.083 128.749C137.616 125.874 138.437 122.21 140.921 120.581C143.405 118.953 146.615 119.974 148.081 122.849L170.698 167.2Z" fill="url(#paint0_linear)"/>
</g>
<path d="M136.075 73.0724L146.714 34.0998L158.417 38.4409L143.733 75.9129L136.075 73.0724ZM130.447 88.8389C129.696 87.187 129.608 85.4947 130.182 83.762C130.756 82.0292 131.823 80.7657 133.384 79.9713C134.945 79.1769 136.545 79.0835 138.182 79.6909C139.82 80.2983 141.014 81.4279 141.764 83.0798C142.515 84.7316 142.603 86.4239 142.029 88.1567C141.455 89.8894 140.388 91.153 138.827 91.9473C137.266 92.7417 135.667 92.8352 134.029 92.2278C132.392 91.6204 131.198 90.4907 130.447 88.8389Z" fill="url(#paint1_linear)"/>
<path d="M111.381 51.1169C110.932 47.2217 111.022 44.0618 111.65 41.6373C112.279 39.2127 113.648 36.7351 115.758 34.2042C117.891 31.6421 119.272 29.6147 119.901 28.1219C120.526 26.6012 120.749 25.0619 120.57 23.5038C120.028 18.8017 117.707 16.715 113.605 17.2438C111.66 17.4945 110.169 18.3361 109.133 19.7685C108.12 21.1696 107.716 22.9865 107.919 25.2191L96.4821 26.6934C95.923 21.3724 97.0612 17.0045 99.8967 13.5895C102.759 10.1712 106.95 8.10616 112.472 7.39445C118.046 6.67596 122.536 7.55133 125.942 10.0206C129.345 12.462 131.346 16.2841 131.945 21.487C132.217 23.8519 131.975 26.1561 131.219 28.3994C130.46 30.6149 128.979 33.1635 126.776 36.0452L123.952 39.6705C122.187 41.9591 121.317 44.4854 121.342 47.2493L121.477 49.8155L111.381 51.1169ZM111.712 64.0767C111.497 62.2126 111.913 60.6061 112.958 59.2572C114.027 57.8771 115.494 57.0667 117.361 56.8261C119.228 56.5855 120.823 57.001 122.148 58.0727C123.495 59.1132 124.276 60.5655 124.49 62.4296C124.702 64.2659 124.285 65.8585 123.239 67.2074C122.22 68.5529 120.751 69.3494 118.831 69.5968C116.912 69.8442 115.292 69.446 113.971 68.4021C112.676 67.3548 111.923 65.913 111.712 64.0767Z" fill="#E95B40"/>
<defs>
<filter id="filter0_d" x="0.212151" y="30.0426" width="253.506" height="267.125" filterUnits="userSpaceOnUse" color-interpolation-filters="sRGB">
<feFlood flood-opacity="0" result="BackgroundImageFix"/>
<feColorMatrix in="SourceAlpha" type="matrix" values="0 0 0 0 0 0 0 0 0 0 0 0 0 0 0 0 0 0 127 0" result="hardAlpha"/>
<feOffset/>
<feGaussianBlur stdDeviation="36.8981"/>
<feComposite in2="hardAlpha" operator="out"/>
<feColorMatrix type="matrix" values="0 0 0 0 0.913725 0 0 0 0 0.364706 0 0 0 0 0.247059 0 0 0 1 0"/>
<feBlend mode="screen" in2="BackgroundImageFix" result="effect1_dropShadow"/>
<feBlend mode="normal" in="SourceGraphic" in2="effect1_dropShadow" result="shape"/>
</filter>
<linearGradient id="paint0_linear" x1="79.7426" y1="46.3182" x2="30.7679" y2="271.144" gradientUnits="userSpaceOnUse">
<stop stop-color="#D11833"/>
<stop offset="1" stop-color="#F27744"/>
</linearGradient>
<linearGradient id="paint1_linear" x1="152.58" y1="40.1621" x2="135.034" y2="39.9147" gradientUnits="userSpaceOnUse">
<stop stop-color="#AF142E"/>
<stop offset="1" stop-color="#F27744"/>
</linearGradient>
</defs>
</svg>
