<svg width="225" height="207" viewBox="0 0 225 207" fill="none" xmlns="http://www.w3.org/2000/svg">
<mask id="mask0" style="mask-type:alpha" maskUnits="userSpaceOnUse" x="0" y="0" width="225" height="204">
<path fill-rule="evenodd" clip-rule="evenodd" d="M107.859 0.170193C143.763 -1.83824 174.218 22.6525 196.05 49.6932C217.233 75.9293 231.972 109.29 221.351 140.738C211.438 170.089 177.728 182.695 147.365 193.842C120.873 203.567 92.8485 207.524 66.4364 197.608C37.2655 186.657 8.9052 168.053 1.69923 139.155C-5.55162 110.077 13.3469 83.0943 31.8432 58.8789C51.9997 32.4901 73.5057 2.09192 107.859 0.170193Z" fill="#C4C4C4"/>
</mask>
<g mask="url(#mask0)">
<g filter="url(#filter0_f)">
<path fill-rule="evenodd" clip-rule="evenodd" d="M107.859 0.170193C143.763 -1.83824 174.218 22.6525 196.05 49.6932C217.233 75.9293 231.972 109.29 221.351 140.738C211.438 170.089 177.728 182.695 147.365 193.842C120.873 203.567 92.8485 207.524 66.4364 197.608C37.2655 186.657 8.9052 168.053 1.69923 139.155C-5.55162 110.077 13.3469 83.0943 31.8432 58.8789C51.9997 32.4901 73.5057 2.09192 107.859 0.170193Z" fill="url(#paint0_linear)"/>
<path fill-rule="evenodd" clip-rule="evenodd" d="M107.859 0.170193C143.763 -1.83824 174.218 22.6525 196.05 49.6932C217.233 75.9293 231.972 109.29 221.351 140.738C211.438 170.089 177.728 182.695 147.365 193.842C120.873 203.567 92.8485 207.524 66.4364 197.608C37.2655 186.657 8.9052 168.053 1.69923 139.155C-5.55162 110.077 13.3469 83.0943 31.8432 58.8789C51.9997 32.4901 73.5057 2.09192 107.859 0.170193Z" fill="url(#paint1_linear)" style="mix-blend-mode:screen"/>
</g>
<path d="M130.278 39.5267C130.169 39.5267 130.077 39.4942 130.001 39.4291C129.936 39.3532 129.904 39.2611 129.904 39.1526V35.7532H126.537C126.429 35.7532 126.336 35.7207 126.26 35.6556C126.195 35.5797 126.163 35.4876 126.163 35.3791V34.8912C126.163 34.7828 126.195 34.696 126.26 34.6309C126.336 34.555 126.429 34.5171 126.537 34.5171H129.904V31.2153C129.904 31.096 129.936 31.0038 130.001 30.9388C130.077 30.8737 130.169 30.8412 130.278 30.8412H130.798C130.918 30.8412 131.01 30.8737 131.075 30.9388C131.14 31.0038 131.172 31.096 131.172 31.2153V34.5171H134.539C134.648 34.5171 134.735 34.555 134.8 34.6309C134.875 34.696 134.913 34.7828 134.913 34.8912V35.3791C134.913 35.4876 134.875 35.5797 134.8 35.6556C134.735 35.7207 134.648 35.7532 134.539 35.7532H131.172V39.1526C131.172 39.2611 131.135 39.3532 131.059 39.4291C130.994 39.4942 130.907 39.5267 130.798 39.5267H130.278ZM140.315 41.69C140.206 41.69 140.114 41.6575 140.038 41.5924C139.973 41.5273 139.94 41.4352 139.94 41.3159V40.1773C139.181 40.1123 138.525 39.9388 137.972 39.6569C137.43 39.3641 137.013 39.0062 136.72 38.5834C136.438 38.1496 136.286 37.6888 136.265 37.2008C136.265 37.1141 136.297 37.0382 136.362 36.9731C136.427 36.9081 136.509 36.8755 136.606 36.8755H137.387C137.593 36.8755 137.734 36.984 137.81 37.2008C137.907 37.6562 138.184 38.052 138.639 38.3882C139.106 38.7135 139.767 38.8761 140.624 38.8761C141.545 38.8761 142.234 38.7135 142.689 38.3882C143.145 38.0629 143.372 37.6129 143.372 37.0382C143.372 36.6695 143.259 36.3659 143.031 36.1273C142.814 35.8888 142.483 35.6828 142.039 35.5093C141.605 35.3249 140.949 35.1026 140.071 34.8424C139.236 34.6038 138.569 34.349 138.07 34.0779C137.571 33.8068 137.197 33.4761 136.948 33.0858C136.698 32.6846 136.574 32.1803 136.574 31.5731C136.574 30.7599 136.872 30.0767 137.468 29.5237C138.065 28.9707 138.889 28.6454 139.94 28.5478V27.4255C139.94 27.3062 139.973 27.2141 140.038 27.149C140.114 27.084 140.206 27.0514 140.315 27.0514H140.9C141.009 27.0514 141.095 27.0894 141.16 27.1653C141.225 27.2303 141.258 27.3171 141.258 27.4255V28.5641C141.952 28.6508 142.548 28.846 143.047 29.1496C143.546 29.4532 143.92 29.8111 144.169 30.2231C144.43 30.6243 144.571 31.0309 144.592 31.443C144.592 31.5406 144.56 31.6219 144.495 31.687C144.43 31.752 144.348 31.7846 144.251 31.7846H143.437C143.351 31.7846 143.264 31.7575 143.177 31.7032C143.101 31.649 143.053 31.5677 143.031 31.4593C142.966 30.993 142.706 30.6081 142.25 30.3044C141.795 30.0008 141.225 29.849 140.542 29.849C139.805 29.849 139.219 29.9954 138.786 30.2882C138.352 30.5701 138.135 30.993 138.135 31.5568C138.135 31.9364 138.233 32.2454 138.428 32.484C138.634 32.7225 138.943 32.934 139.355 33.1183C139.778 33.3026 140.385 33.5141 141.177 33.7526C142.098 34.0129 142.825 34.2731 143.356 34.5334C143.887 34.7936 144.283 35.1189 144.544 35.5093C144.804 35.8888 144.934 36.3822 144.934 36.9894C144.934 37.9111 144.603 38.6538 143.942 39.2177C143.291 39.7815 142.397 40.1069 141.258 40.1936V41.3159C141.258 41.4243 141.225 41.5111 141.16 41.5761C141.095 41.652 141.009 41.69 140.9 41.69H140.315Z" fill="url(#paint2_linear)"/>
<path d="M86.2266 126.274C86.1182 126.274 86.026 126.241 85.9501 126.176C85.8851 126.1 85.8525 126.008 85.8525 125.9V122.5H82.4857C82.3772 122.5 82.2851 122.468 82.2092 122.403C82.1441 122.327 82.1116 122.235 82.1116 122.126V121.638C82.1116 121.53 82.1441 121.443 82.2092 121.378C82.2851 121.302 82.3772 121.264 82.4857 121.264H85.8525V117.962C85.8525 117.843 85.8851 117.751 85.9501 117.686C86.026 117.621 86.1182 117.588 86.2266 117.588H86.7471C86.8664 117.588 86.9586 117.621 87.0236 117.686C87.0887 117.751 87.1212 117.843 87.1212 117.962V121.264H90.4881C90.5965 121.264 90.6833 121.302 90.7483 121.378C90.8242 121.443 90.8622 121.53 90.8622 121.638V122.126C90.8622 122.235 90.8242 122.327 90.7483 122.403C90.6833 122.468 90.5965 122.5 90.4881 122.5H87.1212V125.9C87.1212 126.008 87.0833 126.1 87.0074 126.176C86.9423 126.241 86.8555 126.274 86.7471 126.274H86.2266ZM96.2633 128.437C96.1549 128.437 96.0627 128.405 95.9868 128.339C95.9218 128.274 95.8892 128.182 95.8892 128.063V126.924C95.1302 126.859 94.4742 126.686 93.9212 126.404C93.379 126.111 92.9615 125.753 92.6687 125.33C92.3868 124.897 92.235 124.436 92.2133 123.948C92.2133 123.861 92.2459 123.785 92.3109 123.72C92.376 123.655 92.4573 123.623 92.5549 123.623H93.3356C93.5416 123.623 93.6826 123.731 93.7585 123.948C93.8561 124.403 94.1326 124.799 94.588 125.135C95.0543 125.461 95.7157 125.623 96.5724 125.623C97.494 125.623 98.1826 125.461 98.638 125.135C99.0934 124.81 99.3212 124.36 99.3212 123.785C99.3212 123.417 99.2073 123.113 98.9796 122.874C98.7627 122.636 98.432 122.43 97.9874 122.256C97.5537 122.072 96.8977 121.85 96.0193 121.589C95.1844 121.351 94.5175 121.096 94.0187 120.825C93.5199 120.554 93.1459 120.223 92.8965 119.833C92.6471 119.432 92.5224 118.927 92.5224 118.32C92.5224 117.507 92.8205 116.824 93.4169 116.271C94.0133 115.718 94.8374 115.392 95.8892 115.295V114.173C95.8892 114.053 95.9218 113.961 95.9868 113.896C96.0627 113.831 96.1549 113.798 96.2633 113.798H96.8489C96.9573 113.798 97.044 113.836 97.1091 113.912C97.1742 113.977 97.2067 114.064 97.2067 114.173V115.311C97.9007 115.398 98.4971 115.593 98.9959 115.897C99.4946 116.2 99.8687 116.558 100.118 116.97C100.378 117.371 100.519 117.778 100.541 118.19C100.541 118.288 100.509 118.369 100.443 118.434C100.378 118.499 100.297 118.532 100.199 118.532H99.3862C99.2995 118.532 99.2127 118.505 99.126 118.45C99.0501 118.396 99.0013 118.315 98.9796 118.206C98.9145 117.74 98.6543 117.355 98.1989 117.052C97.7434 116.748 97.1742 116.596 96.491 116.596C95.7537 116.596 95.1681 116.742 94.7344 117.035C94.3007 117.317 94.0838 117.74 94.0838 118.304C94.0838 118.683 94.1814 118.992 94.3766 119.231C94.5826 119.47 94.8916 119.681 95.3037 119.865C95.7266 120.05 96.3338 120.261 97.1254 120.5C98.0471 120.76 98.7736 121.02 99.3049 121.28C99.8362 121.541 100.232 121.866 100.492 122.256C100.752 122.636 100.883 123.129 100.883 123.736C100.883 124.658 100.552 125.401 99.8904 125.965C99.2398 126.529 98.3452 126.854 97.2067 126.941V128.063C97.2067 128.171 97.1742 128.258 97.1091 128.323C97.044 128.399 96.9573 128.437 96.8489 128.437H96.2633Z" fill="url(#paint3_linear)"/>
<path d="M151.424 90.0518C151.315 90.0518 151.223 90.0193 151.147 89.9543C151.082 89.8892 151.05 89.8024 151.05 89.694V89.1085C151.05 89 151.082 88.9133 151.147 88.8482C151.223 88.7723 151.315 88.7344 151.424 88.7344H157.767C157.876 88.7344 157.962 88.7723 158.027 88.8482C158.103 88.9133 158.141 89 158.141 89.1085V89.694C158.141 89.8024 158.103 89.8892 158.027 89.9543C157.962 90.0193 157.876 90.0518 157.767 90.0518H151.424ZM163.984 95.9073C163.876 95.9073 163.783 95.8747 163.708 95.8097C163.642 95.7446 163.61 95.6524 163.61 95.5332V94.3946C162.851 94.3296 162.195 94.1561 161.642 93.8741C161.1 93.5814 160.682 93.2235 160.389 92.8006C160.108 92.3669 159.956 91.9061 159.934 91.4181C159.934 91.3314 159.967 91.2555 160.032 91.1904C160.097 91.1253 160.178 91.0928 160.276 91.0928H161.056C161.262 91.0928 161.403 91.2012 161.479 91.4181C161.577 91.8735 161.853 92.2693 162.309 92.6055C162.775 92.9308 163.436 93.0934 164.293 93.0934C165.215 93.0934 165.903 92.9308 166.359 92.6055C166.814 92.2802 167.042 91.8302 167.042 91.2555C167.042 90.8868 166.928 90.5832 166.7 90.3446C166.483 90.1061 166.153 89.9 165.708 89.7265C165.274 89.5422 164.618 89.3199 163.74 89.0597C162.905 88.8211 162.238 88.5663 161.739 88.2952C161.241 88.0241 160.867 87.6934 160.617 87.3031C160.368 86.9018 160.243 86.3976 160.243 85.7904C160.243 84.9771 160.541 84.294 161.138 83.741C161.734 83.188 162.558 82.8627 163.61 82.7651V81.6428C163.61 81.5235 163.642 81.4314 163.708 81.3663C163.783 81.3012 163.876 81.2687 163.984 81.2687H164.57C164.678 81.2687 164.765 81.3067 164.83 81.3826C164.895 81.4476 164.927 81.5344 164.927 81.6428V82.7814C165.621 82.8681 166.218 83.0633 166.717 83.3669C167.215 83.6705 167.589 84.0284 167.839 84.4404C168.099 84.8416 168.24 85.2482 168.262 85.6603C168.262 85.7579 168.229 85.8392 168.164 85.9043C168.099 85.9693 168.018 86.0018 167.92 86.0018H167.107C167.02 86.0018 166.933 85.9747 166.847 85.9205C166.771 85.8663 166.722 85.785 166.7 85.6765C166.635 85.2103 166.375 84.8253 165.92 84.5217C165.464 84.2181 164.895 84.0663 164.212 84.0663C163.474 84.0663 162.889 84.2127 162.455 84.5055C162.021 84.7874 161.805 85.2103 161.805 85.7741C161.805 86.1537 161.902 86.4627 162.097 86.7012C162.303 86.9398 162.612 87.1512 163.024 87.3356C163.447 87.5199 164.055 87.7314 164.846 87.9699C165.768 88.2302 166.494 88.4904 167.026 88.7506C167.557 89.0109 167.953 89.3362 168.213 89.7265C168.473 90.1061 168.603 90.5994 168.603 91.2067C168.603 92.1284 168.273 92.8711 167.611 93.435C166.961 93.9988 166.066 94.3241 164.927 94.4109V95.5332C164.927 95.6416 164.895 95.7284 164.83 95.7934C164.765 95.8693 164.678 95.9073 164.57 95.9073H163.984Z" fill="url(#paint4_linear)"/>
<path opacity="0.3" fill-rule="evenodd" clip-rule="evenodd" d="M107.859 0.170193C143.763 -1.83824 174.218 22.6525 196.05 49.6932C217.233 75.9293 231.972 109.29 221.351 140.738C211.438 170.089 177.728 182.695 147.365 193.842C120.873 203.567 92.8485 207.524 66.4364 197.608C37.2655 186.657 8.9052 168.053 1.69923 139.155C-5.55162 110.077 13.3469 83.0943 31.8432 58.8789C51.9997 32.4901 73.5057 2.09192 107.859 0.170193Z" stroke="url(#paint5_linear)" stroke-width="0.677711"/>
</g>
<ellipse cx="112.3" cy="61.2143" rx="20.0234" ry="20.0234" transform="rotate(30 112.3 61.2143)" fill="url(#paint6_linear)"/>
<ellipse cx="112.3" cy="61.2143" rx="20.0234" ry="20.0234" transform="rotate(30 112.3 61.2143)" fill="url(#paint7_linear)"/>
<ellipse cx="138.513" cy="117.039" rx="20.0234" ry="23.5057" transform="rotate(42.5409 138.513 117.039)" fill="url(#paint8_linear)"/>
<ellipse cx="90.6567" cy="153.309" rx="15.2352" ry="20.0234" transform="rotate(-22.0749 90.6567 153.309)" fill="url(#paint9_linear)"/>
<path opacity="0.4" d="M1.93012 4.93031C1.78554 4.93031 1.66265 4.88694 1.56145 4.80019C1.4747 4.69899 1.43133 4.57609 1.43133 4.43152V3.26043C1.43133 3.11585 1.4747 2.99296 1.56145 2.89176C1.66265 2.79055 1.78554 2.73995 1.93012 2.73995H3.29639C3.44097 2.73995 3.56386 2.79055 3.66506 2.89176C3.76627 2.99296 3.81687 3.11585 3.81687 3.26043V4.43152C3.81687 4.57609 3.76627 4.69899 3.66506 4.80019C3.56386 4.88694 3.44097 4.93031 3.29639 4.93031H1.93012ZM2.10362 18.311C1.95904 18.311 1.83615 18.2677 1.73494 18.1809C1.64819 18.0797 1.60482 17.9568 1.60482 17.8122V7.53272C1.60482 7.38814 1.64819 7.27248 1.73494 7.18573C1.83615 7.08453 1.95904 7.03393 2.10362 7.03393H3.14458C3.28916 7.03393 3.40482 7.08453 3.49157 7.18573C3.59277 7.27248 3.64338 7.38814 3.64338 7.53272V17.8122C3.64338 17.9568 3.59277 18.0797 3.49157 18.1809C3.40482 18.2677 3.28916 18.311 3.14458 18.311H2.10362ZM7.35588 18.311C7.2113 18.311 7.08841 18.2677 6.9872 18.1809C6.90045 18.0797 6.85708 17.9568 6.85708 17.8122V7.53272C6.85708 7.38814 6.90045 7.27248 6.9872 7.18573C7.08841 7.08453 7.2113 7.03393 7.35588 7.03393H8.37515C8.51973 7.03393 8.63539 7.08453 8.72214 7.18573C8.82335 7.27248 8.87395 7.38814 8.87395 7.53272V8.48694C9.29322 7.952 9.78479 7.53995 10.3486 7.25079C10.927 6.96164 11.6426 6.81706 12.4956 6.81706C13.8836 6.81706 14.9607 7.26525 15.727 8.16164C16.5077 9.04357 16.898 10.2219 16.898 11.6966V17.8122C16.898 17.9568 16.8474 18.0797 16.7462 18.1809C16.6595 18.2677 16.5438 18.311 16.3992 18.311H15.3149C15.1703 18.311 15.0474 18.2677 14.9462 18.1809C14.8595 18.0797 14.8161 17.9568 14.8161 17.8122V11.805C14.8161 10.7785 14.5631 9.98332 14.0571 9.41947C13.5655 8.85561 12.8499 8.57369 11.9101 8.57369C10.9992 8.57369 10.2764 8.86284 9.74142 9.44116C9.20648 10.005 8.93901 10.793 8.93901 11.805V17.8122C8.93901 17.9568 8.88841 18.0797 8.7872 18.1809C8.70045 18.2677 8.58479 18.311 8.44021 18.311H7.35588ZM24.1294 18.5279C22.6258 18.5279 21.4908 18.0363 20.7246 17.0532C19.9583 16.0701 19.5535 14.8267 19.5101 13.3231L19.4884 12.6725L19.5101 12.0219C19.5535 10.5327 19.9583 9.29658 20.7246 8.31344C21.4908 7.31585 22.6258 6.81706 24.1294 6.81706C25.6185 6.81706 26.7896 7.34477 27.6426 8.40019V3.41224C27.6426 3.26766 27.686 3.152 27.7728 3.06525C27.874 2.96405 27.9969 2.91344 28.1414 2.91344H29.1824C29.327 2.91344 29.4426 2.96405 29.5294 3.06525C29.6306 3.152 29.6812 3.26766 29.6812 3.41224V17.8122C29.6812 17.9568 29.6306 18.0797 29.5294 18.1809C29.4426 18.2677 29.327 18.311 29.1824 18.311H28.2065C28.0619 18.311 27.939 18.2677 27.8378 18.1809C27.7511 18.0797 27.7077 17.9568 27.7077 17.8122V16.9014C26.8691 17.9857 25.6764 18.5279 24.1294 18.5279ZM24.5848 16.7713C25.5824 16.7713 26.327 16.446 26.8185 15.7954C27.3246 15.1303 27.5993 14.3424 27.6426 13.4315C27.6571 13.2725 27.6643 12.9978 27.6643 12.6074C27.6643 12.2026 27.6571 11.9207 27.6426 11.7616C27.6137 10.9086 27.339 10.164 26.8185 9.5279C26.2981 8.89176 25.5535 8.57369 24.5848 8.57369C23.5583 8.57369 22.8065 8.89176 22.3294 9.5279C21.8667 10.164 21.6137 11.0026 21.5704 12.0436L21.5487 12.6725C21.5487 15.405 22.5607 16.7713 24.5848 16.7713ZM37.4174 18.5279C35.9283 18.5279 34.7355 18.0725 33.8391 17.1616C32.9572 16.2363 32.4729 14.9785 32.3861 13.3881L32.3644 12.6508L32.3861 11.9351C32.4873 10.3737 32.9789 9.13031 33.8608 8.20501C34.7572 7.27971 35.9355 6.81706 37.3957 6.81706C39.0006 6.81706 40.2439 7.33031 41.1259 8.35682C42.0078 9.36887 42.4488 10.7424 42.4488 12.4773V12.846C42.4488 12.9906 42.3982 13.1134 42.297 13.2146C42.2102 13.3014 42.0945 13.3448 41.95 13.3448H34.4463V13.54C34.4897 14.4797 34.7717 15.2821 35.2921 15.9472C35.8271 16.5978 36.5283 16.9231 37.3957 16.9231C38.0608 16.9231 38.603 16.793 39.0223 16.5327C39.456 16.258 39.7741 15.9761 39.9765 15.6869C40.1066 15.5134 40.2006 15.4122 40.2584 15.3833C40.3307 15.34 40.4536 15.3183 40.6271 15.3183H41.6897C41.8198 15.3183 41.9283 15.3544 42.015 15.4267C42.1018 15.499 42.1451 15.6002 42.1451 15.7303C42.1451 16.0484 41.9427 16.4315 41.5379 16.8797C41.1476 17.3279 40.5909 17.7183 39.868 18.0508C39.1596 18.3689 38.3427 18.5279 37.4174 18.5279ZM40.3885 11.8484V11.7833C40.3885 10.7857 40.1138 9.9761 39.5644 9.35441C39.0295 8.71826 38.3066 8.40019 37.3957 8.40019C36.4849 8.40019 35.762 8.71826 35.2271 9.35441C34.7066 9.9761 34.4463 10.7857 34.4463 11.7833V11.8484H40.3885ZM44.2884 18.311C44.1727 18.311 44.0643 18.2677 43.9631 18.1809C43.8764 18.0942 43.833 17.9857 43.833 17.8556C43.833 17.7255 43.8836 17.5954 43.9848 17.4653L47.7583 12.5424L44.2233 7.87971C44.1221 7.76405 44.0715 7.63393 44.0715 7.48935C44.0715 7.35923 44.1149 7.25079 44.2017 7.16405C44.2884 7.0773 44.3968 7.03393 44.527 7.03393H45.633C45.8498 7.03393 46.0378 7.14959 46.1968 7.38091L49.0812 11.1327L51.9655 7.4026C52.0523 7.28694 52.1318 7.20019 52.2041 7.14236C52.2908 7.07007 52.3992 7.03393 52.5294 7.03393H53.592C53.7221 7.03393 53.8306 7.0773 53.9173 7.16405C54.0041 7.25079 54.0474 7.35923 54.0474 7.48935C54.0474 7.63393 53.9968 7.76405 53.8956 7.87971L50.3173 12.5857L54.0908 17.4653C54.192 17.5954 54.2426 17.7255 54.2426 17.8556C54.2426 17.9857 54.1992 18.0942 54.1125 18.1809C54.0258 18.2677 53.9173 18.311 53.7872 18.311H52.6378C52.4209 18.311 52.233 18.2026 52.0739 17.9857L49.0378 14.0171L45.9583 17.9857C45.8715 18.0869 45.7848 18.1665 45.698 18.2243C45.6258 18.2821 45.5245 18.311 45.3944 18.311H44.2884Z" fill="white"/>
<defs>
<filter id="filter0_f" x="-33.7737" y="-33.8309" width="292.545" height="271.085" filterUnits="userSpaceOnUse" color-interpolation-filters="sRGB">
<feFlood flood-opacity="0" result="BackgroundImageFix"/>
<feBlend mode="normal" in="SourceGraphic" in2="BackgroundImageFix" result="shape"/>
<feGaussianBlur stdDeviation="16.9428" result="effect1_foregroundBlur"/>
</filter>
<linearGradient id="paint0_linear" x1="215.681" y1="7.85694" x2="121.35" y2="207.549" gradientUnits="userSpaceOnUse">
<stop stop-color="white" stop-opacity="0.27"/>
<stop offset="1" stop-color="white" stop-opacity="0.05"/>
</linearGradient>
<linearGradient id="paint1_linear" x1="-44.1493" y1="73.1188" x2="59.6497" y2="82.8339" gradientUnits="userSpaceOnUse">
<stop stop-color="white"/>
<stop offset="0.0001" stop-color="#C6FF7E" stop-opacity="0.18"/>
<stop offset="0.177083" stop-color="#FF2E00" stop-opacity="0.47"/>
<stop offset="1" stop-color="white" stop-opacity="0"/>
</linearGradient>
<linearGradient id="paint2_linear" x1="135.542" y1="26.0635" x2="135.542" y2="42.3285" gradientUnits="userSpaceOnUse">
<stop stop-color="#74EF42" stop-opacity="0.79"/>
<stop offset="1" stop-color="#74EF42" stop-opacity="0.16"/>
</linearGradient>
<linearGradient id="paint3_linear" x1="91.4909" y1="112.811" x2="91.4909" y2="129.076" gradientUnits="userSpaceOnUse">
<stop stop-color="#74EF42" stop-opacity="0.79"/>
<stop offset="1" stop-color="#74EF42" stop-opacity="0.16"/>
</linearGradient>
<linearGradient id="paint4_linear" x1="159.601" y1="80.2808" x2="159.601" y2="96.5458" gradientUnits="userSpaceOnUse">
<stop stop-color="#F27744" stop-opacity="0.8"/>
<stop offset="1" stop-color="#F27744" stop-opacity="0.24"/>
</linearGradient>
<linearGradient id="paint5_linear" x1="-40.4544" y1="132.658" x2="287.622" y2="76.2423" gradientUnits="userSpaceOnUse">
<stop stop-color="white"/>
<stop offset="1" stop-color="white" stop-opacity="0"/>
</linearGradient>
<linearGradient id="paint6_linear" x1="119.926" y1="27.1282" x2="80.7303" y2="85.5574" gradientUnits="userSpaceOnUse">
<stop stop-color="#D11833"/>
<stop offset="1" stop-color="#F27744"/>
</linearGradient>
<linearGradient id="paint7_linear" x1="118.593" y1="45.5438" x2="114.923" y2="81.5053" gradientUnits="userSpaceOnUse">
<stop stop-color="#D1FF96"/>
<stop offset="1" stop-color="#25774F"/>
</linearGradient>
<linearGradient id="paint8_linear" x1="122.842" y1="140.544" x2="186.792" y2="103.143" gradientUnits="userSpaceOnUse">
<stop stop-color="#4D8192"/>
<stop offset="1" stop-color="#8A93E6"/>
</linearGradient>
<linearGradient id="paint9_linear" x1="95.4449" y1="137.638" x2="90.6567" y2="173.332" gradientUnits="userSpaceOnUse">
<stop stop-color="#FFE896"/>
<stop offset="1" stop-color="#DEB62A"/>
</linearGradient>
</defs>
</svg>
