<svg width="506" height="451" viewBox="0 0 506 451" fill="none" xmlns="http://www.w3.org/2000/svg">
<g opacity="0.1">
<path d="M373.686 314.538C338.536 314.538 310.075 342.626 310.075 377.316C310.075 412.006 337.749 434.14 373.686 439.318C378.014 439.965 382.342 440.094 386.801 440.094C415 440.094 440.182 430.386 459.461 412.912C466.937 406.052 475.2 397.509 481.102 389.225C490.939 375.504 526.22 317.774 465.101 250.595C443.854 227.296 441.755 200.761 451.723 182.51C445.165 202.314 447.264 224.966 469.036 248.136C531.335 314.538 497.103 378.222 487.266 392.331C480.053 402.557 472.577 411.618 463.265 420.031C443.067 438.412 416.442 450.45 386.801 450.45C352.569 450.45 322.01 434.917 301.943 410.582C293.812 400.745 268.499 381.329 268.63 347.286V341.72L296.959 244.641L405.294 182.639C411.065 200.631 414.344 218.494 415.393 238.039C406.343 266.645 389.424 292.274 373.686 314.538ZM357.947 274.412C370.275 262.762 376.964 234.674 376.964 234.674C319.649 238.557 290.664 283.861 283.581 306.125C290.795 290.203 345.618 286.061 357.947 274.412Z" fill="url(#paint0_linear)"/>
<path d="M226.135 390.778H252.891H279.646L301.681 410.582L255.251 446.954C253.809 448.119 251.841 448.119 250.399 446.954L203.97 410.582L226.135 390.778Z" fill="url(#paint1_radial)"/>
<path d="M131.965 314.15C116.227 292.016 99.5699 266.516 90.6513 237.91C91.7005 218.365 94.9794 200.502 100.75 182.51L209.085 244.641L237.415 341.72V347.286C237.546 381.458 212.233 400.874 204.101 410.582C184.034 434.917 153.475 450.45 119.243 450.45C89.602 450.45 62.9775 438.412 42.7795 420.031C33.4674 411.618 25.9915 402.557 18.778 392.331C8.81013 378.222 -25.2904 314.538 37.0086 248.394C58.7804 225.225 61.0101 202.443 54.3212 182.769C64.289 201.02 62.1905 227.555 40.9433 250.854C-20.1753 317.904 15.1056 375.763 24.9423 389.484C30.8443 397.768 39.1071 406.311 46.583 413.171C65.7317 430.645 91.0448 440.353 119.243 440.353C123.703 440.353 128.031 440.224 132.359 439.577C168.295 434.27 195.969 412.136 195.969 377.575C195.969 342.885 167.509 314.797 132.359 314.797L131.965 314.15ZM222.332 306.254C215.249 283.99 186.264 238.687 128.949 234.803C128.949 234.803 135.638 262.892 147.966 274.541C160.295 286.191 215.118 290.203 222.332 306.254Z" fill="url(#paint2_linear)"/>
<path d="M100.745 182.645C94.9738 200.637 91.6949 218.499 90.6456 238.045C99.6954 235.585 109.27 234.291 119.106 234.291C179.307 234.291 228.228 282.313 228.622 341.726H237.278L208.948 244.646L100.745 182.645Z" fill="url(#paint3_linear)"/>
<path d="M100.745 182.645C94.9738 200.637 91.6949 218.499 90.6456 238.045C99.6954 235.585 109.27 234.291 119.106 234.291C179.307 234.291 228.228 282.313 228.622 341.726H237.278L208.948 244.646L100.745 182.645Z" fill="url(#paint4_linear)"/>
<path d="M405.163 182.639C410.934 200.631 414.212 218.494 415.262 238.039C406.212 235.58 396.638 234.286 386.801 234.286C326.6 234.286 277.679 282.308 277.286 341.72H268.63L296.959 244.641L405.163 182.639Z" fill="url(#paint5_linear)"/>
<path d="M405.163 182.639C410.934 200.631 414.212 218.494 415.262 238.039C406.212 235.58 396.638 234.286 386.801 234.286C326.6 234.286 277.679 282.308 277.286 341.72H268.63L296.959 244.641L405.163 182.639Z" fill="url(#paint6_linear)"/>
<path d="M63.5013 102.904C63.5013 68.4735 79.6335 38.1847 104.815 18.3804C115.046 10.3552 126.718 4.01263 139.44 0C130.26 17.4743 125.145 37.2786 125.145 58.2478C125.145 79.8642 129.997 100.057 139.572 117.79C157.54 150.668 181.148 180.18 208.953 205.032C222.593 217.2 237.414 228.331 253.021 238.169C268.629 228.331 283.45 217.329 297.09 205.032C325.026 180.18 348.503 150.668 366.471 117.79C376.046 100.057 380.898 79.8642 380.898 58.2478C380.898 37.2786 375.652 17.4743 366.471 0C379.193 4.01263 390.866 10.3552 401.096 18.3804C426.278 38.0552 442.542 68.4735 442.542 102.904C442.542 107.435 443.066 122.579 435.197 141.866C429.164 156.492 420.507 169.695 409.228 180.439C398.867 190.923 385.489 201.408 367.783 210.857C285.942 255.125 277.285 323.34 277.285 341.591C277.285 384.435 301.811 410.582 301.811 410.582L279.777 390.778H261.678H253.021H226.134L204.1 410.582C204.1 410.582 228.626 384.565 228.626 341.591C228.626 323.34 219.97 255.125 138.129 210.857C120.554 201.279 107.045 190.923 96.6837 180.439C85.4043 169.695 76.748 156.492 70.7149 141.866C62.8456 122.579 63.5013 107.435 63.5013 102.904Z" fill="url(#paint7_radial)"/>
<path d="M347.978 214.481C360.045 204.514 364.504 201.408 369.619 197.395C372.373 195.195 375.39 192.735 379.718 188.852C397.03 173.578 401.752 169.436 411.458 154.68C412.638 152.868 413.687 151.185 414.737 149.503C416.704 145.749 418.671 141.866 420.245 137.853C426.672 122.191 427.59 109.247 427.59 102.387C427.59 101.739 427.59 101.222 427.59 100.574C427.59 99.7978 427.59 99.0212 427.59 98.5034C427.59 63.6842 411.458 33.1365 386.276 13.0734V13.3322C380.898 9.31962 374.865 5.69531 367.258 0.25885C379.718 4.27148 391.128 10.4846 401.227 18.3804C426.278 38.0552 442.542 68.4735 442.542 102.904C442.542 107.435 443.066 122.579 435.197 141.866C429.164 156.492 420.507 169.695 409.228 180.439C398.867 190.923 385.489 201.408 367.783 210.857C325.157 233.897 302.467 263.409 290.401 289.038C297.09 268.975 323.714 234.544 347.978 214.481Z" fill="url(#paint8_linear)"/>
<path d="M157.934 214.481C145.867 204.514 141.408 201.408 136.293 197.395C133.539 195.195 130.522 192.735 126.194 188.852C108.881 173.578 104.16 169.436 94.4543 154.68C93.2739 152.868 92.2246 151.185 91.1754 149.503C89.208 145.749 87.2407 141.866 85.6668 137.853C79.2402 122.191 78.3221 109.247 78.3221 102.387C78.3221 101.739 78.3221 101.222 78.3221 100.574C78.3221 99.7978 78.3221 99.0212 78.3221 98.5034C78.3221 63.6842 94.4542 33.1365 119.636 13.0734V13.3322C125.014 9.31962 131.047 5.69531 138.654 0.25885C126.194 4.27148 114.783 10.4846 104.684 18.3804C79.6337 38.0552 63.5015 68.4735 63.5015 102.904C63.5015 107.435 62.9769 122.579 70.8462 141.866C76.8794 156.492 85.5357 169.695 96.815 180.439C107.176 190.923 120.554 201.408 138.26 210.857C180.886 233.897 203.576 263.409 215.642 289.038C208.822 268.975 182.197 234.544 157.934 214.481Z" fill="url(#paint9_linear)"/>
<path d="M18.7774 392.331C8.80955 378.222 -25.291 314.538 37.0081 248.394C58.7799 225.225 61.0096 202.443 54.3206 182.768C64.2885 201.019 62.19 227.554 40.9427 250.854C-20.1759 317.903 15.105 375.763 24.9417 389.483" fill="#D53038"/>
<path d="M480.971 389.225C490.808 375.504 526.089 317.774 464.97 250.595C443.723 227.296 441.625 200.761 451.593 182.51C445.035 202.314 447.133 224.966 468.905 248.136C531.335 314.538 497.104 378.222 487.267 392.331" fill="#D53038"/>
</g>
<defs>
<linearGradient id="paint0_linear" x1="328.965" y1="448.786" x2="490.218" y2="109.436" gradientUnits="userSpaceOnUse">
<stop stop-color="#FF9E4B"/>
<stop offset="0.0738649" stop-color="#F78747"/>
<stop offset="0.2274" stop-color="#E34E3D"/>
<stop offset="0.3577" stop-color="#D11833"/>
<stop offset="0.4677" stop-color="#980F1F"/>
<stop offset="0.6323" stop-color="#3D0000"/>
</linearGradient>
<radialGradient id="paint1_radial" cx="0" cy="0" r="1" gradientUnits="userSpaceOnUse" gradientTransform="translate(252.96 465.405) rotate(180) scale(91.4105 90.2144)">
<stop stop-color="#FF9E4B"/>
<stop offset="0.126" stop-color="#F17444"/>
<stop offset="0.3419" stop-color="#DA3238"/>
<stop offset="0.4435" stop-color="#D11833"/>
<stop offset="0.52" stop-color="#BB142B"/>
<stop offset="0.6799" stop-color="#810B18"/>
<stop offset="0.8519" stop-color="#3D0000"/>
</radialGradient>
<linearGradient id="paint2_linear" x1="176.956" y1="448.786" x2="15.703" y2="109.436" gradientUnits="userSpaceOnUse">
<stop stop-color="#FF9E4B"/>
<stop offset="0.0738649" stop-color="#F78747"/>
<stop offset="0.2274" stop-color="#E34E3D"/>
<stop offset="0.3577" stop-color="#D11833"/>
<stop offset="0.4677" stop-color="#980F1F"/>
<stop offset="0.6323" stop-color="#3D0000"/>
</linearGradient>
<linearGradient id="paint3_linear" x1="193.312" y1="272.388" x2="65.3784" y2="225.364" gradientUnits="userSpaceOnUse">
<stop stop-color="#D11833"/>
<stop offset="0.1484" stop-color="#CD1732"/>
<stop offset="0.2887" stop-color="#C2162E"/>
<stop offset="0.4258" stop-color="#AF1227"/>
<stop offset="0.5609" stop-color="#940E1E"/>
<stop offset="0.6946" stop-color="#710812"/>
<stop offset="0.8255" stop-color="#480204"/>
<stop offset="0.8551" stop-color="#3D0000"/>
</linearGradient>
<linearGradient id="paint4_linear" x1="157.3" y1="280.016" x2="184.072" y2="238.199" gradientUnits="userSpaceOnUse">
<stop stop-color="#D11833" stop-opacity="0"/>
<stop offset="0.1329" stop-color="#C7162F" stop-opacity="0.1329"/>
<stop offset="0.3569" stop-color="#AD1226" stop-opacity="0.3569"/>
<stop offset="0.6445" stop-color="#820B16" stop-opacity="0.6445"/>
<stop offset="0.9816" stop-color="#470101" stop-opacity="0.9816"/>
<stop offset="1" stop-color="#440000"/>
</linearGradient>
<linearGradient id="paint5_linear" x1="312.603" y1="272.382" x2="440.537" y2="225.358" gradientUnits="userSpaceOnUse">
<stop stop-color="#D11833"/>
<stop offset="0.1484" stop-color="#CD1732"/>
<stop offset="0.2887" stop-color="#C2162E"/>
<stop offset="0.4258" stop-color="#AF1227"/>
<stop offset="0.5609" stop-color="#940E1E"/>
<stop offset="0.6946" stop-color="#710812"/>
<stop offset="0.8255" stop-color="#480204"/>
<stop offset="0.8551" stop-color="#3D0000"/>
</linearGradient>
<linearGradient id="paint6_linear" x1="348.616" y1="280.011" x2="321.843" y2="238.194" gradientUnits="userSpaceOnUse">
<stop stop-color="#D11833" stop-opacity="0"/>
<stop offset="0.1329" stop-color="#C7162F" stop-opacity="0.1329"/>
<stop offset="0.3569" stop-color="#AD1226" stop-opacity="0.3569"/>
<stop offset="0.6445" stop-color="#820B16" stop-opacity="0.6445"/>
<stop offset="0.9816" stop-color="#470101" stop-opacity="0.9816"/>
<stop offset="1" stop-color="#440000"/>
</linearGradient>
<radialGradient id="paint7_radial" cx="0" cy="0" r="1" gradientUnits="userSpaceOnUse" gradientTransform="translate(252.96 388.772) rotate(180) scale(296.372 522.716)">
<stop stop-color="#FF9E4B"/>
<stop offset="0.415" stop-color="#DE3F3A"/>
<stop offset="0.6079" stop-color="#D11833"/>
<stop offset="0.6698" stop-color="#D21C34"/>
<stop offset="0.7331" stop-color="#D72836"/>
<stop offset="0.7971" stop-color="#DE3D3A"/>
<stop offset="0.8615" stop-color="#E85A3F"/>
<stop offset="0.9257" stop-color="#F47E45"/>
<stop offset="0.9728" stop-color="#FF9E4B"/>
</radialGradient>
<linearGradient id="paint8_linear" x1="233.825" y1="328.196" x2="458.448" y2="-23.5408" gradientUnits="userSpaceOnUse">
<stop offset="0.1851" stop-color="#EC6841"/>
<stop offset="0.1963" stop-color="#E7633F"/>
<stop offset="0.2956" stop-color="#BF3E30"/>
<stop offset="0.3865" stop-color="#A32324"/>
<stop offset="0.4653" stop-color="#91131D"/>
<stop offset="0.523" stop-color="#8B0D1B"/>
<stop offset="0.5779" stop-color="#981420"/>
<stop offset="0.6783" stop-color="#B9272C"/>
<stop offset="0.7709" stop-color="#DD3C39"/>
<stop offset="0.8334" stop-color="#E95D3F"/>
</linearGradient>
<linearGradient id="paint9_linear" x1="272.101" y1="328.196" x2="47.4782" y2="-23.5406" gradientUnits="userSpaceOnUse">
<stop offset="0.1851" stop-color="#EC6841"/>
<stop offset="0.1963" stop-color="#E7633F"/>
<stop offset="0.2956" stop-color="#BF3E30"/>
<stop offset="0.3865" stop-color="#A32324"/>
<stop offset="0.4653" stop-color="#91131D"/>
<stop offset="0.523" stop-color="#8B0D1B"/>
<stop offset="0.5779" stop-color="#981420"/>
<stop offset="0.6783" stop-color="#B9272C"/>
<stop offset="0.7709" stop-color="#DD3C39"/>
<stop offset="0.8334" stop-color="#E95D3F"/>
</linearGradient>
</defs>
</svg>
