<svg width="226" height="223" viewBox="0 0 226 223" fill="none" xmlns="http://www.w3.org/2000/svg">
<mask id="mask0" style="mask-type:alpha" maskUnits="userSpaceOnUse" x="0" y="0" width="226" height="223">
<path fill-rule="evenodd" clip-rule="evenodd" d="M181.599 209.444C149.031 230.231 107.612 223.33 72.9264 209.501C39.2729 196.083 7.90183 172.6 1.29015 137.555C-4.88063 104.846 20.0528 75.2893 42.6203 48.8619C62.31 25.8045 86.4729 7.34121 116.431 2.72034C149.518 -2.38317 185.875 0.106974 207.84 23.3774C229.943 46.7928 226.451 82.0146 221.879 114.433C216.897 149.761 212.761 189.555 181.599 209.444Z" fill="#C4C4C4"/>
</mask>
<g mask="url(#mask0)">
<g filter="url(#filter0_f)">
<path fill-rule="evenodd" clip-rule="evenodd" d="M181.599 209.444C149.031 230.231 107.612 223.33 72.9264 209.501C39.2729 196.083 7.90183 172.6 1.29015 137.555C-4.88063 104.846 20.0528 75.2893 42.6203 48.8619C62.31 25.8045 86.4729 7.34121 116.431 2.72034C149.518 -2.38317 185.875 0.106974 207.84 23.3774C229.943 46.7928 226.451 82.0146 221.879 114.433C216.897 149.761 212.761 189.555 181.599 209.444Z" fill="url(#paint0_linear)"/>
<path fill-rule="evenodd" clip-rule="evenodd" d="M181.599 209.444C149.031 230.231 107.612 223.33 72.9264 209.501C39.2729 196.083 7.90183 172.6 1.29015 137.555C-4.88063 104.846 20.0528 75.2893 42.6203 48.8619C62.31 25.8045 86.4729 7.34121 116.431 2.72034C149.518 -2.38317 185.875 0.106974 207.84 23.3774C229.943 46.7928 226.451 82.0146 221.879 114.433C216.897 149.761 212.761 189.555 181.599 209.444Z" fill="url(#paint1_linear)" style="mix-blend-mode:screen"/>
</g>
<path d="M157.267 66.8823C157.15 66.8823 157.051 66.8473 156.97 66.7774C156.9 66.6959 156.865 66.5968 156.865 66.4803L156.865 62.8279L153.247 62.8279C153.131 62.8279 153.032 62.793 152.95 62.7231C152.88 62.6415 152.845 62.5425 152.845 62.426L152.845 61.9017C152.845 61.7852 152.88 61.692 152.95 61.6221C153.032 61.5405 153.131 61.4998 153.247 61.4998L156.865 61.4998L156.865 57.9522C156.865 57.824 156.9 57.725 156.97 57.6551C157.051 57.5852 157.15 57.5502 157.267 57.5502L157.826 57.5502C157.954 57.5502 158.053 57.5852 158.123 57.6551C158.193 57.725 158.228 57.824 158.228 57.9522L158.228 61.4998L161.845 61.4998C161.962 61.4998 162.055 61.5405 162.125 61.6221C162.207 61.692 162.247 61.7852 162.247 61.9017L162.247 62.426C162.247 62.5425 162.207 62.6415 162.125 62.7231C162.055 62.793 161.962 62.8279 161.845 62.8279L158.228 62.8279L158.228 66.4803C158.228 66.5968 158.187 66.6959 158.106 66.7774C158.036 66.8473 157.942 66.8823 157.826 66.8823L157.267 66.8823ZM168.051 69.2066C167.934 69.2066 167.835 69.1716 167.753 69.1017C167.684 69.0318 167.649 68.9328 167.649 68.8046L167.649 67.5813C166.833 67.5114 166.128 67.325 165.534 67.0221C164.951 66.7075 164.503 66.3231 164.188 65.8687C163.885 65.4027 163.722 64.9075 163.699 64.3833C163.699 64.2901 163.734 64.2085 163.804 64.1386C163.874 64.0687 163.961 64.0337 164.066 64.0337L164.905 64.0337C165.126 64.0337 165.278 64.1502 165.359 64.3833C165.464 64.8726 165.761 65.2978 166.251 65.659C166.751 66.0085 167.462 66.1833 168.383 66.1833C169.373 66.1833 170.113 66.0085 170.602 65.659C171.091 65.3095 171.336 64.826 171.336 64.2085C171.336 63.8124 171.214 63.4862 170.969 63.2299C170.736 62.9735 170.381 62.7522 169.903 62.5658C169.437 62.3677 168.732 62.1289 167.788 61.8493C166.891 61.593 166.175 61.3192 165.639 61.0279C165.103 60.7367 164.701 60.3813 164.433 59.9619C164.165 59.5308 164.031 58.9891 164.031 58.3367C164.031 57.4629 164.351 56.7289 164.992 56.1347C165.633 55.5405 166.518 55.191 167.649 55.0862L167.649 53.8803C167.649 53.7522 167.684 53.6532 167.753 53.5833C167.835 53.5134 167.934 53.4784 168.051 53.4784L168.68 53.4784C168.796 53.4784 168.889 53.5192 168.959 53.6007C169.029 53.6706 169.064 53.7638 169.064 53.8803L169.064 55.1036C169.81 55.1968 170.451 55.4066 170.986 55.7328C171.522 56.059 171.924 56.4434 172.192 56.8862C172.472 57.3172 172.623 57.7541 172.647 58.1968C172.647 58.3017 172.612 58.3891 172.542 58.459C172.472 58.5289 172.384 58.5638 172.28 58.5638L171.406 58.5638C171.313 58.5638 171.219 58.5347 171.126 58.4765C171.045 58.4182 170.992 58.3308 170.969 58.2143C170.899 57.7134 170.619 57.2998 170.13 56.9735C169.641 56.6473 169.029 56.4842 168.295 56.4842C167.503 56.4842 166.874 56.6415 166.408 56.9561C165.942 57.259 165.709 57.7134 165.709 58.3192C165.709 58.7269 165.814 59.059 166.023 59.3153C166.245 59.5716 166.577 59.7988 167.019 59.9968C167.474 60.1949 168.126 60.4221 168.977 60.6784C169.967 60.958 170.748 61.2376 171.318 61.5172C171.889 61.7968 172.315 62.1464 172.594 62.5658C172.874 62.9735 173.014 63.5036 173.014 64.1561C173.014 65.1464 172.658 65.9444 171.948 66.5502C171.249 67.1561 170.287 67.5056 169.064 67.5988L169.064 68.8046C169.064 68.9211 169.029 69.0143 168.959 69.0842C168.889 69.1658 168.796 69.2066 168.68 69.2066L168.051 69.2066Z" fill="url(#paint2_linear)"/>
<path opacity="0.3" fill-rule="evenodd" clip-rule="evenodd" d="M181.599 209.445C149.031 230.231 107.612 223.331 72.9265 209.501C39.273 196.084 7.90188 172.601 1.2902 137.555C-4.88058 104.846 20.0529 75.2895 42.6203 48.8621C62.31 25.8046 86.473 7.34137 116.431 2.72051C149.518 -2.383 185.875 0.10715 207.84 23.3776C229.943 46.793 226.451 82.0148 221.879 114.433C216.897 149.762 212.761 189.555 181.599 209.445Z" stroke="url(#paint3_linear)" stroke-width="0.728155"/>
</g>
<ellipse cx="123.489" cy="112.257" rx="36.8356" ry="47.2361" transform="rotate(30 123.489 112.257)" fill="url(#paint4_linear)"/>
<path opacity="0.4" d="M7.21653 21C4.76216 21 3.53497 19.633 3.53497 16.899V10.7476H1.7175C1.56216 10.7476 1.43012 10.701 1.32138 10.6078C1.22818 10.499 1.18158 10.367 1.18158 10.2117V9.41942C1.18158 9.26408 1.22818 9.13981 1.32138 9.0466C1.43012 8.93786 1.56216 8.88349 1.7175 8.88349H3.53497V4.99223C3.53497 4.83689 3.58158 4.71262 3.67478 4.61942C3.78352 4.51068 3.91556 4.45631 4.0709 4.45631H5.16604C5.32138 4.45631 5.44565 4.51068 5.53886 4.61942C5.6476 4.71262 5.70197 4.83689 5.70197 4.99223V8.88349H8.59129C8.74663 8.88349 8.8709 8.93786 8.9641 9.0466C9.07284 9.13981 9.12721 9.26408 9.12721 9.41942V10.2117C9.12721 10.367 9.07284 10.499 8.9641 10.6078C8.8709 10.701 8.74663 10.7476 8.59129 10.7476H5.70197V16.7359C5.70197 17.5126 5.834 18.1029 6.09808 18.5068C6.36216 18.8951 6.79711 19.0893 7.40294 19.0893H8.8243C8.97964 19.0893 9.10391 19.1437 9.19711 19.2524C9.30585 19.3456 9.36022 19.4699 9.36022 19.6252V20.4641C9.36022 20.6194 9.30585 20.7515 9.19711 20.8602C9.10391 20.9534 8.97964 21 8.8243 21H7.21653ZM16.5515 21.233C14.8427 21.233 13.5146 20.7515 12.567 19.7883C11.635 18.8252 11.1379 17.5437 11.0758 15.9437L11.0524 14.9417L11.0758 13.9398C11.1379 12.3553 11.6427 11.0816 12.5903 10.1184C13.5379 9.13981 14.8583 8.65049 16.5515 8.65049C18.2447 8.65049 19.5651 9.13981 20.5126 10.1184C21.4602 11.0816 21.9651 12.3553 22.0272 13.9398C22.0427 14.1107 22.0505 14.4447 22.0505 14.9417C22.0505 15.4388 22.0427 15.7728 22.0272 15.9437C21.9651 17.5437 21.4602 18.8252 20.5126 19.7883C19.5806 20.7515 18.2602 21.233 16.5515 21.233ZM16.5515 19.4388C17.5301 19.4388 18.2991 19.1282 18.8583 18.5068C19.433 17.8854 19.7437 16.9922 19.7903 15.8272C19.8058 15.6718 19.8136 15.3767 19.8136 14.9417C19.8136 14.5068 19.8058 14.2117 19.7903 14.0563C19.7437 12.8913 19.433 11.9981 18.8583 11.3767C18.2991 10.7553 17.5301 10.4447 16.5515 10.4447C15.5728 10.4447 14.7961 10.7553 14.2214 11.3767C13.6466 11.9981 13.3437 12.8913 13.3126 14.0563L13.2893 14.9417L13.3126 15.8272C13.3437 16.9922 13.6466 17.8854 14.2214 18.5068C14.7961 19.1282 15.5728 19.4388 16.5515 19.4388ZM25.5275 21C25.3721 21 25.2401 20.9534 25.1313 20.8602C25.0381 20.7515 24.9915 20.6194 24.9915 20.4641V4.99223C24.9915 4.83689 25.0381 4.71262 25.1313 4.61942C25.2401 4.51068 25.3721 4.45631 25.5275 4.45631H26.6226C26.7779 4.45631 26.9022 4.51068 26.9954 4.61942C27.1041 4.71262 27.1585 4.83689 27.1585 4.99223V13.101L31.7488 9.27961C31.7954 9.24854 31.8731 9.18641 31.9818 9.0932C32.0906 9.01553 32.1915 8.96116 32.2847 8.9301C32.3935 8.89903 32.5255 8.88349 32.6808 8.88349H33.9158C34.0556 8.88349 34.1721 8.9301 34.2653 9.0233C34.3585 9.11651 34.4051 9.23301 34.4051 9.37282C34.4051 9.54369 34.3119 9.69126 34.1255 9.81553L28.743 14.2893L34.708 20.0913C34.8944 20.2466 34.9876 20.3864 34.9876 20.5107C34.9876 20.6505 34.941 20.767 34.8478 20.8602C34.7546 20.9534 34.6381 21 34.4983 21H33.2867C33.0537 21 32.8828 20.9767 32.7741 20.9301C32.6808 20.8835 32.541 20.7748 32.3546 20.6039L27.1585 15.6408V20.4641C27.1585 20.6194 27.1041 20.7515 26.9954 20.8602C26.9022 20.9534 26.7779 21 26.6226 21H25.5275ZM41.2605 21.233C39.6605 21.233 38.379 20.7437 37.4159 19.765C36.4683 18.7709 35.9479 17.4194 35.8547 15.7107L35.8314 14.9184L35.8547 14.1495C35.9634 12.4718 36.4916 11.1359 37.4392 10.1417C38.4023 9.14757 39.6683 8.65049 41.2372 8.65049C42.9615 8.65049 44.2974 9.20194 45.245 10.3049C46.1926 11.3922 46.6663 12.868 46.6663 14.732V15.1282C46.6663 15.2835 46.612 15.4155 46.5032 15.5243C46.41 15.6175 46.2858 15.6641 46.1304 15.6641H38.0683V15.8738C38.1149 16.8835 38.4178 17.7456 38.977 18.4602C39.5518 19.1592 40.3052 19.5087 41.2372 19.5087C41.9518 19.5087 42.5343 19.3689 42.9848 19.0893C43.4508 18.7942 43.7926 18.4913 44.01 18.1806C44.1498 17.9942 44.2508 17.8854 44.3129 17.8544C44.3906 17.8078 44.5227 17.7845 44.7091 17.7845H45.8508C45.9906 17.7845 46.1071 17.8233 46.2003 17.901C46.2935 17.9786 46.3401 18.0874 46.3401 18.2272C46.3401 18.5689 46.1227 18.9806 45.6877 19.4621C45.2683 19.9437 44.6702 20.3631 43.8935 20.7204C43.1324 21.0621 42.2547 21.233 41.2605 21.233ZM44.4528 14.0563V13.9864C44.4528 12.9146 44.1576 12.0447 43.5673 11.3767C42.9926 10.6932 42.2159 10.3515 41.2372 10.3515C40.2586 10.3515 39.4819 10.6932 38.9071 11.3767C38.3479 12.0447 38.0683 12.9146 38.0683 13.9864V14.0563H44.4528ZM49.9884 21C49.833 21 49.701 20.9534 49.5923 20.8602C49.4991 20.7515 49.4525 20.6194 49.4525 20.4641V9.41942C49.4525 9.26408 49.4991 9.13981 49.5923 9.0466C49.701 8.93786 49.833 8.88349 49.9884 8.88349H51.0835C51.2389 8.88349 51.3631 8.93786 51.4563 9.0466C51.5651 9.13981 51.6194 9.26408 51.6194 9.41942V10.4447C52.0699 9.8699 52.5981 9.42718 53.2039 9.1165C53.8253 8.80582 54.5942 8.65049 55.5107 8.65049C57.002 8.65049 58.1592 9.13204 58.9825 10.0951C59.8214 11.0427 60.2408 12.3087 60.2408 13.8932V20.4641C60.2408 20.6194 60.1864 20.7515 60.0777 20.8602C59.9845 20.9534 59.8602 21 59.7049 21H58.5398C58.3845 21 58.2525 20.9534 58.1437 20.8602C58.0505 20.7515 58.0039 20.6194 58.0039 20.4641V14.0097C58.0039 12.9068 57.7321 12.0524 57.1884 11.4466C56.6602 10.8408 55.8913 10.5379 54.8816 10.5379C53.9029 10.5379 53.1262 10.8485 52.5515 11.4699C51.9767 12.0757 51.6893 12.9223 51.6893 14.0097V20.4641C51.6893 20.6194 51.635 20.7515 51.5262 20.8602C51.433 20.9534 51.3088 21 51.1534 21H49.9884Z" fill="white"/>
<defs>
<filter id="filter0_f" x="-36.0713" y="-35.9009" width="297.76" height="294.887" filterUnits="userSpaceOnUse" color-interpolation-filters="sRGB">
<feFlood flood-opacity="0" result="BackgroundImageFix"/>
<feBlend mode="normal" in="SourceGraphic" in2="BackgroundImageFix" result="shape"/>
<feGaussianBlur stdDeviation="18.2039" result="effect1_foregroundBlur"/>
</filter>
<linearGradient id="paint0_linear" x1="76.5699" y1="259.02" x2="59.7661" y2="22.3256" gradientUnits="userSpaceOnUse">
<stop stop-color="white" stop-opacity="0.27"/>
<stop offset="1" stop-color="white" stop-opacity="0.05"/>
</linearGradient>
<linearGradient id="paint1_linear" x1="285.552" y1="61.0819" x2="183.223" y2="106.64" gradientUnits="userSpaceOnUse">
<stop stop-color="white"/>
<stop offset="0.0001" stop-color="#C6FF7E" stop-opacity="0.18"/>
<stop offset="0.177083" stop-color="#FF2E00" stop-opacity="0.47"/>
<stop offset="1" stop-color="white" stop-opacity="0"/>
</linearGradient>
<linearGradient id="paint2_linear" x1="162.923" y1="52.459" x2="162.923" y2="69.9347" gradientUnits="userSpaceOnUse">
<stop stop-color="#74EF42" stop-opacity="0.79"/>
<stop offset="1" stop-color="#74EF42" stop-opacity="0.16"/>
</linearGradient>
<linearGradient id="paint3_linear" x1="250.741" y1="7.26625" x2="-26.8158" y2="232.855" gradientUnits="userSpaceOnUse">
<stop stop-color="white"/>
<stop offset="1" stop-color="white" stop-opacity="0"/>
</linearGradient>
<linearGradient id="paint4_linear" x1="130.708" y1="70.8643" x2="84.5196" y2="124.54" gradientUnits="userSpaceOnUse">
<stop stop-color="#AF142E"/>
<stop offset="1" stop-color="#F27744"/>
</linearGradient>
</defs>
</svg>
