<svg width="551" height="70" viewBox="0 0 551 70" fill="none" xmlns="http://www.w3.org/2000/svg">
<g filter="url(#filter0_f)">
<path d="M95.5386 34.959C106.582 0.292294 124.487 0.292355 135.53 34.959C146.573 69.6256 164.478 69.6257 175.521 34.959C186.565 0.292294 204.47 0.292366 215.513 34.959C226.556 69.6256 244.461 69.6257 255.504 34.959C266.548 0.292294 284.452 0.292343 295.496 34.959C306.539 69.6256 324.444 69.6257 335.487 34.959C346.531 0.292294 364.435 0.292343 375.479 34.959C386.522 69.6256 404.427 69.6257 415.47 34.959C426.514 0.292294 444.418 0.292343 455.462 34.959" stroke="url(#paint0_linear)"/>
</g>
<g filter="url(#filter1_f)">
<path d="M26 34.959C36.5996 26.959 53.785 26.959 64.3846 34.959C74.9842 42.959 92.1696 42.959 102.769 34.959C113.369 26.959 130.554 26.959 141.154 34.959C151.753 42.959 168.939 42.959 179.538 34.959C190.138 26.959 207.323 26.959 217.923 34.959C228.523 42.959 245.708 42.959 256.308 34.959C266.907 26.959 284.093 26.959 294.692 34.959C305.292 42.959 322.477 42.959 333.077 34.959C343.677 26.959 360.862 26.959 371.462 34.959C382.061 42.959 399.247 42.959 409.846 34.959C420.446 26.959 437.631 26.959 448.231 34.959C458.83 42.959 476.016 42.959 486.615 34.959C497.215 26.959 514.4 26.959 525 34.959" stroke="url(#paint1_linear)" stroke-width="4"/>
</g>
<g style="mix-blend-mode:screen" filter="url(#filter2_f)">
<path d="M26 34.959C36.5996 26.959 53.785 26.959 64.3846 34.959C74.9842 42.959 92.1696 42.959 102.769 34.959C113.369 26.959 130.554 26.959 141.154 34.959C151.753 42.959 168.939 42.959 179.538 34.959C190.138 26.959 207.323 26.959 217.923 34.959C228.523 42.959 245.708 42.959 256.308 34.959C266.907 26.959 284.093 26.959 294.692 34.959C305.292 42.959 322.477 42.959 333.077 34.959C343.677 26.959 360.862 26.959 371.462 34.959C382.061 42.959 399.247 42.959 409.846 34.959C420.446 26.959 437.631 26.959 448.231 34.959C458.83 42.959 476.016 42.959 486.615 34.959C497.215 26.959 514.4 26.959 525 34.959" stroke="url(#paint2_linear)" stroke-width="3"/>
</g>
<path d="M26 34.959C36.5996 26.959 53.785 26.959 64.3846 34.959C74.9842 42.959 92.1696 42.959 102.769 34.959C113.369 26.959 130.554 26.959 141.154 34.959C151.753 42.959 168.939 42.959 179.538 34.959C190.138 26.959 207.323 26.959 217.923 34.959C228.523 42.959 245.708 42.959 256.308 34.959C266.907 26.959 284.093 26.959 294.692 34.959C305.292 42.959 322.477 42.959 333.077 34.959C343.677 26.959 360.862 26.959 371.462 34.959C382.061 42.959 399.247 42.959 409.846 34.959C420.446 26.959 437.631 26.959 448.231 34.959C458.83 42.959 476.016 42.959 486.615 34.959C497.215 26.959 514.4 26.959 525 34.959" stroke="url(#paint3_linear)"/>
<defs>
<filter id="filter0_f" x="87.062" y="0.458984" width="376.876" height="69" filterUnits="userSpaceOnUse" color-interpolation-filters="sRGB">
<feFlood flood-opacity="0" result="BackgroundImageFix"/>
<feBlend mode="normal" in="SourceGraphic" in2="BackgroundImageFix" result="shape"/>
<feGaussianBlur stdDeviation="4" result="effect1_foregroundBlur"/>
</filter>
<filter id="filter1_f" x="0.794922" y="2.95898" width="549.41" height="64" filterUnits="userSpaceOnUse" color-interpolation-filters="sRGB">
<feFlood flood-opacity="0" result="BackgroundImageFix"/>
<feBlend mode="normal" in="SourceGraphic" in2="BackgroundImageFix" result="shape"/>
<feGaussianBlur stdDeviation="12" result="effect1_foregroundBlur"/>
</filter>
<filter id="filter2_f" x="13.0962" y="15.459" width="524.808" height="39" filterUnits="userSpaceOnUse" color-interpolation-filters="sRGB">
<feFlood flood-opacity="0" result="BackgroundImageFix"/>
<feBlend mode="normal" in="SourceGraphic" in2="BackgroundImageFix" result="shape"/>
<feGaussianBlur stdDeviation="6" result="effect1_foregroundBlur"/>
</filter>
<linearGradient id="paint0_linear" x1="39.1347" y1="34.959" x2="493.944" y2="21.7322" gradientUnits="userSpaceOnUse">
<stop stop-color="#DA3338" stop-opacity="0"/>
<stop offset="0.494792" stop-color="#FF0008"/>
<stop offset="1" stop-color="#FF0008" stop-opacity="0"/>
</linearGradient>
<linearGradient id="paint1_linear" x1="-52.1988" y1="34.959" x2="560.191" y2="-72.0369" gradientUnits="userSpaceOnUse">
<stop stop-color="#DA3338" stop-opacity="0"/>
<stop offset="0.494792" stop-color="#FF0008"/>
<stop offset="1" stop-color="#FF0008" stop-opacity="0"/>
</linearGradient>
<linearGradient id="paint2_linear" x1="14.9602" y1="28.9588" x2="539.885" y2="36.2713" gradientUnits="userSpaceOnUse">
<stop stop-color="white" stop-opacity="0"/>
<stop offset="0.567708" stop-color="#FFB35A"/>
<stop offset="1" stop-color="white" stop-opacity="0"/>
</linearGradient>
<linearGradient id="paint3_linear" x1="14.9602" y1="28.9588" x2="539.885" y2="36.2713" gradientUnits="userSpaceOnUse">
<stop stop-color="white" stop-opacity="0"/>
<stop offset="0.567708" stop-color="white"/>
<stop offset="1" stop-color="white" stop-opacity="0"/>
</linearGradient>
</defs>
</svg>
