<svg xmlns="http://www.w3.org/2000/svg" fill="none" viewBox="0 0 64 64">
  <g clip-path="url(#clip0)">
    <path fill="url(#paint0_linear)" d="M60.665 53.682h-2.66V49.72c0-.69-.559-1.25-1.25-1.25h-1.46c-.294-1.742-1.188-3.32-2.501-4.384V29.632c1.313-1.065 2.207-2.642 2.5-4.385h1.462c.69 0 1.25-.56 1.25-1.25v-3.961h2.659a1.25 1.25 0 00.652-2.317L32.652.183a1.25 1.25 0 00-1.305 0L2.682 17.72a1.25 1.25 0 00.652 2.316h2.659v3.962c0 .69.56 1.25 1.25 1.25h1.461c.293 1.743 1.187 3.32 2.5 4.385v14.453c-1.313 1.065-2.207 2.642-2.5 4.385h-1.46c-.691 0-1.25.56-1.25 1.25v3.962h-2.66c-.69 0-1.25.56-1.25 1.25v7.818c0 .69.56 1.25 1.25 1.25h23.04a1.25 1.25 0 100-2.5H4.584v-5.318h54.83V61.5h-21.79a1.25 1.25 0 000 2.5h23.04c.691 0 1.25-.56 1.25-1.25v-7.818c0-.69-.559-1.25-1.25-1.25zM21.418 48.47c-.293-1.742-1.188-3.32-2.501-4.385V29.633c1.314-1.066 2.208-2.644 2.5-4.386h4.226c.293 1.743 1.187 3.32 2.5 4.386v14.452c-1.313 1.065-2.207 2.643-2.5 4.385h-4.225zm12.79-20.723H29.79c-.778-.6-1.339-1.49-1.595-2.5h7.609c-.256 1.01-.817 1.9-1.595 2.5zm-.853 2.5V43.47h-2.712V30.247h2.712zM29.79 45.97h4.419c.778.6 1.339 1.49 1.595 2.5h-7.609c.256-1.01.817-1.9 1.595-2.5zm8.565 2.5c-.292-1.742-1.186-3.32-2.5-4.385V29.633c1.314-1.066 2.208-2.643 2.5-4.386h4.226c.293 1.742 1.187 3.32 2.5 4.386v14.452c-1.313 1.066-2.207 2.643-2.5 4.385h-4.226zm8.374-2.5h4.417c.78.6 1.34 1.49 1.597 2.5h-7.61c.256-1.01.817-1.9 1.596-2.5zm.853-2.5V30.247h2.712V43.47h-2.712zm3.564-15.723H46.73c-.779-.6-1.34-1.49-1.596-2.5h7.61c-.257 1.011-.818 1.9-1.597 2.5zM32 2.715l24.227 14.82H7.773l24.226-14.82zM8.493 20.035h47.013v2.712H8.493v-2.711zm10.373 5.212c-.256 1.01-.817 1.9-1.596 2.5h-4.417c-.78-.6-1.34-1.489-1.597-2.5h7.61zm-2.45 5V43.47h-2.711V30.247h2.712zM12.854 45.97h4.417c.779.6 1.34 1.49 1.596 2.5h-7.61c.257-1.01.818-1.9 1.597-2.5zm-4.36 5h47.013v2.712H8.493V50.97z"/>
    <path fill="url(#paint1_linear)" d="M32 64a1.25 1.25 0 100-2.5 1.25 1.25 0 000 2.5z"/>
  </g>
  <defs>
    <linearGradient id="paint0_linear" x1="31.999" x2="31.999" y1="0" y2="64" gradientUnits="userSpaceOnUse">
      <stop stop-color="#DF3F3A"/>
      <stop offset="1" stop-color="#F47C45"/>
    </linearGradient>
    <linearGradient id="paint1_linear" x1="32" x2="32" y1="61.5" y2="64" gradientUnits="userSpaceOnUse">
      <stop stop-color="#DF3F3A"/>
      <stop offset="1" stop-color="#F47C45"/>
    </linearGradient>
    <clipPath id="clip0">
      <path fill="#fff" d="M0 0h64v64H0z"/>
    </clipPath>
  </defs>
</svg>
