<svg xmlns="http://www.w3.org/2000/svg" fill="none" viewBox="0 0 64 64">
  <path fill="url(#paint0_linear)" d="M54.625 9.375C48.587 3.325 40.55 0 32 0c-4.3 0-8.462.838-12.387 2.487l.724 1.738A29.917 29.917 0 0131 1.913h.063c.312-.013.625-.013.937-.013.313 0 .625.013.938.013h.024c7.675.237 14.863 3.35 20.325 8.8 5.45 5.45 8.563 12.637 8.8 20.312v.038c.013.312.013.625.013.937 0 .313-.013.625-.013.938v.012c-.237 7.688-3.337 14.875-8.8 20.337a29.935 29.935 0 01-20.3 8.8h-.05c-.312.013-.624.013-.937.013-.313 0-.625-.013-.938-.013h-.05c-7.675-.25-14.85-3.35-20.3-8.8C5.25 47.837 2.15 40.663 1.9 33v-.05c-.012-.313-.012-.625-.012-.938 0-.312.012-.625.012-.937 0-.063 0-.125.013-.188 0-.162.012-.337.024-.5.388-7.45 3.475-14.387 8.776-19.674A29.998 29.998 0 0117.2 5.775l-.938-1.65A32.293 32.293 0 004.489 15.637 31.988 31.988 0 000 32c0 8.55 3.325 16.587 9.375 22.625S23.45 64 32 64s16.587-3.325 22.625-9.375C60.675 48.575 64 40.55 64 32s-3.325-16.587-9.375-22.625z"/>
  <path fill="url(#paint1_linear)" d="M32 7.012c-.313 0-.625.013-.938.025a24.835 24.835 0 00-16.037 6.65c-.463.425-.9.875-1.338 1.338a24.835 24.835 0 00-6.65 16.037c-.012.313-.024.625-.024.938 0 .312.012.625.025.937a24.788 24.788 0 003.8 12.325c.012.013.025.038.037.05.088.138.175.263.262.4.013.025.038.063.05.088.088.125.163.25.25.375.026.037.05.062.075.1.088.125.163.237.25.35l.075.112c.088.113.175.225.263.35.025.038.05.075.088.113l.262.337c.025.038.05.063.075.1.088.113.188.225.275.338.025.025.037.05.063.075.1.125.2.237.3.362l.024.025c.238.275.476.538.726.8.437.45.887.888 1.35 1.313a24.887 24.887 0 0015.775 6.412c.312.013.625.025.937.025.313 0 .625-.012.938-.025.837-.025 1.662-.1 2.475-.212l.3-.038c.075-.012.137-.025.212-.037l.413-.075c.037-.013.087-.013.124-.025.175-.038.35-.063.526-.1h.024c1.5-.313 2.938-.75 4.325-1.313l-.7-1.737c-1.325.537-2.7.95-4.087 1.225a11.513 11.513 0 01-.875-4.4c0-.888.263-8.775 9.55-13.863 1.887-1.037 3.525-2.25 4.837-3.6.938-.912 1.75-2 2.413-3.212.1-.188.137-.413.112-.638-.762-4.787-2.287-9.387-4.387-13.362C52.413 19.762 55.05 25.587 55.05 32a23.13 23.13 0 01-11.912 20.212l.912 1.638a25.08 25.08 0 009.55-9.4c.025-.038.038-.075.063-.113.062-.112.137-.237.2-.35.05-.1.1-.187.15-.287.025-.05.062-.113.087-.163.075-.137.15-.275.212-.412 0-.013.013-.013.013-.025a24.996 24.996 0 002.587-10.163c.013-.312.026-.625.026-.937 0-.313-.013-.625-.026-.938A24.887 24.887 0 0050.5 15.287a26.825 26.825 0 00-1.313-1.35c-.524-.5-1.075-.987-1.65-1.437-.012-.013-.024-.013-.024-.025-.138-.1-.263-.213-.4-.313a.173.173 0 00-.05-.037c-.138-.1-.263-.2-.4-.3-.013-.013-.038-.025-.05-.038l-.413-.3c-.013-.012-.025-.012-.038-.025a5.28 5.28 0 00-.437-.287l-.013-.013c-3.7-2.45-8.1-3.95-12.825-4.125A18.869 18.869 0 0032 7.012zM8.9 32c0-6.425 2.637-12.238 6.875-16.425-2.1 3.975-3.625 8.575-4.388 13.362a.96.96 0 00.113.638 13.274 13.274 0 002.412 3.212c1.313 1.35 2.95 2.563 4.838 3.6 9.288 5.088 9.55 12.975 9.55 13.863 0 1.525-.288 3-.863 4.4C16.876 52.512 8.9 43.175 8.9 32zm39.788-.638l-.026.025c-1.175 1.213-2.65 2.313-4.374 3.25C34 40.275 33.7 49.25 33.7 50.25c0 1.525.25 3 .737 4.412-.787.063-1.612.1-2.437.1-.825 0-1.65-.037-2.438-.1.488-1.412.738-2.9.738-4.412 0-1-.3-9.975-10.588-15.613-1.724-.937-3.187-2.037-4.374-3.25l-.025-.025a10.834 10.834 0 01-1.888-2.45c.65-3.837 1.787-7.537 3.35-10.85v.225c0 2.6.563 4.988 1.688 7.113l.037.075a37.69 37.69 0 007.938 10.1 37.985 37.985 0 005 3.812c.15.113.337.175.537.188a.954.954 0 00.612-.175 38.951 38.951 0 005.013-3.813 37.69 37.69 0 007.938-10.1l.037-.075c1.112-2.125 1.688-4.512 1.688-7.112v-.225c1.55 3.312 2.7 7.012 3.35 10.85-.563.912-1.2 1.725-1.925 2.437zm-4.963-19.25c.012.05.038.088.05.138a13.15 13.15 0 011.45 6.037c0 2.3-.5 4.4-1.488 6.25-.012.025-.025.038-.037.063a35.548 35.548 0 01-7.475 9.5c-1.325 1.2-2.75 2.3-4.238 3.287A35.893 35.893 0 0127.75 34.1a35.548 35.548 0 01-7.475-9.5c-.012-.025-.025-.038-.037-.063-.988-1.85-1.488-3.95-1.488-6.25 0-2.125.488-4.162 1.45-6.037a.61.61 0 00.05-.138A22.937 22.937 0 0131.975 8.9c4.3 0 8.313 1.175 11.75 3.212z"/>
  <defs>
    <linearGradient id="paint0_linear" x1="32" x2="32" y1="0" y2="64" gradientUnits="userSpaceOnUse">
      <stop stop-color="#DF3F3A"/>
      <stop offset="1" stop-color="#F47C45"/>
    </linearGradient>
    <linearGradient id="paint1_linear" x1="31.975" x2="31.975" y1="7.012" y2="56.987" gradientUnits="userSpaceOnUse">
      <stop stop-color="#DF3F3A"/>
      <stop offset="1" stop-color="#F47C45"/>
    </linearGradient>
  </defs>
</svg>
