<svg xmlns="http://www.w3.org/2000/svg" fill="none" viewBox="0 0 64 64">
  <g clip-path="url(#clip0)">
    <path fill="url(#paint0_linear)" d="M47.557 10.899l4 2a.998.998 0 00.893 0l3.999-2a.994.994 0 00.529-.68 1.005 1.005 0 00-.195-.839l-4-4.998c-.38-.475-1.18-.475-1.56 0l-4 4.998a1.002 1.002 0 00.334 1.519zm4.446-4.293l2.446 3.058-2.446 1.222-2.445-1.222 2.445-3.058z"/>
    <path fill="url(#paint1_linear)" d="M51.171 19.557a1.002 1.002 0 001.664 0l3.999-5.998a.998.998 0 00-1.279-1.449l-3.552 1.776-3.552-1.776a.999.999 0 00-1.279 1.448l4 6zm.385-3.66c.28.142.613.142.895 0l.632-.315-1.08 1.618-1.078-1.619.631.317z"/>
    <path fill="url(#paint2_linear)" d="M51.996 40.007h-.079a11.938 11.938 0 00-5.943 1.624l-4.996-4.434c.013-.065.028-.13.028-.2v-9.824l5.24-4.65a11.936 11.936 0 005.746 1.468h.08a11.94 11.94 0 008.465-3.564A11.897 11.897 0 0064 11.928C63.958 5.344 58.58.018 51.996.018h-.079a11.941 11.941 0 00-8.465 3.564 11.901 11.901 0 00-3.463 8.498c.025 3.764 1.797 7.112 4.538 9.295l-4.878 4.328-7.193-3.597a1.002 1.002 0 00-.894 0l-7.393 3.696-4.852-4.305c.43-.33.845-.68 1.232-1.07a11.898 11.898 0 003.463-8.5C23.968 5.344 18.592.017 12.007.017h-.08a11.938 11.938 0 00-8.465 3.566A11.902 11.902 0 000 12.08c.042 6.583 5.42 11.91 12.003 11.91h.08a11.953 11.953 0 005.488-1.368l5.44 4.827v9.497l-5.166 4.584a11.936 11.936 0 00-5.838-1.523h-.08a11.942 11.942 0 00-8.465 3.564A11.902 11.902 0 000 52.07c.042 6.583 5.42 11.91 12.003 11.91h.08a11.94 11.94 0 008.465-3.564 11.897 11.897 0 003.463-8.498c-.024-3.727-1.76-7.049-4.454-9.232l4.899-4.348 7.105 3.553a1.004 1.004 0 00.895 0l6.905-3.453 4.924 4.369c-.287.24-.566.495-.833.765a11.901 11.901 0 00-3.463 8.498c.043 6.583 5.42 11.91 12.003 11.91h.08a11.94 11.94 0 008.465-3.564A11.897 11.897 0 0064 51.918c-.042-6.585-5.42-11.911-12.004-11.911zM41.988 12.068a9.913 9.913 0 012.885-7.08 9.953 9.953 0 017.058-2.971h.065c5.486 0 9.97 4.438 10.004 9.923a9.909 9.909 0 01-2.885 7.08 9.953 9.953 0 01-7.058 2.972h-.065c-5.487 0-9.967-4.438-10.003-9.924zM12.07 21.992h-.065c-5.487 0-9.968-4.438-10.003-9.924a9.91 9.91 0 012.883-7.08 9.953 9.953 0 017.058-2.971h.065c5.486 0 9.97 4.438 10.004 9.923a9.91 9.91 0 01-2.885 7.08 9.95 9.95 0 01-7.057 2.972zm9.942 29.937a9.91 9.91 0 01-2.885 7.08 9.953 9.953 0 01-7.058 2.972h-.065c-5.487 0-9.968-4.438-10.004-9.924a9.913 9.913 0 012.885-7.08 9.953 9.953 0 017.058-2.97h.065c5.486 0 9.97 4.437 10.004 9.922zm9.997-27.81L37.771 27l-5.763 2.881L26.246 27l5.762-2.881zm-6.998 4.499l5.999 2.999v7.762l-5.999-3v-7.761zm13.996 7.762l-5.998 2.999v-7.762l5.998-3v7.763zm13.052 25.6h-.065c-3.257 0-6.15-1.57-7.979-3.988h3.99a1 1 0 001-1v-4.806l2.07 5.177a1.001 1.001 0 001.858 0l2.07-5.178v4.807a1 1 0 001 1h3.98c-.267.353-.55.697-.867 1.017a9.95 9.95 0 01-7.057 2.972zm9.102-5.988h-4.158v-8.997a1 1 0 00-1.929-.372l-3.07 7.678-3.07-7.677a.999.999 0 00-1.929.37v8.998H42.83a9.902 9.902 0 01-.841-3.935 9.913 9.913 0 012.884-7.08 9.953 9.953 0 017.058-2.97h.065c5.486 0 9.97 4.437 10.004 9.922a9.923 9.923 0 01-.84 4.063z"/>
    <path fill="url(#paint3_linear)" d="M16.794 7.63a1 1 0 00-.781-1.625h-3.005l.006-1.996-2-.006-.006 2.002H7.015v2h6.917l-6.698 8.373a1 1 0 00.78 1.624h2.997l-.006 1.997 2 .006.006-2.003h4.001v-2h-6.917l6.699-8.372z"/>
    <path fill="url(#paint4_linear)" d="M11.014 26v11.997h2v-4.999h3.998v-2h-3.998V26h-2z"/>
    <path fill="url(#paint5_linear)" d="M19.012 30.998h2v2h-2v-2z"/>
    <path fill="url(#paint6_linear)" d="M53.003 37.997V26h-2v4.999h-3.999v2h4v4.998h1.999z"/>
    <path fill="url(#paint7_linear)" d="M43.005 30.998h2v2h-2v-2z"/>
    <path fill="url(#paint8_linear)" d="M31.009 16.003h1.999v-4h4.999v-1.999H26.01v2h4.999v3.999z"/>
    <path fill="url(#paint9_linear)" d="M31.009 18.002h2v2h-2v-2z"/>
    <path fill="url(#paint10_linear)" d="M33.008 47.994h-2v4H26.01v1.998h11.997v-1.999h-4.999v-3.999z"/>
    <path fill="url(#paint11_linear)" d="M31.009 43.995h2v2h-2v-2z"/>
    <path fill="url(#paint12_linear)" d="M15.013 46.995h-1v-2h-2v2h-.999v-2h-2v2H6.016v1.999h1v5.998h-1v2h3v2h2v-2h.999v2h2v-2h.999c1.654 0 3-1.345 3-3 0-.77-.302-1.467-.78-1.999.48-.531.78-1.229.78-2 0-1.653-1.346-2.998-3-2.998zm-5.998 1.999h5.998a1 1 0 010 2H9.015v-2zm5.998 5.998H9.015v-2h5.998a1 1 0 010 2z"/>
  </g>
  <defs>
    <linearGradient id="paint0_linear" x1="52.003" x2="52.003" y1="4.026" y2="13.003" gradientUnits="userSpaceOnUse">
      <stop stop-color="#DF3F3A"/>
      <stop offset="1" stop-color="#F47C45"/>
    </linearGradient>
    <linearGradient id="paint1_linear" x1="52.003" x2="52.003" y1="12.004" y2="20.002" gradientUnits="userSpaceOnUse">
      <stop stop-color="#DF3F3A"/>
      <stop offset="1" stop-color="#F47C45"/>
    </linearGradient>
    <linearGradient id="paint2_linear" x1="32" x2="32" y1=".018" y2="63.98" gradientUnits="userSpaceOnUse">
      <stop stop-color="#DF3F3A"/>
      <stop offset="1" stop-color="#F47C45"/>
    </linearGradient>
    <linearGradient id="paint3_linear" x1="12.014" x2="12.014" y1="4.003" y2="20.005" gradientUnits="userSpaceOnUse">
      <stop stop-color="#DF3F3A"/>
      <stop offset="1" stop-color="#F47C45"/>
    </linearGradient>
    <linearGradient id="paint4_linear" x1="14.013" x2="14.013" y1="26" y2="37.997" gradientUnits="userSpaceOnUse">
      <stop stop-color="#DF3F3A"/>
      <stop offset="1" stop-color="#F47C45"/>
    </linearGradient>
    <linearGradient id="paint5_linear" x1="20.012" x2="20.012" y1="30.998" y2="32.998" gradientUnits="userSpaceOnUse">
      <stop stop-color="#DF3F3A"/>
      <stop offset="1" stop-color="#F47C45"/>
    </linearGradient>
    <linearGradient id="paint6_linear" x1="50.003" x2="50.003" y1="26" y2="37.997" gradientUnits="userSpaceOnUse">
      <stop stop-color="#DF3F3A"/>
      <stop offset="1" stop-color="#F47C45"/>
    </linearGradient>
    <linearGradient id="paint7_linear" x1="44.005" x2="44.005" y1="30.998" y2="32.998" gradientUnits="userSpaceOnUse">
      <stop stop-color="#DF3F3A"/>
      <stop offset="1" stop-color="#F47C45"/>
    </linearGradient>
    <linearGradient id="paint8_linear" x1="32.008" x2="32.008" y1="10.004" y2="16.003" gradientUnits="userSpaceOnUse">
      <stop stop-color="#DF3F3A"/>
      <stop offset="1" stop-color="#F47C45"/>
    </linearGradient>
    <linearGradient id="paint9_linear" x1="32.008" x2="32.008" y1="18.002" y2="20.002" gradientUnits="userSpaceOnUse">
      <stop stop-color="#DF3F3A"/>
      <stop offset="1" stop-color="#F47C45"/>
    </linearGradient>
    <linearGradient id="paint10_linear" x1="32.008" x2="32.008" y1="47.994" y2="53.992" gradientUnits="userSpaceOnUse">
      <stop stop-color="#DF3F3A"/>
      <stop offset="1" stop-color="#F47C45"/>
    </linearGradient>
    <linearGradient id="paint11_linear" x1="32.008" x2="32.008" y1="43.995" y2="45.995" gradientUnits="userSpaceOnUse">
      <stop stop-color="#DF3F3A"/>
      <stop offset="1" stop-color="#F47C45"/>
    </linearGradient>
    <linearGradient id="paint12_linear" x1="12.014" x2="12.014" y1="44.995" y2="58.991" gradientUnits="userSpaceOnUse">
      <stop stop-color="#DF3F3A"/>
      <stop offset="1" stop-color="#F47C45"/>
    </linearGradient>
    <clipPath id="clip0">
      <path fill="#fff" d="M0 0h64v64H0z"/>
    </clipPath>
  </defs>
</svg>
