<svg xmlns="http://www.w3.org/2000/svg" fill="none" viewBox="0 0 64 64">
  <g clip-path="url(#clip0)">
    <path fill="url(#paint0_linear)" d="M32.001 28.316a1.58 1.58 0 001.58-1.58v-1.904a4.737 4.737 0 00-1.553-9.214 1.58 1.58 0 01-1.579-1.58c0-.863.702-1.571 1.564-1.578h.011c.562 0 1.154.285 1.712.825a1.58 1.58 0 002.196-2.27c-.81-.783-1.621-1.222-2.352-1.46V7.789a1.58 1.58 0 00-3.157 0v1.795a4.754 4.754 0 00-3.132 4.455 4.742 4.742 0 004.737 4.737 1.578 1.578 0 11.002 3.158h-.014c-.683-.007-1.388-.42-2.037-1.193a1.579 1.579 0 10-2.42 2.029c.835.995 1.819 1.693 2.864 2.049v1.918c0 .872.707 1.579 1.578 1.579z"/>
    <path fill="url(#paint1_linear)" d="M9.895 64c4.353 0 7.895-3.541 7.895-7.895 0-3.74-2.615-6.878-6.112-7.689a4.745 4.745 0 014.532-3.363h9.474c1.776 0 3.417-.59 4.737-1.583v4.9c-3.6.733-6.316 3.923-6.316 7.735C24.105 60.46 27.647 64 32 64s7.895-3.541 7.895-7.895c0-3.812-2.717-7.002-6.316-7.736v-4.9a7.853 7.853 0 004.737 1.584h9.473a4.745 4.745 0 014.533 3.363c-3.496.81-6.111 3.95-6.111 7.69 0 4.352 3.541 7.894 7.894 7.894S62 60.46 62 56.105c0-3.86-2.785-7.079-6.45-7.76-.681-3.665-3.9-6.45-7.76-6.45h-9.474a4.742 4.742 0 01-4.737-4.737v-2.6a17.274 17.274 0 004.042-.857 1.579 1.579 0 10-1.021-2.988c-1.477.505-3.024.76-4.6.76-7.836 0-14.21-6.374-14.21-14.21 0-7.835 6.374-14.21 14.21-14.21 7.836 0 14.21 6.375 14.21 14.21a14.19 14.19 0 01-.76 4.6 1.579 1.579 0 102.988 1.021c.617-1.805.93-3.696.93-5.62 0-9.045-6.95-16.496-15.79-17.297h-3.157c.388-.388-.616.617 0 0-8.84.8-15.79 8.252-15.79 17.296 0 9.045 6.95 16.496 15.79 17.296v2.599a4.742 4.742 0 01-4.737 4.737H16.21c-3.86 0-7.079 2.785-7.76 6.45-3.665.681-6.45 3.9-6.45 7.76C2 60.46 5.542 64 9.895 64zm44.21-12.632a4.742 4.742 0 014.737 4.737 4.742 4.742 0 01-4.737 4.737 4.742 4.742 0 01-4.737-4.737 4.742 4.742 0 014.737-4.736zm-22.105 0a4.742 4.742 0 014.737 4.737A4.742 4.742 0 0132 60.842a4.742 4.742 0 01-4.737-4.737A4.742 4.742 0 0132 51.37zm-22.105 0a4.742 4.742 0 014.737 4.737 4.742 4.742 0 01-4.737 4.737 4.742 4.742 0 01-4.737-4.737 4.742 4.742 0 014.737-4.736z"/>
    <path fill="url(#paint2_linear)" d="M43.054 29.894a1.579 1.579 0 100-3.158 1.579 1.579 0 000 3.158z"/>
  </g>
  <defs>
    <linearGradient id="paint0_linear" x1="31.978" x2="31.978" y1="6.21" y2="28.316" gradientUnits="userSpaceOnUse">
      <stop stop-color="#DF3F3A"/>
      <stop offset="1" stop-color="#F47C45"/>
    </linearGradient>
    <linearGradient id="paint1_linear" x1="32" x2="32" y1="-.125" y2="64" gradientUnits="userSpaceOnUse">
      <stop stop-color="#DF3F3A"/>
      <stop offset="1" stop-color="#F47C45"/>
    </linearGradient>
    <linearGradient id="paint2_linear" x1="43.054" x2="43.054" y1="26.736" y2="29.894" gradientUnits="userSpaceOnUse">
      <stop stop-color="#DF3F3A"/>
      <stop offset="1" stop-color="#F47C45"/>
    </linearGradient>
    <clipPath id="clip0">
      <path fill="#fff" d="M0 0h64v64H0z"/>
    </clipPath>
  </defs>
</svg>
