<svg xmlns="http://www.w3.org/2000/svg" fill="none" viewBox="0 0 64 64">
  <path fill="url(#paint0_linear)" d="M57.171 12.242h1.978a1.25 1.25 0 000-2.498h-4.747c-.69 0-1.25.56-1.25 1.249v4.747a1.25 1.25 0 002.5 0v-1.375A29.406 29.406 0 0161.501 32c0 16.267-13.235 29.502-29.502 29.502S2.498 48.267 2.498 32 15.733 2.498 32 2.498c1.203 0 2.414.073 3.6.217a1.25 1.25 0 00.3-2.48A32.455 32.455 0 0032 0C23.453 0 15.416 3.329 9.373 9.373 3.329 15.416 0 23.453 0 32c0 8.547 3.329 16.584 9.373 22.627C15.416 60.671 23.453 64 32 64c8.547 0 16.584-3.329 22.627-9.373C60.671 48.583 64 40.547 64 32c0-7.213-2.41-14.137-6.829-19.758z"/>
  <path fill="url(#paint1_linear)" d="M13.55 18.864a1.25 1.25 0 00-1.724.387c-2.851 4.505-4.114 9.921-3.554 15.253a23.915 23.915 0 006.857 14.367C19.78 53.523 25.89 55.848 32 55.848c6.11 0 12.22-2.325 16.871-6.977 9.303-9.303 9.303-24.44 0-33.742a23.916 23.916 0 00-14.344-6.855c-5.322-.564-10.732.689-15.235 3.527a1.25 1.25 0 001.333 2.113C29.11 8.565 40 9.791 47.105 16.896c8.328 8.328 8.328 21.88 0 30.209-8.329 8.328-21.88 8.328-30.21 0-7.006-7.007-8.25-18.159-2.958-26.517a1.25 1.25 0 00-.387-1.724z"/>
  <path fill="url(#paint2_linear)" d="M48.24 33.27h1.54a1.25 1.25 0 000-2.499h-1.54a1.25 1.25 0 000 2.498z"/>
  <path fill="url(#paint3_linear)" d="M12.97 31.98c0 .69.56 1.249 1.25 1.249h1.54a1.25 1.25 0 000-2.498h-1.54c-.69 0-1.25.559-1.25 1.249z"/>
  <path fill="url(#paint4_linear)" d="M33.27 15.76v-1.54a1.25 1.25 0 00-2.499 0v1.54a1.25 1.25 0 002.498 0z"/>
  <path fill="url(#paint5_linear)" d="M30.73 48.24v1.54a1.25 1.25 0 002.499 0v-1.54a1.25 1.25 0 00-2.498 0z"/>
  <path fill="url(#paint6_linear)" d="M25.739 23.972a1.25 1.25 0 00-1.767 1.766l4.233 4.234A4.277 4.277 0 0027.698 32 4.308 4.308 0 0032 36.303 4.308 4.308 0 0036.303 32c0-.733-.184-1.423-.508-2.028l8.542-8.542a1.25 1.25 0 00-1.767-1.767l-8.542 8.542A4.277 4.277 0 0032 27.697c-.733 0-1.423.184-2.028.508l-4.233-4.233zM33.805 32c0 .995-.81 1.805-1.805 1.805-.995 0-1.805-.81-1.805-1.805 0-.995.81-1.805 1.805-1.805.995 0 1.805.81 1.805 1.805z"/>
  <path fill="url(#paint7_linear)" d="M16.895 16.895c.233-.232.367-.555.367-.883 0-.329-.134-.65-.367-.883a1.257 1.257 0 00-.883-.366c-.329 0-.651.133-.883.366a1.26 1.26 0 00-.366.883c0 .33.133.65.366.883.232.232.554.366.883.366.33 0 .65-.134.883-.366z"/>
  <path fill="url(#paint8_linear)" d="M40.653 3.732a1.254 1.254 0 001.25-1.249c0-.328-.133-.65-.365-.883a1.26 1.26 0 00-.885-.366c-.328 0-.65.134-.883.366a1.259 1.259 0 00-.366.883 1.253 1.253 0 001.25 1.25z"/>
  <defs>
    <linearGradient id="paint0_linear" x1="32" x2="32" y1="0" y2="64" gradientUnits="userSpaceOnUse">
      <stop stop-color="#DF3F3A"/>
      <stop offset="1" stop-color="#F47C45"/>
    </linearGradient>
    <linearGradient id="paint1_linear" x1="31.995" x2="31.995" y1="8.142" y2="55.848" gradientUnits="userSpaceOnUse">
      <stop stop-color="#DF3F3A"/>
      <stop offset="1" stop-color="#F47C45"/>
    </linearGradient>
    <linearGradient id="paint2_linear" x1="49.01" x2="49.01" y1="30.771" y2="33.269" gradientUnits="userSpaceOnUse">
      <stop stop-color="#DF3F3A"/>
      <stop offset="1" stop-color="#F47C45"/>
    </linearGradient>
    <linearGradient id="paint3_linear" x1="14.99" x2="14.99" y1="30.73" y2="33.229" gradientUnits="userSpaceOnUse">
      <stop stop-color="#DF3F3A"/>
      <stop offset="1" stop-color="#F47C45"/>
    </linearGradient>
    <linearGradient id="paint4_linear" x1="32.02" x2="32.02" y1="12.971" y2="17.01" gradientUnits="userSpaceOnUse">
      <stop stop-color="#DF3F3A"/>
      <stop offset="1" stop-color="#F47C45"/>
    </linearGradient>
    <linearGradient id="paint5_linear" x1="31.98" x2="31.98" y1="46.99" y2="51.029" gradientUnits="userSpaceOnUse">
      <stop stop-color="#DF3F3A"/>
      <stop offset="1" stop-color="#F47C45"/>
    </linearGradient>
    <linearGradient id="paint6_linear" x1="34.154" x2="34.154" y1="19.297" y2="36.303" gradientUnits="userSpaceOnUse">
      <stop stop-color="#DF3F3A"/>
      <stop offset="1" stop-color="#F47C45"/>
    </linearGradient>
    <linearGradient id="paint7_linear" x1="16.012" x2="16.012" y1="14.763" y2="17.261" gradientUnits="userSpaceOnUse">
      <stop stop-color="#DF3F3A"/>
      <stop offset="1" stop-color="#F47C45"/>
    </linearGradient>
    <linearGradient id="paint8_linear" x1="40.654" x2="40.654" y1="1.234" y2="3.732" gradientUnits="userSpaceOnUse">
      <stop stop-color="#DF3F3A"/>
      <stop offset="1" stop-color="#F47C45"/>
    </linearGradient>
  </defs>
</svg>
