<svg xmlns="http://www.w3.org/2000/svg" fill="none" viewBox="0 0 64 64">
  <g clip-path="url(#clip0)">
    <path fill="url(#paint0_linear)" d="M20 64C8.97 64 0 55.03 0 44s8.97-20 20-20 20 8.97 20 20-8.97 20-20 20zm0-37.333c-9.557 0-17.333 7.776-17.333 17.333 0 9.557 7.776 17.333 17.333 17.333 9.557 0 17.333-7.776 17.333-17.333 0-9.557-7.776-17.333-17.333-17.333z"/>
    <path fill="url(#paint1_linear)" d="M21.333 53.334h-6.667a1.334 1.334 0 010-2.667h6.667a2.668 2.668 0 000-5.333h-2.667A5.339 5.339 0 0113.333 40a5.339 5.339 0 015.333-5.333h6.667a1.334 1.334 0 010 2.667h-6.667a2.668 2.668 0 000 5.333h2.667A5.339 5.339 0 0126.666 48a5.339 5.339 0 01-5.333 5.334z"/>
    <path fill="url(#paint2_linear)" d="M20 57.334A1.334 1.334 0 0118.667 56v-4a1.334 1.334 0 012.667 0v4c0 .736-.598 1.334-1.334 1.334z"/>
    <path fill="url(#paint3_linear)" d="M20 37.334A1.334 1.334 0 0118.667 36v-4a1.334 1.334 0 012.667 0v4c0 .736-.598 1.334-1.334 1.334z"/>
    <path fill="url(#paint4_linear)" d="M42.965 64h-4.298a1.335 1.335 0 01-.421-2.6 10.353 10.353 0 007.087-9.835V16h-6.666a1.336 1.336 0 01-.992-2.226l12-13.334c.509-.557 1.474-.557 1.984 0l12 13.334A1.337 1.337 0 0162.667 16H56v34.965C56 58.155 50.155 64 42.965 64zm-1.304-50.666h5.006c.736 0 1.333.597 1.333 1.333v36.901c0 3.814-1.648 7.326-4.376 9.744 5.413-.341 9.71-4.85 9.71-10.346v-36.3c0-.735.597-1.332 1.333-1.332h5.005L50.667 3.325 41.66 13.334z"/>
  </g>
  <defs>
    <linearGradient id="paint0_linear" x1="20" x2="20" y1="24" y2="64" gradientUnits="userSpaceOnUse">
      <stop stop-color="#DF3F3A"/>
      <stop offset="1" stop-color="#F47C45"/>
    </linearGradient>
    <linearGradient id="paint1_linear" x1="20" x2="20" y1="34.667" y2="53.334" gradientUnits="userSpaceOnUse">
      <stop stop-color="#DF3F3A"/>
      <stop offset="1" stop-color="#F47C45"/>
    </linearGradient>
    <linearGradient id="paint2_linear" x1="20" x2="20" y1="50.667" y2="57.334" gradientUnits="userSpaceOnUse">
      <stop stop-color="#DF3F3A"/>
      <stop offset="1" stop-color="#F47C45"/>
    </linearGradient>
    <linearGradient id="paint3_linear" x1="20" x2="20" y1="30.667" y2="37.334" gradientUnits="userSpaceOnUse">
      <stop stop-color="#DF3F3A"/>
      <stop offset="1" stop-color="#F47C45"/>
    </linearGradient>
    <linearGradient id="paint4_linear" x1="50.667" x2="50.667" y1=".022" y2="64" gradientUnits="userSpaceOnUse">
      <stop stop-color="#DF3F3A"/>
      <stop offset="1" stop-color="#F47C45"/>
    </linearGradient>
    <clipPath id="clip0">
      <path fill="#fff" d="M0 0h64v64H0z"/>
    </clipPath>
  </defs>
</svg>
