<svg xmlns="http://www.w3.org/2000/svg" fill="none" viewBox="0 0 64 64">
  <path fill="url(#paint0_linear)" d="M58.835 57.802V16.517h-8.252v41.285h-5.166V30.967h-8.252v26.835H32V26.835h-8.252v30.967h-5.165V32h-8.265v25.802h-4.12V0H4.132v4.132H2.066v2.066h2.066v7.232H2.066v2.066h2.066v7.232H2.066v2.066h2.066V32H2.066v2.066h2.066v7.232H2.066v2.066h2.066v7.231H2.066v2.066h2.066v5.166H0v2.066h4.132V64h2.066v-4.132H64v-2.066h-5.165zm-42.319.012h-4.132V34.066h4.133v23.748zm13.418-.012h-4.132V28.9h4.132v28.9zm13.43 0H39.23V33.033h4.133v24.769zm13.417.012H52.65V18.582h4.132v39.232z"/>
  <path fill="url(#paint1_linear)" d="M10.318 27.868c1.713 0 3.1-1.386 3.1-3.1 0-.478-.114-.92-.316-1.322l9.6-9.6L36.12 27.263l21.392-21.38c.403.19.844.315 1.323.315 1.713 0 3.099-1.385 3.099-3.099 0-1.713-1.386-3.099-3.1-3.099a3.097 3.097 0 00-3.099 3.1c0 .478.114.919.315 1.322l-19.918 19.93-13.417-13.43-11.062 11.062a3.098 3.098 0 00-1.322-.315 3.097 3.097 0 00-3.1 3.1c0 1.713 1.386 3.099 3.087 3.099zM58.835 2.066c.566 0 1.033.466 1.033 1.033s-.467 1.033-1.033 1.033A1.038 1.038 0 0157.8 3.1c0-.567.467-1.033 1.034-1.033zM10.318 23.748c.567 0 1.033.466 1.033 1.033s-.466 1.033-1.033 1.033a1.038 1.038 0 01-1.033-1.033c0-.58.466-1.033 1.033-1.033z"/>
  <defs>
    <linearGradient id="paint0_linear" x1="32" x2="32" y1="0" y2="64" gradientUnits="userSpaceOnUse">
      <stop stop-color="#DF3F3A"/>
      <stop offset="1" stop-color="#F47C45"/>
    </linearGradient>
    <linearGradient id="paint1_linear" x1="34.583" x2="34.583" y1="0" y2="27.868" gradientUnits="userSpaceOnUse">
      <stop stop-color="#DF3F3A"/>
      <stop offset="1" stop-color="#F47C45"/>
    </linearGradient>
  </defs>
</svg>
