<svg width="27" height="27" viewBox="0 0 27 27" fill="none" xmlns="http://www.w3.org/2000/svg">
<path d="M22.9229 0.5H4.07714C2.10159 0.5 0.499998 2.10167 0.499998 4.07754V22.9225C0.499998 24.8983 2.10159 26.5 4.07714 26.5H22.9229C24.8984 26.5 26.5 24.8983 26.5 22.9225V4.07754C26.5 2.10167 24.8984 0.5 22.9229 0.5Z" stroke="#E95B40"/>
<path d="M9.82838 21.9375V10.552H5.32798V21.9375H9.82838ZM7.57878 8.99653C9.14814 8.99653 10.125 8.12224 10.125 7.0297C10.0958 5.91251 9.1482 5.0625 7.60857 5.0625C6.06916 5.0625 5.0625 5.91252 5.0625 7.0297C5.0625 8.12231 6.03911 8.99653 7.54943 8.99653H7.57868H7.57878Z" fill="#E95B40"/>
<path d="M11.8125 21.9375H15.1294V15.4921C15.1294 15.1472 15.151 14.8026 15.2386 14.556C15.4783 13.8668 16.0241 13.153 16.9404 13.153C18.1406 13.153 18.6208 14.2114 18.6208 15.7629V21.9374H21.9375V15.3196C21.9375 11.7745 20.3011 10.125 18.1188 10.125C16.3294 10.125 15.5438 11.2818 15.1073 12.0696H15.1295V10.3957H11.8126C11.8561 11.4787 11.8126 21.9373 11.8126 21.9373L11.8125 21.9375Z" fill="#E95B40"/>
</svg>
