<svg width="27" height="27" viewBox="0 0 27 27" fill="none" xmlns="http://www.w3.org/2000/svg">
<path d="M22.9229 0.5H4.07714C2.10159 0.5 0.499998 2.10167 0.499998 4.07754V22.9225C0.499998 24.8983 2.10159 26.5 4.07714 26.5H22.9229C24.8984 26.5 26.5 24.8983 26.5 22.9225V4.07754C26.5 2.10167 24.8984 0.5 22.9229 0.5Z" stroke="#E95B40"/>
<path d="M22 7.65738C21.3678 7.93846 20.6942 8.12477 19.9919 8.21523C20.7144 7.778 21.2658 7.09092 21.5251 6.26277C20.8514 6.66985 20.1077 6.95738 19.3151 7.11785C18.6754 6.42754 17.7638 6 16.7693 6C14.8398 6 13.2864 7.58738 13.2864 9.53338C13.2864 9.81338 13.3098 10.0826 13.3672 10.3389C10.4697 10.1957 7.90594 8.78815 6.18362 6.644C5.88294 7.17277 5.70656 7.778 5.70656 8.42954C5.70656 9.65292 6.32812 10.7374 7.25462 11.3652C6.69469 11.3545 6.14538 11.1897 5.68 10.9302C5.68 10.9409 5.68 10.9549 5.68 10.9689C5.68 12.6855 6.88806 14.1114 8.47225 14.4398C8.18856 14.5185 7.87937 14.5562 7.5585 14.5562C7.33538 14.5562 7.11013 14.5432 6.89869 14.4958C7.35025 15.8948 8.63162 16.9232 10.1553 16.9566C8.9695 17.8968 7.46394 18.4632 5.83406 18.4632C5.54825 18.4632 5.27413 18.4503 5 18.4148C6.54381 19.4238 8.37344 20 10.3465 20C16.7598 20 20.266 14.6154 20.266 9.948C20.266 9.79185 20.2607 9.64108 20.2533 9.49138C20.9449 8.99385 21.5261 8.37246 22 7.65738Z" fill="#E95B40"/>
</svg>
