<svg width="36" height="36" viewBox="0 0 36 36" fill="none" xmlns="http://www.w3.org/2000/svg">
<path d="M18 36C27.9411 36 36 27.9411 36 18C36 8.05888 27.9411 0 18 0C8.05888 0 0 8.05888 0 18C0 27.9411 8.05888 36 18 36Z" fill="#2996A4"/>
<path fill-rule="evenodd" clip-rule="evenodd" d="M11.9807 11.5883C11.6815 9.98628 12.9108 8.50623 14.5405 8.50623C15.9787 8.50623 17.1445 9.6721 17.1445 11.1103V14.3207C17.5043 14.2953 17.8698 14.2823 18.24 14.2823C18.5957 14.2823 18.947 14.2943 19.2931 14.3178V11.1103C19.2931 9.6721 20.4589 8.50623 21.8971 8.50623C23.5268 8.50623 24.7561 9.98628 24.4569 11.5883L23.7522 15.362C26.1708 16.4179 27.9996 18.2518 27.9996 20.5563V21.9505C27.9996 23.8456 26.7459 25.4322 24.9931 26.5033C23.2267 27.5828 20.8372 28.2244 18.24 28.2244C15.6428 28.2244 13.2533 27.5828 11.4869 26.5033C9.73419 25.4322 8.48047 23.8456 8.48047 21.9505V20.5563C8.48047 18.264 10.2905 16.4371 12.6886 15.3791L11.9807 11.5883ZM22.8491 15.8578L23.6738 11.4421C23.8814 10.3302 23.0283 9.30293 21.8971 9.30293C20.899 9.30293 20.0898 10.1121 20.0898 11.1103V15.1958C19.8282 15.1622 19.5625 15.1356 19.2931 15.1164C18.9477 15.0917 18.5963 15.079 18.24 15.079C17.8691 15.079 17.5036 15.0927 17.1445 15.1195C16.8751 15.1395 16.6094 15.1669 16.3479 15.2013V11.1103C16.3479 10.1121 15.5387 9.30293 14.5405 9.30293C13.4094 9.30293 12.5562 10.3302 12.7638 11.4421L13.5912 15.8724C11.0048 16.8331 9.27717 18.5715 9.27717 20.5563V21.9505C9.27717 24.9755 13.29 27.4278 18.24 27.4278C23.1901 27.4278 27.2029 24.9755 27.2029 21.9505V20.5563C27.2029 18.5612 25.4576 16.8154 22.8491 15.8578Z" fill="#633001"/>
<path d="M27.2031 21.9505C27.2031 24.9756 23.1902 27.4278 18.2402 27.4278C13.2901 27.4278 9.27734 24.9756 9.27734 21.9505V20.5563H27.2031V21.9505Z" fill="#FEDC90"/>
<path fill-rule="evenodd" clip-rule="evenodd" d="M12.764 11.4419C12.5564 10.33 13.4095 9.3028 14.5407 9.3028C15.5389 9.3028 16.348 10.112 16.348 11.1102V15.2011C16.958 15.121 17.5911 15.0788 18.2402 15.0788C18.8743 15.0788 19.4931 15.1191 20.0899 15.1956V11.1102C20.0899 10.112 20.8991 9.3028 21.8973 9.3028C23.0285 9.3028 23.8816 10.33 23.674 11.4419L22.8493 15.8576C25.4577 16.8153 27.2031 18.5612 27.2031 20.5562C27.2031 23.5812 23.1902 26.0334 18.2402 26.0334C13.2901 26.0334 9.27734 23.5812 9.27734 20.5562C9.27734 18.5713 11.0049 16.833 13.5914 15.8723L12.764 11.4419Z" fill="#D1884F"/>
<path d="M15.7515 20.158C15.7515 20.9831 15.3056 21.6519 14.7556 21.6519C14.2056 21.6519 13.7598 20.9831 13.7598 20.158C13.7598 19.333 14.2056 18.6642 14.7556 18.6642C15.3056 18.6642 15.7515 19.333 15.7515 20.158Z" fill="#633001"/>
<path d="M22.6226 20.158C22.6226 20.9831 22.1767 21.6519 21.6267 21.6519C21.0767 21.6519 20.6309 20.9831 20.6309 20.158C20.6309 19.333 21.0767 18.6642 21.6267 18.6642C22.1767 18.6642 22.6226 19.333 22.6226 20.158Z" fill="#633001"/>
</svg>
