<svg width="64" height="64" viewBox="0 0 64 64" fill="none" xmlns="http://www.w3.org/2000/svg">
<path d="M32 0C14.3541 0 0 14.3555 0 32C0 49.6445 14.3541 64 32 64C49.6459 64 64 49.6445 64 32C64 14.3555 49.6459 0 32 0ZM32 61.3334C15.8255 61.3334 2.66663 48.1745 2.66663 32C2.66663 15.8255 15.8255 2.66663 32 2.66663C48.1745 2.66663 61.3334 15.8255 61.3334 32C61.3334 48.1745 48.1745 61.3334 32 61.3334Z" fill="url(#paint0_linear)"/>
<path d="M44.7214 30.8788L26.0548 18.8788C25.6459 18.6119 25.1173 18.5975 24.6954 18.8293C24.2656 19.0636 24 19.5116 24 19.9999V43.9999C24 44.4881 24.2656 44.9361 24.6954 45.1705C24.8933 45.2786 25.1146 45.3333 25.3334 45.3333C25.5834 45.3333 25.836 45.2629 26.0548 45.121L44.7214 33.121C45.1016 32.8763 45.3334 32.453 45.3334 31.9999C45.3334 31.5468 45.1016 31.1236 44.7214 30.8788ZM26.6666 41.5571V22.4426L41.5339 31.9999L26.6666 41.5571Z" fill="url(#paint1_linear)"/>
<defs>
<linearGradient id="paint0_linear" x1="32" y1="0" x2="32" y2="64" gradientUnits="userSpaceOnUse">
<stop stop-color="#DF3F3A"/>
<stop offset="1" stop-color="#F47C45"/>
</linearGradient>
<linearGradient id="paint1_linear" x1="34.6667" y1="18.6663" x2="34.6667" y2="45.3333" gradientUnits="userSpaceOnUse">
<stop stop-color="#DF3F3A"/>
<stop offset="1" stop-color="#F47C45"/>
</linearGradient>
</defs>
</svg>
