<svg width="18" height="18" viewBox="0 0 18 18" fill="none" xmlns="http://www.w3.org/2000/svg">
<path d="M15 2.25V1.25H16V2.25H15ZM8.20711 10.4571C7.81658 10.8476 7.18342 10.8476 6.79289 10.4571C6.40237 10.0666 6.40237 9.43342 6.79289 9.04289L8.20711 10.4571ZM14 8.25V2.25H16V8.25H14ZM15 3.25H9V1.25H15V3.25ZM15.7071 2.95711L8.20711 10.4571L6.79289 9.04289L14.2929 1.54289L15.7071 2.95711Z" fill="url(#paint0_linear)"/>
<path d="M14.25 11.25V11.25C14.25 11.947 14.25 12.2955 14.1924 12.5853C13.9556 13.7753 13.0253 14.7056 11.8353 14.9424C11.5455 15 11.197 15 10.5 15H8.25C5.42157 15 4.00736 15 3.12868 14.1213C3.12868 14.1213 3.12868 14.1213 3.12868 14.1213C2.25 13.2426 2.25 11.8284 2.25 9V6.75C2.25 6.05302 2.25 5.70453 2.30764 5.41473C2.54436 4.22466 3.47466 3.29436 4.66473 3.05764C4.95453 3 5.30302 3 6 3V3" stroke="url(#paint1_linear)" stroke-width="2" stroke-linecap="round"/>
<defs>
<linearGradient id="paint0_linear" x1="11.25" y1="2.25" x2="11.25" y2="9.75" gradientUnits="userSpaceOnUse">
<stop stop-color="#5381FF"/>
<stop offset="1" stop-color="#1944B9"/>
</linearGradient>
<linearGradient id="paint1_linear" x1="8.25" y1="3" x2="8.25" y2="15" gradientUnits="userSpaceOnUse">
<stop stop-color="#5381FF"/>
<stop offset="1" stop-color="#1944B9"/>
</linearGradient>
</defs>
</svg>
