<svg width="36" height="36" viewBox="0 0 36 36" fill="none" xmlns="http://www.w3.org/2000/svg">
<path d="M18 36C27.9411 36 36 27.9411 36 18C36 8.05887 27.9411 0 18 0C8.05887 0 0 8.05887 0 18C0 27.9411 8.05887 36 18 36Z" fill="black"/>
<path fill-rule="evenodd" clip-rule="evenodd" d="M13.5097 24.4638H9.93277C9.10092 24.4638 8.685 24.4638 8.43545 24.2974C8.1859 24.131 8.01953 23.7983 8.01953 23.4656C8.01953 23.1328 8.1859 22.8001 8.60182 22.0514L16.3379 8.65879C16.7539 7.91014 17.0034 7.5774 17.253 7.41103C17.5025 7.24466 17.9184 7.24466 18.168 7.41103C18.4175 7.5774 18.6671 7.91014 19.083 8.65879L20.8299 11.7366C21.1626 12.2357 21.329 12.5684 21.329 12.818C21.4122 13.1507 21.4122 13.4835 21.329 13.733C21.2458 13.9826 21.0794 14.3153 20.8299 14.8144L16.2548 22.8833C15.922 23.4656 15.7557 23.7151 15.5893 23.8815C15.3397 24.131 15.0902 24.2974 14.7574 24.3806C14.4247 24.4638 14.092 24.4638 13.5097 24.4638Z" fill="#E84142"/>
<path fill-rule="evenodd" clip-rule="evenodd" d="M25.9873 24.4638H21.9113C21.0794 24.4638 20.6635 24.4638 20.414 24.2974C20.1644 24.1311 19.998 23.7983 19.998 23.4656C19.998 23.1328 20.1644 22.8001 20.5803 22.0515L22.5768 18.5577C22.9927 17.8091 23.2422 17.4763 23.4918 17.31C23.7413 17.1436 24.0741 17.1436 24.4068 17.31C24.6564 17.4763 24.9059 17.8091 25.3218 18.5577L27.4014 22.0515C27.8174 22.8001 28.0669 23.1328 27.9837 23.4656C27.9837 23.7983 27.8174 24.0479 27.5678 24.2974C27.2351 24.4638 26.8191 24.4638 25.9873 24.4638Z" fill="#E84142"/>
</svg>
