<svg width="36" height="36" viewBox="0 0 36 36" fill="none" xmlns="http://www.w3.org/2000/svg">
<path d="M36 17.9999C36 27.9411 27.9412 36 18.0001 36C8.05887 36 0 27.9411 0 17.9999C0 8.05882 8.05887 0 18.0001 0C27.9411 0 36 8.05882 36 17.9999" fill="#000000"/>
<path d="M24.1605 14.4404C23.7325 14.1962 23.1516 14.1962 22.6624 14.4404L19.1465 16.4855L16.7618 17.798L13.3376 19.8735C12.9096 20.1177 12.3287 20.1177 11.8395 19.8735L9.14904 18.2558C8.72102 18.0116 8.38471 17.4927 8.38471 16.9433V13.7994C8.38471 13.311 8.6293 12.7922 9.14904 12.4869L11.8089 10.9302C12.2369 10.686 12.8178 10.686 13.307 10.9302L15.9975 12.548C16.4255 12.7922 16.7618 13.311 16.7618 13.8605V15.936L19.1465 14.5625V12.4259C19.1465 11.9375 18.9019 11.4186 18.3822 11.1134L13.3987 8.18314C12.9707 7.93895 12.3898 7.93895 11.9006 8.18314L6.76433 11.1744C6.24459 11.4186 6 11.9375 6 12.4259V18.3169C6 18.8052 6.24459 19.3241 6.76433 19.6294L11.8089 22.5596C12.2369 22.8038 12.8178 22.8038 13.307 22.5596L16.7618 20.5451L19.1465 19.1715L22.6013 17.157C23.0293 16.9128 23.6102 16.9128 24.0994 17.157L26.7898 18.7137C27.2178 18.9578 27.5541 19.4767 27.5541 20.0262V23.1395C27.5541 23.6279 27.3096 24.1468 26.7898 24.452L24.1605 26.0087C23.7325 26.2529 23.1516 26.2529 22.6624 26.0087L19.972 24.452C19.5439 24.2078 19.2076 23.689 19.2076 23.1395V21.125L16.8229 22.4985V24.5741C16.8229 25.0625 17.0675 25.5814 17.5873 25.8866L22.6624 28.8169C23.0904 29.061 23.6713 29.061 24.1605 28.8169L29.2357 25.9172C29.6637 25.673 30 25.1541 30 24.6047V18.6831C30 18.1948 29.7554 17.6759 29.2357 17.3706L24.1605 14.4404Z" fill="#8248E5"/>
</svg>
