<svg width="26" height="26" viewBox="0 0 26 26" fill="none" xmlns="http://www.w3.org/2000/svg">
<path d="M14.0004 7.09084C14.0004 6.53856 13.5527 6.09084 13.0004 6.09084C12.4481 6.09084 12.0004 6.53856 12.0004 7.09084V12H7.09111C6.53882 12 6.09111 12.4477 6.09111 13C6.09111 13.5522 6.53882 14 7.09111 14H12.0004V18.909C12.0004 19.4613 12.4481 19.909 13.0004 19.909C13.5527 19.909 14.0004 19.4613 14.0004 18.909V13.9999H18.9093C19.4616 13.9999 19.9093 13.5522 19.9093 12.9999C19.9093 12.4477 19.4616 11.9999 18.9093 11.9999H14.0004V7.09084ZM25 13C25 19.6274 19.6274 25 13 25C6.37258 25 1 19.6274 1 13C1 6.37258 6.37258 1 13 1C19.6274 1 25 6.37258 25 13Z" stroke="white" stroke-width="2" stroke-linecap="round" stroke-linejoin="round"/>
</svg>
