<svg width="36" height="36" viewBox="0 0 36 36" fill="none" xmlns="http://www.w3.org/2000/svg">
<path d="M36 17.9999C36 27.9411 27.9412 36 18.0001 36C8.05887 36 0 27.9411 0 17.9999C0 8.05882 8.05887 0 18.0001 0C27.9411 0 36 8.05882 36 17.9999" fill="#F5F5F5"/>
<path fill-rule="evenodd" clip-rule="evenodd" d="M13.3396 16.0845L18.001 11.4252L22.6643 16.0883L25.375 13.3757L18.001 6L10.627 13.3738L13.3396 16.0845Z" fill="#F3BA2F"/>
<path fill-rule="evenodd" clip-rule="evenodd" d="M6 18.0005L8.71167 15.289L11.4233 18.0005L8.71167 20.7121L6 18.0005Z" fill="#F3BA2F"/>
<path fill-rule="evenodd" clip-rule="evenodd" d="M13.3415 19.9155L18.0028 24.5768L22.6661 19.9136L25.3788 22.6224L25.3769 22.6243L18.0028 30L10.6288 22.6281L10.625 22.6243L13.3415 19.9155Z" fill="#F3BA2F"/>
<path fill-rule="evenodd" clip-rule="evenodd" d="M24.5762 18.0009L27.2878 15.2893L29.9995 18.0009L27.2878 20.7125L24.5762 18.0009Z" fill="#F3BA2F"/>
<path fill-rule="evenodd" clip-rule="evenodd" d="M20.753 17.999L18.0024 15.2466L15.9684 17.2806L15.7333 17.5138L15.2518 17.9952L15.248 17.999L15.2518 18.0047L18.0024 20.7533L20.753 18.0009L20.7549 17.999H20.753Z" fill="#F3BA2F"/>
</svg>
