<svg width="20" height="21" viewBox="0 0 20 21" fill="none" xmlns="http://www.w3.org/2000/svg">
  <path fill-rule="evenodd" clip-rule="evenodd" d="M3.98117 3.58832C3.682 1.98628 4.91126 0.506226 6.54098 0.506226C7.97917 0.506226 9.14503 1.6721 9.14503 3.11028V6.32069C9.50478 6.2953 9.87027 6.28228 10.2405 6.28228C10.5962 6.28228 10.9475 6.2943 11.2936 6.31776V3.11028C11.2936 1.6721 12.4594 0.506226 13.8976 0.506226C15.5273 0.506226 16.7566 1.98628 16.4574 3.58832L15.7527 7.36197C18.1712 8.4179 20.0001 10.2518 20.0001 12.5563V13.9505C20.0001 15.8456 18.7464 17.4322 16.9936 18.5033C15.2272 19.5828 12.8377 20.2244 10.2405 20.2244C7.64331 20.2244 5.25374 19.5828 3.48737 18.5033C1.73468 17.4322 0.480957 15.8456 0.480957 13.9505V12.5563C0.480957 10.264 2.29095 8.43711 4.68909 7.37912L3.98117 3.58832ZM14.8496 7.85776L15.6743 3.44206C15.8819 2.33017 15.0288 1.30293 13.8976 1.30293C12.8994 1.30293 12.0902 2.1121 12.0902 3.11028V7.19576C11.8287 7.16222 11.563 7.13565 11.2936 7.11638C10.9482 7.09168 10.5968 7.07898 10.2405 7.07898C9.86963 7.07898 9.50406 7.09274 9.14503 7.11948C8.87562 7.13954 8.60987 7.16692 8.34834 7.20126V3.11028C8.34834 2.1121 7.53916 1.30293 6.54098 1.30293C5.40986 1.30293 4.55669 2.33016 4.76433 3.44206L5.59168 7.87241C3.00526 8.83314 1.27765 10.5715 1.27765 12.5563V13.9505C1.27765 16.9755 5.29045 19.4278 10.2405 19.4278C15.1905 19.4278 19.2034 16.9755 19.2034 13.9505V12.5563C19.2034 10.5612 17.458 8.81544 14.8496 7.85776Z" fill="#633001"/>
  <path d="M19.2031 13.9505C19.2031 16.9756 15.1902 19.4278 10.2402 19.4278C5.29015 19.4278 1.27734 16.9756 1.27734 13.9505V12.5563H19.2031V13.9505Z" fill="#FEDC90"/>
  <path fill-rule="evenodd" clip-rule="evenodd" d="M4.76402 3.44194C4.55638 2.33004 5.40955 1.3028 6.54067 1.3028C7.53885 1.3028 8.34803 2.11198 8.34803 3.11016V7.20113C8.95798 7.12102 9.59106 7.07885 10.2402 7.07885C10.8743 7.07885 11.4931 7.11909 12.0899 7.19562V3.11016C12.0899 2.11198 12.8991 1.3028 13.8973 1.3028C15.0285 1.3028 15.8816 2.33004 15.674 3.44194L14.8493 7.85763C17.4577 8.81531 19.2031 10.5612 19.2031 12.5562C19.2031 15.5812 15.1902 18.0334 10.2402 18.0334C5.29015 18.0334 1.27734 15.5812 1.27734 12.5562C1.27734 10.5713 3.00495 8.83301 5.59137 7.87229L4.76402 3.44194Z" fill="#D1884F"/>
  <path d="M7.75102 12.158C7.75102 12.9831 7.30515 13.6519 6.75515 13.6519C6.20514 13.6519 5.75928 12.9831 5.75928 12.158C5.75928 11.333 6.20514 10.6642 6.75515 10.6642C7.30515 10.6642 7.75102 11.333 7.75102 12.158Z" fill="#633001"/>
  <path d="M14.6226 12.158C14.6226 12.9831 14.1767 13.6519 13.6267 13.6519C13.0767 13.6519 12.6309 12.9831 12.6309 12.158C12.6309 11.333 13.0767 10.6642 13.6267 10.6642C14.1767 10.6642 14.6226 11.333 14.6226 12.158Z" fill="#633001"/>
</svg>
