<svg width="36" height="36" viewBox="0 0 36 36" fill="none" xmlns="http://www.w3.org/2000/svg">
<path d="M18 36C27.9411 36 36 27.9411 36 18C36 8.05888 27.9411 0 18 0C8.05888 0 0 8.05888 0 18C0 27.9411 8.05888 36 18 36Z" fill="#BE246E"/>
<g style="mix-blend-mode:darken">
<mask id="path-2-inside-1_4594:16389" fill="white">
<path d="M14.2275 8.61213C13.9454 8.56768 13.9335 8.56247 14.0662 8.54174C14.3206 8.50199 14.9213 8.55617 15.3352 8.65615C16.3015 8.88953 17.1809 9.48736 18.1195 10.5491L18.3688 10.8312L18.7255 10.7729C20.2283 10.5276 21.7571 10.7226 23.0358 11.3227C23.3876 11.4878 23.9423 11.8165 24.0116 11.9009C24.0336 11.9279 24.0741 12.1011 24.1016 12.286C24.1965 12.9257 24.149 13.416 23.9565 13.7822C23.8517 13.9814 23.8458 14.0446 23.9163 14.2151C23.9726 14.3512 24.1293 14.452 24.2846 14.4517C24.6023 14.4513 24.9443 13.9294 25.1028 13.2032L25.1658 12.9148L25.2905 13.0583C25.9745 13.8457 26.5118 14.9195 26.604 15.6838L26.628 15.8831L26.5131 15.7019C26.3153 15.3902 26.1164 15.1779 25.8618 15.0068C25.4028 14.6983 24.9176 14.5933 23.6325 14.5245C22.4718 14.4623 21.8149 14.3616 21.1635 14.1458C20.0553 13.7787 19.4966 13.2898 18.1802 11.535C17.5954 10.7555 17.234 10.3243 16.8745 9.97701C16.0576 9.1879 15.255 8.77405 14.2275 8.61213Z"/>
</mask>
<path d="M14.2275 8.61213L14.3831 7.62432L14.3831 7.62432L14.2275 8.61213ZM14.0662 8.54174L14.2205 9.52976L14.2206 9.52975L14.0662 8.54174ZM15.3352 8.65615L15.1004 9.6282L15.1005 9.62821L15.3352 8.65615ZM18.1195 10.5491L17.3702 11.2114L17.3702 11.2114L18.1195 10.5491ZM18.3688 10.8312L17.6196 11.4935L17.9852 11.9071L18.53 11.8181L18.3688 10.8312ZM18.7255 10.7729L18.5644 9.78599L18.5643 9.786L18.7255 10.7729ZM23.0358 11.3227L23.4607 10.4175L23.4607 10.4175L23.0358 11.3227ZM24.0116 11.9009L24.7851 11.2671L24.7846 11.2666L24.0116 11.9009ZM24.1016 12.286L25.0907 12.1392L25.0907 12.1392L24.1016 12.286ZM23.9565 13.7822L24.8415 14.2478L24.8417 14.2474L23.9565 13.7822ZM23.9163 14.2151L24.8405 13.8332L24.8405 13.8331L23.9163 14.2151ZM24.2846 14.4517L24.2859 15.4517L24.286 15.4517L24.2846 14.4517ZM25.1028 13.2032L24.1258 12.9899L24.1258 12.9899L25.1028 13.2032ZM25.1658 12.9148L25.9208 12.259L24.6141 10.7547L24.1888 12.7014L25.1658 12.9148ZM25.2905 13.0583L24.5355 13.7141L24.5355 13.7141L25.2905 13.0583ZM26.604 15.6838L27.5968 15.5642L27.5968 15.5639L26.604 15.6838ZM26.628 15.8831L25.7835 16.4187L27.6208 15.7635L26.628 15.8831ZM26.5131 15.7019L27.3576 15.1663L27.3574 15.166L26.5131 15.7019ZM25.8618 15.0068L26.4198 14.1769L26.4197 14.1768L25.8618 15.0068ZM23.6325 14.5245L23.686 13.5259L23.686 13.5259L23.6325 14.5245ZM21.1635 14.1458L21.478 13.1965L21.478 13.1965L21.1635 14.1458ZM18.1802 11.535L17.3802 12.1351L17.3802 12.1351L18.1802 11.535ZM16.8745 9.97701L17.5693 9.25779L17.5693 9.25779L16.8745 9.97701ZM14.3831 7.62432C14.311 7.61295 14.2691 7.60609 14.2441 7.60154C14.169 7.58783 14.2734 7.60004 14.3915 7.65162C14.4208 7.6644 14.556 7.72244 14.6884 7.85327C14.761 7.92501 14.8726 8.05753 14.9368 8.25789C15.0079 8.47973 14.9982 8.71628 14.9151 8.92753C14.7787 9.27436 14.5016 9.4173 14.4662 9.43654C14.3848 9.48086 14.3165 9.50269 14.2935 9.50989C14.2205 9.53264 14.1613 9.53901 14.2205 9.52976L13.9119 7.55371C13.9048 7.55483 13.7973 7.56962 13.6981 7.60057C13.6684 7.60982 13.5949 7.63369 13.5098 7.68006C13.4707 7.70134 13.1913 7.84635 13.054 8.19527C12.9705 8.40757 12.9608 8.64518 13.0322 8.86809C13.0967 9.06952 13.209 9.20313 13.2828 9.27598C13.4174 9.40901 13.5564 9.46932 13.5911 9.48446C13.7308 9.54549 13.8828 9.56863 13.8851 9.56905C13.9376 9.57863 14.0029 9.58909 14.0718 9.59994L14.3831 7.62432ZM14.2206 9.52975C14.2053 9.53214 14.2279 9.52793 14.303 9.52873C14.3699 9.52944 14.4548 9.53382 14.5511 9.54251C14.7478 9.56025 14.9515 9.59222 15.1004 9.6282L15.57 7.68411C15.305 7.6201 15.0014 7.57499 14.7307 7.55059C14.4835 7.5283 14.1671 7.51385 13.9119 7.55372L14.2206 9.52975ZM15.1005 9.62821C15.7993 9.79697 16.5118 10.2404 17.3702 11.2114L18.8687 9.88679C17.8499 8.73434 16.8038 7.98208 15.57 7.6841L15.1005 9.62821ZM17.3702 11.2114L17.6196 11.4935L19.118 10.1689L18.8687 9.88679L17.3702 11.2114ZM18.53 11.8181L18.8867 11.7598L18.5643 9.786L18.2076 9.84427L18.53 11.8181ZM18.8867 11.7599C20.2067 11.5443 21.5293 11.7203 22.6109 12.228L23.4607 10.4175C21.985 9.72484 20.25 9.51078 18.5644 9.78599L18.8867 11.7599ZM22.6109 12.2279C22.7489 12.2927 22.9461 12.3994 23.1198 12.5024C23.2056 12.5532 23.2749 12.5967 23.3209 12.6277C23.3445 12.6436 23.3536 12.6506 23.3524 12.6496C23.3517 12.6491 23.3423 12.6419 23.3279 12.629C23.3177 12.6199 23.281 12.5871 23.2385 12.5353L24.7846 11.2666C24.6985 11.1616 24.6032 11.0887 24.576 11.0676C24.5298 11.0319 24.4814 10.998 24.4378 10.9686C24.3493 10.9091 24.2449 10.8443 24.1394 10.7818C23.9305 10.658 23.6745 10.5178 23.4607 10.4175L22.6109 12.2279ZM23.2381 12.5347C23.2098 12.5003 23.1884 12.4693 23.1733 12.4459C23.1579 12.4221 23.1459 12.401 23.1369 12.3845C23.1194 12.3522 23.1075 12.3257 23.1007 12.3098C23.0874 12.2785 23.0803 12.2563 23.0786 12.251C23.0747 12.239 23.0759 12.2408 23.0808 12.2618C23.09 12.3011 23.1021 12.3633 23.1124 12.4329L25.0907 12.1392C25.0736 12.0239 25.0518 11.907 25.0283 11.8066C25.0169 11.7579 25.0021 11.6998 24.9836 11.6419C24.9745 11.6137 24.9604 11.5721 24.9405 11.5255C24.9296 11.4997 24.8817 11.3851 24.7851 11.2671L23.2381 12.5347ZM23.1124 12.4328C23.1925 12.9727 23.1235 13.2176 23.0713 13.317L24.8417 14.2474C25.1744 13.6143 25.2005 12.8786 25.0907 12.1392L23.1124 12.4328ZM23.0715 13.3165C23.0201 13.4143 22.9009 13.6371 22.8749 13.917C22.8457 14.2324 22.9438 14.4801 22.9922 14.5972L24.8405 13.8331C24.8184 13.7797 24.8841 13.9105 24.8664 14.1018C24.8583 14.1884 24.8371 14.2492 24.8285 14.2713C24.8218 14.2885 24.8208 14.2871 24.8415 14.2478L23.0715 13.3165ZM22.9921 14.5971C23.2138 15.1335 23.7541 15.4525 24.2859 15.4517L24.2832 13.4517C24.4172 13.4516 24.5251 13.4926 24.6039 13.5433C24.6813 13.593 24.7785 13.6833 24.8405 13.8332L22.9921 14.5971ZM24.286 15.4517C24.9815 15.4508 25.4067 14.927 25.5898 14.6478C25.8179 14.2996 25.9817 13.866 26.0798 13.4166L24.1258 12.9899C24.0654 13.2666 23.9789 13.4571 23.917 13.5515C23.8859 13.5989 23.8812 13.5912 23.9182 13.5631C23.9553 13.5348 24.0815 13.452 24.2832 13.4517L24.286 15.4517ZM26.0798 13.4166L26.1428 13.1282L24.1888 12.7014L24.1258 12.9899L26.0798 13.4166ZM24.4109 13.5706L24.5355 13.7141L26.0454 12.4025L25.9208 12.259L24.4109 13.5706ZM24.5355 13.7141C25.1339 14.4029 25.5501 15.2969 25.6112 15.8036L27.5968 15.5639C27.4735 14.5421 26.815 13.2884 26.0454 12.4025L24.5355 13.7141ZM25.6112 15.8033L25.6352 16.0026L27.6208 15.7635L27.5968 15.5642L25.6112 15.8033ZM27.4725 15.3475L27.3576 15.1663L25.6686 16.2375L25.7835 16.4187L27.4725 15.3475ZM27.3574 15.166C27.1002 14.7607 26.8099 14.4392 26.4198 14.1769L25.3038 15.8366C25.4229 15.9167 25.5303 16.0196 25.6688 16.2377L27.3574 15.166ZM26.4197 14.1768C25.7103 13.7 24.9702 13.5947 23.686 13.5259L23.579 15.523C24.8649 15.5919 25.0954 15.6965 25.304 15.8367L26.4197 14.1768ZM23.686 13.5259C22.5617 13.4657 22.0065 13.3716 21.478 13.1965L20.849 15.0951C21.6232 15.3516 22.3819 15.4589 23.5791 15.523L23.686 13.5259ZM21.478 13.1965C21.0238 13.0461 20.7316 12.891 20.4085 12.6082C20.0512 12.2955 19.6359 11.8091 18.9801 10.9349L17.3802 12.1351C18.0408 13.0156 18.5631 13.651 19.0914 14.1133C19.6538 14.6055 20.195 14.8784 20.8491 15.0951L21.478 13.1965ZM18.9801 10.9349C18.3874 10.1448 17.9877 9.66192 17.5693 9.25779L16.1797 10.6962C16.4804 10.9867 16.8035 11.3662 17.3802 12.1351L18.9801 10.9349ZM17.5693 9.25779C16.6188 8.33962 15.6324 7.82119 14.3831 7.62432L14.0718 9.59994C14.8775 9.72692 15.4965 10.0362 16.1797 10.6962L17.5693 9.25779Z" fill="white" mask="url(#path-2-inside-1_4594:16389)"/>
</g>
<g style="mix-blend-mode:darken">
<path d="M24.5089 9.43018C24.4796 9.42298 24.4514 9.4132 24.4245 9.40118C24.4501 9.32148 24.4793 9.24542 24.5125 9.17102C24.5182 9.15835 24.5238 9.14592 24.5293 9.1338C24.5293 9.1338 24.5293 9.1338 24.5293 9.13379C24.5781 9.02681 24.6207 8.94458 24.628 8.94458C24.6301 8.94458 24.63 8.95084 24.628 8.96208C24.6224 8.99393 24.602 9.0658 24.5743 9.14882C24.5695 9.16312 24.565 9.17766 24.5606 9.19244C24.5606 9.19244 24.5606 9.19244 24.5606 9.19244C24.5387 9.26591 24.5215 9.34534 24.5089 9.43018Z" stroke="white"/>
</g>
<g style="mix-blend-mode:darken">
<path d="M15.6905 12.4043C15.7215 12.4973 15.7762 12.621 15.8436 12.7563C15.6037 12.5852 15.3678 12.3538 15.1834 12.0959C14.7412 11.4774 14.4447 10.557 14.4179 9.80712C14.5369 9.85486 14.632 9.90095 14.6824 9.93204L14.6824 9.93206C14.8855 10.0574 15.0147 10.1883 15.1255 10.3962C15.2474 10.6249 15.3544 10.9608 15.4717 11.5164L15.4717 11.5164C15.5415 11.8467 15.6383 12.2473 15.6905 12.4043L15.6905 12.4043Z" stroke="white"/>
</g>
<g style="mix-blend-mode:darken">
<path d="M27.5145 19.7823C27.5081 19.91 27.498 20.0335 27.485 20.1465C27.341 19.9289 27.165 19.7283 26.9621 19.5511L26.9621 19.5511C26.3484 19.0154 25.5441 18.6114 23.7689 17.8852C22.445 17.3437 21.6183 16.8631 21.1217 16.3625C20.7809 16.0189 20.5865 15.6568 20.5057 15.2228C21.0582 15.4897 21.7755 15.6421 22.968 15.8188C23.9488 15.9642 24.4712 16.0776 24.9427 16.2365C26.4255 16.7361 27.2856 17.7174 27.4935 19.0295L27.4935 19.0295C27.5208 19.2019 27.5294 19.4809 27.5145 19.7823Z" stroke="white"/>
</g>
<g style="mix-blend-mode:darken">
<mask id="path-7-inside-2_4594:16389" fill="white">
<path d="M21.7017 18.8028C21.6682 18.6001 21.6101 18.3412 21.5725 18.2275L21.5042 18.0208L21.6311 18.1654C21.8066 18.3656 21.9453 18.6217 22.0628 18.9628C22.1525 19.2232 22.1626 19.3006 22.162 19.7237C22.1613 20.1391 22.1501 20.2262 22.0672 20.4605C21.9366 20.83 21.7745 21.0921 21.5024 21.3733C21.0136 21.8789 20.3851 22.1587 19.4781 22.2748C19.3205 22.2949 18.861 22.3289 18.457 22.3502C17.439 22.404 16.7689 22.5152 16.1669 22.73C16.0803 22.7608 16.003 22.7797 15.9952 22.7717C15.9708 22.747 16.3807 22.4988 16.7193 22.333C17.1967 22.0994 17.672 21.9719 18.7368 21.7918C19.2627 21.7027 19.8059 21.5947 19.9439 21.5518C21.2465 21.146 21.916 20.0989 21.7017 18.8028Z"/>
</mask>
<path d="M21.7017 18.8028L22.6884 18.6397L22.6883 18.6396L21.7017 18.8028ZM21.5725 18.2275L22.5221 17.9139L22.522 17.9138L21.5725 18.2275ZM21.5042 18.0208L22.2561 17.3615L20.5547 18.3345L21.5042 18.0208ZM21.6311 18.1654L20.8792 18.8248L20.8792 18.8248L21.6311 18.1654ZM22.0628 18.9628L23.0083 18.6371L23.0083 18.6371L22.0628 18.9628ZM22.162 19.7237L23.162 19.7254L23.162 19.7253L22.162 19.7237ZM22.0672 20.4605L21.1244 20.1272L21.1244 20.1272L22.0672 20.4605ZM21.5024 21.3733L20.7836 20.6781L20.7836 20.6782L21.5024 21.3733ZM19.4781 22.2748L19.6045 23.2668L19.6051 23.2667L19.4781 22.2748ZM18.457 22.3502L18.4043 21.3516L18.4042 21.3516L18.457 22.3502ZM16.1669 22.73L16.5023 23.6721L16.5029 23.6719L16.1669 22.73ZM15.9952 22.7717L16.708 22.0704L16.707 22.0693L15.9952 22.7717ZM16.7193 22.333L16.2797 21.4349L16.2796 21.4349L16.7193 22.333ZM18.7368 21.7918L18.9036 22.7778L18.9037 22.7777L18.7368 21.7918ZM19.9439 21.5518L20.2412 22.5066L20.2413 22.5065L19.9439 21.5518ZM22.6883 18.6396C22.6514 18.4165 22.5833 18.0993 22.5221 17.9139L20.6229 18.5411C20.6226 18.5401 20.6271 18.5542 20.6358 18.5878C20.6438 18.6186 20.6531 18.6572 20.6629 18.701C20.6829 18.7896 20.7019 18.8862 20.7152 18.966L22.6883 18.6396ZM22.522 17.9138L22.4538 17.7071L20.5547 18.3345L20.623 18.5412L22.522 17.9138ZM20.7524 18.6801L20.8792 18.8248L22.3829 17.5061L22.2561 17.3615L20.7524 18.6801ZM20.8792 18.8248C20.9446 18.8994 21.028 19.0293 21.1174 19.2886L23.0083 18.6371C22.8625 18.2141 22.6685 17.8318 22.3829 17.5061L20.8792 18.8248ZM21.1174 19.2886C21.1562 19.4012 21.1544 19.409 21.1547 19.4115C21.1585 19.4407 21.1623 19.5008 21.162 19.7221L23.162 19.7253C23.1623 19.5236 23.1614 19.3334 23.1379 19.1531C23.1109 18.9459 23.0592 18.7848 23.0083 18.6371L21.1174 19.2886ZM21.162 19.7221C21.1616 19.9373 21.1575 20.0015 21.1536 20.0324C21.1534 20.0339 21.1559 20.0381 21.1244 20.1272L23.01 20.7938C23.0614 20.6485 23.1109 20.4921 23.1372 20.2875C23.1597 20.1125 23.1616 19.9255 23.162 19.7254L21.162 19.7221ZM21.1244 20.1272C21.0415 20.3617 20.9557 20.5002 20.7836 20.6781L22.2212 22.0686C22.5932 21.684 22.8317 21.2984 23.0101 20.7938L21.1244 20.1272ZM20.7836 20.6782C20.4946 20.977 20.1012 21.1869 19.3512 21.2829L19.6051 23.2667C20.6689 23.1305 21.5325 22.7808 22.2213 22.0685L20.7836 20.6782ZM19.3517 21.2828C19.2351 21.2977 18.8094 21.3302 18.4043 21.3516L18.5097 23.3488C18.9125 23.3276 19.4058 23.2921 19.6045 23.2668L19.3517 21.2828ZM18.4042 21.3516C17.3396 21.4079 16.5616 21.5274 15.8308 21.7882L16.5029 23.6719C16.9763 23.503 17.5383 23.4002 18.5098 23.3488L18.4042 21.3516ZM15.8314 21.788C15.8119 21.7949 15.8048 21.7963 15.8151 21.7938C15.8162 21.7935 15.8483 21.7853 15.8976 21.7796C15.9184 21.7772 15.9809 21.7703 16.0628 21.7754C16.1037 21.7779 16.1804 21.785 16.2734 21.8117C16.3547 21.8351 16.5388 21.8984 16.708 22.0704L15.2824 23.4731C15.4526 23.646 15.6381 23.7101 15.7215 23.7341C15.8165 23.7614 15.8958 23.7689 15.9397 23.7716C16.0277 23.777 16.0982 23.7698 16.1287 23.7662C16.1974 23.7582 16.2557 23.7449 16.2879 23.7371C16.3604 23.7194 16.4353 23.696 16.5023 23.6721L15.8314 21.788ZM16.707 22.0693C16.9323 22.2977 17.0068 22.587 16.9924 22.8283C16.9802 23.032 16.9086 23.1787 16.8742 23.242C16.8048 23.3697 16.724 23.4483 16.7101 23.4621C16.6824 23.4896 16.6606 23.5075 16.6533 23.5134C16.6484 23.5174 16.6447 23.5202 16.6426 23.5218C16.6404 23.5235 16.6391 23.5244 16.639 23.5245C16.6389 23.5246 16.6412 23.5229 16.6467 23.5192C16.6521 23.5155 16.6593 23.5107 16.6684 23.5048C16.687 23.4928 16.7107 23.4779 16.7392 23.4606C16.8574 23.3891 17.0184 23.3 17.159 23.2312L16.2796 21.4349C16.0817 21.5318 15.8684 21.6498 15.703 21.75C15.6231 21.7984 15.5358 21.8538 15.4619 21.9076C15.4319 21.9294 15.3662 21.978 15.3007 22.0431C15.2773 22.0664 15.1898 22.153 15.1169 22.2871C15.0808 22.3536 15.0082 22.5031 14.9959 22.7092C14.9814 22.9529 15.0565 23.2442 15.2834 23.4741L16.707 22.0693ZM17.159 23.2312C17.5006 23.064 17.8568 22.9549 18.9036 22.7778L18.5699 20.8058C17.4871 20.989 16.8928 21.1347 16.2797 21.4349L17.159 23.2312ZM18.9037 22.7777C19.4084 22.6923 20.0255 22.5737 20.2412 22.5066L19.6466 20.597C19.6554 20.5943 19.6315 20.6014 19.5529 20.6189C19.4846 20.6342 19.3955 20.6529 19.2909 20.6737C19.082 20.7152 18.824 20.7627 18.5698 20.8058L18.9037 22.7777ZM20.2413 22.5065C21.0816 22.2448 21.7847 21.7527 22.2341 21.0499C22.6855 20.3441 22.8311 19.5028 22.6884 18.6397L20.7151 18.9659C20.7867 19.3989 20.7047 19.7293 20.5492 19.9724C20.3917 20.2187 20.1088 20.453 19.6465 20.597L20.2413 22.5065Z" fill="white" mask="url(#path-7-inside-2_4594:16389)"/>
</g>
<g style="mix-blend-mode:darken">
<path d="M23.3821 20.8082L23.3821 20.8082C23.1571 20.3167 23.0633 19.8562 23.0852 19.4272C23.3076 19.5554 23.6201 19.7302 24.0717 19.9804L24.0717 19.9804C25.1463 20.5756 25.6994 21.0056 26.0609 21.4624L26.0609 21.4624C26.3744 21.8586 26.573 22.3125 26.671 22.8899C26.6931 23.0203 26.7018 23.291 26.6891 23.5984C26.6764 23.905 26.6453 24.1779 26.6116 24.3122L26.6116 24.3122C26.4473 24.9675 26.1507 25.525 25.7463 25.9642C25.7805 25.5284 25.721 25.0853 25.5697 24.6251C25.3954 24.0951 25.0525 23.4839 24.4278 22.5319L24.4277 22.5318C23.698 21.4201 23.5421 21.1576 23.3821 20.8082ZM23.1682 18.9204C23.1682 18.9204 23.1681 18.9207 23.1678 18.9214L23.1682 18.9204Z" stroke="white"/>
</g>
<g style="mix-blend-mode:darken">
<path d="M13.7411 25.1662C14.0424 25.2409 14.3069 25.3334 14.558 25.4646C14.9005 25.6435 15.1967 25.8832 15.524 26.2019C15.5223 25.6335 15.8381 25.0728 16.3938 24.7959L16.3939 24.7959C17.0419 24.4731 17.8541 24.5655 18.4658 24.9724L18.4659 24.9724C18.7825 25.1831 19.0297 25.4008 19.261 25.7315C19.445 25.9946 19.6119 26.3196 19.8023 26.7451C19.7986 26.7216 19.795 26.6982 19.7913 26.6748C19.6501 25.7603 19.525 25.4174 19.2562 25.0165L19.6715 24.7381L19.2562 25.0165C19.0044 24.6411 18.4774 24.2799 17.8466 24.1158L17.8465 24.1158C17.469 24.0176 16.7318 23.9874 16.3115 24.0567L13.7411 25.1662ZM13.7411 25.1662C14.5585 24.5908 15.4783 24.1943 16.3114 24.0567L13.7411 25.1662Z" stroke="white"/>
</g>
<g style="mix-blend-mode:darken">
<path d="M12.2832 14.5334C12.2678 14.5824 12.2475 14.6325 12.2213 14.6839C12.1502 14.823 12.0448 14.9502 11.9346 15.075C11.6692 15.3758 11.5223 15.7193 11.4083 16.6504C11.2604 17.8586 10.8289 18.7076 9.76823 20.0516C9.16014 20.8221 9.0945 20.923 8.96892 21.1772L8.9689 21.1772C8.88149 21.3541 8.83737 21.4688 8.80954 21.5835C8.80693 21.5943 8.80442 21.6052 8.802 21.6164C8.93734 21.4369 9.15065 21.3532 9.27978 21.3268C9.51419 21.2787 9.79799 21.3161 10.0332 21.4749L10.0333 21.475C10.4939 21.7863 10.6275 22.4047 10.3625 22.8816L10.3625 22.8817C10.2408 23.1005 10.0455 23.278 9.79953 23.354C9.5452 23.4326 9.26018 23.3923 9.03136 23.2103C9.03131 23.2103 9.03127 23.2103 9.03122 23.2102L9.34249 22.8189C9.22791 22.7279 9.21985 22.5937 9.31973 22.4411C9.41837 22.2906 9.40927 22.2168 9.28391 22.1513C9.20945 22.1124 9.17642 22.0682 9.17642 22.0075C9.17642 21.8853 9.30895 21.811 9.46356 21.8073L12.2832 14.5334ZM12.2832 14.5334C12.3158 14.5652 12.3415 14.5872 12.3582 14.6015C12.3643 14.6068 12.3692 14.611 12.3729 14.6143C12.3761 14.6175 12.3795 14.6208 12.383 14.6241C12.3974 14.6377 12.4141 14.6521 12.4333 14.6669C12.4719 14.6965 12.5196 14.7267 12.5773 14.7535C12.6169 14.7719 12.6599 14.7881 12.7062 14.8015C12.5706 14.827 12.444 14.8601 12.3274 14.9092C12.1318 14.9915 11.9926 15.1061 11.8698 15.2435L11.8697 15.2436C11.5826 15.5651 11.5177 15.9539 11.473 16.5271C11.439 16.9619 11.3988 17.2444 11.3242 17.5176C11.249 17.793 11.1335 18.0786 10.9287 18.5148C10.5195 19.386 10.3783 19.8279 10.4729 20.4446C10.5888 21.2003 11.0285 21.7117 11.807 22.2524L11.8071 22.2524C12.3517 22.6306 12.5061 22.8157 12.5849 22.9861C12.6203 23.0626 12.6228 23.078 12.6251 23.0919L12.6252 23.0923C12.6305 23.124 12.6341 23.1796 12.6332 23.3444C12.6321 23.5683 12.6128 23.6663 12.5858 23.7351C12.5589 23.8036 12.5069 23.8877 12.3565 24.0505L12.7057 24.3729L12.3565 24.0505C11.9197 24.5236 11.0831 24.9608 9.96737 25.2167L9.96734 25.2167C9.95895 25.2187 9.95074 25.2205 9.94271 25.2224C9.92604 25.1851 9.90815 25.1472 9.88932 25.1089C9.79398 24.9153 9.65993 24.6831 9.49716 24.4269L9.07517 24.6951L9.49715 24.4269C9.146 23.8744 9.02757 23.6287 8.90887 23.2513L8.90886 23.2513C8.87631 23.1478 8.8494 23.0533 8.82753 22.9634L12.2832 14.5334ZM8.79575 22.3788C8.77872 22.4273 8.76547 22.4789 8.75776 22.5331C8.75207 22.4596 8.74926 22.3839 8.74898 22.3036C8.76254 22.3292 8.7781 22.3544 8.79575 22.3788Z" stroke="white"/>
</g>
<g style="mix-blend-mode:darken">
<path d="M15.1326 16.6563C15.1696 16.679 15.2089 16.7001 15.25 16.7194C15.2256 16.7183 15.2049 16.7167 15.1873 16.7148C15.1649 16.7123 15.1503 16.7096 15.1417 16.7076C15.1385 16.6936 15.1354 16.6764 15.1326 16.6563Z" stroke="white"/>
</g>
</svg>
