<svg width="21" height="23" viewBox="0 0 21 23" fill="none" xmlns="http://www.w3.org/2000/svg">
<g style="mix-blend-mode:darken">
<path d="M6.22796 1.61216C5.94588 1.56771 5.93399 1.5625 6.06672 1.54177C6.32111 1.50202 6.92178 1.5562 7.33571 1.65618C8.30204 1.88956 9.18134 2.48739 10.1199 3.54915L10.3693 3.83122L10.726 3.77295C12.2288 3.52759 13.7576 3.7226 15.0363 4.32274C15.3881 4.48785 15.9428 4.81652 16.0121 4.90098C16.0341 4.92789 16.0746 5.10116 16.1021 5.28605C16.197 5.92569 16.1495 6.41599 15.957 6.7822C15.8522 6.98147 15.8463 7.04463 15.9168 7.21516C15.9731 7.35126 16.1298 7.45199 16.2851 7.45177C16.6028 7.45133 16.9448 6.92944 17.1033 6.20327L17.1663 5.91483L17.291 6.05834C17.975 6.84571 18.5123 7.91948 18.6045 8.6838L18.6285 8.88309L18.5136 8.70193C18.3158 8.39019 18.1169 8.17797 17.8623 8.00681C17.4033 7.69829 16.9181 7.5933 15.633 7.52448C14.4723 7.46235 13.8154 7.36163 13.164 7.14582C12.0558 6.77871 11.4971 6.2898 10.1806 4.53499C9.59592 3.75556 9.23451 3.32433 8.87501 2.97704C8.05812 2.18793 7.25544 1.77408 6.22796 1.61216Z" fill="white"/>
</g>
<g style="mix-blend-mode:darken">
<path d="M16.2744 3.35244C16.3036 2.83016 16.3732 2.48566 16.5135 2.17105C16.569 2.04653 16.6209 1.94461 16.629 1.94461C16.6369 1.94461 16.6128 2.03652 16.5753 2.14885C16.4734 2.45417 16.4566 2.87179 16.5268 3.35767C16.6159 3.97416 16.6666 4.06311 17.308 4.72905C17.6088 5.04142 17.9587 5.43537 18.0855 5.60451L18.3162 5.91205L18.0855 5.69226C17.8035 5.42348 17.1549 4.89931 17.0116 4.82438C16.9155 4.77413 16.9012 4.77501 16.842 4.83493C16.7874 4.89014 16.7758 4.97311 16.7683 5.36537C16.7565 5.97673 16.6744 6.36912 16.4766 6.76147C16.3695 6.97368 16.3525 6.92839 16.4494 6.68887C16.5217 6.51002 16.5291 6.43141 16.5286 5.83958C16.5274 4.65047 16.3885 4.36459 15.5737 3.87488C15.3673 3.75082 15.0271 3.57191 14.8179 3.47727C14.6086 3.38263 14.4424 3.3002 14.4484 3.29404C14.4715 3.27071 15.2661 3.50636 15.586 3.63137C16.0618 3.8173 16.1403 3.84141 16.198 3.81897C16.2369 3.80393 16.2556 3.68933 16.2744 3.35244Z" fill="white"/>
</g>
<g style="mix-blend-mode:darken">
<path d="M6.77617 5.38667C6.20353 4.58568 5.84921 3.35759 5.92592 2.43954L5.94964 2.15544L6.07999 2.17961C6.32477 2.22496 6.74683 2.38457 6.94445 2.50653C7.48679 2.84116 7.72159 3.28175 7.96045 4.41311C8.03042 4.74449 8.12222 5.1195 8.16446 5.24646C8.23246 5.4508 8.48942 5.92813 8.69834 6.23812C8.84882 6.46139 8.74886 6.56719 8.41622 6.53668C7.90822 6.4901 7.22009 6.00759 6.77617 5.38667Z" fill="white"/>
</g>
<g style="mix-blend-mode:darken">
<path d="M15.5796 11.348C12.9035 10.2533 11.9609 9.30306 11.9609 7.69975C11.9609 7.4638 11.9689 7.27075 11.9787 7.27075C11.9884 7.27075 12.092 7.34861 12.2088 7.4438C12.7514 7.88602 13.3591 8.07489 15.0414 8.32424C16.0314 8.47098 16.5885 8.58951 17.1024 8.76265C18.7357 9.31303 19.7463 10.4299 19.9873 11.9512C20.0574 12.3933 20.0163 13.2222 19.9027 13.6591C19.8132 14.0042 19.5396 14.6262 19.467 14.6501C19.4469 14.6567 19.4272 14.5783 19.422 14.4717C19.3945 13.9005 19.1104 13.3444 18.6333 12.9278C18.0907 12.4542 17.3619 12.077 15.5796 11.348Z" fill="white"/>
</g>
<g style="mix-blend-mode:darken">
<path d="M13.7008 11.8028C13.6672 11.6001 13.6091 11.3412 13.5715 11.2275L13.5032 11.0208L13.6301 11.1654C13.8056 11.3656 13.9443 11.6217 14.0618 11.9628C14.1516 12.2232 14.1617 12.3006 14.161 12.7237C14.1603 13.1391 14.1491 13.2261 14.0662 13.4605C13.9356 13.83 13.7735 14.0921 13.5014 14.3733C13.0126 14.8788 12.3841 15.1587 11.4771 15.2748C11.3195 15.2948 10.86 15.3289 10.456 15.3502C9.43799 15.404 8.76796 15.5152 8.16589 15.73C8.07934 15.7608 8.00205 15.7797 7.9942 15.7717C7.96984 15.747 8.37976 15.4988 8.71834 15.333C9.19575 15.0993 9.67099 14.9719 10.7358 14.7918C11.2618 14.7027 11.805 14.5947 11.9429 14.5518C13.2455 14.146 13.9151 13.0989 13.7008 11.8028Z" fill="white"/>
</g>
<g style="mix-blend-mode:darken">
<path d="M14.9275 14.0163C14.5719 13.2398 14.4903 12.49 14.6851 11.7907C14.706 11.716 14.7394 11.6549 14.7596 11.6549C14.7798 11.6549 14.8637 11.701 14.946 11.7573C15.1099 11.8693 15.4386 12.0581 16.314 12.543C17.4064 13.1482 18.0294 13.6168 18.453 14.1521C18.8239 14.621 19.0534 15.155 19.164 15.8062C19.2265 16.175 19.1898 17.0625 19.0966 17.4339C18.8029 18.605 18.1203 19.5249 17.1466 20.0617C17.004 20.1403 16.8759 20.2049 16.8621 20.2052C16.8481 20.2055 16.9002 20.0712 16.9776 19.9068C17.305 19.2111 17.3424 18.5345 17.0947 17.7813C16.9431 17.3201 16.6339 16.7574 16.0098 15.8062C15.2839 14.7005 15.106 14.4063 14.9275 14.0163Z" fill="white"/>
</g>
<g style="mix-blend-mode:darken">
<path d="M4.87574 18.2063C5.86883 17.3544 7.10449 16.7492 8.23004 16.5634C8.71513 16.4833 9.52321 16.5151 9.9724 16.6319C10.6924 16.8191 11.3365 17.2385 11.6715 17.7381C11.9988 18.2263 12.1393 18.6518 12.2855 19.5984C12.3432 19.972 12.4059 20.3469 12.4249 20.4318C12.5347 20.9225 12.7484 21.3146 13.0132 21.5116C13.4338 21.8244 14.158 21.8437 14.8705 21.5614C14.9914 21.5134 15.0964 21.4803 15.1037 21.4878C15.1297 21.5139 14.7708 21.7578 14.5178 21.8863C14.1772 22.0591 13.9064 22.126 13.5466 22.126C12.8941 22.126 12.3523 21.7888 11.9003 21.1011C11.8113 20.9657 11.6114 20.5605 11.456 20.2003C10.9787 19.0943 10.743 18.7574 10.1889 18.3886C9.70661 18.0679 9.08467 18.0104 8.61679 18.2434C8.00218 18.5496 7.8307 19.3476 8.27089 19.8533C8.44585 20.0543 8.7721 20.2276 9.03887 20.2613C9.53797 20.3245 9.96688 19.9387 9.96688 19.4267C9.96688 19.0943 9.84112 18.9046 9.52454 18.7594C9.09215 18.5611 8.62739 18.793 8.62961 19.2056C8.63057 19.3816 8.70599 19.492 8.87962 19.5719C8.99101 19.6231 8.99359 19.6271 8.90276 19.608C8.50604 19.5244 8.4131 19.0385 8.73208 18.7159C9.11506 18.3287 9.90697 18.4995 10.1789 19.0282C10.2932 19.2502 10.3064 19.6924 10.2068 19.9594C9.9839 20.5571 9.33389 20.8713 8.67451 20.7003C8.22557 20.5838 8.04277 20.4577 7.50151 19.8913C6.56098 18.9069 6.19585 18.7162 4.83991 18.5012L4.58008 18.4599L4.87574 18.2063Z" fill="white"/>
</g>
<g style="mix-blend-mode:darken">
<path fill-rule="evenodd" clip-rule="evenodd" d="M0.462574 0.588776C3.60352 4.46194 5.76685 6.05993 6.00726 6.39754C6.20575 6.67632 6.13106 6.92694 5.79101 7.12336C5.6019 7.23256 5.21311 7.34321 5.01846 7.34321C4.79831 7.34321 4.7227 7.25693 4.7227 7.25693C4.59506 7.13391 4.52316 7.15542 3.8676 5.97318C2.95749 4.53837 2.19583 3.34814 2.17506 3.32821C2.12701 3.28213 2.12784 3.28368 3.77481 6.27767C4.04091 6.90169 3.82773 7.13075 3.82773 7.21962C3.82773 7.40042 3.77919 7.49545 3.55967 7.74424C3.19371 8.15902 3.03012 8.62508 2.91202 9.58962C2.77965 10.6709 2.40738 11.4346 1.37573 12.7418C0.771843 13.507 0.673029 13.6473 0.52065 13.9557C0.328716 14.3441 0.275941 14.5616 0.254552 15.052C0.231943 15.5705 0.275975 15.9056 0.431901 16.4013C0.568408 16.8354 0.710898 17.122 1.07517 17.6951C1.38953 18.1898 1.57053 18.5575 1.57053 18.7013C1.57053 18.8157 1.59204 18.8158 2.07916 18.7041C3.24492 18.4366 4.19151 17.9662 4.72388 17.3897C5.05337 17.0329 5.13072 16.8358 5.13322 16.347C5.13487 16.0272 5.12381 15.9602 5.03871 15.7762C4.9002 15.4767 4.64804 15.2277 4.09225 14.8417C3.36405 14.3359 3.05301 13.9288 2.9671 13.3688C2.89662 12.9093 2.97838 12.5852 3.38124 11.7273C3.79821 10.8394 3.90155 10.461 3.97145 9.56599C4.01659 8.98776 4.07911 8.75972 4.24263 8.57667C4.41318 8.3858 4.5667 8.32115 4.98876 8.26257C5.67686 8.16707 6.11501 7.9862 6.47515 7.64902C6.78758 7.3565 6.91831 7.07466 6.93837 6.65037L6.95361 6.32879L6.77901 6.12197C6.14675 5.37297 0.0391505 0 0.000240655 0C-0.00807158 0 0.199987 0.264966 0.462574 0.588776ZM1.92546 15.6388C2.06841 15.3815 1.99245 15.0509 1.75333 14.8893C1.52741 14.7367 1.17642 14.8086 1.17642 15.0075C1.17642 15.0682 1.20945 15.1124 1.28391 15.1513C1.40927 15.2168 1.41837 15.2906 1.31973 15.4411C1.21985 15.5937 1.22791 15.7279 1.34249 15.8189C1.52715 15.9658 1.78856 15.885 1.92546 15.6388Z" fill="white"/>
</g>
<g style="mix-blend-mode:darken">
<path fill-rule="evenodd" clip-rule="evenodd" d="M7.38799 8.43127C7.06497 8.53207 6.75096 8.8799 6.65376 9.24462C6.59446 9.46712 6.62811 9.85742 6.71692 9.97796C6.86041 10.1726 6.99918 10.2239 7.37491 10.2212C8.11054 10.216 8.75005 9.89549 8.82441 9.49477C8.88535 9.16629 8.60448 8.71105 8.2176 8.5112C8.01796 8.40811 7.5934 8.36722 7.38799 8.43127ZM8.24794 9.11447C8.36139 8.9507 8.31175 8.77371 8.11882 8.654C7.7514 8.42605 7.19577 8.61468 7.19577 8.96733C7.19577 9.14287 7.48552 9.3344 7.75111 9.3344C7.92789 9.3344 8.16981 9.2273 8.24794 9.11447Z" fill="white"/>
</g>
</svg>
