<svg width="36" height="36" viewBox="0 0 36 36" fill="none" xmlns="http://www.w3.org/2000/svg">
<rect width="36" height="36" rx="18" fill="url(#paint0_linear)"/>
<path d="M16 25L15.2929 24.2929L14.5858 25L15.2929 25.7071L16 25ZM19.2929 20.2929L15.2929 24.2929L16.7071 25.7071L20.7071 21.7071L19.2929 20.2929ZM15.2929 25.7071L19.2929 29.7071L20.7071 28.2929L16.7071 24.2929L15.2929 25.7071Z" fill="white"/>
<path d="M24.0622 14.5C24.6766 15.5641 25 16.7712 25 18C25 19.2288 24.6766 20.4359 24.0622 21.5C23.4478 22.5641 22.5641 23.4478 21.5 24.0622C20.4359 24.6766 19.2288 25 18 25" stroke="white" stroke-width="2" stroke-linecap="round"/>
<path d="M20 11L20.7071 11.7071L21.4142 11L20.7071 10.2929L20 11ZM16.7071 15.7071L20.7071 11.7071L19.2929 10.2929L15.2929 14.2929L16.7071 15.7071ZM20.7071 10.2929L16.7071 6.29289L15.2929 7.70711L19.2929 11.7071L20.7071 10.2929Z" fill="white"/>
<path d="M11.9378 21.5C11.3234 20.4359 11 19.2288 11 18C11 16.7712 11.3234 15.5641 11.9378 14.5C12.5522 13.4359 13.4359 12.5522 14.5 11.9378C15.5641 11.3234 16.7712 11 18 11" stroke="white" stroke-width="2" stroke-linecap="round"/>
<defs>
<linearGradient id="paint0_linear" x1="18" y1="0" x2="18" y2="36" gradientUnits="userSpaceOnUse">
<stop stop-color="#5381FF"/>
<stop offset="1" stop-color="#1944B9"/>
</linearGradient>
</defs>
</svg>
