<svg width="36" height="36" viewBox="0 0 36 36" fill="none" xmlns="http://www.w3.org/2000/svg">
<circle cx="18" cy="18" r="18" fill="#F2F3F8"/>
<path d="M23.2572 21.9656C21.7261 21.9656 20.4863 23.2127 20.4863 24.7529C20.4863 26.2932 21.6918 27.2759 23.2572 27.5058C23.4458 27.5345 23.6343 27.5403 23.8286 27.5403C25.0569 27.5403 26.1539 27.1093 26.9938 26.3334C27.3194 26.0288 27.6794 25.6495 27.9365 25.2817C28.365 24.6725 29.9019 22.1093 27.2394 19.1265C26.3139 18.092 26.2225 16.9139 26.6567 16.1035C26.371 16.9828 26.4624 17.9886 27.4108 19.0173C30.1247 21.9656 28.6335 24.7932 28.205 25.4196C27.8908 25.8736 27.5651 26.2759 27.1595 26.6495C26.2796 27.4656 25.1198 28.0001 23.8286 28.0001C22.3374 28.0001 21.0062 27.3104 20.132 26.23C19.7778 25.7932 18.6751 24.9311 18.6808 23.4196V23.1725L19.9149 18.8621L24.6342 16.1093C24.8855 16.9081 25.0284 17.7012 25.0741 18.569C24.6799 19.8391 23.9428 20.9771 23.2572 21.9656ZM22.5716 20.184C23.1087 19.6667 23.4001 18.4196 23.4001 18.4196C20.9033 18.592 19.6407 20.6035 19.3322 21.592C19.6464 20.8851 22.0346 20.7012 22.5716 20.184Z" fill="url(#paint0_linear)"/>
<path d="M16.8302 25.3505H17.9957H19.1613L20.1211 26.2298L18.0986 27.8448C18.0357 27.8965 17.95 27.8965 17.8872 27.8448L15.8646 26.2298L16.8302 25.3505Z" fill="url(#paint1_radial)"/>
<path d="M12.7268 21.9483C12.0412 20.9656 11.3156 19.8334 10.9271 18.5633C10.9728 17.6955 11.1156 16.9024 11.367 16.1035L16.0862 18.8621L17.3203 23.1725V23.4196C17.326 24.9368 16.2233 25.7989 15.8691 26.23C14.995 27.3104 13.6637 28.0001 12.1726 28.0001C10.8813 28.0001 9.72154 27.4656 8.84169 26.6495C8.43604 26.2759 8.11038 25.8736 7.79614 25.4196C7.36193 24.7932 5.87646 21.9656 8.5903 19.0288C9.53871 18.0001 9.63584 16.9886 9.34446 16.115C9.77867 16.9254 9.68726 18.1035 8.7617 19.138C6.09928 22.115 7.63617 24.684 8.06467 25.2932C8.32177 25.661 8.68171 26.0403 9.00737 26.3449C9.84152 27.1208 10.9442 27.5518 12.1726 27.5518C12.3668 27.5518 12.5554 27.546 12.7439 27.5173C14.3094 27.2817 15.5149 26.2989 15.5149 24.7644C15.5149 23.2242 14.2751 21.9771 12.7439 21.9771L12.7268 21.9483ZM16.6633 21.5978C16.3547 20.6093 15.0921 18.5978 12.5954 18.4254C12.5954 18.4254 12.8867 19.6725 13.4238 20.1897C13.9608 20.707 16.349 20.8851 16.6633 21.5978Z" fill="url(#paint2_linear)"/>
<path d="M11.3669 16.1097C11.1155 16.9085 10.9726 17.7016 10.9269 18.5695C11.3211 18.4603 11.7382 18.4028 12.1667 18.4028C14.7892 18.4028 16.9202 20.535 16.9374 23.1729H17.3145L16.0804 18.8626L11.3669 16.1097Z" fill="url(#paint3_linear)"/>
<path d="M11.3669 16.1097C11.1155 16.9085 10.9726 17.7016 10.9269 18.5695C11.3211 18.4603 11.7382 18.4028 12.1667 18.4028C14.7892 18.4028 16.9202 20.535 16.9374 23.1729H17.3145L16.0804 18.8626L11.3669 16.1097Z" fill="url(#paint4_linear)"/>
<path d="M24.6284 16.1093C24.8798 16.9081 25.0227 17.7012 25.0684 18.569C24.6741 18.4598 24.2571 18.4024 23.8286 18.4024C21.2061 18.4024 19.0751 20.5345 19.0579 23.1725H18.6808L19.9149 18.8621L24.6284 16.1093Z" fill="url(#paint5_linear)"/>
<path d="M24.6284 16.1093C24.8798 16.9081 25.0227 17.7012 25.0684 18.569C24.6741 18.4598 24.2571 18.4024 23.8286 18.4024C21.2061 18.4024 19.0751 20.5345 19.0579 23.1725H18.6808L19.9149 18.8621L24.6284 16.1093Z" fill="url(#paint6_linear)"/>
<path d="M9.74591 12.569C9.74591 11.0402 10.4487 9.6954 11.5456 8.81609C11.9913 8.45977 12.4997 8.17816 13.0539 8C12.654 8.77586 12.4312 9.65517 12.4312 10.5862C12.4312 11.546 12.6426 12.4425 13.0597 13.2299C13.8424 14.6897 14.8708 16 16.082 17.1034C16.6762 17.6437 17.3218 18.1379 18.0017 18.5747C18.6816 18.1379 19.3272 17.6494 19.9214 17.1034C21.1383 16 22.161 14.6897 22.9438 13.2299C23.3608 12.4425 23.5722 11.546 23.5722 10.5862C23.5722 9.65517 23.3437 8.77586 22.9438 8C23.4979 8.17816 24.0064 8.45977 24.4521 8.81609C25.549 9.68966 26.2575 11.0402 26.2575 12.569C26.2575 12.7701 26.2803 13.4425 25.9375 14.2989C25.6747 14.9483 25.2977 15.5345 24.8063 16.0115C24.355 16.477 23.7722 16.9425 23.0009 17.3621C19.4358 19.3276 19.0587 22.3563 19.0587 23.1667C19.0587 25.069 20.1271 26.2299 20.1271 26.2299L19.1672 25.3506H18.3788H18.0017H16.8305L15.8706 26.2299C15.8706 26.2299 16.939 25.0747 16.939 23.1667C16.939 22.3563 16.5619 19.3276 12.9968 17.3621C12.2312 16.9368 11.6427 16.477 11.1914 16.0115C10.7 15.5345 10.323 14.9483 10.0601 14.2989C9.71735 13.4425 9.74591 12.7701 9.74591 12.569Z" fill="url(#paint7_radial)"/>
<path d="M22.1382 17.523C22.6638 17.0804 22.8581 16.9425 23.0809 16.7643C23.2009 16.6666 23.3323 16.5575 23.5208 16.385C24.275 15.7069 24.4806 15.523 24.9034 14.8678C24.9549 14.7873 25.0006 14.7126 25.0463 14.6379C25.132 14.4712 25.2177 14.2988 25.2862 14.1207C25.5662 13.4253 25.6062 12.8506 25.6062 12.546C25.6062 12.5172 25.6062 12.4942 25.6062 12.4655C25.6062 12.431 25.6062 12.3965 25.6062 12.3735C25.6062 10.8276 24.9034 9.47124 23.8065 8.58044V8.59193C23.5722 8.41377 23.3094 8.25285 22.978 8.01147C23.5208 8.18964 24.0179 8.4655 24.4578 8.81607C25.549 9.68964 26.2575 11.0402 26.2575 12.5689C26.2575 12.7701 26.2803 13.4425 25.9375 14.2988C25.6747 14.9483 25.2977 15.5345 24.8063 16.0115C24.355 16.477 23.7722 16.9425 23.0009 17.362C21.144 18.385 20.1556 19.6954 19.63 20.8333C19.9214 19.9425 21.0812 18.4138 22.1382 17.523Z" fill="url(#paint8_linear)"/>
<path d="M13.8592 17.523C13.3335 17.0804 13.1393 16.9425 12.9165 16.7643C12.7965 16.6666 12.6651 16.5575 12.4765 16.385C11.7224 15.7069 11.5167 15.523 11.0939 14.8678C11.0425 14.7873 10.9968 14.7126 10.9511 14.6379C10.8654 14.4712 10.7797 14.2988 10.7111 14.1207C10.4312 13.4253 10.3912 12.8506 10.3912 12.546C10.3912 12.5172 10.3912 12.4942 10.3912 12.4655C10.3912 12.431 10.3912 12.3965 10.3912 12.3735C10.3912 10.8276 11.0939 9.47124 12.1909 8.58044V8.59193C12.4251 8.41377 12.6879 8.25285 13.0193 8.01147C12.4765 8.18964 11.9795 8.4655 11.5396 8.81607C10.4483 9.68964 9.74557 11.0402 9.74557 12.5689C9.74557 12.7701 9.72272 13.4425 10.0655 14.2988C10.3283 14.9483 10.7054 15.5345 11.1968 16.0115C11.6481 16.477 12.2309 16.9425 13.0022 17.362C14.859 18.385 15.8474 19.6954 16.373 20.8333C16.076 19.9425 14.9161 18.4138 13.8592 17.523Z" fill="url(#paint9_linear)"/>
<path d="M7.7969 25.4196C7.36268 24.7932 5.87721 21.9656 8.59105 19.0288C9.53947 18 9.6366 16.9886 9.34522 16.115C9.77943 16.9253 9.68802 18.1035 8.76245 19.138C6.10003 22.115 7.63693 24.684 8.06543 25.2932" fill="#D53038"/>
<path d="M27.9317 25.2817C28.3602 24.6725 29.8971 22.1093 27.2347 19.1265C26.3091 18.092 26.2177 16.9139 26.6519 16.1035C26.3663 16.9828 26.4577 17.9886 27.4061 19.0173C30.1256 21.9656 28.6345 24.7932 28.206 25.4196" fill="#D53038"/>
<defs>
<linearGradient id="paint0_linear" x1="21.3092" y1="27.9262" x2="28.5547" y2="12.9662" gradientUnits="userSpaceOnUse">
<stop stop-color="#FF9E4B"/>
<stop offset="0.0738649" stop-color="#F78747"/>
<stop offset="0.2274" stop-color="#E34E3D"/>
<stop offset="0.3577" stop-color="#D11833"/>
<stop offset="0.4677" stop-color="#980F1F"/>
<stop offset="0.6323" stop-color="#3D0000"/>
</linearGradient>
<radialGradient id="paint1_radial" cx="0" cy="0" r="1" gradientUnits="userSpaceOnUse" gradientTransform="translate(17.9988 28.664) rotate(180) scale(3.98198 4.00553)">
<stop stop-color="#FF9E4B"/>
<stop offset="0.126" stop-color="#F17444"/>
<stop offset="0.3419" stop-color="#DA3238"/>
<stop offset="0.4435" stop-color="#D11833"/>
<stop offset="0.52" stop-color="#BB142B"/>
<stop offset="0.6799" stop-color="#810B18"/>
<stop offset="0.8519" stop-color="#3D0000"/>
</radialGradient>
<linearGradient id="paint2_linear" x1="14.6866" y1="27.9262" x2="7.44104" y2="12.9662" gradientUnits="userSpaceOnUse">
<stop stop-color="#FF9E4B"/>
<stop offset="0.0738649" stop-color="#F78747"/>
<stop offset="0.2274" stop-color="#E34E3D"/>
<stop offset="0.3577" stop-color="#D11833"/>
<stop offset="0.4677" stop-color="#980F1F"/>
<stop offset="0.6323" stop-color="#3D0000"/>
</linearGradient>
<linearGradient id="paint3_linear" x1="15.3992" y1="20.0943" x2="9.80132" y2="18.0755" gradientUnits="userSpaceOnUse">
<stop stop-color="#D11833"/>
<stop offset="0.1484" stop-color="#CD1732"/>
<stop offset="0.2887" stop-color="#C2162E"/>
<stop offset="0.4258" stop-color="#AF1227"/>
<stop offset="0.5609" stop-color="#940E1E"/>
<stop offset="0.6946" stop-color="#710812"/>
<stop offset="0.8255" stop-color="#480204"/>
<stop offset="0.8551" stop-color="#3D0000"/>
</linearGradient>
<linearGradient id="paint4_linear" x1="13.8305" y1="20.433" x2="15.0285" y2="18.5971" gradientUnits="userSpaceOnUse">
<stop stop-color="#D11833" stop-opacity="0"/>
<stop offset="0.1329" stop-color="#C7162F" stop-opacity="0.1329"/>
<stop offset="0.3569" stop-color="#AD1226" stop-opacity="0.3569"/>
<stop offset="0.6445" stop-color="#820B16" stop-opacity="0.6445"/>
<stop offset="0.9816" stop-color="#470101" stop-opacity="0.9816"/>
<stop offset="1" stop-color="#440000"/>
</linearGradient>
<linearGradient id="paint5_linear" x1="20.5964" y1="20.0938" x2="26.1943" y2="18.0751" gradientUnits="userSpaceOnUse">
<stop stop-color="#D11833"/>
<stop offset="0.1484" stop-color="#CD1732"/>
<stop offset="0.2887" stop-color="#C2162E"/>
<stop offset="0.4258" stop-color="#AF1227"/>
<stop offset="0.5609" stop-color="#940E1E"/>
<stop offset="0.6946" stop-color="#710812"/>
<stop offset="0.8255" stop-color="#480204"/>
<stop offset="0.8551" stop-color="#3D0000"/>
</linearGradient>
<linearGradient id="paint6_linear" x1="22.1652" y1="20.4326" x2="20.9671" y2="18.5966" gradientUnits="userSpaceOnUse">
<stop stop-color="#D11833" stop-opacity="0"/>
<stop offset="0.1329" stop-color="#C7162F" stop-opacity="0.1329"/>
<stop offset="0.3569" stop-color="#AD1226" stop-opacity="0.3569"/>
<stop offset="0.6445" stop-color="#820B16" stop-opacity="0.6445"/>
<stop offset="0.9816" stop-color="#470101" stop-opacity="0.9816"/>
<stop offset="1" stop-color="#440000"/>
</linearGradient>
<radialGradient id="paint7_radial" cx="0" cy="0" r="1" gradientUnits="userSpaceOnUse" gradientTransform="translate(17.999 25.2615) rotate(180) scale(12.9104 23.2086)">
<stop stop-color="#FF9E4B"/>
<stop offset="0.415" stop-color="#DE3F3A"/>
<stop offset="0.6079" stop-color="#D11833"/>
<stop offset="0.6698" stop-color="#D21C34"/>
<stop offset="0.7331" stop-color="#D72836"/>
<stop offset="0.7971" stop-color="#DE3D3A"/>
<stop offset="0.8615" stop-color="#E85A3F"/>
<stop offset="0.9257" stop-color="#F47E45"/>
<stop offset="0.9728" stop-color="#FF9E4B"/>
</radialGradient>
<linearGradient id="paint8_linear" x1="17.1655" y1="22.5719" x2="27.2176" y2="7.12866" gradientUnits="userSpaceOnUse">
<stop offset="0.1851" stop-color="#EC6841"/>
<stop offset="0.1963" stop-color="#E7633F"/>
<stop offset="0.2956" stop-color="#BF3E30"/>
<stop offset="0.3865" stop-color="#A32324"/>
<stop offset="0.4653" stop-color="#91131D"/>
<stop offset="0.523" stop-color="#8B0D1B"/>
<stop offset="0.5779" stop-color="#981420"/>
<stop offset="0.6783" stop-color="#B9272C"/>
<stop offset="0.7709" stop-color="#DD3C39"/>
<stop offset="0.8334" stop-color="#E95D3F"/>
</linearGradient>
<linearGradient id="paint9_linear" x1="18.8325" y1="22.5719" x2="8.78041" y2="7.12867" gradientUnits="userSpaceOnUse">
<stop offset="0.1851" stop-color="#EC6841"/>
<stop offset="0.1963" stop-color="#E7633F"/>
<stop offset="0.2956" stop-color="#BF3E30"/>
<stop offset="0.3865" stop-color="#A32324"/>
<stop offset="0.4653" stop-color="#91131D"/>
<stop offset="0.523" stop-color="#8B0D1B"/>
<stop offset="0.5779" stop-color="#981420"/>
<stop offset="0.6783" stop-color="#B9272C"/>
<stop offset="0.7709" stop-color="#DD3C39"/>
<stop offset="0.8334" stop-color="#E95D3F"/>
</linearGradient>
</defs>
</svg>
