<svg width="19" height="18" viewBox="0 0 19 18" fill="none" xmlns="http://www.w3.org/2000/svg">
<path d="M11.4706 6.64214V4.36683H16.7672V0.900024H2.34448V4.36683H7.64167V6.6403C3.33659 6.83455 0.0996094 7.67211 0.0996094 8.67548C0.0996094 9.67884 3.33815 10.5164 7.64167 10.7119V18H11.4719V10.7113C15.7692 10.5164 18.9996 9.67945 18.9996 8.67701C18.9996 7.67456 15.7692 6.83761 11.4719 6.64275L11.4706 6.64214ZM11.4719 10.094V10.0921C11.3638 10.0988 10.8086 10.1316 9.57234 10.1316C8.58396 10.1316 7.88861 10.104 7.64354 10.0915V10.0946C3.84012 9.92907 1.00111 9.27841 1.00111 8.49989C1.00111 7.72136 3.84044 7.07163 7.64354 6.90583V9.44635C7.89266 9.46318 8.60514 9.50448 9.58853 9.50448C10.7697 9.50448 11.3635 9.45614 11.4725 9.44635V6.90583C15.2684 7.07193 18.1009 7.7232 18.1009 8.49897C18.1009 9.27474 15.2672 9.92632 11.4725 10.0924" fill="white"/>
</svg>
