<svg xmlns="http://www.w3.org/2000/svg" fill="none" viewBox="0 0 64 58">
  <path fill="url(#paint0_linear)" d="M47.298 40.308c-4.454 0-8.06 3.6-8.06 8.045 0 4.446 3.506 7.282 8.06 7.946.548.083 1.097.1 1.662.1 3.573 0 6.764-1.245 9.207-3.484.947-.88 1.994-1.974 2.742-3.035 1.246-1.759 5.717-9.157-2.028-17.766-2.692-2.986-2.958-6.386-1.695-8.725-.83 2.538-.565 5.44 2.194 8.41 7.894 8.51 3.556 16.67 2.31 18.479-.914 1.31-1.861 2.471-3.041 3.55-2.56 2.355-5.933 3.897-9.69 3.897-4.337 0-8.21-1.99-10.752-5.108-1.03-1.261-4.238-3.75-4.221-8.112v-.713l3.59-12.441 13.727-7.946a27.909 27.909 0 011.28 7.1c-1.147 3.666-3.29 6.95-5.285 9.803zm-1.995-5.142c1.563-1.493 2.41-5.092 2.41-5.092-7.262.497-10.935 6.303-11.833 9.156.915-2.04 7.861-2.571 9.423-4.064z"/>
  <path fill="url(#paint1_radial)" d="M28.601 50.078h6.78l2.793 2.538-5.883 4.662a.478.478 0 01-.615 0l-5.883-4.662 2.808-2.538z"/>
  <path fill="url(#paint2_linear)" d="M16.669 40.259c-1.994-2.837-4.105-6.105-5.235-9.77a27.909 27.909 0 011.28-7.1L26.44 31.35l3.59 12.44v.714c.016 4.38-3.191 6.867-4.222 8.111a13.838 13.838 0 01-10.752 5.11c-3.756 0-7.13-1.543-9.69-3.899-1.179-1.078-2.126-2.239-3.04-3.55-1.263-1.808-5.584-9.969 2.31-18.445 2.758-2.97 3.041-5.889 2.193-8.41 1.263 2.339.998 5.74-1.695 8.725-7.744 8.593-3.274 16.007-2.027 17.766.748 1.061 1.795 2.156 2.742 3.035 2.426 2.24 5.634 3.484 9.207 3.484.565 0 1.113-.017 1.662-.1 4.553-.68 8.06-3.517 8.06-7.945 0-4.446-3.606-8.045-8.06-8.045l-.05-.083zm11.45-1.012c-.897-2.853-4.57-8.66-11.832-9.157 0 0 .847 3.6 2.41 5.093 1.562 1.493 8.508 2.007 9.422 4.064z"/>
  <path fill="url(#paint3_linear)" d="M12.713 23.406a27.909 27.909 0 00-1.28 7.1 13.61 13.61 0 013.607-.481c7.628 0 13.827 6.154 13.876 13.767h1.097l-3.59-12.44-13.71-7.946z"/>
  <path fill="url(#paint4_linear)" d="M12.713 23.406a27.909 27.909 0 00-1.28 7.1 13.61 13.61 0 013.607-.481c7.628 0 13.827 6.154 13.876 13.767h1.097l-3.59-12.44-13.71-7.946z"/>
  <path fill="url(#paint5_linear)" d="M51.286 23.405a27.909 27.909 0 011.28 7.1 13.61 13.61 0 00-3.606-.481c-7.628 0-13.827 6.154-13.877 13.768h-1.097l3.59-12.441 13.71-7.946z"/>
  <path fill="url(#paint6_linear)" d="M51.286 23.405a27.909 27.909 0 011.28 7.1 13.61 13.61 0 00-3.606-.481c-7.628 0-13.827 6.154-13.877 13.768h-1.097l3.59-12.441 13.71-7.946z"/>
  <path fill="url(#paint7_radial)" d="M7.994 13.187c0-4.412 2.044-8.294 5.235-10.832A13.834 13.834 0 0117.616 0a16.138 16.138 0 00-1.811 7.465c0 2.77.614 5.357 1.828 7.63a42.043 42.043 0 008.791 11.18 42.295 42.295 0 005.584 4.247 40.902 40.902 0 005.584-4.247 41.709 41.709 0 008.792-11.18c1.213-2.273 1.828-4.86 1.828-7.63A16.15 16.15 0 0046.384 0a13.832 13.832 0 014.387 2.355c3.191 2.522 5.252 6.42 5.252 10.832 0 .58.066 2.522-.93 4.993-.765 1.875-1.862 3.567-3.292 4.943-1.312 1.344-3.008 2.688-5.251 3.898-10.37 5.673-11.467 14.415-11.467 16.754 0 5.49 3.108 8.842 3.108 8.842l-2.793-2.538H28.601l-2.792 2.538s3.108-3.335 3.108-8.842c0-2.339-1.097-11.08-11.467-16.753-2.227-1.228-3.939-2.555-5.252-3.899-1.429-1.376-2.526-3.068-3.29-4.943-.997-2.471-.914-4.412-.914-4.993z"/>
  <path fill="url(#paint8_linear)" d="M44.04 27.486c1.53-1.277 2.094-1.675 2.743-2.19.349-.282.73-.597 1.28-1.094 2.193-1.958 2.791-2.489 4.021-4.38.15-.232.283-.447.415-.663.25-.481.5-.979.698-1.493.815-2.007.931-3.666.931-4.545v-.232-.266c0-4.462-2.044-8.376-5.235-10.948v.034c-.681-.515-1.446-.98-2.41-1.676a13.857 13.857 0 014.305 2.322c3.174 2.522 5.235 6.42 5.235 10.832 0 .58.066 2.522-.93 4.993-.765 1.875-1.862 3.567-3.292 4.943-1.312 1.344-3.008 2.688-5.251 3.898-5.401 2.953-8.276 6.735-9.805 10.02.847-2.572 4.22-6.984 7.295-9.555z"/>
  <path fill="url(#paint9_linear)" d="M19.96 27.486c-1.53-1.277-2.095-1.675-2.743-2.19a27.188 27.188 0 01-1.28-1.094c-2.193-1.958-2.791-2.489-4.021-4.38a37.84 37.84 0 01-.416-.663c-.249-.481-.498-.979-.698-1.493-.814-2.007-.93-3.666-.93-4.545v-.232-.266c0-4.462 2.044-8.376 5.235-10.948v.034c.681-.515 1.446-.98 2.41-1.676a13.857 13.857 0 00-4.305 2.322 13.778 13.778 0 00-5.218 10.832c0 .58-.067 2.522.93 4.993.765 1.875 1.862 3.567 3.291 4.943 1.313 1.344 3.008 2.688 5.252 3.898 5.4 2.953 8.276 6.735 9.805 10.02-.864-2.572-4.238-6.984-7.313-9.555z"/>
  <path fill="#D53038" d="M2.327 50.278c-1.263-1.808-5.584-9.97 2.31-18.446 2.759-2.97 3.041-5.889 2.193-8.41 1.264 2.339.998 5.74-1.695 8.725-7.744 8.593-3.274 16.007-2.027 17.766M60.892 49.88c1.247-1.759 5.717-9.157-2.027-17.766-2.693-2.986-2.959-6.386-1.696-8.725-.83 2.538-.564 5.44 2.194 8.41 7.91 8.51 3.573 16.67 2.327 18.479"/>
  <defs>
    <linearGradient id="paint0_linear" x1="41.631" x2="62.443" y1="57.512" y2="14.207" gradientUnits="userSpaceOnUse">
      <stop stop-color="#FF9E4B"/>
      <stop offset=".074" stop-color="#F78747"/>
      <stop offset=".227" stop-color="#E34E3D"/>
      <stop offset=".358" stop-color="#D11833"/>
      <stop offset=".468" stop-color="#980F1F"/>
      <stop offset=".632" stop-color="#3D0000"/>
    </linearGradient>
    <linearGradient id="paint2_linear" x1="22.37" x2="1.558" y1="57.512" y2="14.207" gradientUnits="userSpaceOnUse">
      <stop stop-color="#FF9E4B"/>
      <stop offset=".074" stop-color="#F78747"/>
      <stop offset=".227" stop-color="#E34E3D"/>
      <stop offset=".358" stop-color="#D11833"/>
      <stop offset=".468" stop-color="#980F1F"/>
      <stop offset=".632" stop-color="#3D0000"/>
    </linearGradient>
    <linearGradient id="paint3_linear" x1="24.442" x2="8.188" y1="34.907" y2="28.999" gradientUnits="userSpaceOnUse">
      <stop stop-color="#D11833"/>
      <stop offset=".148" stop-color="#CD1732"/>
      <stop offset=".289" stop-color="#C2162E"/>
      <stop offset=".426" stop-color="#AF1227"/>
      <stop offset=".561" stop-color="#940E1E"/>
      <stop offset=".695" stop-color="#710812"/>
      <stop offset=".826" stop-color="#480204"/>
      <stop offset=".855" stop-color="#3D0000"/>
    </linearGradient>
    <linearGradient id="paint4_linear" x1="19.879" x2="23.326" y1="35.884" y2="30.561" gradientUnits="userSpaceOnUse">
      <stop stop-color="#D11833" stop-opacity="0"/>
      <stop offset=".133" stop-color="#C7162F" stop-opacity=".133"/>
      <stop offset=".357" stop-color="#AD1226" stop-opacity=".357"/>
      <stop offset=".644" stop-color="#820B16" stop-opacity=".644"/>
      <stop offset=".982" stop-color="#470101" stop-opacity=".982"/>
      <stop offset="1" stop-color="#400"/>
    </linearGradient>
    <linearGradient id="paint5_linear" x1="39.558" x2="55.812" y1="34.906" y2="28.999" gradientUnits="userSpaceOnUse">
      <stop stop-color="#D11833"/>
      <stop offset=".148" stop-color="#CD1732"/>
      <stop offset=".289" stop-color="#C2162E"/>
      <stop offset=".426" stop-color="#AF1227"/>
      <stop offset=".561" stop-color="#940E1E"/>
      <stop offset=".695" stop-color="#710812"/>
      <stop offset=".826" stop-color="#480204"/>
      <stop offset=".855" stop-color="#3D0000"/>
    </linearGradient>
    <linearGradient id="paint6_linear" x1="44.121" x2="40.674" y1="35.884" y2="30.56" gradientUnits="userSpaceOnUse">
      <stop stop-color="#D11833" stop-opacity="0"/>
      <stop offset=".133" stop-color="#C7162F" stop-opacity=".133"/>
      <stop offset=".357" stop-color="#AD1226" stop-opacity=".357"/>
      <stop offset=".644" stop-color="#820B16" stop-opacity=".644"/>
      <stop offset=".982" stop-color="#470101" stop-opacity=".982"/>
      <stop offset="1" stop-color="#400"/>
    </linearGradient>
    <linearGradient id="paint8_linear" x1="29.576" x2="58.497" y1="42.059" y2="-2.721" gradientUnits="userSpaceOnUse">
      <stop offset=".185" stop-color="#EC6841"/>
      <stop offset=".196" stop-color="#E7633F"/>
      <stop offset=".296" stop-color="#BF3E30"/>
      <stop offset=".387" stop-color="#A32324"/>
      <stop offset=".465" stop-color="#91131D"/>
      <stop offset=".523" stop-color="#8B0D1B"/>
      <stop offset=".578" stop-color="#981420"/>
      <stop offset=".678" stop-color="#B9272C"/>
      <stop offset=".771" stop-color="#DD3C39"/>
      <stop offset=".833" stop-color="#E95D3F"/>
    </linearGradient>
    <linearGradient id="paint9_linear" x1="34.426" x2="5.505" y1="42.059" y2="-2.721" gradientUnits="userSpaceOnUse">
      <stop offset=".185" stop-color="#EC6841"/>
      <stop offset=".196" stop-color="#E7633F"/>
      <stop offset=".296" stop-color="#BF3E30"/>
      <stop offset=".387" stop-color="#A32324"/>
      <stop offset=".465" stop-color="#91131D"/>
      <stop offset=".523" stop-color="#8B0D1B"/>
      <stop offset=".578" stop-color="#981420"/>
      <stop offset=".678" stop-color="#B9272C"/>
      <stop offset=".771" stop-color="#DD3C39"/>
      <stop offset=".833" stop-color="#E95D3F"/>
    </linearGradient>
    <radialGradient id="paint1_radial" cx="0" cy="0" r="1" gradientTransform="matrix(-11.5828 0 0 -11.5611 32 59.642)" gradientUnits="userSpaceOnUse">
      <stop stop-color="#FF9E4B"/>
      <stop offset=".126" stop-color="#F17444"/>
      <stop offset=".342" stop-color="#DA3238"/>
      <stop offset=".444" stop-color="#D11833"/>
      <stop offset=".52" stop-color="#BB142B"/>
      <stop offset=".68" stop-color="#810B18"/>
      <stop offset=".852" stop-color="#3D0000"/>
    </radialGradient>
    <radialGradient id="paint7_radial" cx="0" cy="0" r="1" gradientTransform="matrix(-37.554 0 0 -66.9865 32 49.821)" gradientUnits="userSpaceOnUse">
      <stop stop-color="#FF9E4B"/>
      <stop offset=".415" stop-color="#DE3F3A"/>
      <stop offset=".608" stop-color="#D11833"/>
      <stop offset=".67" stop-color="#D21C34"/>
      <stop offset=".733" stop-color="#D72836"/>
      <stop offset=".797" stop-color="#DE3D3A"/>
      <stop offset=".862" stop-color="#E85A3F"/>
      <stop offset=".926" stop-color="#F47E45"/>
      <stop offset=".973" stop-color="#FF9E4B"/>
    </radialGradient>
  </defs>
</svg>
