<svg width="24" height="25" viewBox="0 0 24 25" fill="none" xmlns="http://www.w3.org/2000/svg">
<path fill-rule="evenodd" clip-rule="evenodd" d="M7.33962 10.5845L12.001 5.92515L16.6643 10.5883L19.375 7.87571L12.001 0.5L4.62695 7.87381L7.33962 10.5845Z" fill="#F3BA2F"/>
<path fill-rule="evenodd" clip-rule="evenodd" d="M0 12.5005L2.71167 9.78896L5.42334 12.5005L2.71167 15.2121L0 12.5005Z" fill="#F3BA2F"/>
<path fill-rule="evenodd" clip-rule="evenodd" d="M7.34145 14.4155L12.0028 19.0768L16.6661 14.4136L19.3788 17.1224L19.3769 17.1243L12.0028 24.5L4.62879 17.1281L4.625 17.1243L7.34145 14.4155Z" fill="#F3BA2F"/>
<path fill-rule="evenodd" clip-rule="evenodd" d="M18.5762 12.5009L21.2878 9.78933L23.9995 12.5009L21.2878 15.2125L18.5762 12.5009Z" fill="#F3BA2F"/>
<path fill-rule="evenodd" clip-rule="evenodd" d="M14.753 12.499L12.0024 9.74664L9.96839 11.7806L9.73333 12.0138L9.25184 12.4952L9.24805 12.499L9.25184 12.5047L12.0024 15.2533L14.753 12.5009L14.7549 12.499H14.753Z" fill="#F3BA2F"/>
</svg>
