<svg width="147" height="16" viewBox="0 0 147 16" fill="none" xmlns="http://www.w3.org/2000/svg">
<path fill-rule="evenodd" clip-rule="evenodd" d="M23.1172 15.2043H26.8598V10.5554H28.8319L31.1987 15.2043H35.1336L32.2765 9.8235L32.5361 9.66894C32.7467 9.54241 32.9407 9.38824 33.1135 9.21021C33.3669 8.96041 33.5986 8.6879 33.8061 8.39583C34.0662 8.01573 34.266 7.59462 34.3978 7.14859C34.5646 6.61448 34.6475 6.05584 34.6431 5.49424C34.6741 4.13689 34.1598 2.82756 33.224 1.88136C32.278 0.908929 31.077 0.422713 29.6211 0.422713H23.1172V15.2043ZM30.901 5.4891C30.9111 5.886 30.7611 6.26918 30.4873 6.54572C30.2013 6.83173 29.8158 6.98432 29.4194 6.9684H26.8599V4.02088H29.4194C29.8149 4.00474 30.1999 4.15524 30.4873 4.43832C30.7614 4.71228 30.9116 5.09383 30.901 5.4891ZM39.7618 10.0298C39.748 9.44998 39.9496 8.88693 40.3246 8.45789C40.6461 8.05007 41.1263 7.81365 41.6331 7.81365C42.14 7.81365 42.6202 8.05007 42.9416 8.45789C43.3167 8.88693 43.5183 9.44998 43.5044 10.0298C43.5183 10.6096 43.3167 11.1727 42.9416 11.6017C42.6202 12.0095 42.14 12.2459 41.6331 12.2459C41.1263 12.2459 40.6461 12.0095 40.3246 11.6017C39.9496 11.1727 39.748 10.6096 39.7618 10.0298ZM46.9497 10.0296C46.9497 8.59329 46.4286 7.33743 45.3863 6.26206C43.3101 4.11113 39.9535 4.11113 37.8772 6.26206C36.8317 7.33753 36.3089 8.59339 36.309 10.0296C36.3091 11.4659 36.8319 12.7218 37.8772 13.7972C39.9535 15.9482 43.3101 15.9482 45.3863 13.7972C46.4291 12.7218 46.9504 11.4659 46.9504 10.0296H46.9497ZM48.3252 10.0295C48.3252 11.4658 48.8479 12.7217 49.8934 13.7971C50.879 14.847 52.2353 15.4302 53.6456 15.4107C54.151 15.4119 54.6537 15.3337 55.1367 15.1788C55.5423 15.0575 55.9331 14.888 56.3014 14.6737C56.5959 14.4921 56.873 14.2817 57.129 14.0453C57.306 13.8917 57.4701 13.7227 57.6196 13.5402C57.6901 13.4404 57.7446 13.3631 57.7831 13.3082L55.8199 11.0912L55.6179 11.3591C55.4232 11.6045 55.1826 11.8062 54.9107 11.9519C54.5875 12.1458 54.2207 12.2471 53.8476 12.2456C53.2914 12.2603 52.755 12.0301 52.3705 11.6117C51.976 11.1891 51.7625 10.6184 51.7788 10.0295C51.7625 9.44055 51.976 8.86984 52.3705 8.44724C52.755 8.02887 53.2912 7.79869 53.8474 7.8133C54.2307 7.81461 54.606 7.92872 54.9297 8.14246C55.1737 8.28213 55.3973 8.45741 55.5936 8.66299C55.674 8.76362 55.7495 8.8685 55.8196 8.97719L57.7822 6.76102L57.6283 6.54452C57.4802 6.34473 57.309 6.16473 57.1185 6.00858C56.859 5.78577 56.5858 5.58085 56.3006 5.39513C55.9339 5.16567 55.5391 4.98882 55.127 4.86937C53.269 4.3041 51.2626 4.8375 49.893 6.26084C48.8477 7.33701 48.3251 8.59322 48.3252 10.0295ZM66.0568 9.29774L69.5974 4.85506H65.7581L62.9011 8.45253V0.422713H59.5531V15.2043H62.9011V12.5654L63.7863 11.5141L66.0568 15.2043H69.7032L66.0568 9.29774ZM72.2542 0L70.0896 5.17462L72.158 6.4425L75.0154 1.69071L72.2542 0ZM79.8353 4.85493H76.4876V15.2042H79.8353V10.0295C79.8353 9.41111 79.9828 8.9232 80.2779 8.56581C80.5575 8.21578 80.9758 8.0183 81.4131 8.02987C81.7922 8.01834 82.1561 8.18488 82.4041 8.48337C82.6607 8.7857 82.7889 9.198 82.7889 9.72028V15.2042H86.1371V9.08185C86.1371 7.7624 85.8068 6.69381 85.1461 5.87609C84.5254 5.07741 83.5834 4.62409 82.5965 4.6492C82.0677 4.6502 81.5479 4.79217 81.0867 5.06155C80.6057 5.33646 80.2963 5.55465 80.1584 5.71614C80.0206 5.87763 79.9129 6.01319 79.8353 6.12281V4.85493ZM89.9752 0L87.8106 5.17462L89.879 6.4425L92.7364 1.69071L89.9752 0ZM101.3 15.2043C102.768 15.2043 103.972 14.7713 104.912 13.9054C105.852 13.0395 106.322 12.0293 106.321 10.8749C106.326 10.4037 106.236 9.93669 106.057 9.50389C105.915 9.14151 105.715 8.80687 105.465 8.5143C105.241 8.26859 104.989 8.05223 104.715 7.87003C104.525 7.73657 104.327 7.61607 104.123 7.5093C104.011 7.45773 103.923 7.41823 103.858 7.3908L104.041 7.28771C104.204 7.19287 104.354 7.07683 104.489 6.94239C104.673 6.76472 104.845 6.57352 105.003 6.37024C105.199 6.10568 105.349 5.80733 105.446 5.48883C105.569 5.11561 105.63 4.72361 105.629 4.32912C105.629 3.27769 105.196 2.36371 104.33 1.58718C103.464 0.810651 102.322 0.422386 100.905 0.422386H94.6995V15.204H101.3V15.2043ZM98.4422 12.0398V9.08194H101.002C101.398 9.06602 101.783 9.21862 102.069 9.50462C102.621 10.0919 102.621 11.0304 102.069 11.6177C101.783 11.9037 101.398 12.0563 101.002 12.0404H98.4422V12.0398ZM100.511 3.59747C100.854 3.57907 101.19 3.70331 101.445 3.94279C101.68 4.18373 101.806 4.51718 101.791 4.86026C101.806 5.20334 101.68 5.53679 101.445 5.77773C101.19 6.01721 100.854 6.14145 100.511 6.12306H98.4422V3.59747H100.511ZM111.644 0.422713H108.296V15.2043H111.644V0.422713ZM117.059 10.0297C117.045 9.44981 117.247 8.8867 117.622 8.45765C117.943 8.04978 118.424 7.81332 118.931 7.81332C119.437 7.81332 119.918 8.04978 120.239 8.45765C120.614 8.88665 120.816 9.44972 120.802 10.0296C120.816 10.6094 120.614 11.1726 120.239 11.6016C119.918 12.0095 119.437 12.2459 118.931 12.2459C118.424 12.2459 117.943 12.0095 117.622 11.6016C117.247 11.1726 117.045 10.6094 117.059 10.0296V10.0297ZM124.247 10.0296C124.247 8.59329 123.726 7.33743 122.684 6.26206C120.608 4.11113 117.251 4.11113 115.175 6.26206C114.129 7.33753 113.606 8.59339 113.606 10.0296C113.606 11.4659 114.129 12.7218 115.175 13.7972C117.251 15.9482 120.608 15.9482 122.684 13.7972C123.726 12.7217 124.247 11.4657 124.247 10.0295V10.0296ZM125.623 10.0297C125.623 11.466 126.145 12.7219 127.191 13.7972C128.176 14.8471 129.533 15.4303 130.943 15.4108C131.448 15.4119 131.951 15.3337 132.434 15.1788C132.84 15.0575 133.23 14.888 133.599 14.6737C133.893 14.4922 134.17 14.2818 134.426 14.0453C134.603 13.8917 134.767 13.7228 134.917 13.5402C134.987 13.4405 135.042 13.3631 135.08 13.3083L133.117 11.0912L132.915 11.3592C132.72 11.6046 132.48 11.8062 132.208 11.952C131.885 12.1459 131.518 12.2472 131.145 12.2457C130.589 12.2603 130.053 12.0301 129.668 11.6117C129.274 11.1891 129.06 10.6184 129.076 10.0295C129.06 9.44059 129.274 8.86988 129.668 8.44728C130.053 8.02892 130.589 7.79873 131.145 7.81333C131.528 7.81464 131.904 7.92875 132.227 8.1425C132.471 8.28211 132.695 8.4574 132.891 8.66303C132.972 8.76363 133.047 8.8685 133.117 8.97723L135.08 6.76106L134.926 6.54456C134.778 6.34474 134.607 6.16473 134.416 6.00862C134.157 5.78577 133.883 5.58085 133.598 5.39517C133.232 5.16568 132.837 4.98883 132.424 4.86941C130.566 4.30408 128.56 4.83748 127.19 6.26088C126.145 7.33704 125.622 8.59326 125.623 10.0295V10.0297ZM143.354 9.29789L146.895 4.85521H143.056L140.198 8.45253V0.422713H136.85V15.2043H140.198V12.5654L141.084 11.5141L143.354 15.2043H147L143.354 9.29789Z" fill="white"/>
<path fill-rule="evenodd" clip-rule="evenodd" d="M0 0H14.2259V14.8186H0V0Z" fill="#FF0000"/>
<path fill-rule="evenodd" clip-rule="evenodd" d="M9.04848 1.18555L2.96457 7.75231H6.75899L4.44536 13.6332L11.263 5.69892H7.46857L9.04848 1.18555Z" fill="white"/>
</svg>
