<svg width="600" height="317" viewBox="0 0 600 317" fill="none" xmlns="http://www.w3.org/2000/svg">
  <g style="mix-blend-mode:darken" opacity="0.5">
    <mask id="mask0" mask-type="alpha" maskUnits="userSpaceOnUse" x="0" y="0" width="600" height="317">
      <rect width="600" height="317" rx="32" fill="url(#paint0_linear)"/>
    </mask>
    <g mask="url(#mask0)">
      <path d="M429.126 106.423C387.767 106.423 354.279 139.859 354.279 181.153C354.279 222.447 386.841 248.795 429.126 254.959C434.219 255.729 439.311 255.883 444.558 255.883C477.738 255.883 507.368 244.327 530.054 223.526C538.85 215.359 548.573 205.19 555.517 195.329C567.092 178.996 608.605 110.275 536.69 30.3054C511.689 2.57045 509.22 -29.0166 520.949 -50.7424C513.233 -27.1676 515.702 -0.203064 541.319 27.3778C614.623 106.423 574.345 182.232 562.77 199.027C554.283 211.199 545.486 221.985 534.529 232C510.763 253.88 479.436 268.21 444.558 268.21C404.28 268.21 368.322 249.72 344.711 220.752C335.143 209.042 305.358 185.93 305.513 145.406V138.78L338.847 23.2176L466.318 -50.5883C473.108 -29.1707 476.966 -7.90723 478.201 15.3593C467.553 49.4117 447.645 79.9202 429.126 106.423ZM410.607 58.6567C425.114 44.7893 432.984 11.3532 432.984 11.3532C365.545 15.9757 331.439 69.9048 323.106 96.4072C331.593 77.4549 396.101 72.5242 410.607 58.6567Z" fill="url(#paint1_linear)"/>
      <path d="M255.512 197.177H286.994H318.476L344.402 220.752L289.772 264.05C288.074 265.436 285.759 265.436 284.062 264.05L229.431 220.752L255.512 197.177Z" fill="url(#paint2_radial)"/>
      <path d="M144.707 105.96C126.188 79.6121 106.589 49.2577 96.0952 15.2053C97.3298 -8.0613 101.188 -29.3248 107.978 -50.7424L235.45 23.2176L268.783 138.78V145.406C268.938 186.084 239.153 209.196 229.585 220.752C205.974 249.72 170.016 268.21 129.738 268.21C94.8606 268.21 63.533 253.88 39.7671 232C28.8101 221.985 20.0137 211.199 11.5258 199.027C-0.202759 182.232 -40.3269 106.423 32.9768 27.686C58.5946 0.105099 61.2181 -27.0136 53.3476 -50.4342C65.0762 -28.7085 62.607 2.87861 37.6065 30.6136C-34.3083 110.429 7.2048 179.304 18.7791 195.637C25.7236 205.498 35.446 215.668 44.2425 223.834C66.7737 244.635 96.5582 256.191 129.738 256.191C134.985 256.191 140.077 256.037 145.17 255.267C187.455 248.95 220.017 222.601 220.017 181.461C220.017 140.167 186.529 106.731 145.17 106.731L144.707 105.96ZM251.036 96.5612C242.703 70.0589 208.597 16.1298 141.158 11.5073C141.158 11.5073 149.028 44.9433 163.535 58.8108C178.041 72.6783 242.548 77.4549 251.036 96.5612Z" fill="url(#paint3_linear)"/>
      <path d="M107.973 -50.5818C101.182 -29.1643 97.3243 -7.90081 96.0897 15.3658C106.738 12.4382 118.004 10.8974 129.578 10.8974C200.413 10.8974 257.975 68.0622 258.438 138.786H268.624L235.29 23.224L107.973 -50.5818Z" fill="url(#paint4_linear)"/>
      <path d="M107.973 -50.5818C101.182 -29.1643 97.3243 -7.90081 96.0897 15.3658C106.738 12.4382 118.004 10.8974 129.578 10.8974C200.413 10.8974 257.975 68.0622 258.438 138.786H268.624L235.29 23.224L107.973 -50.5818Z" fill="url(#paint5_linear)"/>
      <path d="M466.163 -50.5883C472.954 -29.1707 476.812 -7.9072 478.046 15.3594C467.398 12.4318 456.132 10.891 444.558 10.891C373.723 10.891 316.161 68.0559 315.698 138.78H305.512L338.846 23.2176L466.163 -50.5883Z" fill="url(#paint6_linear)"/>
      <path d="M466.163 -50.5883C472.954 -29.1707 476.812 -7.9072 478.046 15.3594C467.398 12.4318 456.132 10.891 444.558 10.891C373.723 10.891 316.161 68.0559 315.698 138.78H305.512L338.846 23.2176L466.163 -50.5883Z" fill="url(#paint7_linear)"/>
      <path d="M64.1499 -145.504C64.1499 -186.49 83.1318 -222.545 112.762 -246.12C124.799 -255.673 138.534 -263.223 153.503 -268C142.701 -247.199 136.682 -223.624 136.682 -198.663C136.682 -172.931 142.392 -148.894 153.658 -127.784C174.8 -88.6471 202.578 -53.5161 235.295 -23.9321C251.345 -9.44827 268.783 3.80289 287.148 15.5132C305.512 3.80289 322.951 -9.29419 339.001 -23.9321C371.872 -53.5161 399.496 -88.6471 420.638 -127.784C431.904 -148.894 437.614 -172.931 437.614 -198.663C437.614 -223.624 431.441 -247.199 420.638 -268C435.607 -263.223 449.342 -255.673 461.379 -246.12C491.01 -222.7 510.146 -186.49 510.146 -145.504C510.146 -140.111 510.763 -122.083 501.504 -99.1247C494.405 -81.7133 484.219 -65.9968 470.947 -53.2079C458.756 -40.7272 443.015 -28.2464 422.181 -16.9984C325.883 35.6981 315.698 116.9 315.698 138.626C315.698 189.627 344.556 220.752 344.556 220.752L318.63 197.177H297.333H287.148H255.511L229.585 220.752C229.585 220.752 258.444 189.781 258.444 138.626C258.444 116.9 248.258 35.6981 151.96 -16.9984C131.281 -28.4005 115.385 -40.7272 103.194 -53.2079C89.922 -65.9968 79.7367 -81.7133 72.6378 -99.1247C63.3783 -122.083 64.1499 -140.111 64.1499 -145.504Z" fill="url(#paint8_radial)"/>
      <path d="M398.878 -12.6837C413.076 -24.5482 418.323 -28.2461 424.342 -33.0227C427.583 -35.6421 431.132 -38.5697 436.225 -43.1922C456.595 -61.3741 462.151 -66.3047 473.571 -83.8702C474.96 -86.0274 476.195 -88.0305 477.429 -90.0335C479.744 -94.502 482.059 -99.1245 483.911 -103.901C491.473 -122.545 492.553 -137.953 492.553 -146.12C492.553 -146.89 492.553 -147.507 492.553 -148.277C492.553 -149.202 492.553 -150.126 492.553 -150.742C492.553 -192.191 473.571 -228.554 443.941 -252.437V-252.129C437.614 -256.906 430.515 -261.22 421.564 -267.692C436.225 -262.915 449.651 -255.519 461.534 -246.12C491.01 -222.699 510.146 -186.49 510.146 -145.504C510.146 -140.111 510.763 -122.083 501.504 -99.1245C494.405 -81.713 484.219 -65.9966 470.948 -53.2076C458.756 -40.7269 443.015 -28.2462 422.181 -16.9981C372.026 10.4287 345.328 45.5598 331.13 76.0682C339.001 52.1853 370.328 11.1992 398.878 -12.6837Z" fill="url(#paint9_linear)"/>
      <path d="M175.263 -12.6837C161.065 -24.5482 155.818 -28.2461 149.8 -33.0227C146.559 -35.6421 143.01 -38.5697 137.917 -43.1922C117.546 -61.3741 111.991 -66.3047 100.571 -83.8702C99.1817 -86.0274 97.9471 -88.0305 96.7125 -90.0335C94.3977 -94.502 92.0828 -99.1245 90.2309 -103.901C82.6691 -122.545 81.5888 -137.953 81.5888 -146.12C81.5888 -146.89 81.5888 -147.507 81.5888 -148.277C81.5888 -149.202 81.5888 -150.126 81.5888 -150.742C81.5888 -192.191 100.571 -228.554 130.201 -252.437V-252.129C136.528 -256.906 143.627 -261.22 152.578 -267.692C137.917 -262.915 124.491 -255.519 112.608 -246.12C83.132 -222.699 64.1502 -186.49 64.1502 -145.504C64.1502 -140.111 63.5329 -122.083 72.7924 -99.1245C79.8913 -81.713 90.0766 -65.9966 103.348 -53.2076C115.54 -40.7269 131.281 -28.2462 152.115 -16.9981C202.27 10.4287 228.968 45.5598 243.166 76.0682C235.141 52.1853 203.813 11.1992 175.263 -12.6837Z" fill="url(#paint10_linear)"/>
      <path d="M11.5254 199.026C-0.203182 182.231 -40.3274 106.422 32.9764 27.6857C58.5942 0.104782 61.2177 -27.0139 53.3472 -50.4346C65.0758 -28.7088 62.6066 2.8783 37.6062 30.6133C-34.3088 110.429 7.20438 179.304 18.7787 195.637" fill="#D53038"/>
      <path d="M555.363 195.329C566.938 178.996 608.451 110.275 536.536 30.3055C511.535 2.57048 509.066 -29.0166 520.795 -50.7424C513.079 -27.1676 515.548 -0.203033 541.166 27.3779C614.624 106.423 574.345 182.232 562.771 199.027" fill="#D53038"/>
    </g>
  </g>
  <defs>
    <linearGradient id="paint0_linear" x1="7.9339" y1="6.10372" x2="153.294" y2="470.467" gradientUnits="userSpaceOnUse">
      <stop offset="0.515625" stop-color="#B12E2A"/>
      <stop offset="1" stop-color="#F47C45"/>
    </linearGradient>
    <linearGradient id="paint1_linear" x1="376.506" y1="266.23" x2="569.865" y2="-135.987" gradientUnits="userSpaceOnUse">
      <stop stop-color="#FF9E4B"/>
      <stop offset="0.0738649" stop-color="#F78747"/>
      <stop offset="0.2274" stop-color="#E34E3D"/>
      <stop offset="0.3577" stop-color="#D11833"/>
      <stop offset="0.4677" stop-color="#980F1F"/>
      <stop offset="0.6323" stop-color="#3D0000"/>
    </linearGradient>
    <radialGradient id="paint2_radial" cx="0" cy="0" r="1" gradientUnits="userSpaceOnUse" gradientTransform="translate(287.076 286.013) rotate(180) scale(107.558 107.39)">
      <stop stop-color="#FF9E4B"/>
      <stop offset="0.126" stop-color="#F17444"/>
      <stop offset="0.3419" stop-color="#DA3238"/>
      <stop offset="0.4435" stop-color="#D11833"/>
      <stop offset="0.52" stop-color="#BB142B"/>
      <stop offset="0.6799" stop-color="#810B18"/>
      <stop offset="0.8519" stop-color="#3D0000"/>
    </radialGradient>
    <linearGradient id="paint3_linear" x1="197.645" y1="266.23" x2="4.2865" y2="-135.987" gradientUnits="userSpaceOnUse">
      <stop stop-color="#FF9E4B"/>
      <stop offset="0.0738649" stop-color="#F78747"/>
      <stop offset="0.2274" stop-color="#E34E3D"/>
      <stop offset="0.3577" stop-color="#D11833"/>
      <stop offset="0.4677" stop-color="#980F1F"/>
      <stop offset="0.6323" stop-color="#3D0000"/>
    </linearGradient>
    <linearGradient id="paint4_linear" x1="216.891" y1="56.247" x2="65.9466" y2="1.40558" gradientUnits="userSpaceOnUse">
      <stop stop-color="#D11833"/>
      <stop offset="0.1484" stop-color="#CD1732"/>
      <stop offset="0.2887" stop-color="#C2162E"/>
      <stop offset="0.4258" stop-color="#AF1227"/>
      <stop offset="0.5609" stop-color="#940E1E"/>
      <stop offset="0.6946" stop-color="#710812"/>
      <stop offset="0.8255" stop-color="#480204"/>
      <stop offset="0.8551" stop-color="#3D0000"/>
    </linearGradient>
    <linearGradient id="paint5_linear" x1="174.518" y1="65.3282" x2="206.541" y2="15.8875" gradientUnits="userSpaceOnUse">
      <stop stop-color="#D11833" stop-opacity="0"/>
      <stop offset="0.1329" stop-color="#C7162F" stop-opacity="0.1329"/>
      <stop offset="0.3569" stop-color="#AD1226" stop-opacity="0.3569"/>
      <stop offset="0.6445" stop-color="#820B16" stop-opacity="0.6445"/>
      <stop offset="0.9816" stop-color="#470101" stop-opacity="0.9816"/>
      <stop offset="1" stop-color="#440000"/>
    </linearGradient>
    <linearGradient id="paint6_linear" x1="357.254" y1="56.2406" x2="508.199" y2="1.39918" gradientUnits="userSpaceOnUse">
      <stop stop-color="#D11833"/>
      <stop offset="0.1484" stop-color="#CD1732"/>
      <stop offset="0.2887" stop-color="#C2162E"/>
      <stop offset="0.4258" stop-color="#AF1227"/>
      <stop offset="0.5609" stop-color="#940E1E"/>
      <stop offset="0.6946" stop-color="#710812"/>
      <stop offset="0.8255" stop-color="#480204"/>
      <stop offset="0.8551" stop-color="#3D0000"/>
    </linearGradient>
    <linearGradient id="paint7_linear" x1="399.628" y1="65.3218" x2="367.604" y2="15.8811" gradientUnits="userSpaceOnUse">
      <stop stop-color="#D11833" stop-opacity="0"/>
      <stop offset="0.1329" stop-color="#C7162F" stop-opacity="0.1329"/>
      <stop offset="0.3569" stop-color="#AD1226" stop-opacity="0.3569"/>
      <stop offset="0.6445" stop-color="#820B16" stop-opacity="0.6445"/>
      <stop offset="0.9816" stop-color="#470101" stop-opacity="0.9816"/>
      <stop offset="1" stop-color="#440000"/>
    </linearGradient>
    <radialGradient id="paint8_radial" cx="0" cy="0" r="1" gradientUnits="userSpaceOnUse" gradientTransform="translate(287.075 194.789) rotate(180) scale(348.725 622.235)">
      <stop stop-color="#FF9E4B"/>
      <stop offset="0.415" stop-color="#DE3F3A"/>
      <stop offset="0.6079" stop-color="#D11833"/>
      <stop offset="0.6698" stop-color="#D21C34"/>
      <stop offset="0.7331" stop-color="#D72836"/>
      <stop offset="0.7971" stop-color="#DE3D3A"/>
      <stop offset="0.8615" stop-color="#E85A3F"/>
      <stop offset="0.9257" stop-color="#F47E45"/>
      <stop offset="0.9728" stop-color="#FF9E4B"/>
    </radialGradient>
    <linearGradient id="paint9_linear" x1="264.561" y1="122.681" x2="533.244" y2="-293.192" gradientUnits="userSpaceOnUse">
      <stop offset="0.1851" stop-color="#EC6841"/>
      <stop offset="0.1963" stop-color="#E7633F"/>
      <stop offset="0.2956" stop-color="#BF3E30"/>
      <stop offset="0.3865" stop-color="#A32324"/>
      <stop offset="0.4653" stop-color="#91131D"/>
      <stop offset="0.523" stop-color="#8B0D1B"/>
      <stop offset="0.5779" stop-color="#981420"/>
      <stop offset="0.6783" stop-color="#B9272C"/>
      <stop offset="0.7709" stop-color="#DD3C39"/>
      <stop offset="0.8334" stop-color="#E95D3F"/>
    </linearGradient>
    <linearGradient id="paint10_linear" x1="309.598" y1="122.681" x2="40.9151" y2="-293.191" gradientUnits="userSpaceOnUse">
      <stop offset="0.1851" stop-color="#EC6841"/>
      <stop offset="0.1963" stop-color="#E7633F"/>
      <stop offset="0.2956" stop-color="#BF3E30"/>
      <stop offset="0.3865" stop-color="#A32324"/>
      <stop offset="0.4653" stop-color="#91131D"/>
      <stop offset="0.523" stop-color="#8B0D1B"/>
      <stop offset="0.5779" stop-color="#981420"/>
      <stop offset="0.6783" stop-color="#B9272C"/>
      <stop offset="0.7709" stop-color="#DD3C39"/>
      <stop offset="0.8334" stop-color="#E95D3F"/>
    </linearGradient>
  </defs>
</svg>
