<svg width="107" height="111" viewBox="0 0 107 111" fill="none" xmlns="http://www.w3.org/2000/svg">
  <g clip-path="url(#clip0)">
    <path d="M100.971 77.0643L94.5501 98.7264L81.9532 95.3035L100.971 77.0643Z" fill="#E4761B" stroke="#E4761B" stroke-width="0.5372" stroke-miterlimit="23.7982"/>
    <path d="M81.9532 95.2546L94.109 78.6291L100.971 77.0154L81.9532 95.2546Z" fill="#E4761B" stroke="#E4761B" stroke-width="0.5372" stroke-miterlimit="23.7982"/>
    <path d="M91.5112 60.6833L100.971 77.0154L94.109 78.6291L91.5112 60.6833ZM91.5112 60.6833L97.5891 56.478L100.971 77.0154L91.5112 60.6833Z" fill="#F6851B" stroke="#F6851B" stroke-width="0.5372" stroke-miterlimit="23.7982"/>
    <path d="M83.7668 48.3608L101.265 41.2216L100.383 45.1335L83.7668 48.3608ZM99.8438 49.8277L83.7668 48.3608L100.383 45.1335L99.8438 49.8277Z" fill="#763D16" stroke="#763D16" stroke-width="0.5372" stroke-miterlimit="23.7982"/>
    <path d="M99.8438 49.8277L97.5891 56.4779L83.7668 48.3119L99.8438 49.8277ZM103.324 42.8841L100.383 45.1335L101.265 41.2216L103.324 42.8841ZM99.8438 49.8277L100.383 45.1335L102.736 47.0894L99.8438 49.8277Z" fill="#763D16" stroke="#763D16" stroke-width="0.5372" stroke-miterlimit="23.7982"/>
    <path d="M68.3761 89.9736L72.7384 91.3427L81.9043 95.2546L68.3761 89.9736Z" fill="#E2761B" stroke="#E2761B" stroke-width="0.5372" stroke-miterlimit="23.7982"/>
    <path d="M97.5891 56.478L99.8438 49.8277L101.755 51.2947L97.5891 56.478ZM97.5891 56.478L79.4535 50.5123L83.7668 48.3119L97.5891 56.478Z" fill="#763D16" stroke="#763D16" stroke-width="0.5372" stroke-miterlimit="23.7982"/>
    <path d="M88.0801 27.8723L83.7668 48.3119L79.4535 50.5123L88.0801 27.8723Z" fill="#763D16" stroke="#763D16" stroke-width="0.5372" stroke-miterlimit="23.7982"/>
    <path d="M101.265 41.2216L83.7668 48.3608L88.0802 27.9211L101.265 41.2216Z" fill="#763D16" stroke="#763D16" stroke-width="0.5372" stroke-miterlimit="23.7982"/>
    <path d="M88.0801 27.8723L106.314 25.7697L101.216 41.1727L88.0801 27.8723Z" fill="#763D16" stroke="#763D16" stroke-width="0.5372" stroke-miterlimit="23.7982"/>
    <path d="M97.5891 56.478L91.5112 60.6833L79.4535 50.5123L97.5891 56.478Z" fill="#F6851B" stroke="#F6851B" stroke-width="0.5372" stroke-miterlimit="23.7982"/>
    <path d="M105.579 11.0511L106.363 25.7696L88.0801 27.8722L105.579 11.0511Z" fill="#763D16" stroke="#763D16" stroke-width="0.5372" stroke-miterlimit="23.7982"/>
    <path d="M105.579 11.0511L69.1113 37.5053L68.6212 19.5595L105.579 11.0511Z" fill="#E2761B" stroke="#E2761B" stroke-width="0.5372" stroke-miterlimit="23.7982"/>
    <path d="M41.4668 17.408L68.6212 19.5595L69.1113 37.5053L41.4668 17.408Z" fill="#F6851B" stroke="#F6851B" stroke-width="0.5372" stroke-miterlimit="23.7982"/>
    <path d="M79.4535 50.5612L69.0623 37.5542L88.0801 27.8723L79.4535 50.5612Z" fill="#763D16" stroke="#763D16" stroke-width="0.5372" stroke-miterlimit="23.7982"/>
    <path d="M79.4535 50.5612L91.5112 60.7321L74.601 62.5903L79.4535 50.5612Z" fill="#E4761B" stroke="#E4761B" stroke-width="0.5372" stroke-miterlimit="23.7982"/>
    <path d="M74.601 62.5903L69.1113 37.5053L79.5025 50.5124L74.601 62.5903Z" fill="#E4761B" stroke="#E4761B" stroke-width="0.5372" stroke-miterlimit="23.7982"/>
    <path d="M88.0801 27.8722L69.0623 37.5053L105.53 11.0511L88.0801 27.8722Z" fill="#763D16" stroke="#763D16" stroke-width="0.5372" stroke-miterlimit="23.7982"/>
    <path d="M41.7119 94.8634L50.3385 103.812L38.6239 93.152L41.7119 94.8634Z" fill="#C0AD9E" stroke="#C0AD9E" stroke-width="0.5372" stroke-miterlimit="23.7982"/>
    <path d="M81.9532 95.2546L86.0215 79.8026L94.109 78.629L81.9532 95.2546Z" fill="#CD6116" stroke="#CD6116" stroke-width="0.5372" stroke-miterlimit="23.7982"/>
    <path d="M6.81311 51.7348L21.7137 36.0872L8.7247 49.8766L6.81311 51.7348Z" fill="#E2761B" stroke="#E2761B" stroke-width="0.5372" stroke-miterlimit="23.7982"/>
    <path d="M94.109 78.6291L86.0215 79.8027L91.5112 60.6833L94.109 78.6291ZM69.0623 37.5053L54.5538 37.0163L41.4668 17.408L69.0623 37.5053Z" fill="#F6851B" stroke="#F6851B" stroke-width="0.5372" stroke-miterlimit="23.7982"/>
    <path d="M91.5113 60.6833L86.0216 79.8027L85.5804 70.463L91.5113 60.6833Z" fill="#E4751F" stroke="#E4751F" stroke-width="0.5372" stroke-miterlimit="23.7982"/>
    <path d="M74.601 62.5903L91.5112 60.7322L85.5804 70.5119L74.601 62.5903Z" fill="#CD6116" stroke="#CD6116" stroke-width="0.5372" stroke-miterlimit="23.7982"/>
    <path d="M54.5538 37.0163L69.0623 37.5053L74.552 62.5903L54.5538 37.0163Z" fill="#F6851B" stroke="#F6851B" stroke-width="0.5372" stroke-miterlimit="23.7982"/>
    <path d="M54.5538 37.0162L15.4398 0.880127L41.5158 17.4079L54.5538 37.0162ZM41.4668 100.34L7.45031 110.853L0.637207 84.9859L41.4668 100.34Z" fill="#E4761B" stroke="#E4761B" stroke-width="0.5372" stroke-miterlimit="23.7982"/>
    <path d="M11.8616 58.1894L24.7036 48.1163L35.4869 50.6101L11.8616 58.1894Z" fill="#763D16" stroke="#763D16" stroke-width="0.5372" stroke-miterlimit="23.7982"/>
    <path d="M35.4869 50.659L24.7036 48.1652L30.4874 24.4005L35.4869 50.659Z" fill="#763D16" stroke="#763D16" stroke-width="0.5372" stroke-miterlimit="23.7982"/>
    <path d="M8.72467 49.8767L24.7036 48.1652L11.8616 58.1895L8.72467 49.8767Z" fill="#763D16" stroke="#763D16" stroke-width="0.5372" stroke-miterlimit="23.7982"/>
    <path d="M85.5804 70.463L78.9634 67.1379L74.601 62.5903L85.5804 70.463Z" fill="#CD6116" stroke="#CD6116" stroke-width="0.5372" stroke-miterlimit="23.7982"/>
    <path d="M8.7247 49.8766L7.59735 43.911L24.7036 48.1163L8.7247 49.8766Z" fill="#763D16" stroke="#763D16" stroke-width="0.5372" stroke-miterlimit="23.7982"/>
    <path d="M77.5419 74.6683L78.9144 67.1379L85.5314 70.463L77.5419 74.6683Z" fill="#233447" stroke="#233447" stroke-width="0.5372" stroke-miterlimit="23.7982"/>
    <path d="M86.0215 79.8027L77.5909 74.6683L85.5804 70.5119L86.0215 79.8027Z" fill="#F6851B" stroke="#F6851B" stroke-width="0.5372" stroke-miterlimit="23.7982"/>
    <path d="M24.7036 48.1652L7.59734 43.9599L6.22491 38.9234L24.7036 48.1652ZM30.4874 24.4005L24.7036 48.1652L6.22491 38.9234L30.4874 24.4005ZM30.4874 24.4005L54.6028 37.0163L35.536 50.6101L30.4874 24.4005Z" fill="#763D16" stroke="#763D16" stroke-width="0.5372" stroke-miterlimit="23.7982"/>
    <path d="M35.4869 50.659L54.5538 37.0652L63.0824 62.9815L35.4869 50.659ZM63.0824 62.9815L36.7123 62.4436L35.4869 50.659L63.0824 62.9815Z" fill="#E4761B" stroke="#E4761B" stroke-width="0.5372" stroke-miterlimit="23.7982"/>
    <path d="M11.8616 58.1894L35.4869 50.6101L36.7123 62.3947L11.8616 58.1894ZM74.601 62.5903L63.0824 62.9815L54.5538 37.0652L74.601 62.5903Z" fill="#F6851B" stroke="#F6851B" stroke-width="0.5372" stroke-miterlimit="23.7982"/>
    <path d="M78.9143 67.1379L77.5419 74.6683L74.552 62.5903L78.9143 67.1379Z" fill="#CD6116" stroke="#CD6116" stroke-width="0.5372" stroke-miterlimit="23.7982"/>
    <path d="M15.4398 0.880127L54.6028 37.0162L30.4874 24.4004L15.4398 0.880127Z" fill="#763D16" stroke="#763D16" stroke-width="0.5372" stroke-miterlimit="23.7982"/>
    <path d="M0.637207 84.9859L33.6734 83.6168L41.4668 100.34L0.637207 84.9859Z" fill="#E4761B" stroke="#E4761B" stroke-width="0.5372" stroke-miterlimit="23.7982"/>
    <path d="M41.4668 100.34L33.6734 83.6167L49.8974 82.8344L41.4668 100.34Z" fill="#CD6116" stroke="#CD6116" stroke-width="0.5372" stroke-miterlimit="23.7982"/>
    <path d="M77.5419 74.6683L85.9725 79.8027L90.629 90.756L77.5419 74.6683ZM36.7123 62.3947L0.637207 84.9859L11.8617 58.1895L36.7123 62.3947ZM33.6734 83.6168L0.637207 84.9859L36.6633 62.4436L33.6734 83.6168ZM74.601 62.5903L76.7577 70.4141L66.3175 71.0009L74.601 62.5903ZM66.3175 71.0009L63.0825 62.9815L74.601 62.5903L66.3175 71.0009Z" fill="#F6851B" stroke="#F6851B" stroke-width="0.5372" stroke-miterlimit="23.7982"/>
    <path d="M50.3385 103.812L41.4668 100.34L72.3463 105.523L50.3385 103.812Z" fill="#C0AD9E" stroke="#C0AD9E" stroke-width="0.5372" stroke-miterlimit="23.7982"/>
    <path d="M11.8617 58.1894L6.81311 51.7348L8.7247 49.8766L11.8617 58.1894Z" fill="#763D16" stroke="#763D16" stroke-width="0.5372" stroke-miterlimit="23.7982"/>
    <path d="M75.8264 101.66L72.3463 105.474L41.4668 100.291L75.8264 101.66Z" fill="#D7C1B3" stroke="#D7C1B3" stroke-width="0.5372" stroke-miterlimit="23.7982"/>
    <path d="M77.4929 92.2718L41.4668 100.34L49.8974 82.8344L77.4929 92.2718Z" fill="#E4761B" stroke="#E4761B" stroke-width="0.5372" stroke-miterlimit="23.7982"/>
    <path d="M41.4668 100.34L77.4929 92.2719L75.8264 101.66L41.4668 100.34Z" fill="#D7C1B3" stroke="#D7C1B3" stroke-width="0.5372" stroke-miterlimit="23.7982"/>
    <path d="M6.22495 38.9233L5.04858 18.7281L30.4874 24.4493L6.22495 38.9233ZM8.72472 49.8766L5.24464 46.307L7.59737 43.911L8.72472 49.8766Z" fill="#763D16" stroke="#763D16" stroke-width="0.5372" stroke-miterlimit="23.7982"/>
    <path d="M57.2006 68.1647L63.0824 62.9814L62.2492 75.6951L57.2006 68.1647Z" fill="#CD6116" stroke="#CD6116" stroke-width="0.5372" stroke-miterlimit="23.7982"/>
    <path d="M63.0824 62.9814L57.2006 68.1647L48.623 72.6145L63.0824 62.9814Z" fill="#CD6116" stroke="#CD6116" stroke-width="0.5372" stroke-miterlimit="23.7982"/>
    <path d="M90.678 90.756L89.0605 89.5824L77.5419 74.6683L90.678 90.756Z" fill="#F6851B" stroke="#F6851B" stroke-width="0.5372" stroke-miterlimit="23.7982"/>
    <path d="M48.6229 72.6145L36.7123 62.4436L63.0824 62.9815L48.6229 72.6145Z" fill="#CD6116" stroke="#CD6116" stroke-width="0.5372" stroke-miterlimit="23.7982"/>
    <path d="M62.2492 75.6951L63.0825 62.9814L66.3175 71.0008L62.2492 75.6951Z" fill="#E4751F" stroke="#E4751F" stroke-width="0.5372" stroke-miterlimit="23.7982"/>
    <path d="M4.06824 40.8793L6.2249 38.8745L7.59733 43.911L4.06824 40.8793Z" fill="#763D16" stroke="#763D16" stroke-width="0.5372" stroke-miterlimit="23.7982"/>
    <path d="M62.2492 75.6951L48.623 72.6145L57.2006 68.1647L62.2492 75.6951Z" fill="#233447" stroke="#233447" stroke-width="0.5372" stroke-miterlimit="23.7982"/>
    <path d="M30.4874 24.4004L4.99951 18.6792L15.4397 0.880127L30.4874 24.4004Z" fill="#763D16" stroke="#763D16" stroke-width="0.5372" stroke-miterlimit="23.7982"/>
    <path d="M72.3463 105.523L73.8168 109.484L50.3876 103.812L72.3463 105.523Z" fill="#C0AD9E" stroke="#C0AD9E" stroke-width="0.5372" stroke-miterlimit="23.7982"/>
    <path d="M49.8974 82.8343L48.623 72.6145L62.2492 75.6951L49.8974 82.8343Z" fill="#F6851B" stroke="#F6851B" stroke-width="0.5372" stroke-miterlimit="23.7982"/>
    <path d="M36.7123 62.3947L48.623 72.5656L49.8973 82.7855L36.7123 62.3947Z" fill="#E4751F" stroke="#E4751F" stroke-width="0.5372" stroke-miterlimit="23.7982"/>
    <path d="M66.3175 71.0009L76.7577 70.4141L89.0605 89.5824L66.3175 71.0009ZM36.7123 62.3947L49.8974 82.7855L33.6734 83.6167L36.7123 62.3947Z" fill="#F6851B" stroke="#F6851B" stroke-width="0.5372" stroke-miterlimit="23.7982"/>
    <path d="M66.3175 71.0009L79.2574 90.6582L62.2492 75.6952L66.3175 71.0009Z" fill="#E4751F" stroke="#E4751F" stroke-width="0.5372" stroke-miterlimit="23.7982"/>
    <path d="M62.2492 75.6951L79.3065 90.707L77.4929 92.3207L62.2492 75.6951Z" fill="#F6851B" stroke="#F6851B" stroke-width="0.5372" stroke-miterlimit="23.7982"/>
    <path d="M77.4929 92.2718L49.8974 82.8343L62.2492 75.6951L77.4929 92.2718ZM89.0605 89.5823L79.2575 90.707L66.3175 71.0497L89.0605 89.5823Z" fill="#F6851B" stroke="#F6851B" stroke-width="0.5372" stroke-miterlimit="23.7982"/>
    <path d="M91.6583 98.8242L87.443 107.235L73.7678 109.435L91.6583 98.8242ZM73.7678 109.435L72.2973 105.474L75.7774 101.66L73.7678 109.435Z" fill="#C0AD9E" stroke="#C0AD9E" stroke-width="0.5372" stroke-miterlimit="23.7982"/>
    <path d="M75.8264 101.66L78.4242 100.633L73.7678 109.435L75.8264 101.66ZM73.7678 109.435L78.4242 100.633L91.6583 98.7753L73.7678 109.435Z" fill="#C0AD9E" stroke="#C0AD9E" stroke-width="0.5372" stroke-miterlimit="23.7982"/>
    <path d="M89.0605 89.5824L92.2955 91.5383L82.4434 92.7119L89.0605 89.5824Z" fill="#161616" stroke="#161616" stroke-width="0.5372" stroke-miterlimit="23.7982"/>
    <path d="M82.4434 92.7119L79.2574 90.6582L89.0605 89.5335L82.4434 92.7119ZM81.3161 94.2767L93.2758 92.8097L91.6093 98.7754L81.3161 94.2767Z" fill="#161616" stroke="#161616" stroke-width="0.5372" stroke-miterlimit="23.7982"/>
    <path d="M91.6582 98.8242L78.4242 100.682L81.3651 94.2766L91.6582 98.8242ZM78.4242 100.682L75.8264 101.709L77.4929 92.3207L78.4242 100.682ZM77.4929 92.2718L79.3064 90.6581L82.4924 92.7119L77.4929 92.2718ZM92.2954 91.5383L93.2757 92.8097L81.316 94.2766L92.2954 91.5383Z" fill="#161616" stroke="#161616" stroke-width="0.5372" stroke-miterlimit="23.7982"/>
    <path d="M81.3161 94.2767L82.4434 92.7119L92.2955 91.5383L81.3161 94.2767ZM77.4929 92.2718L81.3161 94.2767L78.3752 100.682L77.4929 92.2718Z" fill="#161616" stroke="#161616" stroke-width="0.5372" stroke-miterlimit="23.7982"/>
    <path d="M82.4434 92.7119L81.3161 94.2767L77.4929 92.2719L82.4434 92.7119Z" fill="#161616" stroke="#161616" stroke-width="0.5372" stroke-miterlimit="23.7982"/>
  </g>
  <defs>
    <clipPath id="clip0">
      <rect width="107" height="111" fill="white"/>
    </clipPath>
  </defs>
</svg>
