<svg width="138" height="85" viewBox="0 0 138 85" fill="none" xmlns="http://www.w3.org/2000/svg">
  <path d="M28.2443 16.6583C50.7435 -5.34442 87.2219 -5.34442 109.721 16.6583L112.429 19.3063C113.554 20.4064 113.554 22.1901 112.429 23.2902L103.166 32.3487C102.603 32.8988 101.692 32.8988 101.129 32.3487L97.4028 28.7047C81.7068 13.3551 56.2586 13.3551 40.5626 28.7047L36.5721 32.6072C36.0096 33.1572 35.0976 33.1572 34.5352 32.6072L25.2723 23.5487C24.1473 22.4485 24.1473 20.6649 25.2723 19.5647L28.2443 16.6583ZM128.878 35.3921L137.122 43.4542C138.246 44.5544 138.246 46.338 137.122 47.4382L99.9488 83.7911C98.8239 84.8913 97 84.8913 95.875 83.7911C95.875 83.7911 95.875 83.7911 95.875 83.7911L69.4921 57.9904C69.2108 57.7153 68.7549 57.7153 68.4736 57.9904C68.4736 57.9904 68.4736 57.9904 68.4736 57.9904L42.0913 83.7911C40.9663 84.8913 39.1424 84.8913 38.0174 83.7911C38.0174 83.7911 38.0174 83.7911 38.0174 83.7911L0.843718 47.4377C-0.281239 46.3376 -0.281239 44.5539 0.843718 43.4538L9.08771 35.3917C10.2127 34.2915 12.0366 34.2915 13.1615 35.3917L39.5448 61.1928C39.8261 61.4678 40.2821 61.4678 40.5633 61.1928C40.5633 61.1928 40.5633 61.1928 40.5633 61.1928L66.9453 35.3917C68.0702 34.2915 69.8941 34.2915 71.0191 35.3916C71.0191 35.3916 71.0191 35.3916 71.0191 35.3916L97.4024 61.1928C97.6836 61.4678 98.1396 61.4678 98.4209 61.1928L124.804 35.3921C125.929 34.292 127.753 34.292 128.878 35.3921Z" fill="#3B99FC"/>
</svg>
