<svg xmlns="http://www.w3.org/2000/svg" fill="none" viewBox="0 0 36 36">
  <path fill="#181616" d="M36 18c0 9.941-8.059 18-18 18S0 27.941 0 18 8.059 0 18 0s18 8.059 18 18z"/>
  <path fill="#F3BA2F" fill-rule="evenodd" d="M13.34 16.084l4.662-4.659 4.663 4.663 2.71-2.712L18.002 6l-7.375 7.374 2.713 2.71zM6 18l2.712-2.711L11.423 18l-2.711 2.712L6 18zM13.341 19.916l4.662 4.66 4.663-4.662 2.713 2.708-.002.002L18.003 30l-7.374-7.372-.004-.004 2.716-2.708zM24.576 18l2.712-2.71L30 18l-2.712 2.712-2.712-2.711z" clip-rule="evenodd"/>
  <path fill="#F3BA2F" fill-rule="evenodd" d="M20.753 17.999l-2.75-2.752-2.035 2.034-.235.233-.481.481-.004.004.004.006 2.75 2.748 2.751-2.752.002-.002h-.002z" clip-rule="evenodd"/>
</svg>
