<svg xmlns="http://www.w3.org/2000/svg" fill="none" viewBox="0 0 36 36">
  <path fill="#F7931A" d="M36 18c0 9.941-8.059 18-18 18S0 27.941 0 18 8.059 0 18 0s18 8.059 18 18z"/>
  <path fill="#fff" fill-rule="evenodd" d="M24.63 16.291c.28-1.873-1.146-2.88-3.096-3.552l.633-2.537-1.545-.385-.616 2.47a63.765 63.765 0 00-1.237-.29l.62-2.487-1.543-.385-.634 2.536a51.386 51.386 0 01-.986-.232l.002-.008-2.13-.531-.41 1.65s1.145.262 1.12.278c.626.156.74.57.72.898l-.72 2.89c.043.012.099.028.16.052l-.162-.04-1.01 4.05c-.077.19-.271.474-.708.366.015.022-1.123-.28-1.123-.28l-.767 1.768 2.01.501c.227.057.452.116.673.173l.428.111-.639 2.567 1.543.385.633-2.54c.421.115.83.22 1.23.32l-.63 2.527 1.544.385.64-2.561c2.633.498 4.614.297 5.447-2.084.671-1.918-.033-3.025-1.419-3.747 1.01-.233 1.77-.897 1.972-2.268zm-3.528 4.948c-.439 1.76-3.195 1.032-4.455.7l-.3-.079.849-3.4c.105.027.233.055.38.088 1.302.293 3.974.892 3.526 2.691zm-3.264-4.268c1.051.28 3.342.891 3.742-.708.408-1.636-1.82-2.129-2.909-2.37-.122-.027-.23-.05-.318-.073l-.769 3.084c.073.018.158.041.254.067z" clip-rule="evenodd"/>
</svg>
