<svg xmlns="http://www.w3.org/2000/svg" fill="none" viewBox="0 0 36 36">
  <path fill="#1C1E2B" d="M18 36c9.941 0 18-8.059 18-18S27.941 0 18 0 0 8.059 0 18s8.059 18 18 18z" opacity=".2"/>
  <path fill="#D6D6D7" fill-rule="evenodd" d="M28.739 20.912c1.062-4.144-.43-8.853-3.783-11.523-2.23-1.752-5.131-2.752-7.971-2.394-2.413.19-4.763 1.256-6.517 2.928-2.974 2.7-4.193 7.117-3.212 11 .74 2.71 2.483 5.164 4.917 6.579 3.472 2.102 8.019 2.064 11.536.1 2.476-1.44 4.306-3.91 5.03-6.69zM10.915 22.95c-2.126-2.842-2.03-7.069.159-9.847 1.25-1.698 3.188-2.838 5.241-3.216l.515-.048c-.002.444.002.888.006 1.332.008.819.016 1.637-.015 2.453-.202.114-.41.217-.62.32-.5.243-1 .488-1.402.892-.943.98-1.454 2.366-1.301 3.729.222 1.678 1.365 3.272 2.994 3.815.045.02.095.037.144.053.236.077.47.154.199.603v.53c.003.943.005 1.885-.005 2.829-2.34-.25-4.523-1.544-5.915-3.445zm8.267-9.327l.14.07c1.008.493 2.089 1.022 2.597 2.104 1.286 2.076.434 5.028-1.637 6.23a5.576 5.576 0 01-.777.35c-.107.043-.213.084-.319.129-.028 1.08-.02 2.161-.014 3.243l.004.648c3.254-.386 6.174-2.756 7.128-5.924.678-2.18.286-4.623-.802-6.603-1.303-2.242-3.736-3.826-6.323-4.03-.025 1.26-.012 2.522.003 3.783zm-2.697 4.638c-.18-.28-.363-.562-.21-.93.082-.737.509-1.542 1.264-1.75 1.752-.63 3.024 1.976 1.774 3.126.026.413.182.793.338 1.174.109.265.217.53.283.807-.516-.004-1.03-.002-1.546 0-.741.004-1.483.007-2.224-.009.015-.269.135-.508.254-.749.117-.234.235-.47.256-.735.177-.366-.005-.649-.19-.934z" clip-rule="evenodd"/>
</svg>
