<?xml version="1.0" standalone="no"?>
<!DOCTYPE svg PUBLIC "-//W3C//DTD SVG 20010904//EN"
 "http://www.w3.org/TR/2001/REC-SVG-20010904/DTD/svg10.dtd">
<svg version="1.0" xmlns="http://www.w3.org/2000/svg"
 width="1024.000000pt" height="1024.000000pt" viewBox="0 0 1024.000000 1024.000000"
 preserveAspectRatio="xMidYMid meet">
<metadata>
Created by potrace 1.14, written by Peter Selinger 2001-2017
</metadata>
<g transform="translate(0.000000,1024.000000) scale(0.100000,-0.100000)"
fill="#000000" stroke="none">
<path d="M2760 9739 c-30 -11 -59 -21 -65 -23 -5 -2 -21 -7 -35 -12 -14 -4
-82 -36 -151 -71 -110 -54 -153 -79 -253 -145 -29 -19 -148 -109 -190 -143
-55 -45 -226 -214 -266 -265 -19 -24 -50 -61 -68 -83 -18 -22 -38 -49 -44 -61
-6 -12 -14 -23 -18 -26 -39 -28 -252 -443 -264 -515 -1 -5 -4 -14 -8 -20 -9
-14 -67 -224 -73 -265 -3 -19 -8 -42 -10 -50 -9 -29 -21 -131 -30 -245 -5 -63
-9 -333 -5 -345 1 -3 3 -23 6 -45 2 -22 7 -60 10 -85 3 -25 5 -53 5 -62 0 -10
5 -20 10 -23 5 -4 7 -10 4 -15 -7 -11 26 -147 63 -255 14 -44 25 -83 24 -87
-1 -5 2 -8 6 -8 5 0 9 -6 9 -13 0 -16 92 -219 122 -267 11 -19 29 -51 38 -70
22 -42 163 -249 201 -293 57 -67 120 -133 180 -192 l63 -62 -21 -79 c-22 -83
-27 -103 -34 -131 -2 -10 -13 -54 -25 -98 -11 -44 -22 -93 -25 -110 -3 -16 -8
-41 -11 -55 -3 -14 -7 -38 -10 -55 -2 -16 -6 -41 -9 -55 -4 -23 -11 -63 -21
-130 -3 -14 -7 -53 -10 -87 -3 -34 -8 -76 -10 -95 -3 -18 -8 -73 -11 -123 -6
-85 -4 -96 31 -200 20 -60 48 -137 62 -170 14 -33 29 -69 34 -80 4 -11 26 -59
48 -107 23 -48 41 -91 41 -96 0 -5 7 -15 15 -22 9 -7 13 -15 11 -18 -3 -3 4
-18 15 -33 11 -16 17 -29 14 -29 -3 0 2 -12 12 -28 11 -15 34 -56 52 -91 19
-35 53 -96 77 -135 24 -39 53 -90 65 -113 13 -24 26 -43 31 -43 4 0 8 -5 8
-10 0 -6 41 -72 90 -146 50 -75 90 -139 90 -144 0 -5 4 -10 8 -12 4 -1 37 -46
74 -98 60 -88 68 -95 99 -96 51 -1 171 -13 199 -20 14 -3 32 -7 40 -8 22 -4
99 -25 150 -42 100 -33 310 -145 332 -178 4 -6 8 -7 8 -3 0 10 34 -20 144
-128 87 -86 186 -210 186 -234 0 -6 5 -11 10 -11 6 0 10 -7 10 -15 0 -8 5 -15
11 -15 5 0 8 -4 5 -9 -3 -5 1 -14 9 -21 8 -7 12 -16 9 -21 -3 -5 0 -9 5 -9 6
0 10 -3 9 -7 -1 -5 7 -26 17 -48 31 -70 62 -156 71 -200 2 -11 8 -42 14 -70
42 -215 26 -453 -44 -653 -25 -71 -97 -212 -109 -212 -6 0 -8 -3 -4 -6 8 -8
-81 -123 -152 -197 -54 -57 -200 -172 -271 -214 -138 -83 -329 -158 -495 -198
-5 -1 -21 -5 -35 -8 -14 -4 -36 -9 -50 -11 -14 -3 -36 -7 -49 -10 -130 -29
-493 -28 -666 0 -16 3 -41 7 -55 9 -83 11 -235 52 -350 93 -52 18 -101 34
-107 34 -7 1 -13 5 -13 10 0 4 -5 8 -11 8 -34 0 -283 136 -375 204 -23 17 -55
40 -70 51 -15 11 -38 29 -50 40 -13 11 -42 36 -65 55 -79 66 -275 268 -366
377 -10 12 -26 31 -37 44 -55 66 -236 357 -236 379 0 5 -9 26 -21 46 -17 31
-61 137 -64 154 0 3 -6 14 -12 25 -6 11 -11 22 -11 25 -1 12 -15 66 -21 75 -3
6 -6 15 -7 20 -1 6 -7 30 -14 54 -6 25 -13 56 -15 70 -2 14 -5 26 -6 26 -1 0
-3 9 -5 20 -2 11 -6 32 -9 47 -21 115 -29 209 -29 363 0 137 4 197 20 295 3
19 7 46 9 60 2 14 6 36 10 50 3 14 8 36 11 50 2 14 21 77 41 140 20 63 36 118
35 123 -1 4 3 7 9 7 5 0 8 4 4 9 -3 5 -1 12 5 16 6 4 8 11 5 16 -4 5 -2 9 3 9
5 0 9 6 9 14 0 14 121 266 132 276 3 3 15 21 25 40 56 103 237 356 325 454 14
16 33 36 41 45 8 9 37 44 65 76 27 33 53 62 57 63 5 2 8 9 8 16 0 7 11 23 25
36 14 13 25 27 25 31 0 7 59 108 82 142 7 10 13 21 13 25 1 4 11 30 23 57 130
286 148 590 51 855 -11 30 -25 60 -30 66 -5 6 -6 14 -2 17 3 4 1 7 -6 7 -8 0
-11 -7 -7 -15 51 -135 67 -386 35 -560 -6 -33 -12 -64 -13 -70 -1 -5 -5 -16
-9 -22 -5 -7 -5 -17 -2 -23 3 -5 1 -10 -6 -10 -7 0 -10 -3 -6 -6 15 -16 -95
-249 -176 -369 -66 -98 -80 -117 -171 -219 -33 -38 -69 -78 -79 -90 -10 -12
-28 -32 -40 -46 -12 -14 -44 -52 -70 -85 -26 -33 -53 -67 -60 -75 -35 -44 -87
-121 -87 -130 0 -6 -3 -10 -7 -10 -5 0 -21 -24 -37 -53 -16 -28 -32 -54 -35
-57 -13 -11 -152 -280 -145 -280 2 0 -4 -15 -14 -32 -17 -30 -71 -175 -74
-198 0 -3 -8 -27 -18 -55 -9 -27 -21 -68 -25 -90 -9 -45 -12 -54 -14 -57 -3
-3 -13 -67 -14 -85 0 -7 -3 -13 -7 -13 -4 0 -6 -8 -5 -18 0 -11 -4 -61 -11
-113 -8 -56 -11 -168 -9 -279 4 -183 6 -213 25 -319 5 -29 7 -57 4 -62 -3 -5
0 -9 5 -9 6 0 10 -10 10 -23 -1 -37 49 -221 91 -332 22 -57 95 -231 100 -235
3 -3 20 -34 39 -70 38 -73 110 -183 123 -188 4 -2 8 -8 8 -13 0 -11 58 -89 75
-101 6 -4 7 -8 2 -8 -4 0 1 -8 10 -18 10 -10 32 -36 48 -57 92 -120 242 -275
396 -410 45 -39 138 -109 219 -164 68 -45 310 -183 310 -176 0 3 17 -4 38 -15
43 -22 188 -80 217 -87 24 -5 36 -8 55 -15 18 -7 101 -31 115 -33 6 -2 35 -8
66 -14 87 -18 112 -23 144 -26 17 -2 62 -7 100 -11 163 -17 465 -5 575 23 14
3 28 6 32 5 11 -2 170 36 236 56 34 11 62 18 62 15 0 -3 6 -1 12 4 7 5 36 18
63 28 104 37 311 137 367 176 14 11 31 19 37 19 6 0 11 5 11 10 0 6 5 10 10
10 6 0 16 4 23 10 7 5 59 44 117 87 97 72 360 322 360 342 0 21 31 17 57 -7
15 -15 46 -41 68 -57 22 -17 45 -34 51 -40 6 -5 26 -21 44 -35 19 -14 59 -45
89 -70 43 -35 321 -254 399 -315 7 -5 21 -17 30 -25 9 -9 35 -29 57 -45 22
-16 42 -31 45 -34 14 -15 99 -81 129 -99 26 -15 40 -18 58 -11 19 7 148 103
173 129 3 3 23 18 45 34 40 30 52 39 90 73 12 10 48 38 80 62 33 25 62 47 65
51 3 3 25 21 50 40 25 19 47 37 50 40 3 3 23 19 45 36 22 16 45 34 51 39 6 6
25 21 43 35 18 14 38 30 44 35 7 6 32 26 57 45 25 19 47 37 50 40 3 3 34 28
69 54 l63 49 37 -44 c58 -70 285 -289 299 -289 2 0 26 -18 52 -40 26 -22 52
-40 58 -40 6 0 12 -3 14 -7 3 -9 101 -74 163 -109 47 -27 213 -107 248 -120
20 -7 52 -20 70 -28 25 -12 144 -50 190 -62 4 -1 8 -2 10 -4 1 -1 9 -3 17 -5
50 -10 170 -36 200 -43 19 -4 54 -8 77 -8 24 1 43 -1 43 -4 0 -13 332 -18 440
-7 130 14 157 18 250 38 231 50 471 141 650 247 19 12 54 31 78 43 23 13 42
26 42 31 0 4 5 8 10 8 12 0 73 41 78 53 2 4 10 7 17 7 7 0 15 3 17 8 2 4 46
41 98 84 124 100 404 378 381 378 -3 0 -1 4 4 8 6 4 29 30 50 57 22 28 42 52
45 55 11 9 156 215 163 230 4 8 18 33 32 55 31 49 59 107 57 118 -1 4 2 7 8 7
5 0 10 5 10 12 0 6 12 36 26 66 14 29 27 62 29 72 2 10 8 26 13 36 26 48 99
296 108 364 2 19 7 46 10 60 3 14 8 43 10 65 3 22 9 67 14 100 18 125 3 493
-25 620 -3 11 -9 38 -13 60 -10 49 -10 49 -18 83 -5 21 -57 187 -79 250 -2 7
-4 13 -3 15 1 1 -5 13 -12 27 -8 14 -15 27 -15 30 -11 46 -170 352 -187 358
-4 2 -8 8 -8 12 0 17 -156 237 -227 320 -43 51 -87 102 -130 149 -67 75 -81
91 -111 130 -15 19 -33 40 -39 47 -7 7 -13 17 -13 22 0 5 -9 17 -20 27 -11 10
-20 24 -20 32 0 7 -3 13 -8 13 -7 0 -13 10 -42 66 -8 16 -17 31 -20 34 -4 4
-30 60 -82 175 -5 12 -10 27 -12 35 -2 8 -6 22 -9 30 -5 13 -19 72 -18 77 0 2
-5 17 -10 35 -40 137 -25 444 28 586 6 14 4 15 -9 4 -13 -10 -52 -112 -62
-162 -2 -8 -6 -22 -9 -30 -18 -45 -34 -380 -18 -380 3 0 6 -12 7 -27 2 -52 15
-107 49 -211 69 -204 164 -360 355 -578 25 -28 52 -60 60 -70 51 -64 97 -121
108 -132 6 -7 12 -17 12 -20 0 -4 10 -18 23 -32 29 -33 97 -137 97 -150 0 -5
4 -10 8 -10 5 0 17 -17 29 -37 11 -21 43 -79 70 -130 43 -79 75 -147 138 -298
7 -16 18 -50 26 -75 7 -25 17 -51 22 -57 5 -7 7 -13 4 -13 -3 0 1 -23 9 -52 9
-28 18 -61 20 -72 12 -53 16 -72 19 -91 1 -11 5 -36 9 -55 3 -19 9 -57 12 -85
10 -72 12 -394 3 -430 -4 -16 -10 -50 -13 -75 -11 -92 -17 -123 -22 -132 -3
-5 -8 -24 -10 -43 -4 -30 -45 -174 -61 -215 -4 -8 -7 -17 -7 -20 -8 -37 -119
-281 -147 -321 -10 -14 -16 -29 -12 -33 3 -3 1 -6 -5 -6 -7 0 -12 -7 -12 -15
0 -8 -4 -15 -10 -15 -5 0 -10 -5 -10 -11 0 -13 -90 -146 -145 -214 -22 -27
-44 -56 -50 -62 -37 -46 -171 -186 -262 -274 -57 -55 -99 -91 -200 -174 -7 -5
-19 -16 -28 -23 -8 -7 -15 -10 -15 -6 0 4 -9 -3 -19 -15 -11 -12 -23 -23 -28
-23 -4 0 -26 -13 -48 -28 -22 -15 -69 -42 -105 -61 -36 -19 -67 -37 -70 -40
-18 -20 -338 -142 -351 -133 -5 3 -9 1 -9 -4 0 -5 -6 -9 -12 -9 -7 0 -38 -7
-68 -16 -30 -9 -82 -20 -115 -26 -33 -6 -69 -13 -80 -15 -89 -17 -215 -27
-360 -28 -109 -1 -281 8 -294 16 -3 2 -24 7 -46 10 -22 3 -51 8 -65 11 -14 3
-34 7 -46 9 -84 16 -353 111 -365 129 -3 5 -9 8 -13 8 -11 -2 -119 56 -175 93
-29 20 -55 36 -58 36 -2 0 -10 6 -17 12 -7 7 -32 29 -56 48 -84 68 -220 216
-220 239 0 6 -4 11 -8 11 -5 0 -17 16 -28 35 -10 19 -23 35 -28 35 -5 0 -6 3
-3 6 3 4 -5 25 -18 48 -22 38 -73 161 -80 196 -2 8 -9 38 -15 65 -6 28 -13 64
-15 80 -2 17 -7 53 -10 80 -11 97 -5 246 15 350 17 91 30 140 47 185 4 8 7 17
8 20 23 68 95 210 138 275 91 135 228 274 349 352 24 15 46 32 50 38 4 5 8 6
8 1 0 -5 8 -2 17 6 17 15 164 88 187 93 6 1 23 7 37 13 29 12 100 32 138 39
14 2 27 6 31 8 3 2 32 7 65 10 32 4 66 9 74 10 9 2 39 4 67 4 l52 1 58 88 c33
48 62 89 65 92 3 3 37 55 77 115 39 61 78 119 87 130 8 10 15 25 15 31 0 7 3
14 8 16 7 3 49 70 134 213 110 186 229 429 302 615 32 80 62 156 68 170 18 42
22 71 22 170 0 85 -8 192 -20 260 -2 14 -7 49 -10 79 -3 30 -8 64 -10 75 -5
22 -11 53 -19 101 -7 41 -13 70 -26 135 -7 30 -13 62 -14 70 0 9 -4 20 -7 25
-5 9 -19 69 -23 100 -1 6 -5 17 -8 25 -3 8 -15 50 -27 93 l-21 77 83 84 c85
85 168 176 168 183 0 5 66 88 87 111 7 7 13 17 13 22 0 5 6 15 13 22 23 24
178 295 182 318 0 3 8 21 17 40 72 159 136 373 162 545 19 127 25 408 12 540
-12 116 -15 140 -16 140 -1 0 -3 9 -4 20 -11 78 -71 313 -96 370 -4 11 -19 49
-33 85 -98 256 -276 527 -482 734 -183 185 -368 318 -602 435 -56 28 -104 51
-106 51 -3 0 -22 8 -43 17 -22 9 -43 18 -49 19 -5 1 -29 9 -52 18 -24 8 -43
12 -43 7 0 -4 11 -29 24 -57 22 -47 40 -86 70 -156 18 -42 67 -178 71 -198 2
-8 4 -15 5 -15 1 0 3 -11 6 -25 2 -14 7 -32 11 -40 12 -28 33 -114 38 -155 1
-11 5 -27 8 -35 3 -8 8 -31 11 -50 3 -19 8 -51 11 -70 4 -19 8 -50 10 -70 2
-19 4 -35 5 -35 4 0 10 -160 10 -290 0 -131 -6 -280 -11 -280 0 0 -2 -13 -4
-30 -2 -28 -10 -82 -21 -150 -3 -16 -7 -43 -9 -59 -2 -15 -7 -35 -9 -45 -3 -9
-8 -31 -11 -50 -3 -19 -8 -38 -11 -43 -3 -5 -7 -19 -10 -32 -2 -12 -13 -51
-24 -86 -11 -34 -20 -69 -20 -76 0 -8 -4 -14 -8 -14 -5 0 -9 -6 -9 -14 0 -17
-62 -174 -81 -203 -8 -13 -11 -23 -7 -23 4 0 3 -6 -2 -12 -6 -7 -28 -47 -50
-88 -35 -65 -97 -176 -128 -228 -89 -150 -178 -290 -200 -313 -8 -9 -15 -19
-15 -23 0 -6 -36 -62 -73 -111 -220 -298 -271 -364 -365 -468 -18 -21 -30 -37
-28 -37 3 0 -11 -17 -32 -38 -20 -22 -64 -70 -97 -107 -78 -89 -338 -349 -444
-445 -46 -41 -89 -80 -95 -85 -6 -6 -58 -50 -116 -98 -58 -49 -117 -99 -133
-113 -15 -13 -30 -24 -32 -24 -3 0 -29 -19 -58 -42 -29 -24 -65 -52 -81 -63
-15 -11 -47 -34 -70 -51 -92 -68 -295 -204 -305 -204 -6 0 -11 -4 -11 -10 0
-15 -27 -12 -44 5 -8 9 -19 16 -23 17 -9 1 -228 146 -247 163 -6 6 -27 22 -46
35 -19 13 -39 28 -45 32 -5 4 -35 27 -65 50 -30 23 -56 45 -58 50 -2 4 -9 8
-15 8 -7 0 -28 15 -48 33 -20 18 -53 46 -74 62 -21 17 -47 38 -57 48 -10 9
-20 17 -23 17 -2 0 -15 10 -28 23 -13 12 -56 51 -97 87 -108 96 -124 111 -245
229 -171 168 -305 312 -450 487 -22 26 -46 53 -52 60 -7 7 -13 15 -13 19 0 3
-13 20 -29 38 -16 17 -46 54 -66 81 -21 28 -42 55 -47 60 -5 6 -26 36 -48 66
-22 30 -50 68 -62 84 -13 16 -27 37 -33 46 -5 9 -49 75 -96 146 -48 71 -112
172 -143 224 -31 52 -61 102 -66 110 -90 144 -236 454 -265 565 -11 40 -10 39
-35 124 -20 70 -57 249 -58 281 -1 8 -3 29 -6 45 -29 156 -29 586 0 755 3 19
7 46 9 60 15 119 96 409 149 532 8 18 22 51 32 73 9 22 30 66 46 98 15 31 27
57 26 56 -2 0 -28 -9 -58 -20z m65 -4824 c37 -6 150 -33 150 -35 0 -1 14 -4
30 -6 51 -9 295 -104 395 -155 98 -49 245 -137 296 -176 16 -13 47 -37 69 -53
117 -90 321 -289 370 -362 6 -8 35 -48 66 -89 60 -80 169 -258 169 -276 0 -6
3 -13 8 -15 7 -3 26 -40 62 -120 35 -82 40 -98 29 -98 -5 0 -12 6 -15 13 -8
21 -92 81 -164 118 -36 19 -67 34 -70 35 -3 0 -18 6 -35 13 -86 34 -188 69
-210 72 -5 1 -26 7 -45 15 -29 11 -62 21 -135 40 -5 1 -68 19 -140 39 -71 20
-134 38 -140 39 -119 29 -335 106 -417 149 -43 22 -96 59 -119 81 -36 36 -163
217 -164 234 -1 4 -13 30 -27 57 -42 83 -123 291 -133 346 -3 13 -9 33 -14 44
-21 47 -33 108 -22 115 10 6 62 -1 206 -25z m4791 -37 c-9 -29 -17 -57 -18
-63 -2 -11 -53 -156 -84 -240 -11 -27 -22 -51 -26 -53 -5 -2 -8 -10 -8 -17 0
-24 -107 -224 -142 -265 -10 -11 -18 -24 -18 -28 0 -15 -117 -118 -160 -140
-43 -23 -184 -82 -205 -86 -5 -1 -39 -12 -75 -23 -72 -24 -110 -35 -320 -94
-133 -37 -167 -46 -195 -52 -5 -2 -14 -5 -20 -8 -9 -6 -62 -20 -75 -21 -3 0
-25 -8 -50 -18 -25 -10 -47 -18 -50 -18 -6 -1 -26 -8 -65 -23 -16 -7 -35 -13
-41 -14 -21 -5 -169 -79 -182 -91 -6 -7 -21 -15 -31 -19 -11 -3 -22 -13 -25
-21 -3 -8 -10 -13 -14 -10 -5 3 -15 -6 -22 -19 -7 -14 -17 -25 -21 -25 -9 0 9
60 22 75 5 5 9 17 9 26 0 9 7 22 15 29 8 7 15 18 15 24 0 11 26 61 113 219 11
20 24 37 29 37 4 0 8 4 8 10 0 9 59 97 85 127 5 6 21 26 35 44 173 226 460
458 736 597 72 36 193 89 219 96 6 2 22 8 37 14 28 12 131 43 152 46 6 1 16 4
21 8 6 3 27 9 47 12 21 3 57 11 80 16 84 20 232 38 236 29 2 -4 -4 -31 -12
-61z m-1531 -3508 c10 -11 16 -20 13 -20 -3 0 -13 9 -23 20 -10 11 -16 20 -13
20 3 0 13 -9 23 -20z"/>
</g>
</svg>
