<svg xmlns="http://www.w3.org/2000/svg" fill="none" viewBox="0 0 175 197">
  <g filter="url(#filter0_f)" opacity=".4">
    <circle cx="89.001" cy="86.008" r="50" fill="#F01329"/>
  </g>
  <path fill="url(#paint0_linear)" d="M9.572 108.511l1.39-.901c11.616-7.865 29.57-2.745 40.614 11.101 11.002 13.804 11.738 32.033 1.186 41.167l-1.268 1.024c-11.166 9.708-30.47 5.694-42.618-9.462-12.229-15.156-11.656-34.613.696-42.929z"/>
  <path fill="url(#paint1_linear)" d="M12.884 148.45c11.248 14.009 29.08 17.818 39.387 8.93 9.816-8.48 9.161-25.479-1.104-38.341-10.266-12.904-26.994-17.655-37.792-10.323-11.329 7.742-11.779 25.724-.49 39.734z"/>
  <path fill="url(#paint2_linear)" d="M18.201 144.394c8.344 10.405 21.555 13.436 29.285 7.005 7.444-6.226 6.953-19.048-.86-28.838-7.811-9.79-20.408-13.354-28.384-7.742-8.261 5.776-8.425 19.13-.04 29.575z"/>
  <path fill="url(#paint3_linear)" d="M18.201 144.394c8.303 10.364 21.391 13.395 29.121 7.128l.164-.123c7.443-6.226 6.953-19.048-.86-28.838-7.811-9.79-20.408-13.354-28.384-7.742l-.163.123c-8.14 5.817-8.18 19.089.122 29.452z"/>
  <path fill="url(#paint4_linear)" d="M18.201 144.394c8.303 10.364 21.391 13.395 29.121 7.128 7.28-6.268 6.748-19.007-.982-28.715-7.77-9.749-20.286-13.313-28.261-7.865-8.14 5.817-8.18 19.089.122 29.452z"/>
  <path fill="url(#paint5_linear)" d="M12.312 124.487c.94-2.949 2.7-5.448 5.194-7.292 8.017-5.529 20.573-1.966 28.385 7.824 4.744 5.94 6.748 12.945 6.053 18.925 1.677-6.431-.246-14.46-5.563-21.178-7.77-9.749-20.286-13.312-28.261-7.864-3.19 2.293-5.154 5.652-5.808 9.585z"/>
  <path fill="url(#paint6_linear)" d="M35.134 119.326h.737c.244 0 .367.368.613.409a9.516 9.516 0 016.42 3.523c.205.287.942 1.147 1.432 2.622a8.834 8.834 0 01.41 3.4 12.553 12.553 0 01-.86 3.645l-.245.615v.041c-1.063 3.113-.94 5.857-.409 7.946 0-.041 0-.082-.04-.082.53 2.131 1.472 3.564 1.922 4.138 2.167 2.785 4.907 3.113 4.907 3.113l-5.766 5.53s.163-3.154-2.086-6.022c-.9-1.147-4.581-4.751-11.575-4.014h-.082c-.204.041-.409.041-.654.082-.123 0-.246.041-.327.041-.123.041-.287.041-.41.082-1.799.328-3.394.368-4.785.205-1.472-.123-2.903-.574-4.212-1.27-1.759-.942-2.577-2.048-2.822-2.417-1.964-2.499-2.659-6.185-1.268-8.684.981-1.761 1.554-2.417 2.086-2.704.49-.245.572-.245 1.227-.573.245 1.679-.777 3.932.368 5.407 1.186 1.516 2.658 2.663 4.376 3.4a30.85 30.85 0 009.611 2.335 24.81 24.81 0 004.622-.082c.49-1.434.818-2.868 1.064-4.301.45-2.868.409-5.776-.123-8.602-.287-1.516-.982-2.95-2.045-4.261a10.605 10.605 0 00-3.722-3.031l1.636-.491z"/>
  <path fill="url(#paint7_radial)" d="M45.85 153.571s.122-3.154-2.086-5.98c-.94-1.188-5.072-5.243-13.006-3.81-1.8.328-3.395.369-4.745.205a10.528 10.528 0 01-4.172-1.27c-1.717-.942-2.535-2.048-2.822-2.376-1.963-2.498-2.372-5.529-1.431-8.274a9.164 9.164 0 011.718-2.99 9.895 9.895 0 002.086 4.751c1.186 1.516 2.658 2.663 4.376 3.4a30.608 30.608 0 009.57 2.335c1.555.123 3.068.082 4.581-.082.491-1.433.818-2.867 1.064-4.301a25.05 25.05 0 00-.123-8.561c-.286-1.516-.982-2.949-2.045-4.26-1.023-1.311-2.29-2.294-3.681-3.031.981-.246 2.004-.287 2.986-.205a9.34 9.34 0 016.38 3.523c.205.286.94 1.147 1.431 2.621a8.741 8.741 0 01.41 3.4 12.566 12.566 0 01-.86 3.646c-2.617 6.636.328 11.469 1.268 12.616 2.168 2.745 4.867 3.113 4.867 3.113l-5.766 5.53z"/>
  <path fill="url(#paint8_linear)" d="M44.46 133.417c.204-1.147.326-1.557.408-2.007.041-.246.123-.533.164-.984.245-1.679.327-2.13.163-3.44 0-.164-.04-.328-.04-.451-.082-.328-.164-.614-.246-.942a7.413 7.413 0 00-1.268-2.417c-.04-.041-.04-.082-.082-.123-.04-.041-.081-.082-.081-.123-1.636-2.089-4.05-3.318-6.504-3.604-.531-.041-1.063-.041-1.8-.082a7.939 7.939 0 012.946-.164 9.34 9.34 0 016.38 3.523c.205.286.94 1.147 1.431 2.621a8.741 8.741 0 01.41 3.4 12.566 12.566 0 01-.86 3.646c-1.35 3.4-1.186 6.349-.613 8.561-.654-1.557-.818-5.038-.409-7.414z"/>
  <path fill="url(#paint9_linear)" d="M32.353 142.92c-1.39-.041-1.882 0-2.454 0-.328 0-.655 0-1.186-.041-2.127-.082-2.7-.123-4.295-.614-.204-.082-.368-.123-.531-.164a13.579 13.579 0 01-1.105-.533c-1.39-.778-2.208-1.638-2.576-2.13l-.123-.123c-.041-.041-.082-.123-.123-.164-1.963-2.498-2.372-5.529-1.472-8.233.204-.532.49-1.106.777-1.843-.736.901-1.309 1.884-1.677 2.949-.94 2.704-.532 5.776 1.431 8.274.246.328 1.064 1.475 2.823 2.376 1.308.697 2.74 1.147 4.171 1.27 1.35.164 2.945.123 4.745-.205 4.212-.778 7.32 0 9.448 1.024-1.514-.942-5.072-1.802-7.853-1.843z"/>
  <path fill="url(#paint10_linear)" d="M60.206 193.263l.777.533c6.584 4.587 16.85 1.802 23.23-5.981 6.381-7.783 6.954-18.146 1.023-23.472l-.695-.614c-6.258-5.612-17.342-3.523-24.376 5.038-7.076 8.562-6.912 19.662.04 24.496z"/>
  <path fill="url(#paint11_linear)" d="M62.455 170.488c6.544-7.906 16.728-9.913 22.536-4.752 5.521 4.916 4.99 14.624-.94 21.874-5.972 7.291-15.543 9.831-21.637 5.571-6.421-4.506-6.503-14.747.041-22.693z"/>
  <path fill="url(#paint12_linear)" d="M65.482 172.864c4.867-5.858 12.392-7.496 16.769-3.728 4.171 3.605 3.803 10.937-.737 16.426-4.54 5.53-11.779 7.455-16.278 4.178-4.662-3.359-4.622-10.978.246-16.876z"/>
  <path fill="url(#paint13_linear)" d="M65.44 172.864c4.827-5.817 12.311-7.456 16.647-3.81l.082.082c4.172 3.605 3.803 10.937-.736 16.426-4.54 5.53-11.78 7.455-16.279 4.178l-.081-.082c-4.5-3.4-4.458-10.937.368-16.794z"/>
  <path fill="url(#paint14_linear)" d="M65.44 172.864c4.827-5.817 12.312-7.456 16.647-3.81 4.09 3.646 3.68 10.896-.818 16.385-4.499 5.489-11.657 7.414-16.196 4.26-4.5-3.441-4.458-10.978.368-16.835z"/>
  <path fill="url(#paint15_linear)" d="M61.923 184.169c.532 1.68 1.514 3.154 2.904 4.219 4.54 3.195 11.739 1.311 16.237-4.219 2.74-3.359 3.968-7.332 3.6-10.732.9 3.687-.246 8.274-3.354 12.043-4.5 5.489-11.657 7.414-16.197 4.26-1.758-1.393-2.822-3.318-3.19-5.571z"/>
  <path fill="url(#paint16_linear)" d="M74.889 187.323H75.338c.123 0 .205-.204.369-.245a5.257 5.257 0 003.68-1.967c.123-.163.573-.655.819-1.474.204-.656.327-1.311.245-1.925a7.415 7.415 0 00-.45-2.09l-.123-.368v-.041c-.572-1.803-.49-3.359-.163-4.547v.041c.327-1.188.859-2.048 1.145-2.335 1.268-1.557 2.822-1.72 2.822-1.72l-3.231-3.195s.04 1.802-1.227 3.399c-.532.656-2.659 2.663-6.626 2.212h-.04c-.123 0-.246-.041-.369-.041-.082 0-.122-.041-.204-.041-.082 0-.164-.04-.246-.04-1.022-.205-1.922-.246-2.7-.164a5.484 5.484 0 00-2.412.696c-1.023.533-1.473 1.147-1.636 1.352-1.145 1.393-1.554 3.482-.777 4.956.531 1.024.859 1.393 1.145 1.557.286.164.327.164.695.328.164-.943-.409-2.253.246-3.073a6.455 6.455 0 012.535-1.925c1.8-.737 3.64-1.147 5.522-1.229.9-.041 1.759 0 2.617.082.246.819.45 1.639.573 2.458.245 1.638.204 3.318-.164 4.915-.163.861-.572 1.68-1.186 2.417a6.172 6.172 0 01-2.126 1.721l.818.286z"/>
  <path fill="url(#paint17_radial)" d="M81.31 167.866s.04 1.803-1.227 3.4c-.532.696-2.945 2.949-7.444 2.048-1.022-.205-1.922-.246-2.7-.164-.817.041-1.635.287-2.412.697-.982.532-1.473 1.147-1.636 1.352-1.146 1.392-1.391 3.154-.9 4.71.204.615.531 1.188.94 1.721a5.99 5.99 0 011.228-2.704c.695-.86 1.554-1.516 2.535-1.884a16.32 16.32 0 015.48-1.229c.9-.041 1.76 0 2.618.082.246.819.45 1.638.573 2.458.246 1.638.164 3.277-.163 4.874-.164.86-.573 1.68-1.187 2.417a6.169 6.169 0 01-2.126 1.72c.572.123 1.145.164 1.717.123a5.256 5.256 0 003.681-1.966c.123-.164.573-.655.818-1.475.205-.614.328-1.269.246-1.925a7.412 7.412 0 00-.45-2.089c-1.432-3.809.286-6.513.818-7.209 1.268-1.557 2.822-1.721 2.822-1.721l-3.231-3.236z"/>
  <path fill="url(#paint18_linear)" d="M80.37 179.336c.122.655.163.901.204 1.147.04.164.04.286.081.532.123.942.164 1.229.041 1.966 0 .082-.04.164-.04.246-.041.164-.082.369-.164.533-.246.696-.573 1.147-.736 1.392l-.041.041c-.041.041-.041.041-.041.082a5.394 5.394 0 01-3.722 2.008c-.286 0-.614 0-1.022.04.531.123 1.104.164 1.676.123a5.256 5.256 0 003.681-1.966c.123-.164.573-.655.818-1.474.205-.615.328-1.27.246-1.926a7.41 7.41 0 00-.45-2.089 7.997 7.997 0 01-.286-4.915c-.369.942-.491 2.908-.246 4.26z"/>
  <path fill="url(#paint19_linear)" d="M73.539 173.847c-.777 0-1.064-.041-1.39-.041h-.696c-1.227.041-1.554.041-2.454.328-.123.04-.204.081-.327.081a4.123 4.123 0 00-.614.287 4.654 4.654 0 00-1.513 1.188c0 .041-.04.041-.04.082l-.083.082a4.928 4.928 0 00-.9 4.67c.123.327.246.614.41 1.065a6.26 6.26 0 01-.941-1.68c-.491-1.556-.246-3.277.9-4.71.163-.205.613-.82 1.636-1.352.736-.41 1.554-.615 2.413-.697.777-.082 1.677-.041 2.7.164 2.412.492 4.17.082 5.398-.532-.9.573-2.945 1.065-4.5 1.065z"/>
  <path fill="url(#paint20_linear)" d="M123.968 43.709l-2.331-1.516c-19.55-13.19-49.734-4.547-68.262 18.679-18.446 23.185-19.673 53.825-2.004 69.186l2.127 1.761c18.732 16.303 51.206 9.544 71.615-15.893 20.532-25.52 19.551-58.208-1.145-72.218z"/>
  <path fill="url(#paint21_linear)" d="M118.365 110.887c-18.896 23.554-48.834 29.903-66.176 14.993-16.523-14.255-15.378-42.806 1.84-64.434 17.26-21.67 45.4-29.698 63.518-17.328 19.018 12.985 19.755 43.175.818 66.769z"/>
  <path fill="url(#paint22_linear)" d="M109.408 104.046c-14.029 17.491-36.237 22.571-49.162 11.757-12.474-10.487-11.697-31.992 1.432-48.418 13.129-16.467 34.315-22.448 47.689-13.026 13.906 9.708 14.11 32.155.041 49.687z"/>
  <path fill="url(#paint23_linear)" d="M109.408 104.046c-13.947 17.409-35.951 22.53-48.916 11.961l-.246-.204c-12.474-10.487-11.697-31.992 1.432-48.46 13.129-16.466 34.315-22.447 47.689-13.025l.286.205c13.62 9.83 13.743 32.114-.245 49.523z"/>
  <path fill="#FFC6A9" d="M111.412 105.767c-13.988 17.45-36.074 22.57-49.12 11.92-12.311-10.609-11.453-32.074 1.635-48.459 13.088-16.426 34.193-22.406 47.69-13.19 13.66 9.954 13.783 32.279-.205 49.729z"/>
  <path fill="url(#paint24_linear)" d="M109.408 104.046c-13.947 17.409-35.951 22.53-48.916 11.961-12.23-10.568-11.37-31.91 1.677-48.294 13.047-16.385 34.07-22.366 47.484-13.231 13.62 9.872 13.743 32.155-.245 49.564z"/>
  <path fill="url(#paint25_linear)" d="M119.347 70.62c-1.596-4.956-4.54-9.175-8.753-12.247-13.497-9.258-34.56-3.277-47.69 13.108-7.934 9.954-11.37 21.71-10.142 31.828-2.781-10.773.409-24.332 9.366-35.596 13.047-16.385 34.07-22.366 47.484-13.231 5.317 3.85 8.589 9.544 9.735 16.139z"/>
  <path fill="url(#paint26_linear)" d="M80.983 61.896H79.715c-.41 0-.614.655-1.064.696a15.768 15.768 0 00-10.797 5.94c-.368.45-1.595 1.925-2.413 4.424-.614 1.884-.86 3.81-.655 5.694.123 1.802.573 3.85 1.473 6.144.122.369.286.697.409 1.065 0 .041 0 .041.04.082 1.8 5.243 1.555 9.831.696 13.354 0-.041.04-.123.04-.164-.899 3.564-2.453 6.022-3.23 6.964-3.681 4.669-8.221 5.243-8.221 5.243l9.652 9.298s-.245-5.325 3.518-10.076c1.513-1.885 7.689-8.029 19.468-6.759h.163c.369.041.696.082 1.064.123.204.041.368.082.572.082.246.041.45.081.696.122 3.026.574 5.726.615 8.016.369 2.495-.205 4.867-.942 7.076-2.13 2.945-1.597 4.294-3.482 4.744-4.014 3.313-4.178 4.499-10.364 2.127-14.583-1.677-2.99-2.618-4.055-3.517-4.506-.818-.45-.982-.45-2.045-.942-.409 2.785 1.308 6.636-.655 9.094-2.004 2.54-4.499 4.506-7.362 5.734-5.235 2.212-10.716 3.523-16.155 3.892a48.555 48.555 0 01-7.73-.123c-.818-2.417-1.39-4.834-1.8-7.25a41.86 41.86 0 01.205-14.46c.49-2.54 1.677-4.957 3.435-7.169a19.125 19.125 0 016.217-5.12l-2.7-1.024z"/>
  <path fill="url(#paint27_radial)" d="M62.946 119.449s-.246-5.285 3.517-10.077c1.595-2.007 8.507-8.848 21.84-6.39 3.027.573 5.686.614 7.976.368a17.784 17.784 0 007.035-2.13c2.904-1.556 4.294-3.482 4.744-4.014 3.313-4.178 3.968-9.299 2.372-13.886a15.259 15.259 0 00-2.903-5.039c-.409 2.785-1.555 5.53-3.518 8.029-2.004 2.54-4.458 4.465-7.32 5.694-5.236 2.212-10.676 3.522-16.074 3.891a48.042 48.042 0 01-7.69-.123 41.166 41.166 0 01-1.758-7.21 42.649 42.649 0 01.245-14.418c.49-2.499 1.677-4.916 3.395-7.169a19.125 19.125 0 016.216-5.12c-1.635-.41-3.353-.491-5.03-.328-4.05.451-8.016 2.458-10.716 5.94-.368.45-1.595 1.925-2.413 4.424-.613 1.884-.859 3.81-.654 5.694.122 1.802.531 3.85 1.431 6.144 4.376 11.142-.532 19.253-2.086 21.219-3.64 4.629-8.22 5.243-8.22 5.243l9.61 9.258z"/>
  <path fill="url(#paint28_linear)" d="M65.277 85.613c-.368-1.925-.532-2.621-.695-3.4-.082-.45-.164-.9-.286-1.638-.41-2.826-.532-3.564-.246-5.735.041-.287.082-.532.082-.737.123-.533.245-1.024.409-1.557a13.878 13.878 0 012.127-4.096c.04-.04.081-.123.122-.164.082-.082.123-.164.164-.205a16.185 16.185 0 0110.92-6.062v.04c.86-.081 1.8-.04 3.027-.122a15.44 15.44 0 00-4.95-.287c-4.048.45-8.015 2.458-10.715 5.94-.368.45-1.595 1.925-2.413 4.424-.613 1.884-.859 3.81-.654 5.694.122 1.802.531 3.85 1.431 6.144 2.25 5.694 2.004 10.65 1.064 14.419 1.104-2.827 1.35-8.684.613-12.658z"/>
  <path fill="url(#paint29_linear)" d="M85.645 101.548c2.332-.041 3.15 0 4.131.041.532 0 1.104 0 2.004-.041 3.6-.164 4.58-.205 7.198-1.065.328-.123.614-.205.9-.287a18.588 18.588 0 001.841-.86c2.331-1.27 3.681-2.745 4.335-3.564.041-.082.123-.164.164-.205.082-.082.122-.164.204-.246 3.313-4.178 4.008-9.298 2.495-13.804l-.041.041c-.327-.942-.818-1.843-1.309-3.113a14.984 14.984 0 012.823 4.956c1.554 4.547.899 9.709-2.373 13.887-.45.573-1.799 2.457-4.744 4.014a17.783 17.783 0 01-7.035 2.13c-2.29.246-4.949.205-7.975-.369-7.076-1.31-12.27-.041-15.829 1.762 2.536-1.721 8.59-3.195 13.211-3.277z"/>
  <defs>
    <linearGradient id="paint0_linear" x1="57.319" x2="2.838" y1="154.425" y2="115.672" gradientUnits="userSpaceOnUse">
      <stop stop-color="#730913"/>
      <stop offset=".194" stop-color="#8B0E1B"/>
      <stop offset=".694" stop-color="#AC1526"/>
      <stop offset="1" stop-color="#EA6140"/>
    </linearGradient>
    <linearGradient id="paint1_linear" x1="51.332" x2="12.564" y1="158.144" y2="109.309" gradientUnits="userSpaceOnUse">
      <stop stop-color="#D21C34"/>
      <stop offset=".194" stop-color="#DE3E3A"/>
      <stop offset=".694" stop-color="#F27744"/>
      <stop offset="1" stop-color="#FD994A"/>
    </linearGradient>
    <linearGradient id="paint2_linear" x1="16.255" x2="39.814" y1="113.095" y2="142.766" gradientUnits="userSpaceOnUse">
      <stop stop-color="#F80"/>
      <stop offset=".194" stop-color="#FFA100"/>
      <stop offset=".694" stop-color="#FFCE00"/>
      <stop offset="1" stop-color="#FD0"/>
    </linearGradient>
    <linearGradient id="paint3_linear" x1="52.67" x2="12.06" y1="133.154" y2="133.791" gradientUnits="userSpaceOnUse">
      <stop stop-color="#D21C34"/>
      <stop offset=".194" stop-color="#DE3E3A"/>
      <stop offset=".694" stop-color="#F27744"/>
      <stop offset="1" stop-color="#FD994A"/>
    </linearGradient>
    <linearGradient id="paint4_linear" x1="52.381" x2="12.062" y1="133.265" y2="133.898" gradientUnits="userSpaceOnUse">
      <stop stop-color="#D21C34"/>
      <stop offset=".194" stop-color="#DE3E3A"/>
      <stop offset=".694" stop-color="#F27744"/>
      <stop offset="1" stop-color="#FD994A"/>
    </linearGradient>
    <linearGradient id="paint5_linear" x1="47.901" x2="20.668" y1="147.129" y2="112.823" gradientUnits="userSpaceOnUse">
      <stop stop-color="#68070F"/>
      <stop offset=".194" stop-color="#770A14"/>
      <stop offset=".694" stop-color="#BD192C"/>
      <stop offset=".964" stop-color="#D12A34"/>
      <stop offset="1" stop-color="#F88B48"/>
    </linearGradient>
    <linearGradient id="paint6_linear" x1="34.472" x2="29.947" y1="162.963" y2="111.634" gradientUnits="userSpaceOnUse">
      <stop stop-color="#68070F"/>
      <stop offset=".194" stop-color="#770A14"/>
      <stop offset=".694" stop-color="#BD192C"/>
      <stop offset=".964" stop-color="#D12A34"/>
      <stop offset="1" stop-color="#F88B48"/>
    </linearGradient>
    <linearGradient id="paint8_linear" x1="42.724" x2="39.872" y1="146.026" y2="113.676" gradientUnits="userSpaceOnUse">
      <stop offset=".185" stop-color="#8B0D1B"/>
      <stop offset=".248" stop-color="#9F1122"/>
      <stop offset=".358" stop-color="#BB182C"/>
      <stop offset=".453" stop-color="#CD1C32"/>
      <stop offset=".523" stop-color="#D31D34"/>
      <stop offset=".593" stop-color="#D72A36"/>
      <stop offset=".72" stop-color="#E34B3C"/>
      <stop offset=".771" stop-color="#E85A3F"/>
      <stop offset=".833" stop-color="#EC6641"/>
    </linearGradient>
    <linearGradient id="paint9_linear" x1="46.071" x2="11.176" y1="144.854" y2="132.75" gradientUnits="userSpaceOnUse">
      <stop offset=".185" stop-color="#8B0E1B"/>
      <stop offset=".523" stop-color="#8B0D1B"/>
      <stop offset=".569" stop-color="#981A20"/>
      <stop offset=".655" stop-color="#B93B2D"/>
      <stop offset=".769" stop-color="#EF7143"/>
      <stop offset=".771" stop-color="#F07243"/>
      <stop offset=".833" stop-color="#FD974A"/>
    </linearGradient>
    <linearGradient id="paint10_linear" x1="87.859" x2="56.46" y1="167.486" y2="189.124" gradientUnits="userSpaceOnUse">
      <stop stop-color="#730913"/>
      <stop offset=".194" stop-color="#8B0E1B"/>
      <stop offset=".694" stop-color="#AC1526"/>
      <stop offset="1" stop-color="#EA6140"/>
    </linearGradient>
    <linearGradient id="paint11_linear" x1="84.477" x2="61.952" y1="165.309" y2="192.83" gradientUnits="userSpaceOnUse">
      <stop stop-color="#D21C34"/>
      <stop offset=".194" stop-color="#DE3E3A"/>
      <stop offset=".694" stop-color="#F27744"/>
      <stop offset="1" stop-color="#FD994A"/>
    </linearGradient>
    <linearGradient id="paint12_linear" x1="64.08" x2="77.768" y1="190.71" y2="173.987" gradientUnits="userSpaceOnUse">
      <stop stop-color="#F80"/>
      <stop offset=".194" stop-color="#FFA100"/>
      <stop offset=".694" stop-color="#FFCE00"/>
      <stop offset="1" stop-color="#FD0"/>
    </linearGradient>
    <linearGradient id="paint13_linear" x1="85.019" x2="61.862" y1="179.579" y2="178.871" gradientUnits="userSpaceOnUse">
      <stop stop-color="#D21C34"/>
      <stop offset=".194" stop-color="#DE3E3A"/>
      <stop offset=".694" stop-color="#F27744"/>
      <stop offset="1" stop-color="#FD994A"/>
    </linearGradient>
    <linearGradient id="paint14_linear" x1="84.855" x2="61.864" y1="179.513" y2="178.81" gradientUnits="userSpaceOnUse">
      <stop stop-color="#D21C34"/>
      <stop offset=".194" stop-color="#DE3E3A"/>
      <stop offset=".694" stop-color="#F27744"/>
      <stop offset="1" stop-color="#FD994A"/>
    </linearGradient>
    <linearGradient id="paint15_linear" x1="82.427" x2="66.603" y1="171.562" y2="190.895" gradientUnits="userSpaceOnUse">
      <stop stop-color="#68070F"/>
      <stop offset=".194" stop-color="#770A14"/>
      <stop offset=".694" stop-color="#BD192C"/>
      <stop offset=".964" stop-color="#D12A34"/>
      <stop offset="1" stop-color="#F88B48"/>
    </linearGradient>
    <linearGradient id="paint16_linear" x1="74.905" x2="71.886" y1="162.418" y2="191.653" gradientUnits="userSpaceOnUse">
      <stop stop-color="#68070F"/>
      <stop offset=".194" stop-color="#770A14"/>
      <stop offset=".694" stop-color="#BD192C"/>
      <stop offset=".964" stop-color="#D12A34"/>
      <stop offset="1" stop-color="#F88B48"/>
    </linearGradient>
    <linearGradient id="paint18_linear" x1="79.467" x2="77.564" y1="172.148" y2="190.573" gradientUnits="userSpaceOnUse">
      <stop offset=".185" stop-color="#8B0D1B"/>
      <stop offset=".248" stop-color="#9F1122"/>
      <stop offset=".358" stop-color="#BB182C"/>
      <stop offset=".453" stop-color="#CD1C32"/>
      <stop offset=".523" stop-color="#D31D34"/>
      <stop offset=".593" stop-color="#D72A36"/>
      <stop offset=".72" stop-color="#E34B3C"/>
      <stop offset=".771" stop-color="#E85A3F"/>
      <stop offset=".833" stop-color="#EC6641"/>
    </linearGradient>
    <linearGradient id="paint19_linear" x1="81.4" x2="61.396" y1="172.834" y2="179.44" gradientUnits="userSpaceOnUse">
      <stop offset=".185" stop-color="#8B0E1B"/>
      <stop offset=".523" stop-color="#8B0D1B"/>
      <stop offset=".569" stop-color="#981A20"/>
      <stop offset=".655" stop-color="#B93B2D"/>
      <stop offset=".769" stop-color="#EF7143"/>
      <stop offset=".771" stop-color="#F07243"/>
      <stop offset=".833" stop-color="#FD974A"/>
    </linearGradient>
    <linearGradient id="paint20_linear" x1="43.699" x2="135.24" y1="120.895" y2="55.782" gradientUnits="userSpaceOnUse">
      <stop stop-color="#730913"/>
      <stop offset=".194" stop-color="#8B0E1B"/>
      <stop offset=".694" stop-color="#AC1526"/>
      <stop offset="1" stop-color="#EA6140"/>
    </linearGradient>
    <linearGradient id="paint21_linear" x1="53.765" x2="118.904" y1="127.148" y2="45.093" gradientUnits="userSpaceOnUse">
      <stop stop-color="#D21C34"/>
      <stop offset=".194" stop-color="#DE3E3A"/>
      <stop offset=".694" stop-color="#F27744"/>
      <stop offset="1" stop-color="#FD994A"/>
    </linearGradient>
    <linearGradient id="paint22_linear" x1="112.701" x2="73.117" y1="51.438" y2="101.293" gradientUnits="userSpaceOnUse">
      <stop stop-color="#F80"/>
      <stop offset=".194" stop-color="#FFA100"/>
      <stop offset=".694" stop-color="#FFCE00"/>
      <stop offset="1" stop-color="#FD0"/>
    </linearGradient>
    <linearGradient id="paint23_linear" x1="51.516" x2="119.749" y1="85.141" y2="86.212" gradientUnits="userSpaceOnUse">
      <stop stop-color="#D21C34"/>
      <stop offset=".194" stop-color="#DE3E3A"/>
      <stop offset=".694" stop-color="#F27744"/>
      <stop offset="1" stop-color="#FD994A"/>
    </linearGradient>
    <linearGradient id="paint24_linear" x1="52.002" x2="119.746" y1="85.329" y2="86.391" gradientUnits="userSpaceOnUse">
      <stop stop-color="#D21C34"/>
      <stop offset=".194" stop-color="#DE3E3A"/>
      <stop offset=".694" stop-color="#F27744"/>
      <stop offset="1" stop-color="#FD994A"/>
    </linearGradient>
    <linearGradient id="paint25_linear" x1="59.53" x2="105.288" y1="108.639" y2="50.997" gradientUnits="userSpaceOnUse">
      <stop stop-color="#68070F"/>
      <stop offset=".194" stop-color="#770A14"/>
      <stop offset=".694" stop-color="#BD192C"/>
      <stop offset=".964" stop-color="#D12A34"/>
      <stop offset="1" stop-color="#F88B48"/>
    </linearGradient>
    <linearGradient id="paint26_linear" x1="82.085" x2="89.689" y1="135.248" y2="49.003" gradientUnits="userSpaceOnUse">
      <stop stop-color="#68070F"/>
      <stop offset=".194" stop-color="#770A14"/>
      <stop offset=".694" stop-color="#BD192C"/>
      <stop offset=".964" stop-color="#D12A34"/>
      <stop offset="1" stop-color="#F88B48"/>
    </linearGradient>
    <linearGradient id="paint28_linear" x1="68.221" x2="73.013" y1="106.79" y2="52.434" gradientUnits="userSpaceOnUse">
      <stop offset=".185" stop-color="#8B0D1B"/>
      <stop offset=".248" stop-color="#9F1122"/>
      <stop offset=".358" stop-color="#BB182C"/>
      <stop offset=".453" stop-color="#CD1C32"/>
      <stop offset=".523" stop-color="#D31D34"/>
      <stop offset=".593" stop-color="#D72A36"/>
      <stop offset=".72" stop-color="#E34B3C"/>
      <stop offset=".771" stop-color="#E85A3F"/>
      <stop offset=".833" stop-color="#EC6641"/>
    </linearGradient>
    <linearGradient id="paint29_linear" x1="62.577" x2="121.209" y1="104.834" y2="84.496" gradientUnits="userSpaceOnUse">
      <stop offset=".185" stop-color="#8B0E1B"/>
      <stop offset=".523" stop-color="#8B0D1B"/>
      <stop offset=".569" stop-color="#981A20"/>
      <stop offset=".655" stop-color="#B93B2D"/>
      <stop offset=".769" stop-color="#EF7143"/>
      <stop offset=".771" stop-color="#F07243"/>
      <stop offset=".833" stop-color="#FD974A"/>
    </linearGradient>
    <radialGradient id="paint7_radial" cx="0" cy="0" r="1" gradientTransform="rotate(-126.586 50.948 58.17) scale(28.5999 51.0919)" gradientUnits="userSpaceOnUse">
      <stop stop-color="#FF9E4B"/>
      <stop offset=".415" stop-color="#DE3F3A"/>
      <stop offset=".608" stop-color="#D11833"/>
      <stop offset=".67" stop-color="#D21C34"/>
      <stop offset=".733" stop-color="#D72836"/>
      <stop offset=".797" stop-color="#DE3D3A"/>
      <stop offset=".862" stop-color="#E85A3F"/>
      <stop offset=".926" stop-color="#F47E45"/>
      <stop offset=".973" stop-color="#FF9E4B"/>
    </radialGradient>
    <radialGradient id="paint17_radial" cx="0" cy="0" r="1" gradientTransform="matrix(-9.91716 12.95376 -23.13963 -17.71528 74.726 179.094)" gradientUnits="userSpaceOnUse">
      <stop stop-color="#FF9E4B"/>
      <stop offset=".415" stop-color="#DE3F3A"/>
      <stop offset=".608" stop-color="#D11833"/>
      <stop offset=".67" stop-color="#D21C34"/>
      <stop offset=".733" stop-color="#D72836"/>
      <stop offset=".797" stop-color="#DE3D3A"/>
      <stop offset=".862" stop-color="#E85A3F"/>
      <stop offset=".926" stop-color="#F47E45"/>
      <stop offset=".973" stop-color="#FF9E4B"/>
    </radialGradient>
    <radialGradient id="paint27_radial" cx="0" cy="0" r="1" gradientTransform="rotate(-53.414 126.548 -38.286) scale(48.0546 85.8466)" gradientUnits="userSpaceOnUse">
      <stop stop-color="#FF9E4B"/>
      <stop offset=".415" stop-color="#DE3F3A"/>
      <stop offset=".608" stop-color="#D11833"/>
      <stop offset=".67" stop-color="#D21C34"/>
      <stop offset=".733" stop-color="#D72836"/>
      <stop offset=".797" stop-color="#DE3D3A"/>
      <stop offset=".862" stop-color="#E85A3F"/>
      <stop offset=".926" stop-color="#F47E45"/>
      <stop offset=".973" stop-color="#FF9E4B"/>
    </radialGradient>
    <filter id="filter0_f" width="172" height="172" x="3.001" y=".008" color-interpolation-filters="sRGB" filterUnits="userSpaceOnUse">
      <feFlood flood-opacity="0" result="BackgroundImageFix"/>
      <feBlend in="SourceGraphic" in2="BackgroundImageFix" result="shape"/>
      <feGaussianBlur result="effect1_foregroundBlur" stdDeviation="18"/>
    </filter>
  </defs>
</svg>
