<svg width="60" height="60" viewBox="0 0 60 60" fill="none" xmlns="http://www.w3.org/2000/svg">
<path d="M60 29.9998C60 46.5684 46.5687 60 30.0002 60C13.4315 60 0 46.5684 0 29.9998C0 13.4314 13.4315 0 30.0002 0C46.5685 0 60 13.4314 60 29.9998Z" fill="url(#paint0_linear_3972)"/>
<g clip-path="url(#clip0_3972)">
<path d="M38.9966 37.4396C36.3289 37.4396 34.1688 39.6221 34.1688 42.3175C34.1688 45.0129 36.2692 46.7327 38.9966 47.135C39.3251 47.1853 39.6536 47.1954 39.992 47.1954C42.1321 47.1954 44.0433 46.4411 45.5066 45.0833C46.074 44.5503 46.7011 43.8865 47.149 43.2428C47.8956 42.1767 50.5732 37.6911 45.9346 32.4713C44.322 30.6609 44.1628 28.5991 44.9193 27.181C44.4216 28.7198 44.5808 30.4799 46.2332 32.2802C50.9614 37.4396 48.3634 42.3879 47.6169 43.4842C47.0694 44.2787 46.502 44.9828 45.7952 45.6365C44.2623 47.0646 42.2416 48 39.992 48C37.394 48 35.0747 46.7931 33.5517 44.9023C32.9345 44.1379 31.0134 42.6293 31.0233 39.9842V39.5517L33.1734 32.0086L41.3955 27.1911C41.8335 28.5891 42.0824 29.977 42.162 31.4957C41.4752 33.7184 40.1911 35.7098 38.9966 37.4396ZM37.8021 34.3218C38.7378 33.4167 39.2454 31.2342 39.2454 31.2342C34.8955 31.5359 32.6956 35.056 32.1581 36.7859C32.7056 35.5488 36.8664 35.227 37.8021 34.3218Z" fill="url(#paint1_linear_3972)"/>
<path d="M27.7987 43.3635H29.8293H31.8599L33.5322 44.9023L30.0085 47.7285C29.899 47.819 29.7497 47.819 29.6402 47.7285L26.1164 44.9023L27.7987 43.3635Z" fill="url(#paint2_radial_3972)"/>
<path d="M20.6511 37.4095C19.4567 35.6896 18.1925 33.7083 17.5156 31.4856C17.5952 29.9669 17.8441 28.579 18.2821 27.181L26.5042 32.0086L28.6543 39.5517V39.9842C28.6642 42.6394 26.7431 44.148 26.1259 44.9023C24.6029 46.7931 22.2836 48 19.6856 48C17.436 48 15.4153 47.0646 13.8824 45.6365C13.1756 44.9828 12.6082 44.2787 12.0607 43.4842C11.3042 42.3879 8.71616 37.4396 13.4444 32.3003C15.0968 30.5 15.266 28.7299 14.7583 27.2011C15.5148 28.6192 15.3556 30.681 13.743 32.4914C9.10437 37.7011 11.782 42.1968 12.5286 43.2629C12.9765 43.9066 13.6036 44.5704 14.171 45.1034C15.6243 46.4612 17.5455 47.2155 19.6856 47.2155C20.024 47.2155 20.3525 47.2055 20.681 47.1552C23.4084 46.7428 25.5088 45.023 25.5088 42.3376C25.5088 39.6422 23.3487 37.4598 20.681 37.4598L20.6511 37.4095ZM27.5095 36.796C26.972 35.0661 24.7722 31.546 20.4222 31.2442C20.4222 31.2442 20.9299 33.4267 21.8655 34.3319C22.8012 35.2371 26.9621 35.5488 27.5095 36.796Z" fill="url(#paint3_linear_3972)"/>
<path d="M18.2813 27.1917C17.8433 28.5896 17.5945 29.9776 17.5148 31.4962C18.2017 31.3052 18.9283 31.2046 19.6749 31.2046C24.2438 31.2046 27.9567 34.9359 27.9866 39.5523H28.6436L26.4935 32.0092L18.2813 27.1917Z" fill="url(#paint4_linear_3972)"/>
<path d="M18.2813 27.1917C17.8433 28.5896 17.5945 29.9776 17.5148 31.4962C18.2017 31.3052 18.9283 31.2046 19.6749 31.2046C24.2438 31.2046 27.9567 34.9359 27.9866 39.5523H28.6436L26.4935 32.0092L18.2813 27.1917Z" fill="url(#paint5_linear_3972)"/>
<path d="M41.3859 27.1912C41.8239 28.5892 42.0727 29.9771 42.1523 31.4958C41.4655 31.3047 40.7389 31.2041 39.9923 31.2041C35.4234 31.2041 31.7105 34.9354 31.6806 39.5518H31.0236L33.1737 32.0087L41.3859 27.1912Z" fill="url(#paint6_linear_3972)"/>
<path d="M41.3859 27.1912C41.8239 28.5892 42.0727 29.9771 42.1523 31.4958C41.4655 31.3047 40.7389 31.2041 39.9923 31.2041C35.4234 31.2041 31.7105 34.9354 31.6806 39.5518H31.0236L33.1737 32.0087L41.3859 27.1912Z" fill="url(#paint7_linear_3972)"/>
<path d="M15.4547 20.9957C15.4547 18.3204 16.679 15.967 18.5902 14.4282C19.3667 13.8046 20.2526 13.3118 21.2181 13C20.5213 14.3578 20.1331 15.8966 20.1331 17.5259C20.1331 19.2055 20.5014 20.7744 21.2281 22.1523C22.5918 24.7069 24.3835 27 26.4938 28.931C27.529 29.8764 28.6539 30.7414 29.8384 31.5057C31.0229 30.7414 32.1478 29.8865 33.183 28.931C35.3032 27 37.085 24.7069 38.4487 22.1523C39.1754 20.7744 39.5437 19.2055 39.5437 17.5259C39.5437 15.8966 39.1455 14.3578 38.4487 13C39.4143 13.3118 40.3002 13.8046 41.0766 14.4282C42.9878 15.9569 44.2221 18.3204 44.2221 20.9957C44.2221 21.3477 44.2619 22.5244 43.6647 24.023C43.2068 25.1595 42.5498 26.1853 41.6938 27.0201C40.9074 27.8348 39.8921 28.6494 38.5483 29.3836C32.3369 32.8233 31.6799 38.1236 31.6799 39.5417C31.6799 42.8707 33.5413 44.9023 33.5413 44.9023L31.869 43.3635H30.4954H29.8384H27.7978L26.1255 44.9023C26.1255 44.9023 27.9869 42.8807 27.9869 39.5417C27.9869 38.1236 27.33 32.8233 21.1186 29.3836C19.7847 28.6394 18.7595 27.8348 17.9731 27.0201C17.117 26.1853 16.4601 25.1595 16.0022 24.023C15.4049 22.5244 15.4547 21.3477 15.4547 20.9957Z" fill="url(#paint8_radial_3972)"/>
<path d="M37.0452 29.6653C37.961 28.8908 38.2994 28.6495 38.6876 28.3377C38.8967 28.1667 39.1256 27.9756 39.4541 27.6739C40.768 26.4871 41.1264 26.1653 41.863 25.0187C41.9526 24.8779 42.0322 24.7472 42.1118 24.6164C42.2611 24.3247 42.4105 24.023 42.5299 23.7112C43.0177 22.4943 43.0873 21.4885 43.0873 20.9555C43.0873 20.9052 43.0873 20.865 43.0873 20.8147C43.0873 20.7543 43.0873 20.694 43.0873 20.6538C43.0873 17.9483 41.863 15.5747 39.9518 14.0158V14.0359C39.5437 13.7242 39.0858 13.4426 38.5084 13.0201C39.4541 13.3319 40.3201 13.8147 41.0866 14.4282C42.9878 15.9569 44.2221 18.3204 44.2221 20.9957C44.2221 21.3477 44.2619 22.5245 43.6647 24.023C43.2068 25.1595 42.5498 26.1854 41.6938 27.0201C40.9074 27.8348 39.8921 28.6495 38.5483 29.3836C35.3132 31.1739 33.5911 33.467 32.6753 35.4584C33.183 33.8995 35.2037 31.2242 37.0452 29.6653Z" fill="url(#paint9_linear_3972)"/>
<path d="M22.6221 29.6653C21.7064 28.8908 21.3679 28.6495 20.9797 28.3377C20.7707 28.1667 20.5417 27.9756 20.2133 27.6739C18.8993 26.4871 18.541 26.1653 17.8044 25.0187C17.7148 24.8779 17.6351 24.7472 17.5555 24.6164C17.4062 24.3247 17.2569 24.023 17.1374 23.7112C16.6497 22.4943 16.58 21.4885 16.58 20.9555C16.58 20.9052 16.58 20.865 16.58 20.8147C16.58 20.7543 16.58 20.694 16.58 20.6538C16.58 17.9483 17.8044 15.5747 19.7155 14.0158V14.0359C20.1237 13.7242 20.5816 13.4426 21.1589 13.0201C20.2133 13.3319 19.3472 13.8147 18.5808 14.4282C16.6795 15.9569 15.4552 18.3204 15.4552 20.9957C15.4552 21.3477 15.4154 22.5245 16.0126 24.023C16.4705 25.1595 17.1275 26.1854 17.9835 27.0201C18.7699 27.8348 19.7852 28.6495 21.129 29.3836C24.3641 31.1739 26.0862 33.467 27.002 35.4584C26.4843 33.8995 24.4637 31.2242 22.6221 29.6653Z" fill="url(#paint10_linear_3972)"/>
<path d="M12.0604 43.4842C11.3038 42.388 8.71577 37.4397 13.444 32.3003C15.0964 30.5 15.2656 28.7299 14.7579 27.2012C15.5144 28.6193 15.3552 30.6811 13.7426 32.4914C9.10398 37.7012 11.7816 42.1969 12.5282 43.263" fill="#D53038"/>
<path d="M47.1388 43.2428C47.8853 42.1767 50.563 37.6911 45.9244 32.4713C44.3118 30.6609 44.1525 28.5991 44.909 27.181C44.4113 28.7198 44.5706 30.4799 46.223 32.2802C50.9611 37.4397 48.3631 42.3879 47.6166 43.4842" fill="#D53038"/>
</g>
<defs>
<linearGradient id="paint0_linear_3972" x1="30" y1="2.92083e-06" x2="-18.1627" y2="29.0733" gradientUnits="userSpaceOnUse">
<stop stop-color="#000316"/>
<stop offset="1" stop-color="#050C25"/>
</linearGradient>
<linearGradient id="paint1_linear_3972" x1="35.6025" y1="47.8708" x2="48.3171" y2="21.7349" gradientUnits="userSpaceOnUse">
<stop stop-color="#FF9E4B"/>
<stop offset="0.0738649" stop-color="#F78747"/>
<stop offset="0.2274" stop-color="#E34E3D"/>
<stop offset="0.3577" stop-color="#D11833"/>
<stop offset="0.4677" stop-color="#980F1F"/>
<stop offset="0.6323" stop-color="#3D0000"/>
</linearGradient>
<radialGradient id="paint2_radial_3972" cx="0" cy="0" r="1" gradientUnits="userSpaceOnUse" gradientTransform="translate(29.8346 49.1621) rotate(180) scale(6.93764 7.00967)">
<stop stop-color="#FF9E4B"/>
<stop offset="0.126" stop-color="#F17444"/>
<stop offset="0.3419" stop-color="#DA3238"/>
<stop offset="0.4435" stop-color="#D11833"/>
<stop offset="0.52" stop-color="#BB142B"/>
<stop offset="0.6799" stop-color="#810B18"/>
<stop offset="0.8519" stop-color="#3D0000"/>
</radialGradient>
<linearGradient id="paint3_linear_3972" x1="24.0657" y1="47.8708" x2="11.3511" y2="21.7349" gradientUnits="userSpaceOnUse">
<stop stop-color="#FF9E4B"/>
<stop offset="0.0738649" stop-color="#F78747"/>
<stop offset="0.2274" stop-color="#E34E3D"/>
<stop offset="0.3577" stop-color="#D11833"/>
<stop offset="0.4677" stop-color="#980F1F"/>
<stop offset="0.6323" stop-color="#3D0000"/>
</linearGradient>
<linearGradient id="paint4_linear_3972" x1="25.3067" y1="34.1647" x2="15.5438" y2="30.6595" gradientUnits="userSpaceOnUse">
<stop stop-color="#D11833"/>
<stop offset="0.1484" stop-color="#CD1732"/>
<stop offset="0.2887" stop-color="#C2162E"/>
<stop offset="0.4258" stop-color="#AF1227"/>
<stop offset="0.5609" stop-color="#940E1E"/>
<stop offset="0.6946" stop-color="#710812"/>
<stop offset="0.8255" stop-color="#480204"/>
<stop offset="0.8551" stop-color="#3D0000"/>
</linearGradient>
<linearGradient id="paint5_linear_3972" x1="22.5736" y1="34.7574" x2="24.6739" y2="31.5531" gradientUnits="userSpaceOnUse">
<stop stop-color="#D11833" stop-opacity="0"/>
<stop offset="0.1329" stop-color="#C7162F" stop-opacity="0.1329"/>
<stop offset="0.3569" stop-color="#AD1226" stop-opacity="0.3569"/>
<stop offset="0.6445" stop-color="#820B16" stop-opacity="0.6445"/>
<stop offset="0.9816" stop-color="#470101" stop-opacity="0.9816"/>
<stop offset="1" stop-color="#440000"/>
</linearGradient>
<linearGradient id="paint6_linear_3972" x1="34.3611" y1="34.1642" x2="44.124" y2="30.659" gradientUnits="userSpaceOnUse">
<stop stop-color="#D11833"/>
<stop offset="0.1484" stop-color="#CD1732"/>
<stop offset="0.2887" stop-color="#C2162E"/>
<stop offset="0.4258" stop-color="#AF1227"/>
<stop offset="0.5609" stop-color="#940E1E"/>
<stop offset="0.6946" stop-color="#710812"/>
<stop offset="0.8255" stop-color="#480204"/>
<stop offset="0.8551" stop-color="#3D0000"/>
</linearGradient>
<linearGradient id="paint7_linear_3972" x1="37.0942" y1="34.757" x2="34.9939" y2="31.5526" gradientUnits="userSpaceOnUse">
<stop stop-color="#D11833" stop-opacity="0"/>
<stop offset="0.1329" stop-color="#C7162F" stop-opacity="0.1329"/>
<stop offset="0.3569" stop-color="#AD1226" stop-opacity="0.3569"/>
<stop offset="0.6445" stop-color="#820B16" stop-opacity="0.6445"/>
<stop offset="0.9816" stop-color="#470101" stop-opacity="0.9816"/>
<stop offset="1" stop-color="#440000"/>
</linearGradient>
<radialGradient id="paint8_radial_3972" cx="0" cy="0" r="1" gradientUnits="userSpaceOnUse" gradientTransform="translate(29.8337 43.2076) rotate(180) scale(22.4933 40.6151)">
<stop stop-color="#FF9E4B"/>
<stop offset="0.415" stop-color="#DE3F3A"/>
<stop offset="0.6079" stop-color="#D11833"/>
<stop offset="0.6698" stop-color="#D21C34"/>
<stop offset="0.7331" stop-color="#D72836"/>
<stop offset="0.7971" stop-color="#DE3D3A"/>
<stop offset="0.8615" stop-color="#E85A3F"/>
<stop offset="0.9257" stop-color="#F47E45"/>
<stop offset="0.9728" stop-color="#FF9E4B"/>
</radialGradient>
<linearGradient id="paint9_linear_3972" x1="28.3815" y1="38.5009" x2="46.0041" y2="11.5467" gradientUnits="userSpaceOnUse">
<stop offset="0.1851" stop-color="#EC6841"/>
<stop offset="0.1963" stop-color="#E7633F"/>
<stop offset="0.2956" stop-color="#BF3E30"/>
<stop offset="0.3865" stop-color="#A32324"/>
<stop offset="0.4653" stop-color="#91131D"/>
<stop offset="0.523" stop-color="#8B0D1B"/>
<stop offset="0.5779" stop-color="#981420"/>
<stop offset="0.6783" stop-color="#B9272C"/>
<stop offset="0.7709" stop-color="#DD3C39"/>
<stop offset="0.8334" stop-color="#E95D3F"/>
</linearGradient>
<linearGradient id="paint10_linear_3972" x1="31.2869" y1="38.5009" x2="13.6643" y2="11.5467" gradientUnits="userSpaceOnUse">
<stop offset="0.1851" stop-color="#EC6841"/>
<stop offset="0.1963" stop-color="#E7633F"/>
<stop offset="0.2956" stop-color="#BF3E30"/>
<stop offset="0.3865" stop-color="#A32324"/>
<stop offset="0.4653" stop-color="#91131D"/>
<stop offset="0.523" stop-color="#8B0D1B"/>
<stop offset="0.5779" stop-color="#981420"/>
<stop offset="0.6783" stop-color="#B9272C"/>
<stop offset="0.7709" stop-color="#DD3C39"/>
<stop offset="0.8334" stop-color="#E95D3F"/>
</linearGradient>
<clipPath id="clip0_3972">
<rect width="38.3333" height="35" fill="white" transform="matrix(-1 0 0 1 49 13)"/>
</clipPath>
</defs>
</svg>
