
<svg width="374" height="451" viewBox="0 0 374 451" xmlns="http://www.w3.org/2000/svg" xmlns:xlink="http://www.w3.org/1999/xlink" type="image/svg+xml">
    <g style="mix-blend-mode:lighten" opacity="0.5">
    <defs>
    <linearGradient id="paint0_linear_3971" x1="4.94547" y1="8.68385" x2="348.065" y2="488.926" gradientUnits="userSpaceOnUse">
    <stop offset="0.515625" stop-color="#B12E2A"/>
    <stop offset="1" stop-color="#F47C45"/>
    </linearGradient>
    <linearGradient id="paint1_linear_3971" x1="367.453" y1="554.025" x2="611.798" y2="22.0224" gradientUnits="userSpaceOnUse">
    <stop stop-color="#FF9E4B"/>
    <stop offset="0.0738649" stop-color="#F78747"/>
    <stop offset="0.2274" stop-color="#E34E3D"/>
    <stop offset="0.3577" stop-color="#D11833"/>
    <stop offset="0.4677" stop-color="#980F1F"/>
    <stop offset="0.6323" stop-color="#3D0000"/>
    </linearGradient>
    <linearGradient id="paint2_linear_3971" x1="123.888" y1="554.025" x2="-120.457" y2="22.0225" gradientUnits="userSpaceOnUse">
    <stop stop-color="#FF9E4B"/>
    <stop offset="0.0738649" stop-color="#F78747"/>
    <stop offset="0.2274" stop-color="#E34E3D"/>
    <stop offset="0.3577" stop-color="#D11833"/>
    <stop offset="0.4677" stop-color="#980F1F"/>
    <stop offset="0.6323" stop-color="#3D0000"/>
    </linearGradient>
    <linearGradient id="paint3_linear_3971" x1="150.096" y1="280.833" x2="-53.189" y2="203.528" gradientUnits="userSpaceOnUse">
    <stop stop-color="#D11833"/>
    <stop offset="0.1484" stop-color="#CD1732"/>
    <stop offset="0.2887" stop-color="#C2162E"/>
    <stop offset="0.4258" stop-color="#AF1227"/>
    <stop offset="0.5609" stop-color="#940E1E"/>
    <stop offset="0.6946" stop-color="#710812"/>
    <stop offset="0.8255" stop-color="#480204"/>
    <stop offset="0.8551" stop-color="#3D0000"/>
    </linearGradient>
    <linearGradient id="paint4_linear_3971" x1="92.3933" y1="292.648" x2="133.252" y2="226.623" gradientUnits="userSpaceOnUse">
    <stop stop-color="#D11833" stop-opacity="0"/>
    <stop offset="0.1329" stop-color="#C7162F" stop-opacity="0.1329"/>
    <stop offset="0.3569" stop-color="#AD1226" stop-opacity="0.3569"/>
    <stop offset="0.6445" stop-color="#820B16" stop-opacity="0.6445"/>
    <stop offset="0.9816" stop-color="#470101" stop-opacity="0.9816"/>
    <stop offset="1" stop-color="#440000"/>
    </linearGradient>
    <linearGradient id="paint5_linear_3971" x1="341.236" y1="280.824" x2="544.52" y2="203.519" gradientUnits="userSpaceOnUse">
    <stop stop-color="#D11833"/>
    <stop offset="0.1484" stop-color="#CD1732"/>
    <stop offset="0.2887" stop-color="#C2162E"/>
    <stop offset="0.4258" stop-color="#AF1227"/>
    <stop offset="0.5609" stop-color="#940E1E"/>
    <stop offset="0.6946" stop-color="#710812"/>
    <stop offset="0.8255" stop-color="#480204"/>
    <stop offset="0.8551" stop-color="#3D0000"/>
    </linearGradient>
    <linearGradient id="paint6_linear_3971" x1="398.938" y1="292.639" x2="358.08" y2="226.614" gradientUnits="userSpaceOnUse">
    <stop stop-color="#D11833" stop-opacity="0"/>
    <stop offset="0.1329" stop-color="#C7162F" stop-opacity="0.1329"/>
    <stop offset="0.3569" stop-color="#AD1226" stop-opacity="0.3569"/>
    <stop offset="0.6445" stop-color="#820B16" stop-opacity="0.6445"/>
    <stop offset="0.9816" stop-color="#470101" stop-opacity="0.9816"/>
    <stop offset="1" stop-color="#440000"/>
    </linearGradient>
    <radialGradient id="paint7_radial_3971" cx="0" cy="0" r="1" gradientUnits="userSpaceOnUse" gradientTransform="translate(245.67 461.079) rotate(180) scale(474.876 809.542)">
    <stop stop-color="#FF9E4B"/>
    <stop offset="0.415" stop-color="#DE3F3A"/>
    <stop offset="0.6079" stop-color="#D11833"/>
    <stop offset="0.6698" stop-color="#D21C34"/>
    <stop offset="0.7331" stop-color="#D72836"/>
    <stop offset="0.7971" stop-color="#DE3D3A"/>
    <stop offset="0.8615" stop-color="#E85A3F"/>
    <stop offset="0.9257" stop-color="#F47E45"/>
    <stop offset="0.9728" stop-color="#FF9E4B"/>
    </radialGradient>
    <linearGradient id="paint8_linear_3971" x1="215.01" y1="367.265" x2="557.786" y2="-188.056" gradientUnits="userSpaceOnUse">
    <stop offset="0.1851" stop-color="#EC6841"/>
    <stop offset="0.1963" stop-color="#E7633F"/>
    <stop offset="0.2956" stop-color="#BF3E30"/>
    <stop offset="0.3865" stop-color="#A32324"/>
    <stop offset="0.4653" stop-color="#91131D"/>
    <stop offset="0.523" stop-color="#8B0D1B"/>
    <stop offset="0.5779" stop-color="#981420"/>
    <stop offset="0.6783" stop-color="#B9272C"/>
    <stop offset="0.7709" stop-color="#DD3C39"/>
    <stop offset="0.8334" stop-color="#E95D3F"/>
    </linearGradient>
    <linearGradient id="paint9_linear_3971" x1="276.339" y1="367.265" x2="-66.4373" y2="-188.055" gradientUnits="userSpaceOnUse">
    <stop offset="0.1851" stop-color="#EC6841"/>
    <stop offset="0.1963" stop-color="#E7633F"/>
    <stop offset="0.2956" stop-color="#BF3E30"/>
    <stop offset="0.3865" stop-color="#A32324"/>
    <stop offset="0.4653" stop-color="#91131D"/>
    <stop offset="0.523" stop-color="#8B0D1B"/>
    <stop offset="0.5779" stop-color="#981420"/>
    <stop offset="0.6783" stop-color="#B9272C"/>
    <stop offset="0.7709" stop-color="#DD3C39"/>
    <stop offset="0.8334" stop-color="#E95D3F"/>
    </linearGradient>
    </defs>
    <mask id="mask0_3971" style="mask-type:alpha" maskUnits="userSpaceOnUse" x="0" y="0" width="374" height="451">
    <rect width="374" height="451" rx="32" fill="url(#paint0_linear_3971)"/>
    </mask>
    <g mask="url(#mask0_3971)">
    <path d="M439.107 346.112C382.787 346.112 337.185 389.613 337.185 443.338C337.185 497.063 381.526 531.343 439.107 539.361C446.042 540.364 452.977 540.564 460.122 540.564C505.305 540.564 545.654 525.529 576.546 498.466C588.524 487.842 601.764 474.611 611.221 461.781C626.982 440.532 683.512 351.124 585.582 247.082C551.538 210.998 548.176 169.902 564.147 141.637C553.639 172.308 557.002 207.39 591.887 243.273C691.708 346.112 636.859 444.741 621.098 466.592C609.539 482.429 597.561 496.462 582.64 509.492C550.277 537.958 507.617 556.601 460.122 556.601C405.273 556.601 356.308 532.545 324.155 494.858C311.126 479.622 270.567 449.552 270.777 396.83V388.21L316.169 237.86L489.754 141.837C499 169.702 504.254 197.366 505.935 227.637C491.435 271.94 464.326 311.632 439.107 346.112ZM413.889 283.968C433.644 265.926 444.361 222.425 444.361 222.425C352.525 228.439 306.082 298.602 294.734 333.082C306.292 308.424 394.135 302.01 413.889 283.968Z" fill="url(#paint1_linear_3971)"/>
    <path d="M51.8001 345.51C26.582 311.231 -0.10704 271.739 -14.3973 227.436C-12.7161 197.166 -7.46234 169.501 1.78427 141.637L175.368 237.86L220.761 388.21V396.83C220.971 449.753 180.412 479.823 167.383 494.858C135.23 532.545 86.2647 556.601 31.4155 556.601C-16.0785 556.601 -58.739 537.958 -91.1021 509.492C-106.023 496.461 -118.001 482.429 -129.56 466.592C-145.531 444.741 -200.17 346.112 -100.349 243.674C-65.4638 207.79 -61.8912 172.508 -72.6089 142.038C-56.6375 170.303 -59.9999 211.399 -94.0443 247.483C-191.974 351.324 -135.444 440.932 -119.683 462.182C-110.226 475.012 -96.9863 488.242 -85.0078 498.867C-54.3258 525.93 -13.7668 540.965 31.4155 540.965C38.5606 540.965 45.4955 540.764 52.4305 539.762C110.012 531.543 154.353 497.263 154.353 443.739C154.353 390.014 108.751 346.513 52.4305 346.513L51.8001 345.51ZM196.594 333.282C185.246 298.802 138.802 228.639 46.9666 222.625C46.9666 222.625 57.6842 266.126 77.4384 284.168C97.1925 302.21 185.035 308.424 196.594 333.282Z" fill="url(#paint2_linear_3971)"/>
    <path d="M1.77536 141.846C-7.47127 169.711 -12.725 197.375 -14.4062 227.645C0.0941925 223.836 15.4351 221.832 31.1964 221.832C127.655 221.832 206.042 296.205 206.672 388.219H220.542L175.149 237.869L1.77536 141.846Z" fill="url(#paint3_linear_3971)"/>
    <path d="M1.77536 141.846C-7.47127 169.711 -12.725 197.375 -14.4062 227.645C0.0941925 223.836 15.4351 221.832 31.1964 221.832C127.655 221.832 206.042 296.205 206.672 388.219H220.542L175.149 237.869L1.77536 141.846Z" fill="url(#paint4_linear_3971)"/>
    <path d="M489.543 141.837C498.79 169.702 504.043 197.366 505.725 227.637C491.224 223.828 475.883 221.823 460.122 221.823C363.663 221.823 285.277 296.196 284.646 388.21H270.776L316.169 237.861L489.543 141.837Z" fill="url(#paint5_linear_3971)"/>
    <path d="M489.543 141.837C498.79 169.702 504.043 197.366 505.725 227.637C491.224 223.828 475.883 221.823 460.122 221.823C363.663 221.823 285.277 296.196 284.646 388.21H270.776L316.169 237.861L489.543 141.837Z" fill="url(#paint6_linear_3971)"/>
    <path d="M-57.8993 18.35C-57.8993 -34.9739 -32.0508 -81.883 8.2981 -112.554C24.6898 -124.983 43.3932 -134.806 63.7778 -141.02C49.0673 -113.958 40.8714 -83.2862 40.8714 -50.8108C40.8714 -17.3329 48.647 13.9398 63.988 41.4036C92.7786 92.322 130.606 138.028 175.158 176.518C197.013 195.361 220.76 212.602 245.768 227.837C270.776 212.602 294.523 195.562 316.379 176.518C361.141 138.028 398.758 92.322 427.548 41.4036C442.889 13.9398 450.665 -17.3329 450.665 -50.8108C450.665 -83.2862 442.259 -113.958 427.548 -141.02C447.933 -134.806 466.636 -124.983 483.028 -112.554C523.377 -82.0834 549.436 -34.9739 549.436 18.35C549.436 25.3663 550.276 48.8208 537.667 78.6903C528 101.343 514.13 121.79 496.057 138.429C479.456 154.667 458.02 170.905 429.65 185.539C298.516 254.098 284.646 359.744 284.646 388.009C284.646 454.364 323.944 494.858 323.944 494.858L288.639 464.186H259.638H245.768H202.687L167.382 494.858C167.382 494.858 206.68 454.564 206.68 388.009C206.68 359.744 192.81 254.098 61.6763 185.539C33.5161 170.704 11.8707 154.667 -4.73126 138.429C-22.8042 121.79 -36.6741 101.343 -46.341 78.6903C-58.9501 48.8208 -57.8993 25.3663 -57.8993 18.35Z" fill="url(#paint7_radial_3971)"/>
    <path d="M397.917 191.152C417.251 175.716 424.396 170.905 432.592 164.69C437.005 161.283 441.839 157.474 448.774 151.46C476.513 127.805 484.079 121.39 499.63 98.5366C501.521 95.7301 503.203 93.1241 504.884 90.518C508.036 84.7045 511.188 78.6905 513.71 72.4761C524.007 48.2197 525.478 28.1731 525.478 17.5484C525.478 16.5461 525.478 15.7442 525.478 14.7419C525.478 13.5391 525.478 12.3363 525.478 11.5344C525.478 -42.3909 499.63 -89.7009 459.281 -120.773V-120.372C450.665 -126.587 440.998 -132.2 428.809 -140.619C448.774 -134.405 467.057 -124.782 483.238 -112.554C523.377 -82.0832 549.436 -34.9737 549.436 18.3503C549.436 25.3666 550.276 48.8211 537.667 78.6905C528 101.343 514.13 121.791 496.057 138.429C479.456 154.667 458.02 170.905 429.65 185.539C361.351 221.222 324.995 266.928 305.661 306.62C316.379 275.548 359.039 222.224 397.917 191.152Z" fill="url(#paint8_linear_3971)"/>
    <path d="M93.4089 191.152C74.0751 175.716 66.93 170.905 58.7341 164.69C54.321 161.283 49.4875 157.474 42.5525 151.46C14.8127 127.805 7.24734 121.39 -8.30377 98.5366C-10.1951 95.7301 -11.8763 93.1241 -13.5575 90.518C-16.7098 84.7045 -19.862 78.6905 -22.3839 72.4761C-32.6812 48.2197 -34.1523 28.1731 -34.1523 17.5484C-34.1523 16.5461 -34.1523 15.7442 -34.1523 14.7419C-34.1523 13.5391 -34.1523 12.3363 -34.1523 11.5344C-34.1523 -42.3909 -8.3038 -89.7009 32.045 -120.773V-120.372C40.6612 -126.587 50.3281 -132.2 62.5168 -140.619C42.5525 -134.405 24.2695 -124.782 8.08792 -112.554C-32.0508 -82.0832 -57.8992 -34.9737 -57.8992 18.3503C-57.8992 25.3666 -58.7398 48.8211 -46.1308 78.6905C-36.4639 101.343 -22.594 121.791 -4.52109 138.429C12.0808 154.667 33.5161 170.905 61.8864 185.539C130.185 221.222 166.541 266.928 185.875 306.62C174.947 275.548 132.287 222.224 93.4089 191.152Z" fill="url(#paint9_linear_3971)"/>
    </g>
    </g>
    </svg>