<svg width="16" height="16" viewBox="0 0 16 16" fill="none" xmlns="http://www.w3.org/2000/svg">
<g clip-path="url(#clip0)">
<path d="M15.9994 7.96472C16.0064 9.54694 15.5441 11.0957 14.6708 12.4152C13.7976 13.7346 12.5527 14.7655 11.0936 15.3774C9.63447 15.9894 8.02666 16.1549 6.47347 15.8531C4.92028 15.5513 3.49147 14.7957 2.36772 13.6818C1.24397 12.5679 0.475753 11.1459 0.160212 9.59541C-0.155329 8.04495 -0.00402014 6.43574 0.595004 4.97127C1.19403 3.5068 2.21386 2.25285 3.52555 1.36799C4.83723 0.483123 6.38185 0.00708787 7.96408 7.85073e-05C9.01465 -0.00457562 10.0559 0.197745 11.0282 0.595489C12.0006 0.993232 12.8852 1.57861 13.6313 2.3182C14.3775 3.05778 14.9706 3.9371 15.377 4.90593C15.7833 5.87476 15.9948 6.91414 15.9994 7.96472Z" fill="#8DC63F"/>
<path d="M15.3994 7.96786C15.4066 9.43131 14.9797 10.864 14.1726 12.0848C13.3654 13.3056 12.2144 14.2596 10.8651 14.8262C9.51573 15.3928 8.02867 15.5464 6.59197 15.2678C5.15527 14.9892 3.83347 14.2907 2.79375 13.2608C1.75402 12.2309 1.04308 10.9158 0.750833 9.4818C0.458589 8.04781 0.59817 6.55936 1.15192 5.2047C1.70568 3.85004 2.64873 2.69003 3.86181 1.87138C5.07488 1.05273 6.50349 0.612209 7.96695 0.60554C9.92866 0.596909 11.8135 1.36757 13.2072 2.74813C14.6009 4.12869 15.3894 6.00616 15.3994 7.96786Z" fill="#F9E988"/>
<path d="M8.13559 1.08214C8.60592 0.998661 9.08728 0.998661 9.55762 1.08214C10.0325 1.15743 10.4915 1.31122 10.9159 1.53722C11.3379 1.7691 11.7025 2.08388 12.0654 2.37895C12.4283 2.67403 12.7895 2.97606 13.1333 3.30649C13.4842 3.63175 13.7905 4.00213 14.044 4.40794C14.305 4.81057 14.5189 5.24179 14.6817 5.69316C14.9907 6.60098 15.0979 7.57896 14.9437 8.51171H14.8979C14.7431 7.58707 14.5333 6.70591 14.2023 5.86765C14.0469 5.44629 13.8641 5.03556 13.655 4.63809C13.437 4.2384 13.1966 3.85131 12.935 3.47866C12.6691 3.1033 12.3432 2.77426 11.9704 2.50475C11.5947 2.23693 11.1628 2.06359 10.7449 1.89895C10.3269 1.73432 9.9124 1.56562 9.47646 1.4404C9.04052 1.31519 8.59762 1.22127 8.13501 1.13026L8.13559 1.08214Z" fill="white"/>
<path d="M11.7524 5.35584C11.2156 5.20048 10.6591 4.98019 10.0956 4.75758C10.0632 4.61613 9.93794 4.4399 9.68461 4.22483C9.31649 3.90541 8.6249 3.91352 8.02722 4.05497C7.3675 3.89961 6.71591 3.84454 6.0904 3.997C0.974462 5.40627 3.87533 8.84453 1.99707 12.3008C2.26432 12.8677 5.1449 16.1755 9.31301 15.288C9.31301 15.288 7.88751 11.8625 11.1043 10.2184C13.7136 8.87989 15.5988 6.40337 11.7524 5.35584Z" fill="#8BC53F"/>
<path d="M12.3843 7.60578C12.3847 7.66712 12.3668 7.72718 12.333 7.77838C12.2992 7.82957 12.251 7.86959 12.1945 7.89339C12.1379 7.91718 12.0756 7.92367 12.0154 7.91204C11.9552 7.90041 11.8997 7.87118 11.8561 7.82805C11.8125 7.78492 11.7826 7.72982 11.7703 7.66973C11.758 7.60963 11.7638 7.54724 11.787 7.49043C11.8101 7.43363 11.8496 7.38497 11.9004 7.3506C11.9512 7.31624 12.0111 7.29771 12.0724 7.29737C12.1546 7.29706 12.2336 7.32934 12.2921 7.38715C12.3505 7.44495 12.3837 7.52357 12.3843 7.60578Z" fill="white"/>
<path d="M8.02722 4.05284C8.39998 4.07951 9.7478 4.51661 10.0956 4.75545C9.80577 3.91487 8.83012 3.80298 8.02722 4.05284Z" fill="#009345"/>
<path d="M8.38208 6.17868C8.3822 6.46165 8.2984 6.7383 8.14129 6.97365C7.98417 7.20899 7.7608 7.39246 7.49941 7.50086C7.23802 7.60925 6.95036 7.6377 6.67281 7.58261C6.39525 7.52752 6.14026 7.39136 5.94009 7.19135C5.73992 6.99134 5.60355 6.73646 5.54823 6.45895C5.49292 6.18144 5.52113 5.89376 5.62932 5.63228C5.7375 5.37081 5.92079 5.14728 6.15601 4.98998C6.39122 4.83267 6.66781 4.74865 6.95078 4.74854C7.33003 4.74854 7.69376 4.89911 7.96204 5.16717C8.23032 5.43524 8.3812 5.79885 8.3815 6.1781L8.38208 6.17868Z" fill="white"/>
<path d="M7.9577 6.19143C7.9577 6.39048 7.89868 6.58505 7.7881 6.75055C7.67752 6.91604 7.52034 7.04503 7.33645 7.1212C7.15256 7.19737 6.95021 7.2173 6.75499 7.17847C6.55977 7.13964 6.38045 7.04379 6.23971 6.90305C6.09896 6.7623 6.00312 6.58299 5.96428 6.38777C5.92545 6.19255 5.94538 5.9902 6.02155 5.80631C6.09772 5.62242 6.22671 5.46524 6.39221 5.35466C6.55771 5.24408 6.75228 5.18506 6.95132 5.18506C7.21823 5.18506 7.47421 5.29109 7.66294 5.47982C7.85167 5.66855 7.9577 5.92453 7.9577 6.19143Z" fill="#58595B"/>
<path d="M13.5432 8.23641C12.3838 9.05322 11.0655 9.67293 9.19538 9.67293C8.32002 9.67293 8.14263 8.74539 7.56408 9.19873C7.26553 9.43409 6.21277 9.96047 5.37741 9.92047C4.54204 9.88047 3.18784 9.39119 2.81045 7.60742C2.66088 9.39119 2.58436 10.7042 1.91248 12.2097C3.24581 14.3448 6.42494 15.9918 9.31075 15.2822C9.00292 13.117 10.898 10.9964 11.9612 9.91293C12.367 9.50191 13.138 8.83119 13.5432 8.23699V8.23641Z" fill="#8BC53F"/>
<path d="M13.498 8.28994C13.138 8.61806 12.7096 8.86096 12.2736 9.07545C11.8323 9.28475 11.3723 9.45225 10.8997 9.57574C10.4267 9.69806 9.93332 9.79023 9.43361 9.74501C8.9339 9.6998 8.42318 9.52994 8.09216 9.15545L8.10781 9.13748C8.51361 9.40067 8.98202 9.49342 9.4481 9.50675C9.92054 9.52127 10.3931 9.48238 10.8568 9.39081C11.3252 9.29263 11.7834 9.15095 12.2255 8.96762C12.6678 8.78502 13.1055 8.57342 13.4823 8.27197L13.498 8.28994Z" fill="#58595B"/>
</g>
<defs>
<clipPath id="clip0">
<rect width="16" height="16" fill="white" transform="translate(-0.000488281)"/>
</clipPath>
</defs>
</svg>
