<svg xmlns="http://www.w3.org/2000/svg" fill="none" viewBox="0 0 16 16">
  <g clip-path="url(#clip0)">
    <path fill="url(#paint0_linear)" d="M15.145 7.033c-.637-2.188-1.355-3.318-1.367-3.339-.04-.05-1.056-1.264-3.502-2.163l-.323.88c1.164.428 1.99.95 2.443 1.286A16.094 16.094 0 008 3.044c-1.428 0-3.04.248-4.396.653.454-.337 1.28-.858 2.443-1.286l-.323-.88c-2.446.899-3.461 2.113-3.502 2.163-.012.02-.73 1.151-1.367 3.34C.242 9.141.008 12.116 0 12.235c.055.085 1.313 2.233 4.74 2.233l.87-1.258a9.24 9.24 0 01-2.752-1.241l.52-.78A8.315 8.315 0 008 12.583a8.315 8.315 0 004.623-1.395l.52.78a9.24 9.24 0 01-2.752 1.242l.869 1.258c3.428 0 4.685-2.148 4.74-2.233-.008-.12-.242-3.094-.855-5.203zM5.833 9.486h-.938V7.923h.938v1.563zm5.272 0h-.938V7.923h.938v1.563z"/>
  </g>
  <defs>
    <linearGradient id="paint0_linear" x1="8" x2="8" y1="1.531" y2="14.469" gradientUnits="userSpaceOnUse">
      <stop stop-color="#DF3F3A"/>
      <stop offset="1" stop-color="#F47C45"/>
    </linearGradient>
    <clipPath id="clip0">
      <path fill="#fff" d="M0 0h16v16H0z"/>
    </clipPath>
  </defs>
</svg>
