<svg xmlns="http://www.w3.org/2000/svg" fill="none" viewBox="0 0 16 16">
  <g clip-path="url(#clip0)">
    <path fill="url(#paint0_linear)" d="M14.356 4.742A6.547 6.547 0 0016 3.039a6.85 6.85 0 01-1.89.518 3.263 3.263 0 001.443-1.813 6.563 6.563 0 01-2.08.794A3.28 3.28 0 007.8 4.781c0 .26.022.51.076.748a9.287 9.287 0 01-6.761-3.432 3.308 3.308 0 00-.45 1.658c0 1.136.585 2.143 1.458 2.726A3.242 3.242 0 01.64 6.077v.036a3.296 3.296 0 002.628 3.224 3.262 3.262 0 01-.86.108c-.21 0-.422-.012-.62-.056a3.312 3.312 0 003.064 2.285 6.593 6.593 0 01-4.067 1.399c-.269 0-.527-.012-.785-.045A9.237 9.237 0 005.032 14.5c5.789 0 9.561-4.83 9.324-9.758z"/>
  </g>
  <defs>
    <linearGradient id="paint0_linear" x1="8" x2="8" y1="1.5" y2="14.5" gradientUnits="userSpaceOnUse">
      <stop stop-color="#DF3F3A"/>
      <stop offset="1" stop-color="#F47C45"/>
    </linearGradient>
    <clipPath id="clip0">
      <path fill="#fff" d="M0 0h16v16H0z"/>
    </clipPath>
  </defs>
</svg>
