<svg width="36" height="36" viewBox="0 0 36 36" fill="none" xmlns="http://www.w3.org/2000/svg">
  <path d="M36 17.9999C36 27.9411 27.9412 36 18.0001 36C8.05887 36 0 27.9411 0 17.9999C0 8.05882 8.05887 0 18.0001 0C27.9411 0 36 8.05882 36 17.9999Z" fill="url(#paint0_linear)"/>
  <path d="M36 17.9999C36 27.9411 27.9412 36 18.0001 36C8.05887 36 0 27.9411 0 17.9999C0 8.05882 8.05887 0 18.0001 0C27.9411 0 36 8.05882 36 17.9999Z" fill="url(#paint1_linear)"/>
  <path d="M17.7869 6L17.6387 6.50386V21.1246L17.7869 21.2726L24.5737 17.2609L17.7869 6Z" fill="white"/>
  <path d="M17.7868 6L11 17.2609L17.7868 21.2726V14.1762V6Z" fill="white"/>
  <path d="M17.7867 23.4803L17.7031 23.5822V28.7904L17.7867 29.0344L24.5775 19.4707L17.7867 23.4803Z" fill="white"/>
  <path d="M17.7868 29.0344V23.4803L11 19.4707L17.7868 29.0344Z" fill="white"/>
  <path d="M17.7891 21.2731L24.5757 17.2615L17.7891 14.1768V21.2731Z" fill="white"/>
  <path d="M11 17.2601L17.7867 21.2717V14.1753L11 17.2601Z" fill="white"/>
  <defs>
    <linearGradient id="paint0_linear" x1="18" y1="0" x2="18" y2="36" gradientUnits="userSpaceOnUse">
      <stop stop-color="#274492"/>
      <stop offset="1" stop-color="#2854CE"/>
    </linearGradient>
    <linearGradient id="paint1_linear" x1="18" y1="0" x2="18" y2="36" gradientUnits="userSpaceOnUse">
      <stop stop-color="#5381FF"/>
      <stop offset="1" stop-color="#1944B9"/>
    </linearGradient>
  </defs>
</svg>
