<svg width="240" height="64" viewBox="0 0 240 64" fill="none" xmlns="http://www.w3.org/2000/svg">
<g clip-path="url(#clip0_3191:13763)">
<path d="M54.5185 36.5717C54.5185 51.7198 42.3393 64 27.3143 64C12.2896 64 0.109823 51.7205 0.109823 36.5717V10.5644C0.0379579 10.1016 0 9.62652 0 9.14188C0 4.09313 4.06037 0 9.06856 0C14.0768 0 18.1371 4.09313 18.1371 9.14257L18.1365 9.17196V36.5717C18.1365 41.6211 22.3663 45.715 27.205 45.715C32.0436 45.715 35.7191 42.1563 36.2181 37.5827L36.2721 36.5722C36.2721 31.5228 40.3319 27.429 45.3409 27.429C50.349 27.429 54.4095 31.5221 54.4095 36.5722H54.5185V36.5717ZM54.4088 9.14257C54.4088 14.1927 50.349 18.2858 45.3402 18.2858C40.3319 18.2858 36.2716 14.1927 36.2716 9.14257C36.2724 4.09313 40.3319 0 45.3402 0C50.3483 0 54.4088 4.09313 54.4088 9.14257Z" fill="url(#paint0_linear_3191:13763)"/>
<path d="M107.718 23.0771H105.101C103.987 23.0771 103.599 23.3965 103.599 24.4465V41.2444C103.599 41.6099 103.502 41.8836 103.066 42.0206C101.757 42.3859 100.498 42.5687 98.6077 42.5687C95.0701 42.5687 93.3255 41.1078 93.3255 38.0493V24.4465C93.3255 23.3965 92.9861 23.0771 91.8718 23.0771H89.2063C88.0915 23.0771 87.7037 23.3965 87.7037 24.4465V38.2316C87.7037 43.9836 90.9023 47.4071 97.8321 47.4071C102.436 47.4071 105.392 46.5398 107.33 45.8092C108.881 45.2157 109.22 44.6681 109.22 43.2528V24.4465C109.22 23.3965 108.833 23.0771 107.718 23.0771Z" fill="white"/>
<path d="M126.084 22.3926C121.431 22.3926 118.475 23.2143 116.537 23.945C114.986 24.5381 114.647 25.0861 114.647 26.5465V45.3077C114.647 46.3576 115.035 46.7226 116.149 46.7226H118.815C119.929 46.7226 120.268 46.3576 120.268 45.3077V28.2811C120.268 28.0984 120.365 27.9161 120.608 27.8246C121.867 27.5048 123.37 27.2311 125.26 27.2311C128.798 27.2311 130.542 28.6914 130.542 31.7046V45.3077C130.542 46.3576 130.882 46.7226 131.996 46.7226H134.661C135.776 46.7226 136.164 46.3576 136.164 45.3077V31.5676C136.164 25.7702 132.965 22.3926 126.084 22.3926Z" fill="white"/>
<path d="M145.661 23.0771H142.996C141.882 23.0771 141.543 23.3965 141.543 24.4465V45.3072C141.543 46.3572 141.882 46.722 142.996 46.722H145.661C146.776 46.722 147.164 46.3572 147.164 45.3072V24.4465C147.164 23.3965 146.776 23.0771 145.661 23.0771Z" fill="white"/>
<path d="M144.498 14.2227H144.158C141.929 14.2227 141.203 14.8614 141.203 16.9612V17.3721C141.203 19.472 141.929 20.1567 144.158 20.1567H144.498C146.727 20.1567 147.454 19.472 147.454 17.3721V16.9612C147.454 14.8614 146.727 14.2227 144.498 14.2227Z" fill="white"/>
<path d="M177.887 22.3926C173.719 22.3926 171.053 23.2599 169.357 23.899C167.903 22.8946 165.916 22.3926 163.348 22.3926C159.084 22.3926 156.419 23.2143 154.529 23.945C153.026 24.5381 152.639 25.0861 152.639 26.5465V45.3077C152.639 46.3576 153.027 46.7226 154.141 46.7226H156.806C157.921 46.7226 158.26 46.3576 158.26 45.3077V28.3266C158.26 28.0984 158.308 27.9161 158.648 27.7791C159.859 27.4138 161.022 27.2311 162.525 27.2311C165.626 27.2311 167.274 28.7374 167.274 31.6591V45.3077C167.274 46.3576 167.661 46.7226 168.776 46.7226H171.393C172.508 46.7226 172.895 46.3576 172.895 45.3077V31.4764C172.895 30.1983 172.75 29.0117 172.362 28.0531C173.477 27.6878 175.124 27.2315 177.063 27.2315C180.213 27.2315 181.764 28.7379 181.764 31.6594V45.308C181.764 46.358 182.151 46.7228 183.266 46.7228H185.931C187.046 46.7228 187.385 46.358 187.385 45.308V31.4769C187.385 25.7247 184.478 22.3926 177.887 22.3926Z" fill="white"/>
<path d="M203.183 22.3926C195.865 22.3926 191.94 25.9077 191.94 32.2522V37.6386C191.94 43.2529 195.138 47.4072 203.086 47.4072C208.561 47.4072 211.808 45.718 213.553 43.0248C214.231 42.0203 214.086 41.2444 212.971 40.7426L211.275 39.8753C210.112 39.2818 209.579 39.4185 208.804 40.4231C207.786 41.9292 205.944 42.8426 203.086 42.8426C199.548 42.8426 197.561 41.2444 197.561 38.2777V36.589H212.196C213.892 36.589 214.377 35.813 214.377 34.6264V31.8417C214.377 26.592 210.887 22.3926 203.183 22.3926ZM208.755 32.526H197.561V31.5217C197.561 28.5544 199.548 26.8658 203.182 26.8658C206.865 26.8658 208.755 28.5544 208.755 31.5217V32.526Z" fill="white"/>
<path d="M238.948 45.0789L231.194 34.5343L238.464 24.7203C239.239 23.6247 238.998 23.0771 237.445 23.0771H235.071C233.472 23.0771 233.181 23.2138 232.454 24.2637L227.754 30.7002L222.956 24.2637C222.278 23.2594 221.841 23.0771 220.194 23.0771H218.013C216.22 23.0771 216.123 23.7614 216.85 24.7203L224.265 34.5803L216.511 45.0789C215.687 46.1745 215.833 46.7225 217.626 46.7225H219.903C221.503 46.7225 221.89 46.5857 222.617 45.5357L227.609 38.3689L232.843 45.5357C233.57 46.5402 233.909 46.7225 235.557 46.7225H237.884C239.529 46.7225 239.773 46.1745 238.948 45.0789Z" fill="white"/>
</g>
<defs>
<linearGradient id="paint0_linear_3191:13763" x1="12.3094" y1="49.0347" x2="43.5489" y2="0.739" gradientUnits="userSpaceOnUse">
<stop stop-color="#53AB85"/>
<stop offset="1" stop-color="#48E89D"/>
</linearGradient>
<clipPath id="clip0_3191:13763">
<rect width="239.407" height="64" fill="white"/>
</clipPath>
</defs>
</svg>
