<svg width="65" height="65" viewBox="0 0 65 65" fill="none" xmlns="http://www.w3.org/2000/svg">
<path d="M12.5 20.6318C13.052 20.6318 13.5 21.0798 13.5 21.6318H15.5C15.5 20.3298 14.661 19.2298 13.5 18.8158V16.6318H11.5V18.8158C10.339 19.2298 9.5 20.3298 9.5 21.6318C9.5 23.2858 10.846 24.6318 12.5 24.6318C13.052 24.6318 13.5 25.0798 13.5 25.6318C13.5 26.1838 13.052 26.6318 12.5 26.6318C11.948 26.6318 11.5 26.1838 11.5 25.6318H9.5C9.5 26.9338 10.339 28.0338 11.5 28.4478V30.6318H13.5V28.4478C14.661 28.0338 15.5 26.9338 15.5 25.6318C15.5 23.9778 14.154 22.6318 12.5 22.6318C11.948 22.6318 11.5 22.1838 11.5 21.6318C11.5 21.0798 11.948 20.6318 12.5 20.6318Z" fill="url(#paint0_linear_3800:26837)"/>
<path d="M24.7891 22.9246L38.787 8.92666L40.201 10.3407L26.2031 24.3386L24.7891 22.9246Z" fill="url(#paint1_linear_3800:26837)"/>
<path d="M36.5 17.6318C34.846 17.6318 33.5 18.9778 33.5 20.6318C33.5 22.2858 34.846 23.6318 36.5 23.6318C38.154 23.6318 39.5 22.2858 39.5 20.6318C39.5 18.9778 38.154 17.6318 36.5 17.6318ZM36.5 21.6318C35.948 21.6318 35.5 21.1838 35.5 20.6318C35.5 20.0798 35.948 19.6318 36.5 19.6318C37.052 19.6318 37.5 20.0798 37.5 20.6318C37.5 21.1838 37.052 21.6318 36.5 21.6318Z" fill="url(#paint2_linear_3800:26837)"/>
<path d="M28.5 15.6318C30.154 15.6318 31.5 14.2858 31.5 12.6318C31.5 10.9778 30.154 9.63184 28.5 9.63184C26.846 9.63184 25.5 10.9778 25.5 12.6318C25.5 14.2858 26.846 15.6318 28.5 15.6318ZM28.5 11.6318C29.052 11.6318 29.5 12.0798 29.5 12.6318C29.5 13.1838 29.052 13.6318 28.5 13.6318C27.948 13.6318 27.5 13.1838 27.5 12.6318C27.5 12.0798 27.948 11.6318 28.5 11.6318Z" fill="url(#paint3_linear_3800:26837)"/>
<path d="M52.5 20.6318C53.052 20.6318 53.5 21.0798 53.5 21.6318H55.5C55.5 20.3298 54.661 19.2298 53.5 18.8158V16.6318H51.5V18.8158C50.339 19.2298 49.5 20.3298 49.5 21.6318C49.5 23.2858 50.846 24.6318 52.5 24.6318C53.052 24.6318 53.5 25.0798 53.5 25.6318C53.5 26.1838 53.052 26.6318 52.5 26.6318C51.948 26.6318 51.5 26.1838 51.5 25.6318H49.5C49.5 26.9338 50.339 28.0338 51.5 28.4478V30.6318H53.5V28.4478C54.661 28.0338 55.5 26.9338 55.5 25.6318C55.5 23.9778 54.154 22.6318 52.5 22.6318C51.948 22.6318 51.5 22.1838 51.5 21.6318C51.5 21.0798 51.948 20.6318 52.5 20.6318Z" fill="url(#paint4_linear_3800:26837)"/>
<path d="M52.5 12.6318C50.74 12.6318 49.042 13.0488 47.5 13.8438V12.8538L44.698 12.1408C44.579 11.8228 44.445 11.5018 44.298 11.1848L45.777 8.69584L40.435 3.35384L37.946 4.83284C37.629 4.68584 37.308 4.55184 36.99 4.43284L36.277 1.63184H28.722L28.01 4.43384C27.692 4.55284 27.371 4.68684 27.054 4.83384L24.565 3.35484L19.223 8.69684L20.702 11.1858C20.555 11.5028 20.421 11.8238 20.302 12.1418L17.5 12.8548V13.8448C15.958 13.0488 14.26 12.6318 12.5 12.6318C6.435 12.6318 1.5 17.5668 1.5 23.6318C1.5 29.6968 6.435 34.6318 12.5 34.6318C16.956 34.6318 20.899 31.9518 22.602 27.9468L24.564 29.9088L27.053 28.4298C27.37 28.5768 27.691 28.7108 28.009 28.8298L28.723 31.6318H31.5V42.3268C29.508 39.4928 26.22 37.6318 22.5 37.6318H17.5V38.6318C17.5 44.6968 22.435 49.6318 28.5 49.6318H31.5V51.6318H29.031L24.031 57.6318H17.882L14.882 63.6318H47.781L46.281 57.6318H41.118L40.118 55.6318H38L35 51.6318H33.5V49.6318V48.6318V45.6318H36.5C42.565 45.6318 47.5 40.6968 47.5 34.6318V33.6318H42.5C38.78 33.6318 35.492 35.4928 33.5 38.3268V31.6318H36.277L36.99 28.8298C37.308 28.7108 37.629 28.5768 37.946 28.4298L40.435 29.9088L42.397 27.9468C44.101 31.9518 48.044 34.6318 52.5 34.6318C58.565 34.6318 63.5 29.6968 63.5 23.6318C63.5 17.5668 58.565 12.6318 52.5 12.6318ZM35.5 55.6318H32.086L29.793 57.9248L31.207 59.3388L32.914 57.6318H38.882L39.882 59.6318H44.719L45.219 61.6318H18.118L19.118 59.6318H24.969L29.969 53.6318H34L35.5 55.6318ZM42.5 35.6318H45.444C44.945 40.1258 41.125 43.6318 36.5 43.6318H33.556C34.055 39.1378 37.875 35.6318 42.5 35.6318ZM28.5 47.6318C23.875 47.6318 20.055 44.1258 19.556 39.6318H22.5C27.125 39.6318 30.945 43.1378 31.444 47.6318H28.5ZM12.5 32.6318C7.537 32.6318 3.5 28.5948 3.5 23.6318C3.5 18.6688 7.537 14.6318 12.5 14.6318C14.295 14.6318 16.012 15.1658 17.5 16.1688V20.4098L20.302 21.1228C20.421 21.4408 20.555 21.7618 20.702 22.0788L19.223 24.5678L21.049 26.3938C19.859 30.0918 16.424 32.6318 12.5 32.6318ZM40.121 27.3958L38.026 26.1498L37.533 26.4048C36.973 26.6938 36.407 26.9308 35.848 27.1098L35.32 27.2778L34.723 29.6318H30.278L29.68 27.2778L29.152 27.1098C28.593 26.9308 28.027 26.6938 27.467 26.4048L26.974 26.1498L24.879 27.3958L21.736 24.2528L22.982 22.1578L22.727 21.6648C22.438 21.1048 22.201 20.5388 22.022 19.9798L21.854 19.4518L19.5 18.8548V14.4098L21.854 13.8118L22.022 13.2838C22.201 12.7248 22.438 12.1588 22.727 11.5988L22.982 11.1058L21.736 9.01084L24.879 5.86784L26.974 7.11384L27.467 6.85884C28.027 6.56984 28.593 6.33284 29.152 6.15384L29.68 5.98584L30.277 3.63184H34.722L35.32 5.98584L35.848 6.15384C36.407 6.33284 36.973 6.56984 37.533 6.85884L38.026 7.11384L40.121 5.86784L43.264 9.01084L42.018 11.1058L42.273 11.5988C42.562 12.1588 42.799 12.7248 42.978 13.2838L43.146 13.8118L45.5 14.4088V18.8538L43.146 19.4518L42.978 19.9798C42.799 20.5388 42.562 21.1048 42.273 21.6648L42.018 22.1578L43.264 24.2528L40.121 27.3958ZM52.5 32.6318C48.576 32.6318 45.141 30.0918 43.951 26.3938L45.777 24.5678L44.298 22.0788C44.445 21.7618 44.579 21.4408 44.698 21.1228L47.5 20.4088V16.1678C48.988 15.1658 50.705 14.6318 52.5 14.6318C57.463 14.6318 61.5 18.6688 61.5 23.6318C61.5 28.5948 57.463 32.6318 52.5 32.6318Z" fill="url(#paint5_linear_3800:26837)"/>
<defs>
<linearGradient id="paint0_linear_3800:26837" x1="9.57934" y1="16.9014" x2="20.2724" y2="24.6362" gradientUnits="userSpaceOnUse">
<stop offset="0.515625" stop-color="#B12E2A"/>
<stop offset="1" stop-color="#F47C45"/>
</linearGradient>
<linearGradient id="paint1_linear_3800:26837" x1="25.0014" y1="22.7667" x2="27.4032" y2="24.8972" gradientUnits="userSpaceOnUse">
<stop offset="0.515625" stop-color="#B12E2A"/>
<stop offset="1" stop-color="#F47C45"/>
</linearGradient>
<linearGradient id="paint2_linear_3800:26837" x1="33.5793" y1="17.7474" x2="37.8115" y2="24.8903" gradientUnits="userSpaceOnUse">
<stop offset="0.515625" stop-color="#B12E2A"/>
<stop offset="1" stop-color="#F47C45"/>
</linearGradient>
<linearGradient id="paint3_linear_3800:26837" x1="25.5793" y1="9.74736" x2="29.8115" y2="16.8903" gradientUnits="userSpaceOnUse">
<stop offset="0.515625" stop-color="#B12E2A"/>
<stop offset="1" stop-color="#F47C45"/>
</linearGradient>
<linearGradient id="paint4_linear_3800:26837" x1="49.5793" y1="16.9014" x2="60.2724" y2="24.6362" gradientUnits="userSpaceOnUse">
<stop offset="0.515625" stop-color="#B12E2A"/>
<stop offset="1" stop-color="#F47C45"/>
</linearGradient>
<linearGradient id="paint5_linear_3800:26837" x1="2.31984" y1="2.82562" x2="46.0518" y2="76.6362" gradientUnits="userSpaceOnUse">
<stop offset="0.515625" stop-color="#B12E2A"/>
<stop offset="1" stop-color="#F47C45"/>
</linearGradient>
</defs>
</svg>
