<svg width="65" height="65" viewBox="0 0 65 65" fill="none" xmlns="http://www.w3.org/2000/svg">
<path d="M63.4996 32.6318C63.4995 32.4319 63.4396 32.2366 63.3275 32.0711C63.2155 31.9056 63.0564 31.7774 62.8708 31.7031L43.9421 24.1318L62.8708 16.5606C63.0565 16.4864 63.2158 16.3583 63.328 16.1928C63.4401 16.0272 63.5001 15.8318 63.5001 15.6318C63.5001 15.4318 63.4401 15.2365 63.328 15.0709C63.2158 14.9053 63.0565 14.7772 62.8708 14.7031L32.8708 2.70308C32.6324 2.60809 32.3667 2.60809 32.1283 2.70308L2.12832 14.7031C1.94258 14.7772 1.78334 14.9053 1.67116 15.0709C1.55898 15.2365 1.49902 15.4318 1.49902 15.6318C1.49902 15.8318 1.55898 16.0272 1.67116 16.1928C1.78334 16.3583 1.94258 16.4864 2.12832 16.5606L21.0571 24.1318L2.12832 31.7031C1.94258 31.7772 1.78334 31.9053 1.67116 32.0709C1.55898 32.2365 1.49902 32.4318 1.49902 32.6318C1.49902 32.8318 1.55898 33.0272 1.67116 33.1928C1.78334 33.3583 1.94258 33.4864 2.12832 33.5606L21.0571 41.1318L2.12832 48.7031C1.94258 48.7772 1.78334 48.9053 1.67116 49.0709C1.55898 49.2365 1.49902 49.4318 1.49902 49.6318C1.49902 49.8318 1.55898 50.0272 1.67116 50.1928C1.78334 50.3583 1.94258 50.4864 2.12832 50.5606L32.1283 62.5606C32.3667 62.6556 32.6324 62.6556 32.8708 62.5606L62.8708 50.5606C63.0565 50.4864 63.2158 50.3583 63.328 50.1928C63.4401 50.0272 63.5001 49.8318 63.5001 49.6318C63.5001 49.4318 63.4401 49.2365 63.328 49.0709C63.2158 48.9053 63.0565 48.7772 62.8708 48.7031L43.9421 41.1318L62.8708 33.5606C63.0564 33.4863 63.2155 33.3581 63.3275 33.1926C63.4396 33.027 63.4995 32.8317 63.4996 32.6318ZM5.19207 15.6318L32.4996 4.70933L59.8071 15.6318L32.4996 26.5543L5.19207 15.6318ZM59.8071 49.6318L32.4996 60.5543L5.19207 49.6318L23.7496 42.2093L32.1283 45.5606C32.3667 45.6556 32.6324 45.6556 32.8708 45.5606L41.2496 42.2093L59.8071 49.6318ZM32.4996 43.5543L5.19207 32.6318L23.7496 25.2093L32.1283 28.5606C32.3667 28.6556 32.6324 28.6556 32.8708 28.5606L41.2496 25.2093L59.8071 32.6318L32.4996 43.5543Z" fill="url(#paint0_linear_3800:26826)"/>
<defs>
<linearGradient id="paint0_linear_3800:26826" x1="2.31887" y1="3.78711" x2="43.9614" y2="76.4152" gradientUnits="userSpaceOnUse">
<stop offset="0.515625" stop-color="#B12E2A"/>
<stop offset="1" stop-color="#F47C45"/>
</linearGradient>
</defs>
</svg>
