<svg width="65" height="65" viewBox="0 0 65 65" fill="none" xmlns="http://www.w3.org/2000/svg">
<g clip-path="url(#clip0_3798:25119)">
<path d="M48.0574 11.5311L52.0563 13.5305C52.1964 13.6008 52.3501 13.6355 52.5029 13.6355C52.6562 13.6355 52.81 13.6008 52.9501 13.5305L56.949 11.5311C57.2199 11.3964 57.4137 11.1464 57.4776 10.8516C57.5416 10.5567 57.4708 10.2487 57.2829 10.0125L53.284 5.01382C52.9032 4.53934 52.1022 4.53934 51.7224 5.01382L47.7235 10.0125C47.5355 10.2487 47.4633 10.5567 47.5282 10.8516C47.5936 11.1464 47.7865 11.3954 48.0574 11.5311ZM52.5029 7.23831L54.9486 10.2956L52.5029 11.5184L50.0578 10.2956L52.5029 7.23831Z" fill="url(#paint0_linear_3798:25119)"/>
<path d="M51.671 20.1889C51.8569 20.4667 52.1689 20.6336 52.5028 20.6336C52.8367 20.6336 53.1486 20.4667 53.3346 20.1889L57.3335 14.1906C57.5854 13.8137 57.5517 13.3148 57.2515 12.9751C56.9488 12.6339 56.4577 12.5392 56.055 12.7422L52.5028 14.5176L48.951 12.7422C48.5478 12.5401 48.0562 12.6348 47.7541 12.9751C47.4543 13.3148 47.4202 13.8137 47.672 14.1906L51.671 20.1889ZM52.0561 16.5298C52.3368 16.6708 52.6687 16.6708 52.9509 16.5298L53.5825 16.2139L52.5028 17.8317L51.4244 16.213L52.0561 16.5298Z" fill="url(#paint1_linear_3798:25119)"/>
<path d="M52.4963 40.6385C52.4704 40.6385 52.4431 40.6385 52.4172 40.6385C50.2928 40.6526 48.2616 41.2233 46.474 42.2631L41.4783 37.8292C41.4915 37.7643 41.5061 37.6984 41.5061 37.6291V27.8051L46.7469 23.154C48.4554 24.0888 50.4129 24.6228 52.4924 24.6228H52.5715C55.7776 24.6019 58.7846 23.3361 61.0369 21.0589C63.2912 18.7802 64.5199 15.7625 64.4998 12.5602C64.4579 5.97608 59.0804 0.649414 52.4963 0.649414C52.4704 0.649414 52.4431 0.649414 52.4172 0.649414C49.211 0.670404 46.205 1.93617 43.9517 4.21338C41.6984 6.49157 40.4698 9.50979 40.4893 12.712C40.5137 16.4761 42.2862 19.8244 45.0271 22.0064L40.1496 26.3353L32.9567 22.7381C32.6755 22.5975 32.3436 22.5975 32.0619 22.7381L24.6689 26.4344L19.8172 22.1284C20.2463 21.7984 20.6622 21.4489 21.0488 21.0579C23.3031 18.7792 24.5318 15.761 24.5117 12.5592C24.4688 5.97608 19.0913 0.649414 12.5072 0.649414C12.4813 0.649414 12.454 0.649414 12.4281 0.649414C9.22197 0.670404 6.21595 1.93617 3.96266 4.21436C1.70937 6.49254 0.480703 9.51076 0.500229 12.713C0.542698 19.2962 5.92014 24.6228 12.5033 24.6228H12.5824C14.5276 24.6106 16.3973 24.1327 18.0716 23.2551L23.511 28.0819V37.5783L18.3455 42.163C16.615 41.1964 14.6258 40.6395 12.5072 40.6395C12.4813 40.6395 12.454 40.6395 12.4281 40.6395C9.22197 40.6605 6.21595 41.9262 3.96266 44.2034C1.70937 46.4816 0.480703 49.4998 0.500229 52.7021C0.542698 59.2853 5.92014 64.6119 12.5033 64.6119H12.5824C15.7885 64.5909 18.7955 63.3252 21.0478 61.048C23.3021 58.7693 24.5308 55.7516 24.5108 52.5493C24.4868 48.8223 22.7515 45.5009 20.0569 43.3179L24.956 38.97L32.0609 42.5227C32.202 42.593 32.3558 42.6277 32.5086 42.6277C32.6619 42.6277 32.8156 42.593 32.9557 42.5227L39.8615 39.0701L44.7855 43.4385C44.4985 43.6797 44.2188 43.9335 43.9517 44.2034C41.6984 46.4816 40.4698 49.4998 40.4893 52.7021C40.5318 59.2853 45.9092 64.6119 52.4924 64.6119H52.5715C55.7776 64.5909 58.7846 63.3252 61.0369 61.048C63.2912 58.7693 64.5199 55.7516 64.4998 52.5493C64.4579 45.9652 59.0804 40.6385 52.4963 40.6385ZM42.4888 12.6998C42.4712 10.0326 43.4968 7.51863 45.3732 5.62022C47.2516 3.72133 49.7583 2.66595 52.4314 2.64887H52.4963C57.9826 2.64887 62.4657 7.08662 62.5004 12.5719C62.5184 15.2392 61.4928 17.7536 59.6154 19.652C57.738 21.5504 55.2304 22.6063 52.5573 22.6234C52.5363 22.6234 52.5143 22.6234 52.4924 22.6234C47.0056 22.6234 42.5249 18.1856 42.4888 12.6998ZM12.5692 22.6234C12.5482 22.6234 12.5262 22.6234 12.5043 22.6234C7.01749 22.6234 2.53581 18.1856 2.50115 12.6998C2.48309 10.0326 3.50771 7.51863 5.38415 5.62022C7.26254 3.72133 9.76918 2.66595 12.4423 2.64887H12.5072C17.9935 2.64887 22.4766 7.08662 22.5113 12.5719C22.5294 15.2392 21.5038 17.7536 19.6264 19.652C17.7489 21.5504 15.2423 22.6063 12.5692 22.6234ZM22.5113 52.561C22.5294 55.2283 21.5038 57.7427 19.6264 59.6411C17.7489 61.5395 15.2413 62.5954 12.5682 62.6125C12.5472 62.6125 12.5253 62.6125 12.5033 62.6125C7.01652 62.6125 2.53483 58.1747 2.49968 52.6889C2.48211 50.0217 3.50771 47.5077 5.38415 45.6093C7.26254 43.7104 9.76918 42.655 12.4423 42.6379H12.5072C17.9935 42.6379 22.4766 47.0757 22.5113 52.561ZM32.5086 24.7507L38.2712 27.6318L32.5086 30.5133L26.7465 27.6318L32.5086 24.7507ZM25.5105 29.2495L31.5089 32.2487V40.0107L25.5105 37.0116V29.2495ZM39.5067 37.0116L33.5083 40.0107V32.2487L39.5067 29.2495V37.0116ZM52.5583 62.6125C52.5373 62.6125 52.5153 62.6125 52.4934 62.6125C49.2359 62.6125 46.3432 61.0421 44.5146 58.6233H48.5042C49.0573 58.6233 49.5039 58.1757 49.5039 57.6236V52.8173L51.5747 57.9946C51.7274 58.3744 52.0945 58.6233 52.5031 58.6233C52.9122 58.6233 53.2793 58.3744 53.4321 57.9956L55.5023 52.8173V57.6236C55.5023 58.1757 55.9494 58.6233 56.502 58.6233H60.4829C60.2154 58.9772 59.9322 59.3204 59.6154 59.6411C57.738 61.5395 55.2314 62.5954 52.5583 62.6125ZM61.6598 56.6239H57.5018V47.6263C57.5018 47.1475 57.162 46.7359 56.6909 46.6447C56.2262 46.5558 55.7522 46.8097 55.5736 47.2548L52.5031 54.9324L49.4332 47.2558C49.254 46.8097 48.7771 46.5558 48.3153 46.6456C47.8447 46.7359 47.5045 47.1475 47.5045 47.6263V56.6239H43.3298C42.7987 55.4172 42.498 54.0889 42.4888 52.6889C42.4712 50.0217 43.4968 47.5077 45.3732 45.6093C47.2516 43.7104 49.7583 42.655 52.4314 42.6379H52.4963C57.9826 42.6379 62.4657 47.0757 62.5004 52.561C62.5097 53.984 62.2148 55.3586 61.6598 56.6239Z" fill="url(#paint2_linear_3798:25119)"/>
<path d="M17.2942 8.26195C17.5339 7.96223 17.5803 7.55121 17.4143 7.20462C17.2473 6.85755 16.8983 6.63739 16.5132 6.63739H13.5081L13.514 4.64136L11.5145 4.63501L11.5087 6.63739H7.51562V8.63685H14.4327L7.7348 17.0096C7.49463 17.3098 7.44875 17.7208 7.61472 18.0674C7.78167 18.4145 8.13069 18.6341 8.51535 18.6341H11.5116L11.5057 20.6306L13.5052 20.637L13.5111 18.6341H17.5129V16.6347H10.5958L17.2942 8.26195Z" fill="url(#paint3_linear_3798:25119)"/>
<path d="M11.5146 26.6321V38.6288H13.5141V33.6302H17.513V31.6307H13.5141V26.6321H11.5146Z" fill="url(#paint4_linear_3798:25119)"/>
<path d="M19.5117 31.6306H21.5112V33.6301H19.5117V31.6306Z" fill="url(#paint5_linear_3798:25119)"/>
<path d="M53.5032 38.6288V26.6321H51.5038V31.6307H47.5049V33.6302H51.5038V38.6288H53.5032Z" fill="url(#paint6_linear_3798:25119)"/>
<path d="M43.5059 31.6306H45.5053V33.6301H43.5059V31.6306Z" fill="url(#paint7_linear_3798:25119)"/>
<path d="M31.5084 16.6348H33.5079V12.6359H38.5065V10.6365H26.5098V12.6359H31.5084V16.6348Z" fill="url(#paint8_linear_3798:25119)"/>
<path d="M31.5088 18.6343H33.5082V20.6337H31.5088V18.6343Z" fill="url(#paint9_linear_3798:25119)"/>
<path d="M33.5079 48.626H31.5084V52.6249H26.5098V54.6244H38.5065V52.6249H33.5079V48.626Z" fill="url(#paint10_linear_3798:25119)"/>
<path d="M31.5088 44.627H33.5082V46.6264H31.5088V44.627Z" fill="url(#paint11_linear_3798:25119)"/>
<path d="M15.5132 47.6262H14.5134V45.6267H12.514V47.6262H11.5143V45.6267H9.51481V47.6262H6.51562V49.6256H7.51535V55.624H6.51562V57.6234H9.51481V59.6229H11.5143V57.6234H12.514V59.6229H14.5134V57.6234H15.5132C17.167 57.6234 18.5123 56.2781 18.5123 54.6243C18.5123 53.8535 18.2116 53.1569 17.7328 52.6248C18.2126 52.0932 18.5123 51.3961 18.5123 50.6253C18.5123 48.972 17.167 47.6262 15.5132 47.6262ZM9.51481 49.6256H15.5132C16.0653 49.6256 16.5129 50.0747 16.5129 50.6253C16.5129 51.1765 16.0653 51.6251 15.5132 51.6251H9.51481V49.6256ZM15.5132 55.624H9.51481V53.6245H15.5132C16.0653 53.6245 16.5129 54.0736 16.5129 54.6243C16.5129 55.1754 16.0653 55.624 15.5132 55.624Z" fill="url(#paint12_linear_3798:25119)"/>
</g>
<defs>
<linearGradient id="paint0_linear_3798:25119" x1="47.6371" y1="4.83082" x2="53.6252" y2="16.0839" gradientUnits="userSpaceOnUse">
<stop offset="0.28125" stop-color="#B12E2A"/>
<stop offset="1" stop-color="#F47C45"/>
</linearGradient>
<linearGradient id="paint1_linear_3798:25119" x1="47.6361" y1="12.7902" x2="52.6142" y2="23.294" gradientUnits="userSpaceOnUse">
<stop offset="0.28125" stop-color="#B12E2A"/>
<stop offset="1" stop-color="#F47C45"/>
</linearGradient>
<linearGradient id="paint2_linear_3798:25119" x1="1.34628" y1="1.88099" x2="46.4498" y2="78.0512" gradientUnits="userSpaceOnUse">
<stop offset="0.28125" stop-color="#B12E2A"/>
<stop offset="1" stop-color="#F47C45"/>
</linearGradient>
<linearGradient id="paint3_linear_3798:25119" x1="7.64782" y1="4.94312" x2="20.4986" y2="18.4937" gradientUnits="userSpaceOnUse">
<stop offset="0.28125" stop-color="#B12E2A"/>
<stop offset="1" stop-color="#F47C45"/>
</linearGradient>
<linearGradient id="paint4_linear_3798:25119" x1="11.594" y1="26.8631" x2="21.1045" y2="34.889" gradientUnits="userSpaceOnUse">
<stop offset="0.28125" stop-color="#B12E2A"/>
<stop offset="1" stop-color="#F47C45"/>
</linearGradient>
<linearGradient id="paint5_linear_3798:25119" x1="19.5382" y1="31.6691" x2="20.9485" y2="34.0495" gradientUnits="userSpaceOnUse">
<stop offset="0.28125" stop-color="#B12E2A"/>
<stop offset="1" stop-color="#F47C45"/>
</linearGradient>
<linearGradient id="paint6_linear_3798:25119" x1="47.5842" y1="26.8631" x2="57.0947" y2="34.889" gradientUnits="userSpaceOnUse">
<stop offset="0.28125" stop-color="#B12E2A"/>
<stop offset="1" stop-color="#F47C45"/>
</linearGradient>
<linearGradient id="paint7_linear_3798:25119" x1="43.5323" y1="31.6691" x2="44.9426" y2="34.0494" gradientUnits="userSpaceOnUse">
<stop offset="0.28125" stop-color="#B12E2A"/>
<stop offset="1" stop-color="#F47C45"/>
</linearGradient>
<linearGradient id="paint8_linear_3798:25119" x1="26.6684" y1="10.752" x2="29.2959" y2="19.6214" gradientUnits="userSpaceOnUse">
<stop offset="0.28125" stop-color="#B12E2A"/>
<stop offset="1" stop-color="#F47C45"/>
</linearGradient>
<linearGradient id="paint9_linear_3798:25119" x1="31.5352" y1="18.6728" x2="32.9455" y2="21.0531" gradientUnits="userSpaceOnUse">
<stop offset="0.28125" stop-color="#B12E2A"/>
<stop offset="1" stop-color="#F47C45"/>
</linearGradient>
<linearGradient id="paint10_linear_3798:25119" x1="26.6684" y1="48.7415" x2="29.2959" y2="57.6109" gradientUnits="userSpaceOnUse">
<stop offset="0.28125" stop-color="#B12E2A"/>
<stop offset="1" stop-color="#F47C45"/>
</linearGradient>
<linearGradient id="paint11_linear_3798:25119" x1="31.5352" y1="44.6655" x2="32.9455" y2="47.0458" gradientUnits="userSpaceOnUse">
<stop offset="0.28125" stop-color="#B12E2A"/>
<stop offset="1" stop-color="#F47C45"/>
</linearGradient>
<linearGradient id="paint12_linear_3798:25119" x1="6.67426" y1="45.8962" x2="17.2039" y2="61.1293" gradientUnits="userSpaceOnUse">
<stop offset="0.28125" stop-color="#B12E2A"/>
<stop offset="1" stop-color="#F47C45"/>
</linearGradient>
<clipPath id="clip0_3798:25119">
<rect width="64" height="64" fill="white" transform="translate(0.5 0.631836)"/>
</clipPath>
</defs>
</svg>
