<svg width="65" height="65" viewBox="0 0 65 65" fill="none" xmlns="http://www.w3.org/2000/svg">
<g clip-path="url(#clip0_3800:26850)">
<path d="M51.9966 41.1196C45.6126 41.1196 40.4375 46.2948 40.4375 52.6788C40.4375 59.0628 45.6126 64.2379 51.9966 64.2379C58.3806 64.2379 63.5558 59.0628 63.5558 52.6788C63.5481 46.2978 58.3776 41.1273 51.9966 41.1196ZM51.9966 62.1362C46.7733 62.1362 42.5392 57.9021 42.5392 52.6788C42.5392 47.4554 46.7733 43.2213 51.9966 43.2213C57.22 43.2213 61.4541 47.4554 61.4541 52.6788C61.4485 57.8996 57.2174 62.1306 51.9966 62.1362Z" fill="url(#paint0_linear_3800:26850)"/>
<path d="M22.5733 41.1199H13.1158V29.9959L16.216 33.0955C16.628 33.4942 17.2837 33.4881 17.6891 33.0827C18.0944 32.6779 18.1001 32.0221 17.7019 31.6101L12.808 26.7162C12.3975 26.3062 11.7325 26.3062 11.322 26.7162L6.42858 31.6101C6.03041 32.0221 6.03605 32.6779 6.4414 33.0827C6.84675 33.4881 7.50198 33.4942 7.91451 33.0955L11.0142 29.9959V41.1199H1.55669C0.976372 41.1199 0.505859 41.5904 0.505859 42.1707V63.1873C0.505859 63.7677 0.976372 64.2382 1.55669 64.2382H22.5733C23.1536 64.2382 23.6241 63.7677 23.6241 63.1873V42.1707C23.6241 41.5904 23.1536 41.1199 22.5733 41.1199ZM21.5224 62.1365H2.60752V43.2216H21.5224V62.1365Z" fill="url(#paint1_linear_3800:26850)"/>
<path d="M32.0834 7.11105C31.8191 6.83808 31.4287 6.72879 31.0613 6.82474C30.6939 6.92069 30.4071 7.20802 30.3106 7.5754C30.2147 7.94278 30.324 8.33325 30.5974 8.59699L33.6971 11.6971H23.5705C23.0087 5.54353 17.7063 0.919467 11.5332 1.20065C5.36009 1.48182 0.5 6.5687 0.5 12.748C0.5 18.9272 5.36009 24.0141 11.5332 24.2953C17.7063 24.5765 23.0087 19.9524 23.5705 13.7988H33.6971L30.5974 16.899C30.324 17.1627 30.2147 17.5532 30.3106 17.9205C30.4071 18.2879 30.6939 18.5747 31.0613 18.6712C31.4287 18.7671 31.8191 18.6579 32.0834 18.3844L36.9768 13.4909C37.3873 13.0805 37.3873 12.4155 36.9768 12.005L32.0834 7.11105ZM12.0648 22.2054C6.84141 22.2054 2.6073 17.9713 2.6073 12.748C2.6073 7.52461 6.84141 3.2905 12.0648 3.2905C17.2881 3.2905 21.5222 7.52461 21.5222 12.748C21.5166 17.9688 17.2856 22.1998 12.0648 22.2054Z" fill="url(#paint2_linear_3800:26850)"/>
<path d="M64.1144 11.9342L52.66 2.58192C52.2731 2.26534 51.7169 2.26534 51.33 2.58192L39.8761 11.9342C39.6318 12.1338 39.4902 12.4324 39.4902 12.7475C39.4902 13.0625 39.6318 13.3611 39.8761 13.5607L50.9452 22.598V35.4306L47.8456 32.3305C47.433 31.9323 46.7778 31.9379 46.3724 32.3433C45.9671 32.7486 45.9615 33.4044 46.3596 33.8164L51.2531 38.7103C51.6635 39.1203 52.3285 39.1203 52.739 38.7103L57.6329 33.8164C58.0311 33.4044 58.0255 32.7486 57.6201 32.3433C57.2148 31.9379 56.559 31.9323 56.147 32.3305L53.0469 35.4306V22.598L64.1144 13.5607C64.3582 13.3611 64.4998 13.0625 64.4998 12.7475C64.4998 12.4324 64.3582 12.1338 64.1144 11.9342ZM51.996 20.7421L42.2045 12.7475L51.996 4.75285L61.7875 12.7475L51.996 20.7421Z" fill="url(#paint3_linear_3800:26850)"/>
</g>
<defs>
<linearGradient id="paint0_linear_3800:26850" x1="40.7432" y1="41.5648" x2="57.0498" y2="69.0869" gradientUnits="userSpaceOnUse">
<stop offset="0.515625" stop-color="#B12E2A"/>
<stop offset="1" stop-color="#F47C45"/>
</linearGradient>
<linearGradient id="paint1_linear_3800:26850" x1="0.811556" y1="27.1371" x2="31.2196" y2="58.5012" gradientUnits="userSpaceOnUse">
<stop offset="0.515625" stop-color="#B12E2A"/>
<stop offset="1" stop-color="#F47C45"/>
</linearGradient>
<linearGradient id="paint2_linear_3800:26850" x1="0.98641" y1="1.63362" x2="13.1469" y2="34.2901" gradientUnits="userSpaceOnUse">
<stop offset="0.515625" stop-color="#B12E2A"/>
<stop offset="1" stop-color="#F47C45"/>
</linearGradient>
<linearGradient id="paint3_linear_3800:26850" x1="39.8209" y1="3.05061" x2="69.0245" y2="36.6639" gradientUnits="userSpaceOnUse">
<stop offset="0.515625" stop-color="#B12E2A"/>
<stop offset="1" stop-color="#F47C45"/>
</linearGradient>
<clipPath id="clip0_3800:26850">
<rect width="64" height="64" fill="white" transform="translate(0.5 0.631836)"/>
</clipPath>
</defs>
</svg>
