<svg width="404" height="363" viewBox="0 0 404 363" fill="none" xmlns="http://www.w3.org/2000/svg">
<g clip-path="url(#clip0_3800)">
<g style="mix-blend-mode:screen">
<path d="M29.2203 0C30.6548 0.403209 32.0392 0.967172 33.3468 1.68114C35.9288 2.87867 39.6289 4.60587 44.1474 6.9088L44.4586 7.05849V7.40393C45.1156 11.0886 45.8649 15.326 46.6717 19.9204L46.7524 20.3349L46.4527 20.6458L34.926 32.552L34.4534 33.0356L33.8655 32.7362L19.3649 25.1826L18.9845 24.9868V24.5723C18.2699 19.9664 17.6244 15.706 17.0596 11.9983L17.002 11.6413L17.244 11.411C20.7481 7.81846 23.7451 4.91676 25.8314 2.94776C26.8395 1.83391 27.9772 0.844322 29.2203 0C28.4101 1.25579 27.4588 2.4148 26.3847 3.4544C24.4713 5.58462 21.6587 8.62449 18.1777 12.3322C18.2353 12.148 18.2929 11.9522 18.3621 11.745C19.0191 15.4297 19.7684 19.6555 20.5868 24.2614L20.1372 23.6511L34.7762 31.0896L33.7272 31.2738L45.2539 19.4368C45.1733 19.6901 45.1041 19.9434 45.0349 20.1622C44.3203 15.5563 43.6748 11.2959 43.11 7.59968L43.4788 8.09481C39.0295 5.79188 35.4101 3.77681 32.9434 2.33748C31.6131 1.71021 30.363 0.925421 29.2203 0V0Z" fill="#E95B40"/>
</g>
<g style="mix-blend-mode:screen">
<path d="M19.7567 24.4341C19.3994 24.0887 23.6643 19.1028 29.3009 13.3109L30.638 11.9292C30.5573 12.194 30.4766 12.4473 30.4074 12.7007C29.2548 5.60762 28.7591 0.0920889 29.2548 0.0345156C29.7504 -0.0230578 30.9722 5.35429 32.1941 12.4358L32.2748 12.8734L31.9635 13.1958L30.6264 14.5775C24.9668 20.3579 20.1141 24.7795 19.7567 24.4341Z" fill="#E95B40"/>
</g>
<g style="mix-blend-mode:screen">
<path d="M31.2835 12.5509C31.514 12.1134 34.9721 13.426 39.0064 15.4871C43.0408 17.5483 46.1299 19.5864 45.9224 20.0239C45.715 20.4615 42.2339 19.1488 38.1995 17.0877C34.1652 15.0266 31.053 13 31.2835 12.5509Z" fill="#E95B40"/>
</g>
<g style="mix-blend-mode:screen">
<path d="M101.596 329.918C102.992 330.413 104.324 331.074 105.561 331.887C108.04 333.257 111.567 335.342 115.935 337.829L116.224 338.002V338.358C116.581 342.055 117.007 346.304 117.469 350.921V351.336L117.157 351.623L104.893 362.551L104.397 363L103.832 362.654L90.0004 354.111L89.6315 353.88V353.466C89.2742 348.86 88.9514 344.576 88.6748 340.869V340.512L88.9399 340.281C92.7783 337 95.9251 334.363 98.1613 332.555C99.2444 331.539 100.444 330.654 101.735 329.918C100.842 331.109 99.8134 332.191 98.6685 333.142C96.6167 335.111 93.6082 337.909 89.8736 341.318C89.9543 341.134 90.0234 340.949 90.1041 340.742C90.473 344.45 90.8995 348.687 91.3605 353.316C91.2222 353.109 91.0954 352.89 90.9571 352.671L104.904 361.111L103.844 361.204L116.201 350.368C116.108 350.61 116.005 350.852 115.924 351.059C115.567 346.453 115.255 342.181 114.967 338.474L115.302 339.003C111.071 336.332 107.648 334.121 105.296 332.544C103.965 331.815 102.723 330.934 101.596 329.918Z" fill="#E95B40"/>
</g>
<g style="mix-blend-mode:screen">
<path d="M90.3812 353.385C90.0585 353.017 94.6576 348.399 100.675 343.08L102.115 341.824C102.012 342.078 101.908 342.32 101.816 342.573C101.251 335.457 101.147 329.907 101.597 329.907C102.046 329.907 102.911 335.296 103.591 342.4V342.849L103.245 343.149L101.827 344.415C95.8564 349.747 90.7155 353.765 90.3812 353.385Z" fill="#E95B40"/>
</g>
<g style="mix-blend-mode:screen">
<path d="M102.703 342.492C102.957 342.066 106.288 343.644 110.126 345.947C113.965 348.25 116.881 350.553 116.616 350.967C116.351 351.382 113.031 349.816 109.193 347.513C105.354 345.21 102.438 342.918 102.703 342.492Z" fill="#E95B40"/>
</g>
<g style="mix-blend-mode:screen">
<path d="M354.193 194.771C355.214 192.783 356.394 190.881 357.72 189.082C360.083 185.513 363.564 180.4 367.852 174.113L368.048 173.837H368.394L387.551 173.238H387.978L388.232 173.572L403.585 193.216L403.989 193.746L403.608 194.287L389.35 214.461L389.096 214.818H388.681L369.501 215.129H369.143L368.936 214.864C364.325 208.761 360.556 203.787 357.997 200.298C356.58 198.556 355.304 196.704 354.182 194.759C355.791 196.326 357.271 198.021 358.608 199.826C361.351 203.165 365.27 208.024 370.031 214.012L369.466 213.747L388.635 213.148L387.978 213.505C392.347 207.241 397.13 200.401 402.133 193.251C402.133 193.608 402.133 193.953 402.133 194.322L386.871 174.597L387.563 174.919L368.394 175.23L368.947 174.931C364.521 181.08 360.879 186.077 358.32 189.52C357.079 191.372 355.7 193.127 354.193 194.771Z" fill="#E95B40"/>
</g>
<g style="mix-blend-mode:screen">
<path d="M388.67 214C388.278 214.3 381.904 206.757 374.423 197.154L372.648 194.851L373.374 195.197C362.539 195.393 354.205 195.197 354.193 194.759C354.182 194.322 362.504 193.723 373.328 193.412H373.777L374.054 193.769L375.841 196.072C383.321 205.652 389.062 213.689 388.67 214Z" fill="#E95B40"/>
</g>
<g style="mix-blend-mode:screen">
<path d="M373.351 194.321C372.947 194.034 375.794 189.278 379.725 183.693C383.655 178.109 387.171 173.814 387.575 174.102C387.978 174.39 385.131 179.145 381.2 184.73C377.27 190.314 373.754 194.598 373.351 194.321Z" fill="#E95B40"/>
</g>
<g style="mix-blend-mode:screen">
<path d="M370.423 130.45C370.342 130.185 374.895 128.446 382.18 125.924L382.503 125.809L382.791 126.017L390.86 131.567L391.206 131.808V132.246C391.286 136.149 391.367 140.433 391.459 144.912V145.58L390.825 145.776L378.849 149.599L378.434 149.725L378.1 149.472L370.25 143.715L369.962 143.496V143.162C370.02 135.378 370.192 130.496 370.469 130.496C370.746 130.496 371.068 135.366 371.345 143.162L371.057 142.609L379.126 148.171L378.376 148.056L390.318 144.129L389.696 144.993C389.696 140.514 389.603 136.23 389.569 132.327L389.915 132.994L382.088 127.237L382.699 127.329C375.218 129.448 370.504 130.715 370.423 130.45Z" fill="#E95B40"/>
</g>
<g style="mix-blend-mode:screen">
<path d="M378.537 148.793C378.042 148.793 377.558 143.795 377.465 137.6C377.465 137.105 377.465 136.61 377.465 136.138L377.834 136.84C373.397 133.593 370.169 130.818 370.434 130.45C370.699 130.081 374.365 132.234 378.872 135.389L379.241 135.654V136.103C379.241 136.575 379.241 137.071 379.241 137.577C379.367 143.761 379.033 148.781 378.537 148.793Z" fill="#E95B40"/>
</g>
<g style="mix-blend-mode:screen">
<path d="M378.341 136.115C378.191 135.643 380.75 134.399 384.047 133.328C387.344 132.258 390.156 131.785 390.317 132.258C390.479 132.73 387.908 133.973 384.554 135.044C381.2 136.115 378.491 136.587 378.341 136.115Z" fill="#E95B40"/>
</g>
<g style="mix-blend-mode:screen">
<path d="M174.123 293.624C174.959 292.953 175.85 292.353 176.785 291.828C178.549 290.676 181.177 289.087 184.566 287.015C191.332 282.881 201.118 276.985 213.141 269.743L213.429 269.57L213.763 269.708L246.43 283.376L246.822 283.537L246.914 283.952L257.76 328.721L257.91 329.365L257.345 329.699L217.982 352.901L217.613 353.109L217.221 352.948L184.635 338.992L184.312 338.854L184.231 338.52C181.004 324.702 178.41 313.521 176.658 305.737C175.782 301.845 175.114 298.829 174.687 296.744C174.407 295.703 174.218 294.64 174.123 293.566C174.525 294.567 174.845 295.599 175.079 296.652C175.633 298.69 176.416 301.684 177.385 305.553C179.367 313.291 182.168 324.46 185.557 338.197L185.154 337.725L217.855 351.508H217.106L256.4 328.214L255.985 329.193C252.193 313.349 248.562 298.195 245.265 284.389C245.427 284.596 245.6 284.792 245.75 284.965L213.244 271.067H213.867C201.752 278.125 191.862 283.848 184.981 287.775C181.523 289.744 178.849 291.229 177.004 292.265C176.088 292.806 175.123 293.261 174.123 293.624Z" fill="#E95B40"/>
</g>
<g style="mix-blend-mode:screen">
<path d="M217.555 352.28C217.313 352.337 216.022 347.95 214.097 340.834C212.172 333.718 209.729 323.827 207.089 312.9C206.662 311.115 206.236 309.365 205.832 307.695L206.351 308.305C197.13 304.379 189.061 300.821 183.298 298.195C177.534 295.57 174.076 293.889 174.134 293.67C174.192 293.451 177.857 294.822 183.759 297.124C189.66 299.427 197.868 302.813 207.1 306.693L207.515 306.866L207.619 307.303C208.023 308.962 208.449 310.758 208.876 312.497C211.515 323.424 213.809 333.35 215.388 340.558C216.967 347.766 217.855 352.222 217.555 352.28Z" fill="#E95B40"/>
</g>
<g style="mix-blend-mode:screen">
<path d="M206.744 307.442C206.49 307.016 215.089 301.466 225.959 295.04C236.828 288.615 245.854 283.768 246.096 284.194C246.338 284.62 237.751 290.17 226.881 296.595C216.011 303.02 206.997 307.914 206.744 307.442Z" fill="#E95B40"/>
</g>
<g style="mix-blend-mode:screen" opacity="0.2">
<g opacity="0.87">
<path opacity="0.87" d="M247.633 284.656L259.24 329.92L219.208 353.882L207.589 308.618L247.633 284.656Z" fill="#E95B40"/>
<path opacity="0.87" d="M219.208 353.883L185.607 340.226L174 294.962L207.589 308.619L219.208 353.883Z" fill="url(#paint0_linear_3800)"/>
<path opacity="0.87" d="M207.589 308.618L174 294.962L214.044 271L247.633 284.656L207.589 308.618Z" fill="#E95B40"/>
</g>
<path opacity="0.87" d="M247.633 284.656L214.044 271L174 294.962L185.607 340.226L219.231 353.883L259.24 329.921L247.633 284.656Z" fill="#D53038"/>
</g>
<g style="mix-blend-mode:screen" opacity="0.87" filter="url(#filter0_d_3800)">
<g opacity="0.87">
<path opacity="0.87" d="M193.787 49.9275L205.395 95.1917L165.351 119.142L153.744 73.878L193.787 49.9275Z" fill="#E95B40"/>
<path opacity="0.87" d="M165.351 119.142L131.762 105.486L120.155 60.2219L153.744 73.8783L165.351 119.142Z" fill="url(#paint1_linear_3800)"/>
<path opacity="0.87" d="M153.744 73.8782L120.155 60.2218L160.199 36.2712L193.787 49.9276L153.744 73.8782Z" fill="#E95B40"/>
</g>
<path opacity="0.87" d="M193.787 49.9276L160.199 36.2712L120.155 60.2218L131.762 105.486L165.386 119.142L205.395 95.1918L193.787 49.9276Z" fill="url(#paint2_linear_3800)"/>
</g>
<g style="mix-blend-mode:screen" opacity="0.5">
<g opacity="0.87">
<path opacity="0.87" d="M193.766 49.7383L205.373 95.0025L165.341 118.965L153.722 73.7003L193.766 49.7383Z" fill="#E95B40"/>
<path opacity="0.87" d="M165.341 118.965L131.74 105.308L120.133 60.0442L153.722 73.7006L165.341 118.965Z" fill="url(#paint3_linear_3800)"/>
<path opacity="0.87" d="M153.722 73.7005L120.133 60.0441L160.177 36.082L193.765 49.7384L153.722 73.7005Z" fill="#E95B40"/>
</g>
<path opacity="0.87" d="M193.765 49.7384L160.177 36.082L120.133 60.0441L131.74 105.308L165.364 118.965L205.373 95.0026L193.765 49.7384Z" fill="url(#paint4_linear_3800)"/>
</g>
<g style="mix-blend-mode:screen">
<path d="M146.251 92.0023C146.378 92.2211 143.485 94.1441 138.701 97.1033C133.917 100.063 127.266 104.012 119.855 108.296C112.443 112.579 105.677 116.356 100.743 119.05C95.81 121.745 92.6748 123.253 92.5595 123.046C92.4442 122.839 95.3259 120.893 100.098 117.945C104.87 114.997 111.544 111.036 118.956 106.741C126.367 102.446 133.134 98.6809 138.067 95.9979C143 93.315 146.124 91.7836 146.251 92.0023Z" fill="#D53038"/>
</g>
<g style="mix-blend-mode:screen" opacity="0.5">
<g opacity="0.87">
<path opacity="0.87" d="M128.765 234.738L140.372 280.002L100.34 303.964L88.7212 258.7L128.765 234.738Z" fill="#E95B40"/>
<path opacity="0.87" d="M100.34 303.964L66.7397 290.308L55.1323 245.044L88.7212 258.7L100.34 303.964Z" fill="url(#paint5_linear_3800)"/>
<path opacity="0.87" d="M88.7212 258.7L55.1323 245.044L95.1761 221.082L128.765 234.738L88.7212 258.7Z" fill="#E95B40"/>
</g>
<path opacity="0.87" d="M128.765 234.738L95.1761 221.082L55.1323 245.044L66.7397 290.308L100.363 303.964L140.372 280.002L128.765 234.738Z" fill="url(#paint6_linear_3800)"/>
</g>
<g style="mix-blend-mode:screen" opacity="0.87" filter="url(#filter1_d_3800)">
<g opacity="0.87">
<path opacity="0.87" d="M128.289 235.15L139.896 280.415L99.8525 304.365L88.2451 259.101L128.289 235.15Z" fill="#E95B40"/>
<path opacity="0.87" d="M99.8525 304.365L66.2637 290.709L54.6562 245.445L88.2451 259.101L99.8525 304.365Z" fill="url(#paint7_linear_3800)"/>
<path opacity="0.87" d="M88.2451 259.101L54.6562 245.445L94.6886 221.494L128.289 235.151L88.2451 259.101Z" fill="#E95B40"/>
</g>
<path opacity="0.87" d="M128.289 235.151L94.6886 221.494L54.6562 245.445L66.2636 290.709L99.8871 304.365L139.896 280.415L128.289 235.151Z" fill="url(#paint8_linear_3800)"/>
</g>
<g style="mix-blend-mode:screen" opacity="0.87" filter="url(#filter2_d_3800)">
<g opacity="0.87">
<path opacity="0.87" d="M347.289 227.15L358.896 272.414L318.853 296.364L307.245 251.1L347.289 227.15Z" fill="#E95B40"/>
<path opacity="0.87" d="M318.853 296.365L285.264 282.708L273.656 237.444L307.245 251.101L318.853 296.365Z" fill="url(#paint9_linear_3800)"/>
<path opacity="0.87" d="M307.245 251.1L273.656 237.444L313.689 213.494L347.289 227.15L307.245 251.1Z" fill="#E95B40"/>
</g>
<path opacity="0.87" d="M347.289 227.15L313.689 213.494L273.656 237.444L285.264 282.708L318.887 296.365L358.896 272.414L347.289 227.15Z" fill="url(#paint10_linear_3800)"/>
</g>
<g style="mix-blend-mode:screen" opacity="0.5">
<g opacity="0.87">
<path opacity="0.87" d="M347.766 226.738L359.373 272.002L319.341 295.965L307.722 250.7L347.766 226.738Z" fill="#E95B40"/>
<path opacity="0.87" d="M319.341 295.965L285.74 282.308L274.133 237.044L307.722 250.701L319.341 295.965Z" fill="url(#paint11_linear_3800)"/>
<path opacity="0.87" d="M307.722 250.7L274.133 237.044L314.177 213.082L347.765 226.738L307.722 250.7Z" fill="#E95B40"/>
</g>
<path opacity="0.87" d="M347.765 226.738L314.177 213.082L274.133 237.044L285.74 282.308L319.364 295.965L359.373 272.003L347.765 226.738Z" fill="url(#paint12_linear_3800)"/>
</g>
<g style="mix-blend-mode:screen" opacity="0.87" filter="url(#filter3_d_3800)">
<g opacity="0.87">
<path opacity="0.87" d="M230.603 176.059L242.211 221.323L202.167 245.274L190.56 200.01L230.603 176.059Z" fill="#E95B40"/>
<path opacity="0.87" d="M202.167 245.274L168.578 231.618L156.971 186.354L190.56 200.01L202.167 245.274Z" fill="url(#paint13_linear_3800)"/>
<path opacity="0.87" d="M190.56 200.01L156.971 186.353L197.015 162.403L230.603 176.059L190.56 200.01Z" fill="#E95B40"/>
</g>
<path opacity="0.87" d="M230.603 176.059L197.015 162.403L156.971 186.353L168.578 231.618L202.202 245.274L242.211 221.323L230.603 176.059Z" fill="url(#paint14_linear_3800)"/>
</g>
<g style="mix-blend-mode:screen" opacity="0.5">
<g opacity="0.87">
<path opacity="0.87" d="M230.766 175.738L242.373 221.002L202.341 244.965L190.722 199.7L230.766 175.738Z" fill="#E95B40"/>
<path opacity="0.87" d="M202.341 244.965L168.74 231.308L157.133 186.044L190.722 199.701L202.341 244.965Z" fill="url(#paint15_linear_3800)"/>
<path opacity="0.87" d="M190.722 199.7L157.133 186.044L197.177 162.082L230.765 175.738L190.722 199.7Z" fill="#E95B40"/>
</g>
<path opacity="0.87" d="M230.765 175.738L197.177 162.082L157.133 186.044L168.74 231.308L202.364 244.965L242.373 221.003L230.765 175.738Z" fill="url(#paint16_linear_3800)"/>
</g>
<g style="mix-blend-mode:screen">
<path d="M179.575 217.028C179.69 217.247 177.142 218.986 172.912 221.634C168.682 224.283 162.792 227.795 156.222 231.595C149.651 235.394 143.646 238.745 139.266 241.094C134.886 243.443 132.096 244.779 131.981 244.549C131.866 244.318 134.401 242.603 138.62 239.943C142.839 237.283 148.752 233.782 155.322 229.982C161.893 226.183 167.887 222.832 172.278 220.483C176.67 218.134 179.448 216.821 179.575 217.028Z" fill="#D53038"/>
</g>
<g style="mix-blend-mode:screen">
<path d="M298.381 271.044C298.496 271.263 295.845 273.047 291.465 275.776C287.085 278.505 280.941 282.167 274.175 286.14C267.409 290.112 261.115 293.567 256.562 296.019C252.009 298.472 249.127 299.865 249 299.646C248.874 299.428 251.525 297.643 255.916 294.914C260.308 292.185 266.44 288.523 273.276 284.551C280.111 280.578 286.324 277.124 290.889 274.683C295.453 272.241 298.254 270.825 298.381 271.044Z" fill="#D53038"/>
</g>
<g style="mix-blend-mode:screen">
<path d="M193.787 183.716C193.545 183.716 192.358 179.836 190.652 173.422C188.946 167.009 186.698 158.119 184.324 148.274C181.949 138.429 179.909 129.494 178.56 123.011C177.212 116.528 176.428 112.475 176.67 112.418C176.912 112.36 178.088 116.298 179.805 122.712C181.523 129.125 183.759 138.015 186.122 147.86C188.485 157.705 190.537 166.64 191.885 173.123C193.234 179.606 194.029 183.659 193.787 183.716Z" fill="#D53038"/>
</g>
<g style="mix-blend-mode:screen">
<path d="M89.9083 241.278C89.6663 241.336 88.5136 237.525 86.8538 231.307C85.1939 225.089 82.9923 216.476 80.687 206.965C78.3816 197.454 76.4105 188.772 75.0619 182.485C73.7133 176.198 73.0102 172.283 73.2522 172.225C73.4943 172.167 74.647 175.979 76.3068 182.185C77.9666 188.392 80.1452 197.005 82.439 206.539C84.7328 216.073 86.7154 224.732 88.0525 231.019C89.3896 237.306 90.1504 241.221 89.9083 241.278Z" fill="#D53038"/>
</g>
<g style="mix-blend-mode:screen">
<path d="M311.856 230.927C311.614 230.996 310.519 227.38 308.928 221.496C307.337 215.612 305.285 207.471 303.107 198.467C300.928 189.462 299.061 181.195 297.793 175.276C296.525 169.358 295.868 165.616 296.11 165.558C296.352 165.5 297.459 169.104 299.038 174.988C300.617 180.872 302.68 189.013 304.859 198.018C307.037 207.022 308.905 215.29 310.173 221.208C311.441 227.127 312.098 230.869 311.856 230.927Z" fill="#D53038"/>
</g>
<g style="mix-blend-mode:screen">
<path d="M175.598 296.031C175.495 296.25 172.083 294.879 166.642 292.576C161.201 290.273 153.767 286.819 145.571 283.065C137.376 279.312 130.022 275.719 124.731 273.071C119.44 270.422 116.213 268.683 116.316 268.465C116.42 268.246 119.774 269.616 125.261 271.919C130.748 274.222 138.148 277.676 146.332 281.43C154.516 285.184 161.893 288.777 167.184 291.425C172.475 294.073 175.702 295.801 175.598 296.031Z" fill="#D53038"/>
</g>
<g style="mix-blend-mode:screen">
<path d="M276.1 235.982C276.008 236.212 272.584 235.014 267.132 232.907C261.68 230.8 254.211 227.772 245.992 224.329C237.774 220.886 230.362 217.662 225.037 215.244C219.711 212.826 216.472 211.237 216.564 211.006C216.657 210.776 220.08 211.962 225.532 214.081C230.984 216.199 238.465 219.216 246.684 222.659C254.902 226.102 262.302 229.326 267.628 231.733C272.953 234.139 276.204 235.751 276.1 235.982Z" fill="#D53038"/>
</g>
<g style="mix-blend-mode:screen">
<path d="M218.143 211.006C218.143 211.355 218.04 211.696 217.845 211.986C217.651 212.276 217.375 212.502 217.052 212.635C216.729 212.768 216.374 212.802 216.031 212.733C215.689 212.665 215.375 212.496 215.129 212.248C214.882 212 214.715 211.686 214.649 211.343C214.582 211.001 214.619 210.646 214.754 210.324C214.889 210.002 215.117 209.728 215.408 209.536C215.7 209.344 216.042 209.242 216.391 209.245C216.857 209.248 217.303 209.435 217.631 209.765C217.959 210.095 218.143 210.541 218.143 211.006Z" fill="#E95B40"/>
</g>
<g style="mix-blend-mode:screen">
<path d="M195.539 183.716C195.539 184.065 195.436 184.406 195.241 184.696C195.047 184.986 194.771 185.212 194.448 185.345C194.125 185.478 193.77 185.512 193.427 185.443C193.085 185.375 192.771 185.206 192.525 184.958C192.278 184.711 192.111 184.396 192.045 184.053C191.978 183.711 192.015 183.356 192.15 183.034C192.285 182.713 192.513 182.438 192.804 182.246C193.096 182.054 193.438 181.952 193.787 181.955C194.253 181.958 194.699 182.145 195.027 182.475C195.355 182.805 195.539 183.251 195.539 183.716Z" fill="#E95B40"/>
</g>
<g style="mix-blend-mode:screen">
<path d="M181.327 217.029C181.329 217.378 181.227 217.72 181.035 218.012C180.842 218.303 180.566 218.531 180.244 218.666C179.921 218.8 179.565 218.836 179.222 218.769C178.879 218.701 178.564 218.533 178.316 218.286C178.069 218.039 177.901 217.724 177.833 217.381C177.765 217.038 177.801 216.683 177.936 216.361C178.071 216.038 178.299 215.763 178.591 215.571C178.883 215.378 179.225 215.276 179.575 215.278C179.805 215.278 180.033 215.324 180.245 215.412C180.458 215.5 180.651 215.629 180.814 215.791C180.976 215.954 181.106 216.147 181.194 216.359C181.282 216.571 181.327 216.799 181.327 217.029Z" fill="#E95B40"/>
</g>
<g style="mix-blend-mode:screen">
<path d="M119.002 268.441C119.004 268.79 118.903 269.132 118.71 269.423C118.518 269.714 118.243 269.942 117.921 270.077C117.599 270.212 117.244 270.249 116.901 270.182C116.558 270.116 116.243 269.949 115.995 269.703C115.747 269.457 115.578 269.143 115.509 268.801C115.44 268.459 115.475 268.104 115.608 267.781C115.741 267.459 115.967 267.183 116.257 266.989C116.547 266.795 116.889 266.691 117.238 266.691C117.704 266.691 118.151 266.875 118.481 267.203C118.812 267.531 118.999 267.976 119.002 268.441Z" fill="#E95B40"/>
</g>
<g style="mix-blend-mode:screen">
<path d="M91.6722 241.278C91.6699 241.626 91.5645 241.966 91.3693 242.254C91.1742 242.542 90.898 242.766 90.5755 242.898C90.2531 243.029 89.8988 243.063 89.5575 242.993C89.2162 242.924 88.903 242.755 88.6575 242.509C88.412 242.262 88.2452 241.948 88.1781 241.606C88.111 241.265 88.1465 240.911 88.2804 240.59C88.4142 240.269 88.6402 239.994 88.93 239.801C89.2197 239.608 89.5603 239.505 89.9086 239.505C90.1411 239.505 90.3714 239.551 90.5861 239.64C90.8009 239.73 90.9958 239.86 91.1597 240.025C91.3236 240.19 91.4533 240.386 91.5412 240.601C91.6292 240.816 91.6737 241.046 91.6722 241.278Z" fill="#E95B40"/>
</g>
<g style="mix-blend-mode:screen">
<path d="M313.619 230.927C313.621 231.276 313.52 231.617 313.327 231.909C313.135 232.2 312.86 232.427 312.538 232.562C312.216 232.698 311.861 232.734 311.518 232.667C311.176 232.601 310.86 232.434 310.612 232.188C310.365 231.942 310.196 231.628 310.127 231.286C310.058 230.944 310.092 230.589 310.225 230.267C310.358 229.944 310.584 229.668 310.874 229.474C311.165 229.28 311.506 229.176 311.855 229.176C312.321 229.176 312.768 229.36 313.098 229.688C313.429 230.016 313.616 230.461 313.619 230.927Z" fill="#E95B40"/>
</g>
<g style="mix-blend-mode:screen">
<path d="M148.014 92.5781C148.017 92.927 147.915 93.2688 147.723 93.56C147.53 93.8512 147.256 94.0788 146.934 94.2139C146.612 94.349 146.257 94.3856 145.914 94.3189C145.571 94.2522 145.256 94.0854 145.008 93.8394C144.76 93.5935 144.591 93.2796 144.522 92.9376C144.453 92.5955 144.487 92.2407 144.62 91.9181C144.754 91.5955 144.98 91.3197 145.27 91.1256C145.56 90.9315 145.902 90.8279 146.251 90.8279C146.717 90.8279 147.163 91.0119 147.494 91.3398C147.824 91.6677 148.011 92.1129 148.014 92.5781Z" fill="#E95B40"/>
</g>
<g style="mix-blend-mode:screen">
<path d="M300.133 271.044C300.133 271.393 300.029 271.734 299.835 272.024C299.64 272.314 299.364 272.539 299.041 272.672C298.718 272.805 298.363 272.84 298.021 272.771C297.678 272.702 297.364 272.533 297.118 272.285C296.872 272.038 296.705 271.723 296.638 271.38C296.571 271.038 296.608 270.683 296.743 270.362C296.878 270.04 297.106 269.766 297.398 269.573C297.689 269.381 298.031 269.28 298.381 269.282C298.846 269.285 299.292 269.472 299.62 269.802C299.948 270.132 300.133 270.579 300.133 271.044Z" fill="#E95B40"/>
</g>
<g style="mix-blend-mode:screen">
<path d="M17.4517 120.167C18.2865 119.496 19.173 118.891 20.1028 118.359C21.8779 117.208 24.506 115.619 27.8949 113.546C34.6495 109.389 44.4472 103.517 56.4811 96.3202L56.7693 96.1475L57.092 96.2856L89.7588 109.954L90.1507 110.126L90.2429 110.541C93.5856 124.358 97.2511 139.466 101.09 155.31L101.239 155.955L100.675 156.289L61.3108 179.491L60.942 179.709L60.5501 179.537L27.964 165.592L27.6413 165.454L27.5606 165.109C24.3331 151.291 21.7396 140.11 19.9875 132.327C19.1115 128.435 18.443 125.418 18.0049 123.334C17.7329 122.295 17.5479 121.236 17.4517 120.167C17.8677 121.15 18.1994 122.167 18.443 123.207C19.0078 125.245 19.7916 128.25 20.7483 132.108C22.7309 139.846 25.5319 151.015 28.9207 164.752L28.5173 164.28L61.2071 177.994H60.4463L99.7524 154.7L99.3375 155.678C95.5452 139.834 91.9143 124.681 88.6176 110.886L89.1018 111.462L56.5503 97.5523H57.1727C45.0582 104.599 35.1682 110.322 28.2868 114.249C24.8288 116.218 22.1546 117.703 20.3103 118.739C19.3981 119.292 18.442 119.77 17.4517 120.167Z" fill="#E95B40"/>
</g>
<g style="mix-blend-mode:screen">
<path d="M60.8843 178.765C60.6422 178.823 59.3512 174.447 57.4262 167.32C55.5013 160.192 53.0461 150.313 50.4065 139.385C49.98 137.6 49.565 135.85 49.1616 134.18L49.6803 134.791C40.4589 130.864 32.3902 127.318 26.6269 124.692C20.8635 122.067 17.4055 120.374 17.4631 120.167C17.5207 119.96 21.1747 121.319 27.0879 123.622C33.0011 125.924 41.1966 129.298 50.4295 133.179L50.8445 133.351L50.9482 133.789L52.2046 138.982C54.8443 149.921 57.1381 159.835 58.7057 167.043C60.2733 174.252 61.0917 178.708 60.8843 178.765Z" fill="#E95B40"/>
</g>
<g style="mix-blend-mode:screen">
<path d="M50.0724 133.973C49.8188 133.547 58.4177 127.997 69.2874 121.583C80.1571 115.17 89.171 110.299 89.4246 110.737C89.6782 111.174 81.0792 116.713 70.2095 123.126C59.3398 129.54 50.3144 134.399 50.0724 133.973Z" fill="#E95B40"/>
</g>
<g style="mix-blend-mode:screen">
<path d="M246.579 109.389C247.411 108.714 248.298 108.11 249.23 107.581C251.006 106.43 253.634 104.841 257.011 102.78C263.777 98.6461 273.563 92.7391 285.586 85.5078L285.885 85.3236L286.208 85.4618L318.875 99.1412L319.267 99.3024L319.371 99.7169C322.702 113.535 326.379 128.642 330.206 144.486L330.367 145.131L329.791 145.476L290.473 168.678L290.104 168.897L289.724 168.724L257.046 154.78L256.723 154.642L256.642 154.296C253.403 140.479 250.81 129.298 249.058 121.514C248.182 117.622 247.513 114.605 247.086 112.533C246.815 111.49 246.63 110.427 246.533 109.355C246.935 110.351 247.252 111.379 247.478 112.429C248.032 114.467 248.827 117.473 249.784 121.341C251.766 129.068 254.556 140.237 257.945 153.974L257.553 153.502L290.243 167.181H289.493L328.88 143.933L328.454 144.924C324.661 129.079 321.042 113.926 317.734 100.131L318.229 100.707L285.666 86.7399H286.289C274.186 93.7869 264.296 99.5097 257.403 103.436C253.945 105.405 251.271 106.891 249.438 107.927C248.525 108.489 247.569 108.978 246.579 109.389Z" fill="#E95B40"/>
</g>
<g style="mix-blend-mode:screen">
<path d="M290 167.953C289.758 167.953 288.467 163.635 286.542 156.507C284.617 149.38 282.174 139.5 279.534 128.573C279.108 126.788 278.681 125.038 278.289 123.368L278.808 123.99C269.587 120.052 261.518 116.505 255.755 113.88C249.991 111.255 246.533 109.562 246.533 109.355C246.533 109.147 250.245 110.506 256.158 112.809C262.071 115.112 270.267 118.486 279.488 122.366L279.903 122.539L280.007 122.977C280.41 124.646 280.837 126.431 281.275 128.17C283.914 139.109 286.208 149.023 287.776 156.231C289.343 163.439 290.243 167.895 290 167.953Z" fill="#E95B40"/>
</g>
<g style="mix-blend-mode:screen" opacity="0.2">
<g opacity="0.87">
<path opacity="0.87" d="M319.766 98.6562L331.373 143.92L291.341 167.882L279.722 122.618L319.766 98.6562Z" fill="#E95B40"/>
<path opacity="0.87" d="M291.341 167.883L257.74 154.226L246.133 108.962L279.722 122.619L291.341 167.883Z" fill="url(#paint17_linear_3800)"/>
<path opacity="0.87" d="M279.722 122.618L246.133 108.962L286.177 85L319.765 98.6564L279.722 122.618Z" fill="#E95B40"/>
</g>
<path opacity="0.87" d="M319.765 98.6564L286.177 85L246.133 108.962L257.74 154.226L291.364 167.883L331.373 143.921L319.765 98.6564Z" fill="#D53038"/>
</g>
<g style="mix-blend-mode:screen">
<path d="M279.189 123.207C278.935 122.781 287.546 117.231 298.416 110.817C309.285 104.404 318.299 99.5329 318.553 99.9704C318.806 100.408 310.196 105.935 299.326 112.314C288.457 118.693 279.443 123.587 279.189 123.207Z" fill="#E95B40"/>
</g>
<g style="mix-blend-mode:screen" opacity="0.2">
<g opacity="0.87">
<path opacity="0.87" d="M89.6327 110.656L101.24 155.92L61.2078 179.882L49.5889 134.618L89.6327 110.656Z" fill="#E95B40"/>
<path opacity="0.87" d="M61.2078 179.883L27.6074 166.226L16 120.962L49.5889 134.619L61.2078 179.883Z" fill="url(#paint18_linear_3800)"/>
<path opacity="0.87" d="M49.5889 134.618L16 120.962L56.0438 97L89.6327 110.656L49.5889 134.618Z" fill="#E95B40"/>
</g>
<path opacity="0.87" d="M89.6327 110.656L56.0438 97L16 120.962L27.6074 166.226L61.2308 179.883L101.24 155.921L89.6327 110.656Z" fill="#D53038"/>
</g>
</g>
<defs>
<filter id="filter0_d_3800" x="80.1548" y="0.27124" width="165.24" height="162.871" filterUnits="userSpaceOnUse" color-interpolation-filters="sRGB">
<feFlood flood-opacity="0" result="BackgroundImageFix"/>
<feColorMatrix in="SourceAlpha" type="matrix" values="0 0 0 0 0 0 0 0 0 0 0 0 0 0 0 0 0 0 127 0" result="hardAlpha"/>
<feOffset dy="4"/>
<feGaussianBlur stdDeviation="20"/>
<feComposite in2="hardAlpha" operator="out"/>
<feColorMatrix type="matrix" values="0 0 0 0 0.917647 0 0 0 0 0.384314 0 0 0 0 0.25098 0 0 0 0.7 0"/>
<feBlend mode="normal" in2="BackgroundImageFix" result="effect1_dropShadow_3800"/>
<feBlend mode="normal" in="SourceGraphic" in2="effect1_dropShadow_3800" result="shape"/>
</filter>
<filter id="filter1_d_3800" x="14.6562" y="185.494" width="165.24" height="162.871" filterUnits="userSpaceOnUse" color-interpolation-filters="sRGB">
<feFlood flood-opacity="0" result="BackgroundImageFix"/>
<feColorMatrix in="SourceAlpha" type="matrix" values="0 0 0 0 0 0 0 0 0 0 0 0 0 0 0 0 0 0 127 0" result="hardAlpha"/>
<feOffset dy="4"/>
<feGaussianBlur stdDeviation="20"/>
<feComposite in2="hardAlpha" operator="out"/>
<feColorMatrix type="matrix" values="0 0 0 0 0.917647 0 0 0 0 0.384314 0 0 0 0 0.25098 0 0 0 0.7 0"/>
<feBlend mode="normal" in2="BackgroundImageFix" result="effect1_dropShadow_3800"/>
<feBlend mode="normal" in="SourceGraphic" in2="effect1_dropShadow_3800" result="shape"/>
</filter>
<filter id="filter2_d_3800" x="233.656" y="177.494" width="165.24" height="162.871" filterUnits="userSpaceOnUse" color-interpolation-filters="sRGB">
<feFlood flood-opacity="0" result="BackgroundImageFix"/>
<feColorMatrix in="SourceAlpha" type="matrix" values="0 0 0 0 0 0 0 0 0 0 0 0 0 0 0 0 0 0 127 0" result="hardAlpha"/>
<feOffset dy="4"/>
<feGaussianBlur stdDeviation="20"/>
<feComposite in2="hardAlpha" operator="out"/>
<feColorMatrix type="matrix" values="0 0 0 0 0.917647 0 0 0 0 0.384314 0 0 0 0 0.25098 0 0 0 0.7 0"/>
<feBlend mode="normal" in2="BackgroundImageFix" result="effect1_dropShadow_3800"/>
<feBlend mode="normal" in="SourceGraphic" in2="effect1_dropShadow_3800" result="shape"/>
</filter>
<filter id="filter3_d_3800" x="116.971" y="126.403" width="165.24" height="162.871" filterUnits="userSpaceOnUse" color-interpolation-filters="sRGB">
<feFlood flood-opacity="0" result="BackgroundImageFix"/>
<feColorMatrix in="SourceAlpha" type="matrix" values="0 0 0 0 0 0 0 0 0 0 0 0 0 0 0 0 0 0 127 0" result="hardAlpha"/>
<feOffset dy="4"/>
<feGaussianBlur stdDeviation="20"/>
<feComposite in2="hardAlpha" operator="out"/>
<feColorMatrix type="matrix" values="0 0 0 0 0.917647 0 0 0 0 0.384314 0 0 0 0 0.25098 0 0 0 0.7 0"/>
<feBlend mode="normal" in2="BackgroundImageFix" result="effect1_dropShadow_3800"/>
<feBlend mode="normal" in="SourceGraphic" in2="effect1_dropShadow_3800" result="shape"/>
</filter>
<linearGradient id="paint0_linear_3800" x1="174.598" y1="296.097" x2="220.442" y2="355.464" gradientUnits="userSpaceOnUse">
<stop offset="0.515625" stop-color="#B12E2A"/>
<stop offset="1" stop-color="#F47C45"/>
</linearGradient>
<linearGradient id="paint1_linear_3800" x1="120.752" y1="61.3564" x2="166.599" y2="120.712" gradientUnits="userSpaceOnUse">
<stop offset="0.515625" stop-color="#B12E2A"/>
<stop offset="1" stop-color="#F47C45"/>
</linearGradient>
<linearGradient id="paint2_linear_3800" x1="209.081" y1="51.1062" x2="139.731" y2="92.3615" gradientUnits="userSpaceOnUse">
<stop stop-color="#FFB23F"/>
<stop offset="1" stop-color="#FFE973" stop-opacity="0"/>
</linearGradient>
<linearGradient id="paint3_linear_3800" x1="120.731" y1="61.1787" x2="166.575" y2="120.546" gradientUnits="userSpaceOnUse">
<stop offset="0.515625" stop-color="#B12E2A"/>
<stop offset="1" stop-color="#F47C45"/>
</linearGradient>
<linearGradient id="paint4_linear_3800" x1="171.106" y1="41.2085" x2="133.597" y2="98.695" gradientUnits="userSpaceOnUse">
<stop stop-color="#AF142E"/>
<stop offset="1" stop-color="#F27744"/>
</linearGradient>
<linearGradient id="paint5_linear_3800" x1="55.7301" y1="246.178" x2="101.574" y2="305.546" gradientUnits="userSpaceOnUse">
<stop offset="0.515625" stop-color="#B12E2A"/>
<stop offset="1" stop-color="#F47C45"/>
</linearGradient>
<linearGradient id="paint6_linear_3800" x1="106.105" y1="226.208" x2="68.5965" y2="283.695" gradientUnits="userSpaceOnUse">
<stop stop-color="#AF142E"/>
<stop offset="1" stop-color="#F27744"/>
</linearGradient>
<linearGradient id="paint7_linear_3800" x1="55.2539" y1="246.579" x2="101.101" y2="305.935" gradientUnits="userSpaceOnUse">
<stop offset="0.515625" stop-color="#B12E2A"/>
<stop offset="1" stop-color="#F47C45"/>
</linearGradient>
<linearGradient id="paint8_linear_3800" x1="26095.5" y1="18527.7" x2="21372.6" y2="22041.1" gradientUnits="userSpaceOnUse">
<stop stop-color="#FFB23F"/>
<stop offset="1" stop-color="#FFCF73" stop-opacity="0"/>
</linearGradient>
<linearGradient id="paint9_linear_3800" x1="274.254" y1="238.579" x2="320.101" y2="297.935" gradientUnits="userSpaceOnUse">
<stop offset="0.515625" stop-color="#B12E2A"/>
<stop offset="1" stop-color="#F47C45"/>
</linearGradient>
<linearGradient id="paint10_linear_3800" x1="26314.5" y1="18519.7" x2="21591.6" y2="22033.1" gradientUnits="userSpaceOnUse">
<stop stop-color="#FFB23F"/>
<stop offset="1" stop-color="#FFCF73" stop-opacity="0"/>
</linearGradient>
<linearGradient id="paint11_linear_3800" x1="274.731" y1="238.179" x2="320.575" y2="297.546" gradientUnits="userSpaceOnUse">
<stop offset="0.515625" stop-color="#B12E2A"/>
<stop offset="1" stop-color="#F47C45"/>
</linearGradient>
<linearGradient id="paint12_linear_3800" x1="325.106" y1="218.209" x2="287.597" y2="275.695" gradientUnits="userSpaceOnUse">
<stop stop-color="#AF142E"/>
<stop offset="1" stop-color="#F27744"/>
</linearGradient>
<linearGradient id="paint13_linear_3800" x1="157.568" y1="187.488" x2="203.415" y2="246.844" gradientUnits="userSpaceOnUse">
<stop offset="0.515625" stop-color="#B12E2A"/>
<stop offset="1" stop-color="#F47C45"/>
</linearGradient>
<linearGradient id="paint14_linear_3800" x1="17266.4" y1="15554" x2="12542.6" y2="19066.6" gradientUnits="userSpaceOnUse">
<stop stop-color="#FF6D3F"/>
<stop offset="1" stop-color="#FFD873" stop-opacity="0"/>
</linearGradient>
<linearGradient id="paint15_linear_3800" x1="157.731" y1="187.179" x2="203.575" y2="246.546" gradientUnits="userSpaceOnUse">
<stop offset="0.515625" stop-color="#B12E2A"/>
<stop offset="1" stop-color="#F47C45"/>
</linearGradient>
<linearGradient id="paint16_linear_3800" x1="208.106" y1="167.209" x2="170.597" y2="224.695" gradientUnits="userSpaceOnUse">
<stop stop-color="#AF142E"/>
<stop offset="1" stop-color="#F27744"/>
</linearGradient>
<linearGradient id="paint17_linear_3800" x1="246.731" y1="110.097" x2="292.575" y2="169.464" gradientUnits="userSpaceOnUse">
<stop offset="0.515625" stop-color="#B12E2A"/>
<stop offset="1" stop-color="#F47C45"/>
</linearGradient>
<linearGradient id="paint18_linear_3800" x1="16.5978" y1="122.097" x2="62.4417" y2="181.464" gradientUnits="userSpaceOnUse">
<stop offset="0.515625" stop-color="#B12E2A"/>
<stop offset="1" stop-color="#F47C45"/>
</linearGradient>
<clipPath id="clip0_3800">
<rect width="404" height="363" fill="white"/>
</clipPath>
</defs>
</svg>
