<svg width="401" height="400" viewBox="0 0 401 400" fill="none" xmlns="http://www.w3.org/2000/svg">
<g clip-path="url(#clip0_4323:17133)" filter="url(#filter0_i_4323:17133)">
<g opacity="0.1" filter="url(#filter1_f_4323:17133)">
<circle cx="202" cy="200" r="178" fill="url(#paint0_radial_4323:17133)"/>
</g>
<g opacity="0.1" filter="url(#filter2_f_4323:17133)">
<circle cx="202" cy="200" r="101" fill="url(#paint1_radial_4323:17133)"/>
</g>
<path d="M215.211 72.2469L235.599 52.6513V31.4417C236.984 31.2052 238.23 30.4573 239.09 29.346C239.95 28.2348 240.361 26.8413 240.242 25.4413C240.123 24.0413 239.483 22.7369 238.449 21.7862C237.414 20.8356 236.06 20.3081 234.655 20.3081C233.25 20.3081 231.897 20.8356 230.862 21.7862C229.827 22.7369 229.187 24.0413 229.069 25.4413C228.95 26.8413 229.361 28.2348 230.221 29.346C231.081 30.4573 232.327 31.2052 233.712 31.4417V51.849L213.323 71.4445V116.101H211.652V141.766H216.882V116.101H215.211V72.2469ZM230.974 25.9198C230.974 25.1843 231.192 24.4653 231.601 23.8537C232.01 23.2421 232.59 22.7654 233.27 22.4839C233.95 22.2025 234.697 22.1288 235.419 22.2723C236.14 22.4158 236.803 22.77 237.323 23.2901C237.843 23.8102 238.197 24.4729 238.341 25.1943C238.484 25.9157 238.411 26.6635 238.129 27.343C237.848 28.0226 237.371 28.6034 236.759 29.0121C236.148 29.4207 235.429 29.6388 234.693 29.6388C234.204 29.6401 233.72 29.5447 233.268 29.3583C232.817 29.1718 232.406 28.8979 232.061 28.5524C231.715 28.2068 231.441 27.7963 231.255 27.3445C231.068 26.8927 230.973 26.4086 230.974 25.9198Z" fill="url(#paint2_linear_4323:17133)"/>
<path d="M187.375 71.4445L166.996 51.849V31.4417C168.381 31.2052 169.627 30.4573 170.487 29.346C171.346 28.2348 171.758 26.8413 171.639 25.4413C171.52 24.0413 170.88 22.7369 169.846 21.7862C168.811 20.8356 167.457 20.3081 166.052 20.3081C164.647 20.3081 163.293 20.8356 162.259 21.7862C161.224 22.7369 160.584 24.0413 160.465 25.4413C160.347 26.8413 160.758 28.2348 161.618 29.346C162.478 30.4573 163.723 31.2052 165.108 31.4417V52.6513L185.487 72.2469V116.101H183.816V141.766H189.046V116.101H187.375V71.4445ZM162.352 25.9198C162.352 25.1843 162.57 24.4653 162.979 23.8537C163.387 23.2421 163.968 22.7654 164.648 22.4839C165.327 22.2025 166.075 22.1288 166.797 22.2723C167.518 22.4158 168.181 22.77 168.701 23.2901C169.221 23.8102 169.575 24.4729 169.719 25.1943C169.862 25.9157 169.788 26.6635 169.507 27.343C169.225 28.0226 168.749 28.6034 168.137 29.0121C167.526 29.4207 166.807 29.6388 166.071 29.6388C165.085 29.6388 164.139 29.247 163.441 28.5496C162.744 27.8521 162.352 26.9062 162.352 25.9198Z" fill="url(#paint3_linear_4323:17133)"/>
<path d="M200.372 7.01636e-05C198.965 -0.00697264 197.607 0.516416 196.568 1.46598C195.529 2.41554 194.886 3.72157 194.767 5.12392C194.648 6.52627 195.062 7.92199 195.926 9.03307C196.789 10.1441 198.04 10.889 199.429 11.1193V116.101H197.758V141.766H202.987V116.101H201.316V11.1193C202.705 10.889 203.955 10.1441 204.819 9.03307C205.683 7.92199 206.097 6.52627 205.978 5.12392C205.859 3.72157 205.216 2.41554 204.177 1.46598C203.138 0.516416 201.78 -0.00697264 200.372 7.01636e-05ZM200.372 9.31644C199.636 9.31831 198.916 9.10155 198.303 8.69361C197.69 8.28568 197.212 7.70495 196.929 7.02501C196.646 6.34507 196.572 5.59652 196.715 4.87423C196.858 4.15194 197.213 3.48841 197.733 2.96773C198.254 2.44705 198.918 2.09266 199.64 1.94946C200.362 1.80626 201.111 1.88071 201.791 2.16336C202.471 2.44601 203.051 2.92415 203.459 3.53718C203.867 4.15021 204.084 4.87054 204.082 5.60689C204.08 6.58996 203.688 7.53205 202.993 8.22719C202.298 8.92233 201.356 9.31395 200.372 9.31644Z" fill="url(#paint4_linear_4323:17133)"/>
<path d="M254.128 65.2808C253.097 65.2805 252.086 65.565 251.207 66.1028C250.327 66.6405 249.614 67.4107 249.144 68.3284C248.674 69.246 248.467 70.2756 248.546 71.3034C248.624 72.3313 248.985 73.3176 249.588 74.1535L227.387 95.8634V116.101H225.594V141.766H230.832V116.101H229.275V96.6657L250.928 75.5127C251.65 76.017 252.481 76.3441 253.353 76.4675C254.226 76.5908 255.114 76.5069 255.948 76.2226C256.782 75.9383 257.537 75.4616 258.152 74.8311C258.767 74.2006 259.225 73.4341 259.488 72.5936C259.752 71.7531 259.814 70.8624 259.669 69.9936C259.524 69.1248 259.176 68.3023 258.654 67.5929C258.132 66.8834 257.45 66.3069 256.664 65.9101C255.878 65.5134 255.009 65.3075 254.128 65.3091V65.2808ZM254.128 74.6066C253.393 74.6066 252.674 74.3885 252.062 73.9798C251.45 73.5712 250.974 72.9903 250.692 72.3108C250.411 71.6312 250.337 70.8834 250.481 70.162C250.624 69.4406 250.978 68.778 251.498 68.2578C252.018 67.7377 252.681 67.3835 253.403 67.24C254.124 67.0965 254.872 67.1702 255.551 67.4517C256.231 67.7331 256.812 68.2098 257.22 68.8214C257.629 69.433 257.847 70.152 257.847 70.8876C257.837 71.8674 257.441 72.8036 256.745 73.4929C256.048 74.1822 255.108 74.5689 254.128 74.5688V74.6066Z" fill="url(#paint5_linear_4323:17133)"/>
<path d="M173.443 95.8728L151.242 74.1629C152.041 73.0202 152.383 71.6194 152.199 70.2372C152.015 68.855 151.319 67.592 150.249 66.6979C149.179 65.8038 147.813 65.3436 146.42 65.4083C145.027 65.473 143.709 66.0579 142.727 67.0473C141.744 68.0368 141.169 69.3588 141.114 70.7521C141.059 72.1453 141.529 73.5086 142.43 74.5723C143.332 75.6359 144.599 76.3227 145.983 76.4969C147.366 76.671 148.765 76.3198 149.902 75.5127L171.555 96.694V116.101H169.903V141.766H175.133V116.101H173.462L173.443 95.8728ZM146.693 74.5688C145.957 74.5688 145.238 74.3507 144.626 73.9421C144.015 73.5334 143.538 72.9526 143.257 72.273C142.975 71.5935 142.902 70.8457 143.045 70.1243C143.189 69.4029 143.543 68.7402 144.063 68.2201C144.583 67.7 145.246 67.3458 145.967 67.2023C146.689 67.0588 147.436 67.1324 148.116 67.4139C148.795 67.6954 149.376 68.1721 149.785 68.7837C150.194 69.3952 150.412 70.1143 150.412 70.8498C150.412 71.8362 150.02 72.7821 149.322 73.4795C148.625 74.177 147.679 74.5688 146.693 74.5688Z" fill="url(#paint6_linear_4323:17133)"/>
<path d="M169.895 116.063V141.728H175.124V116.063H169.895Z" fill="url(#paint7_linear_4323:17133)"/>
<path d="M183.826 116.063V141.728H189.055V116.063H183.826Z" fill="url(#paint8_linear_4323:17133)"/>
<path d="M197.759 116.072V141.737H202.988V116.072H197.759Z" fill="url(#paint9_linear_4323:17133)"/>
<path d="M211.7 116.063V141.728H216.929V116.063H211.7Z" fill="url(#paint10_linear_4323:17133)"/>
<path d="M225.632 116.063V141.728H230.861V116.063H225.632Z" fill="url(#paint11_linear_4323:17133)"/>
<path d="M116.101 174.519H141.766V169.29H116.101V170.961H96.6658L75.5128 149.298C76.3264 148.135 76.6733 146.708 76.4848 145.301C76.2963 143.894 75.5862 142.609 74.4951 141.7C73.4041 140.792 72.0116 140.326 70.5936 140.396C69.1756 140.466 67.8355 141.065 66.8387 142.076C65.8419 143.087 65.2611 144.436 65.2115 145.854C65.1618 147.273 65.6468 148.659 66.5705 149.737C67.4942 150.815 68.7891 151.507 70.1987 151.676C71.6084 151.845 73.03 151.478 74.1819 150.648L95.8918 172.849H116.101V174.519ZM74.5689 146.098C74.5708 146.834 74.3542 147.554 73.9467 148.167C73.5392 148.78 72.959 149.258 72.2796 149.541C71.6003 149.824 70.8522 149.899 70.1302 149.756C69.4081 149.614 68.7446 149.26 68.2235 148.741C67.7025 148.221 67.3473 147.558 67.2031 146.837C67.0588 146.115 67.1319 145.367 67.4131 144.687C67.6943 144.006 68.171 143.425 68.7828 143.016C69.3945 142.607 70.1139 142.389 70.8499 142.389C71.8338 142.391 72.7769 142.782 73.4736 143.477C74.1702 144.172 74.5639 145.114 74.5689 146.098Z" fill="url(#paint12_linear_4323:17133)"/>
<path d="M116.101 188.451H141.766V183.222H116.101V184.893H72.2469L52.6514 164.514H31.4417C31.2052 163.131 30.4583 161.888 29.3489 161.03C28.2395 160.172 26.8484 159.762 25.4509 159.88C24.0534 159.999 22.7514 160.638 21.8025 161.671C20.8537 162.704 20.3271 164.055 20.3271 165.458C20.3271 166.86 20.8537 168.212 21.8025 169.245C22.7514 170.277 24.0534 170.916 25.4509 171.035C26.8484 171.154 28.2395 170.743 29.3489 169.885C30.4583 169.027 31.2052 167.784 31.4417 166.402H51.849L71.4446 186.781H116.101V188.451ZM29.6389 165.458C29.6389 166.193 29.4208 166.912 29.0121 167.524C28.6035 168.135 28.0226 168.612 27.3431 168.894C26.6635 169.175 25.9157 169.249 25.1943 169.105C24.4729 168.962 23.8103 168.608 23.2901 168.087C22.77 167.567 22.4158 166.905 22.2723 166.183C22.1288 165.462 22.2025 164.714 22.484 164.035C22.7655 163.355 23.2421 162.774 23.8537 162.366C24.4653 161.957 25.1843 161.739 25.9199 161.739C26.9062 161.739 27.8522 162.131 28.5496 162.828C29.2471 163.525 29.6389 164.471 29.6389 165.458Z" fill="url(#paint13_linear_4323:17133)"/>
<path d="M20.3223 234.089C20.3153 235.497 20.8387 236.855 21.7882 237.894C22.7378 238.933 24.0438 239.576 25.4462 239.695C26.8485 239.814 28.2443 239.4 29.3553 238.536C30.4664 237.672 31.2113 236.422 31.4416 235.033H52.6512L72.2467 214.654H116.101V216.325H141.766V211.096H116.101V212.766H71.4444L51.8489 233.145H31.4416C31.2113 231.757 30.4664 230.506 29.3553 229.642C28.2443 228.779 26.8485 228.365 25.4462 228.484C24.0438 228.603 22.7378 229.246 21.7882 230.285C20.8387 231.324 20.3153 232.682 20.3223 234.089ZM22.2102 234.089C22.2102 233.353 22.4285 232.634 22.8376 232.022C23.2466 231.41 23.828 230.934 24.5081 230.653C25.1882 230.371 25.9365 230.298 26.6582 230.442C27.3798 230.587 28.0425 230.942 28.5622 231.463C29.082 231.984 29.4354 232.648 29.5778 233.37C29.7203 234.092 29.6453 234.84 29.3623 235.519C29.0794 236.198 28.6013 236.779 27.9884 237.186C27.3756 237.594 26.6557 237.81 25.9197 237.808C25.4318 237.808 24.9486 237.712 24.4979 237.525C24.0473 237.338 23.6379 237.064 23.2933 236.718C22.9487 236.373 22.6757 235.963 22.4898 235.512C22.3039 235.061 22.2089 234.577 22.2102 234.089Z" fill="url(#paint14_linear_4323:17133)"/>
<path d="M7.01636e-05 199.778C-0.00697264 201.186 0.516416 202.544 1.46598 203.583C2.41554 204.622 3.72157 205.265 5.12392 205.384C6.52627 205.503 7.92199 205.089 9.03307 204.225C10.1441 203.361 10.889 202.111 11.1193 200.722H116.101V202.393H141.766V197.164H116.101V198.834H11.1193C10.889 197.446 10.1441 196.195 9.03307 195.331C7.92199 194.467 6.52627 194.054 5.12392 194.173C3.72157 194.292 2.41554 194.935 1.46598 195.974C0.516416 197.012 -0.00697264 198.371 7.01636e-05 199.778ZM1.88789 199.778C1.88602 199.042 2.10255 198.322 2.51006 197.709C2.91757 197.097 3.49774 196.619 4.17713 196.336C4.85652 196.053 5.60459 195.978 6.32662 196.12C7.04866 196.263 7.7122 196.616 8.23326 197.136C8.75431 197.655 9.10945 198.318 9.25372 199.04C9.39798 199.761 9.32489 200.51 9.04369 201.19C8.76248 201.87 8.28582 202.451 7.67403 202.86C7.06224 203.269 6.34284 203.488 5.60689 203.488C4.62294 203.485 3.67987 203.094 2.98323 202.399C2.28659 201.704 1.89287 200.762 1.88789 199.778Z" fill="url(#paint15_linear_4323:17133)"/>
<path d="M65.2803 253.534C65.2851 254.411 65.4955 255.274 65.8947 256.055C66.2939 256.836 66.8707 257.512 67.5787 258.03C68.2868 258.547 69.1063 258.892 69.9715 259.035C70.8368 259.178 71.7235 259.116 72.5605 258.854C73.3975 258.593 74.1614 258.138 74.7909 257.528C75.4204 256.917 75.8978 256.167 76.1849 255.339C76.472 254.51 76.5607 253.625 76.4438 252.756C76.327 251.887 76.0079 251.057 75.5122 250.334L96.6935 228.681H116.1V230.257H141.765V225.028H116.1V226.793H95.9007L74.1908 248.994C73.2418 248.304 72.098 247.934 70.9248 247.936C69.4375 247.941 68.0117 248.531 66.9555 249.578C65.8994 250.626 65.2976 252.047 65.2803 253.534ZM67.1681 253.534C67.1681 252.798 67.3862 252.079 67.7949 251.468C68.2035 250.856 68.7843 250.379 69.4639 250.098C70.1434 249.816 70.8912 249.743 71.6126 249.886C72.334 250.03 72.9967 250.384 73.5168 250.904C74.0369 251.424 74.3911 252.087 74.5346 252.808C74.6781 253.53 74.6045 254.277 74.323 254.957C74.0415 255.637 73.5648 256.217 72.9533 256.626C72.3417 257.035 71.6226 257.253 70.8871 257.253C69.9007 257.253 68.9548 256.861 68.2574 256.164C67.5599 255.466 67.1681 254.52 67.1681 253.534Z" fill="url(#paint16_linear_4323:17133)"/>
<path d="M141.672 169.29H116.007V174.519H141.672V169.29Z" fill="url(#paint17_linear_4323:17133)"/>
<path d="M141.672 183.222H116.007V188.451H141.672V183.222Z" fill="url(#paint18_linear_4323:17133)"/>
<path d="M141.672 197.164H116.007V202.393H141.672V197.164Z" fill="url(#paint19_linear_4323:17133)"/>
<path d="M141.672 211.096H116.007V216.325H141.672V211.096Z" fill="url(#paint20_linear_4323:17133)"/>
<path d="M141.672 225.028H116.007V230.257H141.672V225.028Z" fill="url(#paint21_linear_4323:17133)"/>
<path d="M283.928 172.849H304.127L325.837 150.648C326.989 151.478 328.411 151.845 329.82 151.676C331.23 151.507 332.525 150.815 333.448 149.737C334.372 148.659 334.857 147.273 334.808 145.854C334.758 144.436 334.177 143.087 333.18 142.076C332.183 141.065 330.843 140.466 329.425 140.396C328.007 140.326 326.615 140.792 325.524 141.7C324.433 142.609 323.723 143.894 323.534 145.301C323.346 146.708 323.693 148.135 324.506 149.298L303.325 171.008H283.928V169.337H258.263V174.566H283.928V172.849ZM329.112 142.389C329.848 142.389 330.568 142.607 331.18 143.016C331.791 143.425 332.268 144.006 332.549 144.687C332.83 145.367 332.904 146.115 332.759 146.837C332.615 147.558 332.26 148.221 331.739 148.741C331.218 149.26 330.554 149.614 329.832 149.756C329.11 149.899 328.362 149.824 327.683 149.541C327.003 149.258 326.423 148.78 326.016 148.167C325.608 147.554 325.392 146.834 325.393 146.098C325.393 145.61 325.49 145.127 325.677 144.676C325.864 144.226 326.138 143.816 326.483 143.472C326.829 143.127 327.239 142.854 327.69 142.668C328.141 142.482 328.625 142.387 329.112 142.389Z" fill="url(#paint22_linear_4323:17133)"/>
<path d="M283.928 186.781H328.556L348.151 166.402H368.558C368.795 167.787 369.543 169.032 370.654 169.892C371.765 170.752 373.159 171.163 374.559 171.045C375.959 170.926 377.263 170.286 378.214 169.251C379.164 168.217 379.692 166.863 379.692 165.458C379.692 164.053 379.164 162.699 378.214 161.664C377.263 160.63 375.959 159.99 374.559 159.871C373.159 159.752 371.765 160.164 370.654 161.024C369.543 161.883 368.795 163.129 368.558 164.514H347.358L327.753 184.893H283.928V183.222H258.263V188.452H283.928V186.781ZM374.071 161.739C374.807 161.737 375.527 161.954 376.14 162.361C376.752 162.769 377.231 163.349 377.513 164.028C377.796 164.708 377.871 165.456 377.729 166.178C377.587 166.9 377.233 167.563 376.713 168.084C376.194 168.605 375.531 168.96 374.809 169.105C374.088 169.249 373.339 169.176 372.659 168.895C371.979 168.613 371.398 168.137 370.989 167.525C370.58 166.913 370.361 166.194 370.361 165.458C370.364 164.474 370.755 163.531 371.45 162.834C372.145 162.138 373.087 161.744 374.071 161.739Z" fill="url(#paint23_linear_4323:17133)"/>
<path d="M374.071 228.492C372.751 228.495 371.475 228.963 370.467 229.814C369.459 230.666 368.783 231.845 368.558 233.145H348.151L328.556 212.766H283.928V211.096H258.263V216.325H283.928V214.654H327.744L347.358 235.033H368.568C368.748 236.085 369.224 237.063 369.942 237.853C370.659 238.643 371.587 239.211 372.617 239.491C373.646 239.771 374.735 239.75 375.753 239.432C376.771 239.114 377.678 238.512 378.365 237.696C379.053 236.88 379.493 235.885 379.634 234.828C379.774 233.77 379.61 232.694 379.16 231.727C378.709 230.76 377.992 229.941 377.092 229.368C376.192 228.795 375.147 228.491 374.08 228.492H374.071ZM374.071 237.808C373.335 237.808 372.616 237.59 372.005 237.182C371.393 236.773 370.916 236.192 370.635 235.512C370.353 234.833 370.28 234.085 370.423 233.364C370.567 232.642 370.921 231.98 371.441 231.46C371.961 230.939 372.624 230.585 373.345 230.442C374.067 230.298 374.814 230.372 375.494 230.653C376.174 230.935 376.754 231.412 377.163 232.023C377.572 232.635 377.79 233.354 377.79 234.089C377.79 235.076 377.398 236.022 376.701 236.719C376.003 237.416 375.057 237.808 374.071 237.808Z" fill="url(#paint24_linear_4323:17133)"/>
<path d="M394.393 194.171C393.072 194.173 391.794 194.642 390.785 195.495C389.776 196.349 389.101 197.531 388.881 198.834H283.928V197.164H258.263V202.393H283.928V200.722H388.89C389.072 201.773 389.55 202.75 390.268 203.538C390.986 204.327 391.915 204.893 392.944 205.172C393.974 205.45 395.061 205.429 396.079 205.11C397.096 204.792 398.002 204.189 398.689 203.373C399.375 202.557 399.814 201.562 399.955 200.504C400.095 199.447 399.93 198.372 399.48 197.405C399.029 196.439 398.312 195.621 397.413 195.048C396.513 194.475 395.469 194.171 394.403 194.171H394.393ZM394.393 203.488C393.657 203.488 392.938 203.269 392.326 202.86C391.714 202.451 391.238 201.87 390.956 201.19C390.675 200.51 390.602 199.761 390.746 199.04C390.891 198.318 391.246 197.655 391.767 197.136C392.288 196.616 392.951 196.263 393.673 196.12C394.395 195.978 395.144 196.053 395.823 196.336C396.502 196.618 397.083 197.097 397.49 197.709C397.898 198.322 398.114 199.042 398.112 199.778C398.112 200.266 398.016 200.749 397.829 201.2C397.642 201.651 397.368 202.06 397.022 202.405C396.677 202.749 396.267 203.022 395.816 203.208C395.365 203.394 394.881 203.489 394.393 203.488Z" fill="url(#paint25_linear_4323:17133)"/>
<path d="M329.112 247.937C327.939 247.932 326.795 248.303 325.847 248.994L304.137 226.793H283.928V225.028H258.263V230.257H283.928V228.681H303.334L324.516 250.334C323.8 251.362 323.449 252.599 323.52 253.85C323.59 255.1 324.078 256.291 324.906 257.231C325.733 258.171 326.851 258.807 328.083 259.036C329.314 259.266 330.586 259.076 331.697 258.497C332.807 257.918 333.691 256.983 334.208 255.842C334.724 254.701 334.843 253.42 334.545 252.203C334.247 250.987 333.55 249.905 332.566 249.132C331.581 248.358 330.365 247.937 329.112 247.937ZM329.112 257.253C328.377 257.255 327.657 257.038 327.044 256.631C326.431 256.223 325.953 255.643 325.67 254.964C325.387 254.284 325.312 253.536 325.454 252.814C325.597 252.092 325.95 251.429 326.47 250.908C326.99 250.386 327.652 250.031 328.374 249.887C329.096 249.743 329.844 249.816 330.524 250.097C331.204 250.378 331.786 250.855 332.195 251.467C332.604 252.078 332.822 252.798 332.822 253.534C332.82 254.518 332.428 255.461 331.733 256.158C331.038 256.854 330.096 257.248 329.112 257.253Z" fill="url(#paint26_linear_4323:17133)"/>
<path d="M283.928 169.29H258.263V174.519H283.928V169.29Z" fill="url(#paint27_linear_4323:17133)"/>
<path d="M283.928 183.222H258.263V188.451H283.928V183.222Z" fill="url(#paint28_linear_4323:17133)"/>
<path d="M283.928 197.164H258.263V202.393H283.928V197.164Z" fill="url(#paint29_linear_4323:17133)"/>
<path d="M283.928 211.096H258.263V216.325H283.928V211.096Z" fill="url(#paint30_linear_4323:17133)"/>
<path d="M283.928 225.028H258.263V230.257H283.928V225.028Z" fill="url(#paint31_linear_4323:17133)"/>
<path d="M215.211 283.569H216.882V257.895H211.652V283.569H213.323V328.187L233.712 347.792V368.2C232.329 368.436 231.086 369.183 230.228 370.292C229.37 371.402 228.959 372.793 229.078 374.191C229.197 375.588 229.836 376.89 230.869 377.839C231.901 378.788 233.253 379.314 234.655 379.314C236.058 379.314 237.409 378.788 238.442 377.839C239.475 376.89 240.114 375.588 240.233 374.191C240.351 372.793 239.941 371.402 239.083 370.292C238.225 369.183 236.982 368.436 235.599 368.2V346.99L215.211 327.385V283.569ZM234.693 370.012C235.429 370.012 236.148 370.23 236.759 370.639C237.371 371.047 237.848 371.628 238.129 372.308C238.411 372.987 238.484 373.735 238.341 374.456C238.197 375.178 237.843 375.841 237.323 376.361C236.803 376.881 236.14 377.235 235.419 377.378C234.697 377.522 233.95 377.448 233.27 377.167C232.59 376.885 232.01 376.409 231.601 375.797C231.192 375.186 230.974 374.467 230.974 373.731C230.974 372.745 231.366 371.799 232.063 371.101C232.761 370.404 233.707 370.012 234.693 370.012Z" fill="url(#paint32_linear_4323:17133)"/>
<path d="M187.375 283.569H189.046V257.895H183.816V283.569H185.487V327.385L165.108 346.99V368.2C163.723 368.436 162.478 369.184 161.618 370.295C160.758 371.407 160.347 372.8 160.465 374.2C160.584 375.6 161.224 376.904 162.259 377.855C163.293 378.806 164.647 379.333 166.052 379.333C167.457 379.333 168.811 378.806 169.846 377.855C170.88 376.904 171.52 375.6 171.639 374.2C171.758 372.8 171.346 371.407 170.487 370.295C169.627 369.184 168.381 368.436 166.996 368.2V347.792L187.375 328.187V283.569ZM166.052 370.012C166.788 370.012 167.507 370.23 168.118 370.639C168.73 371.047 169.207 371.628 169.488 372.308C169.77 372.987 169.843 373.735 169.7 374.456C169.556 375.178 169.202 375.841 168.682 376.361C168.162 376.881 167.499 377.235 166.778 377.378C166.056 377.522 165.308 377.448 164.629 377.167C163.949 376.885 163.369 376.409 162.96 375.797C162.551 375.186 162.333 374.467 162.333 373.731C162.336 372.745 162.728 371.801 163.425 371.104C164.122 370.407 165.067 370.014 166.052 370.012Z" fill="url(#paint33_linear_4323:17133)"/>
<path d="M205.97 394.034C205.969 392.713 205.502 391.435 204.651 390.425C203.799 389.414 202.619 388.737 201.317 388.513V283.569H202.987V257.895H197.758V283.569H199.429V388.513C198.378 388.692 197.4 389.169 196.61 389.886C195.82 390.603 195.252 391.53 194.972 392.559C194.692 393.588 194.711 394.676 195.029 395.694C195.346 396.713 195.947 397.619 196.762 398.307C197.577 398.995 198.572 399.436 199.629 399.577C200.686 399.719 201.761 399.556 202.729 399.107C203.696 398.658 204.515 397.942 205.089 397.044C205.664 396.145 205.969 395.101 205.97 394.034ZM204.082 394.034C204.082 394.77 203.864 395.49 203.455 396.102C203.046 396.713 202.464 397.19 201.784 397.471C201.104 397.752 200.356 397.826 199.634 397.681C198.913 397.537 198.25 397.182 197.73 396.661C197.211 396.14 196.857 395.476 196.715 394.754C196.572 394.032 196.647 393.284 196.93 392.605C197.213 391.925 197.691 391.345 198.304 390.938C198.917 390.53 199.637 390.314 200.373 390.315C200.861 390.315 201.344 390.412 201.795 390.599C202.245 390.786 202.655 391.06 202.999 391.405C203.344 391.751 203.617 392.161 203.803 392.612C203.989 393.063 204.084 393.547 204.082 394.034Z" fill="url(#paint34_linear_4323:17133)"/>
<path d="M259.735 328.744C259.735 327.72 259.455 326.716 258.924 325.84C258.393 324.965 257.632 324.252 256.723 323.779C255.815 323.306 254.795 323.091 253.773 323.157C252.751 323.224 251.767 323.57 250.928 324.157L229.275 302.994V283.569H230.861V257.895H225.594V283.569H227.359V303.768L249.56 325.478C248.873 326.425 248.503 327.565 248.502 328.735C248.471 329.49 248.593 330.243 248.861 330.95C249.128 331.657 249.536 332.302 250.059 332.847C250.583 333.392 251.211 333.826 251.906 334.123C252.601 334.419 253.349 334.572 254.104 334.572C254.86 334.572 255.608 334.419 256.303 334.123C256.998 333.826 257.626 333.392 258.15 332.847C258.673 332.302 259.081 331.657 259.348 330.95C259.616 330.243 259.738 329.49 259.707 328.735L259.735 328.744ZM257.847 328.744C257.849 329.48 257.632 330.2 257.225 330.813C256.817 331.426 256.237 331.904 255.558 332.187C254.878 332.47 254.13 332.545 253.408 332.402C252.686 332.26 252.023 331.907 251.502 331.387C250.981 330.867 250.626 330.204 250.481 329.483C250.337 328.761 250.41 328.013 250.691 327.333C250.972 326.653 251.449 326.071 252.061 325.662C252.673 325.253 253.392 325.035 254.128 325.035C255.112 325.037 256.055 325.429 256.752 326.123C257.448 326.818 257.842 327.76 257.847 328.744Z" fill="url(#paint35_linear_4323:17133)"/>
<path d="M173.443 283.569H175.114V257.895H169.904V283.569H171.575V302.994L149.921 324.185C148.893 323.469 147.655 323.118 146.404 323.189C145.154 323.26 143.963 323.749 143.023 324.577C142.082 325.405 141.447 326.524 141.218 327.756C140.989 328.987 141.18 330.26 141.761 331.37C142.341 332.481 143.277 333.364 144.419 333.88C145.561 334.395 146.842 334.512 148.059 334.213C149.275 333.914 150.356 333.215 151.128 332.229C151.901 331.242 152.32 330.025 152.319 328.773C152.318 327.603 151.948 326.463 151.262 325.516L173.462 303.806L173.443 283.569ZM150.412 328.744C150.414 329.48 150.197 330.2 149.79 330.813C149.382 331.426 148.802 331.904 148.123 332.187C147.443 332.47 146.695 332.545 145.973 332.402C145.251 332.26 144.588 331.907 144.067 331.387C143.546 330.867 143.191 330.204 143.046 329.483C142.902 328.761 142.975 328.013 143.256 327.333C143.537 326.653 144.014 326.071 144.626 325.662C145.238 325.253 145.957 325.035 146.693 325.035C147.677 325.037 148.62 325.429 149.317 326.123C150.013 326.818 150.407 327.76 150.412 328.744Z" fill="url(#paint36_linear_4323:17133)"/>
<path d="M169.885 257.895V283.56H175.114V257.895H169.885Z" fill="url(#paint37_linear_4323:17133)"/>
<path d="M183.826 257.904V283.569H189.055V257.904H183.826Z" fill="url(#paint38_linear_4323:17133)"/>
<path d="M197.759 257.904V283.569H202.988V257.904H197.759Z" fill="url(#paint39_linear_4323:17133)"/>
<path d="M211.69 257.895V283.56H216.92V257.895H211.69Z" fill="url(#paint40_linear_4323:17133)"/>
<path d="M225.632 257.904V283.569H230.861V257.904H225.632Z" fill="url(#paint41_linear_4323:17133)"/>
<path d="M276 142C272.64 142 269.355 140.975 266.561 139.054C263.766 137.134 261.587 134.404 260.299 131.209C259.011 128.014 258.671 124.498 259.323 121.105C259.975 117.712 261.589 114.593 263.961 112.144C266.334 109.695 269.358 108.024 272.653 107.343C275.947 106.662 279.364 107.001 282.471 108.317C285.578 109.634 288.236 111.869 290.11 114.74C291.984 117.611 292.99 120.989 293 124.448C293.005 126.75 292.57 129.031 291.718 131.16C290.866 133.288 289.615 135.223 288.036 136.853C286.457 138.484 284.581 139.778 282.516 140.661C280.451 141.544 278.236 141.999 276 142ZM288.059 125.157H284.697C284.504 125.157 284.445 125.209 284.437 125.426C284.397 127.74 284.115 130.042 283.597 132.294C283.546 132.51 283.597 132.562 283.815 132.562H289.437C289.518 132.569 289.599 132.549 289.668 132.505C289.738 132.462 289.792 132.397 289.823 132.32C290.211 131.581 290.547 130.815 290.832 130.028C291.346 128.564 291.655 127.031 291.748 125.478C291.748 125.209 291.681 125.157 291.437 125.157C290.286 125.166 289.176 125.157 288.059 125.157ZM263.95 125.157H260.672C260.302 125.157 260.319 125.088 260.344 125.521C260.487 127.932 261.153 130.279 262.294 132.389C262.378 132.545 262.496 132.545 262.639 132.545H268.235C268.487 132.545 268.496 132.458 268.454 132.251C267.939 130.016 267.658 127.731 267.613 125.434C267.613 125.201 267.546 125.14 267.319 125.14C266.185 125.166 265.067 125.157 263.95 125.157ZM288.067 123.834C289.185 123.834 290.311 123.834 291.429 123.834C291.655 123.834 291.714 123.773 291.706 123.531C291.582 121.366 291.039 119.249 290.109 117.303C290.084 117.244 290.041 117.195 289.986 117.164C289.932 117.133 289.869 117.121 289.807 117.13H283.924C283.697 117.13 283.672 117.225 283.714 117.415C284.124 119.446 284.355 121.51 284.403 123.583C284.403 123.799 284.479 123.843 284.672 123.843C285.807 123.825 286.941 123.834 288.067 123.834ZM263.933 123.834H267.344C267.513 123.834 267.588 123.834 267.597 123.618C267.637 121.527 267.867 119.444 268.286 117.398C268.328 117.199 268.286 117.13 268.076 117.13C266.294 117.13 264.513 117.13 262.723 117.13C262.118 117.13 261.79 117.303 261.655 117.891C261.655 117.891 261.655 117.891 261.655 117.943C260.874 119.722 260.419 121.634 260.311 123.583C260.311 123.817 260.378 123.86 260.588 123.86C261.689 123.825 262.815 123.834 263.933 123.834ZM276.639 128.86V132.182C276.639 132.545 276.639 132.545 276.983 132.545C278.605 132.545 280.218 132.545 281.84 132.545C282.084 132.545 282.185 132.476 282.244 132.225C282.737 130.132 283.018 127.993 283.084 125.841C283.084 125.616 283.193 125.33 283.084 125.192C282.975 125.054 282.672 125.192 282.454 125.192C280.605 125.192 278.756 125.192 276.908 125.192C276.672 125.192 276.639 125.27 276.639 125.469C276.639 126.576 276.639 127.718 276.639 128.86ZM275.353 128.86V125.4C275.353 125.261 275.353 125.175 275.176 125.183H269.076C268.916 125.183 268.874 125.183 268.882 125.391C268.926 127.724 269.222 130.046 269.765 132.311C269.815 132.528 269.899 132.606 270.134 132.606C271.815 132.606 273.445 132.606 275.101 132.606C275.328 132.606 275.378 132.536 275.37 132.32C275.353 131.126 275.361 129.976 275.361 128.834L275.353 128.86ZM275.353 120.547V117.424C275.353 117.251 275.353 117.156 275.118 117.156H269.916C269.748 117.156 269.681 117.225 269.647 117.389C269.199 119.435 268.952 121.521 268.907 123.618C268.907 123.808 268.907 123.869 269.126 123.86H275.134C275.344 123.86 275.403 123.808 275.403 123.574C275.344 122.545 275.361 121.533 275.361 120.521L275.353 120.547ZM279.874 123.86C280.874 123.86 281.865 123.86 282.857 123.86C283.067 123.86 283.134 123.808 283.126 123.574C283.077 121.493 282.829 119.421 282.386 117.389C282.386 117.208 282.277 117.147 282.092 117.147H276.899C276.706 117.147 276.63 117.147 276.63 117.415C276.63 119.474 276.63 121.539 276.63 123.609C276.63 123.799 276.672 123.86 276.865 123.86C277.882 123.825 278.882 123.834 279.882 123.834L279.874 123.86ZM272.151 108.869C268.261 109.842 264.884 112.32 262.723 115.789H262.882C264.739 115.789 266.597 115.789 268.454 115.789C268.639 115.789 268.681 115.694 268.723 115.547C268.928 114.76 269.184 113.989 269.487 113.237C270.02 111.829 270.763 110.516 271.689 109.344L272.151 108.869ZM289.21 115.867V115.78C287.044 112.32 283.689 109.83 279.815 108.808C279.835 108.91 279.889 109.001 279.966 109.067C280.661 109.847 281.249 110.72 281.714 111.663C282.35 112.894 282.851 114.194 283.21 115.538C283.277 115.798 283.37 115.893 283.647 115.893C284.63 115.893 285.613 115.893 286.597 115.893L289.21 115.867ZM275.353 112.147V108.86C275.353 108.358 275.353 108.349 274.882 108.531C273.933 108.934 273.113 109.603 272.513 110.46C271.395 112.023 270.56 113.782 270.05 115.651C269.983 115.858 270.05 115.858 270.227 115.858C271.857 115.858 273.487 115.858 275.118 115.858C275.311 115.858 275.361 115.798 275.353 115.607C275.353 114.431 275.361 113.28 275.361 112.121L275.353 112.147ZM276.639 112.147C276.639 113.315 276.639 114.474 276.639 115.607C276.639 115.789 276.681 115.849 276.865 115.849C278.507 115.849 280.146 115.849 281.781 115.849C281.966 115.849 282 115.806 281.941 115.625C281.765 115.131 281.613 114.621 281.429 114.119C280.918 112.654 280.161 111.293 279.193 110.097C278.603 109.337 277.812 108.769 276.916 108.462C276.706 108.384 276.639 108.462 276.639 108.67C276.639 109.803 276.639 110.953 276.639 112.104V112.147ZM263.193 133.886C264.089 135.227 265.19 136.41 266.454 137.389C268.149 138.737 270.098 139.706 272.176 140.235C272.135 140.123 272.066 140.025 271.975 139.95C271.499 139.419 271.076 138.839 270.714 138.22C269.959 136.94 269.369 135.564 268.958 134.128C268.945 134.051 268.904 133.981 268.843 133.935C268.782 133.888 268.706 133.867 268.63 133.877C267.227 133.877 265.823 133.877 264.429 133.877L263.193 133.886ZM279.798 140.261C283.449 139.307 286.655 137.055 288.849 133.903H283.361C283.202 133.903 283.143 133.964 283.101 134.111C282.906 134.754 282.679 135.386 282.42 136.005C281.983 137.114 281.419 138.166 280.739 139.137C280.437 139.465 280.126 139.803 279.781 140.218L279.798 140.261ZM275.378 137.285V134.111C275.378 133.964 275.378 133.834 275.176 133.843H270.454C270.286 133.843 270.244 133.894 270.302 134.059C270.445 134.431 270.563 134.811 270.714 135.183C271.274 136.721 272.132 138.124 273.235 139.31C273.771 139.873 274.431 140.295 275.16 140.538C275.361 140.607 275.412 140.538 275.412 140.348C275.353 139.301 275.361 138.289 275.361 137.242L275.378 137.285ZM276.664 137.285C276.664 138.324 276.664 139.362 276.664 140.4C276.664 140.651 276.731 140.676 276.95 140.607C277.832 140.298 278.612 139.741 279.202 138.998C280.332 137.575 281.187 135.942 281.723 134.189C281.798 133.955 281.723 133.92 281.529 133.92C279.992 133.92 278.454 133.92 276.916 133.92C276.706 133.92 276.655 133.998 276.655 134.197C276.639 135.157 276.639 136.187 276.639 137.225L276.664 137.285Z" fill="url(#paint42_linear_4323:17133)"/>
<g style="mix-blend-mode:multiply" opacity="0.15">
<g style="mix-blend-mode:multiply" opacity="0.15">
<path d="M290.252 91.9558L308.338 110.032V138.944L290.252 157.029H261.34L243.265 138.944V110.032L261.34 91.9558H290.252ZM291.819 88.1802H259.726L258.631 89.2845L240.556 107.36L239.451 108.465V140.558L240.556 141.662L258.631 159.7L259.736 160.804H291.829L292.933 159.7L311.009 141.587L312.113 140.482V108.389L311.009 107.285L292.924 89.2845L291.819 88.1802Z" fill="url(#paint43_linear_4323:17133)"/>
</g>
</g>
<path d="M290.251 91.9556H261.34L243.264 110.031V138.943L261.34 157.029H290.251L308.337 138.943V110.031L290.251 91.9556Z" stroke="url(#paint44_linear_4323:17133)" stroke-width="2" stroke-miterlimit="10"/>
<path d="M288.072 96.8643H263.521L248.173 112.212V136.763L263.521 152.111H288.072L303.42 136.763V112.212L288.072 96.8643Z" stroke="url(#paint45_linear_4323:17133)" stroke-miterlimit="10"/>
<g style="mix-blend-mode:multiply" opacity="0.15">
<g style="mix-blend-mode:multiply" opacity="0.15">
<path d="M141.01 91.9558L159.086 110.032V138.944L141.01 157.029H112.098L94.0129 138.944V110.032L112.098 91.9558H141.01ZM142.577 88.1802H110.484L109.38 89.2845L91.3511 107.36L90.2373 108.465V140.558L91.3511 141.587L109.427 159.672L110.531 160.776H142.624L143.729 159.672L161.757 141.587L162.862 140.482V108.389L161.757 107.285L143.681 89.2845L142.577 88.1802Z" fill="url(#paint46_linear_4323:17133)"/>
</g>
</g>
<path d="M141.01 91.9556H112.098L94.0225 110.031V138.943L112.098 157.029H141.01L159.086 138.943V110.031L141.01 91.9556Z" stroke="url(#paint47_linear_4323:17133)" stroke-width="2" stroke-miterlimit="10"/>
<path d="M138.83 96.8643H114.279L98.9307 112.212V136.763L114.279 152.111H138.83L154.178 136.763V112.212L138.83 96.8643Z" stroke="url(#paint48_linear_4323:17133)" stroke-miterlimit="10"/>
<path d="M131.013 133.963V138.496C131.011 139.121 130.762 139.72 130.32 140.167C129.878 140.613 129.277 140.87 128.646 140.884H124.828C124.421 140.874 124.022 140.765 123.668 140.566C123.331 140.372 123.046 140.1 122.837 139.774C122.629 139.448 122.502 139.077 122.469 138.693C122.469 138.625 122.469 138.564 122.469 138.496V134.137C123.725 134.489 125.027 134.657 126.332 134.636H126.745C128.194 134.626 129.633 134.4 131.013 133.963Z" stroke="url(#paint49_linear_4323:17133)" stroke-miterlimit="10"/>
<path d="M128.333 140.854V141.406C128.333 141.829 128.163 142.234 127.861 142.533C127.558 142.832 127.149 143 126.721 143C126.294 143 125.884 142.832 125.582 142.533C125.28 142.234 125.11 141.829 125.11 141.406V140.854H128.333Z" stroke="url(#paint50_linear_4323:17133)" stroke-width="0.75" stroke-miterlimit="10"/>
<path d="M124.942 106.033V106.426C125.415 106.403 125.887 106.493 126.316 106.69C126.316 113.543 126.316 127.542 126.316 134.228C124.71 134.27 123.113 133.976 121.628 133.367C119.796 132.498 118.818 130.942 118.658 128.622V128.282H118.322C116.949 128.231 115.622 127.782 114.504 126.99C113.437 126.123 112.723 124.901 112.496 123.553C112.271 122.453 112.413 121.31 112.901 120.297C112.947 120.199 112.985 120.115 113.038 120.025C113.632 118.935 114.56 118.06 115.688 117.524L116.009 117.35L115.864 117.018C115.1 115.401 115.215 114.087 116.1 112.885C116.453 112.393 116.925 111.996 117.474 111.732C118.022 111.468 118.629 111.345 119.238 111.374C119.494 111.375 119.749 111.393 120.002 111.427L120.475 111.48V111.004C120.398 110.444 120.442 109.873 120.605 109.331C120.768 108.789 121.047 108.288 121.422 107.861C121.888 107.411 122.44 107.056 123.045 106.817C123.651 106.578 124.298 106.461 124.95 106.471V106.078L124.942 106.033ZM126.713 106.781V106.471C126.654 106.405 126.581 106.351 126.5 106.313C126.024 106.087 125.5 105.981 124.973 106.003C122.865 106.003 119.796 107.219 120.101 110.959C119.825 110.929 119.547 110.914 119.269 110.914C118.599 110.881 117.932 111.014 117.328 111.302C116.724 111.589 116.202 112.022 115.81 112.561C115.335 113.212 115.056 113.984 115.006 114.787C114.956 115.589 115.137 116.389 115.528 117.093C114.33 117.669 113.345 118.602 112.71 119.76L112.55 120.085C112.193 120.837 112.005 121.657 112 122.488C112.001 122.856 112.039 123.223 112.115 123.583C112.36 125.024 113.125 126.329 114.268 127.255C115.444 128.092 116.844 128.568 118.292 128.622C118.528 131.946 120.368 133.427 122.476 134.085C123.732 134.436 125.034 134.604 126.339 134.583H126.736V133.238C126.721 126.258 126.721 113.165 126.706 106.736L126.713 106.781Z" fill="url(#paint51_linear_4323:17133)" stroke="url(#paint52_linear_4323:17133)" stroke-width="0.5" stroke-miterlimit="10"/>
<path d="M136.816 110.482C135.493 109.167 133.92 108.123 132.188 107.413C130.455 106.702 128.597 106.338 126.722 106.342H126.31V106.735C126.31 113.172 126.31 126.454 126.31 133.261V134.605H126.722C128.598 134.607 130.455 134.243 132.188 133.534C133.922 132.825 135.496 131.784 136.823 130.472C138.149 129.16 139.201 127.601 139.917 125.886C140.634 124.171 141.002 122.333 141 120.478C141.007 118.62 140.64 116.78 139.922 115.064C139.204 113.349 138.148 111.791 136.816 110.482ZM131.013 133.555C129.634 133.997 128.194 134.221 126.745 134.22V133.261C126.745 126.257 126.745 113.164 126.745 106.735C130.054 106.735 133.255 107.904 135.77 110.032C138.285 112.159 139.95 115.106 140.465 118.34C140.98 121.574 140.311 124.885 138.578 127.674C136.845 130.463 134.162 132.549 131.013 133.555Z" fill="url(#paint53_linear_4323:17133)" stroke="url(#paint54_linear_4323:17133)" stroke-width="0.5" stroke-miterlimit="10"/>
<path d="M131.013 133.956V136.177L122.484 138.662C122.48 138.599 122.48 138.536 122.484 138.473V136.449L131.013 133.956Z" stroke="url(#paint55_linear_4323:17133)" stroke-width="0.75" stroke-miterlimit="10"/>
<path d="M130.99 138.398L123.66 140.536" stroke="url(#paint56_linear_4323:17133)" stroke-width="0.75" stroke-miterlimit="10"/>
<path d="M119.827 120.863C119.781 120.862 119.736 120.844 119.701 120.814C119.666 120.784 119.643 120.742 119.636 120.697C119.186 117.591 115.857 117.418 115.719 117.41C115.693 117.409 115.668 117.403 115.644 117.392C115.62 117.382 115.599 117.366 115.581 117.347C115.563 117.328 115.55 117.306 115.541 117.282C115.532 117.258 115.527 117.232 115.528 117.206C115.536 117.157 115.563 117.113 115.603 117.084C115.643 117.054 115.693 117.041 115.742 117.048C115.78 117.048 119.56 117.236 120.033 120.666C120.04 120.717 120.026 120.769 119.995 120.81C119.963 120.851 119.917 120.878 119.865 120.885L119.827 120.863Z" fill="url(#paint57_linear_4323:17133)" stroke="url(#paint58_linear_4323:17133)" stroke-width="0.5" stroke-miterlimit="10"/>
<path d="M123.744 114.268C122.789 114.251 121.877 113.871 121.198 113.207C120.518 112.543 120.123 111.646 120.094 110.702C120.094 110.65 120.115 110.6 120.152 110.563C120.189 110.526 120.24 110.505 120.292 110.505C120.344 110.507 120.392 110.529 120.428 110.566C120.463 110.602 120.483 110.651 120.483 110.702C120.505 111.552 120.861 112.359 121.476 112.953C122.09 113.547 122.915 113.881 123.774 113.882C123.819 113.891 123.86 113.915 123.889 113.95C123.918 113.986 123.934 114.03 123.934 114.075C123.934 114.121 123.918 114.165 123.889 114.2C123.86 114.235 123.819 114.259 123.774 114.268H123.744Z" fill="url(#paint59_linear_4323:17133)" stroke="url(#paint60_linear_4323:17133)" stroke-width="0.5" stroke-miterlimit="10"/>
<path d="M118.628 129.93C118.584 129.931 118.541 129.918 118.507 129.892C118.472 129.865 118.447 129.828 118.437 129.786C118.133 128.595 118.271 127.335 118.826 126.236C119.087 125.81 119.433 125.442 119.842 125.153C120.252 124.865 120.717 124.663 121.208 124.558C121.259 124.545 121.313 124.551 121.359 124.576C121.405 124.602 121.439 124.644 121.453 124.694C121.465 124.745 121.456 124.799 121.429 124.844C121.402 124.889 121.359 124.922 121.308 124.936C120.866 125.03 120.448 125.213 120.081 125.473C119.713 125.732 119.403 126.064 119.17 126.447C118.673 127.462 118.549 128.616 118.819 129.711C118.83 129.761 118.821 129.814 118.794 129.857C118.767 129.901 118.724 129.933 118.674 129.945L118.628 129.93Z" fill="url(#paint61_linear_4323:17133)" stroke="url(#paint62_linear_4323:17133)" stroke-width="0.25" stroke-miterlimit="10"/>
<path d="M122.774 121.884C122.723 121.876 122.676 121.849 122.645 121.808C122.614 121.767 122.6 121.716 122.606 121.665C122.831 120.588 122.722 119.469 122.294 118.454C121.867 117.44 121.14 116.576 120.209 115.976C120.164 115.951 120.13 115.909 120.116 115.859C120.102 115.81 120.108 115.757 120.132 115.712C120.144 115.689 120.161 115.668 120.181 115.652C120.201 115.636 120.225 115.624 120.25 115.617C120.275 115.61 120.301 115.608 120.327 115.611C120.352 115.614 120.377 115.623 120.4 115.636C121.384 116.28 122.156 117.196 122.618 118.271C123.079 119.346 123.211 120.532 122.996 121.68C122.996 121.708 122.99 121.736 122.979 121.762C122.967 121.787 122.951 121.811 122.93 121.83C122.909 121.849 122.885 121.864 122.858 121.873C122.831 121.882 122.803 121.886 122.774 121.884Z" fill="url(#paint63_linear_4323:17133)" stroke="url(#paint64_linear_4323:17133)" stroke-width="0.5" stroke-miterlimit="10"/>
<path d="M121.575 130.058C121.544 130.058 121.513 130.05 121.485 130.035C121.457 130.021 121.433 130 121.415 129.975C121.381 129.937 121.362 129.889 121.362 129.839C121.362 129.789 121.381 129.74 121.415 129.703C122.045 129.293 122.537 128.705 122.825 128.015C123.114 127.325 123.187 126.566 123.034 125.835C123.019 125.785 123.026 125.731 123.052 125.686C123.078 125.64 123.12 125.607 123.171 125.593C123.196 125.586 123.221 125.584 123.247 125.587C123.272 125.591 123.296 125.599 123.318 125.611C123.34 125.624 123.36 125.641 123.375 125.661C123.39 125.681 123.401 125.704 123.408 125.729C123.573 126.535 123.495 127.371 123.183 128.133C122.87 128.895 122.338 129.549 121.651 130.013C121.631 130.034 121.604 130.05 121.575 130.058Z" fill="url(#paint65_linear_4323:17133)" stroke="url(#paint66_linear_4323:17133)" stroke-width="0.5" stroke-miterlimit="10"/>
<path d="M115.833 125.132C115.802 125.132 115.771 125.124 115.743 125.11C115.715 125.095 115.691 125.075 115.673 125.049C115.264 124.332 115.078 123.511 115.139 122.69C115.2 121.868 115.506 121.083 116.016 120.433C116.047 120.391 116.093 120.363 116.144 120.355C116.196 120.346 116.248 120.358 116.291 120.388C116.332 120.419 116.359 120.465 116.367 120.515C116.376 120.565 116.365 120.617 116.337 120.66C115.863 121.241 115.578 121.95 115.518 122.694C115.458 123.438 115.626 124.182 116.001 124.83C116.028 124.874 116.038 124.926 116.028 124.976C116.018 125.027 115.989 125.072 115.948 125.102C115.913 125.123 115.873 125.133 115.833 125.132Z" fill="url(#paint67_linear_4323:17133)" stroke="url(#paint68_linear_4323:17133)" stroke-width="0.25" stroke-miterlimit="10"/>
<path d="M128.378 134.22C128.378 134.129 128.279 125.328 128.378 121.739H128.141C127.485 121.739 126.614 121.739 126.614 121.739V121.346H128.141C128.218 121.346 128.302 121.346 128.378 121.346C128.378 121.225 128.378 121.12 128.378 121.014C128.454 119.276 129.05 118.687 129.623 118.339C129.884 118.154 130.201 118.062 130.522 118.08C130.843 118.098 131.148 118.224 131.386 118.438C131.611 118.677 131.745 118.986 131.767 119.311C131.79 119.637 131.698 119.961 131.509 120.228C131.189 120.665 130.777 121.026 130.301 121.287C129.824 121.549 129.296 121.703 128.752 121.739C128.668 125.29 128.752 134.152 128.752 134.25L128.378 134.22ZM130.485 118.468C130.25 118.476 130.02 118.546 129.821 118.672C129.34 118.966 128.836 119.48 128.775 121.029C128.775 121.12 128.775 121.21 128.775 121.316C129.244 121.281 129.7 121.149 130.113 120.928C130.526 120.706 130.887 120.401 131.173 120.032C131.316 119.837 131.388 119.6 131.377 119.36C131.366 119.12 131.272 118.89 131.112 118.71C131.029 118.63 130.93 118.568 130.823 118.526C130.716 118.485 130.601 118.465 130.485 118.468Z" fill="url(#paint69_linear_4323:17133)" stroke="url(#paint70_linear_4323:17133)" stroke-width="0.5" stroke-miterlimit="10"/>
<path d="M136.968 115.537C136.495 114.472 135.824 113.503 134.991 112.681C134.271 111.967 133.438 111.375 132.524 110.929" stroke="url(#paint71_linear_4323:17133)" stroke-width="0.75" stroke-linecap="round" stroke-linejoin="round"/>
<path d="M137.733 119.253C137.733 118.601 137.664 117.95 137.526 117.312" stroke="url(#paint72_linear_4323:17133)" stroke-width="0.75" stroke-linecap="round" stroke-linejoin="round"/>
<path d="M286.619 272.346L286.043 274.45L287.806 276.295L286.734 278.163L284.396 277.535L282.843 279.086L283.562 281.492L281.584 282.702L280.102 281.034C280.087 281.016 280.066 281.003 280.043 280.998C280.02 280.992 279.996 280.994 279.974 281.002C279.952 281.011 279.933 281.027 279.92 281.047C279.907 281.067 279.9 281.091 279.901 281.115L279.843 283.057C279.333 283.462 278.745 283.753 278.119 283.912C277.492 284.07 276.84 284.094 276.204 283.979V257H277.175L277.837 259.679L279.75 260.307L281.584 258.343L283.548 259.591L282.828 262.056L284.332 263.57L286.64 262.883L287.842 265.061L286.108 266.692L286.568 268.796L289 269.386V271.704L286.619 272.346Z" stroke="url(#paint73_linear_4323:17133)" stroke-miterlimit="10"/>
<path d="M281.943 270.5C281.943 272.066 281.337 273.568 280.258 274.676C279.179 275.783 277.716 276.405 276.189 276.405V264.573C276.947 264.573 277.697 264.726 278.396 265.024C279.096 265.323 279.731 265.759 280.266 266.31C280.8 266.861 281.224 267.514 281.512 268.233C281.8 268.953 281.946 269.723 281.943 270.5Z" stroke="url(#paint74_linear_4323:17133)" stroke-miterlimit="10"/>
<path d="M276.168 283.057V283.994C275.579 283.996 274.99 283.957 274.406 283.876C273.924 283.81 272.967 283.596 272.967 283.596C272.967 283.596 272.291 283.396 271.745 283.212C271.586 283.16 271.435 283.108 271.32 283.057C268.473 281.902 266.108 279.765 264.631 277.013C263.155 274.26 262.66 271.066 263.231 267.98C263.803 264.893 265.406 262.108 267.763 260.104C270.121 258.1 273.085 257.002 276.147 257C276.161 263.2 276.154 276.354 276.168 283.057Z" stroke="url(#paint75_linear_4323:17133)" stroke-miterlimit="10"/>
<path d="M279.844 283.057V288.173C279.844 288.479 279.785 288.783 279.671 289.067C279.556 289.35 279.388 289.608 279.176 289.825C278.964 290.041 278.713 290.213 278.436 290.33C278.16 290.446 277.864 290.506 277.564 290.505H274.04C273.641 290.508 273.249 290.401 272.904 290.195C272.583 290.007 272.312 289.741 272.114 289.42C271.916 289.1 271.797 288.735 271.767 288.357C271.764 288.296 271.764 288.234 271.767 288.173V283.212C272.314 283.397 272.99 283.596 272.99 283.596C272.99 283.596 273.925 283.81 274.429 283.876C275.013 283.957 275.601 283.996 276.191 283.995V283.057V283.995C276.826 284.109 277.478 284.085 278.105 283.927C278.732 283.768 279.319 283.477 279.83 283.072V283.072L279.844 283.057Z" stroke="url(#paint76_linear_4323:17133)" stroke-miterlimit="10"/>
<path d="M275.831 293C275.353 292.998 274.894 292.802 274.556 292.455C274.218 292.108 274.027 291.638 274.025 291.147V289.9H277.622V291.147C277.622 291.636 277.433 292.105 277.098 292.452C276.763 292.799 276.307 292.996 275.831 293V293Z" stroke="url(#paint77_linear_4323:17133)" stroke-miterlimit="10"/>
<path d="M279.844 283.735V285.913L271.767 288.356C271.767 288.29 271.767 288.231 271.767 288.164V286.179L279.844 283.735Z" stroke="url(#paint78_linear_4323:17133)" stroke-miterlimit="10"/>
<path d="M279.844 285.913V288.091L272.903 290.194C272.583 290.004 272.313 289.738 272.115 289.418C271.918 289.098 271.798 288.734 271.767 288.356L279.844 285.913Z" stroke="url(#paint79_linear_4323:17133)" stroke-miterlimit="10"/>
<path d="M275.902 271.541H274.464C272.191 271.541 270.342 269.918 271.853 268.751C272.802 268.013 274.01 268.877 274.01 271.032V283.994" stroke="url(#paint80_linear_4323:17133)" stroke-miterlimit="10"/>
<g style="mix-blend-mode:multiply" opacity="0.15">
<g style="mix-blend-mode:multiply" opacity="0.15">
<path d="M290.176 242.585L308.252 260.67V289.582L290.176 307.658H261.255L243.179 289.582V260.661L261.255 242.585H290.176ZM291.734 238.809H259.697L258.631 239.904L240.508 257.989L239.403 259.094V291.13L240.508 292.244L258.631 310.32L259.735 311.424H291.771L292.885 310.32L310.961 292.244L312.065 291.13V259.094L310.961 257.989L292.885 239.904L291.734 238.809Z" fill="url(#paint81_linear_4323:17133)"/>
</g>
</g>
<path d="M290.177 242.575H261.265L243.18 260.651V289.572L261.265 307.648H290.177L308.253 289.572V260.651L290.177 242.575Z" stroke="url(#paint82_linear_4323:17133)" stroke-width="2" stroke-miterlimit="10"/>
<path d="M287.996 247.493H263.445L248.097 262.841V287.383L263.445 302.74H287.996L303.344 287.383V262.841L287.996 247.493Z" stroke="url(#paint83_linear_4323:17133)" stroke-miterlimit="10"/>
<path d="M145 278.626C145 280.072 144.425 281.458 143.401 282.481C142.377 283.503 140.989 284.078 139.541 284.078H131.233V280.61C131.232 280.453 131.294 280.304 131.404 280.192C131.514 280.081 131.663 280.018 131.82 280.016H133.755C133.87 280.017 133.982 279.984 134.078 279.922C134.175 279.86 134.25 279.771 134.297 279.666C134.343 279.562 134.357 279.446 134.339 279.333C134.32 279.22 134.268 279.115 134.19 279.031L127.122 271.379C127.067 271.319 127 271.272 126.926 271.239C126.852 271.207 126.771 271.19 126.69 271.19C126.609 271.19 126.529 271.207 126.455 271.239C126.381 271.272 126.314 271.319 126.259 271.379L119.205 279.031C119.128 279.115 119.076 279.219 119.057 279.331C119.038 279.443 119.052 279.559 119.097 279.663C119.143 279.767 119.217 279.856 119.312 279.919C119.408 279.982 119.519 280.015 119.633 280.016H121.576C121.732 280.018 121.881 280.081 121.991 280.192C122.101 280.304 122.163 280.453 122.163 280.61V284.078H116.24C115.061 284.081 113.895 283.832 112.822 283.345C111.749 282.859 110.792 282.148 110.019 281.261C109.245 280.373 108.671 279.329 108.337 278.2C108.003 277.072 107.916 275.884 108.082 274.719C108.248 273.554 108.663 272.438 109.3 271.447C109.936 270.456 110.778 269.614 111.769 268.977C112.761 268.34 113.878 267.923 115.044 267.756C116.211 267.588 117.4 267.673 118.531 268.005C118.437 267.548 118.391 267.082 118.393 266.615C118.465 264.873 119.194 263.224 120.434 261.997C121.675 260.771 123.334 260.058 125.078 260.003C126.823 259.948 128.523 260.555 129.839 261.701C131.154 262.847 131.986 264.447 132.168 266.181C132.644 266.078 133.13 266.025 133.618 266.021C135.452 266.021 137.211 266.749 138.508 268.044C139.805 269.34 140.534 271.096 140.534 272.928C140.534 273.044 140.534 273.153 140.534 273.268C141.788 273.5 142.921 274.163 143.737 275.141C144.552 276.12 144.999 277.353 145 278.626V278.626Z" stroke="url(#paint84_linear_4323:17133)" stroke-width="1.25" stroke-miterlimit="10"/>
<path d="M133.755 280.016H131.82C131.663 280.018 131.514 280.081 131.404 280.193C131.294 280.304 131.232 280.454 131.232 280.61V289.406C131.232 289.564 131.17 289.715 131.058 289.826C130.947 289.937 130.796 290 130.638 290H122.736C122.579 289.998 122.43 289.935 122.32 289.823C122.21 289.712 122.148 289.562 122.148 289.406V280.61C122.148 280.454 122.087 280.304 121.977 280.193C121.867 280.081 121.717 280.018 121.561 280.016H119.618C119.504 280.015 119.393 279.982 119.298 279.919C119.203 279.856 119.128 279.767 119.083 279.663C119.037 279.559 119.023 279.443 119.043 279.331C119.062 279.219 119.113 279.115 119.19 279.031L126.259 271.379C126.314 271.319 126.381 271.272 126.455 271.24C126.529 271.207 126.609 271.19 126.69 271.19C126.771 271.19 126.851 271.207 126.926 271.24C127 271.272 127.067 271.319 127.122 271.379L134.19 279.031C134.268 279.115 134.32 279.22 134.338 279.333C134.357 279.446 134.343 279.562 134.296 279.666C134.25 279.771 134.174 279.86 134.078 279.922C133.982 279.984 133.87 280.017 133.755 280.016V280.016Z" stroke="url(#paint85_linear_4323:17133)" stroke-width="1.25" stroke-miterlimit="10"/>
<g style="mix-blend-mode:multiply" opacity="0.15">
<g style="mix-blend-mode:multiply" opacity="0.15">
<path d="M141.01 242.585L159.086 260.67V289.582L141.01 307.658H112.098L94.0129 289.572V260.661L112.098 242.585H141.01ZM142.577 238.809H110.484L109.38 239.913L91.3511 257.989L90.2373 259.094V291.13L91.3511 292.244L109.427 310.32L110.531 311.424H142.624L143.729 310.32L161.804 292.244L162.909 291.13V259.094L161.804 257.989L143.729 239.904L142.577 238.809Z" fill="url(#paint86_linear_4323:17133)"/>
</g>
</g>
<path d="M141.01 242.575H112.098L94.0225 260.651V289.572L112.098 307.648H141.01L159.086 289.572V260.651L141.01 242.575Z" stroke="url(#paint87_linear_4323:17133)" stroke-width="2" stroke-miterlimit="10"/>
<path d="M138.83 247.493H114.279L98.9307 262.841V287.383L114.279 302.74H138.83L154.178 287.383V262.841L138.83 247.493Z" stroke="url(#paint88_linear_4323:17133)" stroke-miterlimit="10"/>
<g style="mix-blend-mode:multiply" opacity="0.15">
<g style="mix-blend-mode:multiply" opacity="0.15">
<path d="M231.465 147.646L252.59 168.771V230.871L231.465 252.024H169.356L148.193 230.871V168.771L169.318 147.646H231.427H231.465ZM232.598 144.814H168.185L167.355 145.636L146.23 166.76L145.399 167.591V232.041L146.23 232.872L167.355 253.996L168.185 254.827H232.635L233.466 253.996L254.591 232.872L255.421 232.041V167.591L254.591 166.76L233.466 145.636L232.635 144.814H232.598Z" fill="url(#paint89_linear_4323:17133)"/>
</g>
</g>
<path d="M230.665 149.674L250.59 169.599V230.07L230.637 250.023H170.184L150.193 230.042V169.601L170.182 149.674H230.665Z" fill="url(#paint90_linear_4323:17133)"/>
<path d="M230.665 149.674L250.59 169.599V230.07L230.637 250.023H170.184L150.193 230.042V169.601L170.182 149.674H230.665Z" fill="black" fill-opacity="0.05"/>
<path d="M230.665 149.674L250.59 169.599V230.07L230.637 250.023H170.184L150.193 230.042V169.601L170.182 149.674H230.665Z" stroke="#E95B40" stroke-width="4"/>
<path d="M230.665 149.674L250.59 169.599V230.07L230.637 250.023H170.184L150.193 230.042V169.601L170.182 149.674H230.665Z" stroke="#FF9E4B" stroke-opacity="0.3" stroke-width="4"/>
<g filter="url(#filter3_i_4323:17133)">
<path d="M175.002 186.534C175.002 182.006 177.172 178.022 180.56 175.417C181.937 174.362 183.507 173.528 185.219 173C183.984 175.298 183.295 177.903 183.295 180.661C183.295 183.504 183.948 186.16 185.237 188.492C187.654 192.816 190.83 196.697 194.571 199.966C196.407 201.566 198.401 203.03 200.5 204.324C202.6 203.03 204.594 201.583 206.43 199.966C210.188 196.697 213.347 192.816 215.764 188.492C217.052 186.16 217.705 183.504 217.705 180.661C217.705 177.903 217 175.298 215.764 173C217.476 173.528 219.046 174.362 220.423 175.417C223.811 178.005 225.999 182.006 225.999 186.534C225.999 187.13 226.07 189.122 225.011 191.658C224.199 193.582 223.034 195.318 221.517 196.731C220.123 198.11 218.323 199.489 215.941 200.732C204.93 206.554 203.765 215.526 203.765 217.926C203.765 223.561 207.065 227 207.065 227H204.239H201.741H200.367H196.994H193.918C193.918 227 197.218 223.578 197.218 217.926C197.218 215.526 196.054 206.554 185.042 200.732C182.678 199.472 180.86 198.11 179.466 196.731C177.949 195.318 176.784 193.582 175.972 191.658C174.914 189.122 175.002 187.13 175.002 186.534Z" fill="url(#paint91_linear_4323:17133)"/>
</g>
<path d="M180.256 175.021L180.256 175.021C181.677 173.931 183.3 173.068 185.072 172.522L186.236 172.163L185.659 173.237C184.462 175.464 183.795 177.987 183.795 180.661C183.795 183.426 184.43 185.997 185.674 188.249C188.062 192.521 191.201 196.358 194.9 199.589C196.638 201.104 198.52 202.496 200.5 203.736C202.483 202.497 204.364 201.12 206.099 199.591L206.101 199.589C209.816 196.358 212.938 192.522 215.327 188.249C216.571 185.997 217.205 183.426 217.205 180.661C217.205 177.989 216.522 175.466 215.324 173.237L214.747 172.163L215.912 172.522C217.683 173.068 219.306 173.931 220.727 175.02C224.229 177.696 226.499 181.839 226.499 186.534C226.499 186.566 226.499 186.601 226.499 186.64C226.503 187.358 226.514 189.354 225.472 191.851L225.472 191.853C224.636 193.832 223.435 195.627 221.863 197.092C220.435 198.504 218.596 199.911 216.173 201.175C205.373 206.886 204.265 215.653 204.265 217.926C204.265 220.644 205.061 222.833 205.857 224.343C206.255 225.098 206.653 225.681 206.948 226.074C207.096 226.27 207.218 226.418 207.302 226.515C207.344 226.564 207.376 226.6 207.398 226.624L207.421 226.649L207.425 226.654L207.426 226.654L207.426 226.654L207.426 226.654L207.426 226.654L208.238 227.5H207.065H204.239H201.741H200.367H196.994H193.918H192.742L193.558 226.653L193.558 226.653L193.558 226.653L193.559 226.653L193.559 226.653L193.563 226.648L193.586 226.623C193.607 226.6 193.64 226.564 193.682 226.515C193.765 226.418 193.887 226.271 194.035 226.075C194.331 225.684 194.728 225.103 195.126 224.349C195.922 222.841 196.718 220.653 196.718 217.926C196.718 215.653 195.61 206.885 184.809 201.174L184.807 201.173C182.407 199.895 180.551 198.507 179.12 197.092C177.549 195.627 176.347 193.832 175.512 191.853L175.511 191.851C174.479 189.379 174.495 187.396 174.501 186.663C174.501 186.614 174.502 186.571 174.502 186.534C174.502 181.839 176.754 177.713 180.256 175.021Z" stroke="url(#paint92_linear_4323:17133)"/>
<path d="M166.543 163.004C166.091 163.004 165.65 163.138 165.274 163.389C164.898 163.64 164.606 163.997 164.433 164.414C164.26 164.831 164.215 165.291 164.303 165.734C164.391 166.177 164.608 166.584 164.928 166.903C165.247 167.223 165.654 167.44 166.097 167.529C166.541 167.617 167 167.571 167.417 167.399C167.835 167.226 168.191 166.933 168.442 166.557C168.693 166.182 168.827 165.74 168.827 165.288C168.827 164.682 168.587 164.101 168.158 163.673C167.73 163.245 167.149 163.004 166.543 163.004Z" fill="url(#paint93_linear_4323:17133)"/>
<path d="M234.278 163.004C233.827 163.004 233.385 163.138 233.009 163.389C232.634 163.64 232.341 163.997 232.168 164.414C231.995 164.831 231.95 165.291 232.038 165.734C232.126 166.177 232.344 166.584 232.663 166.903C232.983 167.223 233.39 167.44 233.833 167.529C234.276 167.617 234.735 167.571 235.153 167.399C235.57 167.226 235.927 166.933 236.178 166.557C236.429 166.182 236.563 165.74 236.563 165.288C236.563 164.682 236.322 164.101 235.894 163.673C235.465 163.245 234.884 163.004 234.278 163.004Z" fill="url(#paint94_linear_4323:17133)"/>
<path d="M166.543 232.069C166.091 232.069 165.65 232.203 165.274 232.454C164.898 232.705 164.606 233.062 164.433 233.479C164.26 233.897 164.215 234.356 164.303 234.799C164.391 235.242 164.608 235.649 164.928 235.969C165.247 236.288 165.654 236.506 166.097 236.594C166.541 236.682 167 236.637 167.417 236.464C167.835 236.291 168.191 235.998 168.442 235.623C168.693 235.247 168.827 234.805 168.827 234.354C168.827 233.748 168.587 233.167 168.158 232.738C167.73 232.31 167.149 232.069 166.543 232.069Z" fill="url(#paint95_linear_4323:17133)"/>
<path d="M234.278 232.069C233.827 232.069 233.385 232.203 233.009 232.454C232.634 232.705 232.341 233.062 232.168 233.479C231.995 233.897 231.95 234.356 232.038 234.799C232.126 235.242 232.344 235.649 232.663 235.969C232.983 236.288 233.39 236.506 233.833 236.594C234.276 236.682 234.735 236.637 235.153 236.464C235.57 236.291 235.927 235.998 236.178 235.623C236.429 235.247 236.563 234.805 236.563 234.354C236.563 233.748 236.322 233.167 235.894 232.738C235.465 232.31 234.884 232.069 234.278 232.069Z" fill="url(#paint96_linear_4323:17133)"/>
<path d="M250.522 144.947L253.533 146.164L254.751 149.175L242.188 161.739L239.186 160.521L237.959 157.51L250.522 144.947Z" fill="#D53038"/>
<path d="M253.534 146.164L254.752 149.175L242.188 161.739L239.187 160.521" fill="url(#paint97_linear_4323:17133)"/>
<path d="M159.068 236.402L162.079 237.62L163.296 240.631L150.742 253.194L147.731 251.967L146.514 248.956L159.068 236.402Z" fill="#D53038"/>
<path d="M162.079 237.62L163.297 240.631L150.743 253.194L147.731 251.967" fill="url(#paint98_linear_4323:17133)"/>
<path d="M163.683 158.501L162.465 161.512L159.454 162.739L146.891 150.176L148.108 147.165L151.119 145.947L163.683 158.501Z" fill="#D53038"/>
<path d="M162.465 161.512L159.454 162.74L146.891 150.176L148.108 147.165" fill="url(#paint99_linear_4323:17133)"/>
<path d="M253.59 249.636L252.373 252.647L249.362 253.864L236.808 241.31L238.025 238.299L241.036 237.082L253.59 249.636Z" fill="#D53038"/>
<path d="M252.373 252.647L249.362 253.864L236.808 241.31L238.025 238.299" fill="url(#paint100_linear_4323:17133)"/>
</g>
<defs>
<filter id="filter0_i_4323:17133" x="0" y="0" width="400.003" height="403.627" filterUnits="userSpaceOnUse" color-interpolation-filters="sRGB">
<feFlood flood-opacity="0" result="BackgroundImageFix"/>
<feBlend mode="normal" in="SourceGraphic" in2="BackgroundImageFix" result="shape"/>
<feColorMatrix in="SourceAlpha" type="matrix" values="0 0 0 0 0 0 0 0 0 0 0 0 0 0 0 0 0 0 127 0" result="hardAlpha"/>
<feOffset dy="4"/>
<feGaussianBlur stdDeviation="20"/>
<feComposite in2="hardAlpha" operator="arithmetic" k2="-1" k3="1"/>
<feColorMatrix type="matrix" values="0 0 0 0 1 0 0 0 0 1 0 0 0 0 1 0 0 0 1 0"/>
<feBlend mode="normal" in2="shape" result="effect1_innerShadow_4323:17133"/>
</filter>
<filter id="filter1_f_4323:17133" x="-26" y="-28" width="456" height="456" filterUnits="userSpaceOnUse" color-interpolation-filters="sRGB">
<feFlood flood-opacity="0" result="BackgroundImageFix"/>
<feBlend mode="normal" in="SourceGraphic" in2="BackgroundImageFix" result="shape"/>
<feGaussianBlur stdDeviation="25" result="effect1_foregroundBlur_4323:17133"/>
</filter>
<filter id="filter2_f_4323:17133" x="51" y="49" width="302" height="302" filterUnits="userSpaceOnUse" color-interpolation-filters="sRGB">
<feFlood flood-opacity="0" result="BackgroundImageFix"/>
<feBlend mode="normal" in="SourceGraphic" in2="BackgroundImageFix" result="shape"/>
<feGaussianBlur stdDeviation="25" result="effect1_foregroundBlur_4323:17133"/>
</filter>
<filter id="filter3_i_4323:17133" x="174" y="171.326" width="53" height="58.6738" filterUnits="userSpaceOnUse" color-interpolation-filters="sRGB">
<feFlood flood-opacity="0" result="BackgroundImageFix"/>
<feBlend mode="normal" in="SourceGraphic" in2="BackgroundImageFix" result="shape"/>
<feColorMatrix in="SourceAlpha" type="matrix" values="0 0 0 0 0 0 0 0 0 0 0 0 0 0 0 0 0 0 127 0" result="hardAlpha"/>
<feOffset dy="2"/>
<feGaussianBlur stdDeviation="2"/>
<feComposite in2="hardAlpha" operator="arithmetic" k2="-1" k3="1"/>
<feColorMatrix type="matrix" values="0 0 0 0 0 0 0 0 0 0 0 0 0 0 0 0 0 0 0.25 0"/>
<feBlend mode="normal" in2="shape" result="effect1_innerShadow_4323:17133"/>
</filter>
<radialGradient id="paint0_radial_4323:17133" cx="0" cy="0" r="1" gradientUnits="userSpaceOnUse" gradientTransform="translate(213.916 205.417) rotate(43.631) scale(255.884 197.548)">
<stop offset="0.212026" stop-color="#F47C45"/>
<stop offset="0.755208" stop-color="white"/>
</radialGradient>
<radialGradient id="paint1_radial_4323:17133" cx="0" cy="0" r="1" gradientUnits="userSpaceOnUse" gradientTransform="translate(208.761 203.074) rotate(43.631) scale(145.192 112.092)">
<stop offset="0.212026" stop-color="#F47C45"/>
<stop offset="0.755208" stop-color="#B12E2A"/>
</radialGradient>
<linearGradient id="paint2_linear_4323:17133" x1="212.031" y1="22.6467" x2="279.096" y2="49.3099" gradientUnits="userSpaceOnUse">
<stop offset="0.515625" stop-color="#B12E2A"/>
<stop offset="1" stop-color="#F47C45"/>
</linearGradient>
<linearGradient id="paint3_linear_4323:17133" x1="160.824" y1="22.6467" x2="227.873" y2="49.2947" gradientUnits="userSpaceOnUse">
<stop offset="0.515625" stop-color="#B12E2A"/>
<stop offset="1" stop-color="#F47C45"/>
</linearGradient>
<linearGradient id="paint4_linear_4323:17133" x1="194.896" y1="2.72965" x2="224.9" y2="6.74854" gradientUnits="userSpaceOnUse">
<stop offset="0.515625" stop-color="#B12E2A"/>
<stop offset="1" stop-color="#F47C45"/>
</linearGradient>
<linearGradient id="paint5_linear_4323:17133" x1="226.045" y1="66.7535" x2="285.174" y2="111.314" gradientUnits="userSpaceOnUse">
<stop offset="0.515625" stop-color="#B12E2A"/>
<stop offset="1" stop-color="#F47C45"/>
</linearGradient>
<linearGradient id="paint6_linear_4323:17133" x1="141.559" y1="66.8727" x2="200.558" y2="111.239" gradientUnits="userSpaceOnUse">
<stop offset="0.515625" stop-color="#B12E2A"/>
<stop offset="1" stop-color="#F47C45"/>
</linearGradient>
<linearGradient id="paint7_linear_4323:17133" x1="170.218" y1="126.381" x2="175.294" y2="127.075" gradientUnits="userSpaceOnUse">
<stop stop-color="#AF142E"/>
<stop offset="1" stop-color="#F27744"/>
</linearGradient>
<linearGradient id="paint8_linear_4323:17133" x1="184.15" y1="126.381" x2="189.226" y2="127.075" gradientUnits="userSpaceOnUse">
<stop stop-color="#AF142E"/>
<stop offset="1" stop-color="#F27744"/>
</linearGradient>
<linearGradient id="paint9_linear_4323:17133" x1="198.082" y1="126.39" x2="203.158" y2="127.084" gradientUnits="userSpaceOnUse">
<stop stop-color="#AF142E"/>
<stop offset="1" stop-color="#F27744"/>
</linearGradient>
<linearGradient id="paint10_linear_4323:17133" x1="212.024" y1="126.381" x2="217.1" y2="127.075" gradientUnits="userSpaceOnUse">
<stop stop-color="#AF142E"/>
<stop offset="1" stop-color="#F27744"/>
</linearGradient>
<linearGradient id="paint11_linear_4323:17133" x1="225.955" y1="126.381" x2="231.031" y2="127.075" gradientUnits="userSpaceOnUse">
<stop stop-color="#AF142E"/>
<stop offset="1" stop-color="#F27744"/>
</linearGradient>
<linearGradient id="paint12_linear_4323:17133" x1="66.2203" y1="141.046" x2="79.7745" y2="192.361" gradientUnits="userSpaceOnUse">
<stop offset="0.515625" stop-color="#B12E2A"/>
<stop offset="1" stop-color="#F47C45"/>
</linearGradient>
<linearGradient id="paint13_linear_4323:17133" x1="21.933" y1="160.411" x2="28.2252" y2="205.519" gradientUnits="userSpaceOnUse">
<stop offset="0.515625" stop-color="#B12E2A"/>
<stop offset="1" stop-color="#F47C45"/>
</linearGradient>
<linearGradient id="paint14_linear_4323:17133" x1="21.9281" y1="211.647" x2="28.2323" y2="256.798" gradientUnits="userSpaceOnUse">
<stop offset="0.515625" stop-color="#B12E2A"/>
<stop offset="1" stop-color="#F47C45"/>
</linearGradient>
<linearGradient id="paint15_linear_4323:17133" x1="1.87459" y1="194.369" x2="2.7236" y2="212.425" gradientUnits="userSpaceOnUse">
<stop offset="0.515625" stop-color="#B12E2A"/>
<stop offset="1" stop-color="#F47C45"/>
</linearGradient>
<linearGradient id="paint16_linear_4323:17133" x1="66.2916" y1="225.684" x2="79.8214" y2="276.93" gradientUnits="userSpaceOnUse">
<stop offset="0.515625" stop-color="#B12E2A"/>
<stop offset="1" stop-color="#F47C45"/>
</linearGradient>
<linearGradient id="paint17_linear_4323:17133" x1="131.354" y1="169.613" x2="130.66" y2="174.69" gradientUnits="userSpaceOnUse">
<stop stop-color="#AF142E"/>
<stop offset="1" stop-color="#F27744"/>
</linearGradient>
<linearGradient id="paint18_linear_4323:17133" x1="131.354" y1="183.546" x2="130.66" y2="188.622" gradientUnits="userSpaceOnUse">
<stop stop-color="#AF142E"/>
<stop offset="1" stop-color="#F27744"/>
</linearGradient>
<linearGradient id="paint19_linear_4323:17133" x1="131.354" y1="197.487" x2="130.66" y2="202.563" gradientUnits="userSpaceOnUse">
<stop stop-color="#AF142E"/>
<stop offset="1" stop-color="#F27744"/>
</linearGradient>
<linearGradient id="paint20_linear_4323:17133" x1="131.354" y1="211.419" x2="130.66" y2="216.495" gradientUnits="userSpaceOnUse">
<stop stop-color="#AF142E"/>
<stop offset="1" stop-color="#F27744"/>
</linearGradient>
<linearGradient id="paint21_linear_4323:17133" x1="131.354" y1="225.351" x2="130.66" y2="230.427" gradientUnits="userSpaceOnUse">
<stop stop-color="#AF142E"/>
<stop offset="1" stop-color="#F27744"/>
</linearGradient>
<linearGradient id="paint22_linear_4323:17133" x1="259.275" y1="141.047" x2="272.866" y2="192.423" gradientUnits="userSpaceOnUse">
<stop offset="0.515625" stop-color="#B12E2A"/>
<stop offset="1" stop-color="#F47C45"/>
</linearGradient>
<linearGradient id="paint23_linear_4323:17133" x1="259.868" y1="160.402" x2="266.165" y2="205.524" gradientUnits="userSpaceOnUse">
<stop offset="0.515625" stop-color="#B12E2A"/>
<stop offset="1" stop-color="#F47C45"/>
</linearGradient>
<linearGradient id="paint24_linear_4323:17133" x1="259.868" y1="211.646" x2="266.161" y2="256.754" gradientUnits="userSpaceOnUse">
<stop offset="0.515625" stop-color="#B12E2A"/>
<stop offset="1" stop-color="#F47C45"/>
</linearGradient>
<linearGradient id="paint25_linear_4323:17133" x1="260.137" y1="194.387" x2="260.978" y2="212.353" gradientUnits="userSpaceOnUse">
<stop offset="0.515625" stop-color="#B12E2A"/>
<stop offset="1" stop-color="#F47C45"/>
</linearGradient>
<linearGradient id="paint26_linear_4323:17133" x1="259.274" y1="225.684" x2="272.826" y2="276.955" gradientUnits="userSpaceOnUse">
<stop offset="0.515625" stop-color="#B12E2A"/>
<stop offset="1" stop-color="#F47C45"/>
</linearGradient>
<linearGradient id="paint27_linear_4323:17133" x1="273.61" y1="169.613" x2="272.916" y2="174.69" gradientUnits="userSpaceOnUse">
<stop stop-color="#AF142E"/>
<stop offset="1" stop-color="#F27744"/>
</linearGradient>
<linearGradient id="paint28_linear_4323:17133" x1="273.61" y1="183.546" x2="272.916" y2="188.622" gradientUnits="userSpaceOnUse">
<stop stop-color="#AF142E"/>
<stop offset="1" stop-color="#F27744"/>
</linearGradient>
<linearGradient id="paint29_linear_4323:17133" x1="273.61" y1="197.487" x2="272.916" y2="202.563" gradientUnits="userSpaceOnUse">
<stop stop-color="#AF142E"/>
<stop offset="1" stop-color="#F27744"/>
</linearGradient>
<linearGradient id="paint30_linear_4323:17133" x1="273.61" y1="211.419" x2="272.916" y2="216.495" gradientUnits="userSpaceOnUse">
<stop stop-color="#AF142E"/>
<stop offset="1" stop-color="#F27744"/>
</linearGradient>
<linearGradient id="paint31_linear_4323:17133" x1="273.61" y1="225.351" x2="272.916" y2="230.427" gradientUnits="userSpaceOnUse">
<stop stop-color="#AF142E"/>
<stop offset="1" stop-color="#F27744"/>
</linearGradient>
<linearGradient id="paint32_linear_4323:17133" x1="212.031" y1="260.232" x2="279.075" y2="286.886" gradientUnits="userSpaceOnUse">
<stop offset="0.515625" stop-color="#B12E2A"/>
<stop offset="1" stop-color="#F47C45"/>
</linearGradient>
<linearGradient id="paint33_linear_4323:17133" x1="160.824" y1="260.233" x2="227.87" y2="286.884" gradientUnits="userSpaceOnUse">
<stop offset="0.515625" stop-color="#B12E2A"/>
<stop offset="1" stop-color="#F47C45"/>
</linearGradient>
<linearGradient id="paint34_linear_4323:17133" x1="194.923" y1="260.624" x2="224.783" y2="264.604" gradientUnits="userSpaceOnUse">
<stop offset="0.515625" stop-color="#B12E2A"/>
<stop offset="1" stop-color="#F47C45"/>
</linearGradient>
<linearGradient id="paint35_linear_4323:17133" x1="226.045" y1="259.371" x2="285.276" y2="303.883" gradientUnits="userSpaceOnUse">
<stop offset="0.515625" stop-color="#B12E2A"/>
<stop offset="1" stop-color="#F47C45"/>
</linearGradient>
<linearGradient id="paint36_linear_4323:17133" x1="141.573" y1="259.367" x2="200.622" y2="303.659" gradientUnits="userSpaceOnUse">
<stop offset="0.515625" stop-color="#B12E2A"/>
<stop offset="1" stop-color="#F47C45"/>
</linearGradient>
<linearGradient id="paint37_linear_4323:17133" x1="170.208" y1="268.212" x2="175.284" y2="268.906" gradientUnits="userSpaceOnUse">
<stop stop-color="#AF142E"/>
<stop offset="1" stop-color="#F27744"/>
</linearGradient>
<linearGradient id="paint38_linear_4323:17133" x1="184.15" y1="268.221" x2="189.226" y2="268.915" gradientUnits="userSpaceOnUse">
<stop stop-color="#AF142E"/>
<stop offset="1" stop-color="#F27744"/>
</linearGradient>
<linearGradient id="paint39_linear_4323:17133" x1="198.082" y1="268.221" x2="203.158" y2="268.915" gradientUnits="userSpaceOnUse">
<stop stop-color="#AF142E"/>
<stop offset="1" stop-color="#F27744"/>
</linearGradient>
<linearGradient id="paint40_linear_4323:17133" x1="212.014" y1="268.212" x2="217.09" y2="268.906" gradientUnits="userSpaceOnUse">
<stop stop-color="#AF142E"/>
<stop offset="1" stop-color="#F27744"/>
</linearGradient>
<linearGradient id="paint41_linear_4323:17133" x1="225.955" y1="268.221" x2="231.031" y2="268.915" gradientUnits="userSpaceOnUse">
<stop stop-color="#AF142E"/>
<stop offset="1" stop-color="#F27744"/>
</linearGradient>
<linearGradient id="paint42_linear_4323:17133" x1="279.332" y1="109.165" x2="263.147" y2="132.595" gradientUnits="userSpaceOnUse">
<stop stop-color="#AF142E"/>
<stop offset="1" stop-color="#F27744"/>
</linearGradient>
<linearGradient id="paint43_linear_4323:17133" x1="275.782" y1="88.1802" x2="217.472" y2="123.397" gradientUnits="userSpaceOnUse">
<stop stop-color="#000316"/>
<stop offset="1" stop-color="#050C25"/>
</linearGradient>
<linearGradient id="paint44_linear_4323:17133" x1="282.177" y1="95.9805" x2="252.403" y2="140.35" gradientUnits="userSpaceOnUse">
<stop stop-color="#AF142E"/>
<stop offset="1" stop-color="#F27744"/>
</linearGradient>
<linearGradient id="paint45_linear_4323:17133" x1="281.21" y1="100.281" x2="255.932" y2="137.951" gradientUnits="userSpaceOnUse">
<stop stop-color="#AF142E"/>
<stop offset="1" stop-color="#F27744"/>
</linearGradient>
<linearGradient id="paint46_linear_4323:17133" x1="126.549" y1="88.1802" x2="68.2653" y2="123.377" gradientUnits="userSpaceOnUse">
<stop stop-color="#000316"/>
<stop offset="1" stop-color="#050C25"/>
</linearGradient>
<linearGradient id="paint47_linear_4323:17133" x1="132.93" y1="95.9805" x2="103.155" y2="140.346" gradientUnits="userSpaceOnUse">
<stop stop-color="#AF142E"/>
<stop offset="1" stop-color="#F27744"/>
</linearGradient>
<linearGradient id="paint48_linear_4323:17133" x1="131.968" y1="100.281" x2="106.69" y2="137.951" gradientUnits="userSpaceOnUse">
<stop stop-color="#AF142E"/>
<stop offset="1" stop-color="#F27744"/>
</linearGradient>
<linearGradient id="paint49_linear_4323:17133" x1="127.578" y1="134.391" x2="124.707" y2="139.674" gradientUnits="userSpaceOnUse">
<stop stop-color="#AF142E"/>
<stop offset="1" stop-color="#F27744"/>
</linearGradient>
<linearGradient id="paint50_linear_4323:17133" x1="127.037" y1="140.987" x2="126.247" y2="142.756" gradientUnits="userSpaceOnUse">
<stop stop-color="#AF142E"/>
<stop offset="1" stop-color="#F27744"/>
</linearGradient>
<linearGradient id="paint51_linear_4323:17133" x1="120.812" y1="107.768" x2="107.156" y2="118.259" gradientUnits="userSpaceOnUse">
<stop stop-color="#AF142E"/>
<stop offset="1" stop-color="#F27744"/>
</linearGradient>
<linearGradient id="paint52_linear_4323:17133" x1="120.812" y1="107.768" x2="107.156" y2="118.259" gradientUnits="userSpaceOnUse">
<stop stop-color="#AF142E"/>
<stop offset="1" stop-color="#F27744"/>
</linearGradient>
<linearGradient id="paint53_linear_4323:17133" x1="135.094" y1="108.09" x2="121.564" y2="118.571" gradientUnits="userSpaceOnUse">
<stop stop-color="#AF142E"/>
<stop offset="1" stop-color="#F27744"/>
</linearGradient>
<linearGradient id="paint54_linear_4323:17133" x1="135.094" y1="108.09" x2="121.564" y2="118.571" gradientUnits="userSpaceOnUse">
<stop stop-color="#AF142E"/>
<stop offset="1" stop-color="#F27744"/>
</linearGradient>
<linearGradient id="paint55_linear_4323:17133" x1="127.583" y1="134.247" x2="126.068" y2="138.34" gradientUnits="userSpaceOnUse">
<stop stop-color="#AF142E"/>
<stop offset="1" stop-color="#F27744"/>
</linearGradient>
<linearGradient id="paint56_linear_4323:17133" x1="128.043" y1="138.531" x2="127.645" y2="140.567" gradientUnits="userSpaceOnUse">
<stop stop-color="#AF142E"/>
<stop offset="1" stop-color="#F27744"/>
</linearGradient>
<linearGradient id="paint57_linear_4323:17133" x1="118.223" y1="117.283" x2="116.587" y2="120.145" gradientUnits="userSpaceOnUse">
<stop stop-color="#AF142E"/>
<stop offset="1" stop-color="#F27744"/>
</linearGradient>
<linearGradient id="paint58_linear_4323:17133" x1="118.223" y1="117.283" x2="116.587" y2="120.145" gradientUnits="userSpaceOnUse">
<stop stop-color="#AF142E"/>
<stop offset="1" stop-color="#F27744"/>
</linearGradient>
<linearGradient id="paint59_linear_4323:17133" x1="122.39" y1="110.738" x2="120.682" y2="113.336" gradientUnits="userSpaceOnUse">
<stop stop-color="#AF142E"/>
<stop offset="1" stop-color="#F27744"/>
</linearGradient>
<linearGradient id="paint60_linear_4323:17133" x1="122.39" y1="110.738" x2="120.682" y2="113.336" gradientUnits="userSpaceOnUse">
<stop stop-color="#AF142E"/>
<stop offset="1" stop-color="#F27744"/>
</linearGradient>
<linearGradient id="paint61_linear_4323:17133" x1="120.18" y1="124.885" x2="117.536" y2="127.207" gradientUnits="userSpaceOnUse">
<stop stop-color="#AF142E"/>
<stop offset="1" stop-color="#F27744"/>
</linearGradient>
<linearGradient id="paint62_linear_4323:17133" x1="120.18" y1="124.885" x2="117.536" y2="127.207" gradientUnits="userSpaceOnUse">
<stop stop-color="#AF142E"/>
<stop offset="1" stop-color="#F27744"/>
</linearGradient>
<linearGradient id="paint63_linear_4323:17133" x1="121.895" y1="115.998" x2="118.967" y2="118.076" gradientUnits="userSpaceOnUse">
<stop stop-color="#AF142E"/>
<stop offset="1" stop-color="#F27744"/>
</linearGradient>
<linearGradient id="paint64_linear_4323:17133" x1="121.895" y1="115.998" x2="118.967" y2="118.076" gradientUnits="userSpaceOnUse">
<stop stop-color="#AF142E"/>
<stop offset="1" stop-color="#F27744"/>
</linearGradient>
<linearGradient id="paint65_linear_4323:17133" x1="122.636" y1="125.863" x2="120.549" y2="127.344" gradientUnits="userSpaceOnUse">
<stop stop-color="#AF142E"/>
<stop offset="1" stop-color="#F27744"/>
</linearGradient>
<linearGradient id="paint66_linear_4323:17133" x1="122.636" y1="125.863" x2="120.549" y2="127.344" gradientUnits="userSpaceOnUse">
<stop stop-color="#AF142E"/>
<stop offset="1" stop-color="#F27744"/>
</linearGradient>
<linearGradient id="paint67_linear_4323:17133" x1="115.871" y1="120.648" x2="114.279" y2="121.264" gradientUnits="userSpaceOnUse">
<stop stop-color="#AF142E"/>
<stop offset="1" stop-color="#F27744"/>
</linearGradient>
<linearGradient id="paint68_linear_4323:17133" x1="115.871" y1="120.648" x2="114.279" y2="121.264" gradientUnits="userSpaceOnUse">
<stop stop-color="#AF142E"/>
<stop offset="1" stop-color="#F27744"/>
</linearGradient>
<linearGradient id="paint69_linear_4323:17133" x1="129.698" y1="119.078" x2="123.499" y2="122.023" gradientUnits="userSpaceOnUse">
<stop stop-color="#AF142E"/>
<stop offset="1" stop-color="#F27744"/>
</linearGradient>
<linearGradient id="paint70_linear_4323:17133" x1="129.698" y1="119.078" x2="123.499" y2="122.023" gradientUnits="userSpaceOnUse">
<stop stop-color="#AF142E"/>
<stop offset="1" stop-color="#F27744"/>
</linearGradient>
<linearGradient id="paint71_linear_4323:17133" x1="135.182" y1="111.214" x2="133.045" y2="114.284" gradientUnits="userSpaceOnUse">
<stop stop-color="#AF142E"/>
<stop offset="1" stop-color="#F27744"/>
</linearGradient>
<linearGradient id="paint72_linear_4323:17133" x1="137.65" y1="117.432" x2="137.353" y2="117.479" gradientUnits="userSpaceOnUse">
<stop stop-color="#AF142E"/>
<stop offset="1" stop-color="#F27744"/>
</linearGradient>
<linearGradient id="paint73_linear_4323:17133" x1="283.856" y1="258.673" x2="271.259" y2="267.553" gradientUnits="userSpaceOnUse">
<stop stop-color="#AF142E"/>
<stop offset="1" stop-color="#F27744"/>
</linearGradient>
<linearGradient id="paint74_linear_4323:17133" x1="279.63" y1="265.305" x2="274.071" y2="269.334" gradientUnits="userSpaceOnUse">
<stop stop-color="#AF142E"/>
<stop offset="1" stop-color="#F27744"/>
</linearGradient>
<linearGradient id="paint75_linear_4323:17133" x1="270.874" y1="258.67" x2="258.179" y2="267.899" gradientUnits="userSpaceOnUse">
<stop stop-color="#AF142E"/>
<stop offset="1" stop-color="#F27744"/>
</linearGradient>
<linearGradient id="paint76_linear_4323:17133" x1="276.596" y1="283.518" x2="273.301" y2="288.845" gradientUnits="userSpaceOnUse">
<stop stop-color="#AF142E"/>
<stop offset="1" stop-color="#F27744"/>
</linearGradient>
<linearGradient id="paint77_linear_4323:17133" x1="276.176" y1="290.092" x2="274.847" y2="292.389" gradientUnits="userSpaceOnUse">
<stop stop-color="#AF142E"/>
<stop offset="1" stop-color="#F27744"/>
</linearGradient>
<linearGradient id="paint78_linear_4323:17133" x1="276.597" y1="284.021" x2="275.068" y2="288.004" gradientUnits="userSpaceOnUse">
<stop stop-color="#AF142E"/>
<stop offset="1" stop-color="#F27744"/>
</linearGradient>
<linearGradient id="paint79_linear_4323:17133" x1="276.597" y1="286.178" x2="275.26" y2="289.936" gradientUnits="userSpaceOnUse">
<stop stop-color="#AF142E"/>
<stop offset="1" stop-color="#F27744"/>
</linearGradient>
<linearGradient id="paint80_linear_4323:17133" x1="274.053" y1="269.451" x2="268.385" y2="271.957" gradientUnits="userSpaceOnUse">
<stop stop-color="#AF142E"/>
<stop offset="1" stop-color="#F27744"/>
</linearGradient>
<linearGradient id="paint81_linear_4323:17133" x1="275.734" y1="238.809" x2="217.428" y2="274.028" gradientUnits="userSpaceOnUse">
<stop stop-color="#000316"/>
<stop offset="1" stop-color="#050C25"/>
</linearGradient>
<linearGradient id="paint82_linear_4323:17133" x1="282.093" y1="246.6" x2="252.319" y2="290.97" gradientUnits="userSpaceOnUse">
<stop stop-color="#AF142E"/>
<stop offset="1" stop-color="#F27744"/>
</linearGradient>
<linearGradient id="paint83_linear_4323:17133" x1="281.134" y1="250.91" x2="255.856" y2="288.58" gradientUnits="userSpaceOnUse">
<stop stop-color="#AF142E"/>
<stop offset="1" stop-color="#F27744"/>
</linearGradient>
<linearGradient id="paint84_linear_4323:17133" x1="130.126" y1="261.489" x2="121.394" y2="281.486" gradientUnits="userSpaceOnUse">
<stop stop-color="#AF142E"/>
<stop offset="1" stop-color="#F27744"/>
</linearGradient>
<linearGradient id="paint85_linear_4323:17133" x1="128.191" y1="272.354" x2="119.062" y2="283.429" gradientUnits="userSpaceOnUse">
<stop stop-color="#AF142E"/>
<stop offset="1" stop-color="#F27744"/>
</linearGradient>
<linearGradient id="paint86_linear_4323:17133" x1="126.573" y1="238.809" x2="68.2631" y2="274.035" gradientUnits="userSpaceOnUse">
<stop stop-color="#000316"/>
<stop offset="1" stop-color="#050C25"/>
</linearGradient>
<linearGradient id="paint87_linear_4323:17133" x1="132.93" y1="246.6" x2="103.155" y2="290.966" gradientUnits="userSpaceOnUse">
<stop stop-color="#AF142E"/>
<stop offset="1" stop-color="#F27744"/>
</linearGradient>
<linearGradient id="paint88_linear_4323:17133" x1="131.968" y1="250.91" x2="106.69" y2="288.58" gradientUnits="userSpaceOnUse">
<stop stop-color="#AF142E"/>
<stop offset="1" stop-color="#F27744"/>
</linearGradient>
<linearGradient id="paint89_linear_4323:17133" x1="200.41" y1="144.814" x2="112.099" y2="198.128" gradientUnits="userSpaceOnUse">
<stop stop-color="#000316"/>
<stop offset="1" stop-color="#050C25"/>
</linearGradient>
<linearGradient id="paint90_linear_4323:17133" x1="200.391" y1="147.646" x2="200.391" y2="252.023" gradientUnits="userSpaceOnUse">
<stop stop-color="#F47C45"/>
<stop offset="1" stop-color="#DF3F3A"/>
</linearGradient>
<linearGradient id="paint91_linear_4323:17133" x1="200.5" y1="173" x2="200.5" y2="227" gradientUnits="userSpaceOnUse">
<stop stop-color="#DF3F3A"/>
<stop offset="1" stop-color="#F47C45"/>
</linearGradient>
<linearGradient id="paint92_linear_4323:17133" x1="225.326" y1="174.04" x2="186.226" y2="236.365" gradientUnits="userSpaceOnUse">
<stop offset="0.515625" stop-color="#B12E2A"/>
<stop offset="1" stop-color="#F47C45"/>
</linearGradient>
<linearGradient id="paint93_linear_4323:17133" x1="166.991" y1="163.286" x2="164.9" y2="166.401" gradientUnits="userSpaceOnUse">
<stop stop-color="#AF142E"/>
<stop offset="1" stop-color="#F27744"/>
</linearGradient>
<linearGradient id="paint94_linear_4323:17133" x1="234.726" y1="163.286" x2="232.636" y2="166.401" gradientUnits="userSpaceOnUse">
<stop stop-color="#AF142E"/>
<stop offset="1" stop-color="#F27744"/>
</linearGradient>
<linearGradient id="paint95_linear_4323:17133" x1="166.991" y1="232.352" x2="164.9" y2="235.467" gradientUnits="userSpaceOnUse">
<stop stop-color="#AF142E"/>
<stop offset="1" stop-color="#F27744"/>
</linearGradient>
<linearGradient id="paint96_linear_4323:17133" x1="234.726" y1="232.352" x2="232.636" y2="235.467" gradientUnits="userSpaceOnUse">
<stop stop-color="#AF142E"/>
<stop offset="1" stop-color="#F27744"/>
</linearGradient>
<linearGradient id="paint97_linear_4323:17133" x1="248.494" y1="147.127" x2="241.367" y2="157.743" gradientUnits="userSpaceOnUse">
<stop stop-color="#AF142E"/>
<stop offset="1" stop-color="#F27744"/>
</linearGradient>
<linearGradient id="paint98_linear_4323:17133" x1="157.039" y1="238.583" x2="149.912" y2="249.198" gradientUnits="userSpaceOnUse">
<stop stop-color="#AF142E"/>
<stop offset="1" stop-color="#F27744"/>
</linearGradient>
<linearGradient id="paint99_linear_4323:17133" x1="156.204" y1="148.128" x2="149.078" y2="158.748" gradientUnits="userSpaceOnUse">
<stop stop-color="#AF142E"/>
<stop offset="1" stop-color="#F27744"/>
</linearGradient>
<linearGradient id="paint100_linear_4323:17133" x1="246.115" y1="239.262" x2="238.994" y2="249.875" gradientUnits="userSpaceOnUse">
<stop stop-color="#AF142E"/>
<stop offset="1" stop-color="#F27744"/>
</linearGradient>
<clipPath id="clip0_4323:17133">
<rect width="400.003" height="399.627" fill="white"/>
</clipPath>
</defs>
</svg>
