<svg width="357" height="358" viewBox="0 0 357 358" fill="none" xmlns="http://www.w3.org/2000/svg">
<path style="mix-blend-mode:color-dodge" d="M151.362 71.8579C169.488 72.1716 187.116 77.8515 202.016 88.1801C216.916 98.5087 228.422 113.023 235.078 129.888C241.734 146.753 243.243 165.213 239.414 182.936C235.584 200.659 226.589 216.848 213.563 229.46C200.538 242.072 184.067 250.539 166.232 253.793C148.396 257.046 129.997 254.94 113.358 247.74C96.7193 240.54 82.5876 228.569 72.7484 213.34C62.9092 198.111 57.804 180.307 58.0778 162.177C58.4832 137.832 68.5363 114.644 86.028 97.7079C103.52 80.772 127.019 71.4743 151.362 71.8579Z" fill="url(#paint0_radial_3790:23986)"/>
<path style="mix-blend-mode:color-dodge" d="M196.233 168.748C238.501 169.35 272.376 202.273 271.721 242.279C271.065 282.285 236.394 314.216 194.126 313.596C151.858 312.976 117.983 280.072 118.638 240.065C119.293 200.059 153.947 168.182 196.233 168.748Z" fill="url(#paint1_radial_3790:23986)"/>
<g filter="url(#filter0_di_3790:23986)">
<path d="M113.005 137.346C113.005 124.516 118.963 113.229 128.264 105.849C132.042 102.858 136.353 100.495 141.052 98.9997C137.661 105.511 135.772 112.891 135.772 120.705C135.772 128.76 137.564 136.285 141.1 142.893C147.737 155.145 156.456 166.142 166.725 175.403C171.763 179.937 177.237 184.085 183.001 187.751C188.766 184.085 194.239 179.986 199.277 175.403C209.595 166.142 218.266 155.145 224.902 142.893C228.438 136.285 230.23 128.76 230.23 120.705C230.23 112.891 228.293 105.511 224.902 98.9997C229.601 100.495 233.912 102.858 237.69 105.849C246.991 113.181 252.997 124.516 252.997 137.346C252.997 139.034 253.191 144.678 250.285 151.865C248.056 157.315 244.859 162.235 240.693 166.239C236.867 170.146 231.926 174.053 225.386 177.574C195.16 194.07 191.963 219.49 191.963 226.291C191.963 242.256 201.021 252 201.021 252H193.264H186.406H182.634H173.376H164.933C164.933 252 173.991 242.305 173.991 226.291C173.991 219.49 170.794 194.07 140.567 177.574C134.076 174.004 129.087 170.146 125.26 166.239C121.094 162.235 117.897 157.315 115.669 151.865C112.763 144.678 113.005 139.034 113.005 137.346Z" fill="#091431" fill-opacity="0.9"/>
<path d="M113.005 137.346C113.005 124.516 118.963 113.229 128.264 105.849C132.042 102.858 136.353 100.495 141.052 98.9997C137.661 105.511 135.772 112.891 135.772 120.705C135.772 128.76 137.564 136.285 141.1 142.893C147.737 155.145 156.456 166.142 166.725 175.403C171.763 179.937 177.237 184.085 183.001 187.751C188.766 184.085 194.239 179.986 199.277 175.403C209.595 166.142 218.266 155.145 224.902 142.893C228.438 136.285 230.23 128.76 230.23 120.705C230.23 112.891 228.293 105.511 224.902 98.9997C229.601 100.495 233.912 102.858 237.69 105.849C246.991 113.181 252.997 124.516 252.997 137.346C252.997 139.034 253.191 144.678 250.285 151.865C248.056 157.315 244.859 162.235 240.693 166.239C236.867 170.146 231.926 174.053 225.386 177.574C195.16 194.07 191.963 219.49 191.963 226.291C191.963 242.256 201.021 252 201.021 252H193.264H186.406H182.634H173.376H164.933C164.933 252 173.991 242.305 173.991 226.291C173.991 219.49 170.794 194.07 140.567 177.574C134.076 174.004 129.087 170.146 125.26 166.239C121.094 162.235 117.897 157.315 115.669 151.865C112.763 144.678 113.005 139.034 113.005 137.346Z" stroke="url(#paint2_linear_3790:23986)" stroke-width="2.5"/>
</g>
<g style="mix-blend-mode:screen">
<path d="M39.5555 142.238C39.7686 141.428 40.0227 140.63 40.317 139.847L43.8585 128.867C44.9564 125.856 45.8417 123.908 45.8595 123.908L45.9657 123.678H46.1959C46.1959 123.678 50.3041 122.491 54.1997 121.553C56.183 121.074 58.1485 120.632 59.6006 120.331C59.6006 120.331 61.0526 120.03 61.8494 119.923L64.842 114.61C65.1962 114.026 65.5326 113.388 65.8868 112.733C66.542 111.529 67.268 110.201 68.1179 108.872L74.6166 99.5395C75.1175 98.8279 75.6615 98.1477 76.2457 97.5028L77.078 96.5111L81.3455 91.4993C82.3139 90.2318 83.3859 89.0471 84.5506 87.9573L85.7901 86.7531L86.5516 87.5323L85.2766 88.7543C84.1653 89.802 83.1352 90.9328 82.1955 92.1368L77.928 97.1664L77.0603 98.1581C76.5645 98.7425 76.0332 99.3447 75.5905 99.9291L69.1096 109.244C68.2773 110.502 67.5867 111.777 66.9315 112.999L65.7982 115.053L62.4692 121.004H62.1505C61.8671 121.004 60.9818 121.163 59.8308 121.429C58.3787 121.73 56.4309 122.155 54.5185 122.633C51.1717 123.43 47.7365 124.404 46.798 124.687C46.5323 125.272 45.7886 126.972 44.8855 129.274L41.344 140.219C40.6996 142.151 40.1966 144.128 39.8389 146.134L37.714 156.335C37.8556 156.582 38.1389 157.061 38.5639 157.68L40.8305 160.957L44.372 165.845L43.8408 170.768C43.7168 172.539 43.7168 174.735 43.7168 177.037C43.7168 178.383 43.7168 179.782 43.7168 181.181C43.6391 183.962 43.7752 186.745 44.1241 189.505C44.1241 190.231 44.2658 190.904 44.3189 191.541L44.7793 196.482L43.7877 197.846C43.4158 198.377 42.9377 199.05 42.5481 199.617L40.7774 202.61L41.8221 207.923C41.9461 208.49 42.07 209.109 42.1763 209.782C42.3721 211.048 42.6621 212.297 43.0439 213.519L44.9387 219.895C45.1866 220.656 45.3991 221.435 45.6293 222.197C45.9857 223.548 46.4173 224.878 46.9219 226.182L51.2957 236.967L50.7822 238.632L49.9853 241.784L48.9229 246.353L52.4644 252.959L56.7142 259.511C57.1569 260.167 57.5996 260.857 58.0423 261.548C59.1746 263.404 60.4349 265.18 61.814 266.861L63.0358 268.402C65.9672 272.389 69.1555 276.181 72.5802 279.754L77.8925 285.155C78.1936 285.155 78.831 285.155 79.6633 285.155H84.2496C87.4901 285.155 90.6597 285.155 90.6951 285.155H90.9076L94.3252 288.059C95.6179 289.033 97.2824 290.185 99.0354 291.389L102.01 293.461L103.515 294.506C104.419 295.143 105.286 295.745 106.154 296.277L113.432 300.438L118.974 299.075L124.853 297.091L128.218 298.544C128.855 298.791 129.546 299.11 130.289 299.447C131.872 300.216 133.519 300.844 135.212 301.324L145.837 304.707L145.5 305.734L134.876 302.387C133.136 301.881 131.441 301.23 129.811 300.438C129.085 300.102 128.395 299.801 127.775 299.553L124.765 298.26L119.24 300.137L113.237 301.607L105.463 297.286C104.542 296.719 103.693 296.082 102.736 295.515C102.258 295.161 101.745 294.807 101.249 294.47L98.2563 292.398C96.4855 291.176 94.8387 290.025 93.5107 289.033L90.4118 286.324C89.6327 286.324 86.8703 286.324 84.1256 286.324H79.5393C78.2467 286.324 77.4498 286.2 77.4144 286.2H77.2374L71.7657 280.55C68.2808 276.968 65.0446 273.151 62.0796 269.128L60.8755 267.605C59.4726 265.888 58.1888 264.077 57.033 262.186L55.6872 260.273L51.4551 253.596L47.7542 246.512L49.6843 238.419L50.1093 237.109L45.8595 226.624C45.3459 225.332 44.9387 223.915 44.5314 222.533C44.3189 221.772 44.1064 221.01 43.8585 220.249L41.9638 213.873C41.5675 212.605 41.2657 211.308 41.0607 209.995C40.9544 209.357 40.8482 208.755 40.7065 208.224L39.591 202.451L41.6096 199.104C42.0169 198.431 42.5127 197.74 42.9023 197.191L43.646 196.164L43.221 191.63C43.221 190.992 43.0971 190.319 43.0262 189.611C42.6775 186.798 42.5414 183.962 42.619 181.128C42.619 179.764 42.619 178.365 42.619 177.037C42.619 174.7 42.619 172.486 42.7429 170.662L43.221 166.128L39.9628 161.577L37.6431 158.176C36.9879 157.22 36.6515 156.582 36.6338 156.565V156.388L38.8295 145.762C39.0597 144.646 39.2368 143.389 39.5555 142.238Z" fill="url(#paint3_linear_3790:23986)"/>
</g>
<g style="mix-blend-mode:screen">
<path d="M145.819 304.688L158.551 307.344C160.003 307.539 161.544 307.698 163.12 307.858C164.076 307.858 165.032 308.035 165.988 308.159C166.945 308.283 167.759 308.336 168.751 308.442C170.298 308.673 171.861 308.786 173.426 308.779H184.67L186.653 308.584L186.83 308.814C186.83 308.814 189.416 311.842 192.143 314.782C194.427 317.244 196.871 319.67 197.774 320.538L198.96 320.432C199.509 320.432 200.235 320.219 201.085 320.042L202.661 319.741L206.202 319.068C208.611 318.607 211.338 318.094 214.012 317.439L225.061 314.145C225.923 313.913 226.764 313.611 227.576 313.241C227.904 313.083 228.241 312.941 228.585 312.816L229.718 312.374L232.286 307.309L234.836 301.996H235.066C235.438 301.859 235.8 301.693 236.146 301.5L239.209 299.888C240.077 299.41 241.086 298.897 242.149 298.348C244.097 297.356 246.292 296.24 248.364 294.947L257.218 289.245C257.914 288.825 258.572 288.345 259.184 287.81C259.467 287.58 259.715 287.368 259.963 287.19L261.114 286.27L265.027 286.518L268.569 286.695L269.631 285.845L270.251 285.349C271.113 284.703 271.924 283.993 272.677 283.223L275.422 280.585C277.334 278.814 279.494 276.671 281.584 274.546L289.623 265.106C290.255 264.366 290.846 263.591 291.394 262.786L292.067 261.812L293.076 260.378L297.981 259.138L302.603 257.845C302.78 257.615 303.134 257.084 303.63 256.287L309.987 244.51C310.801 242.828 311.563 241.057 312.36 239.197C312.767 238.259 313.174 237.284 313.599 236.346C315.526 232.115 317.136 227.746 318.416 223.276C318.717 222.302 319 221.381 319.283 220.531C320.105 218.219 320.762 215.852 321.249 213.447C320.912 212.774 319.478 210.206 318.221 207.798C316.964 205.389 315.547 203.14 315.14 202.485H314.839L314.98 201.954C315.275 200.593 315.476 199.215 315.582 197.827L316.574 188.423C316.75 187.008 316.821 185.581 316.787 184.155V174.964C315.497 173.534 314.131 172.175 312.696 170.891L307.384 166.074H308.145C307.986 163.205 305.117 146.434 304.32 145.176L304.71 144.928L304.551 144.273L305.153 144.468C305.932 145.371 309.208 163.258 309.225 166.339L313.528 169.952C315.441 171.723 317.07 173.494 317.725 174.132H317.973V183.961C318.01 185.428 317.933 186.897 317.743 188.353L316.751 197.721C316.66 199.097 316.464 200.465 316.167 201.812C316.574 202.485 317.938 204.787 319.266 207.125C320.842 209.941 322.382 212.934 322.4 212.969L322.63 213.412L322.418 213.553C321.919 216.006 321.251 218.42 320.417 220.779C320.133 221.629 319.85 222.55 319.549 223.524C318.259 228.032 316.632 232.437 314.679 236.7L313.458 239.551C312.643 241.446 311.882 243.235 311.032 244.864L304.48 256.641C303.4 258.412 303.152 258.713 302.868 258.696L298.176 259.988L293.643 261.157L292.881 262.255C292.669 262.539 292.456 262.857 292.226 263.212C291.748 263.884 291.181 264.735 290.455 265.62L282.381 275.095C280.238 277.255 278.078 279.327 276.165 281.169L273.438 283.808C272.649 284.607 271.803 285.346 270.906 286.022L270.304 286.5L268.923 287.615L261.45 287.19L260.6 287.881C260.345 288.059 260.102 288.254 259.874 288.466C259.214 289.021 258.516 289.53 257.785 289.989L249.037 295.673C246.912 297.002 244.681 298.135 242.716 299.215C241.653 299.764 240.661 300.26 239.794 300.756L236.73 302.35C236.398 302.547 236.048 302.713 235.686 302.846L233.348 307.805L230.444 313.401L228.921 314.003L227.965 314.393C227.103 314.788 226.209 315.108 225.291 315.349L214.259 318.643C211.532 319.334 208.77 319.847 206.344 320.308L202.909 320.981L201.333 321.282C200.465 321.459 199.721 321.6 199.119 321.689L197.349 321.848L197.154 321.671C196.375 320.91 193.754 318.324 191.31 315.685C188.867 313.047 186.759 310.638 186.104 309.894L184.635 310.036H173.373C171.755 310.046 170.139 309.934 168.538 309.7C167.653 309.576 166.768 309.469 165.829 309.398L162.925 309.097C161.349 308.938 159.791 308.779 158.303 308.584L145.536 305.91L145.819 304.688Z" fill="url(#paint4_linear_3790:23986)"/>
</g>
<g style="mix-blend-mode:screen">
<path d="M31.0383 139.846C33.5377 130.254 36.941 120.92 41.2025 111.971C46.5685 101.097 53.1762 90.881 60.8934 81.5279C61.9381 80.3237 62.9121 79.1726 63.7797 78.1454C65.2672 76.3744 66.489 74.9399 67.4983 73.8596L70.1191 71.3271L71.7481 73.0981L69.1628 75.5066C68.2243 76.5161 67.0025 77.9506 65.6213 79.6684C64.7359 80.7133 63.8506 81.8467 62.7173 83.0687C55.1133 92.2715 48.5952 102.32 43.292 113.016C36.0653 128.258 31.3418 144.565 29.303 161.31C26.9629 180.531 28.4067 200.024 33.5528 218.69C38.6955 237.361 47.3694 254.873 59.1049 270.278C69.2067 283.786 81.6013 295.414 95.7243 304.635C97.9755 306.264 100.343 307.726 102.807 309.009L104.808 310.125L107.943 311.896C109.713 312.923 111.484 313.897 113.255 314.659L121.028 318.024C121.825 318.325 122.604 318.679 123.366 319.015C124.715 319.665 126.112 320.209 127.545 320.645L140.631 324.789L139.922 327.02L126.89 322.894C125.348 322.433 123.849 321.841 122.41 321.123C121.684 320.804 120.922 320.468 120.125 320.149L112.316 316.766C110.443 315.907 108.616 314.95 106.845 313.897C105.835 313.33 104.808 312.728 103.746 312.126L101.745 311.028C99.197 309.702 96.7524 308.187 94.4316 306.495C80.0935 297.149 67.5072 285.358 57.2456 271.66C45.3282 256.011 36.5219 238.222 31.304 219.256C26.0831 200.338 24.6093 180.582 26.9656 161.098C27.8365 153.929 29.1973 146.829 31.0383 139.846Z" fill="url(#paint5_linear_3790:23986)"/>
</g>
<path opacity="0.8" d="M21.9019 148.79L31.0922 150.72L30.7734 152.278C30.7734 152.544 30.6141 153.005 30.5078 153.536C30.4016 154.067 30.1183 155.307 29.9589 156.387C29.7995 157.467 29.6933 159.044 29.4985 160.779C29.1443 164.055 28.7371 167.863 28.4183 172.025C27.851 187.74 29.6416 203.452 33.7306 218.637L35.9264 226.004C36.3378 227.548 36.8524 229.063 37.4669 230.538L42.3011 242.368L49.3842 255.756L53.1205 261.512C55.4414 265.226 58.0151 268.777 60.8233 272.138L65.1262 277.451C65.5512 277.982 65.7991 278.265 65.8699 278.336L59.1056 285.066C58.607 284.539 58.1399 283.983 57.7067 283.401L53.4923 278.088C50.4379 274.42 47.6507 270.538 45.152 266.471L40.3533 258.944L33.6421 246.105L28.8079 234.257C28.033 232.439 27.388 230.569 26.8778 228.66L24.6643 221.311C20.3154 205.103 18.4233 188.334 19.051 171.564C19.3697 166.995 19.8124 163.011 20.1666 159.823C20.3437 158.158 20.503 156.67 20.627 155.36C20.8572 153.731 21.1228 152.544 21.3353 151.588C21.3353 151.18 21.4946 150.844 21.5478 150.543L21.9019 148.79Z" fill="url(#paint6_linear_3790:23986)"/>
<g style="mix-blend-mode:screen">
<path d="M70.1191 71.3267L77.7157 63.9594L89.0486 54.9452C89.8631 54.3785 90.66 53.8649 91.4745 53.3336L100.895 47.206C102.843 46.0903 104.826 45.0632 106.88 44.0006L110.422 42.1411C125.776 34.4999 142.281 29.4325 159.277 27.1409C198.675 21.992 238.524 32.4466 270.322 56.2734C283.997 66.6012 295.884 79.1054 305.507 93.2867C306.25 94.4556 306.994 95.5713 307.72 96.6693C308.977 98.5997 310.217 100.477 311.262 102.354L316.574 112.378C317.016 113.228 317.459 114.149 317.866 114.893L323.551 129.06L326.366 138.517L324.117 139.19L321.089 129.043L315.777 115.831C315.423 115.105 314.998 114.29 314.555 113.458L309.243 103.47C308.198 101.699 306.976 99.9279 305.701 97.9444L303.488 94.5618C294.02 80.6058 282.325 68.2991 268.869 58.1329C237.56 34.6684 198.318 24.3784 159.525 29.4609C142.822 31.7119 126.604 36.6959 111.52 44.2131L107.978 45.9841C105.959 47.029 103.994 48.0561 102.152 49.1187L92.7672 55.2286C91.9703 55.7244 91.2089 56.238 90.4652 56.7339L78.849 66.0669L71.7659 72.9383L70.1191 71.3267Z" fill="url(#paint7_linear_3790:23986)"/>
</g>
<path opacity="0.8" d="M147.076 22.253L154.053 20.907C154.85 20.7476 155.7 20.5706 156.585 20.4643L169.459 19.2423C186.243 18.4572 203.052 20.1157 219.359 24.1656C235.509 28.5896 250.929 35.343 265.133 44.213L275.864 51.6511C276.585 52.2042 277.277 52.7953 277.935 53.4221L283.248 58.0266L277.156 65.1105L272.517 61.1612L271.685 60.4351C271.277 60.0809 270.852 59.709 270.357 59.3548L259.874 52.0584C246.558 43.781 232.128 37.4478 217.021 33.2507C201.683 29.4621 185.879 27.9054 170.096 28.6285L157.524 29.815C156.992 29.815 156.443 29.9921 155.912 30.0984C155.381 30.2046 155.098 30.2755 154.708 30.3286L148.847 31.4797L147.076 22.253Z" fill="url(#paint8_linear_3790:23986)"/>
<g style="mix-blend-mode:screen">
<path d="M140.542 324.736L153.911 327.534C155.389 327.88 156.894 328.099 158.409 328.189L160.959 328.455L169.37 329.358C171.338 329.512 173.312 329.565 175.284 329.517C176.471 329.517 177.675 329.517 178.826 329.517H181.075C183.824 329.621 186.576 329.515 189.309 329.199C206.189 328.117 222.749 324.083 238.235 317.28C256.026 309.62 272.179 298.611 285.815 284.853C299.455 271.145 310.283 254.902 317.689 237.037C324.146 221.438 328.033 204.895 329.199 188.052C329.834 176.159 329.097 164.233 327.003 152.509C326.685 150.897 326.401 149.445 326.153 148.099C325.728 145.885 325.374 144.043 325.038 142.644L324.046 139.28L326.295 138.607L327.304 142.025C327.676 143.53 328.03 145.407 328.455 147.656C328.721 148.984 328.987 150.454 329.305 152.031C331.436 163.953 332.191 176.081 331.554 188.176C330.353 205.278 326.406 222.075 319.867 237.923C312.36 256.104 301.363 272.638 287.498 286.589C273.651 300.559 257.252 311.741 239.191 319.529C223.496 326.422 206.716 330.515 189.61 331.625C186.795 331.946 183.96 332.059 181.128 331.961H178.95C177.71 331.961 176.506 331.961 175.408 331.961C173.346 332.005 171.284 331.94 169.228 331.766L160.8 330.881L158.303 330.615C156.68 330.515 155.069 330.278 153.486 329.907L139.993 327.038L140.542 324.736Z" fill="url(#paint9_linear_3790:23986)"/>
</g>
<path opacity="0.8" d="M225.396 324.028L228.389 321.23C228.738 321.118 229.081 320.988 229.416 320.84L235.879 318.219C239.949 316.683 243.902 314.854 247.708 312.747L256.863 307.7L266.691 301.306L276.554 293.496C277.862 292.492 279.099 291.397 280.255 290.22L285.868 284.783C296.872 273.534 306.13 260.699 313.333 246.707C315.103 242.971 316.555 239.517 317.866 236.471C318.539 234.877 319.141 233.461 319.636 232.221C319.973 231.389 320.238 230.45 320.486 229.688C320.734 228.927 320.77 228.714 320.911 228.342L321.354 226.943L330.314 229.777L329.818 231.3L329.464 232.433C329.181 233.372 328.809 234.541 328.313 235.851C327.817 237.162 327.109 238.632 326.542 240.155C325.267 243.112 323.709 246.814 321.797 250.781C314.131 265.728 304.251 279.43 292.491 291.424L286.842 296.897C285.423 298.344 283.902 299.688 282.291 300.917L272.038 309.01L256.863 318.52L252.277 320.911C248.141 323.191 243.851 325.179 239.439 326.862L233.099 329.429C232.108 329.855 231.435 330.067 231.329 330.12L229.894 325.64L225.396 324.028Z" fill="url(#paint10_linear_3790:23986)"/>
<g style="mix-blend-mode:screen">
<path d="M138.647 310.13L138.218 311.48L143.601 313.192L144.03 311.842L138.647 310.13Z" fill="url(#paint11_linear_3790:23986)"/>
</g>
<g style="mix-blend-mode:screen">
<path d="M118.106 303.714L118.691 302.421L119.523 302.776L126.093 305.609L125.526 306.92L118.992 304.086L118.106 303.714ZM130.502 309.027L130.927 307.663L133.494 308.478L133.069 309.824L130.502 309.027Z" fill="url(#paint12_linear_3790:23986)"/>
</g>
<g style="mix-blend-mode:screen">
<path d="M42.9024 151.819L44.3013 152.102L44.018 153.519C44.018 153.926 43.8232 154.457 43.6992 155.024C43.3785 156.33 43.1419 157.655 42.9909 158.991C42.9909 159.292 42.9909 159.629 42.9909 159.965L41.5743 159.841C41.5743 159.505 41.5743 159.186 41.5743 158.867C41.7394 157.466 41.9878 156.077 42.318 154.705C42.442 154.156 42.5482 153.678 42.6368 153.253L42.9024 151.819ZM40.8306 165.172L42.2472 165.331C42.2472 166.181 42.0524 167.102 41.9816 167.988L40.5473 167.846C40.7066 166.925 40.8306 166.04 40.8306 165.172ZM40.1754 173.265H41.592C41.5035 175.231 41.5035 177.09 41.592 178.95C41.6806 180.81 41.592 182.262 41.592 183.98H40.1577C40.1577 182.209 40.1577 180.562 40.1577 178.95C40.1577 177.338 40.14 175.266 40.2285 173.265H40.1754ZM40.4233 188.124L41.8576 188.035C42.0347 190.656 42.2826 193.348 42.6368 196.022L41.2202 196.199C40.9191 193.507 40.6535 190.78 40.4764 188.124H40.4233ZM41.9993 201.548L43.3982 201.317C43.5399 202.203 43.6992 203.088 43.8586 203.956L42.4597 204.222C42.3534 203.319 42.1941 202.433 42.0524 201.548H41.9993ZM43.5399 209.517L44.9211 209.198C45.7179 212.74 46.6918 216.282 47.648 219.558L46.2845 219.966C45.3106 216.583 44.3721 213.059 43.593 209.517H43.5399ZM47.5241 223.826L48.8699 223.384C49.7198 225.916 50.6406 228.449 51.6677 230.893L50.3573 231.442C49.3834 228.962 48.4449 226.394 47.5772 223.826H47.5241ZM52.5176 236.4L53.8103 235.798C54.129 236.524 54.4832 237.233 54.8196 237.959L54.9613 238.189L53.704 238.862L53.5624 238.596C53.2259 237.853 52.9072 237.126 52.5707 236.4H52.5176ZM56.1831 243.626L57.4403 242.971C58.995 246.166 60.77 249.249 62.7526 252.197L61.6016 253.03C59.5833 250.032 57.7899 246.889 56.2362 243.626H56.1831ZM63.8505 256.377L65.0546 255.598L67.392 259.14L69.694 262.044L68.5784 262.929L65.7452 259.228L63.8505 256.377ZM71.8898 267.215L73.023 266.347C73.572 267.056 74.1209 267.729 74.7053 268.402L73.6074 269.323C73.0053 268.65 72.4387 267.941 71.872 267.215H71.8898ZM77.202 273.343L78.2291 272.351L80.2123 274.441C80.9207 275.149 81.6112 275.858 82.2841 276.566L84.7455 279.116C85.0642 279.417 85.4184 279.718 85.7902 280.037L84.8694 281.117C84.4799 280.799 84.108 280.462 83.7539 280.126L81.2571 277.558L79.1853 275.415C78.5478 274.671 77.8926 274.016 77.2552 273.343H77.202ZM87.8266 283.65L88.7474 282.552L92.1827 285.439C93.0567 286.253 93.9729 287.022 94.9274 287.741L94.0597 288.874C92.9972 288.06 92.0764 287.28 91.2265 286.501L87.8266 283.65ZM98.4512 291.991L99.2657 290.805C99.9386 291.283 100.612 291.725 101.231 292.204L101.461 292.363L100.647 293.532L100.417 293.355C99.8855 292.894 99.2657 292.452 98.5574 291.991H98.4512ZM105.109 296.578L105.888 295.374C106.734 295.928 107.609 296.436 108.509 296.897L115.22 300.633L114.53 301.873L107.836 298.154C106.936 297.675 106.061 297.149 105.216 296.578H105.109Z" fill="url(#paint13_linear_3790:23986)"/>
</g>
<g style="mix-blend-mode:screen">
<path d="M44.5846 143.76L45.9835 144.061L44.8325 149.587L43.4336 149.303L44.5846 143.76Z" fill="url(#paint14_linear_3790:23986)"/>
</g>
<g style="mix-blend-mode:screen">
<path d="M44.6025 143.689L46.3202 138.306L47.6837 138.731L45.966 144.132L44.6025 143.689Z" fill="url(#paint15_linear_3790:23986)"/>
</g>
<g style="mix-blend-mode:screen">
<path d="M47.9141 133.223L48.7286 130.655L50.0921 131.08L49.2776 133.648L47.9141 133.223ZM50.8712 125.678L53.6867 119.143C53.8107 118.825 53.9347 118.524 54.0586 118.258L55.3513 118.842L54.9971 119.675L52.1639 126.245L50.8712 125.678Z" fill="url(#paint16_linear_3790:23986)"/>
</g>
<g style="mix-blend-mode:screen">
<path d="M55.8994 114.733L59.618 107.968C60.0076 107.189 60.5388 106.197 61.194 105.241L62.3981 106.02C61.8463 106.864 61.3438 107.739 60.893 108.641L57.1389 115.353L55.8994 114.733ZM64.2574 100.884L64.4168 100.654C64.8772 100.017 65.3376 99.3615 65.798 98.6885L66.9667 99.5031C66.5063 100.176 66.0459 100.831 65.5855 101.469L65.4261 101.717L64.2574 100.884ZM68.9145 94.261C69.7114 93.2162 70.4905 92.2776 71.2696 91.4275L74.1383 88.0626L75.2184 88.9835L72.3321 92.3838C71.5182 93.2538 70.7554 94.1703 70.0478 95.1288L68.9145 94.261ZM76.7413 84.9457L77.7329 83.8123L80.3005 81.4038C81.0088 80.7308 81.7348 80.0401 82.4431 79.3318L84.4441 77.4014L85.4357 78.4286L83.4348 80.3589L81.2921 82.431L78.7599 84.8926C78.4589 85.2114 78.1402 85.5833 77.8392 85.9375L76.7413 84.9457ZM88.446 73.6646C89.1366 73.0802 89.8272 72.5135 90.5532 71.8937L91.4386 73.0271C90.7303 73.5761 90.0397 74.1251 89.3668 74.7095L88.446 73.6646ZM94.7853 68.6528L98.4862 65.8015L101.39 63.9066L102.169 65.1108L98.6279 67.4485L95.7238 69.7685L94.7853 68.6528ZM104.755 61.746C107.75 59.7092 110.893 57.8978 114.157 56.3268L114.795 57.5842C111.601 59.1401 108.518 60.9153 105.569 62.8971L104.755 61.746ZM118.921 53.8475L119.186 53.6881L121.382 52.6609L121.984 53.9537C121.276 54.2902 120.55 54.609 119.842 54.9632L119.594 55.1049L118.921 53.8475ZM126.358 50.5003C128.837 49.4909 131.387 48.5346 133.955 47.6668L134.415 49.0127C131.883 49.8628 129.351 50.7837 126.889 51.8109L126.358 50.5003ZM137.815 46.4271C141.215 45.3999 144.739 44.479 148.28 43.6821L148.581 45.0634C145.04 45.8604 141.498 46.8344 138.24 47.7907L137.815 46.4271ZM153.575 42.6018L156.231 42.1413L156.461 43.5404L153.823 44.0009L153.575 42.6018ZM161.578 41.3621C164.288 41.0079 166.997 40.7423 169.653 40.5652L169.759 41.982C167.121 42.1768 164.447 42.4247 161.756 42.7789L161.578 41.3621ZM173.708 40.3527C175.479 40.3527 177.126 40.3527 178.755 40.3527C180.384 40.3527 182.509 40.3527 184.528 40.3527V41.7694C182.562 41.6809 180.703 41.6809 178.843 41.7694C176.984 41.858 175.55 41.7694 173.832 41.7694L173.708 40.3527ZM189.928 40.6891L192.62 40.9725L192.461 42.3893C191.593 42.3893 190.69 42.1945 189.787 42.1236L189.928 40.6891ZM197.95 41.5746H198.906C200.305 41.7484 201.695 41.9967 203.067 42.3184C203.616 42.4424 204.112 42.5664 204.537 42.6372L205.971 42.9383L205.67 44.3196L204.272 44.0363C203.847 44.0363 203.333 43.8415 202.749 43.7175C201.442 43.3969 200.118 43.1544 198.782 42.9914H197.808L197.95 41.5746Z" fill="url(#paint17_linear_3790:23986)"/>
</g>
<g style="mix-blend-mode:screen">
<path d="M208.461 43.5548L208.172 44.9417L213.702 46.0951L213.991 44.7081L208.461 43.5548Z" fill="url(#paint18_linear_3790:23986)"/>
</g>
<g style="mix-blend-mode:screen">
<path d="M214.047 44.7053L213.618 46.0558L219.003 47.764L219.431 46.4135L214.047 44.7053Z" fill="url(#paint19_linear_3790:23986)"/>
</g>
<g style="mix-blend-mode:screen">
<path d="M224.122 49.3846L224.547 48.021L227.115 48.8356L226.69 50.1816L224.122 49.3846ZM231.559 52.2713L232.126 50.9608L238.678 53.7767L239.545 54.1486L238.961 55.4414L238.129 55.1049L231.559 52.2713Z" fill="url(#paint20_linear_3790:23986)"/>
</g>
<g style="mix-blend-mode:screen">
<path d="M242.344 57.23L243.034 55.9904L249.781 59.7271C250.718 60.1962 251.628 60.7165 252.508 61.2856L251.746 62.4898C250.9 61.9418 250.026 61.4393 249.126 60.9845L242.344 57.23ZM256.085 65.4651L256.899 64.2962L257.147 64.4556C257.785 64.9338 258.422 65.3765 259.095 65.837L258.298 67.0058C257.608 66.5453 256.953 66.0849 256.315 65.6244L256.085 65.4651ZM262.672 70.0873L263.522 68.9539C264.585 69.7508 265.505 70.53 266.355 71.3093L269.72 74.1782L268.799 75.2585L265.417 72.3896C264.585 71.6635 263.681 70.9196 262.672 70.1404V70.0873ZM271.88 77.8796L272.801 76.7816L273.916 77.7733L276.395 80.3589L278.467 82.4841L280.415 84.4853L279.388 85.4593C278.733 84.8041 278.095 84.1311 277.458 83.4758L275.368 81.4038L272.925 78.8713L271.88 77.8796ZM282.983 89.4086L284.063 88.4877C284.647 89.1784 285.232 89.8868 285.834 90.5951L284.718 91.4806C284.116 90.8254 283.549 90.1347 282.983 89.4617V89.4086ZM287.976 95.7133L289.092 94.8278L291.925 98.5291L293.82 101.433L292.633 102.213L290.296 98.6708L287.976 95.7133ZM294.847 105.613L296.016 104.798C298.043 107.8 299.854 110.943 301.434 114.202L300.159 114.84C298.608 111.66 296.833 108.594 294.847 105.666V105.613ZM302.656 119.639L303.913 118.948L304.055 119.214C304.427 119.976 304.763 120.684 305.1 121.41L303.807 122.012C303.47 121.304 303.134 120.578 302.78 119.869L302.656 119.639ZM305.932 126.918L307.26 126.386C308.269 128.866 309.225 131.416 310.075 133.984L308.73 134.444C307.88 131.947 306.941 129.433 305.932 126.971V126.918ZM309.987 138.323L311.368 137.898C312.395 141.298 313.316 144.805 314.113 148.364L312.714 148.665C311.899 145.159 310.978 141.617 309.987 138.323ZM313.776 153.907L315.175 153.659C315.352 154.545 315.512 155.43 315.653 156.316L314.237 156.546C314.06 155.678 313.918 154.793 313.741 153.907H313.776ZM315.016 161.859L316.432 161.664C316.769 164.374 317.034 167.083 317.212 169.74L315.795 169.846C315.582 167.207 315.299 164.533 314.98 161.859H315.016ZM316.007 173.849H317.424C317.424 175.62 317.424 177.267 317.424 178.896C317.424 180.525 317.424 182.65 317.424 184.669H315.99C315.99 182.703 316.096 180.844 315.99 178.984C315.883 177.125 316.025 175.566 315.972 173.849H316.007ZM315.671 189.787L317.088 189.929C316.999 190.85 316.911 191.7 316.804 192.621L315.388 192.461C315.459 191.7 315.547 190.797 315.636 189.876L315.671 189.787ZM314.803 197.81L316.22 197.951C316.22 198.27 316.22 198.607 316.131 198.908C315.966 200.309 315.718 201.698 315.388 203.07C315.264 203.619 315.157 204.114 315.087 204.539L314.786 205.956L313.387 205.673L313.688 204.274C313.688 203.849 313.865 203.335 314.006 202.751C314.312 201.442 314.548 200.118 314.715 198.784C314.697 198.571 314.732 198.288 314.768 197.898L314.803 197.81Z" fill="url(#paint21_linear_3790:23986)"/>
</g>
<g style="mix-blend-mode:screen">
<path d="M312.82 208.276L314.219 208.577L313.068 214.103L311.669 213.82L312.82 208.276Z" fill="url(#paint22_linear_3790:23986)"/>
</g>
<g style="mix-blend-mode:screen">
<path d="M309.986 219.132L311.686 213.749L313.05 214.174L311.332 219.575L309.986 219.132Z" fill="url(#paint23_linear_3790:23986)"/>
</g>
<g style="mix-blend-mode:screen">
<path d="M302.302 239.021L302.656 238.171L305.489 231.601L306.799 232.185L303.966 238.72C303.842 239.021 303.718 239.322 303.594 239.588L302.302 239.021ZM307.614 226.713L308.429 224.163L309.774 224.588L308.978 227.156L307.614 226.713Z" fill="url(#paint24_linear_3790:23986)"/>
</g>
<g style="mix-blend-mode:screen">
<path d="M152.017 313.489L153.416 313.773C153.823 313.773 154.337 313.95 154.921 314.092C156.228 314.404 157.553 314.64 158.887 314.8L159.861 314.889L159.737 316.305H158.763C157.363 316.14 155.973 315.892 154.602 315.562L153.15 315.26L151.716 314.959L152.017 313.489ZM165.227 315.473L167.883 315.756L167.759 317.173L165.067 316.89L165.227 315.473ZM173.213 316.128C175.178 316.217 177.038 316.234 178.897 316.128C180.756 316.022 182.208 316.128 183.908 316.128V317.545C182.138 317.545 180.491 317.634 178.862 317.545C177.232 317.456 175.108 317.545 173.107 317.545L173.213 316.128ZM187.928 315.88C190.549 315.703 193.24 315.438 195.914 315.101L196.091 316.518C193.382 316.854 190.673 317.12 188.016 317.297L187.928 315.88ZM201.209 314.322L203.847 313.861L204.113 315.26L201.439 315.739L201.209 314.322ZM209.089 312.799C212.63 312.02 216.083 311.028 219.447 310.089L219.855 311.435C216.473 312.48 212.949 313.401 209.407 314.198L209.089 312.799ZM223.255 308.85C225.787 307.999 228.319 307.079 230.763 306.051L231.312 307.38C228.832 308.389 226.265 309.345 223.697 310.195L223.255 308.85ZM235.65 303.926L237.81 302.899L238.04 302.775L238.713 304.032L238.448 304.174C237.704 304.546 236.978 304.883 236.252 305.219L235.65 303.926ZM242.822 300.278C246.023 298.737 249.107 296.961 252.047 294.965L252.879 296.134C249.873 298.154 246.732 299.965 243.477 301.553L242.822 300.278ZM255.447 292.751L258.989 290.414L261.893 288.094L262.778 289.209L259.077 292.043L256.262 293.92L255.447 292.751ZM266.196 284.782C266.904 284.233 267.577 283.666 268.25 283.011L269.17 284.091C268.498 284.676 267.789 285.26 267.063 285.862L266.196 284.782ZM272.198 279.469L274.182 277.521L276.324 275.449L278.874 273.005C279.175 272.686 279.476 272.314 279.795 271.96L280.875 272.881L279.884 273.997L277.316 276.494L275.191 278.548L273.19 280.496L272.198 279.469ZM282.398 268.843L285.284 265.461C286.064 264.628 286.807 263.69 287.586 262.716L288.72 263.566C287.905 264.628 287.144 265.549 286.347 266.417L283.496 269.764L282.398 268.843ZM290.685 258.501L292.066 256.517L292.243 256.287L293.412 257.119L293.235 257.35C292.775 257.987 292.314 258.625 291.872 259.298L290.685 258.501ZM295.254 251.877C295.891 250.886 296.387 250.018 296.777 249.256L300.513 242.544L301.752 243.235L298.034 249.912C297.562 250.85 297.036 251.761 296.458 252.639L295.254 251.877Z" fill="url(#paint25_linear_3790:23986)"/>
</g>
<g style="mix-blend-mode:screen">
<path d="M143.964 311.822L143.674 313.209L149.203 314.366L149.493 312.98L143.964 311.822Z" fill="url(#paint26_linear_3790:23986)"/>
</g>
<g style="mix-blend-mode:screen">
<path d="M16.3946 140.731L17.9351 141.05L16.6425 147.177L15.1196 146.929L16.3946 140.731ZM13.8447 153.004L15.3852 153.305L15.2967 153.695L14.6946 159.45L13.1363 159.326L13.8447 153.004ZM12.4989 165.525L14.0571 165.684L13.7738 168.411C13.6337 169.587 13.5628 170.77 13.5613 171.953H12.0031C12.002 170.769 12.0729 169.587 12.2156 168.411L12.4989 165.525ZM11.9854 178.116H13.5613V184.386H11.9854V178.116ZM12.3572 190.69L13.8978 190.549L14.4821 196.747L12.9416 196.906L12.3572 190.69ZM13.579 203.211L15.1373 202.963C15.2613 203.778 15.4383 204.592 15.5977 205.425C15.7571 206.257 15.8633 206.7 15.9696 207.355L16.3237 209.126L14.7832 209.427L14.429 207.656C14.3228 207.019 14.1988 206.381 14.0571 205.743C13.8801 204.893 13.703 204.043 13.5613 203.211H13.579ZM15.9696 215.608L17.5101 215.307L18.1299 218.477C18.3778 219.398 18.6434 220.372 18.9267 221.346L17.4039 221.771L16.607 218.813L15.9696 215.608ZM19.2101 227.792L20.7152 227.332C21.335 229.297 21.9902 231.263 22.6985 233.247L21.2287 233.76C20.5027 231.706 19.8298 229.705 19.1924 227.721L19.2101 227.792ZM23.4245 239.658L24.8942 239.02C25.6379 240.95 26.4348 242.863 27.267 244.776L25.815 245.413C24.8942 243.465 24.1682 241.535 23.4068 239.587L23.4245 239.658ZM28.3826 251.204L29.7992 250.549C30.6846 252.426 31.57 254.286 32.5616 256.145L31.1627 256.854C30.2065 254.959 29.268 253.028 28.4357 251.133L28.3826 251.204ZM34.1553 262.432L35.5011 261.635L35.9969 262.521C36.9 263.991 37.7676 265.478 38.7593 266.931L37.4312 267.781C36.4927 266.311 35.5542 264.805 34.6511 263.3L34.1553 262.432ZM40.9373 273.058L42.2123 272.155C43.3987 273.926 44.6205 275.555 45.86 277.22L44.6028 278.159C43.3455 276.37 42.106 274.67 40.9196 272.952L40.9373 273.058ZM48.4453 283.135L49.6672 282.161C50.9775 283.79 52.3056 285.384 53.6514 286.96L52.4473 287.987C51.0838 286.287 49.6849 284.676 48.4276 283.029L48.4453 283.135ZM56.6086 292.698L57.7773 291.636C59.1762 293.194 60.6105 294.699 62.0448 296.169L60.9292 297.267C59.4595 295.691 58.0252 294.15 56.5908 292.592L56.6086 292.698ZM65.4624 301.677L66.4717 300.49L71.235 304.546L70.2257 305.733L65.4624 301.677ZM74.9891 309.806L76.0161 308.619C76.7598 309.275 77.5212 309.912 78.3004 310.496L80.9388 312.267L80.0534 313.543L77.3796 311.772C76.5473 311.028 75.7682 310.373 74.9891 309.7V309.806ZM85.1887 317.191L86.0917 315.916L91.1738 319.458L90.4124 320.821L89.5447 320.255L85.1887 317.191ZM95.8132 323.85L96.5747 322.486L99.2485 323.974C100.187 324.469 101.126 325.001 102.046 325.532L101.267 326.896C100.364 326.382 99.4964 325.851 98.4871 325.355L95.8132 323.85ZM106.934 329.765L107.553 328.33L113.291 330.81L112.671 332.262L106.934 329.765ZM118.497 334.653L119.116 333.218L120.639 333.873L124.96 335.237L124.482 336.725L120.108 335.326L118.497 334.653ZM130.449 338.637L130.927 337.132L136.895 339.027L136.417 340.514L130.449 338.637Z" fill="url(#paint27_linear_3790:23986)"/>
</g>
<g style="mix-blend-mode:screen">
<path d="M17.2803 136.517L19.175 130.549L20.6624 131.027L18.7677 136.995L17.2803 136.517ZM21.0697 124.581L22.4686 120.189L23.1238 118.595L24.5581 119.215L23.8852 120.738L22.5217 125.041L21.0697 124.581ZM25.6383 112.839L28.1173 107.101L29.5517 107.721L27.0726 113.459L25.6383 112.839ZM30.9506 101.434C31.4641 100.531 31.9953 99.6631 32.4911 98.6537L33.9963 95.9795L35.3598 96.741L33.8723 99.4152C33.3588 100.354 32.8276 101.292 32.2963 102.213L30.9506 101.434ZM37.042 90.5072L37.6263 89.6394L40.6366 85.2828L41.9293 86.186L38.3878 91.2687L37.042 90.5072ZM44.125 80.147L46.1437 77.4905C46.7635 76.6405 47.4363 75.8613 48.1092 75.082L49.2956 76.1092C48.6405 76.8707 48.003 77.6145 47.4009 78.3937L45.6302 81.0325L44.125 80.147ZM52.0049 70.3181L56.06 65.5542L57.2641 66.5636L53.1913 71.3276L52.0049 70.3181ZM60.4692 61.0028C61.9566 59.5506 63.4972 58.1161 65.0377 56.6816L66.1002 57.8505C64.5596 59.2495 63.0368 60.684 61.567 62.1185L60.4692 61.0028ZM69.7657 52.5198C71.3593 51.1739 72.9707 49.828 74.6175 48.5174L75.5915 49.7394C73.9624 51.0499 72.351 52.3782 70.775 53.7064L69.7657 52.5198ZM79.7882 44.6744C81.4527 43.4348 83.1703 42.1951 84.888 41.0085L85.7733 42.3013C84.0026 43.4879 82.3912 44.6921 80.7267 45.8433L79.7882 44.6744ZM90.1117 37.5906C91.5992 36.6342 93.0866 35.6956 94.5917 34.7924L95.4771 34.2965L96.274 35.6425L95.3886 36.1384C93.9011 37.0238 92.4314 37.9093 90.9617 38.9011L90.1117 37.5906ZM101.037 31.2328C102.914 30.2764 104.791 29.3555 106.686 28.4523L107.359 29.8868C105.482 30.7546 103.605 31.6578 101.763 32.6318L101.037 31.2328ZM112.423 25.9198C114.353 25.0875 116.301 24.3083 118.249 23.529L118.816 24.9989C116.886 25.7605 114.955 26.5397 113.043 27.372L112.423 25.9198ZM124.057 21.2799C126.04 20.5892 128.024 19.9163 130.007 19.2787L130.485 20.784C128.52 21.4039 126.536 22.0591 124.571 22.7675L124.057 21.2799ZM136.045 17.4723L138.985 16.6754L142.19 16.0555L142.491 17.5786L139.339 18.1984L136.453 18.9953L136.045 17.4723ZM148.352 14.8513L150.123 14.4971L152.035 14.1429C152.885 13.9658 153.806 13.7887 154.55 13.647L154.798 15.2055C153.983 15.3294 153.169 15.5065 152.354 15.6659L150.424 16.0378L148.653 16.392L148.352 14.8513ZM160.747 13.0803V13.8595V13.0626L166.963 12.4782L167.104 14.0366L160.924 14.621L160.747 13.0803ZM173.284 12.1063H179.553V13.6824H173.284V12.1063ZM185.821 12.1063C187.005 12.1057 188.188 12.1767 189.363 12.3188L192.054 12.6021L191.895 14.1606L189.168 13.8772C188.028 13.7381 186.881 13.673 185.733 13.6824L185.821 12.1063ZM198.358 13.2574L204.662 13.9658L204.344 15.5065L203.954 15.418L198.199 14.8159L198.358 13.2574ZM210.754 15.2409L216.881 16.516L216.562 18.039L210.417 16.7639L210.754 15.2409Z" fill="url(#paint28_linear_3790:23986)"/>
</g>
<g style="mix-blend-mode:screen">
<path d="M220.758 18.8527L221.236 17.3651L227.203 19.26L226.743 20.7476L220.758 18.8527ZM232.71 22.6425L233.171 21.1549L237.562 22.554L239.156 23.2447L238.554 24.6792L237.013 24.0239L232.71 22.6425ZM244.291 27.1585L244.911 25.724L250.666 28.2742L250.046 29.7264L244.291 27.1585ZM255.536 32.4714L256.315 31.1255C257.236 31.6391 258.085 32.1704 259.095 32.6662L261.786 34.1539L261.025 35.5352L258.351 34.0476C257.395 33.5872 256.456 32.9673 255.536 32.436V32.4714ZM266.497 38.599L267.24 37.2176L268.126 37.8021L272.464 40.8127L271.579 42.1055L266.497 38.599ZM276.714 45.6829L277.617 44.3901L280.273 46.2496C281.105 46.8694 281.885 47.5424 282.681 48.2154L281.654 49.4019C280.893 48.7467 280.149 48.1091 279.352 47.507L276.714 45.6829ZM286.418 53.4575L287.445 52.2709L292.279 56.291L291.252 57.4953L286.418 53.4575ZM295.626 61.8342L296.741 60.7362C298.211 62.2415 299.645 63.7468 301.062 65.323L299.911 66.3678C298.494 64.7917 297.06 63.2686 295.626 61.7987V61.8342ZM304.037 71.0432L305.223 70.0338C306.587 71.6276 307.915 73.2392 309.225 74.8862L308.003 75.8603C306.711 74.1955 305.383 72.5485 304.037 71.0078V71.0432ZM311.757 80.7658L313.015 79.8272C314.272 81.4919 315.494 83.2098 316.698 84.9276L315.405 85.8308C314.272 84.113 313.05 82.4128 311.757 80.7658ZM318.84 91.0021L320.151 90.152C321.107 91.6396 322.028 93.1272 322.931 94.6326L323.427 95.518L322.081 96.315L321.585 95.4295C320.788 93.9419 319.867 92.472 318.929 91.0021H318.84ZM325.02 101.805L326.419 101.097C327.375 102.868 328.314 104.833 329.199 106.728L327.783 107.401C326.986 105.524 326.065 103.647 325.109 101.805H325.02ZM330.333 113.086L331.767 112.466C332.599 114.397 333.396 116.345 334.157 118.293L332.705 118.859C332.05 116.929 331.236 115.052 330.439 113.086H330.333ZM334.883 124.704L336.353 124.19C337.061 126.174 337.717 128.157 338.354 130.141L336.867 130.619C336.335 128.653 335.68 126.669 334.99 124.704H334.883ZM338.655 136.605L340.16 136.18C340.444 137.154 340.709 138.145 340.975 139.119L341.595 142.325L340.054 142.626L339.434 139.474C339.31 138.553 339.027 137.579 338.761 136.605H338.655ZM341.364 148.7L342.905 148.417L343.241 150.188C343.359 150.849 343.483 151.487 343.613 152.101C343.79 152.951 343.95 153.872 344.091 154.615L342.551 154.881C342.409 154.066 342.25 153.234 342.073 152.419L341.701 150.471L341.364 148.7ZM343.135 161.097L344.693 160.938L345.278 167.136L343.72 167.278L343.135 161.097ZM344.091 173.494H345.65V179.763H344.091V173.494ZM344.091 186.015H345.65C345.655 187.198 345.59 188.381 345.455 189.557L345.172 192.266L343.613 192.089L343.897 189.362C344.03 188.251 344.1 187.133 344.109 186.015H344.091ZM342.94 198.411L344.499 198.571L343.79 204.876L342.267 204.557V204.185L342.94 198.411ZM340.993 210.684L342.533 211.021L341.24 217.148L339.718 216.83L340.993 210.684Z" fill="url(#paint29_linear_3790:23986)"/>
</g>
<g style="mix-blend-mode:screen">
<path d="M140.95 339.859L147.076 341.134L146.758 342.675L140.631 341.382L140.95 339.859ZM153.203 342.409H153.593L159.348 343.012L159.188 344.57L152.902 343.879L153.203 342.409ZM165.599 343.738L168.326 344.039C169.501 344.172 170.684 344.237 171.867 344.233V345.792C170.684 345.798 169.501 345.733 168.326 345.597L165.616 345.314L165.599 343.738ZM177.994 344.251H184.262V345.81H178.012L177.994 344.251ZM190.389 343.897L196.587 343.313L196.746 344.871V344.092V344.871L190.531 345.455L190.389 343.897ZM202.785 342.675L205.246 342.197L207.176 341.825L208.947 341.488L209.248 343.029L207.477 343.366L205.565 343.738C204.732 343.915 203.9 344.074 203.05 344.216L202.785 342.675ZM215.056 340.284L218.226 339.664C219.146 339.434 220.12 339.168 221.094 338.885L221.519 340.39L218.562 341.205L215.357 341.825L215.056 340.284ZM227.079 337.096C229.045 336.477 231.011 335.804 232.976 335.113L233.507 336.583C231.524 337.291 229.523 337.947 227.54 338.584L227.079 337.096ZM238.837 332.917C240.767 332.173 242.68 331.376 244.592 330.562L245.212 331.996C243.282 332.828 241.352 333.625 239.404 334.387L238.837 332.917ZM250.294 327.994C252.171 327.108 254.03 326.223 255.89 325.249L256.598 326.63C254.721 327.604 252.844 328.525 250.949 329.41L250.294 327.994ZM261.379 322.291L262.265 321.795C263.734 320.91 265.222 320.024 266.674 319.05L267.524 320.361C266.054 321.317 264.567 322.238 263.044 323.141L262.176 323.655L261.379 322.291ZM271.862 315.579C273.633 314.393 275.262 313.171 276.926 311.931L277.865 313.188C276.094 314.446 274.483 315.668 272.747 316.872L271.862 315.579ZM281.867 308.123C283.496 306.831 285.09 305.502 286.666 304.156L287.693 305.343C286.099 306.707 284.488 308.035 282.841 309.345L281.867 308.123ZM291.34 300.03C292.899 298.613 294.404 297.196 295.874 295.744L296.971 296.878C295.484 298.33 293.961 299.764 292.403 301.181L291.34 300.03ZM300.194 291.317L304.249 286.535L305.453 287.562L301.381 292.326L300.194 291.317ZM308.322 281.771C308.977 281.01 309.615 280.248 310.199 279.469L311.97 276.83L313.245 277.733L311.474 280.39C310.837 281.222 310.181 282.002 309.508 282.798L308.322 281.771ZM315.618 271.694L319.159 266.612L320.523 267.356L319.956 268.241L316.963 272.668L315.618 271.694ZM322.187 261.069L323.675 258.394C324.17 257.438 324.702 256.5 325.233 255.596L326.596 256.358C326.083 257.279 325.552 258.129 325.056 259.138L323.551 261.83L322.187 261.069ZM328.031 250.089L330.51 244.333L331.944 244.953L329.465 250.708L328.031 250.089ZM333.006 238.666L333.662 237.125L335.025 232.822L336.53 233.3L335.131 237.674L334.441 239.268L333.006 238.666ZM336.92 226.853L338.815 220.868L340.302 221.346L338.425 227.314L336.92 226.853Z" fill="url(#paint30_linear_3790:23986)"/>
</g>
<g style="mix-blend-mode:screen">
<path d="M32.0658 279.381C32.1316 279.094 32.302 278.841 32.5439 278.673C32.8098 278.514 33.1246 278.457 33.4292 278.513C33.7431 278.583 34.0166 278.774 34.1907 279.045L34.8813 280.125C35.0229 280.32 35.1292 280.515 35.2708 280.709C35.4125 280.904 35.7489 281.418 36.0146 281.843C36.1868 282.1 36.2517 282.414 36.1955 282.719C36.1392 283.023 35.9663 283.294 35.7135 283.472C35.4613 283.645 35.1513 283.713 34.85 283.66C34.5487 283.607 34.2802 283.438 34.1021 283.189L33.2699 281.931C33.1663 281.751 33.0479 281.579 32.9157 281.418L32.2074 280.302C32.1199 280.167 32.062 280.016 32.0376 279.857C32.0132 279.698 32.0228 279.536 32.0658 279.381ZM49.6848 301.005C49.7304 300.788 49.8417 300.59 50.0036 300.438C50.2327 300.231 50.5275 300.112 50.8358 300.102C50.9935 300.108 51.1483 300.146 51.2912 300.213C51.4341 300.279 51.5622 300.374 51.6681 300.491C51.8841 300.714 52.0027 301.014 51.9977 301.325C51.9927 301.635 51.8646 301.931 51.6415 302.147C51.4184 302.363 51.1187 302.482 50.8082 302.477C50.4977 302.472 50.2019 302.344 49.9859 302.121C49.8462 301.975 49.7454 301.796 49.6928 301.601C49.6402 301.406 49.6375 301.201 49.6848 301.005ZM72.0496 320.928C72.0949 320.795 72.1481 320.665 72.2089 320.539C72.4068 320.295 72.6816 320.127 72.9881 320.06C73.2892 320.011 73.5982 320.074 73.8557 320.238L74.7234 320.822L83.8074 327.109C85.1729 328.092 86.6047 328.98 88.0927 329.765H88.2697L92.5727 332.192L92.8737 332.333L96.1496 334.104C97.9204 335.131 99.6911 336.159 101.462 336.991C103.233 337.823 105.375 338.656 107.164 339.453L110.139 340.728L116.584 343.526C117.895 343.986 119.152 344.376 120.232 344.695L122.003 345.261C125.066 346.271 126.819 346.82 126.819 346.82C127.105 346.906 127.346 347.101 127.492 347.362C127.637 347.623 127.675 347.93 127.598 348.219C127.552 348.365 127.477 348.501 127.378 348.618C127.279 348.735 127.157 348.831 127.02 348.9C126.883 348.97 126.734 349.011 126.581 349.022C126.428 349.032 126.274 349.012 126.129 348.963L121.294 347.44L119.524 346.891C118.373 346.554 117.062 346.147 115.628 345.651L111.077 343.685L100.453 339.116C98.5579 338.195 96.734 337.133 94.7861 336.035C93.7591 335.486 92.7143 334.884 91.6342 334.264L89.1905 332.865L86.8708 331.572C85.2939 330.774 83.7838 329.85 82.3554 328.809L75.839 324.275L73.3422 322.504C73.0766 322.31 72.7579 322.133 72.4568 321.92C72.3217 321.792 72.2191 321.634 72.1575 321.458C72.0959 321.283 72.0771 321.095 72.1027 320.911L72.0496 320.928Z" fill="url(#paint31_linear_3790:23986)"/>
</g>
<g style="mix-blend-mode:screen">
<path d="M6.46005 133.753C10.4867 118.418 16.5306 103.685 24.4333 89.9395C24.5014 89.805 24.5988 89.6874 24.7183 89.5955C24.8378 89.5035 24.9764 89.4395 25.1239 89.4082C25.2736 89.3626 25.4311 89.3485 25.5865 89.3668C25.742 89.385 25.8919 89.4353 26.027 89.5145C26.2942 89.6699 26.4889 89.9249 26.5686 90.2236C26.6482 90.5223 26.6063 90.8404 26.452 91.1083C18.6657 104.654 12.7112 119.172 8.74434 134.285V134.533C7.80583 138.074 6.97357 141.776 6.26527 145.477V145.707C6.26527 146.079 6.08819 146.433 6.03507 146.805C6.00751 146.958 5.94967 147.104 5.86495 147.235C5.78024 147.365 5.67034 147.478 5.54171 147.565C5.41307 147.652 5.26829 147.713 5.11584 147.744C4.96338 147.775 4.80633 147.775 4.65388 147.744C4.50095 147.722 4.35492 147.665 4.22632 147.58C4.09771 147.494 3.98973 147.381 3.91016 147.248C3.73738 146.987 3.66794 146.672 3.71538 146.363C3.71538 145.955 3.91016 145.53 3.98099 145.105C4.61846 141.315 5.41531 137.525 6.46005 133.753ZM2.74145 151.693C2.77285 151.542 2.8337 151.399 2.92055 151.271C3.0074 151.143 3.11853 151.034 3.24761 150.949C3.5083 150.778 3.82624 150.718 4.1315 150.781C4.28265 150.813 4.42614 150.873 4.55377 150.96C4.6814 151.047 4.79068 151.158 4.87536 151.287C4.96004 151.417 5.01847 151.561 5.04731 151.713C5.07615 151.864 5.07484 152.02 5.04345 152.171C4.98726 152.466 4.81986 152.728 4.57593 152.903C4.332 153.078 4.03021 153.152 3.73308 153.11C3.43774 153.054 3.17331 152.892 2.99037 152.653C2.80743 152.415 2.71881 152.117 2.74145 151.817C2.73012 151.777 2.73012 151.734 2.74145 151.693ZM0.705079 176.133C0.773026 175.877 0.925591 175.652 1.13786 175.495C1.35013 175.337 1.60956 175.256 1.87378 175.265C2.19133 175.273 2.49443 175.399 2.72375 175.619C2.9295 175.847 3.04309 176.144 3.04248 176.451C3.06297 176.618 3.04781 176.787 2.99799 176.948C2.94818 177.108 2.86485 177.257 2.75353 177.382C2.6422 177.508 2.50542 177.609 2.35223 177.678C2.19904 177.747 2.03294 177.783 1.86493 177.783C1.69691 177.783 1.53081 177.747 1.37763 177.678C1.22444 177.609 1.08765 177.508 0.976329 177.382C0.865004 177.257 0.781677 177.108 0.731862 176.948C0.682048 176.787 0.666883 176.618 0.687371 176.451C0.660456 176.346 0.666638 176.235 0.705079 176.133ZM2.75916 206.027C2.8186 205.806 2.94342 205.608 3.11724 205.46C3.29106 205.311 3.50574 205.219 3.73308 205.194C4.0286 205.144 4.33228 205.207 4.58305 205.371C4.83199 205.564 5.002 205.841 5.06115 206.151C5.20281 207.089 5.36218 207.922 5.50384 208.913C7.92028 223.103 12.0837 236.939 17.8992 250.106L18.6783 251.983C20.2366 255.171 21.6886 257.916 22.8573 260.13L24.026 262.361C24.1425 262.638 24.1527 262.949 24.0547 263.233C23.9567 263.517 23.7574 263.756 23.4948 263.902C23.2144 264.04 22.8914 264.063 22.5941 263.968C22.2967 263.872 22.0482 263.664 21.9011 263.388C21.5646 262.716 21.1751 261.989 20.7678 261.21C19.5814 258.961 18.094 256.181 16.5003 252.869C16.2347 252.178 15.9513 251.523 15.668 250.832C9.79139 237.556 5.59184 223.6 3.16644 209.285C2.98936 208.329 2.8477 207.514 2.70604 206.469C2.70085 206.32 2.71877 206.171 2.75916 206.027ZM41.3972 65.6063C41.4621 65.4439 41.5452 65.2894 41.6451 65.1459C41.7446 65.029 41.8663 64.9328 42.003 64.8629C42.1397 64.793 42.2889 64.7508 42.4419 64.7385C42.7539 64.7177 43.0627 64.8122 43.3096 65.0042C43.5389 65.2088 43.6813 65.4934 43.7076 65.7996C43.734 66.1058 43.6422 66.4104 43.4513 66.6512C43.3596 66.7725 43.2422 66.872 43.1075 66.9425C42.9727 67.0129 42.8241 67.0525 42.6721 67.0585C42.5182 67.0834 42.3606 67.0741 42.2107 67.0313C42.0607 66.9884 41.922 66.9131 41.8045 66.8106C41.631 66.6678 41.501 66.4794 41.429 66.2666C41.357 66.0538 41.346 65.8251 41.3972 65.6063ZM58.3611 47.8966C58.4068 47.6704 58.5249 47.4653 58.6975 47.3122C58.9216 47.0979 59.2197 46.9782 59.5298 46.9782C59.8399 46.9782 60.138 47.0979 60.362 47.3122C60.5724 47.5383 60.6893 47.8357 60.6893 48.1445C60.6893 48.4534 60.5724 48.7508 60.362 48.9769C60.1401 49.1954 59.8412 49.3178 59.5298 49.3178C59.2184 49.3178 58.9195 49.1954 58.6975 48.9769C58.5441 48.84 58.4315 48.6634 58.3721 48.4665C58.3127 48.2696 58.3089 48.0601 58.3611 47.8612V47.8966ZM62.4515 44.3547C62.5053 44.1174 62.6286 43.9016 62.8057 43.7348C70.068 37.4897 77.8259 31.8453 86.0027 26.8575C94.9999 21.3289 104.483 16.6341 114.335 12.8314C114.478 12.7705 114.631 12.7391 114.786 12.7391C114.942 12.7391 115.095 12.7705 115.238 12.8314C115.376 12.8915 115.501 12.9789 115.604 13.0885C115.708 13.1981 115.788 13.3275 115.84 13.4689C115.952 13.7606 115.946 14.0843 115.824 14.3718C115.702 14.6593 115.473 14.888 115.185 15.0097C96.629 22.1724 79.4349 32.4565 64.3463 45.4172C64.231 45.5185 64.0958 45.5944 63.9494 45.6401C63.803 45.6859 63.6487 45.7005 63.4963 45.6829C63.3418 45.6771 63.1905 45.6376 63.0529 45.5672C62.9153 45.4969 62.7946 45.3973 62.6994 45.2756C62.5691 45.1354 62.4777 44.9636 62.4342 44.7773C62.3907 44.5909 62.3967 44.3963 62.4515 44.213V44.3547ZM24.3979 267.497C24.4421 267.339 24.5183 267.191 24.6219 267.063C24.7254 266.935 24.8541 266.83 24.9999 266.753C25.137 266.683 25.2867 266.641 25.4402 266.629C25.5938 266.616 25.7482 266.635 25.8947 266.682C26.0412 266.73 26.1767 266.806 26.2937 266.907C26.4106 267.007 26.5065 267.129 26.5759 267.267C26.7084 267.545 26.729 267.864 26.6335 268.157C26.5379 268.451 26.3335 268.696 26.0624 268.843C25.7893 268.969 25.4794 268.99 25.1919 268.902C24.9044 268.814 24.6595 268.622 24.5041 268.365C24.425 268.23 24.3747 268.08 24.3564 267.924C24.3382 267.769 24.3523 267.611 24.3979 267.462V267.497ZM142.455 5.09222C142.506 4.88273 142.617 4.69262 142.774 4.5449C142.931 4.39717 143.128 4.29817 143.34 4.25986C143.566 4.21212 143.802 4.23262 144.016 4.31876C144.231 4.4049 144.415 4.55281 144.546 4.74376C144.676 4.93471 144.747 5.16011 144.75 5.39143C144.752 5.62275 144.686 5.84957 144.559 6.04319C144.433 6.2368 144.252 6.3885 144.039 6.47907C143.826 6.56964 143.591 6.59501 143.364 6.55197C143.136 6.50893 142.927 6.39942 142.762 6.23729C142.597 6.07516 142.484 5.86772 142.437 5.64122C142.39 5.46031 142.396 5.26973 142.455 5.09222ZM166.749 1.81592C166.808 1.628 166.912 1.45709 167.051 1.31775C167.19 1.17841 167.361 1.07475 167.548 1.01562C167.736 0.956488 167.936 0.943625 168.129 0.97813C168.323 1.01263 168.506 1.09348 168.662 1.21379C168.836 1.36684 168.961 1.56744 169.022 1.79084C169.083 2.01425 169.078 2.25069 169.006 2.47101C168.935 2.69132 168.8 2.88588 168.62 3.03067C168.439 3.17546 168.22 3.26416 167.989 3.28583C167.693 3.28742 167.405 3.18739 167.174 3.00247C166.935 2.79427 166.783 2.50327 166.749 2.18783C166.733 2.06437 166.733 1.93938 166.749 1.81592ZM172.186 1.56799C172.256 1.31406 172.41 1.09092 172.621 0.933785C172.833 0.776652 173.091 0.69447 173.354 0.700209H183.873C186.457 0.651233 189.042 0.769545 191.611 1.0544L204.236 2.38263C205.429 2.46454 206.614 2.64221 207.778 2.91392L208.256 3.00247C208.628 3.10873 208.823 3.10873 208.911 3.14415C209.214 3.21877 209.478 3.40146 209.655 3.65773C209.74 3.78705 209.796 3.93276 209.82 4.08535C209.845 4.23794 209.837 4.39396 209.797 4.54322C209.767 4.6924 209.708 4.83425 209.624 4.96056C209.539 5.08687 209.43 5.19515 209.303 5.27913C209.176 5.36311 209.034 5.42113 208.885 5.44985C208.736 5.47856 208.582 5.47739 208.433 5.44641L207.282 5.25161C206.251 4.98376 205.195 4.82351 204.13 4.77344C201.74 4.52551 198.428 4.18902 194.267 3.72857L191.345 3.48063C188.815 3.15514 186.263 3.03668 183.713 3.12644H180.544H173.354C173.201 3.12891 173.049 3.10023 172.907 3.04214C172.765 2.98405 172.636 2.89775 172.529 2.78848C172.421 2.6792 172.337 2.54922 172.281 2.4064C172.225 2.26358 172.199 2.1109 172.203 1.9576C172.164 1.83147 172.158 1.69719 172.186 1.56799Z" fill="#E95B40"/>
</g>
<g style="mix-blend-mode:screen">
<path d="M229.93 9.52067C229.974 9.37266 230.048 9.23507 230.146 9.11609C230.245 8.99711 230.366 8.89918 230.504 8.82812C230.641 8.75706 230.791 8.71434 230.945 8.70249C231.099 8.69064 231.254 8.70991 231.4 8.75915L231.843 8.88312L236.234 10.2999L238.005 10.8312C239.191 11.1677 240.466 11.575 241.883 12.0886L248.824 15.0815L253.092 16.941L257.058 18.712C258.953 19.6152 260.812 20.6955 262.76 21.7935C263.769 22.3425 264.814 22.9446 265.877 23.5645L270.481 26.1324L270.675 26.2386C272.244 27.0576 273.753 27.9867 275.191 29.0191L284.169 35.2529C284.475 35.4372 284.77 35.6382 285.054 35.855C285.303 36.0365 285.473 36.3052 285.533 36.6072C285.592 36.9093 285.535 37.2225 285.373 37.4843C285.188 37.7342 284.916 37.9056 284.611 37.9646C284.306 38.0236 283.99 37.966 283.726 37.8031C283.46 37.5906 283.212 37.4312 282.911 37.2187L282.416 36.8999C279.529 34.9164 276.661 32.8975 273.792 30.914C272.401 29.9068 270.939 29.0012 269.418 28.2044H269.259L266.815 26.8231L264.69 25.6542L261.414 23.8833C259.52 22.8384 257.784 21.8289 256.102 20.9789L247.461 17.2598L240.927 14.2315C239.634 13.771 238.377 13.3637 237.261 13.0449L235.49 12.4782C232.445 11.4864 230.692 10.9729 230.674 10.9552C230.394 10.8508 230.163 10.6462 230.026 10.3812C229.888 10.1161 229.854 9.80944 229.93 9.52067ZM305.666 56.292C305.719 56.0923 305.823 55.9095 305.967 55.7608C306.075 55.6501 306.204 55.563 306.348 55.5051C306.491 55.4472 306.644 55.4197 306.799 55.4243C306.958 55.4182 307.116 55.4468 307.263 55.5079C307.41 55.5691 307.541 55.6614 307.649 55.7785C307.867 56.0004 307.99 56.2994 307.99 56.6108C307.99 56.9223 307.867 57.2212 307.649 57.4432C307.424 57.6569 307.127 57.7772 306.817 57.7797C306.665 57.7793 306.515 57.7459 306.377 57.6816C306.24 57.6174 306.118 57.5239 306.02 57.4078C305.863 57.2728 305.747 57.0971 305.685 56.9001C305.622 56.7031 305.616 56.4926 305.666 56.292ZM321.461 75.0643C321.537 74.7914 321.706 74.5534 321.939 74.3914C322.196 74.2191 322.51 74.1542 322.815 74.2104C323.119 74.2667 323.389 74.4397 323.568 74.6924C323.887 75.1175 324.135 75.5248 324.365 75.8613C324.479 76.0622 324.603 76.2573 324.737 76.4457L325.445 77.5614C325.61 77.8269 325.668 78.1456 325.605 78.452C325.542 78.7584 325.365 79.0291 325.109 79.2084C324.842 79.3693 324.523 79.4205 324.219 79.3511C323.915 79.2817 323.65 79.0973 323.48 78.8365L322.771 77.7385C322.665 77.5614 322.523 77.3489 322.382 77.1541C322.24 76.9593 321.921 76.428 321.638 76.0207C321.539 75.8844 321.472 75.7279 321.442 75.5625C321.411 75.3971 321.418 75.2269 321.461 75.0643Z" fill="url(#paint32_linear_3790:23986)"/>
</g>
<g style="mix-blend-mode:screen">
<path d="M147.926 353.266C147.99 352.968 148.169 352.707 148.425 352.541C148.681 352.375 148.992 352.317 149.29 352.38L150.494 352.628C151.522 352.884 152.571 353.044 153.628 353.106L166.342 354.417C168.821 354.719 171.318 354.85 173.815 354.807H175.249H184.333C184.485 354.801 184.636 354.828 184.777 354.886C184.918 354.944 185.044 355.032 185.148 355.143C185.32 355.305 185.439 355.516 185.489 355.748C185.538 355.979 185.517 356.22 185.427 356.439C185.336 356.658 185.182 356.844 184.983 356.973C184.785 357.102 184.552 357.168 184.316 357.162H183.643C180.668 357.162 177.852 357.162 175.232 357.162H173.691C171.136 357.238 168.578 357.12 166.041 356.808L153.416 355.479C152.224 355.399 151.04 355.228 149.874 354.966L149.361 354.86L148.776 354.736C148.625 354.704 148.482 354.643 148.355 354.555C148.227 354.467 148.119 354.355 148.037 354.224C147.954 354.093 147.899 353.948 147.874 353.795C147.849 353.643 147.854 353.487 147.891 353.337L147.926 353.266ZM188.654 355.444C188.713 355.212 188.845 355.005 189.029 354.852C189.214 354.699 189.442 354.609 189.681 354.594C189.836 354.57 189.995 354.582 190.145 354.628C190.295 354.674 190.433 354.753 190.549 354.86C190.67 354.959 190.769 355.083 190.839 355.224C190.909 355.364 190.949 355.518 190.956 355.674C190.976 355.979 190.875 356.279 190.677 356.51C190.478 356.742 190.197 356.887 189.893 356.914C189.582 356.939 189.274 356.842 189.032 356.644C188.791 356.446 188.636 356.162 188.601 355.851C188.595 355.715 188.607 355.578 188.636 355.444H188.654ZM212.949 352.15C213.003 351.976 213.096 351.816 213.221 351.683C213.346 351.551 213.5 351.448 213.67 351.383C213.841 351.318 214.024 351.293 214.206 351.309C214.388 351.326 214.563 351.383 214.719 351.477C214.846 351.561 214.954 351.671 215.037 351.799C215.119 351.927 215.174 352.071 215.198 352.221C215.236 352.444 215.209 352.673 215.121 352.881C215.033 353.089 214.888 353.268 214.702 353.397C214.516 353.525 214.297 353.598 214.071 353.606C213.845 353.614 213.622 353.557 213.427 353.443C213.3 353.359 213.192 353.249 213.11 353.121C213.027 352.993 212.973 352.849 212.949 352.699C212.908 352.519 212.902 352.333 212.931 352.15H212.949ZM241.741 343.756C241.789 343.576 241.88 343.411 242.007 343.275C242.134 343.14 242.292 343.037 242.467 342.976C252.193 339.208 261.557 334.567 270.445 329.11C278.521 324.2 286.174 318.626 293.324 312.445C293.434 312.315 293.572 312.211 293.727 312.139C293.881 312.068 294.05 312.03 294.22 312.029C294.391 312.029 294.559 312.065 294.715 312.135C294.87 312.206 295.008 312.309 295.12 312.437C295.232 312.566 295.315 312.717 295.363 312.881C295.412 313.044 295.424 313.216 295.4 313.385C295.375 313.554 295.315 313.716 295.222 313.859C295.13 314.002 295.008 314.124 294.864 314.216C279.544 327.359 262.101 337.803 243.282 345.102C243.14 345.161 242.988 345.192 242.835 345.191C242.681 345.19 242.53 345.158 242.389 345.097C242.248 345.035 242.121 344.946 242.016 344.834C241.911 344.723 241.829 344.591 241.777 344.446C241.68 344.229 241.661 343.985 241.724 343.756H241.741ZM331.005 89.816C331.043 89.655 331.115 89.5038 331.216 89.3725C331.317 89.2412 331.444 89.1328 331.59 89.0545C331.883 88.9573 332.2 88.9573 332.493 89.0545C332.785 89.1635 333.025 89.3785 333.166 89.6566C333.285 89.9354 333.295 90.2489 333.193 90.5345C333.091 90.8201 332.885 91.0568 332.617 91.1974C332.481 91.2707 332.332 91.316 332.179 91.3307C332.026 91.3454 331.871 91.3291 331.724 91.2829C331.577 91.2366 331.441 91.1613 331.323 91.0615C331.206 90.9616 331.11 90.8392 331.041 90.7015C330.92 90.4208 330.908 90.1055 331.005 89.816ZM333.52 94.6508C333.606 94.3296 333.816 94.0558 334.104 93.8893C334.384 93.7467 334.708 93.7207 335.007 93.8169C335.306 93.9132 335.554 94.1238 335.698 94.4028C336.052 95.1289 336.477 95.8727 336.92 96.7405C338.088 98.9542 339.54 101.699 341.099 104.922C341.382 105.56 341.63 106.215 341.896 106.906C347.801 120.195 352.025 134.17 354.468 148.506C354.61 149.409 354.751 150.277 354.893 151.304C354.92 151.599 354.834 151.893 354.653 152.127C354.471 152.361 354.208 152.517 353.915 152.564C353.623 152.612 353.324 152.546 353.078 152.381C352.832 152.216 352.658 151.964 352.591 151.676C352.449 150.72 352.308 149.905 352.131 148.896C349.737 134.718 345.572 120.896 339.735 107.756L338.974 105.861C337.416 102.638 335.946 99.8574 334.777 97.6437L333.626 95.5717C333.473 95.29 333.435 94.9599 333.52 94.6508ZM297.06 309.417C297.112 309.198 297.23 309.001 297.396 308.85C297.615 308.638 297.907 308.519 298.211 308.519C298.515 308.519 298.807 308.638 299.025 308.85C299.233 309.081 299.348 309.38 299.348 309.691C299.348 310.002 299.233 310.301 299.025 310.532C298.804 310.751 298.505 310.873 298.193 310.873C297.882 310.873 297.583 310.751 297.361 310.532C297.218 310.388 297.116 310.21 297.063 310.014C297.01 309.819 297.009 309.613 297.06 309.417ZM313.971 291.707C314.018 291.54 314.096 291.384 314.201 291.246C314.409 291.007 314.7 290.855 315.015 290.821C315.166 290.805 315.319 290.822 315.463 290.871C315.607 290.92 315.738 291 315.848 291.105C315.969 291.202 316.07 291.323 316.143 291.461C316.217 291.598 316.263 291.748 316.278 291.903C316.293 292.059 316.276 292.215 316.23 292.364C316.183 292.512 316.108 292.65 316.007 292.769C315.807 292.991 315.527 293.125 315.228 293.141C315.08 293.158 314.93 293.144 314.787 293.102C314.644 293.059 314.511 292.988 314.396 292.893C314.209 292.757 314.068 292.567 313.992 292.349C313.916 292.131 313.908 291.894 313.971 291.671V291.707ZM331.094 267.09C331.121 266.987 331.157 266.887 331.2 266.789C340.922 249.93 347.763 231.567 351.44 212.456C351.529 212.031 351.617 211.57 351.688 211.128C351.772 210.848 351.956 210.609 352.205 210.457C352.454 210.304 352.751 210.249 353.038 210.302C353.325 210.354 353.583 210.511 353.762 210.742C353.941 210.973 354.028 211.261 354.008 211.553C354.008 211.783 353.919 212.013 353.866 212.226C353.813 212.438 353.777 212.686 353.76 212.899C350.016 232.276 343.087 250.9 333.254 268.011C333.177 268.146 333.074 268.264 332.951 268.358C332.828 268.453 332.688 268.522 332.538 268.561C332.388 268.601 332.231 268.61 332.078 268.589C331.924 268.567 331.776 268.515 331.643 268.436C331.4 268.311 331.211 268.102 331.11 267.848C331.01 267.594 331.004 267.313 331.094 267.055V267.09ZM354.716 181.198C354.77 180.939 354.912 180.707 355.119 180.542C355.326 180.377 355.585 180.289 355.849 180.295C356.004 180.297 356.157 180.33 356.299 180.392C356.441 180.454 356.57 180.544 356.677 180.656C356.784 180.768 356.868 180.9 356.923 181.045C356.979 181.19 357.005 181.344 357 181.499C357 181.653 356.969 181.806 356.909 181.948C356.849 182.09 356.761 182.219 356.651 182.326C356.54 182.433 356.409 182.517 356.265 182.573C356.121 182.629 355.968 182.655 355.814 182.65C355.507 182.646 355.214 182.521 354.999 182.302C354.783 182.083 354.663 181.788 354.663 181.482C354.656 181.373 354.674 181.264 354.716 181.163V181.198ZM352.644 205.655C352.699 205.435 352.817 205.235 352.984 205.08C353.151 204.926 353.359 204.823 353.583 204.785C353.807 204.747 354.038 204.775 354.246 204.866C354.454 204.957 354.632 205.107 354.756 205.297C354.881 205.488 354.947 205.71 354.947 205.938C354.947 206.165 354.881 206.388 354.756 206.578C354.631 206.768 354.454 206.918 354.246 207.009C354.037 207.1 353.807 207.128 353.583 207.09C353.424 207.063 353.273 207.003 353.138 206.915C353.003 206.827 352.888 206.712 352.8 206.577C352.712 206.443 352.653 206.291 352.626 206.133C352.599 205.974 352.605 205.811 352.644 205.655Z" fill="url(#paint33_linear_3790:23986)"/>
</g>
<defs>
<filter id="filter0_di_3790:23986" x="51.75" y="36.8898" width="262.5" height="276.36" filterUnits="userSpaceOnUse" color-interpolation-filters="sRGB">
<feFlood flood-opacity="0" result="BackgroundImageFix"/>
<feColorMatrix in="SourceAlpha" type="matrix" values="0 0 0 0 0 0 0 0 0 0 0 0 0 0 0 0 0 0 127 0" result="hardAlpha"/>
<feOffset/>
<feGaussianBlur stdDeviation="30"/>
<feComposite in2="hardAlpha" operator="out"/>
<feColorMatrix type="matrix" values="0 0 0 0 0.835294 0 0 0 0 0.188235 0 0 0 0 0.219608 0 0 0 0.5 0"/>
<feBlend mode="normal" in2="BackgroundImageFix" result="effect1_dropShadow_3790:23986"/>
<feBlend mode="normal" in="SourceGraphic" in2="effect1_dropShadow_3790:23986" result="shape"/>
<feColorMatrix in="SourceAlpha" type="matrix" values="0 0 0 0 0 0 0 0 0 0 0 0 0 0 0 0 0 0 127 0" result="hardAlpha"/>
<feOffset dy="2"/>
<feGaussianBlur stdDeviation="2"/>
<feComposite in2="hardAlpha" operator="arithmetic" k2="-1" k3="1"/>
<feColorMatrix type="matrix" values="0 0 0 0 0 0 0 0 0 0 0 0 0 0 0 0 0 0 0.25 0"/>
<feBlend mode="normal" in2="shape" result="effect2_innerShadow_3790:23986"/>
</filter>
<radialGradient id="paint0_radial_3790:23986" cx="0" cy="0" r="1" gradientUnits="userSpaceOnUse" gradientTransform="translate(-181954 -108894) scale(1858 1858.2)">
<stop stop-color="#632400"/>
<stop offset="0.05" stop-color="#583500"/>
<stop offset="0.22" stop-color="#381E00"/>
<stop offset="0.39" stop-color="#1F1600"/>
<stop offset="0.58" stop-color="#0E0800"/>
<stop offset="0.77" stop-color="#030200"/>
<stop offset="1"/>
</radialGradient>
<radialGradient id="paint1_radial_3790:23986" cx="0" cy="0" r="1" gradientUnits="userSpaceOnUse" gradientTransform="translate(-147178 -91186.9) scale(1068.65 1011.15)">
<stop stop-color="#6A4600"/>
<stop offset="0.12" stop-color="#4A2C00"/>
<stop offset="0.24" stop-color="#2F1900"/>
<stop offset="0.38" stop-color="#1A0800"/>
<stop offset="0.53" stop-color="#0B0500"/>
<stop offset="0.72" stop-color="#030100"/>
<stop offset="1"/>
</radialGradient>
<linearGradient id="paint2_linear_3790:23986" x1="169.281" y1="108.463" x2="241.432" y2="206.849" gradientUnits="userSpaceOnUse">
<stop stop-color="#AF142E"/>
<stop offset="1" stop-color="#F27744"/>
</linearGradient>
<linearGradient id="paint3_linear_3790:23986" x1="36.6211" y1="196.233" x2="145.835" y2="196.233" gradientUnits="userSpaceOnUse">
<stop stop-color="#530B21"/>
<stop offset="0.1465" stop-color="#D11833"/>
<stop offset="0.3434" stop-color="#F27744"/>
<stop offset="0.3844" stop-color="#F48149"/>
<stop offset="0.4543" stop-color="#FB9C57"/>
<stop offset="0.4949" stop-color="#FFAF61"/>
<stop offset="0.5315" stop-color="#FA9B57"/>
<stop offset="0.5859" stop-color="#F27744"/>
<stop offset="0.6852" stop-color="#E7583F"/>
<stop offset="0.8659" stop-color="#D11833"/>
<stop offset="0.8868" stop-color="#C61731"/>
<stop offset="0.9233" stop-color="#A9142D"/>
<stop offset="0.9709" stop-color="#7A0F27"/>
<stop offset="1" stop-color="#5A0C22"/>
</linearGradient>
<linearGradient id="paint4_linear_3790:23986" x1="234.083" y1="144.273" x2="234.083" y2="321.848" gradientUnits="userSpaceOnUse">
<stop stop-color="#DF3F3A"/>
<stop offset="1" stop-color="#F47C45"/>
</linearGradient>
<linearGradient id="paint5_linear_3790:23986" x1="25.8626" y1="199.162" x2="140.629" y2="199.162" gradientUnits="userSpaceOnUse">
<stop stop-color="#530B21"/>
<stop offset="0.1465" stop-color="#D11833"/>
<stop offset="0.3434" stop-color="#F27744"/>
<stop offset="0.3844" stop-color="#F48149"/>
<stop offset="0.4543" stop-color="#FB9C57"/>
<stop offset="0.4949" stop-color="#FFAF61"/>
<stop offset="0.5315" stop-color="#FA9B57"/>
<stop offset="0.5859" stop-color="#F27744"/>
<stop offset="0.6852" stop-color="#E7583F"/>
<stop offset="0.8659" stop-color="#D11833"/>
<stop offset="0.8868" stop-color="#C61731"/>
<stop offset="0.9233" stop-color="#A9142D"/>
<stop offset="0.9709" stop-color="#7A0F27"/>
<stop offset="1" stop-color="#5A0C22"/>
</linearGradient>
<linearGradient id="paint6_linear_3790:23986" x1="47.0012" y1="157.219" x2="-7.7441" y2="185.317" gradientUnits="userSpaceOnUse">
<stop stop-color="#AF142E"/>
<stop offset="1" stop-color="#F27744"/>
</linearGradient>
<linearGradient id="paint7_linear_3790:23986" x1="70.0893" y1="82.5182" x2="326.362" y2="82.5182" gradientUnits="userSpaceOnUse">
<stop stop-color="#530B21"/>
<stop offset="0.1465" stop-color="#D11833"/>
<stop offset="0.3434" stop-color="#F27744"/>
<stop offset="0.3844" stop-color="#F48149"/>
<stop offset="0.4543" stop-color="#FB9C57"/>
<stop offset="0.4949" stop-color="#FFAF61"/>
<stop offset="0.5315" stop-color="#FA9B57"/>
<stop offset="0.5859" stop-color="#F27744"/>
<stop offset="0.6852" stop-color="#E7583F"/>
<stop offset="0.8659" stop-color="#D11833"/>
<stop offset="0.8868" stop-color="#C61731"/>
<stop offset="0.9233" stop-color="#A9142D"/>
<stop offset="0.9709" stop-color="#7A0F27"/>
<stop offset="1" stop-color="#5A0C22"/>
</linearGradient>
<linearGradient id="paint8_linear_3790:23986" x1="228.506" y1="21.9017" x2="218.675" y2="65.2154" gradientUnits="userSpaceOnUse">
<stop stop-color="#AF142E"/>
<stop offset="1" stop-color="#F27744"/>
</linearGradient>
<linearGradient id="paint9_linear_3790:23986" x1="235.883" y1="138.607" x2="235.883" y2="331.995" gradientUnits="userSpaceOnUse">
<stop stop-color="#DF3F3A"/>
<stop offset="1" stop-color="#F47C45"/>
</linearGradient>
<linearGradient id="paint10_linear_3790:23986" x1="288.136" y1="233.325" x2="241.233" y2="304.402" gradientUnits="userSpaceOnUse">
<stop stop-color="#AF142E"/>
<stop offset="1" stop-color="#F27744"/>
</linearGradient>
<linearGradient id="paint11_linear_3790:23986" x1="140.909" y1="312.336" x2="141.338" y2="310.986" gradientUnits="userSpaceOnUse">
<stop stop-color="#530B21"/>
<stop offset="0.1465" stop-color="#D11833"/>
<stop offset="0.3434" stop-color="#F27744"/>
<stop offset="0.3844" stop-color="#F48149"/>
<stop offset="0.4543" stop-color="#FB9C57"/>
<stop offset="0.4949" stop-color="#FFAF61"/>
<stop offset="0.5315" stop-color="#FA9B57"/>
<stop offset="0.5859" stop-color="#F27744"/>
<stop offset="0.6852" stop-color="#E7583F"/>
<stop offset="0.8659" stop-color="#D11833"/>
<stop offset="0.8868" stop-color="#C61731"/>
<stop offset="0.9233" stop-color="#A9142D"/>
<stop offset="0.9709" stop-color="#7A0F27"/>
<stop offset="1" stop-color="#5A0C22"/>
</linearGradient>
<linearGradient id="paint12_linear_3790:23986" x1="125.8" y1="302.421" x2="125.8" y2="309.824" gradientUnits="userSpaceOnUse">
<stop stop-color="#DF3F3A"/>
<stop offset="1" stop-color="#F47C45"/>
</linearGradient>
<linearGradient id="paint13_linear_3790:23986" x1="40.1475" y1="226.839" x2="115.219" y2="226.839" gradientUnits="userSpaceOnUse">
<stop stop-color="#530B21"/>
<stop offset="0.1465" stop-color="#D11833"/>
<stop offset="0.3434" stop-color="#F27744"/>
<stop offset="0.3844" stop-color="#F48149"/>
<stop offset="0.4543" stop-color="#FB9C57"/>
<stop offset="0.4949" stop-color="#FFAF61"/>
<stop offset="0.5315" stop-color="#FA9B57"/>
<stop offset="0.5859" stop-color="#F27744"/>
<stop offset="0.6852" stop-color="#E7583F"/>
<stop offset="0.8659" stop-color="#D11833"/>
<stop offset="0.8868" stop-color="#C61731"/>
<stop offset="0.9233" stop-color="#A9142D"/>
<stop offset="0.9709" stop-color="#7A0F27"/>
<stop offset="1" stop-color="#5A0C22"/>
</linearGradient>
<linearGradient id="paint14_linear_3790:23986" x1="44.9584" y1="144.121" x2="42.3221" y2="145.84" gradientUnits="userSpaceOnUse">
<stop stop-color="#AF142E"/>
<stop offset="1" stop-color="#F27744"/>
</linearGradient>
<linearGradient id="paint15_linear_3790:23986" x1="44.6022" y1="141.219" x2="47.6836" y2="141.219" gradientUnits="userSpaceOnUse">
<stop stop-color="#530B21"/>
<stop offset="0.1465" stop-color="#D11833"/>
<stop offset="0.3434" stop-color="#F27744"/>
<stop offset="0.3844" stop-color="#F48149"/>
<stop offset="0.4543" stop-color="#FB9C57"/>
<stop offset="0.4949" stop-color="#FFAF61"/>
<stop offset="0.5315" stop-color="#FA9B57"/>
<stop offset="0.5859" stop-color="#F27744"/>
<stop offset="0.6852" stop-color="#E7583F"/>
<stop offset="0.8659" stop-color="#D11833"/>
<stop offset="0.8868" stop-color="#C61731"/>
<stop offset="0.9233" stop-color="#A9142D"/>
<stop offset="0.9709" stop-color="#7A0F27"/>
<stop offset="1" stop-color="#5A0C22"/>
</linearGradient>
<linearGradient id="paint16_linear_3790:23986" x1="47.9132" y1="125.952" x2="55.3511" y2="125.952" gradientUnits="userSpaceOnUse">
<stop stop-color="#530B21"/>
<stop offset="0.1465" stop-color="#D11833"/>
<stop offset="0.3434" stop-color="#F27744"/>
<stop offset="0.3844" stop-color="#F48149"/>
<stop offset="0.4543" stop-color="#FB9C57"/>
<stop offset="0.4949" stop-color="#FFAF61"/>
<stop offset="0.5315" stop-color="#FA9B57"/>
<stop offset="0.5859" stop-color="#F27744"/>
<stop offset="0.6852" stop-color="#E7583F"/>
<stop offset="0.8659" stop-color="#D11833"/>
<stop offset="0.8868" stop-color="#C61731"/>
<stop offset="0.9233" stop-color="#A9142D"/>
<stop offset="0.9709" stop-color="#7A0F27"/>
<stop offset="1" stop-color="#5A0C22"/>
</linearGradient>
<linearGradient id="paint17_linear_3790:23986" x1="130.935" y1="40.3527" x2="130.935" y2="115.353" gradientUnits="userSpaceOnUse">
<stop stop-color="#DF3F3A"/>
<stop offset="1" stop-color="#F47C45"/>
</linearGradient>
<linearGradient id="paint18_linear_3790:23986" x1="208.282" y1="44.9456" x2="210.3" y2="42.0347" gradientUnits="userSpaceOnUse">
<stop offset="0.515625" stop-color="#B12E2A"/>
<stop offset="1" stop-color="#F47C45"/>
</linearGradient>
<linearGradient id="paint19_linear_3790:23986" x1="213.832" y1="45.3806" x2="219.217" y2="47.0884" gradientUnits="userSpaceOnUse">
<stop stop-color="#DF3F3A"/>
<stop offset="1" stop-color="#F47C45"/>
</linearGradient>
<linearGradient id="paint20_linear_3790:23986" x1="231.834" y1="48.021" x2="231.834" y2="55.4414" gradientUnits="userSpaceOnUse">
<stop stop-color="#DF3F3A"/>
<stop offset="1" stop-color="#F47C45"/>
</linearGradient>
<linearGradient id="paint21_linear_3790:23986" x1="242.335" y1="130.966" x2="317.423" y2="130.966" gradientUnits="userSpaceOnUse">
<stop stop-color="#530B21"/>
<stop offset="0.1465" stop-color="#D11833"/>
<stop offset="0.3434" stop-color="#F27744"/>
<stop offset="0.3844" stop-color="#F48149"/>
<stop offset="0.4543" stop-color="#FB9C57"/>
<stop offset="0.4949" stop-color="#FFAF61"/>
<stop offset="0.5315" stop-color="#FA9B57"/>
<stop offset="0.5859" stop-color="#F27744"/>
<stop offset="0.6852" stop-color="#E7583F"/>
<stop offset="0.8659" stop-color="#D11833"/>
<stop offset="0.8868" stop-color="#C61731"/>
<stop offset="0.9233" stop-color="#A9142D"/>
<stop offset="0.9709" stop-color="#7A0F27"/>
<stop offset="1" stop-color="#5A0C22"/>
</linearGradient>
<linearGradient id="paint22_linear_3790:23986" x1="311.669" y1="211.189" x2="314.219" y2="211.189" gradientUnits="userSpaceOnUse">
<stop stop-color="#530B21"/>
<stop offset="0.1465" stop-color="#D11833"/>
<stop offset="0.3434" stop-color="#F27744"/>
<stop offset="0.3844" stop-color="#F48149"/>
<stop offset="0.4543" stop-color="#FB9C57"/>
<stop offset="0.4949" stop-color="#FFAF61"/>
<stop offset="0.5315" stop-color="#FA9B57"/>
<stop offset="0.5859" stop-color="#F27744"/>
<stop offset="0.6852" stop-color="#E7583F"/>
<stop offset="0.8659" stop-color="#D11833"/>
<stop offset="0.8868" stop-color="#C61731"/>
<stop offset="0.9233" stop-color="#A9142D"/>
<stop offset="0.9709" stop-color="#7A0F27"/>
<stop offset="1" stop-color="#5A0C22"/>
</linearGradient>
<linearGradient id="paint23_linear_3790:23986" x1="311.518" y1="213.749" x2="311.518" y2="219.575" gradientUnits="userSpaceOnUse">
<stop stop-color="#DF3F3A"/>
<stop offset="1" stop-color="#F47C45"/>
</linearGradient>
<linearGradient id="paint24_linear_3790:23986" x1="306.038" y1="224.163" x2="306.038" y2="239.588" gradientUnits="userSpaceOnUse">
<stop stop-color="#DF3F3A"/>
<stop offset="1" stop-color="#F47C45"/>
</linearGradient>
<linearGradient id="paint25_linear_3790:23986" x1="151.698" y1="280.061" x2="301.75" y2="280.061" gradientUnits="userSpaceOnUse">
<stop stop-color="#530B21"/>
<stop offset="0.1465" stop-color="#D11833"/>
<stop offset="0.3434" stop-color="#F27744"/>
<stop offset="0.3844" stop-color="#F48149"/>
<stop offset="0.4543" stop-color="#FB9C57"/>
<stop offset="0.4949" stop-color="#FFAF61"/>
<stop offset="0.5315" stop-color="#FA9B57"/>
<stop offset="0.5859" stop-color="#F27744"/>
<stop offset="0.6852" stop-color="#E7583F"/>
<stop offset="0.8659" stop-color="#D11833"/>
<stop offset="0.8868" stop-color="#C61731"/>
<stop offset="0.9233" stop-color="#A9142D"/>
<stop offset="0.9709" stop-color="#7A0F27"/>
<stop offset="1" stop-color="#5A0C22"/>
</linearGradient>
<linearGradient id="paint26_linear_3790:23986" x1="143.819" y1="312.516" x2="149.348" y2="313.673" gradientUnits="userSpaceOnUse">
<stop stop-color="#DF3F3A"/>
<stop offset="1" stop-color="#F47C45"/>
</linearGradient>
<linearGradient id="paint27_linear_3790:23986" x1="11.9708" y1="240.614" x2="136.893" y2="240.614" gradientUnits="userSpaceOnUse">
<stop stop-color="#530B21"/>
<stop offset="0.1465" stop-color="#D11833"/>
<stop offset="0.3434" stop-color="#F27744"/>
<stop offset="0.3844" stop-color="#F48149"/>
<stop offset="0.4543" stop-color="#FB9C57"/>
<stop offset="0.4949" stop-color="#FFAF61"/>
<stop offset="0.5315" stop-color="#FA9B57"/>
<stop offset="0.5859" stop-color="#F27744"/>
<stop offset="0.6852" stop-color="#E7583F"/>
<stop offset="0.8659" stop-color="#D11833"/>
<stop offset="0.8868" stop-color="#C61731"/>
<stop offset="0.9233" stop-color="#A9142D"/>
<stop offset="0.9709" stop-color="#7A0F27"/>
<stop offset="1" stop-color="#5A0C22"/>
</linearGradient>
<linearGradient id="paint28_linear_3790:23986" x1="117.08" y1="12.1063" x2="117.08" y2="136.995" gradientUnits="userSpaceOnUse">
<stop stop-color="#DF3F3A"/>
<stop offset="1" stop-color="#F47C45"/>
</linearGradient>
<linearGradient id="paint29_linear_3790:23986" x1="220.743" y1="117.248" x2="345.648" y2="117.248" gradientUnits="userSpaceOnUse">
<stop stop-color="#530B21"/>
<stop offset="0.1465" stop-color="#D11833"/>
<stop offset="0.3434" stop-color="#F27744"/>
<stop offset="0.3844" stop-color="#F48149"/>
<stop offset="0.4543" stop-color="#FB9C57"/>
<stop offset="0.4949" stop-color="#FFAF61"/>
<stop offset="0.5315" stop-color="#FA9B57"/>
<stop offset="0.5859" stop-color="#F27744"/>
<stop offset="0.6852" stop-color="#E7583F"/>
<stop offset="0.8659" stop-color="#D11833"/>
<stop offset="0.8868" stop-color="#C61731"/>
<stop offset="0.9233" stop-color="#A9142D"/>
<stop offset="0.9709" stop-color="#7A0F27"/>
<stop offset="1" stop-color="#5A0C22"/>
</linearGradient>
<linearGradient id="paint30_linear_3790:23986" x1="140.608" y1="283.333" x2="340.299" y2="283.333" gradientUnits="userSpaceOnUse">
<stop stop-color="#530B21"/>
<stop offset="0.1465" stop-color="#D11833"/>
<stop offset="0.3434" stop-color="#F27744"/>
<stop offset="0.3844" stop-color="#F48149"/>
<stop offset="0.4543" stop-color="#FB9C57"/>
<stop offset="0.4949" stop-color="#FFAF61"/>
<stop offset="0.5315" stop-color="#FA9B57"/>
<stop offset="0.5859" stop-color="#F27744"/>
<stop offset="0.6852" stop-color="#E7583F"/>
<stop offset="0.8659" stop-color="#D11833"/>
<stop offset="0.8868" stop-color="#C61731"/>
<stop offset="0.9233" stop-color="#A9142D"/>
<stop offset="0.9709" stop-color="#7A0F27"/>
<stop offset="1" stop-color="#5A0C22"/>
</linearGradient>
<linearGradient id="paint31_linear_3790:23986" x1="79.8309" y1="278.492" x2="79.8309" y2="349.024" gradientUnits="userSpaceOnUse">
<stop stop-color="#DF3F3A"/>
<stop offset="1" stop-color="#F47C45"/>
</linearGradient>
<linearGradient id="paint32_linear_3790:23986" x1="277.76" y1="8.6991" x2="277.76" y2="79.3813" gradientUnits="userSpaceOnUse">
<stop stop-color="#DF3F3A"/>
<stop offset="1" stop-color="#F47C45"/>
</linearGradient>
<linearGradient id="paint33_linear_3790:23986" x1="252.43" y1="88.9816" x2="252.43" y2="357.184" gradientUnits="userSpaceOnUse">
<stop stop-color="#DF3F3A"/>
<stop offset="1" stop-color="#F47C45"/>
</linearGradient>
</defs>
</svg>
