<svg width="403" height="50" viewBox="0 0 403 50" fill="none" xmlns="http://www.w3.org/2000/svg">
<path d="M118.712 20.1273H89.2627V10.3273H126.337V0.527344H89.1948C86.6153 0.527344 84.1413 1.55267 82.3172 3.37777C80.4935 5.20286 79.4688 7.67823 79.4688 10.2593V20.1954C79.4688 22.7765 80.4935 25.2518 82.3172 27.0769C84.1413 28.902 86.6153 29.9273 89.1948 29.9273H118.645V39.7273H80.1691V49.5273H118.712C121.292 49.5273 123.766 48.502 125.59 46.6769C127.414 44.8518 128.438 42.3765 128.438 39.7954V29.8593C128.438 27.2782 127.414 24.8029 125.59 22.9778C123.766 21.1527 121.292 20.1273 118.712 20.1273Z" fill="white"/>
<path d="M175.742 0.527344H146.183C144.906 0.527343 143.642 0.779117 142.462 1.26827C141.283 1.75744 140.211 2.47439 139.308 3.37818C138.406 4.28196 137.69 5.35485 137.202 6.53556C136.714 7.71626 136.463 8.98158 136.464 10.2593V39.7954C136.463 41.0731 136.714 42.3384 137.202 43.5191C137.69 44.6998 138.406 45.7727 139.308 46.6765C140.211 47.5803 141.283 48.2972 142.462 48.7864C143.642 49.2756 144.906 49.5273 146.183 49.5273H175.742C178.321 49.5273 180.795 48.502 182.619 46.6769C184.443 44.8518 185.468 42.3765 185.468 39.7954V10.2593C185.468 7.67823 184.443 5.20286 182.619 3.37777C180.795 1.55267 178.321 0.527344 175.742 0.527344ZM175.674 39.7273H146.292V10.3273H175.674V39.7273Z" fill="white"/>
<path d="M279.19 0.527346H250.366C247.786 0.527346 245.312 1.55267 243.489 3.37777C241.664 5.20286 240.64 7.67823 240.64 10.2593V49.5273H250.434V33.4254H279.122V49.5273H288.916V10.2593C288.917 8.98102 288.666 7.71513 288.177 6.53398C287.689 5.35284 286.972 4.27964 286.069 3.37577C285.166 2.4719 284.093 1.75508 282.913 1.26633C281.732 0.777565 280.467 0.526451 279.19 0.527346ZM279.122 23.6254H250.434V10.3273H279.122V23.6254Z" fill="white"/>
<path d="M393.86 0.527365H365.043C363.765 0.52468 362.497 0.774423 361.315 1.2623C360.133 1.75017 359.058 2.4666 358.153 3.37056C357.247 4.27452 356.529 5.34827 356.04 6.53035C355.549 7.71238 355.297 8.97959 355.297 10.2593V49.5273H365.091V33.4254H393.793V49.5273H403.587V10.2593C403.587 7.67823 402.562 5.20288 400.738 3.37779C398.914 1.55269 396.44 0.527365 393.86 0.527365ZM393.793 23.6254H365.111V10.3273H393.793V23.6254Z" fill="white"/>
<path d="M336.805 39.7273H332.887L318.849 4.61068C318.369 3.4058 317.539 2.37268 316.466 1.64477C315.393 0.91687 314.126 0.527632 312.83 0.527344H304.111C302.392 0.527344 300.743 1.21065 299.527 2.42696C298.312 3.64326 297.629 5.29293 297.629 7.01306V49.5273H307.423V10.3273H311.34L325.372 45.444C325.85 46.6489 326.679 47.6823 327.75 48.4104C328.823 49.1384 330.088 49.5275 331.384 49.5273H340.103C341.823 49.5273 343.471 48.8441 344.687 47.6277C345.902 46.4114 346.585 44.7618 346.585 43.0416V0.527344H336.791L336.805 39.7273Z" fill="white"/>
<path d="M203.939 0.527344H194.146V39.7954C194.146 42.3765 195.17 44.8518 196.994 46.6769C198.819 48.502 201.292 49.5273 203.872 49.5273H233.321V39.7273H203.939V0.527344Z" fill="white"/>
<path fill-rule="evenodd" clip-rule="evenodd" d="M9.95187 37.8898C10.1258 37.7014 10.3359 37.55 10.5696 37.4448C10.8033 37.3396 11.0559 37.2826 11.3122 37.2773H54.0516C54.2327 37.2799 54.4087 37.3347 54.5592 37.4351C54.7097 37.5355 54.828 37.6773 54.8999 37.8433C54.9719 38.0094 54.9943 38.1927 54.9642 38.3712C54.9346 38.5497 54.854 38.7158 54.7321 38.8494L45.6726 48.9148C45.4987 49.1033 45.2886 49.2547 45.0548 49.3599C44.8211 49.4652 44.5686 49.5221 44.3123 49.5273H1.54542C1.36458 49.5248 1.18833 49.47 1.03787 49.3696C0.88741 49.2692 0.769143 49.1274 0.697296 48.9614C0.625448 48.7953 0.60308 48.612 0.63288 48.4335C0.66268 48.255 0.743383 48.0889 0.865282 47.9553L9.95187 37.8898ZM54.7729 29.5462C54.8948 29.6799 54.9754 29.846 55.005 30.0245C55.0351 30.203 55.0127 30.3863 54.9407 30.5524C54.8688 30.7184 54.7505 30.8602 54.6 30.9606C54.4495 31.061 54.2735 31.1157 54.0924 31.1183L11.3393 31.1523C11.0831 31.1471 10.8305 31.0902 10.5968 30.9849C10.3631 30.8797 10.153 30.7283 9.97911 30.5398L0.851678 20.5085C0.729784 20.3748 0.649081 20.2087 0.619276 20.0302C0.589476 19.8517 0.611844 19.6684 0.683691 19.5023C0.755539 19.3362 0.873806 19.1945 1.02427 19.0941C1.17473 18.9937 1.35098 18.9389 1.53182 18.9364L44.2851 18.9023C44.5414 18.9076 44.7939 18.9645 45.0276 19.0698C45.2614 19.175 45.4715 19.3264 45.6454 19.5148L54.7729 29.5462ZM9.95187 1.13984C10.1258 0.951407 10.3359 0.800031 10.5696 0.694784C10.8033 0.589538 11.0559 0.532586 11.3122 0.527344L54.0792 0.561372C54.2598 0.56392 54.4362 0.618691 54.5867 0.719098C54.7372 0.819503 54.8556 0.961268 54.927 1.12734C54.9989 1.29341 55.0213 1.47672 54.9917 1.65521C54.9617 1.8337 54.8811 1.99977 54.7591 2.13346L45.6726 12.1648C45.4987 12.3533 45.2886 12.5047 45.0548 12.6099C44.8211 12.7152 44.5686 12.7721 44.3123 12.7773H1.54542C1.36458 12.7748 1.18833 12.72 1.03787 12.6196C0.88741 12.5192 0.769143 12.3774 0.697296 12.2114C0.625448 12.0453 0.60308 11.862 0.63288 11.6835C0.66268 11.505 0.743383 11.3389 0.865282 11.2053L9.95187 1.13984Z" fill="url(#paint0_linear_3923:18152)"/>
<defs>
<linearGradient id="paint0_linear_3923:18152" x1="2.25956" y1="50.5958" x2="53.3967" y2="-0.509488" gradientUnits="userSpaceOnUse">
<stop stop-color="#9945FF"/>
<stop offset="0.14" stop-color="#8A53F4"/>
<stop offset="0.42" stop-color="#6377D6"/>
<stop offset="0.79" stop-color="#24B0A7"/>
<stop offset="0.99" stop-color="#00D18C"/>
<stop offset="1" stop-color="#00D18C"/>
</linearGradient>
</defs>
</svg>
