<svg width="315" height="85" viewBox="0 0 315 85" fill="none" xmlns="http://www.w3.org/2000/svg">
<path d="M31.6736 32.8098C31.1876 34.5826 30.9378 36.4119 30.9308 38.2501C30.9308 38.3793 30.9308 38.5055 30.9308 38.6317C30.9462 40.8534 30.6968 43.069 30.1879 45.2317C29.1628 44.8679 28.108 44.1315 27.1007 42.856C24.4517 39.5018 25.3342 34.1179 28.6027 32.8513C29.8388 32.3732 30.8728 32.4742 31.6811 32.7875C31.6778 32.7946 31.6753 32.8021 31.6736 32.8098Z" fill="#A16552"/>
<path d="M31.6736 32.8098C31.1876 34.5826 30.9378 36.4119 30.9308 38.2501C30.9308 38.3793 30.9308 38.5055 30.9308 38.6317C30.9462 40.8534 30.6968 43.069 30.1879 45.2317C29.1628 44.8679 28.108 44.1315 27.1007 42.856C24.4517 39.5018 25.3342 34.1179 28.6027 32.8513C29.8388 32.3732 30.8728 32.4742 31.6811 32.7875C31.6778 32.7946 31.6753 32.8021 31.6736 32.8098Z" fill="#F5DCB4"/>
<path d="M80.5095 42.857C79.5036 44.1294 78.4473 44.8659 77.4222 45.2327C76.914 43.0703 76.6646 40.8553 76.6793 38.6341C76.6793 38.5079 76.6793 38.3817 76.6793 38.2525C76.6726 36.407 76.4203 34.5705 75.9291 32.7914C76.7373 32.4781 77.7713 32.3771 79.0074 32.8552C82.2759 34.1188 83.1584 39.4998 80.5095 42.857Z" fill="#A16552"/>
<path d="M80.5095 42.857C79.5036 44.1294 78.4473 44.8659 77.4222 45.2327C76.914 43.0703 76.6646 40.8553 76.6793 38.6341C76.6793 38.5079 76.6793 38.3817 76.6793 38.2525C76.6726 36.407 76.4203 34.5705 75.9291 32.7914C76.7373 32.4781 77.7713 32.3771 79.0074 32.8552C82.2759 34.1188 83.1584 39.4998 80.5095 42.857Z" fill="#F5DCB4"/>
<path d="M70.3252 45.2997C69.8442 46.0433 69.5365 46.8854 69.4247 47.7638C69.3128 48.6422 69.3997 49.5344 69.6789 50.3748C70.1142 51.6547 70.5034 53.1039 70.5034 54.1818C70.499 62.0692 63.0245 68.4539 53.8043 68.4539C44.5841 68.4539 37.1082 62.0692 37.1082 54.1789C37.1082 53.1009 37.4974 51.6547 37.9327 50.3718C38.2122 49.5325 38.2996 48.6412 38.1885 47.7636C38.0774 46.886 37.7707 46.0445 37.2909 45.3012C36.3514 43.8314 35.8505 42.1245 35.8468 40.3805C35.8468 35.1465 40.3039 30.9014 45.8009 30.9014C47.5779 30.897 49.3257 31.3523 50.8745 32.2229C51.7674 32.7306 52.777 32.9975 53.8043 32.9975C54.8316 32.9975 55.8412 32.7306 56.7341 32.2229C58.2818 31.3522 60.0287 30.897 61.8047 30.9014C67.3018 30.9014 71.7678 35.1465 71.7678 40.3805C71.7694 41.6885 71.4871 42.9813 70.9402 44.1697C70.762 44.5603 70.5565 44.9379 70.3252 45.2997Z" fill="#A16552"/>
<path d="M70.3252 45.2997C69.8442 46.0433 69.5365 46.8854 69.4247 47.7638C69.3128 48.6422 69.3997 49.5344 69.6789 50.3748C70.1142 51.6547 70.5034 53.1039 70.5034 54.1818C70.499 62.0692 63.0245 68.4539 53.8043 68.4539C44.5841 68.4539 37.1082 62.0692 37.1082 54.1789C37.1082 53.1009 37.4974 51.6547 37.9327 50.3718C38.2122 49.5325 38.2996 48.6412 38.1885 47.7636C38.0774 46.886 37.7707 46.0445 37.2909 45.3012C36.3514 43.8314 35.8505 42.1245 35.8468 40.3805C35.8468 35.1465 40.3039 30.9014 45.8009 30.9014C47.5779 30.897 49.3257 31.3523 50.8745 32.2229C51.7674 32.7306 52.777 32.9975 53.8043 32.9975C54.8316 32.9975 55.8412 32.7306 56.7341 32.2229C58.2818 31.3522 60.0287 30.897 61.8047 30.9014C67.3018 30.9014 71.7678 35.1465 71.7678 40.3805C71.7694 41.6885 71.4871 42.9813 70.9402 44.1697C70.762 44.5603 70.5565 44.9379 70.3252 45.2997Z" fill="#F5DCB4"/>
<path d="M45.2998 55.9453C45.1633 55.945 45.0282 55.9739 44.9037 56.03C44.7792 56.0861 44.6682 56.1681 44.578 56.2706C44.4878 56.3731 44.4206 56.4937 44.3808 56.6243C44.3411 56.7549 44.3297 56.8924 44.3475 57.0277C44.9418 61.252 48.9531 64.5186 53.8039 64.5186C58.6547 64.5186 62.669 61.252 63.2603 57.0277C63.2781 56.8925 63.2668 56.7551 63.2271 56.6246C63.1874 56.4942 63.1204 56.3737 63.0303 56.2712C62.9403 56.1687 62.8294 56.0866 62.7051 56.0304C62.5808 55.9742 62.4459 55.9452 62.3095 55.9453H45.2998Z" fill="#4E3F3F"/>
<path d="M48.3115 62.9465C49.9591 63.9741 51.8621 64.5189 53.8041 64.5189C55.7461 64.5189 57.6492 63.9741 59.2967 62.9465C58.6073 60.5619 56.4041 61.1113 53.7997 61.1113C51.1952 61.1113 49.0009 60.5619 48.3115 62.9465Z" fill="#E6646E"/>
<path d="M80.1384 31.0896C78.1624 30.3234 76.595 30.7273 75.4926 31.3613C75.2235 30.5693 74.9136 29.7917 74.5641 29.0316C74.3085 28.4753 74.0327 27.9264 73.7365 27.385C70.7132 21.857 65.6291 17.2689 59.7948 15.3298L59.6804 12.1909L55.9038 14.4567L55.4492 14.4062C55.1699 14.381 54.8935 14.3617 54.6113 14.3498L54.0601 11.9741L53.8981 11.2881C53.7094 11.2881 53.5252 11.2881 53.3455 11.3089C49.8318 11.594 48.0831 14.7848 47.8098 15.3312C41.977 17.2704 36.8959 21.8644 33.8725 27.385C33.5754 27.9255 33.2996 28.4743 33.045 29.0316C32.6959 29.792 32.3855 30.5696 32.115 31.3613L31.9738 31.2826C30.8804 30.6961 29.362 30.3576 27.4707 31.0896C23.3108 32.6991 22.198 39.5382 25.5631 43.7996C26.9359 45.5339 28.3859 46.4842 29.7706 46.9074C29.7527 46.9846 29.7349 47.0633 29.7186 47.142C29.4673 48.2896 29.3408 49.461 29.3412 50.6357C29.3412 58.777 35.3493 65.7809 43.9574 68.8589C45.9784 69.5812 48.0747 70.0728 50.2062 70.3244C51.3133 70.4556 52.4268 70.525 53.5416 70.5323H53.806C67.3154 70.5323 78.2664 61.6234 78.2664 50.6357C78.2671 49.462 78.1411 48.2916 77.8905 47.1449C77.8727 47.0662 77.8563 46.9875 77.837 46.9103C79.2291 46.4782 80.6732 45.5339 82.0445 43.8056C85.4111 39.5382 84.2894 32.6977 80.1384 31.0896ZM31.6737 32.809C31.1877 34.5819 30.9379 36.4112 30.9309 38.2494C30.9309 38.3786 30.9309 38.5048 30.9309 38.631C30.9463 40.8527 30.6969 43.0683 30.188 45.231C29.1629 44.8672 28.1081 44.1307 27.1008 42.8553C24.4518 39.5011 25.3343 34.1171 28.6028 32.8506C29.8389 32.3725 30.8729 32.4734 31.6811 32.7867C31.6779 32.7939 31.6754 32.8014 31.6737 32.809ZM70.9419 44.1694C70.7632 44.56 70.5572 44.9376 70.3254 45.2993C69.8445 46.043 69.5367 46.885 69.4249 47.7634C69.313 48.6418 69.3999 49.5341 69.6791 50.3744C70.1144 51.6543 70.5037 53.1035 70.5037 54.1815C70.4992 62.0688 63.0247 68.4535 53.8045 68.4535C44.5844 68.4535 37.1084 62.0688 37.1084 54.1785C37.1084 53.1005 37.4976 51.6543 37.9329 50.3714C38.2124 49.5321 38.2998 48.6408 38.1887 47.7632C38.0776 46.8856 37.7709 46.0441 37.2911 45.3008C36.3516 43.831 35.8507 42.1241 35.847 40.3801C35.847 35.1461 40.3041 30.901 45.8011 30.901C47.5781 30.8966 49.326 31.3519 50.8748 32.2225C51.7676 32.7302 52.7773 32.9971 53.8045 32.9971C54.8318 32.9971 55.8414 32.7302 56.7343 32.2225C58.282 31.3519 60.0289 30.8966 61.805 30.901C67.302 30.901 71.768 35.1461 71.768 40.3801C71.7701 41.688 71.4883 42.9809 70.9419 44.1694ZM80.5098 42.8568C79.504 44.1293 78.4476 44.8657 77.4225 45.2325C76.9143 43.0701 76.6649 40.8551 76.6797 38.634C76.6797 38.5077 76.6797 38.3815 76.6797 38.2524C76.6729 36.4068 76.4206 34.5703 75.9294 32.7912C76.7376 32.4779 77.7717 32.3769 79.0077 32.855C82.2763 34.1186 83.1588 39.4996 80.5098 42.8568Z" fill="#A16552"/>
<path d="M49.6564 48.8126L49.6367 48.8558C49.4581 49.2466 49.6303 49.7082 50.0214 49.8867L51.9187 50.7529C52.3098 50.9314 52.7716 50.7593 52.9503 50.3685L52.97 50.3252C53.1487 49.9344 52.9764 49.4728 52.5854 49.2943L50.688 48.4281C50.2969 48.2496 49.8351 48.4217 49.6564 48.8126Z" fill="#4E3F3F"/>
<path d="M54.6376 50.3272L54.6574 50.3704C54.836 50.7613 55.2979 50.9334 55.689 50.7549L57.5863 49.8887C57.9774 49.7102 58.1496 49.2486 57.971 48.8577L57.9512 48.8145C57.7726 48.4236 57.3107 48.2515 56.9196 48.4301L55.0223 49.2962C54.6312 49.4748 54.459 49.9363 54.6376 50.3272Z" fill="#4E3F3F"/>
<path d="M45.2257 44.167C43.6464 44.167 42.3657 42.9554 42.3657 41.4587V40.556C42.3657 39.0608 43.6464 37.8477 45.2257 37.8477C46.805 37.8477 48.0841 39.0608 48.0841 40.556V41.4587C48.0841 42.9554 46.799 44.167 45.2257 44.167Z" fill="#4E3F3F"/>
<path d="M45.2258 37.8477V41.0073C45.2426 41.3749 45.4005 41.7219 45.6667 41.9761C45.9329 42.2302 46.2869 42.3721 46.6551 42.3721C47.0232 42.3721 47.3772 42.2302 47.6434 41.9761C47.9096 41.7219 48.0675 41.3749 48.0843 41.0073V40.5619C48.0843 39.0548 46.7992 37.8477 45.2258 37.8477Z" fill="#5D5360"/>
<path d="M45.2262 40.5555C45.7529 40.5555 46.18 40.1514 46.18 39.6528C46.18 39.1542 45.7529 38.75 45.2262 38.75C44.6994 38.75 44.2723 39.1542 44.2723 39.6528C44.2723 40.1514 44.6994 40.5555 45.2262 40.5555Z" fill="white"/>
<path d="M62.3826 44.167C60.8034 44.167 59.5242 42.9554 59.5242 41.4587V40.556C59.5242 39.0608 60.8034 37.8477 62.3826 37.8477C63.9619 37.8477 65.2426 39.0608 65.2426 40.556V41.4587C65.2426 42.9554 63.9619 44.167 62.3826 44.167Z" fill="#4E3F3F"/>
<path d="M62.3826 37.8477V41.0073C62.403 41.3726 62.5625 41.7162 62.8285 41.9675C63.0944 42.2188 63.4465 42.3589 63.8125 42.3589C64.1786 42.3589 64.5307 42.2188 64.7966 41.9675C65.0626 41.7162 65.2221 41.3726 65.2425 41.0073V40.5619C65.2425 39.0548 63.9619 37.8477 62.3826 37.8477Z" fill="#5D5360"/>
<path d="M62.3825 40.5555C62.9093 40.5555 63.3363 40.1514 63.3363 39.6528C63.3363 39.1542 62.9093 38.75 62.3825 38.75C61.8557 38.75 61.4287 39.1542 61.4287 39.6528C61.4287 40.1514 61.8557 40.5555 62.3825 40.5555Z" fill="white"/>
<path opacity="0.35" d="M54.0596 11.9801C53.4193 11.9178 52.0183 12.923 50.3454 14.6676C49.9279 15.1027 49.4911 15.5853 49.0454 16.1079C45.7591 19.9684 41.9483 26.0369 40.6424 32.2716C38.4525 42.7396 37.5625 54.8854 41.4283 61.622C44.7042 67.3296 50.2102 70.3215 50.2102 70.3215C48.0787 70.0699 45.9824 69.5783 43.9614 68.856C35.3489 65.781 29.3407 58.7741 29.3407 50.6358C29.3388 49.4612 29.4639 48.2898 29.7137 47.1421C29.73 47.0634 29.7478 46.9847 29.7657 46.9075C28.3765 46.4784 26.9354 45.534 25.5626 43.8057C22.1976 39.5443 23.3178 32.7052 27.4703 31.0956C29.3615 30.3636 30.8799 30.7022 31.9734 31.2887L32.1145 31.3674C32.385 30.5756 32.6954 29.7981 33.0446 29.0377C33.3001 28.4814 33.5759 27.9325 33.8721 27.391C36.8955 21.866 41.9765 17.2765 47.8093 15.3373C48.0827 14.7909 49.8314 11.6 53.345 11.3149C53.5248 11.3001 53.709 11.2926 53.8977 11.2941L54.0596 11.9801Z" fill="#4E3F3F"/>
<path d="M106.008 56.1653C105.269 56.4504 103.943 56.5924 102.03 56.5914C100.116 56.5904 98.518 56.4157 97.2353 56.0673C95.9547 55.7189 95.3143 55.2734 95.3143 54.731C95.3143 54.1103 96.4657 50.1473 98.7686 42.842C101.071 35.5367 102.391 31.3297 102.728 30.2211C102.858 29.8855 103.898 29.6074 105.848 29.3866C107.936 29.1597 110.035 29.0497 112.135 29.057C114.375 29.057 115.613 29.445 115.85 30.2211C120.74 46.462 123.186 54.7117 123.186 54.97C123.186 55.2284 123.03 55.4843 122.718 55.7377C121.993 56.3078 120.557 56.5924 118.409 56.5914C113.828 56.5914 111.487 56.047 111.384 54.9581L111.112 52.4339H107.386L107.191 54.6062C107.142 55.3605 106.748 55.8802 106.008 56.1653ZM110.296 45.0707L109.715 38.0921H108.861L108.201 45.0707H110.296Z" fill="#A16552"/>
<path d="M125.705 61.2855V36.6138C125.705 36.0713 126.43 35.5155 127.879 34.9463C129.377 34.3684 130.97 34.0787 132.575 34.0926C133.352 34.0926 133.96 34.1846 134.4 34.3643C134.839 34.5439 135.111 34.7266 135.215 34.9077C135.319 35.0889 135.512 35.8639 135.798 37.2344H136.108C136.159 37.0028 136.391 36.641 136.806 36.149C137.177 35.6987 137.6 35.2949 138.068 34.9463C138.494 34.6355 139.108 34.3574 139.912 34.1119C140.826 33.8513 141.774 33.7272 142.725 33.7436C143.747 33.7307 144.756 33.978 145.655 34.4623C146.535 34.9404 147.188 35.4962 147.616 36.1297C148.087 36.8683 148.428 37.6818 148.625 38.5351C148.834 39.2971 148.976 40.0755 149.052 40.8618C149.091 41.4439 149.111 42.2853 149.111 43.386C149.111 44.4868 149.072 45.5756 148.994 46.6526C148.913 47.7525 148.77 48.8471 148.567 49.9311C148.398 50.9228 148.098 51.8879 147.676 52.8012C147.294 53.5942 146.797 54.3263 146.2 54.9735C145.012 56.2673 143.265 56.9137 140.96 56.9127C140.211 56.9235 139.466 56.7951 138.763 56.5341C138.129 56.2886 137.657 55.9976 137.347 55.661C136.7 54.9631 136.324 54.3425 136.221 53.799L136.183 53.4115H135.872L136.416 56.9023V61.2855C136.416 61.5706 135.673 61.7968 134.187 61.964C132.667 62.1346 131.138 62.2189 129.608 62.2165C128.042 62.2165 127.002 62.1457 126.488 62.0041C125.964 61.8616 125.705 61.624 125.705 61.2855ZM138.243 40.6094C138.009 39.7304 137.66 39.2909 137.194 39.2909C136.729 39.2909 136.392 39.5498 136.185 40.0675V50.2295C136.185 50.9036 136.535 51.2402 137.233 51.2392C138.139 51.2392 138.592 49.2347 138.592 45.2257C138.592 43.0282 138.476 41.4894 138.243 40.6094Z" fill="#A16552"/>
<path d="M162.423 47.8257C162.423 49.5085 163.225 50.3499 164.83 50.3499C165.761 50.3499 166.977 50.0331 168.479 49.3996C169.98 48.7661 170.77 48.4493 170.847 48.4493C171.342 48.4493 171.989 49.1863 172.787 50.6602C173.585 52.1341 173.987 53.22 173.991 53.9179C173.991 54.9276 172.955 55.6907 170.885 56.2075C168.9 56.7135 166.86 56.9738 164.81 56.9825C162.83 56.9825 161.173 56.8276 159.842 56.5178C158.511 56.208 157.425 55.812 156.583 55.3299C155.042 54.4426 153.784 53.1383 152.953 51.5674C152.627 50.8928 152.377 50.1835 152.21 49.453C151.95 48.2947 151.819 47.1109 151.823 45.9236C151.823 41.2168 153.052 37.9709 155.51 36.1862C156.725 35.2824 158.112 34.6358 159.585 34.2856C161.086 33.9233 162.859 33.7422 164.904 33.7422C171.45 33.7422 174.723 36.0189 174.723 40.5723C174.723 45.4079 171.049 47.8262 163.701 47.8272L162.423 47.8257ZM162.346 42.1611V44.7224C162.701 44.7295 163.054 44.6525 163.374 44.4977C163.695 44.3429 163.974 44.1146 164.189 43.8315C164.676 43.2139 164.931 42.4451 164.908 41.6592C164.908 40.1081 164.507 39.332 163.705 39.331C162.799 39.33 162.346 40.2734 162.346 42.1611Z" fill="#A16552"/>
<path d="M197.784 54.9627C197.006 55.5318 195.925 56.0035 194.542 56.3777C193.158 56.7519 191.375 56.9394 189.193 56.9404C187.105 56.9491 185.019 56.7672 182.964 56.397C180.997 56.0357 179.586 55.6353 178.733 55.1958C177.879 54.7563 177.452 54.3291 177.452 53.9144C177.462 52.3878 177.671 50.869 178.073 49.3961C178.486 47.8311 178.978 47.0486 179.548 47.0486C179.647 47.0486 180.721 47.398 182.769 48.0969C184.817 48.7957 186.357 49.1446 187.388 49.1437C188.424 49.1437 189.097 49.0338 189.407 48.814C189.559 48.708 189.681 48.5652 189.763 48.399C189.844 48.2327 189.882 48.0485 189.872 47.8637C189.872 47.45 189.587 47.0812 189.018 46.7576C188.342 46.3915 187.625 46.1055 186.883 45.9053C185.932 45.6219 185.005 45.265 184.109 44.8377C183.146 44.3915 182.218 43.8728 181.334 43.2861C180.434 42.6658 179.7 41.8329 179.199 40.8614C178.615 39.7571 178.321 38.5228 178.345 37.274C178.345 31.5328 181.773 28.6621 188.63 28.6621C191.192 28.6621 193.404 28.8235 195.268 29.1462C197.132 29.4689 198.445 29.8312 199.207 30.233C199.97 30.629 200.352 31.0249 200.352 31.4209C200.352 32.7652 200.035 34.2133 199.401 35.7655C198.768 37.3176 198.153 38.0932 197.558 38.0922C197.454 38.0922 197.117 37.9759 196.549 37.7432C194.84 36.9939 193.424 36.6187 192.298 36.6178C191.173 36.6168 190.41 36.7202 190.009 36.9281C189.825 37.0089 189.67 37.1427 189.563 37.3122C189.456 37.4817 189.401 37.6794 189.407 37.8798C189.407 38.3065 189.691 38.6554 190.26 38.9266C190.94 39.2401 191.649 39.4887 192.376 39.6691C193.321 39.9272 194.243 40.2649 195.132 40.6787C196.1 41.1165 197.025 41.6455 197.893 42.2586C198.748 42.8663 199.46 43.7261 200.028 44.8377C200.597 45.9493 200.882 47.2426 200.883 48.7175C200.899 50.2132 200.481 51.6815 199.679 52.9448C199.18 53.7305 198.537 54.4151 197.784 54.9627Z" fill="#A16552"/>
<path d="M233.454 55.6603C233.117 56.281 231.364 56.5913 228.194 56.5913C225.025 56.5913 223.375 56.281 223.246 55.6603L221.926 48.6H221.383L220.141 55.6603C220.062 56.281 217.798 56.5913 213.348 56.5913C212.106 56.5913 211.284 56.52 210.883 56.3775C210.702 56.3224 210.534 56.2302 210.39 56.1068C210.246 55.9833 210.13 55.8312 210.048 55.6603C205.237 43.8432 202.83 37.6238 202.829 37.0021C202.828 36.3805 203.766 35.7405 205.643 35.0823C207.378 34.4471 209.209 34.1122 211.057 34.0919C213.283 34.0919 214.435 34.6858 214.513 35.8737L215.832 46.502H216.297L216.764 37.9301C216.789 37.2847 217.449 36.7155 218.743 36.2226C219.993 35.7382 221.322 35.4866 222.663 35.4802C223.983 35.4802 224.973 35.6415 225.635 35.9642C226.296 36.2869 226.639 36.6829 226.663 37.1521L227.089 46.5064H227.517L228.796 36.5299C228.873 35.9093 229.747 35.347 231.415 34.8432C233.084 34.3393 234.553 34.0869 235.821 34.0859C237.089 34.0859 238.086 34.2671 238.81 34.6294C239.998 35.1976 240.593 35.8702 240.593 36.6472C240.593 36.7245 239.422 39.8792 237.08 46.1115C234.739 52.3437 233.53 55.5267 233.454 55.6603Z" fill="#A16552"/>
<path d="M248.746 56.9405C246.391 56.9405 244.541 56.3847 243.195 55.273C242.651 54.8068 242.179 54.1213 241.778 53.2166C241.377 52.3118 241.176 51.2536 241.176 50.042C241.15 48.9193 241.454 47.8136 242.05 46.8616C242.58 46.0067 243.305 45.2889 244.165 44.7665C245.078 44.2394 246.057 43.835 247.076 43.5638C248.89 43.1082 250.756 42.8867 252.626 42.9045H253.904C253.904 41.8444 253.542 41.0945 252.816 40.655C252.505 40.4739 252.033 40.3833 251.399 40.3833C250.765 40.3833 250.002 40.5511 249.11 40.8867C248.339 41.1665 247.594 41.5107 246.881 41.9156C246.287 42.2641 245.886 42.4383 245.678 42.4383C245.211 42.4383 244.577 41.8241 243.776 40.5956C242.975 39.3672 242.574 38.2486 242.573 37.2399C242.573 36.9044 243.052 36.4649 244.009 35.9214C244.967 35.378 246.319 34.8801 248.065 34.4277C249.731 33.9864 251.446 33.7584 253.169 33.7491C254.609 33.7283 256.047 33.8647 257.458 34.156C258.478 34.3648 259.469 34.6974 260.408 35.1464C261.156 35.5226 261.817 36.0512 262.349 36.698C262.807 37.2382 263.21 37.8227 263.552 38.4427C263.857 39.0792 264.057 39.7605 264.146 40.4605C264.344 41.6263 264.435 42.8076 264.418 43.9899V55.6665C264.418 55.9516 263.725 56.1778 262.338 56.3451C260.973 56.5127 259.6 56.5969 258.224 56.5975C256.864 56.5975 255.984 56.5589 255.584 56.4817C255.183 56.403 254.944 56.3139 254.867 56.21C254.765 56.0442 254.699 55.8592 254.672 55.6665L254.373 53.4571H254.063C253.415 55.7794 251.643 56.9405 248.746 56.9405ZM253.946 50.5008V45.9632C253.624 45.9579 253.306 46.0331 253.02 46.182C252.735 46.3308 252.491 46.5486 252.311 46.8155C251.9 47.3784 251.682 48.0592 251.69 48.7562C251.69 50.4627 252.079 51.316 252.855 51.316C253.143 51.3325 253.426 51.2426 253.651 51.0636C253.739 50.9975 253.811 50.9128 253.863 50.8154C253.914 50.7181 253.943 50.6107 253.947 50.5008H253.946Z" fill="#A16552"/>
<path d="M267.919 61.2855V36.6138C267.919 36.0713 268.643 35.5155 270.093 34.9463C271.591 34.3684 273.184 34.0787 274.79 34.0925C275.566 34.0925 276.173 34.1846 276.615 34.3643C277.056 34.5439 277.325 34.7266 277.429 34.9077C277.533 35.0889 277.726 35.8639 278.011 37.2344H278.322C278.374 37.0028 278.607 36.641 279.02 36.149C279.391 35.6991 279.814 35.2953 280.281 34.9463C280.709 34.6355 281.324 34.3573 282.125 34.1118C283.04 33.8514 283.988 33.7273 284.939 33.7436C285.961 33.7305 286.97 33.9778 287.87 34.4623C288.75 34.9404 289.403 35.4962 289.83 36.1297C290.302 36.8677 290.643 37.6814 290.839 38.5351C291.048 39.2969 291.191 40.0753 291.267 40.8618C291.305 41.4439 291.324 42.2853 291.324 43.386C291.324 44.4868 291.286 45.5756 291.209 46.6526C291.127 47.7525 290.984 48.8471 290.781 49.9311C290.613 50.9232 290.313 51.8884 289.889 52.8012C289.508 53.5939 289.011 54.3259 288.415 54.9735C287.227 56.2673 285.48 56.9137 283.175 56.9127C282.428 56.9265 281.684 56.8017 280.983 56.5445C280.349 56.299 279.876 56.008 279.565 55.6714C278.918 54.9735 278.543 54.3529 278.439 53.8094L278.4 53.4219H278.09L278.634 56.9127V61.2959C278.634 61.581 277.891 61.8072 276.405 61.9744C274.884 62.145 273.355 62.2293 271.825 62.2269C270.259 62.2269 269.219 62.1561 268.705 62.0145C268.177 61.8616 267.919 61.624 267.919 61.2855ZM280.457 40.6094C280.224 39.7304 279.877 39.2909 279.417 39.2909C278.956 39.2909 278.619 39.5497 278.406 40.0674V50.2295C278.406 50.9036 278.756 51.2402 279.455 51.2392C280.36 51.2392 280.812 49.2347 280.813 45.2257C280.808 43.0282 280.689 41.4894 280.457 40.6094Z" fill="#A16552"/>
</svg>
