<svg width="52" height="78" viewBox="0 0 52 78" fill="none" xmlns="http://www.w3.org/2000/svg">
<path d="M51.6403 42.8594C51.6403 46.7972 51.6403 50.5442 51.6403 54.2776C51.6403 57.0845 51.6267 59.8913 51.6403 62.7118C51.6403 63.4748 51.6131 64.1016 50.7682 64.5785C42.9185 69.0204 35.1096 73.5169 27.26 77.9997C26.6331 77.2366 26.9329 76.4736 26.9193 75.7651C26.892 70.0151 26.9193 64.2515 26.892 58.5015C26.892 57.4932 26.9738 56.7302 28.0231 56.1443C35.5866 51.8795 43.1229 47.5466 50.6591 43.2545C50.8908 43.1319 51.1497 43.0501 51.6403 42.8594Z" fill="#FEFEFE"/>
<path d="M4.37805 10.7848C10.4834 7.20124 16.2752 3.82211 22.0399 0.402094C22.8167 -0.0611747 23.389 -0.170179 24.2476 0.320341C30.1485 3.78123 36.0766 7.17399 41.9912 10.5804C41.9912 11.2617 41.4052 11.3434 41.0372 11.5614C35.5315 14.7634 30.0258 17.9382 24.5065 21.0993C23.8796 21.4672 23.2936 21.9577 22.4487 21.4536C16.5205 17.9382 10.5788 14.4364 4.37805 10.7848Z" fill="#FEFEFE"/>
<path d="M0.862688 46.1294C6.968 49.6448 12.7599 53.0103 18.579 56.3213C19.3285 56.7437 19.4103 57.2751 19.4103 57.9972C19.3967 64.2378 19.3831 70.4782 19.4239 76.7188C19.4376 77.9451 19.1923 78.1222 18.1157 77.4954C12.7462 74.3479 7.34959 71.2413 1.93929 68.1483C1.21701 67.7395 0.84906 67.3307 0.84906 66.4178C0.876316 59.7549 0.862688 53.1057 0.862688 46.1294Z" fill="#FEFEFE"/>
<path d="M0.862705 17.2026C2.70248 18.2382 4.29695 19.1238 5.86416 20.0368C9.95254 22.394 14.0273 24.7784 18.1293 27.0948C18.9742 27.5717 19.424 28.0486 19.4103 29.125C19.3558 35.7061 19.3831 42.2873 19.3831 49.209C18.1157 48.4869 17.0254 47.8601 15.9352 47.2333C11.329 44.5627 6.69546 41.9057 2.07559 39.2351C1.51685 38.9081 0.835449 38.7174 0.835449 37.8045C0.876333 31.0462 0.862705 24.2879 0.862705 17.2026Z" fill="#FEFEFE"/>
<path d="M26.9193 48.9092C26.9193 42.2736 26.9193 35.7469 26.9193 29.2339C26.9193 28.5663 26.8103 27.8986 27.5871 27.4626C33.4471 24.1107 39.2935 20.7316 45.4533 17.1753C45.4533 20.9904 45.4533 24.465 45.4533 27.9259C45.4533 31.0052 45.4533 34.0982 45.4533 37.1776C45.4533 37.9406 45.426 38.581 44.5947 39.0443C38.871 42.2736 33.1882 45.5709 27.4917 48.8411C27.3963 48.9228 27.2464 48.8819 26.9193 48.9092Z" fill="#FEFEFE"/>
</svg>
