<svg width="71" height="78" viewBox="0 0 71 78" fill="none" xmlns="http://www.w3.org/2000/svg">
<path d="M45.4257 36.3641C45.158 35.9052 44.9208 35.4922 44.6455 35.0257C33.5994 41.4044 22.5763 47.7677 11.5073 54.1617C11.2396 53.7181 10.9872 53.2821 10.7118 52.8232C7.39948 54.7353 4.12545 56.6244 0.774915 58.5594C0.774915 58.3223 0.797864 58.1464 0.767266 57.9858C0.729018 57.7258 0.851412 57.6034 1.0656 57.481C3.55173 56.0584 6.0302 54.6206 8.50868 53.1903C19.2258 47.0029 29.9429 40.8154 40.66 34.628C49.6866 29.4119 58.7207 24.2034 67.7473 18.9796C68.0074 18.8267 68.191 18.8343 68.4281 18.9873C68.8794 19.2779 69.3537 19.515 69.805 19.8056C69.9045 19.8668 70.0039 20.0351 70.0039 20.1575C70.0269 20.7005 69.9963 21.2512 70.0192 21.8018C70.0345 22.0848 69.9351 22.2301 69.6979 22.3678C67.732 23.4921 65.7737 24.6317 63.8077 25.7636C57.7875 29.2436 51.7672 32.7159 45.747 36.1959C45.6629 36.2341 45.5558 36.2877 45.4257 36.3641Z" fill="#5A00EC"/>
<path d="M70.0186 23.9585C70.0186 25.4499 70.0263 26.8648 70.0033 28.2721C70.0033 28.3945 69.8503 28.5475 69.7279 28.6163C67.5937 29.8553 65.4518 31.0943 63.3176 32.3257C57.3891 35.7521 51.453 39.1786 45.5246 42.605C45.4557 42.6432 45.3945 42.6815 45.2874 42.7427C45.0273 42.3067 44.7749 41.8708 44.4919 41.4042C33.4688 47.7676 22.461 54.1309 11.4073 60.5096C11.1472 60.066 10.9024 59.6377 10.6347 59.1865C10.5199 59.24 10.4128 59.2782 10.321 59.3318C8.77581 60.219 7.21528 61.0832 5.70066 62.024C5.16519 62.3528 4.75976 62.3758 4.32373 61.8939C26.194 49.2666 48.0719 36.6317 70.0186 23.9585Z" fill="#5A00EC"/>
<path d="M70.0192 30.2451C70.0192 30.9411 70.0192 31.5606 70.0192 32.1801C70.0192 32.922 70.0039 33.6562 70.0269 34.3981C70.0345 34.6582 69.9504 34.8035 69.7209 34.9335C65.3071 37.4727 60.8932 40.0196 56.4871 42.5665C52.8688 44.6545 49.2505 46.7424 45.6399 48.8304C45.5328 48.8916 45.4257 48.9528 45.288 49.0216C45.028 48.578 44.7755 48.1497 44.5001 47.6908C35.3206 52.9911 26.164 58.2837 16.9615 63.5916C16.7014 63.148 16.4413 62.7197 16.166 62.2608C15.4086 62.6967 14.659 63.125 13.9093 63.561C12.9531 64.1117 11.9893 64.67 11.0331 65.2283C10.4364 65.5725 10.3599 65.5648 9.77087 65.0524C29.8282 53.45 49.8855 41.8705 70.0192 30.2451Z" fill="#5A00EC"/>
<path d="M11.5074 47.867C11.2396 47.4158 10.9872 46.9875 10.7118 46.5286C7.41481 48.433 4.12547 50.3298 0.82849 52.2342C0.690797 51.4082 0.690797 51.4005 1.34866 51.0258C14.6207 43.3622 27.8928 35.6986 41.1726 28.0351C48.2255 23.9585 55.2861 19.8897 62.339 15.8055C62.5532 15.6831 62.6986 15.6602 62.9204 15.7902C64.0143 16.4403 65.1235 17.0674 66.225 17.7099C66.3092 17.7558 66.3933 17.817 66.5157 17.9011C59.4628 21.97 52.4634 26.0159 45.4257 30.0772C45.158 29.6183 44.9132 29.1976 44.6455 28.7311C33.5918 35.1174 22.561 41.4807 11.5074 47.867Z" fill="#5A00EC"/>
<path d="M44.4925 53.9859C37.1106 58.246 29.7823 62.4755 22.4004 66.7432C22.1403 66.2996 21.8879 65.8713 21.6125 65.4048C21.1382 65.6801 20.6793 65.9402 20.2203 66.2079C18.9734 66.9268 17.7265 67.6457 16.4796 68.3647C15.8676 68.7165 15.8217 68.7088 15.2098 68.1888C33.4694 57.6418 51.7137 47.1101 70.004 36.5479C70.0116 36.7085 70.0193 36.8155 70.0193 36.9226C70.0193 38.1693 70.0116 39.416 70.0269 40.6703C70.0269 40.9533 69.9428 41.0986 69.698 41.2362C64.9935 43.9437 60.2966 46.6512 55.5998 49.3664C52.2569 51.2937 48.9216 53.2287 45.5788 55.1561C45.4946 55.2096 45.4028 55.2555 45.2804 55.3167C45.028 54.8808 44.7679 54.4448 44.4925 53.9859Z" fill="#5A00EC"/>
<path d="M11.4997 41.5803C11.2243 41.1061 10.9872 40.6931 10.7194 40.2342C7.41479 42.1386 4.12545 44.0431 0.836121 45.9398C0.797873 45.8863 0.782573 45.8633 0.774924 45.848C0.660179 45.2897 0.889668 44.9838 1.39454 44.6932C13.894 37.4961 26.3858 30.2838 38.8776 23.0638C44.8443 19.6221 50.811 16.1804 56.7701 12.7234C57.0761 12.5475 57.2903 12.5551 57.5886 12.731C58.7131 13.4041 59.8529 14.0465 61.0692 14.7502C54.0315 18.8191 47.0321 22.865 39.9868 26.9339C39.7268 26.4903 39.4743 26.062 39.1989 25.5878C29.9658 30.9186 20.7557 36.2418 11.4997 41.5803Z" fill="#5A00EC"/>
<path d="M45.2804 61.6108C45.0127 61.1443 44.7602 60.7236 44.5002 60.2647C38.9389 63.477 33.4082 66.6663 27.8469 69.8786C27.5869 69.4274 27.3344 69.0067 27.0667 68.5478C26.9137 68.6319 26.7684 68.7084 26.6307 68.7849C25.0778 69.6798 23.5173 70.5746 21.9644 71.4771C21.3065 71.8595 21.3065 71.8519 20.6563 71.3318C37.103 61.8326 53.5344 52.3488 70.0193 42.8267C70.0193 43.0179 70.0193 43.1326 70.0193 43.255C70.0193 44.4787 70.004 45.7024 70.0269 46.9261C70.0346 47.2397 69.9198 47.4003 69.6597 47.5456C65.0394 50.2072 60.419 52.8765 55.7986 55.5457C52.5017 57.4502 49.2047 59.3546 45.9077 61.259C45.7164 61.3661 45.5176 61.4808 45.2804 61.6108Z" fill="#5A00EC"/>
<path d="M55.6227 11.6142C48.5315 15.7061 41.4862 19.7826 34.395 23.8744C34.1273 23.4232 33.8748 22.9872 33.6071 22.536C26.2252 26.7884 18.8816 31.0332 11.4997 35.2933C11.2319 34.8344 10.9872 34.4137 10.7194 33.9472C7.41479 35.8516 4.1331 37.7484 0.851415 39.6451C0.660175 38.9721 0.729021 38.8115 1.29509 38.4826C15.6764 30.1842 30.05 21.8859 44.4313 13.5798C46.7568 12.2338 49.0823 10.8953 51.4077 9.54156C51.6602 9.3886 51.8514 9.39624 52.0962 9.54156C53.1519 10.1687 54.2228 10.7806 55.2937 11.4001C55.3855 11.4536 55.4773 11.5225 55.6227 11.6142Z" fill="#5A00EC"/>
<path d="M45.2804 67.89C45.0203 67.4464 44.7678 67.0257 44.5001 66.5668C40.7594 68.7236 37.0417 70.8728 33.2934 73.0373C33.0257 72.5784 32.7809 72.1501 32.5132 71.6988C31.8017 72.1042 31.1209 72.4942 30.4401 72.8919C29.438 73.4732 28.4053 74.0086 27.4415 74.6434C26.9213 74.9876 26.5465 74.9111 26.1028 74.4828C40.7212 66.0391 55.332 57.603 69.9886 49.144C70.0039 49.2741 70.0192 49.3658 70.0192 49.4576C70.0192 50.6966 70.0039 51.928 70.0269 53.167C70.0345 53.5265 69.9121 53.7024 69.6138 53.8707C63.0734 57.6336 56.5329 61.4119 49.9925 65.1901C48.5238 66.0391 47.0627 66.8804 45.594 67.7293C45.5022 67.7752 45.4028 67.8211 45.2804 67.89Z" fill="#5A00EC"/>
<path d="M50.1915 8.45529C43.0773 12.5624 36.0244 16.6313 28.9408 20.7231C28.6731 20.2719 28.4207 19.8359 28.1529 19.377C22.5917 22.5893 17.0686 25.7786 11.5074 28.9909C11.2396 28.5397 10.9795 28.1037 10.7118 27.6525C7.39951 29.5645 4.12548 31.4536 0.774945 33.3887C0.774945 33.0904 0.744346 32.8456 0.790244 32.6162C0.805543 32.5091 0.935587 32.3944 1.04268 32.3332C3.94954 30.6429 6.85639 28.968 9.7709 27.2853C21.8267 20.3254 33.8901 13.3578 45.9459 6.39026C46.1984 6.24494 46.3743 6.22965 46.6344 6.38261C47.7895 7.0786 48.9599 7.744 50.1915 8.45529Z" fill="#5A00EC"/>
<path d="M70.0193 55.4082C70.0193 56.8996 70.0269 58.2992 70.004 59.6989C70.004 59.8289 69.851 60.0048 69.7209 60.0813C67.5408 61.3509 65.3607 62.6052 63.1729 63.8672C57.298 67.263 51.4231 70.6512 45.5482 74.047C45.4717 74.0929 45.3952 74.1312 45.2804 74.1923C45.0203 73.7564 44.7679 73.3204 44.4925 72.8616C42.5572 73.9782 40.66 75.0719 38.74 76.1809C38.4723 75.722 38.2198 75.3013 37.9597 74.8501C37.6002 75.0566 37.256 75.2478 36.9194 75.439C35.5731 76.2115 34.2114 76.961 32.8957 77.787C32.3679 78.1159 32.0007 78.0624 31.557 77.6341C44.3548 70.2229 57.1526 62.8347 70.0193 55.4082Z" fill="#5A00EC"/>
<path d="M44.7296 5.31986C37.6231 9.42698 30.5778 13.4882 23.4943 17.58C23.2342 17.1288 22.9741 16.7005 22.7064 16.2416C18.9657 18.3984 15.2556 20.5399 11.5073 22.7044C11.2396 22.2608 10.9871 21.8325 10.7118 21.3659C7.40712 23.278 4.13308 25.1671 0.843749 27.0639C0.675457 26.322 0.706056 26.2302 1.31038 25.8861C14.353 18.3525 27.3956 10.819 40.4382 3.28542C40.7365 3.11716 40.9507 3.09421 41.2567 3.27777C42.2817 3.89728 43.3221 4.4862 44.3624 5.08276C44.4619 5.1516 44.569 5.22043 44.7296 5.31986Z" fill="#5A00EC"/>
<path d="M39.2902 2.176C32.1913 6.27548 25.146 10.3444 18.0548 14.4438C17.7948 14.0002 17.5423 13.5643 17.2746 13.0977C15.3469 14.2067 13.4421 15.3081 11.5144 16.4247C11.2543 15.9735 11.0019 15.5528 10.7342 15.0786C7.42187 16.9907 4.14019 18.8875 0.789654 20.8148C0.789654 20.5166 0.759056 20.2871 0.804954 20.073C0.827903 19.9506 0.957946 19.8282 1.07269 19.7594C3.35993 18.4286 5.65481 17.1054 7.9497 15.7823C16.9686 10.5585 26.0104 5.33474 35.0446 0.110972C35.3124 -0.0419938 35.5036 -0.0343455 35.7637 0.11862C36.804 0.73813 37.852 1.33469 38.9 1.93891C39.0148 2.00009 39.1142 2.06893 39.2902 2.176Z" fill="#5A00EC"/>
</svg>
