<svg width="284" height="78" viewBox="0 0 284 78" fill="none" xmlns="http://www.w3.org/2000/svg">
<path d="M127.124 52.4118H116.916C115.036 52.4118 113.498 51.8298 112.305 50.6657C111.14 49.4718 110.558 47.9347 110.558 46.0543V26.1759C110.558 24.2955 111.14 22.7733 112.305 21.6092C113.498 20.4153 115.036 19.8184 116.916 19.8184H127.124C129.004 19.8184 130.526 20.4153 131.691 21.6092C132.884 22.7733 133.481 24.2955 133.481 26.1759V31.3693H127.034V27.4295C127.034 26.4147 126.527 25.9073 125.512 25.9073H118.528C117.513 25.9073 117.006 26.4147 117.006 27.4295V44.8007C117.006 45.8155 117.513 46.3229 118.528 46.3229H125.512C126.527 46.3229 127.034 45.8155 127.034 44.8007V40.8608H133.481V46.0543C133.481 47.9347 132.884 49.4718 131.691 50.6657C130.526 51.8298 129.004 52.4118 127.124 52.4118Z" fill="white"/>
<path d="M152.332 52.2327H145.885V41.0847L135.946 19.9974H143.02L149.109 33.787L155.197 19.9974H162.271L152.332 41.0847V52.2327Z" fill="white"/>
<path d="M166.059 19.9974H182.356C184.237 19.9974 185.759 20.5944 186.923 21.7883C188.117 22.9523 188.714 24.4746 188.714 26.355V30.9216C188.714 33.011 187.773 34.6227 185.893 35.7569C188.012 36.8016 189.072 38.4134 189.072 40.5922V45.8752C189.072 47.7556 188.475 49.2928 187.281 50.4867C186.117 51.6507 184.595 52.2327 182.714 52.2327H166.059V19.9974ZM172.506 32.8916H180.744C181.341 32.8916 181.744 32.802 181.953 32.6229C182.162 32.414 182.267 31.9961 182.267 31.3693V27.519C182.267 26.5042 181.759 25.9968 180.744 25.9968H172.506V32.8916ZM172.506 46.2334H181.103C182.117 46.2334 182.625 45.726 182.625 44.7112V40.055C182.625 39.458 182.476 39.07 182.177 38.8909C181.879 38.7118 181.341 38.6223 180.565 38.6223H172.506V46.2334Z" fill="white"/>
<path d="M195.134 19.9974H216.222V26.0863H201.582V32.7125H213.446V38.8014H201.582V46.1439H216.222V52.2327H195.134V19.9974Z" fill="white"/>
<path d="M245.666 52.2327H238.726L233.533 40.2788H228.339V52.2327H221.892V19.9974H238.323C240.204 19.9974 241.726 20.5944 242.89 21.7883C244.084 22.9523 244.681 24.4746 244.681 26.355V33.9213C244.681 35.4435 244.278 36.7419 243.472 37.8164C242.696 38.8909 241.636 39.6222 240.293 40.0102L245.666 52.2327ZM238.234 32.7572V27.6086C238.234 26.5937 237.726 26.0863 236.712 26.0863H228.339V34.2795H236.712C237.726 34.2795 238.234 33.7721 238.234 32.7572Z" fill="white"/>
<path d="M251.011 52.2327V19.9974H272.098V26.0863H257.458V32.9811H269.323V39.07H257.458V52.2327H251.011Z" fill="white"/>
<path d="M276.982 52.2327V19.9974H283.429V52.2327H276.982Z" fill="white"/>
<path d="M94.5365 77.9354H23.4503L0 53.6405L21.9387 32.2881H40.8541L19.6508 52.9248L31.7437 65.4102H82.4028L94.5365 77.9354Z" fill="#FF284C"/>
<path d="M30.8855 50.7767L55.8065 26.4818H27.8214L37.6672 16.9388H64.8761L70.9225 11.054H29.2513L21.0396 0H98.6625L38.7703 59.087L30.8855 50.7767Z" fill="white"/>
<path d="M46.1245 60.36L79.87 26.4824H94.4549L61.4856 60.36H46.1245Z" fill="white"/>
</svg>
