<svg width="291" height="64" viewBox="0 0 291 64" fill="none" xmlns="http://www.w3.org/2000/svg">
<g clip-path="url(#clip0)">
<path d="M5.35095 8.09473H0.776855V27.3479H5.35095V8.09473Z" fill="black"/>
<path d="M22.1826 7.58668H29.2679V3.04248H22.1826C15.456 3.04248 10.0149 8.48356 10.0149 15.2102C10.0149 21.9368 15.456 27.3778 22.1826 27.3778H29.2679V22.8038H22.1826C17.9972 22.8038 14.589 19.3957 14.589 15.2102C14.589 10.9948 17.9672 7.58668 22.1826 7.58668Z" fill="black"/>
<path d="M73.8428 3.04248C67.8337 3.04248 62.9607 7.91554 62.9607 13.9246V27.3479H67.5347V13.9246C67.5347 10.4268 70.3748 7.58668 73.8727 7.58668C77.3705 7.58668 80.2107 10.4268 80.2107 13.9246V27.3479H84.7849V13.9246C84.755 7.91554 79.8818 3.04248 73.8428 3.04248Z" fill="black"/>
<path d="M6.03868 2.44424C6.45722 4.59676 4.60367 6.42043 2.45115 6.03177C1.25531 5.79261 0.298636 4.83594 0.0594678 3.64009C-0.359078 1.48757 1.49448 -0.336088 3.647 0.0525612C4.84283 0.29173 5.79952 1.2484 6.03868 2.44424Z" fill="black"/>
<path d="M56.5629 7.94482L53.3041 11.2334C54.0216 12.3993 54.4103 13.7447 54.4103 15.1797C54.4103 19.3651 51.032 22.7433 46.8465 22.7433C45.3817 22.7433 44.0364 22.3249 42.9004 21.6373L39.6416 24.8959C41.6446 26.3907 44.1559 27.2875 46.8766 27.2875C53.5733 27.2875 58.9844 21.8764 58.9844 15.1797C58.9545 12.489 58.0875 9.97776 56.5629 7.94482Z" fill="black"/>
<path d="M39.2829 15.1802C39.2829 10.9947 42.6611 7.61646 46.8466 7.61646C48.3115 7.61646 49.6568 8.03501 50.7929 8.72263L54.0515 5.46395C52.0485 3.96915 49.5372 3.07227 46.8167 3.07227C40.12 3.07227 34.7087 8.48345 34.7087 15.1802C34.7087 17.9008 35.6057 20.382 37.1005 22.4151L40.3591 19.1563C39.6715 17.9904 39.2829 16.6451 39.2829 15.1802Z" fill="black"/>
<path d="M61.9439 2.47412C62.3624 4.59676 60.5088 6.45031 58.3862 6.03177C57.1903 5.79259 56.2336 4.83592 55.9945 3.64007C55.5761 1.51745 57.4296 -0.336101 59.5521 0.0824433C60.7481 0.321612 61.7046 1.27829 61.9439 2.47412Z" fill="black"/>
<path d="M37.6386 26.7202C38.0572 28.8429 36.2037 30.6964 34.081 30.2778C32.8852 30.0387 31.9285 29.082 31.6894 27.8861C31.2708 25.7635 33.1243 23.9099 35.247 24.3286C36.4428 24.5378 37.4294 25.5244 37.6386 26.7202Z" fill="black"/>
<path fill-rule="evenodd" clip-rule="evenodd" d="M282.626 55.941C286.953 55.941 290.461 52.4328 290.461 48.1051C290.461 43.7772 286.953 40.269 282.626 40.269C278.298 40.269 274.79 43.7772 274.79 48.1051C274.79 48.1476 274.79 48.1899 274.79 48.2324V62.9016H279.475V55.2821C280.44 55.7058 281.505 55.941 282.626 55.941ZM282.626 51.2395C280.894 51.2395 279.491 49.8361 279.491 48.1051C279.491 46.374 280.894 44.9706 282.626 44.9706C284.357 44.9706 285.76 46.374 285.76 48.1051C285.76 49.8361 284.357 51.2395 282.626 51.2395ZM250.629 45.3982C249.843 45.3982 249.204 46.0361 249.204 46.823V55.7761H244.076V46.823C244.076 43.2034 247.01 40.2692 250.629 40.2692H254.343V45.3982H250.629ZM228.529 48.1053C228.529 52.433 225.021 55.9413 220.693 55.9413C219.572 55.9413 218.507 55.7062 217.543 55.2826V62.9016H212.859V48.2543C212.857 48.2047 212.857 48.155 212.857 48.1053C212.857 43.7776 216.366 40.2692 220.693 40.2692C225.021 40.2692 228.529 43.7776 228.529 48.1053ZM217.559 48.1053C217.559 49.8364 218.962 51.2396 220.693 51.2396C222.425 51.2396 223.828 49.8364 223.828 48.1053C223.828 46.3742 222.425 44.9707 220.693 44.9707C218.962 44.9707 217.559 46.3742 217.559 48.1053ZM238.569 45.8011V50.4861H233.236V45.8011H238.569ZM272.026 47.6542L272.023 47.5918V47.5642H272.021C271.742 43.4887 268.349 40.269 264.203 40.269C259.876 40.269 256.368 43.7772 256.368 48.1051C256.368 52.4328 259.876 55.941 264.203 55.941C267.418 55.941 270.18 54.0056 271.388 51.2365H264.34C264.294 51.2385 264.249 51.2395 264.203 51.2395C262.974 51.2395 261.909 50.5317 261.396 49.5016H272.023V47.6542H272.026ZM264.203 44.9706C265.749 44.9706 267.034 46.0909 267.292 47.5642H261.115C261.371 46.0909 262.656 44.9706 264.203 44.9706Z" fill="black"/>
<path fill-rule="evenodd" clip-rule="evenodd" d="M188.383 49.1025V37.0283H193.513V40.269H196.475V45.398H193.513V49.1025C193.513 50.0467 194.278 50.8121 195.223 50.8121H196.549V55.9411H195.223C191.445 55.9411 188.383 52.8793 188.383 49.1025ZM109.709 48.1051C109.709 49.7574 108.37 51.097 106.717 51.097C105.065 51.097 103.725 49.7574 103.725 48.1051C103.725 46.4526 105.065 45.113 106.717 45.113C108.37 45.113 109.709 46.4526 109.709 48.1051ZM114.838 48.1051C114.838 52.5902 111.202 56.226 106.717 56.226C102.232 56.226 98.5964 52.5902 98.5964 48.1051C98.5964 43.62 102.232 39.984 106.717 39.984C111.202 39.984 114.838 43.62 114.838 48.1051ZM132.505 48.1051C132.505 43.7774 128.997 40.269 124.669 40.269C120.341 40.269 116.833 43.7774 116.833 48.1051V55.9411H121.962V48.1051C121.962 46.6101 123.174 45.398 124.669 45.398C126.164 45.398 127.376 46.6101 127.376 48.1051V55.9411H132.505V48.1051ZM82.0698 48.1051C82.0698 43.7774 85.5782 40.269 89.9059 40.269H97.172V45.398H89.9059C88.4109 45.398 87.1989 46.6101 87.1989 48.1051C87.1989 49.6001 88.4109 50.8121 89.9059 50.8121H97.172V55.9411H89.9059C85.5782 55.9411 82.0698 52.4328 82.0698 48.1051ZM170.119 48.1051C170.119 43.7774 173.627 40.269 177.954 40.269H185.221V45.398H177.954C176.459 45.398 175.247 46.6101 175.247 48.1051C175.247 49.6001 176.459 50.8121 177.954 50.8121H185.221V55.9411H177.954C173.627 55.9411 170.119 52.4328 170.119 48.1051ZM143.475 40.269C147.803 40.269 151.311 43.7774 151.311 48.1051V55.9411H146.182V48.1051C146.182 46.6101 144.971 45.398 143.475 45.398C141.98 45.398 140.768 46.6101 140.768 48.1051V55.9411H135.639V48.1051C135.639 43.7774 139.148 40.269 143.475 40.269ZM77.2175 45.398C76.4306 45.398 75.7927 46.0359 75.7927 46.8228V55.7761H70.6637V46.8228C70.6637 43.2033 73.598 40.269 77.2175 40.269H80.9301V45.398H77.2175ZM43.166 55.9411C47.4937 55.9411 51.0021 52.4328 51.0021 48.1051C51.0021 43.7774 47.4937 40.269 43.166 40.269C38.8383 40.269 35.33 43.7774 35.33 48.1051C35.33 48.1563 35.3305 48.2073 35.3314 48.2584V62.9017H40.0166V55.2824C40.9803 55.706 42.0457 55.9411 43.166 55.9411ZM43.166 51.2394C41.4349 51.2394 40.0317 49.8362 40.0317 48.1051C40.0317 46.374 41.4349 44.9707 43.166 44.9707C44.8971 44.9707 46.3006 46.374 46.3006 48.1051C46.3006 49.8362 44.8971 51.2394 43.166 51.2394ZM4.68501 55.9416H0V37.0321H4.68501V55.9416ZM15.6708 55.9416H10.9857V48.8294H4.68513V44.1445H10.9857V37.0321H15.6708V55.9416ZM20.1546 62.9017H24.8395L34.4524 40.7607H29.7674L26.2011 48.9745L22.635 40.7605H17.95L23.8587 54.37L20.1546 62.9017ZM68.6525 47.5949L68.6561 47.6545H68.6525V49.5021H58.0262C58.5398 50.532 59.6037 51.2394 60.8328 51.2394C60.876 51.2394 60.9188 51.2386 60.9615 51.237H68.0181C66.8094 54.0059 64.0471 55.9411 60.8328 55.9411C56.5051 55.9411 52.9968 52.4328 52.9968 48.1051C52.9968 43.7774 56.5051 40.269 60.8328 40.269C64.9789 40.269 68.373 43.489 68.6505 47.5647H68.6525V47.5949ZM63.9209 47.5647C63.6647 46.0912 62.3797 44.9707 60.8328 44.9707C59.286 44.9707 58.0009 46.0912 57.7449 47.5647H63.9209ZM168.587 47.6545L168.584 47.5951V47.5647H168.583C168.304 43.489 164.91 40.269 160.764 40.269C156.436 40.269 152.928 43.7774 152.928 48.1051C152.928 52.4328 156.436 55.9411 160.764 55.9411C163.978 55.9411 166.741 54.0059 167.949 51.237H160.893C160.85 51.2386 160.807 51.2394 160.764 51.2394C159.535 51.2394 158.471 50.532 157.957 49.5021H168.584V47.6545H168.587ZM160.764 44.9707C162.311 44.9707 163.596 46.0912 163.852 47.5647H157.676C157.932 46.0912 159.217 44.9707 160.764 44.9707Z" fill="black"/>
</g>
<defs>
<clipPath id="clip0">
<rect width="290.462" height="64" fill="white"/>
</clipPath>
</defs>
</svg>
