<svg width="291" height="64" viewBox="0 0 291 64" fill="none" xmlns="http://www.w3.org/2000/svg">
<g clip-path="url(#clip0)">
<path d="M6.3864 25.3362L4.70386 27.0631L6.3864 28.7897L21.8756 44.6855L23.412 46.2624L23.6123 46.4679L25.0946 47.9891L34.3835 57.5218L36.1204 59.3041L37.8571 57.5218L57.0816 37.7926L61.4018 42.2261L63.1387 44.0086L64.8754 42.2261L68.3462 38.6643L70.0288 36.9374L68.3462 35.2108L53.0004 19.462L51.2635 17.6795V17.6797L49.7338 16.1097L40.3491 6.47867L38.6123 4.69629L36.8755 6.47867L17.6511 26.2079L13.3308 21.7744L11.594 19.9919L9.85725 21.7744L6.3864 25.3362ZM30.5025 39.3968L30.3022 39.1912L28.82 37.6702L25.1537 33.9076L39.2249 19.4671L42.7893 23.1251L44.5262 24.9076V24.9074L46.0559 26.4774L49.5789 30.0929L35.5078 44.5334L32.0389 40.9735L30.5025 39.3968Z" stroke="black" stroke-width="3"/>
<path d="M113.032 47.6882V43.0248H105.006V14.8618H91.5689V19.5251H99.595V43.0248H91.5689V47.6882H113.032Z" fill="black"/>
<path d="M127.444 23.2285C124.062 23.2285 121.357 24.3715 119.237 26.7032C117.118 29.0348 116.036 32.0065 116.036 35.7098C116.036 39.4131 117.118 42.3849 119.237 44.7164C121.357 47.0482 124.062 48.1911 127.444 48.1911C130.826 48.1911 133.576 47.0482 135.695 44.7164C137.815 42.3849 138.852 39.4131 138.852 35.7098C138.852 32.0065 137.815 29.0348 135.695 26.7032C133.576 24.3715 130.826 23.2285 127.444 23.2285ZM127.444 27.8462C129.293 27.8462 130.736 28.532 131.818 29.9492C132.855 31.3665 133.396 33.2867 133.396 35.7098C133.396 38.133 132.855 40.0531 131.818 41.4705C130.736 42.8877 129.293 43.5735 127.444 43.5735C125.595 43.5735 124.152 42.8877 123.115 41.4705C122.033 40.0531 121.492 38.133 121.492 35.7098C121.492 33.2867 122.033 31.3665 123.115 29.9492C124.152 28.532 125.595 27.8462 127.444 27.8462Z" fill="black"/>
<path d="M153.649 48.1911C156.715 48.1911 159.24 47.4596 161.269 45.951C163.299 44.4878 164.29 42.5677 164.29 40.2359C164.29 39.0016 164.02 37.9044 163.434 37.0356C162.847 36.167 161.945 35.4354 160.773 34.8412C160.187 34.5669 159.51 34.3383 158.744 34.1097C157.977 33.8811 156.489 33.5611 154.19 33.1039C151.71 32.6009 150.177 32.1895 149.591 31.7779C148.959 31.4121 148.644 30.9093 148.644 30.315C148.644 29.5378 149.049 28.8976 149.816 28.3948C150.583 27.9376 151.665 27.709 152.972 27.709C154.505 27.709 155.858 27.9832 157.076 28.5776C158.293 29.172 159.24 29.995 160.006 31.0921L163.975 27.8462C162.938 26.4288 161.494 25.2859 159.646 24.4629C157.797 23.6399 155.723 23.2285 153.513 23.2285C150.492 23.2285 148.057 23.9143 146.164 25.3317C144.27 26.7488 143.323 28.5776 143.323 30.8179C143.323 32.6923 143.954 34.1553 145.217 35.2069C146.479 36.3042 148.779 37.1272 152.161 37.6758C153.604 37.9044 154.55 38.0872 155.001 38.133C155.452 38.2244 155.813 38.3158 156.129 38.4072C157.121 38.6358 157.842 38.9559 158.248 39.3216C158.654 39.7331 158.834 40.2359 158.834 40.9217C158.834 41.7905 158.383 42.4305 157.481 42.9335C156.58 43.4363 155.407 43.7106 154.009 43.7106C152.386 43.7106 150.853 43.3449 149.41 42.6135C147.967 41.9277 146.84 40.9675 146.028 39.7788L141.745 42.9335C142.872 44.5336 144.54 45.8138 146.66 46.7738C148.779 47.734 151.124 48.1911 153.649 48.1911Z" fill="black"/>
<path d="M179.221 48.1911C182.287 48.1911 184.813 47.4596 186.841 45.951C188.87 44.4878 189.863 42.5677 189.863 40.2359C189.863 39.0016 189.593 37.9044 189.007 37.0356C188.42 36.167 187.518 35.4354 186.345 34.8412C185.759 34.5669 185.083 34.3383 184.316 34.1097C183.549 33.8811 182.063 33.5611 179.762 33.1039C177.283 32.6009 175.75 32.1895 175.163 31.7779C174.531 31.4121 174.216 30.9093 174.216 30.315C174.216 29.5378 174.622 28.8976 175.389 28.3948C176.156 27.9376 177.238 27.709 178.546 27.709C180.078 27.709 181.431 27.9832 182.648 28.5776C183.866 29.172 184.813 29.995 185.579 31.0921L189.548 27.8462C188.509 26.4288 187.067 25.2859 185.218 24.4629C183.369 23.6399 181.296 23.2285 179.087 23.2285C176.065 23.2285 173.63 23.9143 171.737 25.3317C169.843 26.7488 168.895 28.5776 168.895 30.8179C168.895 32.6923 169.527 34.1553 170.79 35.2069C172.052 36.3042 174.351 37.1272 177.733 37.6758C179.176 37.9044 180.123 38.0872 180.575 38.133C181.025 38.2244 181.385 38.3158 181.701 38.4072C182.693 38.6358 183.415 38.9559 183.821 39.3216C184.227 39.7331 184.407 40.2359 184.407 40.9217C184.407 41.7905 183.956 42.4305 183.054 42.9335C182.152 43.4363 180.979 43.7106 179.582 43.7106C177.959 43.7106 176.425 43.3449 174.983 42.6135C173.54 41.9277 172.413 40.9675 171.6 39.7788L167.318 42.9335C168.445 44.5336 170.114 45.8138 172.232 46.7738C174.351 47.734 176.697 48.1911 179.221 48.1911Z" fill="black"/>
<path d="M214.244 47.3767V42.7132H206.218V14.5503H192.781V19.2136H200.806V42.7132H192.781V47.3767H214.244Z" fill="black"/>
<path d="M229.099 48.1911C231.578 48.1911 233.742 47.5968 235.591 46.4082C237.44 45.2194 238.839 43.5735 239.695 41.4705L235.141 39.6873C234.735 40.9217 234.013 41.8361 232.977 42.5219C231.939 43.2077 230.631 43.5278 229.143 43.5278C227.294 43.5278 225.762 42.9335 224.543 41.7447C223.327 40.5561 222.605 38.9559 222.38 36.8986H239.83V35.0698C239.83 31.5037 238.839 28.6234 236.899 26.4746C234.915 24.3257 232.254 23.2285 228.873 23.2285C225.491 23.2285 222.651 24.4171 220.441 26.7946C218.232 29.172 217.104 32.1437 217.104 35.7098C217.104 39.4131 218.232 42.3849 220.441 44.7164C222.651 47.0482 225.536 48.1911 229.099 48.1911ZM228.873 27.8462C230.542 27.8462 231.893 28.3034 232.886 29.172C233.833 30.0864 234.329 31.2751 234.374 32.7837H222.695C223.101 31.1836 223.822 29.995 224.904 29.1262C225.988 28.2576 227.294 27.8462 228.873 27.8462Z" fill="black"/>
<path d="M254.719 48.1911C257.787 48.1911 260.311 47.4596 262.34 45.951C264.37 44.4878 265.362 42.5677 265.362 40.2359C265.362 39.0016 265.091 37.9044 264.504 37.0356C263.918 36.167 263.016 35.4354 261.845 34.8412C261.258 34.5669 260.583 34.3383 259.816 34.1097C259.049 33.8811 257.561 33.5611 255.26 33.1039C252.781 32.6009 251.248 32.1895 250.661 31.7779C250.031 31.4121 249.715 30.9093 249.715 30.315C249.715 29.5378 250.12 28.8976 250.887 28.3948C251.654 27.9376 252.736 27.709 254.043 27.709C255.577 27.709 256.929 27.9832 258.147 28.5776C259.364 29.172 260.311 29.995 261.078 31.0921L265.045 27.8462C264.009 26.4288 262.566 25.2859 260.717 24.4629C258.869 23.6399 256.794 23.2285 254.584 23.2285C251.564 23.2285 249.129 23.9143 247.235 25.3317C245.34 26.7488 244.395 28.5776 244.395 30.8179C244.395 32.6923 245.025 34.1553 246.288 35.2069C247.55 36.3042 249.85 37.1272 253.231 37.6758C254.675 37.9044 255.621 38.0872 256.073 38.133C256.524 38.2244 256.885 38.3158 257.2 38.4072C258.193 38.6358 258.914 38.9559 259.319 39.3216C259.725 39.7331 259.905 40.2359 259.905 40.9217C259.905 41.7905 259.455 42.4305 258.553 42.9335C257.65 43.4363 256.479 43.7106 255.08 43.7106C253.457 43.7106 251.925 43.3449 250.481 42.6135C249.038 41.9277 247.911 40.9675 247.1 39.7788L242.816 42.9335C243.943 44.5336 245.612 45.8138 247.73 46.7738C249.85 47.734 252.195 48.1911 254.719 48.1911Z" fill="black"/>
<path d="M280.164 48.1911C283.231 48.1911 285.756 47.4596 287.785 45.951C289.814 44.4878 290.807 42.5677 290.807 40.2359C290.807 39.0016 290.536 37.9044 289.949 37.0356C289.363 36.167 288.461 35.4354 287.29 34.8412C286.703 34.5669 286.027 34.3383 285.261 34.1097C284.494 33.8811 283.006 33.5611 280.705 33.1039C278.226 32.6009 276.692 32.1895 276.106 31.7779C275.476 31.4121 275.16 30.9093 275.16 30.315C275.16 29.5378 275.565 28.8976 276.332 28.3948C277.098 27.9376 278.18 27.709 279.488 27.709C281.022 27.709 282.374 27.9832 283.592 28.5776C284.809 29.172 285.756 29.995 286.523 31.0921L290.49 27.8462C289.454 26.4288 288.011 25.2859 286.162 24.4629C284.313 23.6399 282.239 23.2285 280.029 23.2285C277.009 23.2285 274.574 23.9143 272.68 25.3317C270.785 26.7488 269.84 28.5776 269.84 30.8179C269.84 32.6923 270.47 34.1553 271.732 35.2069C272.995 36.3042 275.295 37.1272 278.676 37.6758C280.12 37.9044 281.066 38.0872 281.517 38.133C281.969 38.2244 282.33 38.3158 282.645 38.4072C283.636 38.6358 284.359 38.9559 284.763 39.3216C285.17 39.7331 285.35 40.2359 285.35 40.9217C285.35 41.7905 284.9 42.4305 283.998 42.9335C283.095 43.4363 281.924 43.7106 280.525 43.7106C278.902 43.7106 277.37 43.3449 275.926 42.6135C274.483 41.9277 273.355 40.9675 272.545 39.7788L268.261 42.9335C269.388 44.5336 271.057 45.8138 273.175 46.7738C275.295 47.734 277.639 48.1911 280.164 48.1911Z" fill="black"/>
</g>
<defs>
<clipPath id="clip0">
<rect width="290.807" height="64" fill="white"/>
</clipPath>
</defs>
</svg>
