<svg width="77" height="78" viewBox="0 0 77 78" fill="none" xmlns="http://www.w3.org/2000/svg">
<g clip-path="url(#clip0)">
<path d="M3.74889 5.50097C3.74889 8.04731 3.74889 10.4015 3.74889 12.7797C3.74889 25.4633 3.74889 38.1469 3.74889 50.8306C3.74889 51.239 3.79694 51.6473 3.72486 52.0317C3.55668 52.9686 2.95602 53.5211 1.99497 53.5451C1.00989 53.5691 0.409235 53.0166 0.217025 52.1038C0.144946 51.7674 0.168973 51.3831 0.168973 51.0228C0.168973 34.8559 0.168973 18.6891 0.168973 2.52224C0.168973 2.45017 0.168973 2.35408 0.168973 2.28202C0.0968938 1.36918 0.31313 0.600473 1.2021 0.168076C2.04302 -0.240299 2.73978 0.120032 3.41252 0.624495C9.2509 5.04455 15.1133 9.44059 20.9517 13.8366C25.1323 16.9835 29.3128 20.1544 33.5174 23.2773C34.3343 23.8778 34.7188 24.5745 34.7188 25.5834C34.6947 34.1353 34.6947 42.7111 34.6947 51.263C34.6947 51.335 34.6947 51.4311 34.6947 51.5032C34.6467 52.8484 33.998 53.5691 32.8447 53.5451C31.7875 53.5211 31.1148 52.7764 31.0908 51.5513C31.0668 50.6384 31.0908 49.7016 31.0908 48.7887C31.0908 41.5581 31.0908 34.3034 31.0908 27.0728C31.0908 26.4482 31.0427 25.9437 30.4661 25.5113C21.7205 18.9773 12.999 12.3953 4.27746 5.83728C4.18136 5.74119 4.06123 5.69315 3.74889 5.50097Z" fill="#05C59F"/>
<path d="M71.6704 5.38094C68.3788 7.85521 65.3034 10.1853 62.2281 12.4674C56.5579 16.7193 50.9117 20.9712 45.2415 25.1991C44.5207 25.7276 44.2564 26.2801 44.2564 27.193C44.3045 35.1202 44.2804 43.0235 44.2804 50.9508C44.2804 51.3591 44.3045 51.7675 44.2084 52.1519C43.9441 53.0647 43.3434 53.5932 42.3583 53.5211C41.3973 53.4491 40.8206 52.8965 40.7005 51.9357C40.6525 51.6234 40.6765 51.2871 40.6765 50.9748C40.6765 42.6151 40.7005 34.2554 40.6525 25.8958C40.6525 24.6947 41.0129 23.8779 41.9979 23.1573C51.9929 15.6864 61.9638 8.19152 71.9347 0.672618C72.6555 0.144133 73.3522 -0.24022 74.2412 0.192177C75.1302 0.624574 75.2503 1.44132 75.2503 2.33014C75.2503 18.6171 75.2503 34.88 75.2503 51.167C75.2503 51.4792 75.2503 51.8156 75.1782 52.1278C74.962 53.0647 74.3373 53.5692 73.3522 53.5211C72.3912 53.4731 71.8145 52.9206 71.6944 51.9597C71.6464 51.5753 71.6704 51.167 71.6704 50.7586C71.6704 36.1532 71.6704 21.5478 71.6704 6.96639C71.6704 6.534 71.6704 6.1016 71.6704 5.38094Z" fill="#536C7C"/>
<path d="M1.34549 66.3487C1.34549 69.6157 1.36952 72.8347 1.32146 76.0536C1.32146 76.7022 1.75394 77.8313 0.768859 77.8553C-0.360376 77.9033 0.0961234 76.7022 0.0720972 76.0536C0.0240446 72.2582 0.0480709 68.4627 0.0720972 64.6672C0.0720972 64.1147 -0.216218 63.346 0.528596 63.0817C1.34549 62.7935 1.46562 63.6823 1.75394 64.1387C3.65201 67.2376 5.52606 70.3364 7.49622 73.5794C9.05792 71.033 10.5476 68.5828 12.0372 66.1325C12.5177 65.3398 12.9742 64.5471 13.4788 63.7784C13.695 63.418 13.8392 62.8896 14.4398 63.0577C15.0164 63.2259 14.8963 63.7303 14.8963 64.1627C14.8963 67.5979 14.8963 71.033 14.8963 74.4682C14.8963 75.1408 14.9203 75.8374 14.8963 76.5101C14.8723 77.0626 15.1606 77.9514 14.2716 77.9033C13.4067 77.8793 13.695 76.9905 13.695 76.438C13.671 73.3632 13.695 70.2884 13.671 67.2135C13.671 66.9493 13.6469 66.685 13.6229 66.0365C12.4937 67.8621 11.5567 69.3995 10.6196 70.9369C9.89884 72.1381 9.17805 73.3392 8.45727 74.5162C7.68843 75.7414 7.37608 75.7414 6.6553 74.5403C5.11761 72.114 3.65201 69.6878 2.16238 67.2616C1.97017 66.9493 1.89809 66.5169 1.34549 66.3487Z" fill="#536C7C"/>
<path d="M66.9371 70.3606C66.9371 68.2707 66.9612 66.2048 66.9131 64.1149C66.8891 63.2261 67.2495 62.9138 68.1144 62.9378C69.556 62.9858 70.9976 62.9138 72.4392 62.9618C74.5294 63.0099 76.3074 64.4272 76.6438 66.2528C77.0041 68.1746 75.971 69.9522 73.9048 70.745C73.1599 71.0332 73.232 71.2975 73.4963 71.874C74.2892 73.4354 75.058 75.0209 75.8269 76.6064C76.0431 77.0388 76.3314 77.5432 75.7548 77.8555C75.1301 78.1918 74.9379 77.5913 74.7216 77.1829C73.8807 75.5013 73.0158 73.8438 72.2469 72.1383C71.8866 71.3455 71.4301 71.0332 70.5411 71.0573C68.2586 71.1293 68.2586 71.0813 68.2586 73.3153C68.2586 74.5164 68.2586 75.7175 68.2586 76.9186C68.2586 77.3751 68.1865 77.8795 67.5858 77.8555C66.9852 77.8315 66.9612 77.351 66.9612 76.8946C66.9371 74.6846 66.9371 72.5226 66.9371 70.3606ZM70.7333 64.1629C70.7333 64.1869 70.7333 64.1869 70.7333 64.211C70.1326 64.211 69.532 64.211 68.9313 64.211C68.4988 64.211 68.2586 64.3551 68.2586 64.8355C68.2586 66.3009 68.2586 67.7903 68.2586 69.2556C68.2586 69.664 68.4748 69.8321 68.8592 69.8081C70.3008 69.7601 71.7424 69.9763 73.1599 69.688C74.5294 69.3997 75.4665 68.2467 75.4665 66.9975C75.4665 65.7484 74.4574 64.5953 73.1119 64.3551C72.319 64.1869 71.5262 64.211 70.7333 64.1629Z" fill="#536C7C"/>
<path d="M52.3773 70.457C52.3773 68.367 52.4014 66.3011 52.3773 64.2112C52.3533 63.3224 52.5936 62.89 53.6027 62.914C56.0293 62.9621 58.48 62.9381 60.9307 62.9381C61.3872 62.9381 61.9157 62.9381 61.9398 63.5146C61.9878 64.2112 61.4112 64.1872 60.9066 64.1872C58.8164 64.1872 56.7501 64.2112 54.6598 64.1392C53.8429 64.1151 53.6267 64.4034 53.6507 65.1721C53.6988 66.4213 53.6988 67.6464 53.6507 68.8955C53.6267 69.5681 53.8429 69.8084 54.5397 69.7843C56.0293 69.7363 57.4949 69.7603 58.9845 69.7843C59.417 69.7843 59.9696 69.7603 59.9937 70.3609C60.0417 71.0335 59.4891 71.0575 58.9845 71.0575C57.4949 71.0575 56.0293 71.0815 54.5397 71.0335C53.867 71.0095 53.6267 71.2016 53.6507 71.8983C53.6988 73.1474 53.7228 74.3725 53.6507 75.6217C53.6027 76.5345 53.9871 76.6787 54.78 76.6546C56.7741 76.6066 58.7683 76.6306 60.7865 76.6546C61.2911 76.6546 61.9638 76.5826 61.9398 77.3513C61.9157 77.9999 61.3151 77.9518 60.8346 77.9518C58.4319 77.9518 56.0293 77.9278 53.6267 77.9759C52.6416 77.9999 52.3773 77.5675 52.4014 76.6787C52.4014 74.6128 52.3773 72.5229 52.3773 70.457Z" fill="#536C7C"/>
<path d="M38.7543 71.0574C40.9167 68.7753 43.1031 66.5173 45.2654 64.2352C45.5297 63.9469 45.818 63.6586 46.0823 63.3704C46.3706 63.0341 46.731 62.8179 47.1155 63.1782C47.4999 63.5385 47.3077 63.8989 47.0193 64.2112C46.0823 65.1961 45.1453 66.181 44.2083 67.1659C43.4154 68.0066 42.6466 68.8714 41.8056 69.6642C41.253 70.1686 41.3011 70.5049 41.8056 71.0094C43.4394 72.6669 45.0252 74.3485 46.6109 76.03C46.7791 76.1982 46.9473 76.3663 47.1155 76.5585C47.4278 76.9188 47.8843 77.3032 47.3317 77.7596C46.8752 78.144 46.5148 77.7836 46.2025 77.4473C45.0972 76.2943 43.992 75.1172 42.9109 73.9641C42.5024 73.5317 42.118 73.0513 41.6615 72.6669C41.1569 72.2586 40.9407 71.3938 40.1478 71.4658C39.5472 71.5139 38.49 73.2915 38.49 74.0362C38.49 74.949 38.49 75.8859 38.49 76.7987C38.49 77.2551 38.4179 77.7356 37.8413 77.7596C37.2647 77.7836 37.1686 77.3032 37.1686 76.8468C37.1686 72.5228 37.1686 68.2228 37.1686 63.8989C37.1686 63.4184 37.2407 62.938 37.8173 62.938C38.49 62.938 38.5141 63.4905 38.5141 63.9709C38.5141 66.2771 38.5141 68.5832 38.5141 70.9133C38.5621 70.9854 38.6582 71.0334 38.7543 71.0574Z" fill="#536C7C"/>
<path d="M32.5555 77.1349C32.5795 77.5673 32.4354 77.7835 32.1471 77.9036C31.7867 78.0237 31.5224 77.8556 31.3782 77.5193C31.0419 76.7506 30.6815 75.9819 30.4172 75.1891C30.2009 74.6126 29.8886 74.4204 29.2639 74.4204C27.2697 74.4685 25.2756 74.4685 23.2814 74.4204C22.6567 74.3964 22.3203 74.6126 22.1522 75.2132C21.9599 75.7897 21.7197 76.3422 21.4554 76.8707C21.2392 77.3271 21.2151 78.1679 20.3982 77.8556C19.6054 77.5433 20.0859 76.9187 20.2781 76.4383C21.8398 72.6428 23.4255 68.8473 24.9873 65.0518C25.1795 64.6194 25.3717 64.163 25.5399 63.7306C25.684 63.3943 25.8041 63.01 26.2366 62.9859C26.7412 62.9619 26.8853 63.3463 27.0535 63.7306C27.8224 65.5803 28.5912 67.406 29.36 69.2557C30.3691 71.6819 31.3782 74.1322 32.3633 76.5584C32.4114 76.7986 32.5075 77.0148 32.5555 77.1349ZM26.2606 65.268C25.1795 67.8864 24.1944 70.2166 23.2093 72.5707C22.9931 73.0752 23.2574 73.1953 23.7139 73.1953C25.4197 73.1953 27.1496 73.1953 28.8555 73.1953C29.2159 73.1953 29.5522 73.1713 29.336 72.6668C28.3509 70.2886 27.3659 67.9105 26.2606 65.268Z" fill="#536C7C"/>
</g>
<defs>
<clipPath id="clip0">
<rect width="76.7399" height="77.9996" fill="white"/>
</clipPath>
</defs>
</svg>
