<svg width="85" height="78" viewBox="0 0 85 78" fill="none" xmlns="http://www.w3.org/2000/svg">
<g clip-path="url(#clip0)">
<path d="M16.2619 7.58488C20.7026 1.78058 26.6004 -0.231267 33.4234 0.0231046C40.3389 0.277476 45.8898 2.86744 49.1047 9.64298C49.5442 9.08799 49.8449 8.76424 50.0761 8.39425C52.9441 3.79243 57.061 1.10997 62.4269 0.369975C68.0934 -0.416265 73.5056 0.254352 78.2238 3.81555C81.5544 6.33615 83.6128 9.71235 84.3298 13.8285C84.723 16.2104 84.9543 18.6385 84.9774 21.0666C85.0468 31.2646 85.0006 41.4626 85.0006 51.6606C85.0006 53.3255 85.0006 53.3255 83.3353 53.3255C79.149 53.3255 74.9396 53.3024 70.7533 53.3487C69.6893 53.3718 69.3655 53.0018 69.3655 51.9612C69.4118 42.6419 69.4349 33.3227 69.3655 24.0265C69.3424 21.8066 69.2499 19.5403 68.7642 17.3898C67.7928 13.1811 65.6649 11.5161 61.3398 11.0998C57.0148 10.6836 53.7305 12.3948 52.2734 16.1179C51.6489 17.7135 51.2788 19.4479 51.1401 21.1591C50.8856 24.0728 50.8625 27.0096 50.8394 29.9233C50.7931 37.2307 50.8163 44.5382 50.8394 51.8687C50.8394 53.0249 50.5156 53.3949 49.336 53.3949C45.1728 53.3255 41.0328 53.3718 36.8696 53.3718C35.2506 53.3718 35.2506 53.3718 35.2506 51.7993C35.2275 41.6013 35.2275 31.4496 35.2043 21.2747C35.2043 19.1472 34.9037 17.0429 33.9554 15.1004C32.8683 12.9036 31.0874 11.493 28.682 11.2848C26.7855 11.0998 24.7964 11.0767 22.9692 11.5161C19.1992 12.4642 17.4646 15.3548 16.9557 19.0316C16.7707 20.396 16.7013 21.7834 16.7013 23.1709C16.6782 32.7214 16.7013 42.2719 16.7013 51.7993C16.7013 53.2562 16.6551 53.3255 15.2442 53.3255C10.9654 53.3255 6.70971 53.3024 2.43089 53.3487C1.34383 53.3718 1.06629 52.9787 1.06629 51.9381C1.08942 39.7745 1.13568 27.6109 1.08942 15.4473C1.04316 11.1923 0.788744 6.93739 0.649972 2.65932C0.603714 1.22559 0.673101 1.15621 2.10708 1.15621C6.03897 1.15621 9.97086 1.15621 13.8796 1.15621C15.4755 1.15621 15.4755 1.17934 15.6143 2.72869C15.7299 4.00055 15.8224 5.24929 15.9612 6.52114C15.9843 6.75239 16.1 7.00676 16.2619 7.58488Z" fill="white"/>
<path d="M42.7438 78C29.1903 78 15.6369 78 2.10657 78C0.6032 78 0.556942 77.9537 0.533813 76.4506C0.533813 73.1438 0.533813 69.8369 0.533813 66.5301C0.533813 65.1426 0.6032 65.0732 2.08344 65.0732C14.2492 65.0732 26.4149 65.0732 38.5806 65.0732C53.4293 65.0732 68.3011 65.0732 83.1497 65.0732C85.0001 65.0732 85.0001 65.0732 85.0001 66.9232C85.0001 70.0682 85.0001 73.2363 85.0001 76.3812C85.0001 77.9768 84.9769 78.0231 83.4042 78.0231C69.8507 78 56.2973 78 42.7438 78Z" fill="white"/>
</g>
<defs>
<clipPath id="clip0">
<rect width="84.4662" height="77.9996" fill="white" transform="translate(0.533813)"/>
</clipPath>
</defs>
</svg>
