<svg width="53" height="78" viewBox="0 0 53 78" fill="none" xmlns="http://www.w3.org/2000/svg">
<path d="M15.837 63.1172C15.837 61.7825 15.837 60.4553 15.837 59.1206C15.837 58.9841 15.8219 58.8324 15.875 58.7111C16.0115 58.3926 16.2162 58.1651 16.6106 58.1802C16.9822 58.1954 17.1794 58.4077 17.2931 58.7263C17.331 58.84 17.3462 58.9689 17.3462 59.0979C17.3462 61.3502 17.3538 63.6101 17.3462 65.8625C17.3462 66.0293 17.3083 66.2189 17.2324 66.3706C16.967 66.9015 16.2921 66.9546 15.9811 66.4464C15.2228 65.18 14.4947 63.8907 13.7439 62.6091C13.5847 62.3285 13.4178 62.0555 13.1979 61.7976C13.1979 62.0555 13.1979 62.3133 13.1979 62.5712C13.1979 63.7087 13.1979 64.8387 13.1979 65.9763C13.1979 66.4844 12.9022 66.7877 12.4547 66.7877C12.0224 66.7801 11.7343 66.4844 11.7343 65.999C11.7267 63.6557 11.7343 61.3047 11.7267 58.9613C11.7267 58.5822 11.9011 58.3167 12.2424 58.2181C12.5988 58.1044 12.9097 58.2257 13.1145 58.5746C13.8577 59.8562 14.6009 61.1379 15.3441 62.4195C15.4806 62.6546 15.6247 62.8973 15.7612 63.1324C15.784 63.1324 15.8143 63.1248 15.837 63.1172Z" fill="black"/>
<path d="M19.8272 64.3611C19.9562 64.8844 20.2671 65.1877 20.7525 65.3242C21.3136 65.4835 21.7611 65.2939 22.1327 64.8692C22.4891 64.4597 22.9366 64.4369 23.2627 64.8161C23.5129 65.1119 23.4978 65.4683 23.202 65.802C22.4436 66.6893 21.2681 67.023 20.1913 66.6589C19.1447 66.3101 18.3939 65.3166 18.3636 64.1336C18.3484 63.5193 18.356 62.8899 18.5001 62.2983C18.7959 61.0925 20.0244 60.319 21.2378 60.4782C22.5043 60.6451 23.4674 61.6916 23.5053 62.9581C23.5129 63.1856 23.5129 63.4131 23.5053 63.6406C23.4902 64.0653 23.2172 64.3383 22.7925 64.3459C21.8824 64.3535 20.9724 64.3459 20.0699 64.3459C19.9941 64.3459 19.9258 64.3611 19.8272 64.3611ZM19.8348 62.905C20.5249 62.905 21.1923 62.905 21.8597 62.905C21.9203 62.905 21.9734 62.8899 22.0341 62.8823C21.9507 62.2907 21.5639 61.9343 21.0027 61.9191C20.3581 61.8964 19.9789 62.2073 19.8348 62.905Z" fill="black"/>
<path d="M38.5849 66.7726C38.2436 66.7726 37.9023 66.7878 37.5611 66.7726C37.0833 66.7423 36.7041 66.492 36.3932 66.1431C36.1581 65.8777 36.1808 65.5592 36.4159 65.2862C36.6662 64.998 37.0605 64.8918 37.3184 65.1194C37.6217 65.3924 37.9478 65.3924 38.2967 65.3924C38.6228 65.3848 38.9565 65.3999 39.2826 65.3924C39.6845 65.3848 39.9044 65.1876 39.9044 64.8388C39.9044 64.5051 39.6769 64.2927 39.275 64.2851C38.8958 64.2776 38.5166 64.2851 38.1374 64.2851C37.0454 64.2776 36.2415 63.5571 36.1657 62.503C36.0974 61.5171 36.8406 60.6222 37.8947 60.5312C38.5394 60.4706 39.2067 60.5085 39.8589 60.5691C40.2912 60.6071 40.6628 60.8497 40.8979 61.2441C41.0875 61.555 41.0268 61.8735 40.731 62.1162C40.4656 62.3361 40.1471 62.3589 39.8968 62.1465C39.6693 61.957 39.4342 61.9342 39.1688 61.9342C38.8124 61.9418 38.4635 61.9342 38.1071 61.9342C37.8037 61.9342 37.6293 62.0783 37.6141 62.3816C37.5914 62.7002 37.7886 62.8442 38.0767 62.8594C38.5924 62.8822 39.1081 62.867 39.6238 62.9049C40.6097 62.9808 41.3377 63.8529 41.3302 64.907C41.3226 65.8853 40.5339 66.7347 39.5783 66.7878C39.2371 66.7878 38.911 66.7726 38.5849 66.7726Z" fill="black"/>
<path d="M35.4441 62.7986C35.4062 63.4508 35.4441 64.1182 35.3228 64.7552C35.1256 65.8094 34.0942 66.6587 33.0856 66.7725C31.5916 66.9393 30.6057 66.1279 30.1962 65.1799C30.0369 64.8007 29.9611 64.3609 29.9459 63.9438C29.908 63.102 29.9308 62.2526 29.9384 61.4108C29.9384 60.8648 30.2341 60.4856 30.6588 60.4856C31.1138 60.478 31.3868 60.8193 31.3868 61.3957C31.3868 62.2905 31.3868 63.1854 31.3868 64.0803C31.3868 64.7552 31.8874 65.3088 32.5547 65.3847C33.2069 65.4605 33.8667 65.0207 33.9577 64.3457C34.0336 63.7769 34.0032 63.193 34.0184 62.609C34.026 62.1464 34.0108 61.6763 34.026 61.2136C34.0336 60.7965 34.3369 60.478 34.7237 60.478C35.118 60.478 35.4138 60.7814 35.4138 61.2136C35.4214 61.7445 35.4138 62.2754 35.4138 62.7986C35.4214 62.7986 35.4365 62.7986 35.4441 62.7986Z" fill="black"/>
<path d="M26.6763 62.4571C27.1237 61.8808 27.5333 61.3423 27.9579 60.819C28.2461 60.4626 28.6329 60.3944 28.9514 60.6294C29.3154 60.9025 29.3761 61.2589 29.0955 61.6532C28.7011 62.2069 28.2992 62.7529 27.8594 63.2762C27.6167 63.5643 27.6091 63.7463 27.8518 64.0345C28.2916 64.5502 28.6936 65.1038 29.0879 65.6574C29.3685 66.0518 29.3154 66.4158 28.9514 66.6812C28.6481 66.9012 28.2158 66.8177 27.9504 66.4841C27.5333 65.9532 27.1237 65.4148 26.6763 64.8384C26.2516 65.392 25.8421 65.9153 25.4402 66.4386C25.152 66.8026 24.7349 66.9087 24.4239 66.6888C24.0372 66.4234 23.9841 66.0366 24.3026 65.6044C24.7804 64.9522 25.2733 64.3227 25.7814 63.6553C25.2885 63.0107 24.8031 62.3737 24.3178 61.7367C24.1054 61.4561 23.9841 61.1755 24.2192 60.8418C24.5225 60.4095 25.0306 60.364 25.3643 60.7811C25.8042 61.3044 26.2137 61.858 26.6763 62.4571Z" fill="black"/>
<path d="M12.8211 73.1126C13.0107 72.7334 13.1928 72.377 13.3672 72.0205C13.7086 71.3228 14.0575 70.6251 14.3988 69.9274C14.6188 69.4724 14.9298 69.3056 15.3318 69.4041C15.6655 69.4876 15.8703 69.8061 15.8703 70.2535C15.8703 72.5514 15.8703 74.8417 15.8703 77.1395C15.8703 77.678 15.5897 77.9889 15.1194 77.9813C14.6567 77.9737 14.4064 77.6931 14.4064 77.1547C14.4064 75.9261 14.4064 74.69 14.3305 73.4311C14.0727 73.9468 13.7996 74.4625 13.5493 74.9933C13.3976 75.3043 13.2155 75.5545 12.8287 75.5545C12.4191 75.5621 12.2295 75.3043 12.0778 74.9782C11.8351 74.4625 11.5696 73.9468 11.2434 73.4463C11.2434 74.1591 11.2434 74.8644 11.2434 75.5773C11.2434 76.1233 11.251 76.6617 11.2434 77.2078C11.2359 77.6855 10.9476 77.9889 10.5077 77.9813C10.0526 77.9813 9.78711 77.7007 9.78711 77.2002C9.78711 74.8644 9.78711 72.5362 9.78711 70.2004C9.78711 69.7682 9.98432 69.4724 10.3256 69.3966C10.7201 69.3056 11.0311 69.48 11.2359 69.8971C11.7213 70.9057 12.2143 71.9068 12.6998 72.9154C12.7301 72.9685 12.7604 73.0216 12.8211 73.1126Z" fill="black"/>
<path d="M37.6386 77.6249C36.994 78.0041 36.3114 78.0648 35.6213 77.9131C34.4989 77.6704 33.6572 76.7149 33.5586 75.5091C33.4827 74.5687 33.4524 73.6283 34.0591 72.7865C34.7113 71.8916 35.9474 71.4594 37.0546 71.793C38.1543 72.1191 38.9809 73.1657 38.9885 74.2729C38.9961 75.2057 38.9809 76.1385 38.9961 77.0713C39.0037 77.4429 38.9278 77.769 38.5714 77.9207C38.2074 78.0723 37.8813 77.9738 37.6386 77.6249ZM34.9615 74.8493C34.9615 74.9858 34.9615 75.1299 34.9615 75.2664C34.9691 75.9034 35.3331 76.3812 35.9323 76.5404C36.5162 76.6997 37.085 76.457 37.4035 75.8958C37.7068 75.3574 37.6083 74.7659 37.5476 74.1971C37.4869 73.6586 37.1305 73.3022 36.63 73.1581C36.1294 73.0064 35.6668 73.1505 35.2876 73.5373C34.916 73.9165 34.954 74.3791 34.9615 74.8493Z" fill="black"/>
<path d="M27.3009 73.962C27.3009 73.4615 27.3009 72.9534 27.3009 72.4529C27.3009 72.0054 27.6043 71.6793 27.9986 71.6793C28.4082 71.6718 28.6963 71.9675 28.6963 72.4453C28.7039 73.3553 28.6888 74.2578 28.7039 75.1678C28.7267 76.1765 29.5154 76.7907 30.4178 76.5253C30.9487 76.3661 31.3127 75.911 31.3203 75.3574C31.3279 74.4019 31.3203 73.4388 31.3279 72.4832C31.3355 71.8689 31.8967 71.4897 32.3744 71.7855C32.5489 71.8917 32.7385 72.1268 32.746 72.3088C32.7612 73.4767 32.7915 74.6521 32.6854 75.8125C32.5792 76.9121 31.5175 77.8449 30.4709 77.9738C28.9011 78.171 27.8849 77.2154 27.5057 76.3206C27.2099 75.6229 27.3389 74.91 27.3009 74.1971C27.2934 74.1137 27.3009 74.0379 27.3009 73.962Z" fill="black"/>
<path d="M16.5909 73.9849C16.5909 73.4692 16.5833 72.9536 16.5909 72.4379C16.5984 71.9677 16.879 71.6719 17.2886 71.6719C17.6829 71.6719 17.9863 71.998 17.9863 72.4454C17.9863 73.3631 17.9863 74.2883 17.9863 75.2059C17.9938 75.9112 18.4109 76.4269 19.0631 76.5634C19.6774 76.6847 20.2765 76.3435 20.5344 75.7064C20.5951 75.5623 20.6178 75.3879 20.6178 75.2287C20.6254 74.311 20.6178 73.3858 20.6254 72.4682C20.6254 72.0056 20.8984 71.6947 21.3003 71.6719C21.6871 71.6567 22.0435 71.9753 22.0435 72.4151C22.0435 73.5375 22.0587 74.6599 21.9905 75.7747C21.9298 76.7454 20.8681 77.7692 19.8443 77.9512C18.3579 78.209 16.9018 77.299 16.644 75.8733C16.5378 75.2666 16.6288 74.622 16.6288 73.9925C16.6212 73.9849 16.606 73.9849 16.5909 73.9849Z" fill="black"/>
<path d="M24.2818 73.1733C24.2818 74.0151 24.2591 74.8114 24.2894 75.6001C24.3122 76.093 24.8354 76.5404 25.336 76.5859C25.5331 76.6011 25.7379 76.5859 25.9427 76.6011C26.3067 76.639 26.6176 76.9803 26.6024 77.3064C26.5949 77.6552 26.2839 77.951 25.9123 77.9738C24.4259 78.0799 23.2732 77.3064 22.9471 75.9717C22.894 75.7517 22.8864 75.5242 22.8864 75.2967C22.8788 73.6056 22.8788 71.922 22.8864 70.2308C22.8864 69.7151 23.1367 69.4042 23.5462 69.3966C23.9481 69.389 24.2591 69.753 24.2667 70.246C24.2742 70.7389 24.2667 71.2243 24.2667 71.7855C24.5473 71.7855 24.8051 71.7779 25.063 71.7855C25.518 71.8006 25.8137 72.0585 25.8289 72.4452C25.8441 72.8548 25.5559 73.1429 25.0781 73.1657C24.8354 73.1884 24.5852 73.1733 24.2818 73.1733Z" fill="black"/>
<path d="M39.9679 72.7563C39.9679 71.8842 39.9679 71.0197 39.9679 70.1475C39.9679 69.7759 40.1575 69.5181 40.5139 69.4195C40.8249 69.3285 41.1055 69.4574 41.2496 69.738C41.333 69.8973 41.3481 70.102 41.3481 70.284C41.3557 71.8766 41.3633 73.4616 41.3481 75.0542C41.3406 75.7822 41.5832 76.3434 42.2658 76.6847C42.6449 76.8743 42.7511 77.261 42.5767 77.6175C42.4099 77.9587 42.0534 78.0725 41.6363 77.9132C40.6959 77.5492 39.9755 76.4344 39.9679 75.2969C39.9603 74.4475 39.9679 73.5981 39.9679 72.7563Z" fill="black"/>
<path d="M34.8274 8.65271C34.9803 10.9153 33.7877 12.9332 32.0752 14.7065C30.2098 16.6328 30.2098 19.1399 32.014 20.9133C33.7265 22.5949 36.3564 22.5643 38.0995 20.6381C42.1973 16.113 48.8944 17.0914 51.7078 21.5859C53.8178 24.9797 53.0839 29.9329 49.9341 32.5012C46.6926 35.1306 41.8303 34.9777 38.9252 32.1648C38.3442 31.6145 37.7631 31.003 37.0904 30.6055C35.225 29.566 33.0843 30.0552 31.7694 31.6756C30.485 33.2961 30.5462 35.2835 31.8 36.9957C32.8703 38.4327 34.0935 39.8697 34.7663 41.4902C36.2647 45.0675 34.858 48.0332 32.2281 50.4792C30.0263 52.5583 26.2038 52.9252 23.2069 51.5188C18.2529 49.1645 17.0297 42.438 20.7911 38.4021C21.739 37.3626 22.8399 36.4147 22.8094 34.7943C22.8094 32.8986 21.8919 31.3087 20.3018 30.6361C18.5281 29.8717 16.6933 30.2386 15.3172 31.7368C13.0848 34.1522 10.4243 35.2223 7.12166 34.5803C3.7884 33.9382 1.25024 31.1864 0.546889 27.4257C-0.00355706 24.3988 1.80068 20.791 4.73639 19.0788C7.61094 17.4277 11.5252 17.7335 14.0328 19.8431C14.8585 20.5158 15.5618 21.3719 16.4792 21.8611C18.4058 22.9006 20.6076 22.1974 21.9225 20.3018C23.1152 18.5896 22.9317 16.5105 21.2803 14.9511C19.3844 13.1472 18.1611 11.1293 18.1611 8.43868C18.1917 3.73014 21.8919 0 26.5707 0C31.2189 0 34.7968 3.66899 34.8274 8.65271ZM49.3837 26.111C49.4142 23.1758 47.4571 21.1273 44.6437 21.0967C41.8915 21.0967 39.6591 23.237 39.6591 25.9581C39.6285 28.6181 41.7997 30.8195 44.4296 30.8501C47.3042 30.9113 49.3531 28.9545 49.3837 26.111ZM26.9377 48.8893C29.6288 48.8893 31.9223 46.5962 31.8917 43.9668C31.8306 41.3373 29.537 39.0748 26.8765 39.1053C24.2466 39.1053 21.9225 41.429 21.9531 44.0279C21.9531 46.7185 24.2161 48.9199 26.9377 48.8893ZM26.5402 13.1778C29.3535 13.1778 31.4636 11.0681 31.433 8.28581C31.4024 5.65636 29.2312 3.48554 26.5707 3.42439C23.9102 3.36324 21.6167 5.65636 21.6167 8.31638C21.6167 11.0987 23.6962 13.1778 26.5402 13.1778ZM8.80358 31.217C11.5252 31.2476 13.7882 29.0768 13.7882 26.3556C13.7882 23.665 11.4946 21.4025 8.83415 21.433C6.20424 21.4636 4.00246 23.6344 3.9413 26.2639C3.84956 28.9545 6.08193 31.1864 8.80358 31.217Z" fill="black"/>
<path d="M47.9464 25.9885C47.9464 27.9453 46.5397 29.3517 44.6131 29.3823C42.6865 29.3823 41.0964 27.823 41.1575 25.9274C41.2187 24.0929 42.7783 22.5641 44.6131 22.5947C46.4785 22.5947 47.9464 24.1234 47.9464 25.9885Z" fill="black"/>
<path d="M26.8154 47.3916C25.0111 47.3611 23.3904 45.7712 23.421 43.9978C23.4515 42.255 25.1335 40.6346 26.8765 40.604C28.7725 40.604 30.3627 42.2245 30.3015 44.1201C30.2404 46.0158 28.7419 47.3916 26.8154 47.3916Z" fill="black"/>
<path d="M29.904 8.37748C29.904 10.3037 28.4973 11.6796 26.5401 11.6796C24.6442 11.6796 23.1457 10.2426 23.1151 8.37748C23.0846 6.54299 24.7971 4.86137 26.6319 4.92252C28.4667 4.98367 29.904 6.51241 29.904 8.37748Z" fill="black"/>
<path d="M12.1971 26.5392C12.1359 28.4654 10.6987 29.7802 8.71094 29.719C6.84554 29.6579 5.28595 28.0374 5.37769 26.264C5.46943 24.5518 7.21251 22.8702 8.92501 22.9008C10.7598 22.9314 12.2888 24.5824 12.1971 26.5392Z" fill="black"/>
</svg>
