<svg width="98" height="78" viewBox="0 0 24 21" fill="none" xmlns="http://www.w3.org/2000/svg">
<path d="M18.1605 6.44041C17.7325 6.19622 17.1516 6.19622 16.6624 6.44041L13.1465 8.48547L10.7618 9.79797L7.33758 11.8735C6.90955 12.1177 6.32866 12.1177 5.83949 11.8735L3.14904 10.2558C2.72102 10.0116 2.38471 9.49273 2.38471 8.94331V5.79942C2.38471 5.31105 2.6293 4.79215 3.14904 4.48692L5.80892 2.93023C6.23694 2.68605 6.81783 2.68605 7.30701 2.93023L9.99745 4.54797C10.4255 4.79215 10.7618 5.31105 10.7618 5.86046V7.93605L13.1465 6.5625V4.42587C13.1465 3.9375 12.9019 3.4186 12.3822 3.11337L7.39873 0.18314C6.9707 -0.0610465 6.38981 -0.0610465 5.90064 0.18314L0.764331 3.17442C0.244586 3.4186 0 3.9375 0 4.42587V10.3169C0 10.8052 0.244586 11.3241 0.764331 11.6294L5.80892 14.5596C6.23694 14.8038 6.81783 14.8038 7.30701 14.5596L10.7618 12.5451L13.1465 11.1715L16.6013 9.15698C17.0293 8.91279 17.6102 8.91279 18.0994 9.15698L20.7898 10.7137C21.2178 10.9578 21.5541 11.4767 21.5541 12.0262V15.1395C21.5541 15.6279 21.3096 16.1468 20.7898 16.452L18.1605 18.0087C17.7325 18.2529 17.1516 18.2529 16.6624 18.0087L13.972 16.452C13.5439 16.2078 13.2076 15.689 13.2076 15.1395V13.125L10.8229 14.4985V16.5741C10.8229 17.0625 11.0675 17.5814 11.5873 17.8866L16.6624 20.8169C17.0904 21.061 17.6713 21.061 18.1605 20.8169L23.2357 17.9172C23.6637 17.673 24 17.1541 24 16.6047V10.6831C24 10.1948 23.7554 9.67587 23.2357 9.37064L18.1605 6.44041Z" fill="#8248E5"/>
</svg>
