<svg width="281" height="62" viewBox="0 0 281 62" fill="none" xmlns="http://www.w3.org/2000/svg">
<path d="M54.4815 19.0145C53.1975 18.2936 51.4548 18.2936 49.9873 19.0145L39.4395 25.0523L32.2854 28.9273L22.0127 35.0552C20.7287 35.7762 18.986 35.7762 17.5185 35.0552L9.44713 30.2791C8.16306 29.5581 7.15414 28.0262 7.15414 26.4041V17.1221C7.15414 15.6802 7.8879 14.1483 9.44713 13.2471L17.4268 8.65116C18.7108 7.93023 20.4535 7.93023 21.921 8.65116L29.9924 13.4273C31.2764 14.1483 32.2854 15.6802 32.2854 17.3023V23.4302L39.4395 19.375V13.0669C39.4395 11.625 38.7057 10.093 37.1465 9.19186L22.1962 0.540698C20.9121 -0.180233 19.1694 -0.180233 17.7019 0.540698L2.29299 9.37209C0.733758 10.093 0 11.625 0 13.0669V30.4593C0 31.9012 0.733758 33.4331 2.29299 34.3343L17.4268 42.9855C18.7108 43.7064 20.4535 43.7064 21.921 42.9855L32.2854 37.0378L39.4395 32.9826L49.8038 27.0349C51.0879 26.314 52.8306 26.314 54.2981 27.0349L62.3694 31.6308C63.6535 32.3517 64.6624 33.8837 64.6624 35.5058V44.6977C64.6624 46.1395 63.9287 47.6715 62.3694 48.5727L54.4815 53.1686C53.1975 53.8895 51.4548 53.8895 49.9873 53.1686L41.9159 48.5727C40.6318 47.8517 39.6229 46.3198 39.6229 44.6977V38.75L32.4688 42.8052V48.9331C32.4688 50.375 33.2025 51.907 34.7618 52.8081L49.9873 61.4593C51.2713 62.1802 53.014 62.1802 54.4815 61.4593L69.707 52.8983C70.9911 52.1773 72 50.6453 72 49.0233V31.5407C72 30.0988 71.2662 28.5669 69.707 27.6657L54.4815 19.0145Z" fill="#8248E5"/>
<path d="M107.952 20.5306C109.683 21.7 111.049 23.2292 112.051 25.2981C113.053 27.367 113.508 29.7058 113.508 32.3144C113.508 34.9231 113.053 37.2618 112.051 39.2408C111.049 41.2197 109.774 42.7489 108.043 43.8284C106.312 44.9078 104.308 45.4475 102.031 45.4475C100.301 45.4475 98.6611 45.0877 97.2948 44.3681C95.8374 43.6485 94.7443 42.659 94.0156 41.3996V54.4428H86V19.4512H93.8335V23.0493C94.5622 21.7 95.7463 20.7105 97.2037 19.9909C98.6611 19.2713 100.301 18.9115 102.031 18.9115C104.217 18.8215 106.221 19.3613 107.952 20.5306ZM104.035 37.6216C105.037 36.3623 105.584 34.5633 105.584 32.3144C105.584 29.9757 105.037 28.0867 104.035 26.8273C103.033 25.568 101.576 24.8484 99.663 24.8484C97.8413 24.8484 96.3839 25.478 95.2909 26.7374C94.2889 27.9967 93.7424 29.7958 93.7424 32.2245C93.7424 34.5632 94.2889 36.3623 95.2909 37.6216C96.2928 38.881 97.7502 39.5106 99.663 39.5106C101.576 39.4207 103.033 38.881 104.035 37.6216Z" fill="black"/>
<path d="M123.529 43.8297C121.434 42.7503 119.885 41.2211 118.701 39.1522C117.608 37.1732 116.971 34.8344 116.971 32.0459C116.971 29.3473 117.517 27.0085 118.701 24.9396C119.794 22.9607 121.434 21.4315 123.529 20.3521C125.624 19.2726 127.992 18.7329 130.725 18.7329C133.457 18.7329 135.917 19.2726 137.921 20.3521C140.016 21.4315 141.564 22.9607 142.748 24.9396C143.841 26.9186 144.479 29.2574 144.479 32.0459C144.479 34.7445 143.932 37.0832 142.748 39.1522C141.655 41.1311 140.016 42.6603 137.921 43.8297C135.826 44.9091 133.457 45.4488 130.725 45.4488C128.083 45.4488 125.624 44.9091 123.529 43.8297ZM136.645 32.1358C136.645 29.7071 136.099 27.8181 135.097 26.6487C134.095 25.3894 132.638 24.8497 130.816 24.8497C126.899 24.8497 124.986 27.2784 124.986 32.2258C124.986 37.1732 126.899 39.6019 130.816 39.6019C134.642 39.422 136.645 36.9933 136.645 32.1358Z" fill="black"/>
<path d="M149.397 44.9973V2H157.413V44.9973H149.397Z" fill="black"/>
<path d="M181.458 19.4497H189.291L173.624 54.4413H165.518L170.436 43.647L159.779 19.5397H168.068L174.626 35.8211L181.458 19.4497Z" fill="black"/>
<path d="M217.62 19.4508V42.2988C217.62 46.4366 216.436 49.585 214.067 51.6539C211.699 53.8127 208.147 54.8022 203.41 54.8022C201.042 54.8022 198.856 54.5324 196.761 53.9926C194.666 53.4529 192.753 52.6434 191.113 51.6539L193.208 46.2567C196.579 48.0558 199.858 48.9553 203.228 48.9553C207.6 48.9553 209.786 46.8864 209.786 42.8385V40.05C209.058 41.3993 207.965 42.3888 206.416 43.1983C204.959 44.0079 203.319 44.3677 201.497 44.3677C199.22 44.3677 197.216 43.828 195.486 42.8385C193.755 41.849 192.389 40.3199 191.387 38.3409C190.385 36.4519 189.929 34.2031 189.929 31.6844C189.929 29.1657 190.385 26.9169 191.387 25.0279C192.389 23.1389 193.755 21.6097 195.486 20.5303C197.216 19.4508 199.22 18.9111 201.497 18.9111C203.319 18.9111 204.959 19.2709 206.416 19.9906C207.873 20.7102 208.966 21.7896 209.786 23.049V19.4508H217.62ZM208.147 36.5418C209.149 35.3725 209.695 33.7533 209.695 31.5945C209.695 29.4356 209.149 27.8164 208.147 26.6471C207.145 25.4777 205.687 24.848 203.775 24.848C201.953 24.848 200.404 25.4777 199.402 26.6471C198.309 27.8164 197.854 29.5255 197.854 31.5945C197.854 33.6634 198.4 35.2825 199.402 36.5418C200.495 37.7112 201.953 38.3409 203.775 38.3409C205.596 38.3409 207.054 37.7112 208.147 36.5418Z" fill="black"/>
<path d="M228.916 43.8297C226.821 42.7503 225.272 41.2211 224.088 39.1522C222.995 37.1732 222.358 34.8344 222.358 32.0459C222.358 29.3473 222.904 27.0085 224.088 24.9396C225.181 22.9607 226.821 21.4315 228.916 20.3521C231.011 19.2726 233.379 18.7329 236.112 18.7329C238.844 18.7329 241.304 19.2726 243.308 20.3521C245.403 21.4315 246.951 22.9607 248.135 24.9396C249.228 26.9186 249.866 29.2574 249.866 32.0459C249.866 34.7445 249.319 37.0832 248.135 39.1522C247.042 41.1311 245.403 42.6603 243.308 43.8297C241.213 44.9091 238.844 45.4488 236.112 45.4488C233.379 45.4488 231.011 44.9091 228.916 43.8297ZM242.032 32.1358C242.032 29.7071 241.486 27.8181 240.484 26.6487C239.482 25.3894 238.024 24.8497 236.203 24.8497C232.286 24.8497 230.373 27.2784 230.373 32.2258C230.373 37.1732 232.286 39.6019 236.203 39.6019C240.028 39.422 242.032 36.9933 242.032 32.1358Z" fill="black"/>
<path d="M277.919 21.5196C279.468 23.3186 280.197 26.0172 280.197 29.6153V45.0871H272.181V29.9751C272.181 28.266 271.817 27.0067 271.179 26.1971C270.541 25.3875 269.539 25.0277 268.173 25.0277C266.533 25.0277 265.167 25.5674 264.165 26.5569C263.163 27.6363 262.617 28.9856 262.617 30.6947V44.9972H254.601V19.4506H262.343V23.1387C263.254 21.7894 264.438 20.71 265.896 19.9904C267.353 19.2707 268.993 18.9109 270.815 18.9109C274.185 18.821 276.462 19.7205 277.919 21.5196Z" fill="black"/>
</svg>
