<svg width="95" height="80" viewBox="0 0 95 80" fill="none" xmlns="http://www.w3.org/2000/svg">
<path d="M5.20862 30.9695L2.92859 33.3096L5.20862 35.6494L26.1983 57.1901L28.2803 59.3269L28.5518 59.6054L30.5604 61.6668L43.148 74.5847L45.5017 77L47.8552 74.5847L73.9065 47.8493L79.7609 53.8573L82.1146 56.2728L84.468 53.8573L89.1714 49.0306L91.4516 46.6905L89.1714 44.3507L68.376 23.0093L66.0224 20.5938V20.594L63.9494 18.4665L51.2321 5.41534L48.8784 3L46.525 5.41534L20.4736 32.1508L14.6192 26.1428L12.2656 23.7273L9.91204 26.1428L5.20862 30.9695ZM37.8887 50.0233L37.6173 49.7447L35.6088 47.6834L30.6406 42.5848L49.7086 23.0161L54.5388 27.9732L56.8925 30.3886V30.3884L58.9655 32.5159L63.7396 37.4154L44.6715 56.984L39.9708 52.1599L37.8887 50.0233Z" stroke="white" stroke-width="4"/>
</svg>
