<svg width="312" height="52" viewBox="0 0 312 52" fill="none" xmlns="http://www.w3.org/2000/svg">
<g clip-path="url(#clip0)">
<path d="M110.737 7.20681V12.1962H102.054V38.6495H95.7722V12.189H87.1313V7.19971H110.737V7.20681Z" fill="#002C8B"/>
<path d="M119.755 14.9742C121.269 14.0716 122.96 13.6167 124.829 13.6167V20.3403H123.002C118.398 20.3403 116.103 22.4796 116.103 26.7511V38.6416H109.821V13.9721H116.103V18.6913C117.026 17.1206 118.242 15.8768 119.755 14.9742Z" fill="#002C8B"/>
<path d="M151.177 13.9722V38.6418H144.896V33.6523C144.242 35.3155 143.169 36.6161 141.669 37.5471C140.17 38.4854 138.444 38.9472 136.482 38.9472C133.633 38.9472 131.359 38.0091 129.668 36.14C127.976 34.2707 127.131 31.6551 127.131 28.3005V13.9722H133.363V27.597C133.363 29.5585 133.867 31.0794 134.876 32.1599C135.885 33.2473 137.25 33.7875 138.969 33.7875C140.781 33.7875 142.217 33.2116 143.29 32.0532C144.356 30.8947 144.896 29.2315 144.896 27.0639V13.9722H151.177Z" fill="#002C8B"/>
<path d="M170.115 15.9347C171.927 17.4486 173.056 19.4671 173.497 21.9902H167.62C167.379 20.8033 166.846 19.8509 166.015 19.1402C165.183 18.4294 164.096 18.0741 162.767 18.0741C161.701 18.0741 160.87 18.3299 160.273 18.8274C159.676 19.332 159.385 20.0144 159.385 20.8743C159.385 21.5567 159.619 22.1038 160.095 22.5233C160.571 22.9426 161.161 23.2625 161.879 23.504C162.589 23.7386 163.613 24.0228 164.949 24.3498C166.817 24.7691 168.338 25.2027 169.511 25.6647C170.683 26.1267 171.692 26.8516 172.538 27.8466C173.383 28.8417 173.81 30.185 173.81 31.8766C173.81 33.9874 172.985 35.6932 171.337 37.0009C169.688 38.3086 167.471 38.9624 164.679 38.9624C161.474 38.9624 158.908 38.2446 156.976 36.8019C155.043 35.359 153.87 33.305 153.458 30.6326H159.47C159.619 31.8481 160.152 32.8076 161.069 33.504C161.985 34.2006 163.193 34.5488 164.679 34.5488C165.744 34.5488 166.562 34.2859 167.13 33.7671C167.691 33.2482 167.976 32.573 167.976 31.7414C167.976 31.0307 167.734 30.4479 167.244 30.0073C166.753 29.5595 166.142 29.2184 165.417 28.9838C164.686 28.7492 163.655 28.465 162.319 28.138C160.479 27.7258 158.987 27.2994 157.843 26.8659C156.698 26.4393 155.718 25.7429 154.908 24.7976C154.091 23.8453 153.686 22.5445 153.686 20.8814C153.686 18.7422 154.503 17.008 156.137 15.6718C157.772 14.3356 160.024 13.6675 162.909 13.6675C165.901 13.6604 168.303 14.4209 170.115 15.9347Z" fill="#002C8B"/>
<path d="M189.713 33.2553V38.6425H186.416C183.659 38.6425 181.541 37.9746 180.07 36.6384C178.6 35.3022 177.868 33.0775 177.868 29.9575V19.2752H174.436V13.9731H177.868V7.875H184.142V13.9731H189.664V19.2752H184.142V30.0498C184.142 31.2367 184.377 32.0684 184.853 32.5444C185.329 33.0207 186.125 33.2553 187.255 33.2553H189.713Z" fill="#002C8B"/>
<path d="M217.185 34.4848C216.382 35.835 215.195 36.9226 213.624 37.7398C212.054 38.5572 210.136 38.9624 207.882 38.9624C205.658 38.9624 203.669 38.5857 201.914 37.8251C200.158 37.0648 198.759 35.9772 197.708 34.5487C196.654 33.1201 196.052 31.4642 195.901 29.5594H202.582C202.731 30.8386 203.243 31.8977 204.117 32.7434C204.99 33.5892 206.157 34.0156 207.613 34.0156C208.921 34.0156 209.922 33.6674 210.619 32.9708C211.314 32.2744 211.663 31.3717 211.663 30.2772C211.663 29.2963 211.378 28.4861 210.818 27.8465C210.255 27.2069 209.539 26.6952 208.678 26.3113C207.819 25.9275 206.633 25.4797 205.119 24.9751C203.156 24.3213 201.558 23.6746 200.308 23.0348C199.064 22.3952 197.999 21.4713 197.124 20.2487C196.25 19.0334 195.809 17.4414 195.809 15.4797C195.809 12.779 196.783 10.6468 198.723 9.09026C200.67 7.53376 203.243 6.75195 206.448 6.75195C209.774 6.75195 212.424 7.55508 214.392 9.15422C216.36 10.7534 217.489 12.8927 217.753 15.565H210.987C210.81 14.435 210.334 13.511 209.56 12.779C208.786 12.054 207.734 11.6844 206.398 11.6844C205.24 11.6844 204.308 11.99 203.592 12.5942C202.881 13.2054 202.525 14.0867 202.525 15.2452C202.525 16.1692 202.802 16.9296 203.349 17.5409C203.896 18.1521 204.593 18.6496 205.446 19.0334C206.292 19.4171 207.441 19.8508 208.899 20.3269C210.918 21.0376 212.559 21.7057 213.816 22.3312C215.082 22.9566 216.154 23.8878 217.042 25.1387C217.93 26.3895 218.379 28.0171 218.379 30.0355C218.385 31.656 217.988 33.1272 217.185 34.4848Z" fill="#002C8B"/>
<path d="M256.841 13.9722L250.205 38.6418H243.264L237.962 20.6956L232.532 38.6418H225.584L218.995 13.9722H225.277L229.285 33.0341L234.765 13.9722H241.401L246.923 33.0341L250.973 13.9722H256.841Z" fill="#002C8B"/>
<path d="M272.917 15.1317C274.402 16.1125 275.454 17.4344 276.08 19.0975V13.9732H282.31V38.6427H276.08V33.4757C275.454 35.1387 274.402 36.4678 272.917 37.4629C271.432 38.4578 269.649 38.9553 267.573 38.9553C265.499 38.9553 263.623 38.4507 261.959 37.4415C260.297 36.4324 258.997 34.9683 258.064 33.0564C257.127 31.1445 256.666 28.8914 256.666 26.3114C256.666 23.7314 257.134 21.4785 258.064 19.5666C259.002 17.6548 260.297 16.1907 261.959 15.1814C263.623 14.1722 265.491 13.6676 267.573 13.6676C269.649 13.6604 271.432 14.1508 272.917 15.1317ZM264.809 21.0521C263.623 22.3313 263.026 24.0798 263.026 26.3043C263.026 28.5289 263.615 30.2773 264.809 31.5353C266.003 32.7933 267.573 33.426 269.528 33.426C271.425 33.426 272.994 32.7791 274.225 31.4856C275.454 30.1922 276.072 28.465 276.072 26.2974C276.072 24.101 275.454 22.3527 274.225 21.0663C272.994 19.7727 271.425 19.126 269.528 19.126C267.573 19.1402 265.995 19.7798 264.809 21.0521Z" fill="#002C8B"/>
<path d="M306.705 15.174C308.367 16.1833 309.669 17.6474 310.6 19.5593C311.537 21.4712 312 23.7241 312 26.3041C312 28.8841 311.53 31.137 310.6 33.0489C309.662 34.9608 308.367 36.4249 306.705 37.4342C305.043 38.4434 303.173 38.948 301.099 38.948C299.023 38.948 297.247 38.4505 295.776 37.4554C294.306 36.4605 293.26 35.1314 292.635 33.4684V50.3907H286.362V13.9729H292.635V19.0973C293.26 17.4341 294.306 16.1122 295.776 15.1314C297.247 14.1506 299.017 13.6602 301.099 13.6602C303.173 13.6602 305.043 14.1648 306.705 15.174ZM294.433 21.0731C293.205 22.3666 292.586 24.108 292.586 26.3041C292.586 28.4717 293.205 30.1989 294.433 31.4924C295.662 32.786 297.234 33.4327 299.131 33.4327C301.091 33.4327 302.663 32.8003 303.849 31.5422C305.036 30.2771 305.633 28.5359 305.633 26.3112C305.633 24.0866 305.036 22.3311 303.849 21.0589C302.663 19.7797 301.091 19.147 299.131 19.147C297.234 19.1399 295.67 19.7866 294.433 21.0731Z" fill="#002C8B"/>
<path d="M27.0367 31.6632C25.7363 32.7648 24.3863 33.4187 22.6666 33.7954C21.9276 33.9801 21.1601 34.0796 20.3855 34.0796C15.12 34.0796 10.4727 29.9289 10.0322 24.84C9.62713 22.0468 10.5296 19.1258 12.5121 16.8301C13.9476 15.1741 15.7809 14.0298 17.7492 13.511V17.1713L30.9947 8.58564L17.7563 0V3.41861C10.5296 4.32836 4.48242 8.91259 1.6116 15.8422C-1.6074 23.6105 0.0696102 32.1179 5.98177 38.0384C9.8332 41.8906 14.9495 44.0086 20.3927 44.0086C25.5942 44.0086 32.5083 41.585 35.6705 36.951C38.0509 33.4541 42.9684 23.6105 44.631 20.2274L27.0367 31.6632Z" fill="#002C8B"/>
<path d="M64.9042 9.21086C61.0529 5.3587 55.9365 3.24072 50.4934 3.24072C45.2917 3.24072 38.3776 5.66431 35.2156 10.2912C32.8279 13.788 27.9177 23.6387 26.2549 27.0147L43.8422 15.5861C45.1426 14.4845 46.4998 13.8306 48.2124 13.4539C48.9513 13.2692 49.7188 13.1696 50.4863 13.1696C55.7518 13.1696 60.399 17.3203 60.8397 22.4092C61.2447 25.2095 60.3422 28.1235 58.3597 30.4192C56.9243 32.0751 55.091 33.2195 53.1225 33.7383V30.0779L39.8841 38.6637L53.1296 47.2492V43.8305C60.3494 42.9209 66.4035 38.3438 69.2745 31.407C72.4863 23.6387 70.8164 15.1313 64.9042 9.21086Z" fill="#002C8B"/>
</g>
<defs>
<clipPath id="clip0">
<rect width="312" height="52" fill="white"/>
</clipPath>
</defs>
</svg>
