<svg width="61" height="78" viewBox="0 0 61 78" fill="none" xmlns="http://www.w3.org/2000/svg">
<path d="M54.0821 65.7077C53.694 65.0287 53.8557 64.4468 53.8557 63.8648C53.8557 55.5875 53.8234 47.3103 53.8557 39.0654C53.8881 36.6404 52.8209 34.9915 50.8482 33.7951C42.7959 28.9452 34.7113 24.0953 26.5943 19.2777C25.8181 18.825 25.4624 18.34 25.4948 17.4023C25.5594 12.6817 25.4948 7.96113 25.5271 3.20819C25.5271 0.492224 27.5968 -0.801094 29.9575 0.524556C34.8083 3.27285 39.6267 6.11815 44.4452 8.89878C48.7786 11.4208 53.0796 13.9427 57.413 16.4324C59.6767 17.7257 60.9379 19.504 60.9379 22.2523C60.9055 34.7005 60.9055 47.181 60.9379 59.6291C60.9379 61.2458 60.5175 62.3451 58.9005 63.0241C57.3159 63.7678 55.796 64.7701 54.0821 65.7077Z" fill="#01D295"/>
<path d="M48.3905 54.488C48.3905 58.8853 48.3582 63.2826 48.4229 67.7122C48.4229 68.8438 48.1318 69.6198 47.0646 70.1695C45.2213 71.1395 43.4751 72.2388 41.6641 73.2734C40.4676 73.9524 40.7586 72.9178 40.7586 72.3681C40.7263 67.9062 40.6939 63.4442 40.7586 58.9823C40.7909 56.7513 39.8531 55.1993 38.0098 54.1C30.0869 49.3147 22.1639 44.5295 14.2086 39.7765C13.3355 39.2592 12.9797 38.7742 13.0121 37.7719C13.0444 32.8896 13.0121 28.0073 13.0444 23.1251C13.0444 20.1504 15.0494 18.8571 17.5718 20.3121C23.1664 23.4807 28.7286 26.7464 34.2909 29.9796C37.8158 32.049 41.3407 34.1183 44.898 36.1552C47.1617 37.4485 48.5199 39.1299 48.4552 41.9105C48.2935 46.1138 48.3905 50.2847 48.3905 54.488Z" fill="#02D295"/>
<path d="M35.4227 67.9713C35.4227 70.0083 35.4227 72.0452 35.4227 74.0822C35.3904 77.5095 32.8033 79.0291 29.8928 77.2508C23.1017 73.1122 16.3106 68.8766 9.55185 64.7057C7.48218 63.4123 5.34783 62.1837 3.3105 60.8904C1.14381 59.5324 0.0119629 57.5601 0.0119629 55.0058C0.0119629 51.0935 0.0443015 47.1812 0.0119629 43.2366C0.0119629 41.9109 0.270672 40.7469 1.49954 40.1003C2.72841 39.4536 3.79558 39.9386 4.92743 40.5853C10.8777 44.1096 16.828 47.5692 22.8107 51.0612C26.1092 53.0011 29.4724 54.8441 32.7386 56.8487C34.4526 57.9157 35.4874 59.5001 35.4551 61.634C35.3904 63.768 35.4227 65.8696 35.4227 67.9713Z" fill="#02D295"/>
</svg>
