<svg xmlns="http://www.w3.org/2000/svg" fill="none" viewBox="0 0 107 111">
  <g stroke-miterlimit="23.798" stroke-width=".537" clip-path="url(#clip0)">
    <path fill="#E4761B" stroke="#E4761B" d="M100.971 77.064l-6.42 21.662-12.598-3.422 19.018-18.24zM81.953 95.255L94.11 78.629l6.862-1.614-19.018 18.24z"/>
    <path fill="#F6851B" stroke="#F6851B" d="M91.511 60.683l9.46 16.332-6.862 1.614-2.598-17.946zm0 0l6.078-4.205 3.382 20.537-9.46-16.332z"/>
    <path fill="#763D16" stroke="#763D16" d="M83.767 48.36l17.498-7.138-.882 3.911-16.616 3.228zm16.077 1.468L83.767 48.36l16.616-3.227-.54 4.694z"/>
    <path fill="#763D16" stroke="#763D16" d="M99.844 49.828l-2.255 6.65-13.822-8.166 16.077 1.516zm3.48-6.944l-2.941 2.25.882-3.912 2.059 1.662zm-3.48 6.944l.539-4.695 2.353 1.956-2.892 2.739z"/>
    <path fill="#E2761B" stroke="#E2761B" d="M68.376 89.974l4.362 1.369 9.166 3.912-13.528-5.281z"/>
    <path fill="#763D16" stroke="#763D16" d="M97.59 56.478l2.254-6.65 1.911 1.467-4.166 5.183zm0 0l-18.136-5.966 4.313-2.2 13.822 8.166zM88.08 27.872l-4.313 20.44-4.313 2.2 8.626-22.64z"/>
    <path fill="#763D16" stroke="#763D16" d="M101.265 41.222L83.767 48.36l4.313-20.44 13.185 13.3z"/>
    <path fill="#763D16" stroke="#763D16" d="M88.08 27.872l18.234-2.102-5.098 15.403-13.136-13.3z"/>
    <path fill="#F6851B" stroke="#F6851B" d="M97.59 56.478l-6.079 4.205-12.057-10.17 18.135 5.965z"/>
    <path fill="#763D16" stroke="#763D16" d="M105.579 11.051l.784 14.719-18.283 2.102 17.499-16.82z"/>
    <path fill="#E2761B" stroke="#E2761B" d="M105.579 11.051L69.111 37.505l-.49-17.946 36.958-8.508z"/>
    <path fill="#F6851B" stroke="#F6851B" d="M41.467 17.408l27.154 2.151.49 17.946-27.644-20.097z"/>
    <path fill="#763D16" stroke="#763D16" d="M79.454 50.561L69.062 37.554l19.018-9.682-8.626 22.69z"/>
    <path fill="#E4761B" stroke="#E4761B" d="M79.454 50.561L91.51 60.732l-16.91 1.858 4.853-12.029z"/>
    <path fill="#E4761B" stroke="#E4761B" d="M74.601 62.59l-5.49-25.085 10.391 13.007-4.901 12.078z"/>
    <path fill="#763D16" stroke="#763D16" d="M88.08 27.872l-19.018 9.633 36.468-26.454-17.45 16.821z"/>
    <path fill="#C0AD9E" stroke="#C0AD9E" d="M41.712 94.863l8.627 8.949-11.715-10.66 3.088 1.711z"/>
    <path fill="#CD6116" stroke="#CD6116" d="M81.953 95.255l4.069-15.452 8.087-1.174-12.156 16.626z"/>
    <path fill="#E2761B" stroke="#E2761B" d="M6.813 51.735l14.9-15.648-12.988 13.79-1.912 1.858z"/>
    <path fill="#F6851B" stroke="#F6851B" d="M94.109 78.63l-8.087 1.173 5.49-19.12 2.597 17.946zM69.062 37.504l-14.508-.489-13.087-19.608 27.595 20.097z"/>
    <path fill="#E4751F" stroke="#E4751F" d="M91.511 60.683l-5.49 19.12-.44-9.34 5.93-9.78z"/>
    <path fill="#CD6116" stroke="#CD6116" d="M74.601 62.59l16.91-1.858-5.93 9.78L74.6 62.59z"/>
    <path fill="#F6851B" stroke="#F6851B" d="M54.554 37.016l14.508.49 5.49 25.084-19.998-25.574z"/>
    <path fill="#E4761B" stroke="#E4761B" d="M54.554 37.016L15.44.88l26.076 16.528 13.038 19.608zM41.467 100.34L7.45 110.853.637 84.986l40.83 15.354z"/>
    <path fill="#763D16" stroke="#763D16" d="M11.862 58.19l12.842-10.074 10.783 2.494-23.625 7.58z"/>
    <path fill="#763D16" stroke="#763D16" d="M35.487 50.659l-10.783-2.494 5.783-23.764 5 26.258zM8.725 49.877l15.979-1.712L11.862 58.19l-3.137-8.313z"/>
    <path fill="#CD6116" stroke="#CD6116" d="M85.58 70.463l-6.617-3.325-4.362-4.548 10.98 7.873z"/>
    <path fill="#763D16" stroke="#763D16" d="M8.725 49.877L7.597 43.91l17.107 4.205-15.98 1.76z"/>
    <path fill="#233447" stroke="#233447" d="M77.542 74.668l1.372-7.53 6.617 3.325-7.99 4.205z"/>
    <path fill="#F6851B" stroke="#F6851B" d="M86.022 79.803l-8.431-5.135 7.99-4.156.44 9.29z"/>
    <path fill="#763D16" stroke="#763D16" d="M24.704 48.165L7.597 43.96l-1.372-5.037 18.479 9.242zm5.783-23.764l-5.783 23.764-18.48-9.242L30.488 24.4zm0 0l24.116 12.615L35.536 50.61 30.487 24.4z"/>
    <path fill="#E4761B" stroke="#E4761B" d="M35.487 50.659l19.067-13.594 8.528 25.916L35.487 50.66zm27.595 12.322l-26.37-.537-1.225-11.785 27.595 12.322z"/>
    <path fill="#F6851B" stroke="#F6851B" d="M11.862 58.19l23.625-7.58 1.225 11.785-24.85-4.206zm62.739 4.4l-11.519.391-8.528-25.916L74.6 62.59z"/>
    <path fill="#CD6116" stroke="#CD6116" d="M78.914 67.138l-1.372 7.53-2.99-12.078 4.362 4.548z"/>
    <path fill="#763D16" stroke="#763D16" d="M15.44.88l39.163 36.136L30.487 24.4 15.44.88z"/>
    <path fill="#E4761B" stroke="#E4761B" d="M.637 84.986l33.036-1.37 7.794 16.724L.637 84.986z"/>
    <path fill="#CD6116" stroke="#CD6116" d="M41.467 100.34l-7.794-16.723 16.224-.783-8.43 17.506z"/>
    <path fill="#F6851B" stroke="#F6851B" d="M77.542 74.668l8.43 5.135 4.657 10.953-13.087-16.088zm-40.83-12.273L.637 84.985 11.862 58.19l24.85 4.205zm-3.039 21.222L.637 84.986l36.026-22.542-2.99 21.173zM74.601 62.59l2.157 7.824-10.44.587 8.283-8.41zM66.317 71l-3.234-8.019 11.518-.39L66.317 71z"/>
    <path fill="#C0AD9E" stroke="#C0AD9E" d="M50.339 103.812l-8.872-3.472 30.88 5.183-22.008-1.711z"/>
    <path fill="#763D16" stroke="#763D16" d="M11.862 58.19l-5.049-6.455 1.912-1.858 3.137 8.312z"/>
    <path fill="#D7C1B3" stroke="#D7C1B3" d="M75.826 101.66l-3.48 3.814-30.88-5.183 34.36 1.369z"/>
    <path fill="#E4761B" stroke="#E4761B" d="M77.493 92.272l-36.026 8.068 8.43-17.506 27.596 9.438z"/>
    <path fill="#D7C1B3" stroke="#D7C1B3" d="M41.467 100.34l36.026-8.068-1.667 9.388-34.36-1.32z"/>
    <path fill="#763D16" stroke="#763D16" d="M6.225 38.923L5.049 18.728l25.438 5.721L6.225 38.923zm2.5 10.954l-3.48-3.57 2.352-2.396 1.128 5.966z"/>
    <path fill="#CD6116" stroke="#CD6116" d="M57.2 68.165l5.882-5.184-.833 12.714-5.048-7.53z"/>
    <path fill="#CD6116" stroke="#CD6116" d="M63.082 62.981l-5.881 5.184-8.578 4.45 14.46-9.634z"/>
    <path fill="#F6851B" stroke="#F6851B" d="M90.678 90.756l-1.617-1.174-11.52-14.914 13.137 16.088z"/>
    <path fill="#CD6116" stroke="#CD6116" d="M48.623 72.615l-11.91-10.171 26.37.537-14.46 9.634z"/>
    <path fill="#E4751F" stroke="#E4751F" d="M62.25 75.695l.833-12.714 3.234 8.02-4.068 4.694z"/>
    <path fill="#763D16" stroke="#763D16" d="M4.068 40.88l2.157-2.006 1.372 5.037-3.529-3.032z"/>
    <path fill="#233447" stroke="#233447" d="M62.25 75.695l-13.627-3.08 8.578-4.45 5.048 7.53z"/>
    <path fill="#763D16" stroke="#763D16" d="M30.487 24.4L5 18.68 15.44.88 30.487 24.4z"/>
    <path fill="#C0AD9E" stroke="#C0AD9E" d="M72.346 105.523l1.47 3.961-23.428-5.672 21.958 1.711z"/>
    <path fill="#F6851B" stroke="#F6851B" d="M49.897 82.834l-1.274-10.22 13.626 3.081-12.352 7.14z"/>
    <path fill="#E4751F" stroke="#E4751F" d="M36.712 62.395l11.911 10.17 1.274 10.22-13.185-20.39z"/>
    <path fill="#F6851B" stroke="#F6851B" d="M66.317 71l10.44-.586L89.06 89.582 66.318 71.001zm-29.605-8.605l13.185 20.39-16.224.832 3.04-21.222z"/>
    <path fill="#E4751F" stroke="#E4751F" d="M66.317 71l12.94 19.658L62.25 75.695l4.068-4.694z"/>
    <path fill="#F6851B" stroke="#F6851B" d="M62.25 75.695l17.056 15.012-1.813 1.614-15.244-16.626z"/>
    <path fill="#F6851B" stroke="#F6851B" d="M77.493 92.272l-27.596-9.438 12.352-7.139 15.244 16.577zm11.568-2.69l-9.804 1.125-12.94-19.657 22.744 18.532z"/>
    <path fill="#C0AD9E" stroke="#C0AD9E" d="M91.658 98.824l-4.215 8.411-13.675 2.2 17.89-10.61zm-17.89 10.611l-1.47-3.961 3.48-3.814-2.01 7.775z"/>
    <path fill="#C0AD9E" stroke="#C0AD9E" d="M75.826 101.66l2.598-1.027-4.656 8.802 2.058-7.775zm-2.058 7.775l4.656-8.802 13.234-1.858-17.89 10.66z"/>
    <path fill="#000316" stroke="#000316" d="M89.06 89.582l3.236 1.956-9.853 1.174 6.618-3.13zM82.443 92.712l-3.186-2.054 9.803-1.124-6.617 3.178zm-1.127 1.565l11.96-1.467-1.667 5.965-10.293-4.498z"/>
    <path fill="#000316" stroke="#000316" d="M91.658 98.824l-13.234 1.858 2.941-6.405 10.293 4.547zm-13.234 1.858l-2.598 1.027 1.667-9.388.931 8.361zm-.931-8.41l1.813-1.614 3.186 2.054-5-.44zm14.802-.734l.98 1.272-11.959 1.467 10.98-2.739z"/>
    <path fill="#000316" stroke="#000316" d="M81.316 94.277l1.127-1.565 9.853-1.174-10.98 2.739zm-3.823-2.005l3.823 2.005-2.94 6.405-.883-8.41z"/>
    <path fill="#000316" stroke="#000316" d="M82.443 92.712l-1.127 1.565-3.823-2.005 4.95.44z"/>
  </g>
  <defs>
    <clipPath id="clip0">
      <path fill="#fff" d="M0 0h107v111H0z"/>
    </clipPath>
  </defs>
</svg>
