<svg xmlns="http://www.w3.org/2000/svg" fill="none" viewBox="0 0 138 85">
  <path fill="#3B99FC" d="M28.244 16.658c22.5-22.002 58.978-22.002 81.477 0l2.708 2.648a2.773 2.773 0 010 3.984l-9.263 9.059c-.563.55-1.474.55-2.037 0l-3.726-3.644c-15.696-15.35-41.144-15.35-56.84 0l-3.99 3.902c-.563.55-1.475.55-2.038 0l-9.263-9.058a2.773 2.773 0 010-3.984l2.972-2.907zm100.634 18.734l8.244 8.062a2.775 2.775 0 010 3.984L99.949 83.791a2.927 2.927 0 01-4.074 0l-26.383-25.8a.732.732 0 00-1.018 0L42.09 83.79a2.927 2.927 0 01-4.074 0L.844 47.438a2.773 2.773 0 010-3.984l8.244-8.062a2.927 2.927 0 014.074 0l26.383 25.8a.732.732 0 001.018 0l26.382-25.8a2.927 2.927 0 014.074 0l26.383 25.8a.732.732 0 001.019 0l26.383-25.8a2.927 2.927 0 014.074 0z"/>
</svg>
