<svg width="534" height="306" viewBox="0 0 534 306" fill="none" xmlns="http://www.w3.org/2000/svg">
<g opacity="0.5">
<rect opacity="0.5" x="2" y="76.7651" width="1" height="226.235" fill="#4A578F"/>
<rect opacity="0.7" x="68.125" y="76.7651" width="1" height="226.235" fill="#4A578F"/>
<rect x="134.25" y="3" width="1" height="300" fill="#4A578F"/>
<rect x="200.375" y="3" width="1" height="300" fill="#4A578F"/>
<rect x="266.5" y="3" width="1" height="300" fill="#4A578F"/>
<rect x="332.625" y="3" width="1" height="300" fill="#4A578F"/>
<rect x="398.75" y="3" width="1" height="300" fill="#4A578F"/>
<rect opacity="0.7" x="464.875" y="3" width="1" height="300" fill="#4A578F"/>
<rect opacity="0.5" x="531" y="3" width="1" height="300" fill="#4A578F"/>
</g>
<path d="M3 303C35.5711 283.647 82.3156 227.618 115.701 207.781C149.086 187.944 231.935 212.212 264.506 192.859C297.077 173.506 288.424 105.888 321.81 86.0515C355.195 66.2147 404.008 105.405 436.579 86.0515C469.15 66.6986 497.615 22.8368 531 3" stroke="url(#paint0_linear)" stroke-width="5" stroke-linecap="round" stroke-linejoin="round"/>
<circle cx="333" cy="83" r="15.5" fill="#000315" stroke="url(#paint1_linear)" stroke-width="3"/>
<circle cx="333" cy="82.9999" r="7.77778" fill="#DE3F3A"/>
<circle cx="333" cy="82.9999" r="7.77778" fill="url(#paint2_linear)" fill-opacity="0.2"/>
<path opacity="0.4" d="M3.20072 12.456C3.04072 12.456 2.90472 12.4 2.79272 12.288C2.68072 12.176 2.62472 12.04 2.62472 11.88V10.152C2.62472 9.992 2.68072 9.856 2.79272 9.744C2.90472 9.632 3.04072 9.576 3.20072 9.576H5.38472C5.54472 9.576 5.68072 9.632 5.79272 9.744C5.92072 9.856 5.98472 9.992 5.98472 10.152V11.88C5.98472 12.04 5.92872 12.176 5.81672 12.288C5.70472 12.4 5.56072 12.456 5.38472 12.456H3.20072ZM3.29672 27C3.13672 27 3.00072 26.944 2.88872 26.832C2.77672 26.72 2.72072 26.584 2.72072 26.424V15.096C2.72072 14.936 2.77672 14.8 2.88872 14.688C3.00072 14.576 3.13672 14.52 3.29672 14.52H5.28872C5.46472 14.52 5.60072 14.576 5.69672 14.688C5.80872 14.784 5.86472 14.92 5.86472 15.096V26.424C5.86472 26.584 5.80872 26.72 5.69672 26.832C5.60072 26.944 5.46472 27 5.28872 27H3.29672ZM9.62484 27C9.46484 27 9.32884 26.944 9.21684 26.832C9.10484 26.72 9.04884 26.584 9.04884 26.424V15.096C9.04884 14.936 9.10484 14.8 9.21684 14.688C9.32884 14.576 9.46484 14.52 9.62484 14.52H11.5928C11.7528 14.52 11.8888 14.576 12.0008 14.688C12.1128 14.8 12.1688 14.936 12.1688 15.096V16.08C13.1128 14.88 14.4488 14.28 16.1768 14.28C17.6488 14.28 18.8168 14.768 19.6808 15.744C20.5448 16.704 20.9768 18.016 20.9768 19.68V26.424C20.9768 26.584 20.9208 26.72 20.8088 26.832C20.7128 26.944 20.5768 27 20.4008 27H18.2888C18.1288 27 17.9928 26.944 17.8808 26.832C17.7688 26.72 17.7128 26.584 17.7128 26.424V19.824C17.7128 18.88 17.4808 18.152 17.0168 17.64C16.5688 17.112 15.9128 16.848 15.0488 16.848C14.2008 16.848 13.5288 17.112 13.0328 17.64C12.5528 18.168 12.3128 18.896 12.3128 19.824V26.424C12.3128 26.584 12.2568 26.72 12.1448 26.832C12.0488 26.944 11.9128 27 11.7368 27H9.62484ZM29.4254 27.24C27.6654 27.24 26.2574 26.752 25.2014 25.776C24.1614 24.8 23.6094 23.448 23.5454 21.72L23.5214 20.76L23.5454 19.8C23.6094 18.072 24.1614 16.72 25.2014 15.744C26.2574 14.768 27.6654 14.28 29.4254 14.28C30.6734 14.28 31.7294 14.504 32.5934 14.952C33.4734 15.4 34.1214 15.952 34.5374 16.608C34.9694 17.248 35.2014 17.856 35.2334 18.432C35.2494 18.592 35.1934 18.728 35.0654 18.84C34.9534 18.952 34.8174 19.008 34.6574 19.008H32.5454C32.3854 19.008 32.2574 18.976 32.1614 18.912C32.0814 18.832 32.0014 18.704 31.9214 18.528C31.6814 17.904 31.3614 17.456 30.9614 17.184C30.5774 16.912 30.0814 16.776 29.4734 16.776C28.6574 16.776 28.0174 17.04 27.5534 17.568C27.0894 18.08 26.8414 18.864 26.8094 19.92L26.7854 20.808L26.8094 21.6C26.8734 23.696 27.7614 24.744 29.4734 24.744C30.0974 24.744 30.6014 24.608 30.9854 24.336C31.3694 24.064 31.6814 23.616 31.9214 22.992C32.0014 22.816 32.0814 22.696 32.1614 22.632C32.2574 22.552 32.3854 22.512 32.5454 22.512H34.6574C34.8174 22.512 34.9534 22.568 35.0654 22.68C35.1934 22.792 35.2494 22.928 35.2334 23.088C35.2014 23.648 34.9774 24.248 34.5614 24.888C34.1454 25.528 33.5054 26.08 32.6414 26.544C31.7774 27.008 30.7054 27.24 29.4254 27.24ZM43.2563 27.24C41.3843 27.24 39.9363 26.76 38.9123 25.8C37.8883 24.824 37.3363 23.496 37.2563 21.816L37.2323 20.76L37.2563 19.704C37.3363 18.04 37.8963 16.72 38.9363 15.744C39.9763 14.768 41.4163 14.28 43.2563 14.28C45.0963 14.28 46.5363 14.768 47.5763 15.744C48.6163 16.72 49.1763 18.04 49.2563 19.704C49.2723 19.896 49.2803 20.248 49.2803 20.76C49.2803 21.272 49.2723 21.624 49.2563 21.816C49.1763 23.496 48.6243 24.824 47.6003 25.8C46.5763 26.76 45.1283 27.24 43.2563 27.24ZM43.2563 24.864C44.1043 24.864 44.7603 24.6 45.2243 24.072C45.6883 23.528 45.9443 22.736 45.9923 21.696C46.0083 21.536 46.0163 21.224 46.0163 20.76C46.0163 20.296 46.0083 19.984 45.9923 19.824C45.9443 18.784 45.6883 18 45.2243 17.472C44.7603 16.928 44.1043 16.656 43.2563 16.656C42.4083 16.656 41.7523 16.928 41.2883 17.472C40.8243 18 40.5683 18.784 40.5203 19.824L40.4963 20.76L40.5203 21.696C40.5683 22.736 40.8243 23.528 41.2883 24.072C41.7523 24.6 42.4083 24.864 43.2563 24.864ZM52.5155 27C52.3555 27 52.2195 26.944 52.1075 26.832C51.9955 26.72 51.9395 26.584 51.9395 26.424V15.096C51.9395 14.936 51.9955 14.8 52.1075 14.688C52.2195 14.576 52.3555 14.52 52.5155 14.52H54.3875C54.5475 14.52 54.6835 14.576 54.7955 14.688C54.9075 14.8 54.9635 14.936 54.9635 15.096V15.912C55.7955 14.824 56.9555 14.28 58.4435 14.28C60.2195 14.28 61.4595 14.992 62.1635 16.416C62.5475 15.776 63.0915 15.264 63.7955 14.88C64.4995 14.48 65.2595 14.28 66.0755 14.28C67.3875 14.28 68.4595 14.728 69.2915 15.624C70.1235 16.52 70.5395 17.824 70.5395 19.536V26.424C70.5395 26.584 70.4835 26.72 70.3715 26.832C70.2755 26.944 70.1395 27 69.9635 27H67.9955C67.8355 27 67.6995 26.944 67.5875 26.832C67.4755 26.72 67.4195 26.584 67.4195 26.424V19.728C67.4195 18.72 67.2035 17.992 66.7715 17.544C66.3555 17.08 65.7955 16.848 65.0915 16.848C64.4675 16.848 63.9315 17.08 63.4835 17.544C63.0515 18.008 62.8355 18.736 62.8355 19.728V26.424C62.8355 26.584 62.7795 26.72 62.6675 26.832C62.5555 26.944 62.4195 27 62.2595 27H60.2915C60.1315 27 59.9955 26.944 59.8835 26.832C59.7715 26.72 59.7155 26.584 59.7155 26.424V19.728C59.7155 18.72 59.4915 17.992 59.0435 17.544C58.6115 17.08 58.0595 16.848 57.3875 16.848C56.7475 16.848 56.2035 17.08 55.7555 17.544C55.3235 18.008 55.1075 18.736 55.1075 19.728V26.424C55.1075 26.584 55.0515 26.72 54.9395 26.832C54.8275 26.944 54.6915 27 54.5315 27H52.5155ZM78.9717 27.24C77.1957 27.24 75.7797 26.728 74.7237 25.704C73.6837 24.664 73.1317 23.208 73.0677 21.336L73.0437 20.736L73.0677 20.136C73.1477 18.312 73.7077 16.88 74.7477 15.84C75.8037 14.8 77.2117 14.28 78.9717 14.28C80.8597 14.28 82.3157 14.856 83.3397 16.008C84.3797 17.16 84.8997 18.696 84.8997 20.616V21.12C84.8997 21.28 84.8437 21.416 84.7317 21.528C84.6197 21.64 84.4757 21.696 84.2997 21.696H76.3317V21.888C76.3637 22.768 76.6037 23.512 77.0517 24.12C77.5157 24.712 78.1477 25.008 78.9477 25.008C79.8917 25.008 80.6517 24.64 81.2277 23.904C81.3717 23.728 81.4837 23.616 81.5637 23.568C81.6597 23.52 81.7957 23.496 81.9717 23.496H84.0357C84.1797 23.496 84.2997 23.544 84.3957 23.64C84.5077 23.72 84.5637 23.824 84.5637 23.952C84.5637 24.336 84.3317 24.792 83.8677 25.32C83.4197 25.832 82.7717 26.28 81.9237 26.664C81.0757 27.048 80.0917 27.24 78.9717 27.24ZM81.6357 19.68V19.608C81.6357 18.664 81.3957 17.904 80.9157 17.328C80.4517 16.752 79.8037 16.464 78.9717 16.464C78.1397 16.464 77.4917 16.752 77.0277 17.328C76.5637 17.904 76.3317 18.664 76.3317 19.608V19.68H81.6357Z" fill="#E95B40"/>
<defs>
<linearGradient id="paint0_linear" x1="9.28911" y1="365.179" x2="161.553" y2="467.69" gradientUnits="userSpaceOnUse">
<stop offset="0.105277" stop-color="#B12E2A"/>
<stop offset="0.697305" stop-color="#F47C45"/>
<stop offset="0.952401" stop-color="#F47C45" stop-opacity="0.35"/>
</linearGradient>
<linearGradient id="paint1_linear" x1="333" y1="69" x2="333" y2="97" gradientUnits="userSpaceOnUse">
<stop stop-color="#DF3F3A"/>
<stop offset="1" stop-color="#F47C45"/>
</linearGradient>
<linearGradient id="paint2_linear" x1="333" y1="75.2222" x2="333" y2="90.7777" gradientUnits="userSpaceOnUse">
<stop stop-color="white"/>
<stop offset="1" stop-color="white" stop-opacity="0"/>
</linearGradient>
</defs>
</svg>
