<svg width="531" height="415" viewBox="0 0 531 415" fill="none" xmlns="http://www.w3.org/2000/svg">
<mask id="mask0" style="mask-type:alpha" maskUnits="userSpaceOnUse" x="120" y="46" width="332" height="300">
<path fill-rule="evenodd" clip-rule="evenodd" d="M279.154 46.1704C332.132 43.2069 377.07 79.3443 409.285 119.244C440.541 157.957 462.29 207.183 446.617 253.586C431.99 296.895 382.249 315.496 337.447 331.943C298.357 346.293 257.005 352.133 218.033 337.502C174.989 321.342 133.142 293.891 122.509 251.25C111.81 208.344 139.696 168.53 166.988 132.798C196.73 93.8602 228.464 49.0061 279.154 46.1704Z" fill="#C4C4C4"/>
</mask>
<g mask="url(#mask0)">
<g filter="url(#filter0_f)">
<path fill-rule="evenodd" clip-rule="evenodd" d="M279.154 46.1704C332.132 43.2069 377.07 79.3443 409.285 119.244C440.541 157.957 462.29 207.183 446.617 253.586C431.99 296.895 382.249 315.496 337.447 331.943C298.357 346.293 257.005 352.133 218.033 337.502C174.989 321.342 133.142 293.891 122.509 251.25C111.81 208.344 139.696 168.53 166.988 132.798C196.73 93.8602 228.464 49.0061 279.154 46.1704Z" fill="url(#paint0_linear)"/>
<path fill-rule="evenodd" clip-rule="evenodd" d="M279.154 46.1704C332.132 43.2069 377.07 79.3443 409.285 119.244C440.541 157.957 462.29 207.183 446.617 253.586C431.99 296.895 382.249 315.496 337.447 331.943C298.357 346.293 257.005 352.133 218.033 337.502C174.989 321.342 133.142 293.891 122.509 251.25C111.81 208.344 139.696 168.53 166.988 132.798C196.73 93.8602 228.464 49.0061 279.154 46.1704Z" fill="url(#paint1_linear)" style="mix-blend-mode:screen"/>
</g>
<path opacity="0.3" fill-rule="evenodd" clip-rule="evenodd" d="M279.154 46.1704C332.132 43.2069 377.07 79.3443 409.285 119.244C440.541 157.957 462.29 207.183 446.617 253.586C431.99 296.895 382.249 315.496 337.447 331.943C298.357 346.293 257.005 352.133 218.033 337.502C174.989 321.342 133.142 293.891 122.509 251.25C111.81 208.344 139.696 168.53 166.988 132.798C196.73 93.8602 228.464 49.0061 279.154 46.1704Z" stroke="url(#paint2_linear)"/>
</g>
<g filter="url(#filter1_d)">
<circle r="29.5456" transform="matrix(0.866026 0.499999 -0.500001 0.866025 285.706 136.243)" fill="url(#paint3_linear)"/>
<circle r="29.5456" transform="matrix(0.866026 0.499999 -0.500001 0.866025 285.706 136.243)" fill="url(#paint4_linear)"/>
<ellipse cx="324.384" cy="218.615" rx="29.5456" ry="34.684" transform="rotate(42.5409 324.384 218.615)" fill="url(#paint5_linear)"/>
<ellipse cx="324.384" cy="218.615" rx="29.5456" ry="34.684" transform="rotate(42.5409 324.384 218.615)" fill="url(#paint6_linear)" fill-opacity="0.5"/>
<ellipse rx="22.4804" ry="29.5456" transform="matrix(0.926694 -0.375817 0.375819 0.926693 253.769 272.134)" fill="url(#paint7_linear)"/>
</g>
<path opacity="0.4" d="M1.51713 55.456C1.35713 55.456 1.22113 55.4 1.10913 55.288C0.997125 55.176 0.941125 55.04 0.941125 54.88V53.152C0.941125 52.992 0.997125 52.856 1.10913 52.744C1.22113 52.632 1.35713 52.576 1.51713 52.576H3.70113C3.86113 52.576 3.99713 52.632 4.10913 52.744C4.23713 52.856 4.30113 52.992 4.30113 53.152V54.88C4.30113 55.04 4.24513 55.176 4.13313 55.288C4.02113 55.4 3.87713 55.456 3.70113 55.456H1.51713ZM1.61313 70C1.45313 70 1.31713 69.944 1.20513 69.832C1.09313 69.72 1.03712 69.584 1.03712 69.424V58.096C1.03712 57.936 1.09313 57.8 1.20513 57.688C1.31713 57.576 1.45313 57.52 1.61313 57.52H3.60513C3.78113 57.52 3.91713 57.576 4.01313 57.688C4.12513 57.784 4.18113 57.92 4.18113 58.096V69.424C4.18113 69.584 4.12513 69.72 4.01313 69.832C3.91713 69.944 3.78113 70 3.60513 70H1.61313ZM7.94125 70C7.78125 70 7.64525 69.944 7.53325 69.832C7.42125 69.72 7.36525 69.584 7.36525 69.424V58.096C7.36525 57.936 7.42125 57.8 7.53325 57.688C7.64525 57.576 7.78125 57.52 7.94125 57.52H9.90925C10.0693 57.52 10.2053 57.576 10.3173 57.688C10.4293 57.8 10.4853 57.936 10.4853 58.096V59.08C11.4293 57.88 12.7653 57.28 14.4933 57.28C15.9653 57.28 17.1333 57.768 17.9973 58.744C18.8613 59.704 19.2933 61.016 19.2933 62.68V69.424C19.2933 69.584 19.2373 69.72 19.1253 69.832C19.0293 69.944 18.8933 70 18.7173 70H16.6053C16.4453 70 16.3093 69.944 16.1973 69.832C16.0853 69.72 16.0293 69.584 16.0293 69.424V62.824C16.0293 61.88 15.7973 61.152 15.3333 60.64C14.8853 60.112 14.2293 59.848 13.3653 59.848C12.5173 59.848 11.8453 60.112 11.3493 60.64C10.8693 61.168 10.6293 61.896 10.6293 62.824V69.424C10.6293 69.584 10.5733 69.72 10.4613 69.832C10.3653 69.944 10.2293 70 10.0533 70H7.94125ZM26.9738 70.24C25.3578 70.24 24.1178 69.72 23.2538 68.68C22.3898 67.64 21.9258 66.256 21.8618 64.528L21.8378 63.736L21.8618 62.968C21.9098 61.288 22.3658 59.92 23.2298 58.864C24.1098 57.808 25.3578 57.28 26.9738 57.28C28.5258 57.28 29.7578 57.808 30.6698 58.864V53.536C30.6698 53.36 30.7258 53.224 30.8378 53.128C30.9498 53.016 31.0858 52.96 31.2458 52.96H33.2858C33.4618 52.96 33.5978 53.016 33.6938 53.128C33.8058 53.224 33.8618 53.36 33.8618 53.536V69.424C33.8618 69.584 33.8058 69.72 33.6938 69.832C33.5978 69.944 33.4618 70 33.2858 70H31.3898C31.2298 70 31.0938 69.944 30.9818 69.832C30.8698 69.72 30.8138 69.584 30.8138 69.424V68.536C29.9018 69.672 28.6218 70.24 26.9738 70.24ZM27.8618 67.672C28.7898 67.672 29.4778 67.376 29.9258 66.784C30.3738 66.192 30.6218 65.464 30.6698 64.6C30.6858 64.408 30.6938 64.096 30.6938 63.664C30.6938 63.248 30.6858 62.944 30.6698 62.752C30.6378 61.952 30.3818 61.272 29.9018 60.712C29.4378 60.136 28.7578 59.848 27.8618 59.848C26.1338 59.848 25.2138 60.912 25.1018 63.04L25.0778 63.76L25.1018 64.48C25.2138 66.608 26.1338 67.672 27.8618 67.672ZM42.4366 70.24C40.6606 70.24 39.2446 69.728 38.1886 68.704C37.1486 67.664 36.5966 66.208 36.5326 64.336L36.5086 63.736L36.5326 63.136C36.6126 61.312 37.1726 59.88 38.2126 58.84C39.2686 57.8 40.6766 57.28 42.4366 57.28C44.3246 57.28 45.7806 57.856 46.8046 59.008C47.8446 60.16 48.3646 61.696 48.3646 63.616V64.12C48.3646 64.28 48.3086 64.416 48.1966 64.528C48.0846 64.64 47.9406 64.696 47.7646 64.696H39.7966V64.888C39.8286 65.768 40.0686 66.512 40.5166 67.12C40.9806 67.712 41.6126 68.008 42.4126 68.008C43.3566 68.008 44.1166 67.64 44.6926 66.904C44.8366 66.728 44.9486 66.616 45.0286 66.568C45.1246 66.52 45.2606 66.496 45.4366 66.496H47.5006C47.6446 66.496 47.7646 66.544 47.8606 66.64C47.9726 66.72 48.0286 66.824 48.0286 66.952C48.0286 67.336 47.7966 67.792 47.3326 68.32C46.8846 68.832 46.2366 69.28 45.3886 69.664C44.5406 70.048 43.5566 70.24 42.4366 70.24ZM45.1006 62.68V62.608C45.1006 61.664 44.8606 60.904 44.3806 60.328C43.9166 59.752 43.2686 59.464 42.4366 59.464C41.6046 59.464 40.9566 59.752 40.4926 60.328C40.0286 60.904 39.7966 61.664 39.7966 62.608V62.68H45.1006ZM50.056 70C49.912 70 49.784 69.952 49.672 69.856C49.576 69.744 49.528 69.616 49.528 69.472C49.528 69.328 49.584 69.192 49.696 69.064L53.776 63.592L49.984 58.456C49.888 58.328 49.84 58.192 49.84 58.048C49.84 57.904 49.888 57.784 49.984 57.688C50.096 57.576 50.224 57.52 50.368 57.52H52.456C52.616 57.52 52.736 57.56 52.816 57.64C52.912 57.704 53.008 57.8 53.104 57.928L55.816 61.528L58.528 57.928C58.544 57.912 58.608 57.84 58.72 57.712C58.816 57.584 58.968 57.52 59.176 57.52H61.168C61.312 57.52 61.432 57.576 61.528 57.688C61.64 57.784 61.696 57.896 61.696 58.024C61.696 58.184 61.648 58.328 61.552 58.456L57.712 63.64L61.816 69.064C61.928 69.192 61.984 69.328 61.984 69.472C61.984 69.616 61.928 69.744 61.816 69.856C61.72 69.952 61.6 70 61.456 70H59.272C59.016 70 58.8 69.872 58.624 69.616L55.744 65.8L52.816 69.616C52.64 69.872 52.424 70 52.168 70H50.056Z" fill="#E95B40"/>
<defs>
<filter id="filter0_f" x="70.167" y="-4" width="431.666" height="400" filterUnits="userSpaceOnUse" color-interpolation-filters="sRGB">
<feFlood flood-opacity="0" result="BackgroundImageFix"/>
<feBlend mode="normal" in="SourceGraphic" in2="BackgroundImageFix" result="shape"/>
<feGaussianBlur stdDeviation="25" result="effect1_foregroundBlur"/>
</filter>
<filter id="filter1_d" x="120.292" y="0.260105" width="345.956" height="413.834" filterUnits="userSpaceOnUse" color-interpolation-filters="sRGB">
<feFlood flood-opacity="0" result="BackgroundImageFix"/>
<feColorMatrix in="SourceAlpha" type="matrix" values="0 0 0 0 0 0 0 0 0 0 0 0 0 0 0 0 0 0 127 0" result="hardAlpha"/>
<feOffset dy="3.43332"/>
<feGaussianBlur stdDeviation="54.933"/>
<feComposite in2="hardAlpha" operator="out"/>
<feColorMatrix type="matrix" values="0 0 0 0 0.941176 0 0 0 0 0.0745098 0 0 0 0 0.160784 0 0 0 1 0"/>
<feBlend mode="normal" in2="BackgroundImageFix" result="effect1_dropShadow"/>
<feBlend mode="normal" in="SourceGraphic" in2="effect1_dropShadow" result="shape"/>
</filter>
<linearGradient id="paint0_linear" x1="438.252" y1="57.5127" x2="299.061" y2="352.17" gradientUnits="userSpaceOnUse">
<stop stop-color="white" stop-opacity="0.27"/>
<stop offset="1" stop-color="white" stop-opacity="0.05"/>
</linearGradient>
<linearGradient id="paint1_linear" x1="54.8572" y1="153.81" x2="208.018" y2="168.145" gradientUnits="userSpaceOnUse">
<stop stop-color="white"/>
<stop offset="0.0001" stop-color="#C6FF7E" stop-opacity="0.18"/>
<stop offset="0.177083" stop-color="#1400FF" stop-opacity="0.47"/>
<stop offset="1" stop-color="white" stop-opacity="0"/>
</linearGradient>
<linearGradient id="paint2_linear" x1="60.3093" y1="241.663" x2="544.405" y2="158.419" gradientUnits="userSpaceOnUse">
<stop stop-color="white"/>
<stop offset="1" stop-color="white" stop-opacity="0"/>
</linearGradient>
<linearGradient id="paint3_linear" x1="40.7978" y1="-20.7503" x2="-17.0376" y2="65.4652" gradientUnits="userSpaceOnUse">
<stop stop-color="#D11833"/>
<stop offset="1" stop-color="#F27744"/>
</linearGradient>
<linearGradient id="paint4_linear" x1="38.8314" y1="6.42302" x2="33.4153" y2="59.4862" gradientUnits="userSpaceOnUse">
<stop stop-color="#D1FF96"/>
<stop offset="1" stop-color="#25774F"/>
</linearGradient>
<linearGradient id="paint5_linear" x1="301.261" y1="253.299" x2="395.623" y2="198.111" gradientUnits="userSpaceOnUse">
<stop stop-color="#5398FF"/>
<stop offset="1" stop-color="#292FB6"/>
</linearGradient>
<linearGradient id="paint6_linear" x1="344.607" y1="242.603" x2="302.869" y2="194.359" gradientUnits="userSpaceOnUse">
<stop stop-color="#4D8192"/>
<stop offset="1" stop-color="#AAB2FA"/>
</linearGradient>
<linearGradient id="paint7_linear" x1="29.5457" y1="6.42302" x2="22.4804" y2="59.0912" gradientUnits="userSpaceOnUse">
<stop stop-color="#FFE896"/>
<stop offset="1" stop-color="#DEB62A"/>
</linearGradient>
</defs>
</svg>
